%TF.GenerationSoftware,KiCad,Pcbnew,8.0.5*%
%TF.CreationDate,2024-10-29T12:08:31+01:00*%
%TF.ProjectId,mcu_holder,6d63755f-686f-46c6-9465-722e6b696361,rev?*%
%TF.SameCoordinates,Original*%
%TF.FileFunction,Soldermask,Top*%
%TF.FilePolarity,Negative*%
%FSLAX46Y46*%
G04 Gerber Fmt 4.6, Leading zero omitted, Abs format (unit mm)*
G04 Created by KiCad (PCBNEW 8.0.5) date 2024-10-29 12:08:31*
%MOMM*%
%LPD*%
G01*
G04 APERTURE LIST*
G04 Aperture macros list*
%AMRoundRect*
0 Rectangle with rounded corners*
0 $1 Rounding radius*
0 $2 $3 $4 $5 $6 $7 $8 $9 X,Y pos of 4 corners*
0 Add a 4 corners polygon primitive as box body*
4,1,4,$2,$3,$4,$5,$6,$7,$8,$9,$2,$3,0*
0 Add four circle primitives for the rounded corners*
1,1,$1+$1,$2,$3*
1,1,$1+$1,$4,$5*
1,1,$1+$1,$6,$7*
1,1,$1+$1,$8,$9*
0 Add four rect primitives between the rounded corners*
20,1,$1+$1,$2,$3,$4,$5,0*
20,1,$1+$1,$4,$5,$6,$7,0*
20,1,$1+$1,$6,$7,$8,$9,0*
20,1,$1+$1,$8,$9,$2,$3,0*%
G04 Aperture macros list end*
%ADD10R,0.280000X1.250000*%
%ADD11R,1.800000X2.000000*%
%ADD12RoundRect,0.250000X0.450000X-0.262500X0.450000X0.262500X-0.450000X0.262500X-0.450000X-0.262500X0*%
%ADD13R,1.100000X2.000000*%
%ADD14C,4.500000*%
%ADD15RoundRect,0.250000X-0.262500X-0.450000X0.262500X-0.450000X0.262500X0.450000X-0.262500X0.450000X0*%
%ADD16R,1.250000X0.280000*%
%ADD17R,2.000000X1.800000*%
%ADD18O,2.200000X3.500000*%
%ADD19R,1.500000X2.500000*%
%ADD20O,1.500000X2.500000*%
%ADD21C,1.752600*%
%ADD22C,2.000000*%
%ADD23RoundRect,0.375000X0.375000X0.750000X-0.375000X0.750000X-0.375000X-0.750000X0.375000X-0.750000X0*%
%ADD24R,2.000000X1.100000*%
G04 APERTURE END LIST*
D10*
%TO.C,J11*%
X130850000Y-74082000D03*
X131350000Y-74082000D03*
X131850000Y-74082000D03*
X132350000Y-74082000D03*
X132850000Y-74082000D03*
X133350000Y-74082000D03*
X133850000Y-74082000D03*
X134350000Y-74082000D03*
X134850000Y-74082000D03*
X135350000Y-74082000D03*
X135850000Y-74082000D03*
X136350000Y-74082000D03*
D11*
X138150000Y-76806000D03*
X129050000Y-76806000D03*
%TD*%
D10*
%TO.C,J16*%
X142850000Y-74082000D03*
X143350000Y-74082000D03*
X143850000Y-74082000D03*
X144350000Y-74082000D03*
X144850000Y-74082000D03*
X145350000Y-74082000D03*
X145850000Y-74082000D03*
X146350000Y-74082000D03*
X146850000Y-74082000D03*
X147350000Y-74082000D03*
X147850000Y-74082000D03*
X148350000Y-74082000D03*
D11*
X150150000Y-76806000D03*
X141050000Y-76806000D03*
%TD*%
D12*
%TO.C,R1*%
X105156000Y-53848000D03*
X105156000Y-52023000D03*
%TD*%
D13*
%TO.C,D2*%
X105390000Y-45200000D03*
X105390000Y-50000000D03*
X107090000Y-45200000D03*
X107090000Y-50000000D03*
X108790000Y-45200000D03*
X108790000Y-50000000D03*
%TD*%
D14*
%TO.C,H5*%
X94486973Y-38100000D03*
%TD*%
D15*
%TO.C,R5*%
X105513500Y-60452000D03*
X107338500Y-60452000D03*
%TD*%
D14*
%TO.C,H8*%
X148929065Y-66500000D03*
%TD*%
D12*
%TO.C,R3*%
X109041331Y-53851517D03*
X109041331Y-52026517D03*
%TD*%
D16*
%TO.C,J17*%
X98249000Y-57500000D03*
X98249000Y-58000000D03*
X98249000Y-58500000D03*
X98249000Y-59000000D03*
X98249000Y-59500000D03*
X98249000Y-60000000D03*
X98249000Y-60500000D03*
X98249000Y-61000000D03*
X98249000Y-61500000D03*
X98249000Y-62000000D03*
X98249000Y-62500000D03*
X98249000Y-63000000D03*
D17*
X95525000Y-64800000D03*
X95525000Y-55700000D03*
%TD*%
D18*
%TO.C,SW17*%
X117654000Y-39370000D03*
X109454000Y-39370000D03*
D19*
X115554000Y-39370000D03*
D20*
X113554000Y-39370000D03*
X111554000Y-39370000D03*
%TD*%
D10*
%TO.C,J13*%
X106850000Y-74082000D03*
X107350000Y-74082000D03*
X107850000Y-74082000D03*
X108350000Y-74082000D03*
X108850000Y-74082000D03*
X109350000Y-74082000D03*
X109850000Y-74082000D03*
X110350000Y-74082000D03*
X110850000Y-74082000D03*
X111350000Y-74082000D03*
X111850000Y-74082000D03*
X112350000Y-74082000D03*
D11*
X114150000Y-76806000D03*
X105050000Y-76806000D03*
%TD*%
D15*
%TO.C,R6*%
X105507500Y-58540000D03*
X107332500Y-58540000D03*
%TD*%
D21*
%TO.C,Display1*%
X104410000Y-68430000D03*
X106950000Y-68430000D03*
X109490000Y-68430000D03*
X112030000Y-68430000D03*
X114570000Y-68430000D03*
%TD*%
D16*
%TO.C,J2*%
X142962000Y-49050000D03*
X142962000Y-48550000D03*
X142962000Y-48050000D03*
X142962000Y-47550000D03*
X142962000Y-47050000D03*
X142962000Y-46550000D03*
X142962000Y-46050000D03*
X142962000Y-45550000D03*
X142962000Y-45050000D03*
X142962000Y-44550000D03*
X142962000Y-44050000D03*
X142962000Y-43550000D03*
D17*
X145686000Y-41750000D03*
X145686000Y-50850000D03*
%TD*%
D22*
%TO.C,SW16*%
X105410000Y-39116000D03*
X98910000Y-39116000D03*
%TD*%
D12*
%TO.C,R2*%
X107100000Y-53848000D03*
X107100000Y-52023000D03*
%TD*%
D14*
%TO.C,H7*%
X141740000Y-38120000D03*
%TD*%
D23*
%TO.C,J7*%
X112400000Y-48340000D03*
X114400000Y-48340000D03*
X116400000Y-48340000D03*
%TD*%
D16*
%TO.C,J3*%
X143102000Y-60640000D03*
X143102000Y-60140000D03*
X143102000Y-59640000D03*
X143102000Y-59140000D03*
X143102000Y-58640000D03*
X143102000Y-58140000D03*
X143102000Y-57640000D03*
X143102000Y-57140000D03*
X143102000Y-56640000D03*
X143102000Y-56140000D03*
X143102000Y-55640000D03*
X143102000Y-55140000D03*
D17*
X145826000Y-53340000D03*
X145826000Y-62440000D03*
%TD*%
D15*
%TO.C,R4*%
X105507500Y-62360000D03*
X107332500Y-62360000D03*
%TD*%
D16*
%TO.C,J15*%
X98249000Y-45400000D03*
X98249000Y-45900000D03*
X98249000Y-46400000D03*
X98249000Y-46900000D03*
X98249000Y-47400000D03*
X98249000Y-47900000D03*
X98249000Y-48400000D03*
X98249000Y-48900000D03*
X98249000Y-49400000D03*
X98249000Y-49900000D03*
X98249000Y-50400000D03*
X98249000Y-50900000D03*
D17*
X95525000Y-52700000D03*
X95525000Y-43600000D03*
%TD*%
D10*
%TO.C,J14*%
X94850000Y-74082000D03*
X95350000Y-74082000D03*
X95850000Y-74082000D03*
X96350000Y-74082000D03*
X96850000Y-74082000D03*
X97350000Y-74082000D03*
X97850000Y-74082000D03*
X98350000Y-74082000D03*
X98850000Y-74082000D03*
X99350000Y-74082000D03*
X99850000Y-74082000D03*
X100350000Y-74082000D03*
D11*
X102150000Y-76806000D03*
X93050000Y-76806000D03*
%TD*%
D24*
%TO.C,D1*%
X109500000Y-62660000D03*
X114300000Y-62660000D03*
X109500000Y-60960000D03*
X114300000Y-60960000D03*
X109500000Y-59260000D03*
X114300000Y-59260000D03*
%TD*%
D10*
%TO.C,J12*%
X118850000Y-74082000D03*
X119350000Y-74082000D03*
X119850000Y-74082000D03*
X120350000Y-74082000D03*
X120850000Y-74082000D03*
X121350000Y-74082000D03*
X121850000Y-74082000D03*
X122350000Y-74082000D03*
X122850000Y-74082000D03*
X123350000Y-74082000D03*
X123850000Y-74082000D03*
X124350000Y-74082000D03*
D11*
X126150000Y-76806000D03*
X117050000Y-76806000D03*
%TD*%
D14*
%TO.C,H6*%
X94485092Y-68580000D03*
%TD*%
D21*
%TO.C,J1*%
X137120000Y-39205000D03*
X137120000Y-41745000D03*
X137120000Y-44285000D03*
X137120000Y-46825000D03*
X137120000Y-49365000D03*
X137120000Y-51905000D03*
X137120000Y-54445000D03*
X137120000Y-56985000D03*
X137120000Y-59525000D03*
X137120000Y-62065000D03*
X137120000Y-64605000D03*
X137120000Y-67145000D03*
X121880000Y-67145000D03*
X121880000Y-64605000D03*
X121880000Y-62065000D03*
X121880000Y-59525000D03*
X121880000Y-56985000D03*
X121880000Y-54445000D03*
X121880000Y-51905000D03*
X121880000Y-49365000D03*
X121880000Y-46825000D03*
X121880000Y-44285000D03*
X121880000Y-41745000D03*
X121880000Y-39205000D03*
X134580000Y-62065000D03*
X134040000Y-64055000D03*
X132040000Y-62065000D03*
X131500000Y-64055000D03*
X129500000Y-62065000D03*
X128960000Y-64055000D03*
%TD*%
M02*
