%TF.GenerationSoftware,KiCad,Pcbnew,8.0.5*%
%TF.CreationDate,2024-10-29T12:08:31+01:00*%
%TF.ProjectId,mcu_holder,6d63755f-686f-46c6-9465-722e6b696361,rev?*%
%TF.SameCoordinates,Original*%
%TF.FileFunction,Copper,L1,Top*%
%TF.FilePolarity,Positive*%
%FSLAX46Y46*%
G04 Gerber Fmt 4.6, Leading zero omitted, Abs format (unit mm)*
G04 Created by KiCad (PCBNEW 8.0.5) date 2024-10-29 12:08:31*
%MOMM*%
%LPD*%
G01*
G04 APERTURE LIST*
G04 Aperture macros list*
%AMRoundRect*
0 Rectangle with rounded corners*
0 $1 Rounding radius*
0 $2 $3 $4 $5 $6 $7 $8 $9 X,Y pos of 4 corners*
0 Add a 4 corners polygon primitive as box body*
4,1,4,$2,$3,$4,$5,$6,$7,$8,$9,$2,$3,0*
0 Add four circle primitives for the rounded corners*
1,1,$1+$1,$2,$3*
1,1,$1+$1,$4,$5*
1,1,$1+$1,$6,$7*
1,1,$1+$1,$8,$9*
0 Add four rect primitives between the rounded corners*
20,1,$1+$1,$2,$3,$4,$5,0*
20,1,$1+$1,$4,$5,$6,$7,0*
20,1,$1+$1,$6,$7,$8,$9,0*
20,1,$1+$1,$8,$9,$2,$3,0*%
G04 Aperture macros list end*
%TA.AperFunction,SMDPad,CuDef*%
%ADD10R,0.280000X1.250000*%
%TD*%
%TA.AperFunction,SMDPad,CuDef*%
%ADD11R,1.800000X2.000000*%
%TD*%
%TA.AperFunction,SMDPad,CuDef*%
%ADD12RoundRect,0.250000X0.450000X-0.262500X0.450000X0.262500X-0.450000X0.262500X-0.450000X-0.262500X0*%
%TD*%
%TA.AperFunction,SMDPad,CuDef*%
%ADD13R,1.100000X2.000000*%
%TD*%
%TA.AperFunction,ComponentPad*%
%ADD14C,4.500000*%
%TD*%
%TA.AperFunction,SMDPad,CuDef*%
%ADD15RoundRect,0.250000X-0.262500X-0.450000X0.262500X-0.450000X0.262500X0.450000X-0.262500X0.450000X0*%
%TD*%
%TA.AperFunction,SMDPad,CuDef*%
%ADD16R,1.250000X0.280000*%
%TD*%
%TA.AperFunction,SMDPad,CuDef*%
%ADD17R,2.000000X1.800000*%
%TD*%
%TA.AperFunction,ComponentPad*%
%ADD18O,2.200000X3.500000*%
%TD*%
%TA.AperFunction,ComponentPad*%
%ADD19R,1.500000X2.500000*%
%TD*%
%TA.AperFunction,ComponentPad*%
%ADD20O,1.500000X2.500000*%
%TD*%
%TA.AperFunction,ComponentPad*%
%ADD21C,1.752600*%
%TD*%
%TA.AperFunction,ComponentPad*%
%ADD22C,2.000000*%
%TD*%
%TA.AperFunction,ComponentPad*%
%ADD23RoundRect,0.375000X0.375000X0.750000X-0.375000X0.750000X-0.375000X-0.750000X0.375000X-0.750000X0*%
%TD*%
%TA.AperFunction,SMDPad,CuDef*%
%ADD24R,2.000000X1.100000*%
%TD*%
%TA.AperFunction,ViaPad*%
%ADD25C,0.800000*%
%TD*%
%TA.AperFunction,Conductor*%
%ADD26C,0.250000*%
%TD*%
%TA.AperFunction,Conductor*%
%ADD27C,0.500000*%
%TD*%
G04 APERTURE END LIST*
D10*
%TO.P,J11,1,Pin_1*%
%TO.N,col1*%
X130850000Y-74082000D03*
%TO.P,J11,2,Pin_2*%
%TO.N,row_0*%
X131350000Y-74082000D03*
%TO.P,J11,3,Pin_3*%
%TO.N,row_1*%
X131850000Y-74082000D03*
%TO.P,J11,4,Pin_4*%
%TO.N,row_2*%
X132350000Y-74082000D03*
%TO.P,J11,5,Pin_5*%
%TO.N,unconnected-(J11-Pin_5-Pad5)*%
X132850000Y-74082000D03*
%TO.P,J11,6,Pin_6*%
%TO.N,unconnected-(J11-Pin_6-Pad6)*%
X133350000Y-74082000D03*
%TO.P,J11,7,Pin_7*%
%TO.N,unconnected-(J11-Pin_7-Pad7)*%
X133850000Y-74082000D03*
%TO.P,J11,8,Pin_8*%
%TO.N,unconnected-(J11-Pin_8-Pad8)*%
X134350000Y-74082000D03*
%TO.P,J11,9,Pin_9*%
%TO.N,row_2*%
X134850000Y-74082000D03*
%TO.P,J11,10,Pin_10*%
%TO.N,row_1*%
X135350000Y-74082000D03*
%TO.P,J11,11,Pin_11*%
%TO.N,row_0*%
X135850000Y-74082000D03*
%TO.P,J11,12,Pin_12*%
%TO.N,col1*%
X136350000Y-74082000D03*
D11*
%TO.P,J11,13*%
%TO.N,N/C*%
X138150000Y-76806000D03*
%TO.P,J11,14*%
X129050000Y-76806000D03*
%TD*%
D10*
%TO.P,J16,1,Pin_1*%
%TO.N,col0*%
X142850000Y-74082000D03*
%TO.P,J16,2,Pin_2*%
%TO.N,row_0*%
X143350000Y-74082000D03*
%TO.P,J16,3,Pin_3*%
%TO.N,row_1*%
X143850000Y-74082000D03*
%TO.P,J16,4,Pin_4*%
%TO.N,row_2*%
X144350000Y-74082000D03*
%TO.P,J16,5,Pin_5*%
%TO.N,unconnected-(J16-Pin_5-Pad5)*%
X144850000Y-74082000D03*
%TO.P,J16,6,Pin_6*%
%TO.N,unconnected-(J16-Pin_6-Pad6)*%
X145350000Y-74082000D03*
%TO.P,J16,7,Pin_7*%
%TO.N,unconnected-(J16-Pin_7-Pad7)*%
X145850000Y-74082000D03*
%TO.P,J16,8,Pin_8*%
%TO.N,unconnected-(J16-Pin_8-Pad8)*%
X146350000Y-74082000D03*
%TO.P,J16,9,Pin_9*%
%TO.N,row_2*%
X146850000Y-74082000D03*
%TO.P,J16,10,Pin_10*%
%TO.N,row_1*%
X147350000Y-74082000D03*
%TO.P,J16,11,Pin_11*%
%TO.N,row_0*%
X147850000Y-74082000D03*
%TO.P,J16,12,Pin_12*%
%TO.N,col0*%
X148350000Y-74082000D03*
D11*
%TO.P,J16,13*%
%TO.N,N/C*%
X150150000Y-76806000D03*
%TO.P,J16,14*%
X141050000Y-76806000D03*
%TD*%
D12*
%TO.P,R1,1*%
%TO.N,B*%
X105156000Y-53848000D03*
%TO.P,R1,2*%
%TO.N,Net-(D2-BA)*%
X105156000Y-52023000D03*
%TD*%
D13*
%TO.P,D2,1,BK*%
%TO.N,+3V3*%
X105390000Y-45200000D03*
%TO.P,D2,2,BA*%
%TO.N,Net-(D2-BA)*%
X105390000Y-50000000D03*
%TO.P,D2,3,RK*%
%TO.N,+3V3*%
X107090000Y-45200000D03*
%TO.P,D2,4,RA*%
%TO.N,Net-(D2-RA)*%
X107090000Y-50000000D03*
%TO.P,D2,5,GK*%
%TO.N,+3V3*%
X108790000Y-45200000D03*
%TO.P,D2,6,GA*%
%TO.N,Net-(D2-GA)*%
X108790000Y-50000000D03*
%TD*%
D14*
%TO.P,H5,1,1*%
%TO.N,GND*%
X94486973Y-38100000D03*
%TD*%
D15*
%TO.P,R5,1*%
%TO.N,G2*%
X105513500Y-60452000D03*
%TO.P,R5,2*%
%TO.N,Net-(D1-RK)*%
X107338500Y-60452000D03*
%TD*%
D14*
%TO.P,H8,1,1*%
%TO.N,GND*%
X148929065Y-66500000D03*
%TD*%
D12*
%TO.P,R3,1*%
%TO.N,R*%
X109041331Y-53851517D03*
%TO.P,R3,2*%
%TO.N,Net-(D2-GA)*%
X109041331Y-52026517D03*
%TD*%
D16*
%TO.P,J17,1,Pin_1*%
%TO.N,col4*%
X98249000Y-57500000D03*
%TO.P,J17,2,Pin_2*%
%TO.N,row_0*%
X98249000Y-58000000D03*
%TO.P,J17,3,Pin_3*%
%TO.N,row_1*%
X98249000Y-58500000D03*
%TO.P,J17,4,Pin_4*%
%TO.N,row_2*%
X98249000Y-59000000D03*
%TO.P,J17,5,Pin_5*%
%TO.N,unconnected-(J17-Pin_5-Pad5)*%
X98249000Y-59500000D03*
%TO.P,J17,6,Pin_6*%
%TO.N,unconnected-(J17-Pin_6-Pad6)*%
X98249000Y-60000000D03*
%TO.P,J17,7,Pin_7*%
%TO.N,unconnected-(J17-Pin_7-Pad7)*%
X98249000Y-60500000D03*
%TO.P,J17,8,Pin_8*%
%TO.N,unconnected-(J17-Pin_8-Pad8)*%
X98249000Y-61000000D03*
%TO.P,J17,9,Pin_9*%
%TO.N,row_2*%
X98249000Y-61500000D03*
%TO.P,J17,10,Pin_10*%
%TO.N,row_1*%
X98249000Y-62000000D03*
%TO.P,J17,11,Pin_11*%
%TO.N,row_0*%
X98249000Y-62500000D03*
%TO.P,J17,12,Pin_12*%
%TO.N,col4*%
X98249000Y-63000000D03*
D17*
%TO.P,J17,13*%
%TO.N,N/C*%
X95525000Y-64800000D03*
%TO.P,J17,14*%
X95525000Y-55700000D03*
%TD*%
D18*
%TO.P,SW17,*%
%TO.N,*%
X117654000Y-39370000D03*
X109454000Y-39370000D03*
D19*
%TO.P,SW17,1,A*%
%TO.N,unconnected-(SW17-A-Pad1)*%
X115554000Y-39370000D03*
D20*
%TO.P,SW17,2,B*%
%TO.N,BAT+*%
X113554000Y-39370000D03*
%TO.P,SW17,3,C*%
%TO.N,BATT_OR_5V*%
X111554000Y-39370000D03*
%TD*%
D10*
%TO.P,J13,1,Pin_1*%
%TO.N,col3*%
X106850000Y-74082000D03*
%TO.P,J13,2,Pin_2*%
%TO.N,row_0*%
X107350000Y-74082000D03*
%TO.P,J13,3,Pin_3*%
%TO.N,row_1*%
X107850000Y-74082000D03*
%TO.P,J13,4,Pin_4*%
%TO.N,row_2*%
X108350000Y-74082000D03*
%TO.P,J13,5,Pin_5*%
%TO.N,unconnected-(J13-Pin_5-Pad5)*%
X108850000Y-74082000D03*
%TO.P,J13,6,Pin_6*%
%TO.N,unconnected-(J13-Pin_6-Pad6)*%
X109350000Y-74082000D03*
%TO.P,J13,7,Pin_7*%
%TO.N,unconnected-(J13-Pin_7-Pad7)*%
X109850000Y-74082000D03*
%TO.P,J13,8,Pin_8*%
%TO.N,unconnected-(J13-Pin_8-Pad8)*%
X110350000Y-74082000D03*
%TO.P,J13,9,Pin_9*%
%TO.N,row_2*%
X110850000Y-74082000D03*
%TO.P,J13,10,Pin_10*%
%TO.N,row_1*%
X111350000Y-74082000D03*
%TO.P,J13,11,Pin_11*%
%TO.N,row_0*%
X111850000Y-74082000D03*
%TO.P,J13,12,Pin_12*%
%TO.N,col3*%
X112350000Y-74082000D03*
D11*
%TO.P,J13,13*%
%TO.N,N/C*%
X114150000Y-76806000D03*
%TO.P,J13,14*%
X105050000Y-76806000D03*
%TD*%
D15*
%TO.P,R6,1*%
%TO.N,B2*%
X105507500Y-58540000D03*
%TO.P,R6,2*%
%TO.N,Net-(D1-GK)*%
X107332500Y-58540000D03*
%TD*%
D21*
%TO.P,Display1,1,MOSI*%
%TO.N,NVMOSI*%
X104410000Y-68430000D03*
%TO.P,Display1,2,SCK*%
%TO.N,NVSCK*%
X106950000Y-68430000D03*
%TO.P,Display1,3,VCC*%
%TO.N,+3V3*%
X109490000Y-68430000D03*
%TO.P,Display1,4,GND*%
%TO.N,GND*%
X112030000Y-68430000D03*
%TO.P,Display1,5,CS*%
%TO.N,NVCS*%
X114570000Y-68430000D03*
%TD*%
D16*
%TO.P,J2,1,Pin_1*%
%TO.N,col0*%
X142962000Y-49050000D03*
%TO.P,J2,2,Pin_2*%
%TO.N,col1*%
X142962000Y-48550000D03*
%TO.P,J2,3,Pin_3*%
%TO.N,col2*%
X142962000Y-48050000D03*
%TO.P,J2,4,Pin_4*%
%TO.N,col3*%
X142962000Y-47550000D03*
%TO.P,J2,5,Pin_5*%
%TO.N,col4*%
X142962000Y-47050000D03*
%TO.P,J2,6,Pin_6*%
%TO.N,row_3*%
X142962000Y-46550000D03*
%TO.P,J2,7,Pin_7*%
X142962000Y-46050000D03*
%TO.P,J2,8,Pin_8*%
%TO.N,col4*%
X142962000Y-45550000D03*
%TO.P,J2,9,Pin_9*%
%TO.N,col3*%
X142962000Y-45050000D03*
%TO.P,J2,10,Pin_10*%
%TO.N,col2*%
X142962000Y-44550000D03*
%TO.P,J2,11,Pin_11*%
%TO.N,col1*%
X142962000Y-44050000D03*
%TO.P,J2,12,Pin_12*%
%TO.N,col0*%
X142962000Y-43550000D03*
D17*
%TO.P,J2,13*%
%TO.N,N/C*%
X145686000Y-41750000D03*
%TO.P,J2,14*%
X145686000Y-50850000D03*
%TD*%
D22*
%TO.P,SW16,1,1*%
%TO.N,RESET*%
X105410000Y-39116000D03*
%TO.P,SW16,2,2*%
%TO.N,GND*%
X98910000Y-39116000D03*
%TD*%
D12*
%TO.P,R2,1*%
%TO.N,G*%
X107100000Y-53848000D03*
%TO.P,R2,2*%
%TO.N,Net-(D2-RA)*%
X107100000Y-52023000D03*
%TD*%
D14*
%TO.P,H7,1,1*%
%TO.N,GND*%
X141740000Y-38120000D03*
%TD*%
D23*
%TO.P,J7,1,Pin_1*%
%TO.N,BAT+*%
X112400000Y-48340000D03*
%TO.P,J7,2,Pin_2*%
%TO.N,GND*%
X114400000Y-48340000D03*
%TO.P,J7,3,Pin_3*%
%TO.N,BAT+*%
X116400000Y-48340000D03*
%TD*%
D16*
%TO.P,J3,1,3V3*%
%TO.N,+3V3*%
X143102000Y-60640000D03*
%TO.P,J3,2,GND*%
%TO.N,GND*%
X143102000Y-60140000D03*
%TO.P,J3,3,SDA*%
%TO.N,SDA*%
X143102000Y-59640000D03*
%TO.P,J3,4,SCL*%
%TO.N,SCL*%
X143102000Y-59140000D03*
%TO.P,J3,5,RGB_LED_OUT*%
%TO.N,RGB_LED_OUT*%
X143102000Y-58640000D03*
%TO.P,J3,6,5V*%
%TO.N,BATT_OR_5V*%
X143102000Y-58140000D03*
%TO.P,J3,7,GPIO_AD1*%
%TO.N,GPIO_AD1*%
X143102000Y-57640000D03*
%TO.P,J3,8,MOSI*%
%TO.N,MOSI*%
X143102000Y-57140000D03*
%TO.P,J3,9,GPIO_AD2*%
%TO.N,GPIO_AD2*%
X143102000Y-56640000D03*
%TO.P,J3,10,SPI_CS*%
%TO.N,SPI_CS*%
X143102000Y-56140000D03*
%TO.P,J3,11,MISO*%
%TO.N,MISO*%
X143102000Y-55640000D03*
%TO.P,J3,12,SCLK*%
%TO.N,SCLK*%
X143102000Y-55140000D03*
D17*
%TO.P,J3,13*%
%TO.N,N/C*%
X145826000Y-53340000D03*
%TO.P,J3,14*%
X145826000Y-62440000D03*
%TD*%
D15*
%TO.P,R4,1*%
%TO.N,R2*%
X105507500Y-62360000D03*
%TO.P,R4,2*%
%TO.N,Net-(D1-BK)*%
X107332500Y-62360000D03*
%TD*%
D16*
%TO.P,J15,1,Pin_1*%
%TO.N,col0*%
X98249000Y-45400000D03*
%TO.P,J15,2,Pin_2*%
%TO.N,row_0*%
X98249000Y-45900000D03*
%TO.P,J15,3,Pin_3*%
%TO.N,row_1*%
X98249000Y-46400000D03*
%TO.P,J15,4,Pin_4*%
%TO.N,row_2*%
X98249000Y-46900000D03*
%TO.P,J15,5,Pin_5*%
%TO.N,unconnected-(J15-Pin_5-Pad5)*%
X98249000Y-47400000D03*
%TO.P,J15,6,Pin_6*%
%TO.N,unconnected-(J15-Pin_6-Pad6)*%
X98249000Y-47900000D03*
%TO.P,J15,7,Pin_7*%
%TO.N,unconnected-(J15-Pin_7-Pad7)*%
X98249000Y-48400000D03*
%TO.P,J15,8,Pin_8*%
%TO.N,unconnected-(J15-Pin_8-Pad8)*%
X98249000Y-48900000D03*
%TO.P,J15,9,Pin_9*%
%TO.N,row_2*%
X98249000Y-49400000D03*
%TO.P,J15,10,Pin_10*%
%TO.N,row_1*%
X98249000Y-49900000D03*
%TO.P,J15,11,Pin_11*%
%TO.N,row_0*%
X98249000Y-50400000D03*
%TO.P,J15,12,Pin_12*%
%TO.N,col0*%
X98249000Y-50900000D03*
D17*
%TO.P,J15,13*%
%TO.N,N/C*%
X95525000Y-52700000D03*
%TO.P,J15,14*%
X95525000Y-43600000D03*
%TD*%
D10*
%TO.P,J14,1,Pin_1*%
%TO.N,col4*%
X94850000Y-74082000D03*
%TO.P,J14,2,Pin_2*%
%TO.N,row_0*%
X95350000Y-74082000D03*
%TO.P,J14,3,Pin_3*%
%TO.N,row_1*%
X95850000Y-74082000D03*
%TO.P,J14,4,Pin_4*%
%TO.N,row_2*%
X96350000Y-74082000D03*
%TO.P,J14,5,Pin_5*%
%TO.N,unconnected-(J14-Pin_5-Pad5)*%
X96850000Y-74082000D03*
%TO.P,J14,6,Pin_6*%
%TO.N,unconnected-(J14-Pin_6-Pad6)*%
X97350000Y-74082000D03*
%TO.P,J14,7,Pin_7*%
%TO.N,unconnected-(J14-Pin_7-Pad7)*%
X97850000Y-74082000D03*
%TO.P,J14,8,Pin_8*%
%TO.N,unconnected-(J14-Pin_8-Pad8)*%
X98350000Y-74082000D03*
%TO.P,J14,9,Pin_9*%
%TO.N,row_2*%
X98850000Y-74082000D03*
%TO.P,J14,10,Pin_10*%
%TO.N,row_1*%
X99350000Y-74082000D03*
%TO.P,J14,11,Pin_11*%
%TO.N,row_0*%
X99850000Y-74082000D03*
%TO.P,J14,12,Pin_12*%
%TO.N,col4*%
X100350000Y-74082000D03*
D11*
%TO.P,J14,13*%
%TO.N,N/C*%
X102150000Y-76806000D03*
%TO.P,J14,14*%
X93050000Y-76806000D03*
%TD*%
D24*
%TO.P,D1,1,BK*%
%TO.N,Net-(D1-BK)*%
X109500000Y-62660000D03*
%TO.P,D1,2,BA*%
%TO.N,+3V3*%
X114300000Y-62660000D03*
%TO.P,D1,3,RK*%
%TO.N,Net-(D1-RK)*%
X109500000Y-60960000D03*
%TO.P,D1,4,RA*%
%TO.N,+3V3*%
X114300000Y-60960000D03*
%TO.P,D1,5,GK*%
%TO.N,Net-(D1-GK)*%
X109500000Y-59260000D03*
%TO.P,D1,6,GA*%
%TO.N,+3V3*%
X114300000Y-59260000D03*
%TD*%
D10*
%TO.P,J12,1,Pin_1*%
%TO.N,col2*%
X118850000Y-74082000D03*
%TO.P,J12,2,Pin_2*%
%TO.N,row_0*%
X119350000Y-74082000D03*
%TO.P,J12,3,Pin_3*%
%TO.N,row_1*%
X119850000Y-74082000D03*
%TO.P,J12,4,Pin_4*%
%TO.N,row_2*%
X120350000Y-74082000D03*
%TO.P,J12,5,Pin_5*%
%TO.N,unconnected-(J12-Pin_5-Pad5)*%
X120850000Y-74082000D03*
%TO.P,J12,6,Pin_6*%
%TO.N,unconnected-(J12-Pin_6-Pad6)*%
X121350000Y-74082000D03*
%TO.P,J12,7,Pin_7*%
%TO.N,unconnected-(J12-Pin_7-Pad7)*%
X121850000Y-74082000D03*
%TO.P,J12,8,Pin_8*%
%TO.N,unconnected-(J12-Pin_8-Pad8)*%
X122350000Y-74082000D03*
%TO.P,J12,9,Pin_9*%
%TO.N,row_2*%
X122850000Y-74082000D03*
%TO.P,J12,10,Pin_10*%
%TO.N,row_1*%
X123350000Y-74082000D03*
%TO.P,J12,11,Pin_11*%
%TO.N,row_0*%
X123850000Y-74082000D03*
%TO.P,J12,12,Pin_12*%
%TO.N,col2*%
X124350000Y-74082000D03*
D11*
%TO.P,J12,13*%
%TO.N,N/C*%
X126150000Y-76806000D03*
%TO.P,J12,14*%
X117050000Y-76806000D03*
%TD*%
D14*
%TO.P,H6,1,1*%
%TO.N,GND*%
X94485092Y-68580000D03*
%TD*%
D21*
%TO.P,J1,1,006*%
%TO.N,MOSI*%
X137120000Y-39205000D03*
%TO.P,J1,2,008*%
%TO.N,SPI_CS*%
X137120000Y-41745000D03*
%TO.P,J1,3,GND*%
%TO.N,GND*%
X137120000Y-44285000D03*
%TO.P,J1,4,GND*%
X137120000Y-46825000D03*
%TO.P,J1,5,017*%
%TO.N,MISO*%
X137120000Y-49365000D03*
%TO.P,J1,6,020*%
%TO.N,SCLK*%
X137120000Y-51905000D03*
%TO.P,J1,7,022*%
%TO.N,SDA*%
X137120000Y-54445000D03*
%TO.P,J1,8,024*%
%TO.N,SCL*%
X137120000Y-56985000D03*
%TO.P,J1,9,100*%
%TO.N,RGB_LED_OUT*%
X137120000Y-59525000D03*
%TO.P,J1,10,011*%
%TO.N,GPIO_AD1*%
X137120000Y-62065000D03*
%TO.P,J1,11,104*%
%TO.N,GPIO_AD2*%
X137120000Y-64605000D03*
%TO.P,J1,12,106*%
%TO.N,row_3*%
X137120000Y-67145000D03*
%TO.P,J1,13,009*%
%TO.N,row_2*%
X121880000Y-67145000D03*
%TO.P,J1,14,010*%
%TO.N,row_1*%
X121880000Y-64605000D03*
%TO.P,J1,15,111*%
%TO.N,row_0*%
X121880000Y-62065000D03*
%TO.P,J1,16,113*%
%TO.N,col3*%
X121880000Y-59525000D03*
%TO.P,J1,17,115*%
%TO.N,col4*%
X121880000Y-56985000D03*
%TO.P,J1,18,002*%
%TO.N,col2*%
X121880000Y-54445000D03*
%TO.P,J1,19,029*%
%TO.N,col1*%
X121880000Y-51905000D03*
%TO.P,J1,20,031*%
%TO.N,col0*%
X121880000Y-49365000D03*
%TO.P,J1,21,3V3*%
%TO.N,+3V3*%
X121880000Y-46825000D03*
%TO.P,J1,22,RST*%
%TO.N,RESET*%
X121880000Y-44285000D03*
%TO.P,J1,23,GND*%
%TO.N,GND*%
X121880000Y-41745000D03*
%TO.P,J1,24,BAT*%
%TO.N,BATT_OR_5V*%
X121880000Y-39205000D03*
%TO.P,J1,31,101*%
%TO.N,NVMOSI*%
X134580000Y-62065000D03*
X134040000Y-64055000D03*
%TO.P,J1,32,102*%
%TO.N,NVSCK*%
X132040000Y-62065000D03*
X131500000Y-64055000D03*
%TO.P,J1,33,107*%
%TO.N,NVCS*%
X129500000Y-62065000D03*
X128960000Y-64055000D03*
%TD*%
D25*
%TO.N,col2*%
X118360312Y-72708805D03*
X124829869Y-72708805D03*
X139020000Y-48030000D03*
%TO.N,row_0*%
X142740000Y-71784829D03*
X100775171Y-63115221D03*
X118739869Y-71783634D03*
X100775171Y-45284778D03*
X148450443Y-71784829D03*
X136450778Y-71784646D03*
X130740335Y-71784646D03*
X124450312Y-71783634D03*
X100451903Y-71781850D03*
X94741460Y-71781850D03*
X100775171Y-57404778D03*
X112451638Y-71782694D03*
X106741195Y-71782694D03*
X100775171Y-50995221D03*
%TO.N,row_1*%
X96390000Y-71070000D03*
X123980491Y-70900870D03*
X99982082Y-70899086D03*
X101657935Y-62645400D03*
X111981817Y-70899930D03*
X101657935Y-45754599D03*
X101657935Y-50525400D03*
X101657935Y-57874599D03*
X135980957Y-70901882D03*
X131210156Y-70901882D03*
X143209821Y-70902065D03*
X147980622Y-70902065D03*
X119209690Y-70900870D03*
X107211016Y-70899930D03*
%TO.N,row_2*%
X99438934Y-70059446D03*
X102497575Y-49982252D03*
X102497575Y-62102252D03*
X135437809Y-70062242D03*
X111438669Y-70060290D03*
X123437343Y-70061230D03*
X102497575Y-46297747D03*
X119752838Y-70061230D03*
X147437474Y-70062425D03*
X97200000Y-70210000D03*
X102497575Y-58417747D03*
X143752969Y-70062425D03*
X131753304Y-70062242D03*
X107754164Y-70060290D03*
%TO.N,col3*%
X106361638Y-72707865D03*
X140980000Y-47325000D03*
X112831195Y-72707865D03*
%TO.N,col0*%
X141140000Y-43500000D03*
X142360443Y-72710000D03*
X99850000Y-44905221D03*
X148830000Y-72710000D03*
X99850000Y-51374778D03*
%TO.N,col1*%
X136830335Y-72709817D03*
X130360778Y-72709817D03*
X140250000Y-44710000D03*
%TO.N,col4*%
X100831460Y-72707021D03*
X94361903Y-72707021D03*
X97890000Y-72720000D03*
X130550000Y-45550000D03*
%TO.N,GND*%
X97536000Y-65278000D03*
X98510000Y-54380000D03*
X131580000Y-59320000D03*
X133070000Y-41770000D03*
X116840000Y-54610000D03*
X92910000Y-55320000D03*
X134100000Y-47870000D03*
X124530000Y-64680000D03*
X119888000Y-64516000D03*
X141340000Y-49170000D03*
X139170000Y-57600000D03*
X101800000Y-66590000D03*
X134630000Y-56640000D03*
X138990000Y-44220000D03*
X117250000Y-64500000D03*
X119888000Y-53086000D03*
X119380000Y-58674000D03*
X114400000Y-44430000D03*
X140740000Y-56450000D03*
X138938000Y-49276000D03*
X135128000Y-49530000D03*
X124670000Y-43870000D03*
X140480000Y-66050000D03*
X141700000Y-53290000D03*
X124890000Y-56170000D03*
X100030000Y-60480000D03*
X139500000Y-46610000D03*
X118110000Y-61480000D03*
X127320000Y-68300000D03*
X116320000Y-57410000D03*
X97390000Y-56250000D03*
X146070000Y-60390000D03*
X147990000Y-48980000D03*
X119850000Y-40780000D03*
X140800000Y-63230000D03*
X123970000Y-52740000D03*
X113538000Y-64770000D03*
X124350000Y-59590000D03*
X134220000Y-44540000D03*
X124230000Y-62310000D03*
X126790000Y-48260000D03*
%TO.N,RGB_LED_OUT*%
X140064696Y-58415001D03*
%TO.N,+3V3*%
X118150000Y-56859000D03*
X107220000Y-43220000D03*
%TO.N,SDA*%
X140790000Y-59900000D03*
%TO.N,GPIO_AD2*%
X150260000Y-59080000D03*
X143015000Y-64575000D03*
%TO.N,GPIO_AD1*%
X148790000Y-59280000D03*
%TO.N,row_3*%
X141460000Y-46330000D03*
%TO.N,SPI_CS*%
X143410000Y-41490000D03*
X150370000Y-56040000D03*
%TO.N,NVCS*%
X116840000Y-62570000D03*
X91948000Y-62738000D03*
X117659303Y-59943997D03*
X118875000Y-54864000D03*
%TO.N,NVSCK*%
X93020000Y-65280000D03*
X92760000Y-59944000D03*
%TO.N,NVMOSI*%
X101740000Y-54440000D03*
X98990000Y-53170000D03*
X103378000Y-56896000D03*
X114145000Y-57455000D03*
%TO.N,MISO*%
X143600000Y-50360000D03*
X145430000Y-55640000D03*
%TO.N,MOSI*%
X147617347Y-57540000D03*
%TO.N,B*%
X103505000Y-53721000D03*
%TO.N,G*%
X111289001Y-53820304D03*
%TO.N,R*%
X112014000Y-52070000D03*
%TO.N,B2*%
X99520000Y-57020000D03*
%TO.N,G2*%
X101303000Y-60160000D03*
%TO.N,R2*%
X102620000Y-64190000D03*
%TD*%
D26*
%TO.N,col2*%
X139040000Y-48050000D02*
X142962000Y-48050000D01*
X144050000Y-48050000D02*
X144100000Y-48000000D01*
X145005000Y-47644577D02*
X145005000Y-45213299D01*
X118840312Y-73123976D02*
X118840312Y-74015976D01*
X142962000Y-48050000D02*
X144050000Y-48050000D01*
X139020000Y-48030000D02*
X139040000Y-48050000D01*
X125660000Y-58225000D02*
X125660000Y-71878674D01*
X145005000Y-45213299D02*
X144341701Y-44550000D01*
X144649577Y-48000000D02*
X145005000Y-47644577D01*
X118840312Y-73123976D02*
X118360312Y-72643976D01*
X124349869Y-73188805D02*
X124349869Y-74080805D01*
X144100000Y-48000000D02*
X144649577Y-48000000D01*
X125660000Y-71878674D02*
X124829869Y-72708805D01*
X121880000Y-54445000D02*
X125660000Y-58225000D01*
X144341701Y-44550000D02*
X142962000Y-44550000D01*
X124829869Y-72708805D02*
X124349869Y-73188805D01*
%TO.N,row_0*%
X136450778Y-71784646D02*
X135850335Y-72385089D01*
X100239557Y-58005221D02*
X100840000Y-57404778D01*
X100239557Y-45885221D02*
X100840000Y-45284778D01*
X124820000Y-66908604D02*
X123380000Y-65468604D01*
X106000000Y-71041499D02*
X106741195Y-71782694D01*
X123849869Y-72384077D02*
X123849869Y-74080805D01*
X143340443Y-72320443D02*
X143340443Y-74017171D01*
X135850335Y-72385089D02*
X135850335Y-74081817D01*
X124450312Y-71783634D02*
X124820000Y-71413946D01*
X112451638Y-71782694D02*
X111851195Y-72383137D01*
X148450443Y-71784829D02*
X147850000Y-72385272D01*
X123380000Y-63565000D02*
X121880000Y-62065000D01*
X100174728Y-50394778D02*
X98478000Y-50394778D01*
X100239557Y-58005221D02*
X98542829Y-58005221D01*
X95341903Y-72317464D02*
X94741460Y-71717021D01*
X100775171Y-63115221D02*
X100174728Y-62514778D01*
X111851195Y-72383137D02*
X111851195Y-74079865D01*
X143340443Y-72320443D02*
X142740000Y-71720000D01*
X119340312Y-72319248D02*
X119340312Y-74015976D01*
X100775171Y-63115221D02*
X100775171Y-63134829D01*
X100174728Y-62514778D02*
X98478000Y-62514778D01*
X147850000Y-72385272D02*
X147850000Y-74082000D01*
X123380000Y-65468604D02*
X123380000Y-63565000D01*
X124820000Y-71413946D02*
X124820000Y-66908604D01*
X100239557Y-45885221D02*
X98542829Y-45885221D01*
X100451903Y-71781850D02*
X99851460Y-72382293D01*
X131340778Y-72320260D02*
X131340778Y-74016988D01*
X95341903Y-72317464D02*
X95341903Y-74014192D01*
X100775171Y-50995221D02*
X100174728Y-50394778D01*
X99002000Y-67712000D02*
X102331499Y-71041499D01*
X119340312Y-72319248D02*
X118739869Y-71718805D01*
X107341638Y-72318308D02*
X106741195Y-71717865D01*
X102331499Y-71041499D02*
X106000000Y-71041499D01*
X100775171Y-63134829D02*
X99002000Y-64908000D01*
X99002000Y-64908000D02*
X99002000Y-67712000D01*
X99851460Y-72382293D02*
X99851460Y-74079021D01*
X107341638Y-72318308D02*
X107341638Y-74015036D01*
X131340778Y-72320260D02*
X130740335Y-71719817D01*
X124450312Y-71783634D02*
X123849869Y-72384077D01*
%TO.N,row_1*%
X124220000Y-66945000D02*
X124220000Y-70661361D01*
X131840778Y-71467675D02*
X131210156Y-70837053D01*
X111351195Y-71530552D02*
X111351195Y-74079865D01*
X99452000Y-65463697D02*
X99452000Y-67525604D01*
X101092142Y-46385221D02*
X98542829Y-46385221D01*
X102455310Y-70528914D02*
X106840000Y-70528914D01*
X101657935Y-63257762D02*
X99452000Y-65463697D01*
X101092142Y-58505221D02*
X101722764Y-57874599D01*
X143840443Y-71467858D02*
X143840443Y-74017171D01*
X101027313Y-62014778D02*
X98478000Y-62014778D01*
X147980622Y-70902065D02*
X147350000Y-71532687D01*
X111981817Y-70899930D02*
X111351195Y-71530552D01*
X99982082Y-70899086D02*
X99351460Y-71529708D01*
X101092142Y-46385221D02*
X101722764Y-45754599D01*
X95841903Y-71618097D02*
X96390000Y-71070000D01*
X101657935Y-50525400D02*
X101027313Y-49894778D01*
X101092142Y-58505221D02*
X98542829Y-58505221D01*
X101657935Y-62645400D02*
X101027313Y-62014778D01*
X147350000Y-71532687D02*
X147350000Y-74082000D01*
X101657935Y-62645400D02*
X101657935Y-63257762D01*
X135980957Y-70901882D02*
X135350335Y-71532504D01*
X123349869Y-71531492D02*
X123349869Y-74080805D01*
X119840312Y-71466663D02*
X119209690Y-70836041D01*
X106840000Y-70528914D02*
X107211016Y-70899930D01*
X107841638Y-71465723D02*
X107211016Y-70835101D01*
X119840312Y-71466663D02*
X119840312Y-74015976D01*
X135350335Y-71532504D02*
X135350335Y-74081817D01*
X131840778Y-71467675D02*
X131840778Y-74016988D01*
X99351460Y-71529708D02*
X99351460Y-74079021D01*
X101027313Y-49894778D02*
X98478000Y-49894778D01*
X121880000Y-64605000D02*
X124220000Y-66945000D01*
X123980491Y-70900870D02*
X123349869Y-71531492D01*
X99452000Y-67525604D02*
X102455310Y-70528914D01*
X95841903Y-74014192D02*
X95841903Y-71618097D01*
X143840443Y-71467858D02*
X143209821Y-70837236D01*
X124220000Y-70661361D02*
X123980491Y-70900870D01*
X107841638Y-71465723D02*
X107841638Y-74015036D01*
%TO.N,row_2*%
X96341903Y-74014192D02*
X96341903Y-72578097D01*
X134850335Y-70649716D02*
X134850335Y-74081817D01*
X146850000Y-70649899D02*
X146850000Y-74082000D01*
X120340312Y-70583875D02*
X119752838Y-69996401D01*
X144340443Y-70585070D02*
X143752969Y-69997596D01*
X108341638Y-70582935D02*
X107754164Y-69995461D01*
X123437343Y-70061230D02*
X122849869Y-70648704D01*
X101910101Y-49394778D02*
X98478000Y-49394778D01*
X101974930Y-59005221D02*
X98542829Y-59005221D01*
X110851195Y-70647764D02*
X110851195Y-74079865D01*
X120340312Y-70583875D02*
X120340312Y-74015976D01*
X102497575Y-63054518D02*
X99902000Y-65650093D01*
X101974930Y-59005221D02*
X102562404Y-58417747D01*
X122849869Y-70648704D02*
X122849869Y-74080805D01*
X98851460Y-70646920D02*
X98851460Y-74079021D01*
X101974930Y-46885221D02*
X102562404Y-46297747D01*
X97200000Y-71720000D02*
X97200000Y-70210000D01*
X102497575Y-62102252D02*
X102497575Y-63054518D01*
X99902000Y-67339208D02*
X102623082Y-70060290D01*
X102497575Y-49982252D02*
X101910101Y-49394778D01*
X101974930Y-46885221D02*
X98542829Y-46885221D01*
X99438934Y-70059446D02*
X98851460Y-70646920D01*
X111438669Y-70060290D02*
X110851195Y-70647764D01*
X99902000Y-65650093D02*
X99902000Y-67339208D01*
X101910101Y-61514778D02*
X98478000Y-61514778D01*
X108341638Y-70582935D02*
X108341638Y-74015036D01*
X147437474Y-70062425D02*
X146850000Y-70649899D01*
X132340778Y-70584887D02*
X132340778Y-74016988D01*
X123437343Y-68702343D02*
X123437343Y-70061230D01*
X132340778Y-70584887D02*
X131753304Y-69997413D01*
X121880000Y-67145000D02*
X123437343Y-68702343D01*
X96341903Y-72578097D02*
X97200000Y-71720000D01*
X135437809Y-70062242D02*
X134850335Y-70649716D01*
X144340443Y-70585070D02*
X144340443Y-74017171D01*
X102497575Y-62102252D02*
X101910101Y-61514778D01*
X102623082Y-70060290D02*
X107754164Y-70060290D01*
%TO.N,col3*%
X144205305Y-45050000D02*
X142962000Y-45050000D01*
X106841638Y-73123036D02*
X106361638Y-72643036D01*
X142962000Y-47550000D02*
X144165305Y-47550000D01*
X140980000Y-47325000D02*
X141205000Y-47550000D01*
X144165305Y-47550000D02*
X144555000Y-47160305D01*
X141205000Y-47550000D02*
X142962000Y-47550000D01*
X118740000Y-62665000D02*
X118740000Y-66799060D01*
X112351195Y-73187865D02*
X112351195Y-74079865D01*
X144555000Y-45399695D02*
X144205305Y-45050000D01*
X144555000Y-47160305D02*
X144555000Y-45399695D01*
X121880000Y-59525000D02*
X118740000Y-62665000D01*
X112831195Y-72707865D02*
X112351195Y-73187865D01*
X118740000Y-66799060D02*
X112831195Y-72707865D01*
X106841638Y-73123036D02*
X106841638Y-74015036D01*
%TO.N,col0*%
X141190000Y-43550000D02*
X141140000Y-43500000D01*
X99434829Y-45385221D02*
X98542829Y-45385221D01*
X103893662Y-55139017D02*
X114278983Y-55139017D01*
X99370000Y-50894778D02*
X98478000Y-50894778D01*
X142360443Y-72710000D02*
X138930443Y-69280000D01*
X138930443Y-69280000D02*
X130390000Y-69280000D01*
X148350000Y-73190000D02*
X148350000Y-74082000D01*
X130390000Y-69280000D02*
X126560000Y-65450000D01*
X142840443Y-73125171D02*
X142360443Y-72645171D01*
X142840443Y-73125171D02*
X142840443Y-74017171D01*
X148830000Y-72710000D02*
X148350000Y-73190000D01*
X145905000Y-48325021D02*
X145905000Y-44384562D01*
X126560000Y-54045000D02*
X121880000Y-49365000D01*
X114278983Y-55139017D02*
X120053000Y-49365000D01*
X142962000Y-49050000D02*
X145180021Y-49050000D01*
X120053000Y-49365000D02*
X121880000Y-49365000D01*
X145070438Y-43550000D02*
X142962000Y-43550000D01*
X142962000Y-43550000D02*
X141190000Y-43550000D01*
X145905000Y-44384562D02*
X145070438Y-43550000D01*
X99434829Y-45385221D02*
X99914829Y-44905221D01*
X99850000Y-51374778D02*
X99370000Y-50894778D01*
X145180021Y-49050000D02*
X145905000Y-48325021D01*
X100129423Y-51374778D02*
X103893662Y-55139017D01*
X99850000Y-51374778D02*
X100129423Y-51374778D01*
X126560000Y-65450000D02*
X126560000Y-54045000D01*
%TO.N,col1*%
X145455000Y-48138625D02*
X145455000Y-44570958D01*
X130840778Y-73124988D02*
X130840778Y-74016988D01*
X121880000Y-51905000D02*
X126110000Y-56135000D01*
X140955305Y-44710000D02*
X140250000Y-44710000D01*
X130840778Y-73124988D02*
X130360778Y-72644988D01*
X141615305Y-44050000D02*
X140955305Y-44710000D01*
X126110000Y-56135000D02*
X126110000Y-68459039D01*
X142962000Y-44050000D02*
X141615305Y-44050000D01*
X145455000Y-44570958D02*
X144934042Y-44050000D01*
X145043625Y-48550000D02*
X145455000Y-48138625D01*
X126110000Y-68459039D02*
X130360778Y-72709817D01*
X136350335Y-73189817D02*
X136350335Y-74081817D01*
X144934042Y-44050000D02*
X142962000Y-44050000D01*
X142962000Y-48550000D02*
X145043625Y-48550000D01*
X136830335Y-72709817D02*
X136350335Y-73189817D01*
%TO.N,col4*%
X94841903Y-73122192D02*
X94361903Y-72642192D01*
X96960000Y-63510000D02*
X96960000Y-57874000D01*
X121029000Y-56134000D02*
X121880000Y-56985000D01*
X97890000Y-70971984D02*
X97890000Y-72720000D01*
X100831460Y-72707021D02*
X100351460Y-73187021D01*
X98552000Y-57197000D02*
X98552000Y-56518000D01*
X98552000Y-70309984D02*
X97890000Y-70971984D01*
X130550000Y-45550000D02*
X142962000Y-45550000D01*
X94841903Y-73122192D02*
X94841903Y-74014192D01*
X98936000Y-56134000D02*
X121029000Y-56134000D01*
X97659000Y-63590000D02*
X98249000Y-63000000D01*
X98254221Y-57505221D02*
X98249000Y-57500000D01*
X96960000Y-57874000D02*
X97334000Y-57500000D01*
X98542829Y-57505221D02*
X98254221Y-57505221D01*
X144105000Y-46822000D02*
X144105000Y-45775000D01*
X97390000Y-63940000D02*
X98552000Y-65102000D01*
X100351460Y-73187021D02*
X100351460Y-74079021D01*
X98552000Y-56518000D02*
X98936000Y-56134000D01*
X97390000Y-63940000D02*
X97040000Y-63590000D01*
X142962000Y-47050000D02*
X143877000Y-47050000D01*
X97040000Y-63590000D02*
X97659000Y-63590000D01*
X97040000Y-63590000D02*
X96960000Y-63510000D01*
X97334000Y-57500000D02*
X98249000Y-57500000D01*
X143880000Y-45550000D02*
X142962000Y-45550000D01*
X98249000Y-57500000D02*
X98552000Y-57197000D01*
X98552000Y-65102000D02*
X98552000Y-70309984D01*
X143877000Y-47050000D02*
X144105000Y-46822000D01*
X144105000Y-45775000D02*
X143880000Y-45550000D01*
D27*
%TO.N,BAT+*%
X113554000Y-41426000D02*
X112400000Y-42580000D01*
X112400000Y-42580000D02*
X112400000Y-48340000D01*
X113554000Y-40664000D02*
X116400000Y-43510000D01*
X113554000Y-39370000D02*
X113554000Y-40664000D01*
X113554000Y-39370000D02*
X113554000Y-41426000D01*
X116400000Y-43510000D02*
X116400000Y-48340000D01*
D26*
%TO.N,GND*%
X119850000Y-40780000D02*
X120815000Y-41745000D01*
X120815000Y-41745000D02*
X121880000Y-41745000D01*
X112030000Y-66278000D02*
X113538000Y-64770000D01*
X137120000Y-46825000D02*
X135145000Y-46825000D01*
X137120000Y-44285000D02*
X134475000Y-44285000D01*
X124005000Y-43870000D02*
X124670000Y-43870000D01*
X135145000Y-46825000D02*
X134100000Y-47870000D01*
X121880000Y-41745000D02*
X124005000Y-43870000D01*
X145820000Y-60140000D02*
X146070000Y-60390000D01*
X138925000Y-44285000D02*
X138990000Y-44220000D01*
X114400000Y-44430000D02*
X114400000Y-48340000D01*
X143102000Y-60140000D02*
X145820000Y-60140000D01*
X112030000Y-68430000D02*
X112030000Y-66278000D01*
X134475000Y-44285000D02*
X134220000Y-44540000D01*
X137120000Y-44285000D02*
X138925000Y-44285000D01*
%TO.N,BATT_OR_5V*%
X142323396Y-58140000D02*
X141650000Y-57466604D01*
X136450000Y-53170000D02*
X122485000Y-39205000D01*
X141110000Y-55590000D02*
X140168604Y-55590000D01*
X141650000Y-57466604D02*
X141650000Y-56130000D01*
X122485000Y-39205000D02*
X121880000Y-39205000D01*
D27*
X112760000Y-35990000D02*
X111554000Y-37196000D01*
D26*
X141650000Y-56130000D02*
X141110000Y-55590000D01*
X137748604Y-53170000D02*
X136450000Y-53170000D01*
D27*
X119665000Y-35990000D02*
X112760000Y-35990000D01*
D26*
X140168604Y-55590000D02*
X137748604Y-53170000D01*
D27*
X121880000Y-39205000D02*
X121880000Y-38205000D01*
D26*
X143102000Y-58140000D02*
X142323396Y-58140000D01*
D27*
X121880000Y-38205000D02*
X119665000Y-35990000D01*
X111554000Y-37196000D02*
X111554000Y-39370000D01*
D26*
%TO.N,RGB_LED_OUT*%
X141962001Y-58415001D02*
X142187000Y-58640000D01*
X140064696Y-58415001D02*
X141962001Y-58415001D01*
X142187000Y-58640000D02*
X143102000Y-58640000D01*
%TO.N,+3V3*%
X106370000Y-43220000D02*
X107220000Y-43220000D01*
X114300000Y-59260000D02*
X115749000Y-59260000D01*
X105390000Y-45200000D02*
X105390000Y-44200000D01*
X107090000Y-43350000D02*
X107220000Y-43220000D01*
X109490000Y-67040000D02*
X113870000Y-62660000D01*
X113870000Y-62660000D02*
X114300000Y-62660000D01*
X143102000Y-60640000D02*
X143015700Y-60726300D01*
X105390000Y-44200000D02*
X106370000Y-43220000D01*
X115749000Y-59260000D02*
X118150000Y-56859000D01*
X114300000Y-59260000D02*
X114300000Y-62660000D01*
X135781300Y-60726300D02*
X121880000Y-46825000D01*
X143015700Y-60726300D02*
X135781300Y-60726300D01*
X108790000Y-45200000D02*
X108790000Y-44790000D01*
X109490000Y-68430000D02*
X109490000Y-67040000D01*
X108790000Y-44790000D02*
X107220000Y-43220000D01*
X107090000Y-45200000D02*
X107090000Y-43350000D01*
%TO.N,SDA*%
X141050000Y-59640000D02*
X140790000Y-59900000D01*
X143102000Y-59640000D02*
X141050000Y-59640000D01*
%TO.N,GPIO_AD2*%
X142985000Y-64605000D02*
X137120000Y-64605000D01*
X144768299Y-56640000D02*
X143102000Y-56640000D01*
X150260000Y-59080000D02*
X147995000Y-56815000D01*
X144943299Y-56815000D02*
X144768299Y-56640000D01*
X147995000Y-56815000D02*
X144943299Y-56815000D01*
X143015000Y-64575000D02*
X142985000Y-64605000D01*
%TO.N,GPIO_AD1*%
X144017000Y-57640000D02*
X145657000Y-59280000D01*
X145657000Y-59280000D02*
X148790000Y-59280000D01*
X143102000Y-57640000D02*
X144017000Y-57640000D01*
%TO.N,row_3*%
X141460000Y-46330000D02*
X142500000Y-46330000D01*
X142500000Y-46330000D02*
X142550000Y-46280000D01*
X142550000Y-46280000D02*
X142820000Y-46550000D01*
X143300000Y-46050000D02*
X142962000Y-46050000D01*
D27*
X143530000Y-46280000D02*
X142550000Y-46280000D01*
D26*
X143530000Y-46280000D02*
X143300000Y-46050000D01*
X142820000Y-46550000D02*
X142962000Y-46550000D01*
%TO.N,SPI_CS*%
X143155000Y-41745000D02*
X137120000Y-41745000D01*
X144904695Y-56140000D02*
X145129695Y-56365000D01*
X145129695Y-56365000D02*
X150045000Y-56365000D01*
X143410000Y-41490000D02*
X143155000Y-41745000D01*
X150045000Y-56365000D02*
X150370000Y-56040000D01*
X143102000Y-56140000D02*
X144904695Y-56140000D01*
%TO.N,SCLK*%
X140355000Y-55140000D02*
X137120000Y-51905000D01*
X143102000Y-55140000D02*
X140355000Y-55140000D01*
%TO.N,SCL*%
X139275000Y-59140000D02*
X137120000Y-56985000D01*
X143102000Y-59140000D02*
X139275000Y-59140000D01*
%TO.N,NVCS*%
X91948000Y-62738000D02*
X91948000Y-54372000D01*
X96477000Y-54102000D02*
X98001000Y-55626000D01*
X116840000Y-62992000D02*
X114570000Y-65262000D01*
X91948000Y-54372000D02*
X92218000Y-54102000D01*
X128960000Y-64055000D02*
X128960000Y-62605000D01*
X118113000Y-55626000D02*
X118875000Y-54864000D01*
X128960000Y-62605000D02*
X129500000Y-62065000D01*
X116840000Y-62570000D02*
X116840000Y-62992000D01*
X92218000Y-54102000D02*
X96477000Y-54102000D01*
X114570000Y-65262000D02*
X114570000Y-68430000D01*
X117659303Y-60495392D02*
X116840000Y-61314695D01*
X98001000Y-55626000D02*
X118113000Y-55626000D01*
X116840000Y-61314695D02*
X116840000Y-62570000D01*
X117659303Y-59943997D02*
X117659303Y-60495392D01*
%TO.N,NVSCK*%
X92760000Y-59944000D02*
X92760000Y-65020000D01*
X132040000Y-62065000D02*
X132040000Y-63515000D01*
X92760000Y-65020000D02*
X93020000Y-65280000D01*
X132040000Y-63515000D02*
X131500000Y-64055000D01*
%TO.N,NVMOSI*%
X100470000Y-53170000D02*
X101740000Y-54440000D01*
X113550000Y-56860000D02*
X114145000Y-57455000D01*
X134040000Y-64055000D02*
X134040000Y-62605000D01*
X134040000Y-62605000D02*
X134580000Y-62065000D01*
X103414000Y-56860000D02*
X113550000Y-56860000D01*
X98990000Y-53170000D02*
X100470000Y-53170000D01*
X103378000Y-56896000D02*
X103414000Y-56860000D01*
%TO.N,MISO*%
X145430000Y-55640000D02*
X143102000Y-55640000D01*
X137120000Y-49365000D02*
X138115000Y-50360000D01*
X138115000Y-50360000D02*
X143600000Y-50360000D01*
%TO.N,MOSI*%
X147617347Y-57540000D02*
X147357347Y-57800000D01*
X147357347Y-57800000D02*
X145291903Y-57800000D01*
X144631903Y-57140000D02*
X143102000Y-57140000D01*
X145291903Y-57800000D02*
X144631903Y-57140000D01*
%TO.N,Net-(D2-BA)*%
X105340000Y-50050000D02*
X105390000Y-50000000D01*
X105340000Y-52090000D02*
X105340000Y-50050000D01*
%TO.N,Net-(D2-RA)*%
X107100000Y-50010000D02*
X107090000Y-50000000D01*
X107100000Y-52020000D02*
X107100000Y-50010000D01*
%TO.N,Net-(D2-GA)*%
X108840000Y-50050000D02*
X108790000Y-50000000D01*
X108840000Y-51950000D02*
X108840000Y-50050000D01*
%TO.N,B*%
X103505000Y-53721000D02*
X105213000Y-53721000D01*
X105213000Y-53721000D02*
X105340000Y-53848000D01*
%TO.N,G*%
X110900092Y-53820304D02*
X110031379Y-54689017D01*
X107748017Y-54689017D02*
X107100000Y-54041000D01*
X111289001Y-53820304D02*
X110900092Y-53820304D01*
X110031379Y-54689017D02*
X107748017Y-54689017D01*
%TO.N,R*%
X111760000Y-52070000D02*
X109991500Y-53838500D01*
X109991500Y-53838500D02*
X108840000Y-53838500D01*
X112014000Y-52070000D02*
X111760000Y-52070000D01*
%TO.N,Net-(D1-GK)*%
X109500000Y-59260000D02*
X108178500Y-59260000D01*
X108178500Y-59260000D02*
X107338500Y-58420000D01*
%TO.N,Net-(D1-BK)*%
X109500000Y-62660000D02*
X107514500Y-62660000D01*
X107514500Y-62660000D02*
X107338500Y-62484000D01*
%TO.N,Net-(D1-RK)*%
X109500000Y-60960000D02*
X107846500Y-60960000D01*
X107846500Y-60960000D02*
X107338500Y-60452000D01*
%TO.N,B2*%
X99520000Y-57020000D02*
X99860222Y-56679778D01*
X102129778Y-56679778D02*
X103870000Y-58420000D01*
X103870000Y-58420000D02*
X105513500Y-58420000D01*
X99860222Y-56679778D02*
X102129778Y-56679778D01*
%TO.N,G2*%
X101595000Y-60452000D02*
X105513500Y-60452000D01*
X101303000Y-60160000D02*
X101595000Y-60452000D01*
%TO.N,R2*%
X104326000Y-62484000D02*
X105513500Y-62484000D01*
X105218000Y-61976000D02*
X105296000Y-61898000D01*
X102620000Y-64190000D02*
X104326000Y-62484000D01*
%TD*%
%TA.AperFunction,Conductor*%
%TO.N,GND*%
G36*
X120412823Y-61990593D02*
G01*
X120468757Y-62032465D01*
X120493066Y-62096535D01*
X120509405Y-62293708D01*
X120565743Y-62516185D01*
X120657930Y-62726350D01*
X120783450Y-62918474D01*
X120783453Y-62918477D01*
X120938886Y-63087322D01*
X121119990Y-63228281D01*
X121119993Y-63228283D01*
X121124291Y-63231091D01*
X121122941Y-63233156D01*
X121165267Y-63275170D01*
X121180372Y-63343387D01*
X121156198Y-63408942D01*
X121123323Y-63437428D01*
X121124291Y-63438909D01*
X121119993Y-63441716D01*
X120938887Y-63582677D01*
X120783450Y-63751525D01*
X120657930Y-63943649D01*
X120565743Y-64153814D01*
X120509405Y-64376291D01*
X120490454Y-64604994D01*
X120490454Y-64605005D01*
X120509405Y-64833708D01*
X120509405Y-64833711D01*
X120509406Y-64833712D01*
X120515599Y-64858167D01*
X120565743Y-65056185D01*
X120657930Y-65266350D01*
X120783450Y-65458474D01*
X120783452Y-65458476D01*
X120783453Y-65458477D01*
X120938886Y-65627322D01*
X121119990Y-65768281D01*
X121119993Y-65768283D01*
X121124291Y-65771091D01*
X121122941Y-65773156D01*
X121165267Y-65815170D01*
X121180372Y-65883387D01*
X121156198Y-65948942D01*
X121123323Y-65977428D01*
X121124291Y-65978909D01*
X121119993Y-65981716D01*
X120938887Y-66122677D01*
X120783450Y-66291525D01*
X120657930Y-66483649D01*
X120565743Y-66693814D01*
X120509405Y-66916291D01*
X120490454Y-67144994D01*
X120490454Y-67145005D01*
X120509405Y-67373708D01*
X120565743Y-67596185D01*
X120657930Y-67806350D01*
X120783450Y-67998474D01*
X120783453Y-67998477D01*
X120938886Y-68167322D01*
X121119990Y-68308281D01*
X121321826Y-68417509D01*
X121538887Y-68492026D01*
X121765252Y-68529800D01*
X121765253Y-68529800D01*
X121994747Y-68529800D01*
X121994748Y-68529800D01*
X122221113Y-68492026D01*
X122229790Y-68489046D01*
X122299586Y-68485892D01*
X122357740Y-68518644D01*
X122767524Y-68928428D01*
X122801009Y-68989751D01*
X122803843Y-69016109D01*
X122803843Y-69359471D01*
X122784158Y-69426510D01*
X122771993Y-69442443D01*
X122698306Y-69524280D01*
X122698301Y-69524287D01*
X122602816Y-69689673D01*
X122602813Y-69689680D01*
X122544107Y-69870360D01*
X122543801Y-69871302D01*
X122528172Y-70020003D01*
X122526362Y-70037226D01*
X122499777Y-70101840D01*
X122490724Y-70111943D01*
X122446978Y-70155691D01*
X122446036Y-70156633D01*
X122423567Y-70179102D01*
X122357796Y-70244872D01*
X122288472Y-70348622D01*
X122288467Y-70348631D01*
X122240714Y-70463918D01*
X122240712Y-70463926D01*
X122216369Y-70586305D01*
X122216369Y-72829562D01*
X122196684Y-72896601D01*
X122143880Y-72942356D01*
X122079113Y-72952851D01*
X122038654Y-72948500D01*
X122038638Y-72948500D01*
X121661362Y-72948500D01*
X121613254Y-72953672D01*
X121586746Y-72953672D01*
X121538638Y-72948500D01*
X121161362Y-72948500D01*
X121113253Y-72953672D01*
X121086758Y-72953673D01*
X121084570Y-72953438D01*
X121020016Y-72926707D01*
X120980162Y-72869319D01*
X120973812Y-72830147D01*
X120973812Y-70521480D01*
X120973811Y-70521476D01*
X120949469Y-70399097D01*
X120949466Y-70399088D01*
X120949080Y-70398157D01*
X120935321Y-70364938D01*
X120901713Y-70283800D01*
X120901711Y-70283798D01*
X120901711Y-70283796D01*
X120832385Y-70180043D01*
X120763106Y-70110764D01*
X120691842Y-70039500D01*
X120658359Y-69978180D01*
X120656207Y-69964800D01*
X120646380Y-69871302D01*
X120587365Y-69689674D01*
X120491878Y-69524286D01*
X120364091Y-69382364D01*
X120209590Y-69270112D01*
X120035126Y-69192436D01*
X120035124Y-69192435D01*
X119848325Y-69152730D01*
X119657351Y-69152730D01*
X119470552Y-69192435D01*
X119470550Y-69192436D01*
X119298198Y-69269172D01*
X119296084Y-69270113D01*
X119141583Y-69382365D01*
X119013797Y-69524287D01*
X118918311Y-69689673D01*
X118918308Y-69689680D01*
X118859602Y-69870360D01*
X118859296Y-69871302D01*
X118854861Y-69913499D01*
X118845708Y-70000581D01*
X118819123Y-70065195D01*
X118772827Y-70100896D01*
X118752938Y-70109752D01*
X118598435Y-70222005D01*
X118491668Y-70340583D01*
X118471496Y-70362987D01*
X118470651Y-70363925D01*
X118470649Y-70363926D01*
X118375163Y-70529313D01*
X118375160Y-70529320D01*
X118316453Y-70710002D01*
X118316148Y-70710942D01*
X118298372Y-70880072D01*
X118296186Y-70900871D01*
X118296725Y-70906002D01*
X118284151Y-70974731D01*
X118246289Y-71019273D01*
X118128614Y-71104769D01*
X118000828Y-71246691D01*
X117905342Y-71412077D01*
X117905339Y-71412084D01*
X117846328Y-71593702D01*
X117846327Y-71593706D01*
X117828138Y-71766767D01*
X117826365Y-71783634D01*
X117837448Y-71889084D01*
X117824878Y-71957814D01*
X117787014Y-72002362D01*
X117749058Y-72029939D01*
X117621271Y-72171862D01*
X117525785Y-72337248D01*
X117525782Y-72337255D01*
X117467075Y-72517937D01*
X117466770Y-72518877D01*
X117446808Y-72708805D01*
X117466770Y-72898733D01*
X117466771Y-72898736D01*
X117525782Y-73080354D01*
X117525785Y-73080361D01*
X117621272Y-73245749D01*
X117723602Y-73359399D01*
X117748212Y-73386731D01*
X117749059Y-73387671D01*
X117903560Y-73499923D01*
X118078024Y-73577599D01*
X118103282Y-73582967D01*
X118164761Y-73616158D01*
X118198539Y-73677320D01*
X118201500Y-73704257D01*
X118201500Y-74755654D01*
X118208011Y-74816202D01*
X118208011Y-74816204D01*
X118259111Y-74953204D01*
X118346739Y-75070261D01*
X118463796Y-75157889D01*
X118600799Y-75208989D01*
X118628050Y-75211918D01*
X118661345Y-75215499D01*
X118661362Y-75215500D01*
X119038638Y-75215500D01*
X119038651Y-75215499D01*
X119064815Y-75212685D01*
X119086746Y-75210328D01*
X119113254Y-75210328D01*
X119132372Y-75212383D01*
X119161348Y-75215499D01*
X119161362Y-75215500D01*
X119538638Y-75215500D01*
X119538651Y-75215499D01*
X119564815Y-75212685D01*
X119586746Y-75210328D01*
X119613254Y-75210328D01*
X119632372Y-75212383D01*
X119661348Y-75215499D01*
X119661362Y-75215500D01*
X120038638Y-75215500D01*
X120038651Y-75215499D01*
X120064815Y-75212685D01*
X120086746Y-75210328D01*
X120113254Y-75210328D01*
X120132372Y-75212383D01*
X120161348Y-75215499D01*
X120161362Y-75215500D01*
X120538638Y-75215500D01*
X120538651Y-75215499D01*
X120564815Y-75212685D01*
X120586746Y-75210328D01*
X120613254Y-75210328D01*
X120632372Y-75212383D01*
X120661348Y-75215499D01*
X120661362Y-75215500D01*
X121038638Y-75215500D01*
X121038651Y-75215499D01*
X121064815Y-75212685D01*
X121086746Y-75210328D01*
X121113254Y-75210328D01*
X121132372Y-75212383D01*
X121161348Y-75215499D01*
X121161362Y-75215500D01*
X121538638Y-75215500D01*
X121538651Y-75215499D01*
X121564815Y-75212685D01*
X121586746Y-75210328D01*
X121613254Y-75210328D01*
X121632372Y-75212383D01*
X121661348Y-75215499D01*
X121661362Y-75215500D01*
X122038638Y-75215500D01*
X122038651Y-75215499D01*
X122064815Y-75212685D01*
X122086746Y-75210328D01*
X122113254Y-75210328D01*
X122132372Y-75212383D01*
X122161348Y-75215499D01*
X122161362Y-75215500D01*
X122538638Y-75215500D01*
X122538651Y-75215499D01*
X122564815Y-75212685D01*
X122586746Y-75210328D01*
X122613254Y-75210328D01*
X122632372Y-75212383D01*
X122661348Y-75215499D01*
X122661362Y-75215500D01*
X123038638Y-75215500D01*
X123038651Y-75215499D01*
X123064815Y-75212685D01*
X123086746Y-75210328D01*
X123113254Y-75210328D01*
X123132372Y-75212383D01*
X123161348Y-75215499D01*
X123161362Y-75215500D01*
X123538638Y-75215500D01*
X123538651Y-75215499D01*
X123564815Y-75212685D01*
X123586746Y-75210328D01*
X123613254Y-75210328D01*
X123632372Y-75212383D01*
X123661348Y-75215499D01*
X123661362Y-75215500D01*
X124038638Y-75215500D01*
X124038651Y-75215499D01*
X124064815Y-75212685D01*
X124086746Y-75210328D01*
X124113254Y-75210328D01*
X124132372Y-75212383D01*
X124161348Y-75215499D01*
X124161362Y-75215500D01*
X124538638Y-75215500D01*
X124538654Y-75215499D01*
X124565692Y-75212591D01*
X124599201Y-75208989D01*
X124736204Y-75157889D01*
X124853261Y-75070261D01*
X124940889Y-74953204D01*
X124991989Y-74816201D01*
X124995591Y-74782692D01*
X124998499Y-74755654D01*
X124998500Y-74755637D01*
X124998500Y-73702170D01*
X125018185Y-73635131D01*
X125070989Y-73589376D01*
X125096712Y-73580881D01*
X125112157Y-73577599D01*
X125286621Y-73499923D01*
X125441122Y-73387671D01*
X125568909Y-73245749D01*
X125664396Y-73080361D01*
X125723411Y-72898733D01*
X125740850Y-72732804D01*
X125767433Y-72668193D01*
X125776471Y-72658107D01*
X126152072Y-72282507D01*
X126221401Y-72178749D01*
X126260151Y-72085197D01*
X126269155Y-72063459D01*
X126275586Y-72031131D01*
X126292112Y-71948044D01*
X126293500Y-71941068D01*
X126293500Y-69837805D01*
X126313185Y-69770766D01*
X126365989Y-69725011D01*
X126435147Y-69715067D01*
X126498703Y-69744092D01*
X126505181Y-69750124D01*
X129414156Y-72659099D01*
X129447641Y-72720422D01*
X129449796Y-72733818D01*
X129457770Y-72809685D01*
X129467236Y-72899745D01*
X129467237Y-72899748D01*
X129526248Y-73081366D01*
X129526251Y-73081373D01*
X129621738Y-73246761D01*
X129724068Y-73360411D01*
X129747765Y-73386729D01*
X129749525Y-73388683D01*
X129904026Y-73500935D01*
X130078490Y-73578611D01*
X130103281Y-73583880D01*
X130164762Y-73617071D01*
X130198539Y-73678234D01*
X130201500Y-73705170D01*
X130201500Y-74755654D01*
X130208011Y-74816202D01*
X130208011Y-74816204D01*
X130259111Y-74953204D01*
X130346739Y-75070261D01*
X130463796Y-75157889D01*
X130600799Y-75208989D01*
X130628050Y-75211918D01*
X130661345Y-75215499D01*
X130661362Y-75215500D01*
X131038638Y-75215500D01*
X131038651Y-75215499D01*
X131064815Y-75212685D01*
X131086746Y-75210328D01*
X131113254Y-75210328D01*
X131132372Y-75212383D01*
X131161348Y-75215499D01*
X131161362Y-75215500D01*
X131538638Y-75215500D01*
X131538651Y-75215499D01*
X131564815Y-75212685D01*
X131586746Y-75210328D01*
X131613254Y-75210328D01*
X131632372Y-75212383D01*
X131661348Y-75215499D01*
X131661362Y-75215500D01*
X132038638Y-75215500D01*
X132038651Y-75215499D01*
X132064815Y-75212685D01*
X132086746Y-75210328D01*
X132113254Y-75210328D01*
X132132372Y-75212383D01*
X132161348Y-75215499D01*
X132161362Y-75215500D01*
X132538638Y-75215500D01*
X132538651Y-75215499D01*
X132564815Y-75212685D01*
X132586746Y-75210328D01*
X132613254Y-75210328D01*
X132632372Y-75212383D01*
X132661348Y-75215499D01*
X132661362Y-75215500D01*
X133038638Y-75215500D01*
X133038651Y-75215499D01*
X133064815Y-75212685D01*
X133086746Y-75210328D01*
X133113254Y-75210328D01*
X133132372Y-75212383D01*
X133161348Y-75215499D01*
X133161362Y-75215500D01*
X133538638Y-75215500D01*
X133538651Y-75215499D01*
X133564815Y-75212685D01*
X133586746Y-75210328D01*
X133613254Y-75210328D01*
X133632372Y-75212383D01*
X133661348Y-75215499D01*
X133661362Y-75215500D01*
X134038638Y-75215500D01*
X134038651Y-75215499D01*
X134064815Y-75212685D01*
X134086746Y-75210328D01*
X134113254Y-75210328D01*
X134132372Y-75212383D01*
X134161348Y-75215499D01*
X134161362Y-75215500D01*
X134538638Y-75215500D01*
X134538651Y-75215499D01*
X134564815Y-75212685D01*
X134586746Y-75210328D01*
X134613254Y-75210328D01*
X134632372Y-75212383D01*
X134661348Y-75215499D01*
X134661362Y-75215500D01*
X135038638Y-75215500D01*
X135038651Y-75215499D01*
X135064815Y-75212685D01*
X135086746Y-75210328D01*
X135113254Y-75210328D01*
X135132372Y-75212383D01*
X135161348Y-75215499D01*
X135161362Y-75215500D01*
X135538638Y-75215500D01*
X135538651Y-75215499D01*
X135564815Y-75212685D01*
X135586746Y-75210328D01*
X135613254Y-75210328D01*
X135632372Y-75212383D01*
X135661348Y-75215499D01*
X135661362Y-75215500D01*
X136038638Y-75215500D01*
X136038651Y-75215499D01*
X136064815Y-75212685D01*
X136086746Y-75210328D01*
X136113254Y-75210328D01*
X136132372Y-75212383D01*
X136161348Y-75215499D01*
X136161362Y-75215500D01*
X136538638Y-75215500D01*
X136538654Y-75215499D01*
X136565692Y-75212591D01*
X136599201Y-75208989D01*
X136736204Y-75157889D01*
X136853261Y-75070261D01*
X136940889Y-74953204D01*
X136991989Y-74816201D01*
X136995591Y-74782692D01*
X136998499Y-74755654D01*
X136998500Y-74755637D01*
X136998500Y-73703281D01*
X137018185Y-73636242D01*
X137070989Y-73590487D01*
X137096715Y-73581992D01*
X137112623Y-73578611D01*
X137287087Y-73500935D01*
X137441588Y-73388683D01*
X137569375Y-73246761D01*
X137664862Y-73081373D01*
X137723877Y-72899745D01*
X137743839Y-72709817D01*
X137723877Y-72519889D01*
X137664923Y-72338450D01*
X137664864Y-72338267D01*
X137664863Y-72338266D01*
X137664862Y-72338261D01*
X137569375Y-72172873D01*
X137519324Y-72117286D01*
X137441593Y-72030955D01*
X137441584Y-72030948D01*
X137403633Y-72003374D01*
X137360967Y-71948044D01*
X137353198Y-71890097D01*
X137364282Y-71784646D01*
X137344320Y-71594718D01*
X137285366Y-71413279D01*
X137285307Y-71413096D01*
X137285306Y-71413095D01*
X137285305Y-71413090D01*
X137189818Y-71247702D01*
X137062031Y-71105780D01*
X136944610Y-71020468D01*
X136944357Y-71020284D01*
X136901692Y-70964953D01*
X136893923Y-70907001D01*
X136894128Y-70905049D01*
X136894461Y-70901882D01*
X136874499Y-70711954D01*
X136815545Y-70530515D01*
X136815486Y-70530332D01*
X136815485Y-70530331D01*
X136815484Y-70530326D01*
X136719997Y-70364938D01*
X136648015Y-70284994D01*
X136592211Y-70223017D01*
X136590817Y-70222004D01*
X136474944Y-70137817D01*
X136432280Y-70082488D01*
X136426301Y-70012874D01*
X136458907Y-69951079D01*
X136519746Y-69916722D01*
X136547831Y-69913500D01*
X138616677Y-69913500D01*
X138683716Y-69933185D01*
X138704358Y-69949819D01*
X141413822Y-72659284D01*
X141447307Y-72720607D01*
X141449461Y-72733999D01*
X141466901Y-72899928D01*
X141466902Y-72899931D01*
X141525913Y-73081549D01*
X141525916Y-73081556D01*
X141621403Y-73246944D01*
X141723733Y-73360594D01*
X141747267Y-73386731D01*
X141749190Y-73388866D01*
X141903691Y-73501118D01*
X142078155Y-73578794D01*
X142103280Y-73584134D01*
X142164761Y-73617325D01*
X142198539Y-73678487D01*
X142201500Y-73705424D01*
X142201500Y-74755654D01*
X142208011Y-74816202D01*
X142208011Y-74816204D01*
X142259111Y-74953204D01*
X142346739Y-75070261D01*
X142463796Y-75157889D01*
X142600799Y-75208989D01*
X142628050Y-75211918D01*
X142661345Y-75215499D01*
X142661362Y-75215500D01*
X143038638Y-75215500D01*
X143038651Y-75215499D01*
X143064815Y-75212685D01*
X143086746Y-75210328D01*
X143113254Y-75210328D01*
X143132372Y-75212383D01*
X143161348Y-75215499D01*
X143161362Y-75215500D01*
X143538638Y-75215500D01*
X143538651Y-75215499D01*
X143564815Y-75212685D01*
X143586746Y-75210328D01*
X143613254Y-75210328D01*
X143632372Y-75212383D01*
X143661348Y-75215499D01*
X143661362Y-75215500D01*
X144038638Y-75215500D01*
X144038651Y-75215499D01*
X144064815Y-75212685D01*
X144086746Y-75210328D01*
X144113254Y-75210328D01*
X144132372Y-75212383D01*
X144161348Y-75215499D01*
X144161362Y-75215500D01*
X144538638Y-75215500D01*
X144538651Y-75215499D01*
X144564815Y-75212685D01*
X144586746Y-75210328D01*
X144613254Y-75210328D01*
X144632372Y-75212383D01*
X144661348Y-75215499D01*
X144661362Y-75215500D01*
X145038638Y-75215500D01*
X145038651Y-75215499D01*
X145064815Y-75212685D01*
X145086746Y-75210328D01*
X145113254Y-75210328D01*
X145132372Y-75212383D01*
X145161348Y-75215499D01*
X145161362Y-75215500D01*
X145538638Y-75215500D01*
X145538651Y-75215499D01*
X145564815Y-75212685D01*
X145586746Y-75210328D01*
X145613254Y-75210328D01*
X145632372Y-75212383D01*
X145661348Y-75215499D01*
X145661362Y-75215500D01*
X146038638Y-75215500D01*
X146038651Y-75215499D01*
X146064815Y-75212685D01*
X146086746Y-75210328D01*
X146113254Y-75210328D01*
X146132372Y-75212383D01*
X146161348Y-75215499D01*
X146161362Y-75215500D01*
X146538638Y-75215500D01*
X146538651Y-75215499D01*
X146564815Y-75212685D01*
X146586746Y-75210328D01*
X146613254Y-75210328D01*
X146632372Y-75212383D01*
X146661348Y-75215499D01*
X146661362Y-75215500D01*
X147038638Y-75215500D01*
X147038651Y-75215499D01*
X147064815Y-75212685D01*
X147086746Y-75210328D01*
X147113254Y-75210328D01*
X147132372Y-75212383D01*
X147161348Y-75215499D01*
X147161362Y-75215500D01*
X147538638Y-75215500D01*
X147538651Y-75215499D01*
X147564815Y-75212685D01*
X147586746Y-75210328D01*
X147613254Y-75210328D01*
X147632372Y-75212383D01*
X147661348Y-75215499D01*
X147661362Y-75215500D01*
X148038638Y-75215500D01*
X148038651Y-75215499D01*
X148064815Y-75212685D01*
X148086746Y-75210328D01*
X148113254Y-75210328D01*
X148132372Y-75212383D01*
X148161348Y-75215499D01*
X148161362Y-75215500D01*
X148538638Y-75215500D01*
X148538654Y-75215499D01*
X148565692Y-75212591D01*
X148599201Y-75208989D01*
X148736204Y-75157889D01*
X148853261Y-75070261D01*
X148940889Y-74953204D01*
X148991989Y-74816201D01*
X148995591Y-74782692D01*
X148998499Y-74755654D01*
X148998500Y-74755637D01*
X148998500Y-73703393D01*
X149018185Y-73636354D01*
X149070989Y-73590599D01*
X149096714Y-73582104D01*
X149112288Y-73578794D01*
X149286752Y-73501118D01*
X149441253Y-73388866D01*
X149569040Y-73246944D01*
X149664527Y-73081556D01*
X149723542Y-72899928D01*
X149743504Y-72710000D01*
X149723542Y-72520072D01*
X149664527Y-72338444D01*
X149569040Y-72173056D01*
X149518989Y-72117469D01*
X149441258Y-72031138D01*
X149441249Y-72031131D01*
X149403298Y-72003557D01*
X149360632Y-71948227D01*
X149352863Y-71890280D01*
X149363947Y-71784829D01*
X149343985Y-71594901D01*
X149284970Y-71413273D01*
X149189483Y-71247885D01*
X149061696Y-71105963D01*
X148944023Y-71020468D01*
X148944022Y-71020467D01*
X148901357Y-70965136D01*
X148893588Y-70907184D01*
X148893901Y-70904205D01*
X148894126Y-70902065D01*
X148874164Y-70712137D01*
X148815149Y-70530509D01*
X148719662Y-70365121D01*
X148612300Y-70245883D01*
X148591876Y-70223200D01*
X148590231Y-70222005D01*
X148498959Y-70155691D01*
X148437373Y-70110946D01*
X148417488Y-70102093D01*
X148364251Y-70056842D01*
X148344603Y-70001778D01*
X148331016Y-69872497D01*
X148272001Y-69690869D01*
X148176514Y-69525481D01*
X148048727Y-69383559D01*
X148047082Y-69382364D01*
X147989561Y-69340571D01*
X147946895Y-69285241D01*
X147940917Y-69215628D01*
X147973523Y-69153833D01*
X148034363Y-69119476D01*
X148099338Y-69121869D01*
X148269738Y-69174968D01*
X148596988Y-69234939D01*
X148929065Y-69255025D01*
X149261141Y-69234939D01*
X149588394Y-69174967D01*
X149905993Y-69076000D01*
X149906008Y-69075994D01*
X150209384Y-68939456D01*
X150209386Y-68939454D01*
X150494095Y-68767343D01*
X150689648Y-68614137D01*
X150689648Y-68614136D01*
X149869763Y-67794251D01*
X149971395Y-67720412D01*
X150149477Y-67542330D01*
X150223316Y-67440698D01*
X151043201Y-68260583D01*
X151043202Y-68260583D01*
X151196408Y-68065030D01*
X151368519Y-67780321D01*
X151368520Y-67780319D01*
X151462924Y-67570564D01*
X151508389Y-67517509D01*
X151575319Y-67497457D01*
X151642465Y-67516773D01*
X151688510Y-67569325D01*
X151700000Y-67621455D01*
X151700000Y-75453216D01*
X151680315Y-75520255D01*
X151627511Y-75566010D01*
X151558353Y-75575954D01*
X151494797Y-75546929D01*
X151476734Y-75527527D01*
X151413262Y-75442741D01*
X151413263Y-75442741D01*
X151413261Y-75442739D01*
X151296204Y-75355111D01*
X151159203Y-75304011D01*
X151098654Y-75297500D01*
X151098638Y-75297500D01*
X149201362Y-75297500D01*
X149201345Y-75297500D01*
X149140797Y-75304011D01*
X149140795Y-75304011D01*
X149003795Y-75355111D01*
X148886739Y-75442739D01*
X148799111Y-75559795D01*
X148748011Y-75696795D01*
X148748011Y-75696797D01*
X148741500Y-75757345D01*
X148741500Y-77854654D01*
X148748011Y-77915202D01*
X148748011Y-77915204D01*
X148780181Y-78001452D01*
X148799111Y-78052204D01*
X148886739Y-78169261D01*
X149003796Y-78256889D01*
X149140799Y-78307989D01*
X149168050Y-78310918D01*
X149201345Y-78314499D01*
X149201362Y-78314500D01*
X151098638Y-78314500D01*
X151098654Y-78314499D01*
X151125692Y-78311591D01*
X151159201Y-78307989D01*
X151296204Y-78256889D01*
X151413261Y-78169261D01*
X151476733Y-78084471D01*
X151532667Y-78042601D01*
X151602359Y-78037617D01*
X151663682Y-78071102D01*
X151697166Y-78132425D01*
X151700000Y-78158783D01*
X151700000Y-79848791D01*
X151699976Y-79851223D01*
X151697818Y-79961223D01*
X151696315Y-79978189D01*
X151661709Y-80196680D01*
X151657167Y-80215600D01*
X151589186Y-80424827D01*
X151581740Y-80442804D01*
X151481861Y-80638826D01*
X151471694Y-80655416D01*
X151342387Y-80833393D01*
X151329750Y-80848189D01*
X151174189Y-81003750D01*
X151159393Y-81016387D01*
X150981416Y-81145694D01*
X150964826Y-81155861D01*
X150768804Y-81255740D01*
X150750827Y-81263186D01*
X150541600Y-81331167D01*
X150522680Y-81335709D01*
X150304189Y-81370315D01*
X150287223Y-81371818D01*
X150177224Y-81373976D01*
X150174792Y-81374000D01*
X92965208Y-81374000D01*
X92962776Y-81373976D01*
X92852776Y-81371818D01*
X92835810Y-81370315D01*
X92617319Y-81335709D01*
X92598399Y-81331167D01*
X92389172Y-81263186D01*
X92371195Y-81255740D01*
X92175173Y-81155861D01*
X92158583Y-81145694D01*
X91980606Y-81016387D01*
X91965810Y-81003750D01*
X91810249Y-80848189D01*
X91797612Y-80833393D01*
X91668305Y-80655416D01*
X91658138Y-80638826D01*
X91558259Y-80442804D01*
X91550813Y-80424827D01*
X91482832Y-80215600D01*
X91478290Y-80196680D01*
X91443684Y-79978189D01*
X91442181Y-79961230D01*
X91440024Y-79851222D01*
X91440000Y-79848791D01*
X91440000Y-78044786D01*
X91459685Y-77977747D01*
X91512489Y-77931992D01*
X91581647Y-77922048D01*
X91645203Y-77951073D01*
X91680180Y-78001449D01*
X91699111Y-78052204D01*
X91699112Y-78052206D01*
X91734083Y-78098921D01*
X91786739Y-78169261D01*
X91903796Y-78256889D01*
X92040799Y-78307989D01*
X92068050Y-78310918D01*
X92101345Y-78314499D01*
X92101362Y-78314500D01*
X93998638Y-78314500D01*
X93998654Y-78314499D01*
X94025692Y-78311591D01*
X94059201Y-78307989D01*
X94196204Y-78256889D01*
X94313261Y-78169261D01*
X94400889Y-78052204D01*
X94451989Y-77915201D01*
X94455591Y-77881692D01*
X94458499Y-77854654D01*
X94458500Y-77854637D01*
X94458500Y-75757362D01*
X94458499Y-75757345D01*
X100741500Y-75757345D01*
X100741500Y-77854654D01*
X100748011Y-77915202D01*
X100748011Y-77915204D01*
X100780181Y-78001452D01*
X100799111Y-78052204D01*
X100886739Y-78169261D01*
X101003796Y-78256889D01*
X101140799Y-78307989D01*
X101168050Y-78310918D01*
X101201345Y-78314499D01*
X101201362Y-78314500D01*
X103098638Y-78314500D01*
X103098654Y-78314499D01*
X103125692Y-78311591D01*
X103159201Y-78307989D01*
X103296204Y-78256889D01*
X103413261Y-78169261D01*
X103500733Y-78052411D01*
X103556667Y-78010541D01*
X103626359Y-78005557D01*
X103687682Y-78039042D01*
X103699264Y-78052409D01*
X103786739Y-78169261D01*
X103903796Y-78256889D01*
X104040799Y-78307989D01*
X104068050Y-78310918D01*
X104101345Y-78314499D01*
X104101362Y-78314500D01*
X105998638Y-78314500D01*
X105998654Y-78314499D01*
X106025692Y-78311591D01*
X106059201Y-78307989D01*
X106196204Y-78256889D01*
X106313261Y-78169261D01*
X106400889Y-78052204D01*
X106451989Y-77915201D01*
X106455591Y-77881692D01*
X106458499Y-77854654D01*
X106458500Y-77854637D01*
X106458500Y-75757362D01*
X106458499Y-75757345D01*
X112741500Y-75757345D01*
X112741500Y-77854654D01*
X112748011Y-77915202D01*
X112748011Y-77915204D01*
X112780181Y-78001452D01*
X112799111Y-78052204D01*
X112886739Y-78169261D01*
X113003796Y-78256889D01*
X113140799Y-78307989D01*
X113168050Y-78310918D01*
X113201345Y-78314499D01*
X113201362Y-78314500D01*
X115098638Y-78314500D01*
X115098654Y-78314499D01*
X115125692Y-78311591D01*
X115159201Y-78307989D01*
X115296204Y-78256889D01*
X115413261Y-78169261D01*
X115500733Y-78052411D01*
X115556667Y-78010541D01*
X115626359Y-78005557D01*
X115687682Y-78039042D01*
X115699264Y-78052409D01*
X115786739Y-78169261D01*
X115903796Y-78256889D01*
X116040799Y-78307989D01*
X116068050Y-78310918D01*
X116101345Y-78314499D01*
X116101362Y-78314500D01*
X117998638Y-78314500D01*
X117998654Y-78314499D01*
X118025692Y-78311591D01*
X118059201Y-78307989D01*
X118196204Y-78256889D01*
X118313261Y-78169261D01*
X118400889Y-78052204D01*
X118451989Y-77915201D01*
X118455591Y-77881692D01*
X118458499Y-77854654D01*
X118458500Y-77854637D01*
X118458500Y-75757362D01*
X118458499Y-75757345D01*
X124741500Y-75757345D01*
X124741500Y-77854654D01*
X124748011Y-77915202D01*
X124748011Y-77915204D01*
X124780181Y-78001452D01*
X124799111Y-78052204D01*
X124886739Y-78169261D01*
X125003796Y-78256889D01*
X125140799Y-78307989D01*
X125168050Y-78310918D01*
X125201345Y-78314499D01*
X125201362Y-78314500D01*
X127098638Y-78314500D01*
X127098654Y-78314499D01*
X127125692Y-78311591D01*
X127159201Y-78307989D01*
X127296204Y-78256889D01*
X127413261Y-78169261D01*
X127500733Y-78052411D01*
X127556667Y-78010541D01*
X127626359Y-78005557D01*
X127687682Y-78039042D01*
X127699264Y-78052409D01*
X127786739Y-78169261D01*
X127903796Y-78256889D01*
X128040799Y-78307989D01*
X128068050Y-78310918D01*
X128101345Y-78314499D01*
X128101362Y-78314500D01*
X129998638Y-78314500D01*
X129998654Y-78314499D01*
X130025692Y-78311591D01*
X130059201Y-78307989D01*
X130196204Y-78256889D01*
X130313261Y-78169261D01*
X130400889Y-78052204D01*
X130451989Y-77915201D01*
X130455591Y-77881692D01*
X130458499Y-77854654D01*
X130458500Y-77854637D01*
X130458500Y-75757362D01*
X130458499Y-75757345D01*
X136741500Y-75757345D01*
X136741500Y-77854654D01*
X136748011Y-77915202D01*
X136748011Y-77915204D01*
X136780181Y-78001452D01*
X136799111Y-78052204D01*
X136886739Y-78169261D01*
X137003796Y-78256889D01*
X137140799Y-78307989D01*
X137168050Y-78310918D01*
X137201345Y-78314499D01*
X137201362Y-78314500D01*
X139098638Y-78314500D01*
X139098654Y-78314499D01*
X139125692Y-78311591D01*
X139159201Y-78307989D01*
X139296204Y-78256889D01*
X139413261Y-78169261D01*
X139500733Y-78052411D01*
X139556667Y-78010541D01*
X139626359Y-78005557D01*
X139687682Y-78039042D01*
X139699264Y-78052409D01*
X139786739Y-78169261D01*
X139903796Y-78256889D01*
X140040799Y-78307989D01*
X140068050Y-78310918D01*
X140101345Y-78314499D01*
X140101362Y-78314500D01*
X141998638Y-78314500D01*
X141998654Y-78314499D01*
X142025692Y-78311591D01*
X142059201Y-78307989D01*
X142196204Y-78256889D01*
X142313261Y-78169261D01*
X142400889Y-78052204D01*
X142451989Y-77915201D01*
X142455591Y-77881692D01*
X142458499Y-77854654D01*
X142458500Y-77854637D01*
X142458500Y-75757362D01*
X142458499Y-75757345D01*
X142455157Y-75726270D01*
X142451989Y-75696799D01*
X142400889Y-75559796D01*
X142313261Y-75442739D01*
X142196204Y-75355111D01*
X142059203Y-75304011D01*
X141998654Y-75297500D01*
X141998638Y-75297500D01*
X140101362Y-75297500D01*
X140101345Y-75297500D01*
X140040797Y-75304011D01*
X140040795Y-75304011D01*
X139903795Y-75355111D01*
X139786739Y-75442739D01*
X139699267Y-75559587D01*
X139643333Y-75601458D01*
X139573641Y-75606442D01*
X139512318Y-75572957D01*
X139500733Y-75559587D01*
X139471289Y-75520255D01*
X139413261Y-75442739D01*
X139296204Y-75355111D01*
X139159203Y-75304011D01*
X139098654Y-75297500D01*
X139098638Y-75297500D01*
X137201362Y-75297500D01*
X137201345Y-75297500D01*
X137140797Y-75304011D01*
X137140795Y-75304011D01*
X137003795Y-75355111D01*
X136886739Y-75442739D01*
X136799111Y-75559795D01*
X136748011Y-75696795D01*
X136748011Y-75696797D01*
X136741500Y-75757345D01*
X130458499Y-75757345D01*
X130455157Y-75726270D01*
X130451989Y-75696799D01*
X130400889Y-75559796D01*
X130313261Y-75442739D01*
X130196204Y-75355111D01*
X130059203Y-75304011D01*
X129998654Y-75297500D01*
X129998638Y-75297500D01*
X128101362Y-75297500D01*
X128101345Y-75297500D01*
X128040797Y-75304011D01*
X128040795Y-75304011D01*
X127903795Y-75355111D01*
X127786739Y-75442739D01*
X127699267Y-75559587D01*
X127643333Y-75601458D01*
X127573641Y-75606442D01*
X127512318Y-75572957D01*
X127500733Y-75559587D01*
X127471289Y-75520255D01*
X127413261Y-75442739D01*
X127296204Y-75355111D01*
X127159203Y-75304011D01*
X127098654Y-75297500D01*
X127098638Y-75297500D01*
X125201362Y-75297500D01*
X125201345Y-75297500D01*
X125140797Y-75304011D01*
X125140795Y-75304011D01*
X125003795Y-75355111D01*
X124886739Y-75442739D01*
X124799111Y-75559795D01*
X124748011Y-75696795D01*
X124748011Y-75696797D01*
X124741500Y-75757345D01*
X118458499Y-75757345D01*
X118455157Y-75726270D01*
X118451989Y-75696799D01*
X118400889Y-75559796D01*
X118313261Y-75442739D01*
X118196204Y-75355111D01*
X118059203Y-75304011D01*
X117998654Y-75297500D01*
X117998638Y-75297500D01*
X116101362Y-75297500D01*
X116101345Y-75297500D01*
X116040797Y-75304011D01*
X116040795Y-75304011D01*
X115903795Y-75355111D01*
X115786739Y-75442739D01*
X115699267Y-75559587D01*
X115643333Y-75601458D01*
X115573641Y-75606442D01*
X115512318Y-75572957D01*
X115500733Y-75559587D01*
X115471289Y-75520255D01*
X115413261Y-75442739D01*
X115296204Y-75355111D01*
X115159203Y-75304011D01*
X115098654Y-75297500D01*
X115098638Y-75297500D01*
X113201362Y-75297500D01*
X113201345Y-75297500D01*
X113140797Y-75304011D01*
X113140795Y-75304011D01*
X113003795Y-75355111D01*
X112886739Y-75442739D01*
X112799111Y-75559795D01*
X112748011Y-75696795D01*
X112748011Y-75696797D01*
X112741500Y-75757345D01*
X106458499Y-75757345D01*
X106455157Y-75726270D01*
X106451989Y-75696799D01*
X106400889Y-75559796D01*
X106313261Y-75442739D01*
X106196204Y-75355111D01*
X106059203Y-75304011D01*
X105998654Y-75297500D01*
X105998638Y-75297500D01*
X104101362Y-75297500D01*
X104101345Y-75297500D01*
X104040797Y-75304011D01*
X104040795Y-75304011D01*
X103903795Y-75355111D01*
X103786739Y-75442739D01*
X103699267Y-75559587D01*
X103643333Y-75601458D01*
X103573641Y-75606442D01*
X103512318Y-75572957D01*
X103500733Y-75559587D01*
X103471289Y-75520255D01*
X103413261Y-75442739D01*
X103296204Y-75355111D01*
X103159203Y-75304011D01*
X103098654Y-75297500D01*
X103098638Y-75297500D01*
X101201362Y-75297500D01*
X101201345Y-75297500D01*
X101140797Y-75304011D01*
X101140795Y-75304011D01*
X101003795Y-75355111D01*
X100886739Y-75442739D01*
X100799111Y-75559795D01*
X100748011Y-75696795D01*
X100748011Y-75696797D01*
X100741500Y-75757345D01*
X94458499Y-75757345D01*
X94455157Y-75726270D01*
X94451989Y-75696799D01*
X94400889Y-75559796D01*
X94313261Y-75442739D01*
X94196204Y-75355111D01*
X94059203Y-75304011D01*
X93998654Y-75297500D01*
X93998638Y-75297500D01*
X92101362Y-75297500D01*
X92101345Y-75297500D01*
X92040797Y-75304011D01*
X92040795Y-75304011D01*
X91903795Y-75355111D01*
X91786739Y-75442739D01*
X91699111Y-75559795D01*
X91680181Y-75610548D01*
X91638309Y-75666481D01*
X91572845Y-75690897D01*
X91504572Y-75676045D01*
X91455167Y-75626639D01*
X91440000Y-75567213D01*
X91440000Y-63697243D01*
X91459685Y-63630204D01*
X91512489Y-63584449D01*
X91581647Y-63574505D01*
X91614432Y-63583962D01*
X91665712Y-63606794D01*
X91852513Y-63646500D01*
X92002500Y-63646500D01*
X92069539Y-63666185D01*
X92115294Y-63718989D01*
X92126500Y-63770500D01*
X92126500Y-65083173D01*
X92125821Y-65096131D01*
X92124159Y-65111944D01*
X92107931Y-65266351D01*
X92106496Y-65280000D01*
X92126458Y-65469928D01*
X92126459Y-65469931D01*
X92185470Y-65651549D01*
X92185473Y-65651556D01*
X92280960Y-65816944D01*
X92408747Y-65958866D01*
X92563248Y-66071118D01*
X92737712Y-66148794D01*
X92786015Y-66159061D01*
X92847493Y-66192251D01*
X92881270Y-66253414D01*
X92876618Y-66323129D01*
X92836704Y-66377961D01*
X92724507Y-66465861D01*
X92724507Y-66465862D01*
X93544393Y-67285748D01*
X93442762Y-67359588D01*
X93264680Y-67537670D01*
X93190840Y-67639301D01*
X92370954Y-66819415D01*
X92217749Y-67014968D01*
X92045637Y-67299678D01*
X92045635Y-67299680D01*
X91909097Y-67603056D01*
X91909091Y-67603071D01*
X91810124Y-67920670D01*
X91750152Y-68247923D01*
X91730066Y-68580000D01*
X91750152Y-68912076D01*
X91810124Y-69239329D01*
X91909091Y-69556928D01*
X91909097Y-69556943D01*
X92045635Y-69860319D01*
X92045637Y-69860321D01*
X92217749Y-70145031D01*
X92217754Y-70145039D01*
X92370954Y-70340583D01*
X93190839Y-69520697D01*
X93264680Y-69622330D01*
X93442762Y-69800412D01*
X93544392Y-69874251D01*
X92724507Y-70694136D01*
X92724507Y-70694137D01*
X92920052Y-70847337D01*
X92920060Y-70847342D01*
X93204770Y-71019454D01*
X93204772Y-71019456D01*
X93508148Y-71155994D01*
X93508163Y-71156000D01*
X93825473Y-71254877D01*
X93883621Y-71293614D01*
X93911595Y-71357639D01*
X93906514Y-71411580D01*
X93847919Y-71591918D01*
X93847918Y-71591922D01*
X93835369Y-71711318D01*
X93827956Y-71781850D01*
X93839039Y-71887300D01*
X93826469Y-71956030D01*
X93788605Y-72000578D01*
X93750649Y-72028155D01*
X93622862Y-72170078D01*
X93527376Y-72335464D01*
X93527373Y-72335471D01*
X93468362Y-72517089D01*
X93468361Y-72517093D01*
X93448399Y-72707021D01*
X93468361Y-72896949D01*
X93468362Y-72896952D01*
X93527373Y-73078570D01*
X93527376Y-73078577D01*
X93622863Y-73243965D01*
X93750650Y-73385887D01*
X93905151Y-73498139D01*
X94079615Y-73575815D01*
X94103283Y-73580845D01*
X94164762Y-73614036D01*
X94198539Y-73675199D01*
X94201500Y-73702135D01*
X94201500Y-74755654D01*
X94208011Y-74816202D01*
X94208011Y-74816204D01*
X94259111Y-74953204D01*
X94346739Y-75070261D01*
X94463796Y-75157889D01*
X94600799Y-75208989D01*
X94628050Y-75211918D01*
X94661345Y-75215499D01*
X94661362Y-75215500D01*
X95038638Y-75215500D01*
X95038651Y-75215499D01*
X95064815Y-75212685D01*
X95086746Y-75210328D01*
X95113254Y-75210328D01*
X95132372Y-75212383D01*
X95161348Y-75215499D01*
X95161362Y-75215500D01*
X95538638Y-75215500D01*
X95538651Y-75215499D01*
X95564815Y-75212685D01*
X95586746Y-75210328D01*
X95613254Y-75210328D01*
X95632372Y-75212383D01*
X95661348Y-75215499D01*
X95661362Y-75215500D01*
X96038638Y-75215500D01*
X96038651Y-75215499D01*
X96064815Y-75212685D01*
X96086746Y-75210328D01*
X96113254Y-75210328D01*
X96132372Y-75212383D01*
X96161348Y-75215499D01*
X96161362Y-75215500D01*
X96538638Y-75215500D01*
X96538651Y-75215499D01*
X96564815Y-75212685D01*
X96586746Y-75210328D01*
X96613254Y-75210328D01*
X96632372Y-75212383D01*
X96661348Y-75215499D01*
X96661362Y-75215500D01*
X97038638Y-75215500D01*
X97038651Y-75215499D01*
X97064815Y-75212685D01*
X97086746Y-75210328D01*
X97113254Y-75210328D01*
X97132372Y-75212383D01*
X97161348Y-75215499D01*
X97161362Y-75215500D01*
X97538638Y-75215500D01*
X97538651Y-75215499D01*
X97564815Y-75212685D01*
X97586746Y-75210328D01*
X97613254Y-75210328D01*
X97632372Y-75212383D01*
X97661348Y-75215499D01*
X97661362Y-75215500D01*
X98038638Y-75215500D01*
X98038651Y-75215499D01*
X98064815Y-75212685D01*
X98086746Y-75210328D01*
X98113254Y-75210328D01*
X98132372Y-75212383D01*
X98161348Y-75215499D01*
X98161362Y-75215500D01*
X98538638Y-75215500D01*
X98538651Y-75215499D01*
X98564815Y-75212685D01*
X98586746Y-75210328D01*
X98613254Y-75210328D01*
X98632372Y-75212383D01*
X98661348Y-75215499D01*
X98661362Y-75215500D01*
X99038638Y-75215500D01*
X99038651Y-75215499D01*
X99064815Y-75212685D01*
X99086746Y-75210328D01*
X99113254Y-75210328D01*
X99132372Y-75212383D01*
X99161348Y-75215499D01*
X99161362Y-75215500D01*
X99538638Y-75215500D01*
X99538651Y-75215499D01*
X99564815Y-75212685D01*
X99586746Y-75210328D01*
X99613254Y-75210328D01*
X99632372Y-75212383D01*
X99661348Y-75215499D01*
X99661362Y-75215500D01*
X100038638Y-75215500D01*
X100038651Y-75215499D01*
X100064815Y-75212685D01*
X100086746Y-75210328D01*
X100113254Y-75210328D01*
X100132372Y-75212383D01*
X100161348Y-75215499D01*
X100161362Y-75215500D01*
X100538638Y-75215500D01*
X100538654Y-75215499D01*
X100565692Y-75212591D01*
X100599201Y-75208989D01*
X100736204Y-75157889D01*
X100853261Y-75070261D01*
X100940889Y-74953204D01*
X100991989Y-74816201D01*
X100995591Y-74782692D01*
X100998499Y-74755654D01*
X100998500Y-74755637D01*
X100998500Y-73700724D01*
X101018185Y-73633685D01*
X101070989Y-73587930D01*
X101096714Y-73579435D01*
X101113748Y-73575815D01*
X101288212Y-73498139D01*
X101442713Y-73385887D01*
X101570500Y-73243965D01*
X101665987Y-73078577D01*
X101725002Y-72896949D01*
X101744964Y-72707021D01*
X101725002Y-72517093D01*
X101666897Y-72338267D01*
X101665989Y-72335471D01*
X101665988Y-72335470D01*
X101665987Y-72335465D01*
X101570500Y-72170077D01*
X101494074Y-72085197D01*
X101442718Y-72028159D01*
X101442709Y-72028152D01*
X101404758Y-72000578D01*
X101362092Y-71945248D01*
X101354323Y-71887300D01*
X101365407Y-71781850D01*
X101345445Y-71591922D01*
X101287340Y-71413096D01*
X101286432Y-71410300D01*
X101286431Y-71410299D01*
X101286430Y-71410294D01*
X101190943Y-71244906D01*
X101065838Y-71105963D01*
X101063157Y-71102985D01*
X100945482Y-71017488D01*
X100902817Y-70962157D01*
X100895048Y-70904205D01*
X100895091Y-70903792D01*
X100895586Y-70899086D01*
X100885490Y-70803036D01*
X100898059Y-70734312D01*
X100945791Y-70683287D01*
X101013531Y-70666169D01*
X101079772Y-70688391D01*
X101096492Y-70702398D01*
X101927662Y-71533568D01*
X101927666Y-71533571D01*
X102031420Y-71602898D01*
X102031422Y-71602898D01*
X102031424Y-71602900D01*
X102112946Y-71636667D01*
X102146714Y-71650654D01*
X102146716Y-71650654D01*
X102146721Y-71650656D01*
X102269100Y-71674998D01*
X102269104Y-71674999D01*
X102269105Y-71674999D01*
X102269106Y-71674999D01*
X102393893Y-71674999D01*
X105686234Y-71674999D01*
X105753273Y-71694684D01*
X105773915Y-71711318D01*
X105794573Y-71731976D01*
X105828058Y-71793299D01*
X105830213Y-71806695D01*
X105838774Y-71888143D01*
X105826205Y-71956873D01*
X105788340Y-72001422D01*
X105750384Y-72028999D01*
X105622597Y-72170922D01*
X105527111Y-72336308D01*
X105527108Y-72336315D01*
X105468370Y-72517093D01*
X105468096Y-72517937D01*
X105448134Y-72707865D01*
X105468096Y-72897793D01*
X105468097Y-72897796D01*
X105527108Y-73079414D01*
X105527111Y-73079421D01*
X105622598Y-73244809D01*
X105750385Y-73386731D01*
X105904886Y-73498983D01*
X106079350Y-73576659D01*
X106103280Y-73581745D01*
X106164761Y-73614935D01*
X106198539Y-73676098D01*
X106201500Y-73703035D01*
X106201500Y-74755654D01*
X106208011Y-74816202D01*
X106208011Y-74816204D01*
X106259111Y-74953204D01*
X106346739Y-75070261D01*
X106463796Y-75157889D01*
X106600799Y-75208989D01*
X106628050Y-75211918D01*
X106661345Y-75215499D01*
X106661362Y-75215500D01*
X107038638Y-75215500D01*
X107038651Y-75215499D01*
X107064815Y-75212685D01*
X107086746Y-75210328D01*
X107113254Y-75210328D01*
X107132372Y-75212383D01*
X107161348Y-75215499D01*
X107161362Y-75215500D01*
X107538638Y-75215500D01*
X107538651Y-75215499D01*
X107564815Y-75212685D01*
X107586746Y-75210328D01*
X107613254Y-75210328D01*
X107632372Y-75212383D01*
X107661348Y-75215499D01*
X107661362Y-75215500D01*
X108038638Y-75215500D01*
X108038651Y-75215499D01*
X108064815Y-75212685D01*
X108086746Y-75210328D01*
X108113254Y-75210328D01*
X108132372Y-75212383D01*
X108161348Y-75215499D01*
X108161362Y-75215500D01*
X108538638Y-75215500D01*
X108538651Y-75215499D01*
X108564815Y-75212685D01*
X108586746Y-75210328D01*
X108613254Y-75210328D01*
X108632372Y-75212383D01*
X108661348Y-75215499D01*
X108661362Y-75215500D01*
X109038638Y-75215500D01*
X109038651Y-75215499D01*
X109064815Y-75212685D01*
X109086746Y-75210328D01*
X109113254Y-75210328D01*
X109132372Y-75212383D01*
X109161348Y-75215499D01*
X109161362Y-75215500D01*
X109538638Y-75215500D01*
X109538651Y-75215499D01*
X109564815Y-75212685D01*
X109586746Y-75210328D01*
X109613254Y-75210328D01*
X109632372Y-75212383D01*
X109661348Y-75215499D01*
X109661362Y-75215500D01*
X110038638Y-75215500D01*
X110038651Y-75215499D01*
X110064815Y-75212685D01*
X110086746Y-75210328D01*
X110113254Y-75210328D01*
X110132372Y-75212383D01*
X110161348Y-75215499D01*
X110161362Y-75215500D01*
X110538638Y-75215500D01*
X110538651Y-75215499D01*
X110564815Y-75212685D01*
X110586746Y-75210328D01*
X110613254Y-75210328D01*
X110632372Y-75212383D01*
X110661348Y-75215499D01*
X110661362Y-75215500D01*
X111038638Y-75215500D01*
X111038651Y-75215499D01*
X111064815Y-75212685D01*
X111086746Y-75210328D01*
X111113254Y-75210328D01*
X111132372Y-75212383D01*
X111161348Y-75215499D01*
X111161362Y-75215500D01*
X111538638Y-75215500D01*
X111538651Y-75215499D01*
X111564815Y-75212685D01*
X111586746Y-75210328D01*
X111613254Y-75210328D01*
X111632372Y-75212383D01*
X111661348Y-75215499D01*
X111661362Y-75215500D01*
X112038638Y-75215500D01*
X112038651Y-75215499D01*
X112064815Y-75212685D01*
X112086746Y-75210328D01*
X112113254Y-75210328D01*
X112132372Y-75212383D01*
X112161348Y-75215499D01*
X112161362Y-75215500D01*
X112538638Y-75215500D01*
X112538654Y-75215499D01*
X112565692Y-75212591D01*
X112599201Y-75208989D01*
X112736204Y-75157889D01*
X112853261Y-75070261D01*
X112940889Y-74953204D01*
X112991989Y-74816201D01*
X112995591Y-74782692D01*
X112998499Y-74755654D01*
X112998500Y-74755637D01*
X112998500Y-73701512D01*
X113018185Y-73634473D01*
X113070989Y-73588718D01*
X113096711Y-73580223D01*
X113113483Y-73576659D01*
X113287947Y-73498983D01*
X113442448Y-73386731D01*
X113570235Y-73244809D01*
X113665722Y-73079421D01*
X113724737Y-72897793D01*
X113742176Y-72731862D01*
X113768759Y-72667252D01*
X113777806Y-72657156D01*
X119232071Y-67202893D01*
X119301400Y-67099135D01*
X119349155Y-66983845D01*
X119373500Y-66861454D01*
X119373500Y-66736666D01*
X119373500Y-62978766D01*
X119393185Y-62911727D01*
X119409819Y-62891085D01*
X119827096Y-62473808D01*
X120281811Y-62019092D01*
X120343132Y-61985609D01*
X120412823Y-61990593D01*
G37*
%TD.AperFunction*%
%TA.AperFunction,Conductor*%
G36*
X150177223Y-35052024D02*
G01*
X150179277Y-35052064D01*
X150287230Y-35054181D01*
X150304181Y-35055683D01*
X150522680Y-35090290D01*
X150541601Y-35094832D01*
X150750832Y-35162815D01*
X150768800Y-35170257D01*
X150814705Y-35193647D01*
X150964826Y-35270138D01*
X150981416Y-35280305D01*
X151159393Y-35409612D01*
X151174189Y-35422249D01*
X151329750Y-35577810D01*
X151342387Y-35592606D01*
X151471694Y-35770583D01*
X151481861Y-35787173D01*
X151581740Y-35983195D01*
X151589186Y-36001172D01*
X151657167Y-36210399D01*
X151661709Y-36229319D01*
X151696315Y-36447810D01*
X151697818Y-36464776D01*
X151699976Y-36574776D01*
X151700000Y-36577208D01*
X151700000Y-65378544D01*
X151680315Y-65445583D01*
X151627511Y-65491338D01*
X151558353Y-65501282D01*
X151494797Y-65472257D01*
X151462924Y-65429435D01*
X151368521Y-65219680D01*
X151368519Y-65219678D01*
X151196407Y-64934968D01*
X151196402Y-64934960D01*
X151043201Y-64739415D01*
X150223315Y-65559300D01*
X150149477Y-65457670D01*
X149971395Y-65279588D01*
X149869763Y-65205748D01*
X150689648Y-64385862D01*
X150689648Y-64385861D01*
X150494104Y-64232662D01*
X150494096Y-64232657D01*
X150209386Y-64060545D01*
X150209384Y-64060543D01*
X149906008Y-63924005D01*
X149905993Y-63923999D01*
X149588394Y-63825032D01*
X149261141Y-63765060D01*
X148929065Y-63744974D01*
X148596988Y-63765060D01*
X148269735Y-63825032D01*
X147952136Y-63923999D01*
X147952121Y-63924005D01*
X147648745Y-64060543D01*
X147648743Y-64060545D01*
X147364033Y-64232657D01*
X147168480Y-64385862D01*
X147988366Y-65205748D01*
X147886735Y-65279588D01*
X147708653Y-65457670D01*
X147634813Y-65559301D01*
X146814927Y-64739415D01*
X146661722Y-64934968D01*
X146489610Y-65219678D01*
X146489608Y-65219680D01*
X146353070Y-65523056D01*
X146353064Y-65523071D01*
X146254097Y-65840670D01*
X146194125Y-66167923D01*
X146174039Y-66500000D01*
X146194125Y-66832076D01*
X146254097Y-67159329D01*
X146353064Y-67476928D01*
X146353070Y-67476943D01*
X146489608Y-67780319D01*
X146489610Y-67780321D01*
X146661722Y-68065031D01*
X146661727Y-68065039D01*
X146814927Y-68260583D01*
X147634812Y-67440697D01*
X147708653Y-67542330D01*
X147886735Y-67720412D01*
X147988365Y-67794251D01*
X147168480Y-68614136D01*
X147168480Y-68614137D01*
X147364025Y-68767337D01*
X147364040Y-68767347D01*
X147629756Y-68927977D01*
X147676944Y-68979504D01*
X147688783Y-69048364D01*
X147661515Y-69112693D01*
X147603796Y-69152067D01*
X147539829Y-69155384D01*
X147532961Y-69153925D01*
X147341987Y-69153925D01*
X147155188Y-69193630D01*
X147155186Y-69193631D01*
X146985518Y-69269172D01*
X146980720Y-69271308D01*
X146826219Y-69383560D01*
X146698433Y-69525482D01*
X146602947Y-69690868D01*
X146602944Y-69690875D01*
X146544320Y-69871302D01*
X146543932Y-69872497D01*
X146526493Y-70038421D01*
X146499908Y-70103035D01*
X146490855Y-70113138D01*
X146448304Y-70155691D01*
X146446167Y-70157828D01*
X146423995Y-70180000D01*
X146357927Y-70246067D01*
X146288603Y-70349817D01*
X146288598Y-70349826D01*
X146240845Y-70465113D01*
X146240843Y-70465121D01*
X146216500Y-70587500D01*
X146216500Y-72829576D01*
X146196815Y-72896615D01*
X146144011Y-72942370D01*
X146079244Y-72952865D01*
X146038654Y-72948500D01*
X146038638Y-72948500D01*
X145661362Y-72948500D01*
X145613254Y-72953672D01*
X145586746Y-72953672D01*
X145538638Y-72948500D01*
X145161362Y-72948500D01*
X145113254Y-72953672D01*
X145086754Y-72953672D01*
X145084697Y-72953451D01*
X145020144Y-72926718D01*
X144980291Y-72869329D01*
X144973943Y-72830161D01*
X144973943Y-70522675D01*
X144973942Y-70522671D01*
X144949600Y-70400292D01*
X144949597Y-70400283D01*
X144949520Y-70400098D01*
X144935611Y-70366517D01*
X144901844Y-70284995D01*
X144901842Y-70284993D01*
X144901842Y-70284991D01*
X144832516Y-70181238D01*
X144762281Y-70111003D01*
X144691973Y-70040695D01*
X144658490Y-69979375D01*
X144656338Y-69965995D01*
X144646511Y-69872497D01*
X144587496Y-69690869D01*
X144492009Y-69525481D01*
X144364222Y-69383559D01*
X144209721Y-69271307D01*
X144035257Y-69193631D01*
X144035255Y-69193630D01*
X143848456Y-69153925D01*
X143657482Y-69153925D01*
X143470683Y-69193630D01*
X143470681Y-69193631D01*
X143301013Y-69269172D01*
X143296215Y-69271308D01*
X143141714Y-69383560D01*
X143013928Y-69525482D01*
X142918442Y-69690868D01*
X142918439Y-69690875D01*
X142859815Y-69871302D01*
X142859427Y-69872497D01*
X142854779Y-69916722D01*
X142845839Y-70001776D01*
X142819254Y-70066390D01*
X142772958Y-70102091D01*
X142753069Y-70110947D01*
X142598566Y-70223200D01*
X142492875Y-70340583D01*
X142472703Y-70362987D01*
X142470782Y-70365120D01*
X142470780Y-70365121D01*
X142375294Y-70530508D01*
X142375291Y-70530515D01*
X142316338Y-70711954D01*
X142316279Y-70712137D01*
X142296336Y-70901882D01*
X142296317Y-70902066D01*
X142296856Y-70907197D01*
X142284282Y-70975926D01*
X142246420Y-71020468D01*
X142128745Y-71105964D01*
X142000960Y-71247884D01*
X141999302Y-71250167D01*
X141998004Y-71251167D01*
X141996612Y-71252714D01*
X141996329Y-71252459D01*
X141943970Y-71292830D01*
X141874356Y-71298806D01*
X141812563Y-71266198D01*
X141811306Y-71264958D01*
X139334279Y-68787931D01*
X139334275Y-68787928D01*
X139230524Y-68718603D01*
X139230515Y-68718598D01*
X139115228Y-68670845D01*
X139115220Y-68670843D01*
X138992841Y-68646500D01*
X138992837Y-68646500D01*
X137744701Y-68646500D01*
X137677662Y-68626815D01*
X137631907Y-68574011D01*
X137621963Y-68504853D01*
X137650988Y-68441297D01*
X137685684Y-68413445D01*
X137787943Y-68358105D01*
X137880010Y-68308281D01*
X138061114Y-68167322D01*
X138216547Y-67998477D01*
X138342069Y-67806351D01*
X138434257Y-67596185D01*
X138490594Y-67373712D01*
X138505701Y-67191405D01*
X138509546Y-67145005D01*
X138509546Y-67144994D01*
X138490594Y-66916291D01*
X138490594Y-66916288D01*
X138434257Y-66693815D01*
X138342069Y-66483649D01*
X138273020Y-66377961D01*
X138216549Y-66291525D01*
X138142221Y-66210784D01*
X138061114Y-66122678D01*
X137945422Y-66032631D01*
X137880012Y-65981720D01*
X137875718Y-65978915D01*
X137877095Y-65976805D01*
X137834861Y-65935063D01*
X137819609Y-65866879D01*
X137843642Y-65801272D01*
X137876716Y-65772613D01*
X137875718Y-65771085D01*
X137880006Y-65768283D01*
X137880010Y-65768281D01*
X138061114Y-65627322D01*
X138216547Y-65458477D01*
X138323562Y-65294677D01*
X138376709Y-65249322D01*
X138427371Y-65238500D01*
X142342308Y-65238500D01*
X142409347Y-65258185D01*
X142415176Y-65262169D01*
X142558248Y-65366118D01*
X142732712Y-65443794D01*
X142919513Y-65483500D01*
X143110487Y-65483500D01*
X143297288Y-65443794D01*
X143471752Y-65366118D01*
X143626253Y-65253866D01*
X143754040Y-65111944D01*
X143849527Y-64946556D01*
X143908542Y-64764928D01*
X143928504Y-64575000D01*
X143908542Y-64385072D01*
X143849527Y-64203444D01*
X143754040Y-64038056D01*
X143626253Y-63896134D01*
X143471752Y-63783882D01*
X143297288Y-63706206D01*
X143297286Y-63706205D01*
X143110487Y-63666500D01*
X142919513Y-63666500D01*
X142732714Y-63706205D01*
X142558246Y-63783883D01*
X142403744Y-63896136D01*
X142403741Y-63896138D01*
X142372828Y-63930472D01*
X142313341Y-63967121D01*
X142280678Y-63971500D01*
X138427371Y-63971500D01*
X138360332Y-63951815D01*
X138323562Y-63915322D01*
X138313225Y-63899500D01*
X138216547Y-63751523D01*
X138061114Y-63582678D01*
X137957607Y-63502115D01*
X137880012Y-63441720D01*
X137875718Y-63438915D01*
X137877095Y-63436805D01*
X137834861Y-63395063D01*
X137819609Y-63326879D01*
X137843642Y-63261272D01*
X137876716Y-63232613D01*
X137875718Y-63231085D01*
X137880006Y-63228283D01*
X137880010Y-63228281D01*
X138061114Y-63087322D01*
X138216547Y-62918477D01*
X138342069Y-62726351D01*
X138434257Y-62516185D01*
X138490594Y-62293712D01*
X138500488Y-62174308D01*
X138509546Y-62065005D01*
X138509546Y-62064994D01*
X138492095Y-61854400D01*
X138490594Y-61836288D01*
X138434257Y-61613815D01*
X138399076Y-61533610D01*
X138393646Y-61491345D01*
X144317500Y-61491345D01*
X144317500Y-63388654D01*
X144324011Y-63449202D01*
X144324011Y-63449204D01*
X144374456Y-63584449D01*
X144375111Y-63586204D01*
X144462739Y-63703261D01*
X144579796Y-63790889D01*
X144716799Y-63841989D01*
X144744050Y-63844918D01*
X144777345Y-63848499D01*
X144777362Y-63848500D01*
X146874638Y-63848500D01*
X146874654Y-63848499D01*
X146901692Y-63845591D01*
X146935201Y-63841989D01*
X147072204Y-63790889D01*
X147189261Y-63703261D01*
X147276889Y-63586204D01*
X147327989Y-63449201D01*
X147333426Y-63398629D01*
X147334499Y-63388654D01*
X147334500Y-63388637D01*
X147334500Y-61491362D01*
X147334499Y-61491345D01*
X147331157Y-61460270D01*
X147327989Y-61430799D01*
X147325224Y-61423387D01*
X147292645Y-61336039D01*
X147276889Y-61293796D01*
X147189261Y-61176739D01*
X147072204Y-61089111D01*
X147062523Y-61085500D01*
X146935203Y-61038011D01*
X146874654Y-61031500D01*
X146874638Y-61031500D01*
X144777362Y-61031500D01*
X144777345Y-61031500D01*
X144716797Y-61038011D01*
X144716795Y-61038011D01*
X144579795Y-61089111D01*
X144462739Y-61176739D01*
X144375111Y-61293795D01*
X144324011Y-61430795D01*
X144324011Y-61430797D01*
X144317500Y-61491345D01*
X138393646Y-61491345D01*
X138390173Y-61464310D01*
X138420150Y-61401198D01*
X138479489Y-61364311D01*
X138512632Y-61359800D01*
X143078095Y-61359800D01*
X143078096Y-61359799D01*
X143200485Y-61335455D01*
X143291056Y-61297938D01*
X143338509Y-61288500D01*
X143775638Y-61288500D01*
X143775654Y-61288499D01*
X143802692Y-61285591D01*
X143836201Y-61281989D01*
X143973204Y-61230889D01*
X144090261Y-61143261D01*
X144177889Y-61026204D01*
X144228989Y-60889201D01*
X144232659Y-60855063D01*
X144235499Y-60828654D01*
X144235500Y-60828637D01*
X144235500Y-60451362D01*
X144235499Y-60451345D01*
X144228989Y-60390799D01*
X144227851Y-60385983D01*
X144225238Y-60344206D01*
X144226999Y-60327826D01*
X144227000Y-60327821D01*
X144227000Y-60280000D01*
X144213458Y-60266458D01*
X144192536Y-60260315D01*
X144160310Y-60230313D01*
X144148332Y-60214313D01*
X144123913Y-60148849D01*
X144138763Y-60080576D01*
X144148332Y-60065687D01*
X144148686Y-60065215D01*
X144160310Y-60049687D01*
X144216244Y-60007817D01*
X144219829Y-60007170D01*
X144227000Y-60000000D01*
X144227000Y-59952179D01*
X144226999Y-59952168D01*
X144225238Y-59935789D01*
X144227853Y-59894005D01*
X144228985Y-59889211D01*
X144228989Y-59889201D01*
X144234128Y-59841400D01*
X144235499Y-59828654D01*
X144235500Y-59828637D01*
X144235500Y-59451362D01*
X144235499Y-59451348D01*
X144230737Y-59407057D01*
X144230328Y-59403253D01*
X144230328Y-59376743D01*
X144235499Y-59328651D01*
X144235500Y-59328637D01*
X144235500Y-59053766D01*
X144255185Y-58986727D01*
X144307989Y-58940972D01*
X144377147Y-58931028D01*
X144440703Y-58960053D01*
X144447181Y-58966085D01*
X145164929Y-59683833D01*
X145214599Y-59733503D01*
X145253168Y-59772072D01*
X145356918Y-59841396D01*
X145356924Y-59841399D01*
X145356925Y-59841400D01*
X145472215Y-59889155D01*
X145594601Y-59913499D01*
X145594605Y-59913500D01*
X145594606Y-59913500D01*
X148082691Y-59913500D01*
X148149730Y-59933185D01*
X148174840Y-59954527D01*
X148178747Y-59958866D01*
X148333248Y-60071118D01*
X148507712Y-60148794D01*
X148694513Y-60188500D01*
X148885487Y-60188500D01*
X149072288Y-60148794D01*
X149246752Y-60071118D01*
X149401253Y-59958866D01*
X149529040Y-59816944D01*
X149529040Y-59816942D01*
X149533285Y-59812229D01*
X149592771Y-59775580D01*
X149662628Y-59776910D01*
X149698317Y-59794881D01*
X149803248Y-59871118D01*
X149977712Y-59948794D01*
X150164513Y-59988500D01*
X150355487Y-59988500D01*
X150542288Y-59948794D01*
X150716752Y-59871118D01*
X150871253Y-59758866D01*
X150999040Y-59616944D01*
X151094527Y-59451556D01*
X151153542Y-59269928D01*
X151173504Y-59080000D01*
X151153542Y-58890072D01*
X151094527Y-58708444D01*
X150999040Y-58543056D01*
X150883981Y-58415270D01*
X150871254Y-58401135D01*
X150817005Y-58361720D01*
X150716752Y-58288882D01*
X150542288Y-58211206D01*
X150542286Y-58211205D01*
X150355487Y-58171500D01*
X150298767Y-58171500D01*
X150231728Y-58151815D01*
X150211086Y-58135181D01*
X149758502Y-57682597D01*
X149286084Y-57210180D01*
X149252600Y-57148858D01*
X149257584Y-57079167D01*
X149299456Y-57023233D01*
X149364920Y-56998816D01*
X149373766Y-56998500D01*
X150107395Y-56998500D01*
X150107396Y-56998499D01*
X150229785Y-56974155D01*
X150268933Y-56957938D01*
X150316386Y-56948500D01*
X150465487Y-56948500D01*
X150652288Y-56908794D01*
X150826752Y-56831118D01*
X150981253Y-56718866D01*
X151109040Y-56576944D01*
X151204527Y-56411556D01*
X151263542Y-56229928D01*
X151283504Y-56040000D01*
X151263542Y-55850072D01*
X151204527Y-55668444D01*
X151109040Y-55503056D01*
X150981253Y-55361134D01*
X150826752Y-55248882D01*
X150652288Y-55171206D01*
X150652286Y-55171205D01*
X150465487Y-55131500D01*
X150274513Y-55131500D01*
X150087714Y-55171205D01*
X149913246Y-55248883D01*
X149758745Y-55361135D01*
X149663135Y-55467322D01*
X149630960Y-55503056D01*
X149535473Y-55668444D01*
X149535472Y-55668446D01*
X149534864Y-55669500D01*
X149484297Y-55717715D01*
X149427477Y-55731500D01*
X146464771Y-55731500D01*
X146397732Y-55711815D01*
X146351977Y-55659011D01*
X146341450Y-55620462D01*
X146323542Y-55450072D01*
X146264527Y-55268444D01*
X146169040Y-55103056D01*
X146041253Y-54961134D01*
X146036905Y-54956305D01*
X146038905Y-54954504D01*
X146008507Y-54905154D01*
X146009842Y-54835297D01*
X146048733Y-54777252D01*
X146112832Y-54749447D01*
X146128130Y-54748500D01*
X146874638Y-54748500D01*
X146874654Y-54748499D01*
X146902729Y-54745480D01*
X146935201Y-54741989D01*
X146942486Y-54739272D01*
X146949768Y-54736555D01*
X147072204Y-54690889D01*
X147189261Y-54603261D01*
X147276889Y-54486204D01*
X147327989Y-54349201D01*
X147332483Y-54307404D01*
X147334499Y-54288654D01*
X147334500Y-54288637D01*
X147334500Y-52391362D01*
X147334499Y-52391345D01*
X147328931Y-52339562D01*
X147327989Y-52330799D01*
X147327686Y-52329987D01*
X147302635Y-52262824D01*
X147276889Y-52193796D01*
X147189261Y-52076739D01*
X147189259Y-52076738D01*
X147189259Y-52076737D01*
X147185583Y-52073061D01*
X147152101Y-52011736D01*
X147157088Y-51942049D01*
X147187988Y-51859204D01*
X147187988Y-51859203D01*
X147187989Y-51859201D01*
X147191591Y-51825692D01*
X147194499Y-51798654D01*
X147194500Y-51798637D01*
X147194500Y-49901362D01*
X147194499Y-49901345D01*
X147191157Y-49870270D01*
X147187989Y-49840799D01*
X147185840Y-49835038D01*
X147142250Y-49718170D01*
X147136889Y-49703796D01*
X147049261Y-49586739D01*
X146932204Y-49499111D01*
X146795203Y-49448011D01*
X146734654Y-49441500D01*
X146734638Y-49441500D01*
X145983787Y-49441500D01*
X145916748Y-49421815D01*
X145870993Y-49369011D01*
X145861049Y-49299853D01*
X145890074Y-49236297D01*
X145896106Y-49229819D01*
X146397068Y-48728857D01*
X146397071Y-48728854D01*
X146466400Y-48625096D01*
X146514155Y-48509806D01*
X146538500Y-48387415D01*
X146538500Y-48262627D01*
X146538500Y-44322168D01*
X146514155Y-44199777D01*
X146466400Y-44084487D01*
X146466399Y-44084486D01*
X146466396Y-44084480D01*
X146397072Y-43980730D01*
X146366029Y-43949687D01*
X146308833Y-43892491D01*
X145786523Y-43370181D01*
X145753038Y-43308858D01*
X145758022Y-43239166D01*
X145799894Y-43183233D01*
X145865358Y-43158816D01*
X145874204Y-43158500D01*
X146734638Y-43158500D01*
X146734654Y-43158499D01*
X146761692Y-43155591D01*
X146795201Y-43151989D01*
X146801781Y-43149535D01*
X146809768Y-43146555D01*
X146932204Y-43100889D01*
X147049261Y-43013261D01*
X147136889Y-42896204D01*
X147187989Y-42759201D01*
X147193399Y-42708882D01*
X147194499Y-42698654D01*
X147194500Y-42698637D01*
X147194500Y-40801362D01*
X147194499Y-40801345D01*
X147191157Y-40770270D01*
X147187989Y-40740799D01*
X147181229Y-40722676D01*
X147146351Y-40629165D01*
X147136889Y-40603796D01*
X147049261Y-40486739D01*
X146932204Y-40399111D01*
X146925627Y-40396658D01*
X146795203Y-40348011D01*
X146734654Y-40341500D01*
X146734638Y-40341500D01*
X144637362Y-40341500D01*
X144637345Y-40341500D01*
X144576797Y-40348011D01*
X144576795Y-40348011D01*
X144439795Y-40399111D01*
X144322739Y-40486739D01*
X144235111Y-40603795D01*
X144185701Y-40736264D01*
X144143829Y-40792197D01*
X144078364Y-40816613D01*
X144010092Y-40801760D01*
X143996635Y-40793247D01*
X143866756Y-40698884D01*
X143866752Y-40698882D01*
X143692288Y-40621206D01*
X143692286Y-40621205D01*
X143505487Y-40581500D01*
X143416547Y-40581500D01*
X143349508Y-40561815D01*
X143303753Y-40509011D01*
X143293809Y-40439853D01*
X143322834Y-40376297D01*
X143340074Y-40359889D01*
X143500583Y-40234137D01*
X143500583Y-40234136D01*
X142680698Y-39414251D01*
X142782330Y-39340412D01*
X142960412Y-39162330D01*
X143034251Y-39060698D01*
X143854136Y-39880583D01*
X143854137Y-39880583D01*
X144007343Y-39685030D01*
X144179454Y-39400321D01*
X144179456Y-39400319D01*
X144315994Y-39096943D01*
X144316000Y-39096928D01*
X144414967Y-38779329D01*
X144474939Y-38452076D01*
X144495025Y-38120000D01*
X144474939Y-37787923D01*
X144414967Y-37460670D01*
X144316000Y-37143071D01*
X144315994Y-37143056D01*
X144179456Y-36839680D01*
X144179454Y-36839678D01*
X144007342Y-36554968D01*
X144007337Y-36554960D01*
X143854136Y-36359415D01*
X143034250Y-37179300D01*
X142960412Y-37077670D01*
X142782330Y-36899588D01*
X142680698Y-36825748D01*
X143500583Y-36005862D01*
X143500583Y-36005861D01*
X143305039Y-35852662D01*
X143305031Y-35852657D01*
X143020321Y-35680545D01*
X143020319Y-35680543D01*
X142716943Y-35544005D01*
X142716928Y-35543999D01*
X142399329Y-35445032D01*
X142072076Y-35385060D01*
X141740000Y-35364974D01*
X141407923Y-35385060D01*
X141080670Y-35445032D01*
X140763071Y-35543999D01*
X140763056Y-35544005D01*
X140459680Y-35680543D01*
X140459678Y-35680545D01*
X140174968Y-35852657D01*
X139979415Y-36005862D01*
X140799301Y-36825748D01*
X140697670Y-36899588D01*
X140519588Y-37077670D01*
X140445748Y-37179301D01*
X139625862Y-36359415D01*
X139472657Y-36554968D01*
X139300545Y-36839678D01*
X139300543Y-36839680D01*
X139164005Y-37143056D01*
X139163999Y-37143071D01*
X139065032Y-37460670D01*
X139005060Y-37787923D01*
X138984974Y-38120000D01*
X139005060Y-38452076D01*
X139065032Y-38779329D01*
X139163999Y-39096928D01*
X139164005Y-39096943D01*
X139300543Y-39400319D01*
X139300545Y-39400321D01*
X139472657Y-39685031D01*
X139472662Y-39685039D01*
X139625862Y-39880583D01*
X140445747Y-39060697D01*
X140519588Y-39162330D01*
X140697670Y-39340412D01*
X140799300Y-39414251D01*
X139979415Y-40234136D01*
X139979415Y-40234137D01*
X140174960Y-40387337D01*
X140174968Y-40387342D01*
X140459678Y-40559454D01*
X140459680Y-40559456D01*
X140763056Y-40695994D01*
X140763071Y-40696000D01*
X141080670Y-40794967D01*
X141407923Y-40854939D01*
X141553186Y-40863726D01*
X141618914Y-40887422D01*
X141661398Y-40942893D01*
X141667147Y-41012525D01*
X141634338Y-41074213D01*
X141573387Y-41108369D01*
X141545699Y-41111500D01*
X138427371Y-41111500D01*
X138360332Y-41091815D01*
X138323562Y-41055322D01*
X138319758Y-41049500D01*
X138216547Y-40891523D01*
X138061114Y-40722678D01*
X137940969Y-40629165D01*
X137880012Y-40581720D01*
X137875718Y-40578915D01*
X137877095Y-40576805D01*
X137834861Y-40535063D01*
X137819609Y-40466879D01*
X137843642Y-40401272D01*
X137876716Y-40372613D01*
X137875718Y-40371085D01*
X137880006Y-40368283D01*
X137880010Y-40368281D01*
X138061114Y-40227322D01*
X138216547Y-40058477D01*
X138342069Y-39866351D01*
X138434257Y-39656185D01*
X138490594Y-39433712D01*
X138499017Y-39332062D01*
X138509546Y-39205005D01*
X138509546Y-39204994D01*
X138490594Y-38976291D01*
X138490594Y-38976288D01*
X138434257Y-38753815D01*
X138342069Y-38543649D01*
X138296273Y-38473553D01*
X138216549Y-38351525D01*
X138134875Y-38262804D01*
X138061114Y-38182678D01*
X137958162Y-38102547D01*
X137880012Y-38041720D01*
X137880007Y-38041717D01*
X137678180Y-37932494D01*
X137678177Y-37932492D01*
X137678174Y-37932491D01*
X137678171Y-37932490D01*
X137678169Y-37932489D01*
X137461115Y-37857974D01*
X137302704Y-37831540D01*
X137234748Y-37820200D01*
X137005252Y-37820200D01*
X136948660Y-37829643D01*
X136778884Y-37857974D01*
X136561830Y-37932489D01*
X136561819Y-37932494D01*
X136359992Y-38041717D01*
X136359987Y-38041720D01*
X136178888Y-38182676D01*
X136023450Y-38351525D01*
X135897930Y-38543649D01*
X135805743Y-38753814D01*
X135749405Y-38976291D01*
X135730454Y-39204994D01*
X135730454Y-39205005D01*
X135749405Y-39433708D01*
X135805743Y-39656185D01*
X135897930Y-39866350D01*
X136023450Y-40058474D01*
X136023453Y-40058477D01*
X136178886Y-40227322D01*
X136359990Y-40368281D01*
X136359993Y-40368283D01*
X136364291Y-40371091D01*
X136362941Y-40373156D01*
X136405267Y-40415170D01*
X136420372Y-40483387D01*
X136396198Y-40548942D01*
X136363323Y-40577428D01*
X136364291Y-40578909D01*
X136359993Y-40581716D01*
X136178887Y-40722677D01*
X136023450Y-40891525D01*
X135897930Y-41083649D01*
X135805743Y-41293814D01*
X135749405Y-41516291D01*
X135730454Y-41744994D01*
X135730454Y-41745005D01*
X135749405Y-41973708D01*
X135805743Y-42196185D01*
X135897930Y-42406350D01*
X136023450Y-42598474D01*
X136044626Y-42621477D01*
X136178886Y-42767322D01*
X136283119Y-42848450D01*
X136359987Y-42908279D01*
X136359996Y-42908285D01*
X136364601Y-42910777D01*
X136414192Y-42959995D01*
X136429302Y-43028212D01*
X136405131Y-43093768D01*
X136368558Y-43125460D01*
X136368947Y-43126055D01*
X136364646Y-43128864D01*
X136338089Y-43149534D01*
X136338089Y-43149536D01*
X136952949Y-43764396D01*
X136909213Y-43776116D01*
X136784687Y-43848011D01*
X136683011Y-43949687D01*
X136611116Y-44074213D01*
X136599396Y-44117949D01*
X135985935Y-43504488D01*
X135905431Y-43627710D01*
X135905429Y-43627714D01*
X135813809Y-43836584D01*
X135757817Y-44057695D01*
X135738983Y-44284994D01*
X135738983Y-44285005D01*
X135757817Y-44512304D01*
X135813809Y-44733412D01*
X135817879Y-44742691D01*
X135826780Y-44811992D01*
X135796803Y-44875104D01*
X135737463Y-44911989D01*
X135704322Y-44916500D01*
X131257309Y-44916500D01*
X131190270Y-44896815D01*
X131165160Y-44875473D01*
X131161254Y-44871135D01*
X131150417Y-44863261D01*
X131006752Y-44758882D01*
X130832288Y-44681206D01*
X130832286Y-44681205D01*
X130645487Y-44641500D01*
X130454513Y-44641500D01*
X130267714Y-44681205D01*
X130267712Y-44681206D01*
X130095205Y-44758011D01*
X130093246Y-44758883D01*
X129938745Y-44871135D01*
X129810959Y-45013057D01*
X129715473Y-45178443D01*
X129715471Y-45178447D01*
X129689440Y-45258562D01*
X129650001Y-45316237D01*
X129585643Y-45343435D01*
X129516796Y-45331520D01*
X129483828Y-45307924D01*
X123291626Y-39115722D01*
X123258141Y-39054399D01*
X123255731Y-39038287D01*
X123250594Y-38976288D01*
X123194257Y-38753815D01*
X123102069Y-38543649D01*
X123056273Y-38473553D01*
X122976549Y-38351525D01*
X122821111Y-38182675D01*
X122821107Y-38182672D01*
X122653821Y-38052468D01*
X122613008Y-37995758D01*
X122611303Y-37989524D01*
X122611118Y-37989581D01*
X122609351Y-37983755D01*
X122598476Y-37957498D01*
X122598476Y-37957497D01*
X122565117Y-37876962D01*
X122552174Y-37845715D01*
X122552172Y-37845712D01*
X122552170Y-37845708D01*
X122469166Y-37721485D01*
X122469163Y-37721481D01*
X120148517Y-35400835D01*
X120064914Y-35344974D01*
X120024284Y-35317826D01*
X120024279Y-35317824D01*
X119958461Y-35290561D01*
X119904058Y-35246720D01*
X119881993Y-35180426D01*
X119899272Y-35112726D01*
X119950410Y-35065116D01*
X120005914Y-35052000D01*
X150174792Y-35052000D01*
X150177223Y-35052024D01*
G37*
%TD.AperFunction*%
%TA.AperFunction,Conductor*%
G36*
X126948703Y-66735053D02*
G01*
X126955181Y-66741085D01*
X129986163Y-69772068D01*
X129986167Y-69772071D01*
X130089918Y-69841396D01*
X130089924Y-69841399D01*
X130089925Y-69841400D01*
X130205215Y-69889155D01*
X130327601Y-69913499D01*
X130327605Y-69913500D01*
X130327606Y-69913500D01*
X130452394Y-69913500D01*
X130643282Y-69913500D01*
X130710321Y-69933185D01*
X130756076Y-69985989D01*
X130766020Y-70055147D01*
X130736995Y-70118703D01*
X130716169Y-70137816D01*
X130688878Y-70157645D01*
X130598901Y-70223017D01*
X130471116Y-70364938D01*
X130471115Y-70364938D01*
X130375629Y-70530325D01*
X130375626Y-70530332D01*
X130317248Y-70710002D01*
X130316614Y-70711954D01*
X130299651Y-70873350D01*
X130296652Y-70901883D01*
X130297191Y-70907014D01*
X130284617Y-70975743D01*
X130246755Y-71020285D01*
X130129080Y-71105781D01*
X130001290Y-71247706D01*
X129999630Y-71249992D01*
X129998332Y-71250992D01*
X129996947Y-71252531D01*
X129996665Y-71252277D01*
X129944294Y-71292651D01*
X129874680Y-71298621D01*
X129812889Y-71266007D01*
X129811640Y-71264775D01*
X126779819Y-68232954D01*
X126746334Y-68171631D01*
X126743500Y-68145273D01*
X126743500Y-66828766D01*
X126763185Y-66761727D01*
X126815989Y-66715972D01*
X126885147Y-66706028D01*
X126948703Y-66735053D01*
G37*
%TD.AperFunction*%
%TA.AperFunction,Conductor*%
G36*
X113164063Y-69210511D02*
G01*
X113191114Y-69169108D01*
X113244261Y-69123751D01*
X113313492Y-69114327D01*
X113376828Y-69143829D01*
X113398732Y-69169108D01*
X113473450Y-69283474D01*
X113473453Y-69283477D01*
X113628886Y-69452322D01*
X113809990Y-69593281D01*
X114011826Y-69702509D01*
X114228887Y-69777026D01*
X114455252Y-69814800D01*
X114455253Y-69814800D01*
X114528993Y-69814800D01*
X114596032Y-69834485D01*
X114641787Y-69887289D01*
X114651731Y-69956447D01*
X114622706Y-70020003D01*
X114616674Y-70026481D01*
X113380331Y-71262823D01*
X113319008Y-71296308D01*
X113249316Y-71291324D01*
X113193383Y-71249452D01*
X113192329Y-71248023D01*
X113190680Y-71245753D01*
X113190678Y-71245750D01*
X113064813Y-71105963D01*
X113062892Y-71103829D01*
X113061730Y-71102985D01*
X113016331Y-71070000D01*
X112945217Y-71018332D01*
X112902552Y-70963001D01*
X112894783Y-70905049D01*
X112895096Y-70902066D01*
X112895321Y-70899930D01*
X112875359Y-70710002D01*
X112816344Y-70528374D01*
X112720857Y-70362986D01*
X112594992Y-70223199D01*
X112593071Y-70221065D01*
X112438568Y-70108811D01*
X112418683Y-70099958D01*
X112365446Y-70054707D01*
X112345798Y-69999643D01*
X112333505Y-69882674D01*
X112346073Y-69813951D01*
X112393805Y-69762926D01*
X112416562Y-69752437D01*
X112584744Y-69694700D01*
X112584749Y-69694698D01*
X112785346Y-69586139D01*
X112785349Y-69586137D01*
X112811910Y-69565463D01*
X112197050Y-68950603D01*
X112240787Y-68938884D01*
X112365313Y-68866989D01*
X112466989Y-68765313D01*
X112538884Y-68640787D01*
X112550603Y-68597051D01*
X113164063Y-69210511D01*
G37*
%TD.AperFunction*%
%TA.AperFunction,Conductor*%
G36*
X97238703Y-64685053D02*
G01*
X97245181Y-64691085D01*
X97882181Y-65328085D01*
X97915666Y-65389408D01*
X97918500Y-65415766D01*
X97918500Y-69365689D01*
X97898815Y-69432728D01*
X97846011Y-69478483D01*
X97776853Y-69488427D01*
X97721615Y-69466007D01*
X97656756Y-69418884D01*
X97656080Y-69418583D01*
X97482288Y-69341206D01*
X97482286Y-69341205D01*
X97295486Y-69301499D01*
X97289020Y-69300820D01*
X97289203Y-69299076D01*
X97230417Y-69281815D01*
X97184662Y-69229011D01*
X97174718Y-69159853D01*
X97175487Y-69155148D01*
X97220031Y-68912076D01*
X97240117Y-68580000D01*
X97220031Y-68247923D01*
X97160059Y-67920670D01*
X97061092Y-67603071D01*
X97061086Y-67603056D01*
X96924548Y-67299680D01*
X96924546Y-67299678D01*
X96752434Y-67014968D01*
X96752429Y-67014960D01*
X96599228Y-66819415D01*
X95779343Y-67639300D01*
X95705504Y-67537670D01*
X95527422Y-67359588D01*
X95425790Y-67285748D01*
X96245675Y-66465862D01*
X96245675Y-66465861D01*
X96200043Y-66430111D01*
X96159410Y-66373271D01*
X96155958Y-66303486D01*
X96190782Y-66242914D01*
X96252826Y-66210784D01*
X96276516Y-66208500D01*
X96573638Y-66208500D01*
X96573654Y-66208499D01*
X96600692Y-66205591D01*
X96634201Y-66201989D01*
X96771204Y-66150889D01*
X96888261Y-66063261D01*
X96975889Y-65946204D01*
X97026989Y-65809201D01*
X97030864Y-65773156D01*
X97033499Y-65748654D01*
X97033500Y-65748637D01*
X97033500Y-64778766D01*
X97053185Y-64711727D01*
X97105989Y-64665972D01*
X97175147Y-64656028D01*
X97238703Y-64685053D01*
G37*
%TD.AperFunction*%
%TA.AperFunction,Conductor*%
G36*
X113190931Y-57513185D02*
G01*
X113236686Y-57565989D01*
X113247212Y-57604534D01*
X113251458Y-57644928D01*
X113251459Y-57644930D01*
X113251459Y-57644932D01*
X113310470Y-57826549D01*
X113310473Y-57826556D01*
X113405960Y-57991944D01*
X113408285Y-57994526D01*
X113409158Y-57996346D01*
X113409778Y-57997199D01*
X113409622Y-57997312D01*
X113438516Y-58057517D01*
X113429893Y-58126852D01*
X113385153Y-58180519D01*
X113318501Y-58201477D01*
X113316137Y-58201500D01*
X113251345Y-58201500D01*
X113190797Y-58208011D01*
X113190795Y-58208011D01*
X113053795Y-58259111D01*
X112936739Y-58346739D01*
X112849111Y-58463795D01*
X112798011Y-58600795D01*
X112798011Y-58600797D01*
X112791500Y-58661345D01*
X112791500Y-59858654D01*
X112798011Y-59919202D01*
X112798011Y-59919204D01*
X112852210Y-60064512D01*
X112849308Y-60065594D01*
X112860886Y-60118874D01*
X112850340Y-60154790D01*
X112852210Y-60155488D01*
X112798011Y-60300795D01*
X112798011Y-60300797D01*
X112791500Y-60361345D01*
X112791500Y-61558654D01*
X112798011Y-61619202D01*
X112798011Y-61619204D01*
X112852210Y-61764512D01*
X112849308Y-61765594D01*
X112860886Y-61818874D01*
X112850340Y-61854790D01*
X112852210Y-61855488D01*
X112798011Y-62000795D01*
X112798011Y-62000797D01*
X112791500Y-62061345D01*
X112791500Y-62791234D01*
X112771815Y-62858273D01*
X112755181Y-62878915D01*
X109086167Y-66547929D01*
X109061122Y-66572974D01*
X108997927Y-66636168D01*
X108928603Y-66739918D01*
X108928598Y-66739927D01*
X108880845Y-66855214D01*
X108880843Y-66855222D01*
X108856500Y-66977601D01*
X108856500Y-67124366D01*
X108836815Y-67191405D01*
X108791519Y-67233420D01*
X108729995Y-67266715D01*
X108729993Y-67266716D01*
X108548887Y-67407677D01*
X108548886Y-67407678D01*
X108462347Y-67501684D01*
X108393453Y-67576523D01*
X108323809Y-67683121D01*
X108270662Y-67728477D01*
X108201431Y-67737901D01*
X108138095Y-67708399D01*
X108116191Y-67683121D01*
X108098624Y-67656233D01*
X108046547Y-67576523D01*
X107891114Y-67407678D01*
X107769743Y-67313211D01*
X107710012Y-67266720D01*
X107710007Y-67266717D01*
X107508180Y-67157494D01*
X107508177Y-67157492D01*
X107508174Y-67157491D01*
X107508171Y-67157490D01*
X107508169Y-67157489D01*
X107291115Y-67082974D01*
X107104299Y-67051800D01*
X107064748Y-67045200D01*
X106835252Y-67045200D01*
X106795701Y-67051800D01*
X106608884Y-67082974D01*
X106391830Y-67157489D01*
X106391819Y-67157494D01*
X106189992Y-67266717D01*
X106189987Y-67266720D01*
X106008888Y-67407676D01*
X106008886Y-67407677D01*
X106008886Y-67407678D01*
X105922347Y-67501684D01*
X105853453Y-67576523D01*
X105783809Y-67683121D01*
X105730662Y-67728477D01*
X105661431Y-67737901D01*
X105598095Y-67708399D01*
X105576191Y-67683121D01*
X105558624Y-67656233D01*
X105506547Y-67576523D01*
X105351114Y-67407678D01*
X105229743Y-67313211D01*
X105170012Y-67266720D01*
X105170007Y-67266717D01*
X104968180Y-67157494D01*
X104968177Y-67157492D01*
X104968174Y-67157491D01*
X104968171Y-67157490D01*
X104968169Y-67157489D01*
X104751115Y-67082974D01*
X104564299Y-67051800D01*
X104524748Y-67045200D01*
X104295252Y-67045200D01*
X104255701Y-67051800D01*
X104068884Y-67082974D01*
X103851830Y-67157489D01*
X103851819Y-67157494D01*
X103649992Y-67266717D01*
X103649987Y-67266720D01*
X103468888Y-67407676D01*
X103313450Y-67576525D01*
X103187930Y-67768649D01*
X103095743Y-67978814D01*
X103039405Y-68201291D01*
X103020454Y-68429994D01*
X103020454Y-68430005D01*
X103039405Y-68658708D01*
X103095743Y-68881185D01*
X103154926Y-69016109D01*
X103187931Y-69091351D01*
X103269175Y-69215704D01*
X103281761Y-69234968D01*
X103301948Y-69301858D01*
X103282768Y-69369044D01*
X103230310Y-69415194D01*
X103177952Y-69426790D01*
X102936848Y-69426790D01*
X102869809Y-69407105D01*
X102849167Y-69390471D01*
X100571819Y-67113123D01*
X100538334Y-67051800D01*
X100535500Y-67025442D01*
X100535500Y-65963858D01*
X100555185Y-65896819D01*
X100571814Y-65876182D01*
X101712801Y-64735194D01*
X101774122Y-64701711D01*
X101843814Y-64706695D01*
X101892630Y-64739905D01*
X101999113Y-64858167D01*
X102008747Y-64868866D01*
X102163248Y-64981118D01*
X102337712Y-65058794D01*
X102524513Y-65098500D01*
X102715487Y-65098500D01*
X102902288Y-65058794D01*
X103076752Y-64981118D01*
X103231253Y-64868866D01*
X103359040Y-64726944D01*
X103454527Y-64561556D01*
X103513542Y-64379928D01*
X103530981Y-64213997D01*
X103557564Y-64149387D01*
X103566611Y-64139291D01*
X104449732Y-63256170D01*
X104511053Y-63222687D01*
X104580745Y-63227671D01*
X104636678Y-63269543D01*
X104642947Y-63278752D01*
X104645967Y-63283649D01*
X104645970Y-63283652D01*
X104771348Y-63409030D01*
X104922262Y-63502115D01*
X105090574Y-63557887D01*
X105194455Y-63568500D01*
X105820544Y-63568499D01*
X105924426Y-63557887D01*
X106092738Y-63502115D01*
X106243652Y-63409030D01*
X106332319Y-63320363D01*
X106393642Y-63286878D01*
X106463334Y-63291862D01*
X106507681Y-63320363D01*
X106596348Y-63409030D01*
X106747262Y-63502115D01*
X106915574Y-63557887D01*
X107019455Y-63568500D01*
X107645544Y-63568499D01*
X107749426Y-63557887D01*
X107917738Y-63502115D01*
X107934671Y-63491669D01*
X108002060Y-63473228D01*
X108068724Y-63494147D01*
X108099037Y-63522897D01*
X108136737Y-63573259D01*
X108136738Y-63573259D01*
X108136739Y-63573261D01*
X108253796Y-63660889D01*
X108390799Y-63711989D01*
X108418050Y-63714918D01*
X108451345Y-63718499D01*
X108451362Y-63718500D01*
X110548638Y-63718500D01*
X110548654Y-63718499D01*
X110575692Y-63715591D01*
X110609201Y-63711989D01*
X110746204Y-63660889D01*
X110863261Y-63573261D01*
X110950889Y-63456204D01*
X111001989Y-63319201D01*
X111007328Y-63269543D01*
X111008499Y-63258654D01*
X111008500Y-63258637D01*
X111008500Y-62061362D01*
X111008499Y-62061345D01*
X111003956Y-62019094D01*
X111001989Y-62000799D01*
X111001987Y-62000795D01*
X111001987Y-62000792D01*
X110947790Y-61855486D01*
X110950700Y-61854400D01*
X110939108Y-61801195D01*
X110949672Y-61765215D01*
X110947790Y-61764514D01*
X111001987Y-61619207D01*
X111001988Y-61619204D01*
X111001989Y-61619201D01*
X111005591Y-61585692D01*
X111008499Y-61558654D01*
X111008500Y-61558637D01*
X111008500Y-60361362D01*
X111008499Y-60361345D01*
X111003575Y-60315551D01*
X111001989Y-60300799D01*
X111001987Y-60300795D01*
X111001987Y-60300792D01*
X110947790Y-60155486D01*
X110950700Y-60154400D01*
X110939108Y-60101195D01*
X110949672Y-60065215D01*
X110947790Y-60064514D01*
X111001987Y-59919207D01*
X111001988Y-59919204D01*
X111001989Y-59919201D01*
X111006207Y-59879969D01*
X111008499Y-59858654D01*
X111008500Y-59858637D01*
X111008500Y-58661362D01*
X111008499Y-58661345D01*
X111002491Y-58605473D01*
X111001989Y-58600799D01*
X110991997Y-58574011D01*
X110978852Y-58538766D01*
X110950889Y-58463796D01*
X110863261Y-58346739D01*
X110746204Y-58259111D01*
X110735182Y-58255000D01*
X110609203Y-58208011D01*
X110548654Y-58201500D01*
X110548638Y-58201500D01*
X108477499Y-58201500D01*
X108410460Y-58181815D01*
X108364705Y-58129011D01*
X108353499Y-58077500D01*
X108353499Y-58039462D01*
X108353498Y-58039446D01*
X108350216Y-58007322D01*
X108342887Y-57935574D01*
X108287115Y-57767262D01*
X108287111Y-57767256D01*
X108287110Y-57767253D01*
X108234893Y-57682597D01*
X108216452Y-57615205D01*
X108237374Y-57548541D01*
X108291016Y-57503772D01*
X108340431Y-57493500D01*
X113123892Y-57493500D01*
X113190931Y-57513185D01*
G37*
%TD.AperFunction*%
%TA.AperFunction,Conductor*%
G36*
X123478190Y-49319094D02*
G01*
X134627615Y-60468519D01*
X134661100Y-60529842D01*
X134656116Y-60599534D01*
X134614244Y-60655467D01*
X134548780Y-60679884D01*
X134539934Y-60680200D01*
X134465252Y-60680200D01*
X134408660Y-60689643D01*
X134238884Y-60717974D01*
X134021830Y-60792489D01*
X134021819Y-60792494D01*
X133819992Y-60901717D01*
X133819987Y-60901720D01*
X133638888Y-61042676D01*
X133638886Y-61042677D01*
X133638886Y-61042678D01*
X133596141Y-61089111D01*
X133483453Y-61211523D01*
X133413809Y-61318121D01*
X133360662Y-61363477D01*
X133291431Y-61372901D01*
X133228095Y-61343399D01*
X133206191Y-61318121D01*
X133193005Y-61297939D01*
X133136547Y-61211523D01*
X132981114Y-61042678D01*
X132913072Y-60989718D01*
X132800012Y-60901720D01*
X132800007Y-60901717D01*
X132598180Y-60792494D01*
X132598177Y-60792492D01*
X132598174Y-60792491D01*
X132598171Y-60792490D01*
X132598169Y-60792489D01*
X132381115Y-60717974D01*
X132229134Y-60692613D01*
X132154748Y-60680200D01*
X131925252Y-60680200D01*
X131868660Y-60689643D01*
X131698884Y-60717974D01*
X131481830Y-60792489D01*
X131481819Y-60792494D01*
X131279992Y-60901717D01*
X131279987Y-60901720D01*
X131098888Y-61042676D01*
X131098886Y-61042677D01*
X131098886Y-61042678D01*
X131056141Y-61089111D01*
X130943453Y-61211523D01*
X130873809Y-61318121D01*
X130820662Y-61363477D01*
X130751431Y-61372901D01*
X130688095Y-61343399D01*
X130666191Y-61318121D01*
X130653005Y-61297939D01*
X130596547Y-61211523D01*
X130441114Y-61042678D01*
X130373072Y-60989718D01*
X130260012Y-60901720D01*
X130260007Y-60901717D01*
X130058180Y-60792494D01*
X130058177Y-60792492D01*
X130058174Y-60792491D01*
X130058171Y-60792490D01*
X130058169Y-60792489D01*
X129841115Y-60717974D01*
X129689134Y-60692613D01*
X129614748Y-60680200D01*
X129385252Y-60680200D01*
X129328660Y-60689643D01*
X129158884Y-60717974D01*
X128941830Y-60792489D01*
X128941819Y-60792494D01*
X128739992Y-60901717D01*
X128739987Y-60901720D01*
X128558888Y-61042676D01*
X128403450Y-61211525D01*
X128277930Y-61403649D01*
X128185743Y-61613814D01*
X128129405Y-61836291D01*
X128110454Y-62064994D01*
X128110454Y-62065005D01*
X128129405Y-62293708D01*
X128185743Y-62516185D01*
X128275746Y-62721371D01*
X128284649Y-62790671D01*
X128254672Y-62853783D01*
X128221210Y-62880234D01*
X128200000Y-62891712D01*
X128199993Y-62891716D01*
X128018887Y-63032677D01*
X127863450Y-63201525D01*
X127737930Y-63393649D01*
X127645743Y-63603814D01*
X127589405Y-63826291D01*
X127570454Y-64054994D01*
X127570454Y-64055005D01*
X127589405Y-64283708D01*
X127645743Y-64506185D01*
X127737930Y-64716350D01*
X127863450Y-64908474D01*
X127863453Y-64908477D01*
X128018886Y-65077322D01*
X128199990Y-65218281D01*
X128401826Y-65327509D01*
X128618887Y-65402026D01*
X128845252Y-65439800D01*
X128845253Y-65439800D01*
X129074747Y-65439800D01*
X129074748Y-65439800D01*
X129301113Y-65402026D01*
X129518174Y-65327509D01*
X129720010Y-65218281D01*
X129901114Y-65077322D01*
X130056547Y-64908477D01*
X130082426Y-64868866D01*
X130126191Y-64801879D01*
X130179337Y-64756522D01*
X130248569Y-64747098D01*
X130311905Y-64776600D01*
X130333809Y-64801879D01*
X130403450Y-64908474D01*
X130403453Y-64908477D01*
X130558886Y-65077322D01*
X130739990Y-65218281D01*
X130941826Y-65327509D01*
X131158887Y-65402026D01*
X131385252Y-65439800D01*
X131385253Y-65439800D01*
X131614747Y-65439800D01*
X131614748Y-65439800D01*
X131841113Y-65402026D01*
X132058174Y-65327509D01*
X132260010Y-65218281D01*
X132441114Y-65077322D01*
X132596547Y-64908477D01*
X132622426Y-64868866D01*
X132666191Y-64801879D01*
X132719337Y-64756522D01*
X132788569Y-64747098D01*
X132851905Y-64776600D01*
X132873809Y-64801879D01*
X132943450Y-64908474D01*
X132943453Y-64908477D01*
X133098886Y-65077322D01*
X133279990Y-65218281D01*
X133481826Y-65327509D01*
X133698887Y-65402026D01*
X133925252Y-65439800D01*
X133925253Y-65439800D01*
X134154747Y-65439800D01*
X134154748Y-65439800D01*
X134381113Y-65402026D01*
X134598174Y-65327509D01*
X134800010Y-65218281D01*
X134981114Y-65077322D01*
X135136547Y-64908477D01*
X135262069Y-64716351D01*
X135354257Y-64506185D01*
X135410594Y-64283712D01*
X135429546Y-64055000D01*
X135423926Y-63987181D01*
X135412670Y-63851345D01*
X135410594Y-63826288D01*
X135354257Y-63603815D01*
X135264252Y-63398627D01*
X135255350Y-63329328D01*
X135285327Y-63266216D01*
X135318792Y-63239763D01*
X135340010Y-63228281D01*
X135521114Y-63087322D01*
X135676547Y-62918477D01*
X135718814Y-62853783D01*
X135746191Y-62811879D01*
X135799337Y-62766522D01*
X135868569Y-62757098D01*
X135931905Y-62786600D01*
X135953809Y-62811879D01*
X136023450Y-62918474D01*
X136023453Y-62918477D01*
X136178886Y-63087322D01*
X136359990Y-63228281D01*
X136359993Y-63228283D01*
X136364291Y-63231091D01*
X136362941Y-63233156D01*
X136405267Y-63275170D01*
X136420372Y-63343387D01*
X136396198Y-63408942D01*
X136363323Y-63437428D01*
X136364291Y-63438909D01*
X136359993Y-63441716D01*
X136178887Y-63582677D01*
X136023450Y-63751525D01*
X135897930Y-63943649D01*
X135805743Y-64153814D01*
X135749405Y-64376291D01*
X135730454Y-64604994D01*
X135730454Y-64605005D01*
X135749405Y-64833708D01*
X135749405Y-64833711D01*
X135749406Y-64833712D01*
X135755599Y-64858167D01*
X135805743Y-65056185D01*
X135897930Y-65266350D01*
X136023450Y-65458474D01*
X136023452Y-65458476D01*
X136023453Y-65458477D01*
X136178886Y-65627322D01*
X136359990Y-65768281D01*
X136359993Y-65768283D01*
X136364291Y-65771091D01*
X136362941Y-65773156D01*
X136405267Y-65815170D01*
X136420372Y-65883387D01*
X136396198Y-65948942D01*
X136363323Y-65977428D01*
X136364291Y-65978909D01*
X136359993Y-65981716D01*
X136178887Y-66122677D01*
X136023450Y-66291525D01*
X135897930Y-66483649D01*
X135805743Y-66693814D01*
X135749405Y-66916291D01*
X135730454Y-67144994D01*
X135730454Y-67145005D01*
X135749405Y-67373708D01*
X135805743Y-67596185D01*
X135897930Y-67806350D01*
X136023450Y-67998474D01*
X136023453Y-67998477D01*
X136178886Y-68167322D01*
X136245556Y-68219213D01*
X136359987Y-68308279D01*
X136359992Y-68308282D01*
X136554316Y-68413445D01*
X136603907Y-68462664D01*
X136619015Y-68530881D01*
X136594845Y-68596437D01*
X136539069Y-68638518D01*
X136495299Y-68646500D01*
X130703766Y-68646500D01*
X130636727Y-68626815D01*
X130616085Y-68610181D01*
X127229819Y-65223915D01*
X127196334Y-65162592D01*
X127193500Y-65136234D01*
X127193500Y-53982605D01*
X127193499Y-53982601D01*
X127169156Y-53860222D01*
X127169155Y-53860215D01*
X127121400Y-53744925D01*
X127121399Y-53744924D01*
X127121396Y-53744918D01*
X127052072Y-53641168D01*
X127020830Y-53609926D01*
X126963833Y-53552929D01*
X123250711Y-49839807D01*
X123217226Y-49778484D01*
X123218185Y-49721690D01*
X123250594Y-49593712D01*
X123266933Y-49396535D01*
X123292086Y-49331350D01*
X123348488Y-49290112D01*
X123418231Y-49285914D01*
X123478190Y-49319094D01*
G37*
%TD.AperFunction*%
%TA.AperFunction,Conductor*%
G36*
X120440816Y-56787185D02*
G01*
X120486571Y-56839989D01*
X120497353Y-56901740D01*
X120490454Y-56984994D01*
X120490454Y-56985005D01*
X120509405Y-57213708D01*
X120565743Y-57436185D01*
X120657930Y-57646350D01*
X120783450Y-57838474D01*
X120783453Y-57838477D01*
X120938886Y-58007322D01*
X121119990Y-58148281D01*
X121119993Y-58148283D01*
X121124291Y-58151091D01*
X121122941Y-58153156D01*
X121165267Y-58195170D01*
X121180372Y-58263387D01*
X121156198Y-58328942D01*
X121123323Y-58357428D01*
X121124291Y-58358909D01*
X121119993Y-58361716D01*
X120938887Y-58502677D01*
X120783450Y-58671525D01*
X120657930Y-58863649D01*
X120565743Y-59073814D01*
X120509405Y-59296291D01*
X120490454Y-59524994D01*
X120490454Y-59525005D01*
X120509405Y-59753710D01*
X120541812Y-59881686D01*
X120539186Y-59951506D01*
X120509287Y-59999806D01*
X118695203Y-61813893D01*
X118336167Y-62172929D01*
X118310653Y-62198443D01*
X118247927Y-62261168D01*
X118178603Y-62364918D01*
X118178598Y-62364927D01*
X118130845Y-62480214D01*
X118130843Y-62480222D01*
X118106500Y-62602601D01*
X118106500Y-66485293D01*
X118086815Y-66552332D01*
X118070181Y-66572974D01*
X116168118Y-68475036D01*
X116106795Y-68508521D01*
X116037103Y-68503537D01*
X115981170Y-68461665D01*
X115956861Y-68397595D01*
X115940594Y-68201291D01*
X115940594Y-68201288D01*
X115884257Y-67978815D01*
X115792069Y-67768649D01*
X115775909Y-67743914D01*
X115666549Y-67576525D01*
X115630780Y-67537670D01*
X115511114Y-67407678D01*
X115330010Y-67266719D01*
X115330009Y-67266718D01*
X115330006Y-67266716D01*
X115330004Y-67266715D01*
X115268481Y-67233420D01*
X115218891Y-67184200D01*
X115203500Y-67124366D01*
X115203500Y-65575766D01*
X115223185Y-65508727D01*
X115239819Y-65488085D01*
X116276089Y-64451816D01*
X117332072Y-63395833D01*
X117382500Y-63320363D01*
X117398176Y-63296902D01*
X117428392Y-63265474D01*
X117451253Y-63248866D01*
X117579040Y-63106944D01*
X117674527Y-62941556D01*
X117733542Y-62759928D01*
X117753504Y-62570000D01*
X117733542Y-62380072D01*
X117674527Y-62198444D01*
X117597483Y-62065000D01*
X117579041Y-62033057D01*
X117579036Y-62033050D01*
X117505350Y-61951213D01*
X117475120Y-61888221D01*
X117473500Y-61868241D01*
X117473500Y-61628461D01*
X117493185Y-61561422D01*
X117509819Y-61540780D01*
X118151371Y-60899228D01*
X118151374Y-60899225D01*
X118220703Y-60795467D01*
X118268458Y-60680177D01*
X118275844Y-60643043D01*
X118305311Y-60584263D01*
X118310305Y-60578717D01*
X118398343Y-60480941D01*
X118493830Y-60315553D01*
X118552845Y-60133925D01*
X118572807Y-59943997D01*
X118552845Y-59754069D01*
X118493830Y-59572441D01*
X118398343Y-59407053D01*
X118270556Y-59265131D01*
X118116055Y-59152879D01*
X117941591Y-59075203D01*
X117941589Y-59075202D01*
X117754790Y-59035497D01*
X117563816Y-59035497D01*
X117377017Y-59075202D01*
X117202549Y-59152880D01*
X117048048Y-59265132D01*
X116920262Y-59407054D01*
X116824776Y-59572440D01*
X116824773Y-59572447D01*
X116765877Y-59753712D01*
X116765761Y-59754069D01*
X116745799Y-59943997D01*
X116765761Y-60133925D01*
X116765762Y-60133928D01*
X116824775Y-60315551D01*
X116826605Y-60319661D01*
X116835892Y-60388911D01*
X116806265Y-60452189D01*
X116801008Y-60457781D01*
X116522048Y-60736743D01*
X116436167Y-60822624D01*
X116403728Y-60855063D01*
X116347927Y-60910863D01*
X116278603Y-61014613D01*
X116278598Y-61014622D01*
X116230845Y-61129909D01*
X116230843Y-61129917D01*
X116206500Y-61252296D01*
X116206500Y-61868241D01*
X116186815Y-61935280D01*
X116174650Y-61951213D01*
X116100963Y-62033050D01*
X116100958Y-62033057D01*
X116039887Y-62138837D01*
X115989320Y-62187053D01*
X115920713Y-62200276D01*
X115855848Y-62174308D01*
X115815320Y-62117393D01*
X115808500Y-62076837D01*
X115808500Y-62061362D01*
X115808499Y-62061345D01*
X115803956Y-62019094D01*
X115801989Y-62000799D01*
X115801987Y-62000795D01*
X115801987Y-62000792D01*
X115747790Y-61855486D01*
X115750700Y-61854400D01*
X115739108Y-61801195D01*
X115749672Y-61765215D01*
X115747790Y-61764514D01*
X115801987Y-61619207D01*
X115801988Y-61619204D01*
X115801989Y-61619201D01*
X115805591Y-61585692D01*
X115808499Y-61558654D01*
X115808500Y-61558637D01*
X115808500Y-60361362D01*
X115808499Y-60361345D01*
X115803575Y-60315551D01*
X115801989Y-60300799D01*
X115801987Y-60300795D01*
X115801987Y-60300792D01*
X115747790Y-60155486D01*
X115750700Y-60154400D01*
X115739108Y-60101195D01*
X115749671Y-60065217D01*
X115747789Y-60064515D01*
X115753320Y-60049687D01*
X115787423Y-59958251D01*
X115829293Y-59902320D01*
X115879409Y-59879970D01*
X115933785Y-59869155D01*
X116049075Y-59821400D01*
X116152833Y-59752071D01*
X118101086Y-57803819D01*
X118162409Y-57770334D01*
X118188767Y-57767500D01*
X118245487Y-57767500D01*
X118432288Y-57727794D01*
X118606752Y-57650118D01*
X118761253Y-57537866D01*
X118889040Y-57395944D01*
X118984527Y-57230556D01*
X119043542Y-57048928D01*
X119061450Y-56878536D01*
X119088035Y-56813924D01*
X119145332Y-56773939D01*
X119184771Y-56767500D01*
X120373777Y-56767500D01*
X120440816Y-56787185D01*
G37*
%TD.AperFunction*%
%TA.AperFunction,Conductor*%
G36*
X114985273Y-63738185D02*
G01*
X115031028Y-63790989D01*
X115040972Y-63860147D01*
X115011947Y-63923703D01*
X115005915Y-63930181D01*
X114166167Y-64769929D01*
X114142842Y-64793254D01*
X114077927Y-64858168D01*
X114008603Y-64961918D01*
X114008598Y-64961927D01*
X113960845Y-65077214D01*
X113960843Y-65077222D01*
X113936500Y-65199601D01*
X113936500Y-67124366D01*
X113916815Y-67191405D01*
X113871519Y-67233420D01*
X113809995Y-67266715D01*
X113809993Y-67266716D01*
X113628887Y-67407677D01*
X113628886Y-67407678D01*
X113542347Y-67501684D01*
X113473453Y-67576523D01*
X113398732Y-67690892D01*
X113345585Y-67736248D01*
X113276354Y-67745672D01*
X113213018Y-67716170D01*
X113191114Y-67690891D01*
X113164063Y-67649487D01*
X112550602Y-68262948D01*
X112538884Y-68219213D01*
X112466989Y-68094687D01*
X112365313Y-67993011D01*
X112240787Y-67921116D01*
X112197050Y-67909396D01*
X112811910Y-67294537D01*
X112811909Y-67294535D01*
X112785349Y-67273862D01*
X112785348Y-67273861D01*
X112584749Y-67165301D01*
X112584744Y-67165299D01*
X112369023Y-67091242D01*
X112144042Y-67053700D01*
X111915958Y-67053700D01*
X111690976Y-67091242D01*
X111475255Y-67165299D01*
X111475250Y-67165301D01*
X111274652Y-67273860D01*
X111274646Y-67273864D01*
X111248089Y-67294534D01*
X111248089Y-67294536D01*
X111862949Y-67909396D01*
X111819213Y-67921116D01*
X111694687Y-67993011D01*
X111593011Y-68094687D01*
X111521116Y-68219213D01*
X111509396Y-68262949D01*
X110895934Y-67649487D01*
X110868884Y-67690891D01*
X110815738Y-67736248D01*
X110746507Y-67745671D01*
X110683171Y-67716169D01*
X110661267Y-67690891D01*
X110638624Y-67656233D01*
X110586547Y-67576523D01*
X110431114Y-67407678D01*
X110431113Y-67407677D01*
X110431111Y-67407675D01*
X110431107Y-67407672D01*
X110309744Y-67313211D01*
X110268931Y-67256501D01*
X110265256Y-67186728D01*
X110298223Y-67127679D01*
X113671085Y-63754819D01*
X113732408Y-63721334D01*
X113758766Y-63718500D01*
X114918234Y-63718500D01*
X114985273Y-63738185D01*
G37*
%TD.AperFunction*%
%TA.AperFunction,Conductor*%
G36*
X123478190Y-56939094D02*
G01*
X124990181Y-58451085D01*
X125023666Y-58512408D01*
X125026500Y-58538766D01*
X125026500Y-65919837D01*
X125006815Y-65986876D01*
X124954011Y-66032631D01*
X124884853Y-66042575D01*
X124821297Y-66013550D01*
X124814819Y-66007518D01*
X124049819Y-65242518D01*
X124016334Y-65181195D01*
X124013500Y-65154837D01*
X124013500Y-63502605D01*
X124013499Y-63502601D01*
X124000411Y-63436805D01*
X123989155Y-63380215D01*
X123941400Y-63264925D01*
X123941399Y-63264924D01*
X123941396Y-63264918D01*
X123872072Y-63161168D01*
X123838499Y-63127595D01*
X123783833Y-63072929D01*
X123250711Y-62539807D01*
X123217226Y-62478484D01*
X123218185Y-62421690D01*
X123250594Y-62293712D01*
X123267985Y-62083841D01*
X123269546Y-62065005D01*
X123269546Y-62064994D01*
X123252095Y-61854400D01*
X123250594Y-61836288D01*
X123194257Y-61613815D01*
X123102069Y-61403649D01*
X123076368Y-61364311D01*
X122976549Y-61211525D01*
X122901423Y-61129917D01*
X122821114Y-61042678D01*
X122753072Y-60989718D01*
X122640012Y-60901720D01*
X122635718Y-60898915D01*
X122637095Y-60896805D01*
X122594861Y-60855063D01*
X122579609Y-60786879D01*
X122603642Y-60721272D01*
X122636716Y-60692613D01*
X122635718Y-60691085D01*
X122640003Y-60688284D01*
X122640010Y-60688281D01*
X122821114Y-60547322D01*
X122976547Y-60378477D01*
X123102069Y-60186351D01*
X123194257Y-59976185D01*
X123250594Y-59753712D01*
X123265614Y-59572450D01*
X123269546Y-59525005D01*
X123269546Y-59524994D01*
X123256070Y-59362376D01*
X123250594Y-59296288D01*
X123194257Y-59073815D01*
X123102069Y-58863649D01*
X123079195Y-58828638D01*
X122976549Y-58671525D01*
X122953512Y-58646500D01*
X122821114Y-58502678D01*
X122728069Y-58430258D01*
X122640012Y-58361720D01*
X122635718Y-58358915D01*
X122637095Y-58356805D01*
X122594861Y-58315063D01*
X122579609Y-58246879D01*
X122603642Y-58181272D01*
X122636716Y-58152613D01*
X122635718Y-58151085D01*
X122640006Y-58148283D01*
X122640010Y-58148281D01*
X122821114Y-58007322D01*
X122976547Y-57838477D01*
X123102069Y-57646351D01*
X123194257Y-57436185D01*
X123250594Y-57213712D01*
X123266933Y-57016535D01*
X123292086Y-56951350D01*
X123348488Y-56910112D01*
X123418231Y-56905914D01*
X123478190Y-56939094D01*
G37*
%TD.AperFunction*%
%TA.AperFunction,Conductor*%
G36*
X93959539Y-54755185D02*
G01*
X94005294Y-54807989D01*
X94016500Y-54859500D01*
X94016500Y-56648654D01*
X94023011Y-56709202D01*
X94023011Y-56709204D01*
X94062071Y-56813924D01*
X94074111Y-56846204D01*
X94161739Y-56963261D01*
X94278796Y-57050889D01*
X94415799Y-57101989D01*
X94443050Y-57104918D01*
X94476345Y-57108499D01*
X94476362Y-57108500D01*
X96530234Y-57108500D01*
X96597273Y-57128185D01*
X96643028Y-57180989D01*
X96652972Y-57250147D01*
X96623947Y-57313703D01*
X96617915Y-57320181D01*
X96556167Y-57381929D01*
X96533886Y-57404210D01*
X96467927Y-57470168D01*
X96398603Y-57573918D01*
X96398598Y-57573927D01*
X96350845Y-57689214D01*
X96350843Y-57689222D01*
X96326500Y-57811601D01*
X96326500Y-63267500D01*
X96306815Y-63334539D01*
X96254011Y-63380294D01*
X96202500Y-63391500D01*
X94476345Y-63391500D01*
X94415797Y-63398011D01*
X94415795Y-63398011D01*
X94278795Y-63449111D01*
X94161739Y-63536739D01*
X94074111Y-63653795D01*
X94023011Y-63790795D01*
X94023011Y-63790797D01*
X94016500Y-63851345D01*
X94016500Y-64726215D01*
X93996815Y-64793254D01*
X93944011Y-64839009D01*
X93874853Y-64848953D01*
X93811297Y-64819928D01*
X93785113Y-64788215D01*
X93774555Y-64769929D01*
X93759040Y-64743056D01*
X93726301Y-64706695D01*
X93631254Y-64601135D01*
X93595283Y-64575000D01*
X93476752Y-64488882D01*
X93467059Y-64484566D01*
X93413825Y-64439314D01*
X93393506Y-64372465D01*
X93393500Y-64371289D01*
X93393500Y-60645756D01*
X93413185Y-60578717D01*
X93425346Y-60562788D01*
X93499040Y-60480944D01*
X93594527Y-60315556D01*
X93653542Y-60133928D01*
X93673504Y-59944000D01*
X93653542Y-59754072D01*
X93594527Y-59572444D01*
X93499040Y-59407056D01*
X93371253Y-59265134D01*
X93216752Y-59152882D01*
X93042288Y-59075206D01*
X93042286Y-59075205D01*
X92855487Y-59035500D01*
X92705500Y-59035500D01*
X92638461Y-59015815D01*
X92592706Y-58963011D01*
X92581500Y-58911500D01*
X92581500Y-54859500D01*
X92601185Y-54792461D01*
X92653989Y-54746706D01*
X92705500Y-54735500D01*
X93892500Y-54735500D01*
X93959539Y-54755185D01*
G37*
%TD.AperFunction*%
%TA.AperFunction,Conductor*%
G36*
X100413488Y-59658406D02*
G01*
X100459243Y-59711210D01*
X100469187Y-59780368D01*
X100464380Y-59801039D01*
X100413099Y-59958866D01*
X100409458Y-59970072D01*
X100389496Y-60160000D01*
X100409458Y-60349928D01*
X100409459Y-60349931D01*
X100468470Y-60531549D01*
X100468473Y-60531556D01*
X100562998Y-60695278D01*
X100579471Y-60763178D01*
X100556618Y-60829205D01*
X100501697Y-60872396D01*
X100455611Y-60881278D01*
X99501400Y-60881278D01*
X99434361Y-60861593D01*
X99388606Y-60808789D01*
X99378111Y-60770545D01*
X99377328Y-60763253D01*
X99377328Y-60736743D01*
X99378992Y-60721272D01*
X99382500Y-60688638D01*
X99382500Y-60311362D01*
X99382499Y-60311348D01*
X99377328Y-60263257D01*
X99377328Y-60236743D01*
X99378020Y-60230313D01*
X99382500Y-60188638D01*
X99382500Y-59811362D01*
X99378696Y-59775975D01*
X99391103Y-59707215D01*
X99438714Y-59656079D01*
X99501986Y-59638721D01*
X100346449Y-59638721D01*
X100413488Y-59658406D01*
G37*
%TD.AperFunction*%
%TA.AperFunction,Conductor*%
G36*
X123221873Y-40838322D02*
G01*
X123229058Y-40844962D01*
X135933347Y-53549251D01*
X135966832Y-53610574D01*
X135961848Y-53680266D01*
X135949475Y-53704753D01*
X135897930Y-53783649D01*
X135805743Y-53993814D01*
X135749405Y-54216291D01*
X135730454Y-54444994D01*
X135730454Y-54445005D01*
X135749405Y-54673708D01*
X135749405Y-54673711D01*
X135749406Y-54673712D01*
X135753756Y-54690889D01*
X135805743Y-54896185D01*
X135897930Y-55106350D01*
X136023450Y-55298474D01*
X136023453Y-55298477D01*
X136178886Y-55467322D01*
X136359990Y-55608281D01*
X136359993Y-55608283D01*
X136364291Y-55611091D01*
X136362941Y-55613156D01*
X136405267Y-55655170D01*
X136420372Y-55723387D01*
X136396198Y-55788942D01*
X136363323Y-55817428D01*
X136364291Y-55818909D01*
X136359993Y-55821716D01*
X136178887Y-55962677D01*
X136023450Y-56131525D01*
X135897930Y-56323649D01*
X135805743Y-56533814D01*
X135749405Y-56756291D01*
X135730454Y-56984994D01*
X135730454Y-56985005D01*
X135749405Y-57213708D01*
X135805743Y-57436185D01*
X135897930Y-57646350D01*
X136023450Y-57838474D01*
X136023453Y-57838477D01*
X136178886Y-58007322D01*
X136359990Y-58148281D01*
X136359993Y-58148283D01*
X136364291Y-58151091D01*
X136362941Y-58153156D01*
X136405267Y-58195170D01*
X136420372Y-58263387D01*
X136396198Y-58328942D01*
X136363323Y-58357428D01*
X136364291Y-58358909D01*
X136359993Y-58361716D01*
X136178887Y-58502677D01*
X136023450Y-58671525D01*
X135897930Y-58863649D01*
X135805743Y-59073814D01*
X135749405Y-59296291D01*
X135733066Y-59493464D01*
X135707913Y-59558649D01*
X135651510Y-59599887D01*
X135581767Y-59604085D01*
X135521809Y-59570905D01*
X123250711Y-47299807D01*
X123217226Y-47238484D01*
X123218185Y-47181690D01*
X123250594Y-47053712D01*
X123260973Y-46928458D01*
X123269546Y-46825005D01*
X123269546Y-46824994D01*
X123251781Y-46610617D01*
X123250594Y-46596288D01*
X123194257Y-46373815D01*
X123102069Y-46163649D01*
X123084492Y-46136745D01*
X122976549Y-45971525D01*
X122934815Y-45926190D01*
X122821114Y-45802678D01*
X122753072Y-45749718D01*
X122640012Y-45661720D01*
X122635718Y-45658915D01*
X122637095Y-45656805D01*
X122594861Y-45615063D01*
X122579609Y-45546879D01*
X122603642Y-45481272D01*
X122636716Y-45452613D01*
X122635718Y-45451085D01*
X122640006Y-45448283D01*
X122640010Y-45448281D01*
X122821114Y-45307322D01*
X122976547Y-45138477D01*
X123102069Y-44946351D01*
X123194257Y-44736185D01*
X123250594Y-44513712D01*
X123262645Y-44368277D01*
X123269546Y-44285005D01*
X123269546Y-44284994D01*
X123253454Y-44090799D01*
X123250594Y-44056288D01*
X123194257Y-43833815D01*
X123102069Y-43623649D01*
X122976549Y-43431525D01*
X122957809Y-43411168D01*
X122821114Y-43262678D01*
X122719043Y-43183233D01*
X122640012Y-43121720D01*
X122640007Y-43121717D01*
X122635393Y-43119220D01*
X122585804Y-43069999D01*
X122570698Y-43001782D01*
X122594870Y-42936227D01*
X122631438Y-42904545D01*
X122631048Y-42903948D01*
X122635349Y-42901137D01*
X122661910Y-42880463D01*
X122047050Y-42265603D01*
X122090787Y-42253884D01*
X122215313Y-42181989D01*
X122316989Y-42080313D01*
X122388884Y-41955787D01*
X122400603Y-41912050D01*
X123014063Y-42525511D01*
X123094569Y-42402287D01*
X123186190Y-42193415D01*
X123242182Y-41972304D01*
X123261017Y-41745005D01*
X123261017Y-41744994D01*
X123242182Y-41517695D01*
X123186190Y-41296584D01*
X123094569Y-41087712D01*
X123037568Y-41000465D01*
X123017381Y-40933575D01*
X123036561Y-40866390D01*
X123089019Y-40820239D01*
X123158101Y-40809776D01*
X123221873Y-40838322D01*
G37*
%TD.AperFunction*%
%TA.AperFunction,Conductor*%
G36*
X117113271Y-56787185D02*
G01*
X117159026Y-56839989D01*
X117168970Y-56909147D01*
X117139945Y-56972703D01*
X117133913Y-56979181D01*
X115798196Y-58314898D01*
X115736873Y-58348383D01*
X115667181Y-58343399D01*
X115636205Y-58326484D01*
X115546206Y-58259112D01*
X115546206Y-58259111D01*
X115409203Y-58208011D01*
X115348654Y-58201500D01*
X115348638Y-58201500D01*
X114973863Y-58201500D01*
X114906824Y-58181815D01*
X114861069Y-58129011D01*
X114851125Y-58059853D01*
X114880150Y-57996297D01*
X114881715Y-57994526D01*
X114884040Y-57991944D01*
X114979527Y-57826556D01*
X115038542Y-57644928D01*
X115058504Y-57455000D01*
X115038542Y-57265072D01*
X114979527Y-57083444D01*
X114930667Y-56998816D01*
X114904504Y-56953500D01*
X114888031Y-56885599D01*
X114910884Y-56819573D01*
X114965805Y-56776382D01*
X115011891Y-56767500D01*
X117046232Y-56767500D01*
X117113271Y-56787185D01*
G37*
%TD.AperFunction*%
%TA.AperFunction,Conductor*%
G36*
X138584468Y-54906355D02*
G01*
X138606686Y-54923986D01*
X139764767Y-56082068D01*
X139764771Y-56082071D01*
X139868522Y-56151396D01*
X139868528Y-56151399D01*
X139868529Y-56151400D01*
X139983819Y-56199155D01*
X140106205Y-56223499D01*
X140106209Y-56223500D01*
X140106210Y-56223500D01*
X140230998Y-56223500D01*
X140796234Y-56223500D01*
X140863273Y-56243185D01*
X140883915Y-56259819D01*
X140980181Y-56356085D01*
X141013666Y-56417408D01*
X141016500Y-56443766D01*
X141016500Y-57529002D01*
X141037248Y-57633310D01*
X141031021Y-57702902D01*
X140988157Y-57758079D01*
X140922268Y-57781323D01*
X140915631Y-57781501D01*
X140772005Y-57781501D01*
X140704966Y-57761816D01*
X140679856Y-57740474D01*
X140675950Y-57736136D01*
X140664469Y-57727794D01*
X140521448Y-57623883D01*
X140346984Y-57546207D01*
X140346982Y-57546206D01*
X140160183Y-57506501D01*
X139969209Y-57506501D01*
X139782410Y-57546206D01*
X139607942Y-57623884D01*
X139453441Y-57736136D01*
X139325656Y-57878056D01*
X139253934Y-58002282D01*
X139203367Y-58050497D01*
X139134759Y-58063719D01*
X139069895Y-58037751D01*
X139058866Y-58027962D01*
X138490711Y-57459807D01*
X138457226Y-57398484D01*
X138458185Y-57341690D01*
X138490594Y-57213712D01*
X138504086Y-57050888D01*
X138509546Y-56985005D01*
X138509546Y-56984994D01*
X138492259Y-56776382D01*
X138490594Y-56756288D01*
X138434257Y-56533815D01*
X138342069Y-56323649D01*
X138300367Y-56259819D01*
X138216549Y-56131525D01*
X138171020Y-56082068D01*
X138061114Y-55962678D01*
X137916433Y-55850068D01*
X137880012Y-55821720D01*
X137875718Y-55818915D01*
X137877095Y-55816805D01*
X137834861Y-55775063D01*
X137819609Y-55706879D01*
X137843642Y-55641272D01*
X137876716Y-55612613D01*
X137875718Y-55611085D01*
X137880006Y-55608283D01*
X137880010Y-55608281D01*
X138061114Y-55467322D01*
X138216547Y-55298477D01*
X138342069Y-55106351D01*
X138405450Y-54961855D01*
X138450404Y-54908371D01*
X138517140Y-54887681D01*
X138584468Y-54906355D01*
G37*
%TD.AperFunction*%
%TA.AperFunction,Conductor*%
G36*
X123478190Y-54399094D02*
G01*
X125440181Y-56361085D01*
X125473666Y-56422408D01*
X125476500Y-56448766D01*
X125476500Y-56846234D01*
X125456815Y-56913273D01*
X125404011Y-56959028D01*
X125334853Y-56968972D01*
X125271297Y-56939947D01*
X125264819Y-56933915D01*
X123250711Y-54919807D01*
X123217226Y-54858484D01*
X123218185Y-54801690D01*
X123250594Y-54673712D01*
X123266132Y-54486204D01*
X123266933Y-54476535D01*
X123292086Y-54411350D01*
X123348488Y-54370112D01*
X123418231Y-54365914D01*
X123478190Y-54399094D01*
G37*
%TD.AperFunction*%
%TA.AperFunction,Conductor*%
G36*
X97238703Y-55760053D02*
G01*
X97245181Y-55766085D01*
X97508929Y-56029833D01*
X97561164Y-56082068D01*
X97597168Y-56118072D01*
X97700918Y-56187396D01*
X97700924Y-56187399D01*
X97700925Y-56187400D01*
X97816215Y-56235155D01*
X97816219Y-56235155D01*
X97816220Y-56235156D01*
X97835171Y-56238926D01*
X97897082Y-56271311D01*
X97931656Y-56332027D01*
X97932597Y-56384733D01*
X97918500Y-56455607D01*
X97918500Y-56727500D01*
X97898815Y-56794539D01*
X97846011Y-56840294D01*
X97794500Y-56851500D01*
X97575345Y-56851500D01*
X97514802Y-56858010D01*
X97514797Y-56858011D01*
X97513003Y-56858681D01*
X97508608Y-56859473D01*
X97507245Y-56859796D01*
X97507227Y-56859723D01*
X97469667Y-56866500D01*
X97271601Y-56866500D01*
X97162091Y-56888283D01*
X97092499Y-56882056D01*
X97037322Y-56839192D01*
X97014078Y-56773303D01*
X97021719Y-56723330D01*
X97026989Y-56709201D01*
X97033499Y-56648654D01*
X97033500Y-56648637D01*
X97033500Y-55853766D01*
X97053185Y-55786727D01*
X97105989Y-55740972D01*
X97175147Y-55731028D01*
X97238703Y-55760053D01*
G37*
%TD.AperFunction*%
%TA.AperFunction,Conductor*%
G36*
X120639668Y-50018185D02*
G01*
X120676437Y-50054677D01*
X120783453Y-50218477D01*
X120938886Y-50387322D01*
X121108315Y-50519194D01*
X121119993Y-50528283D01*
X121124291Y-50531091D01*
X121122941Y-50533156D01*
X121165267Y-50575170D01*
X121180372Y-50643387D01*
X121156198Y-50708942D01*
X121123323Y-50737428D01*
X121124291Y-50738909D01*
X121119993Y-50741716D01*
X120938887Y-50882677D01*
X120783450Y-51051525D01*
X120657930Y-51243649D01*
X120565743Y-51453814D01*
X120509405Y-51676291D01*
X120490454Y-51904994D01*
X120490454Y-51905005D01*
X120509405Y-52133708D01*
X120565743Y-52356185D01*
X120657930Y-52566350D01*
X120783450Y-52758474D01*
X120783453Y-52758477D01*
X120938886Y-52927322D01*
X121103617Y-53055537D01*
X121119993Y-53068283D01*
X121124291Y-53071091D01*
X121122941Y-53073156D01*
X121165267Y-53115170D01*
X121180372Y-53183387D01*
X121156198Y-53248942D01*
X121123323Y-53277428D01*
X121124291Y-53278909D01*
X121119993Y-53281716D01*
X120938887Y-53422677D01*
X120783450Y-53591525D01*
X120657930Y-53783649D01*
X120565743Y-53993814D01*
X120509405Y-54216291D01*
X120490454Y-54444994D01*
X120490454Y-54445005D01*
X120509405Y-54673708D01*
X120509405Y-54673711D01*
X120509406Y-54673712D01*
X120513756Y-54690889D01*
X120565743Y-54896185D01*
X120657930Y-55106350D01*
X120783451Y-55298475D01*
X120784896Y-55300331D01*
X120785250Y-55301228D01*
X120786258Y-55302771D01*
X120785940Y-55302978D01*
X120810543Y-55365324D01*
X120796981Y-55433864D01*
X120748516Y-55484192D01*
X120687048Y-55500500D01*
X119771336Y-55500500D01*
X119704297Y-55480815D01*
X119658542Y-55428011D01*
X119648598Y-55358853D01*
X119663948Y-55314501D01*
X119673199Y-55298477D01*
X119709527Y-55235556D01*
X119768542Y-55053928D01*
X119788504Y-54864000D01*
X119768542Y-54674072D01*
X119709527Y-54492444D01*
X119614040Y-54327056D01*
X119486253Y-54185134D01*
X119331752Y-54072882D01*
X119157288Y-53995206D01*
X119157286Y-53995205D01*
X118970487Y-53955500D01*
X118779513Y-53955500D01*
X118592714Y-53995205D01*
X118592712Y-53995206D01*
X118420398Y-54071925D01*
X118418246Y-54072883D01*
X118263745Y-54185135D01*
X118135959Y-54327057D01*
X118040473Y-54492443D01*
X118040470Y-54492450D01*
X117995801Y-54629928D01*
X117981458Y-54674072D01*
X117964513Y-54835297D01*
X117964019Y-54839996D01*
X117937434Y-54904610D01*
X117928380Y-54914714D01*
X117886915Y-54956180D01*
X117825593Y-54989666D01*
X117799233Y-54992500D01*
X115620766Y-54992500D01*
X115553727Y-54972815D01*
X115507972Y-54920011D01*
X115498028Y-54850853D01*
X115527053Y-54787297D01*
X115533085Y-54780819D01*
X120279085Y-50034819D01*
X120340408Y-50001334D01*
X120366766Y-49998500D01*
X120572629Y-49998500D01*
X120639668Y-50018185D01*
G37*
%TD.AperFunction*%
%TA.AperFunction,Conductor*%
G36*
X142959730Y-51013185D02*
G01*
X142984840Y-51034527D01*
X142988747Y-51038866D01*
X143143248Y-51151118D01*
X143317712Y-51228794D01*
X143504513Y-51268500D01*
X143695487Y-51268500D01*
X143812401Y-51243649D01*
X143882288Y-51228794D01*
X144003068Y-51175019D01*
X144072314Y-51165736D01*
X144135591Y-51195364D01*
X144172804Y-51254499D01*
X144177500Y-51288300D01*
X144177500Y-51798654D01*
X144184011Y-51859202D01*
X144184011Y-51859204D01*
X144212855Y-51936535D01*
X144235111Y-51996204D01*
X144322739Y-52113261D01*
X144322740Y-52113261D01*
X144322741Y-52113263D01*
X144326411Y-52116933D01*
X144359896Y-52178256D01*
X144354912Y-52247947D01*
X144324011Y-52330796D01*
X144324011Y-52330797D01*
X144317500Y-52391345D01*
X144317500Y-54288654D01*
X144324011Y-54349202D01*
X144324011Y-54349204D01*
X144368768Y-54469198D01*
X144375111Y-54486204D01*
X144462739Y-54603261D01*
X144579796Y-54690889D01*
X144656564Y-54719522D01*
X144716795Y-54741988D01*
X144716798Y-54741989D01*
X144749268Y-54745480D01*
X144813819Y-54772218D01*
X144853668Y-54829610D01*
X144856161Y-54899435D01*
X144822654Y-54955908D01*
X144823095Y-54956305D01*
X144821112Y-54958506D01*
X144820509Y-54959524D01*
X144818992Y-54960913D01*
X144818748Y-54961132D01*
X144814840Y-54965473D01*
X144755354Y-55002121D01*
X144722691Y-55006500D01*
X144352811Y-55006500D01*
X144285772Y-54986815D01*
X144240017Y-54934011D01*
X144229522Y-54895755D01*
X144228989Y-54890798D01*
X144228988Y-54890795D01*
X144201644Y-54817486D01*
X144177889Y-54753796D01*
X144090261Y-54636739D01*
X143973204Y-54549111D01*
X143836203Y-54498011D01*
X143775654Y-54491500D01*
X143775638Y-54491500D01*
X142428362Y-54491500D01*
X142428345Y-54491500D01*
X142367802Y-54498010D01*
X142367797Y-54498011D01*
X142366003Y-54498681D01*
X142361608Y-54499473D01*
X142360245Y-54499796D01*
X142360227Y-54499723D01*
X142322667Y-54506500D01*
X140668766Y-54506500D01*
X140601727Y-54486815D01*
X140581085Y-54470181D01*
X138490711Y-52379807D01*
X138457226Y-52318484D01*
X138458185Y-52261690D01*
X138490594Y-52133712D01*
X138500931Y-52008960D01*
X138509546Y-51905005D01*
X138509546Y-51904994D01*
X138490594Y-51676291D01*
X138490594Y-51676288D01*
X138434257Y-51453815D01*
X138342069Y-51243649D01*
X138342068Y-51243647D01*
X138303962Y-51185321D01*
X138283774Y-51118431D01*
X138302955Y-51051246D01*
X138355414Y-51005096D01*
X138407771Y-50993500D01*
X142892691Y-50993500D01*
X142959730Y-51013185D01*
G37*
%TD.AperFunction*%
%TA.AperFunction,Conductor*%
G36*
X112486126Y-35071685D02*
G01*
X112531881Y-35124489D01*
X112541825Y-35193647D01*
X112512800Y-35257203D01*
X112466539Y-35290561D01*
X112400719Y-35317824D01*
X112276482Y-35400835D01*
X110964835Y-36712482D01*
X110940770Y-36748500D01*
X110881829Y-36836709D01*
X110881822Y-36836722D01*
X110824650Y-36974749D01*
X110824647Y-36974759D01*
X110795500Y-37121291D01*
X110795500Y-37487375D01*
X110775815Y-37554414D01*
X110723011Y-37600169D01*
X110653853Y-37610113D01*
X110590297Y-37581088D01*
X110583819Y-37575056D01*
X110501870Y-37493107D01*
X110501868Y-37493105D01*
X110297038Y-37344287D01*
X110071450Y-37229344D01*
X109830658Y-37151106D01*
X109580597Y-37111500D01*
X109580592Y-37111500D01*
X109327408Y-37111500D01*
X109327403Y-37111500D01*
X109077341Y-37151106D01*
X108836547Y-37229345D01*
X108610961Y-37344287D01*
X108494098Y-37429193D01*
X108406132Y-37493105D01*
X108406130Y-37493107D01*
X108406129Y-37493107D01*
X108227107Y-37672129D01*
X108227107Y-37672130D01*
X108227105Y-37672132D01*
X108179514Y-37737635D01*
X108078287Y-37876961D01*
X107963345Y-38102547D01*
X107885106Y-38343341D01*
X107845500Y-38593402D01*
X107845500Y-40146597D01*
X107885106Y-40396658D01*
X107963344Y-40637450D01*
X108078287Y-40863038D01*
X108227105Y-41067868D01*
X108406132Y-41246895D01*
X108610962Y-41395713D01*
X108836550Y-41510656D01*
X109077342Y-41588894D01*
X109206176Y-41609299D01*
X109327403Y-41628500D01*
X109327408Y-41628500D01*
X109580597Y-41628500D01*
X109691108Y-41610996D01*
X109830658Y-41588894D01*
X110071450Y-41510656D01*
X110297038Y-41395713D01*
X110501868Y-41246895D01*
X110680895Y-41067868D01*
X110740755Y-40985477D01*
X110796083Y-40942811D01*
X110865697Y-40936831D01*
X110897366Y-40947876D01*
X110940498Y-40969853D01*
X111070898Y-41036296D01*
X111070900Y-41036296D01*
X111070903Y-41036298D01*
X111171888Y-41069110D01*
X111259299Y-41097512D01*
X111454949Y-41128500D01*
X111454954Y-41128500D01*
X111653051Y-41128500D01*
X111848700Y-41097512D01*
X112037097Y-41036298D01*
X112213598Y-40946366D01*
X112373858Y-40829930D01*
X112466319Y-40737469D01*
X112527642Y-40703984D01*
X112597334Y-40708968D01*
X112641681Y-40737469D01*
X112734145Y-40829933D01*
X112744381Y-40837369D01*
X112787049Y-40892696D01*
X112795500Y-40937690D01*
X112795500Y-41060456D01*
X112775815Y-41127495D01*
X112759181Y-41148137D01*
X111810836Y-42096481D01*
X111810835Y-42096482D01*
X111727828Y-42220712D01*
X111727822Y-42220723D01*
X111692335Y-42306399D01*
X111692335Y-42306400D01*
X111670649Y-42358753D01*
X111670647Y-42358759D01*
X111641500Y-42505291D01*
X111641500Y-46717840D01*
X111621815Y-46784879D01*
X111573796Y-46828324D01*
X111541165Y-46844950D01*
X111541155Y-46844957D01*
X111396830Y-46961830D01*
X111279957Y-47106155D01*
X111279952Y-47106162D01*
X111195637Y-47271639D01*
X111147569Y-47451030D01*
X111141500Y-47528151D01*
X111141500Y-49151832D01*
X111141501Y-49151851D01*
X111147569Y-49228969D01*
X111192469Y-49396535D01*
X111195638Y-49408362D01*
X111279953Y-49573839D01*
X111396830Y-49718170D01*
X111541161Y-49835047D01*
X111706638Y-49919362D01*
X111886029Y-49967430D01*
X111963157Y-49973500D01*
X112836842Y-49973499D01*
X112913971Y-49967430D01*
X113093362Y-49919362D01*
X113258839Y-49835047D01*
X113328750Y-49778433D01*
X113393237Y-49751541D01*
X113462026Y-49763783D01*
X113484473Y-49778152D01*
X113550974Y-49831607D01*
X113550977Y-49831609D01*
X113721476Y-49916168D01*
X113906175Y-49962102D01*
X113948903Y-49965000D01*
X114150000Y-49965000D01*
X114150000Y-48826244D01*
X114189213Y-48848884D01*
X114328105Y-48886100D01*
X114471895Y-48886100D01*
X114610787Y-48848884D01*
X114650000Y-48826244D01*
X114650000Y-49965000D01*
X114851097Y-49965000D01*
X114893824Y-49962102D01*
X115078523Y-49916168D01*
X115249021Y-49831610D01*
X115315525Y-49778152D01*
X115380109Y-49751493D01*
X115448853Y-49763983D01*
X115471246Y-49778431D01*
X115541161Y-49835047D01*
X115706638Y-49919362D01*
X115886029Y-49967430D01*
X115963157Y-49973500D01*
X116836842Y-49973499D01*
X116913971Y-49967430D01*
X117093362Y-49919362D01*
X117258839Y-49835047D01*
X117403170Y-49718170D01*
X117520047Y-49573839D01*
X117604362Y-49408362D01*
X117652430Y-49228971D01*
X117658500Y-49151843D01*
X117658499Y-47528158D01*
X117652430Y-47451029D01*
X117604362Y-47271638D01*
X117520047Y-47106161D01*
X117403170Y-46961830D01*
X117258839Y-46844953D01*
X117258836Y-46844951D01*
X117258834Y-46844950D01*
X117226204Y-46828324D01*
X117175409Y-46780349D01*
X117158500Y-46717840D01*
X117158500Y-43435291D01*
X117129352Y-43288759D01*
X117129351Y-43288758D01*
X117129351Y-43288754D01*
X117129349Y-43288749D01*
X117072175Y-43150718D01*
X117071386Y-43149537D01*
X117032959Y-43092026D01*
X116989166Y-43026485D01*
X116989164Y-43026482D01*
X116989163Y-43026481D01*
X115302862Y-41340181D01*
X115269377Y-41278858D01*
X115274361Y-41209166D01*
X115316233Y-41153233D01*
X115381697Y-41128816D01*
X115390543Y-41128500D01*
X116352638Y-41128500D01*
X116352651Y-41128499D01*
X116382788Y-41125258D01*
X116413201Y-41121989D01*
X116413202Y-41121988D01*
X116415634Y-41121727D01*
X116484394Y-41134131D01*
X116516572Y-41157335D01*
X116606132Y-41246895D01*
X116810962Y-41395713D01*
X117036550Y-41510656D01*
X117277342Y-41588894D01*
X117406176Y-41609299D01*
X117527403Y-41628500D01*
X117527408Y-41628500D01*
X117780597Y-41628500D01*
X117891108Y-41610996D01*
X118030658Y-41588894D01*
X118271450Y-41510656D01*
X118497038Y-41395713D01*
X118701868Y-41246895D01*
X118880895Y-41067868D01*
X119029713Y-40863038D01*
X119144656Y-40637450D01*
X119222894Y-40396658D01*
X119244996Y-40257108D01*
X119262500Y-40146597D01*
X119262500Y-38593402D01*
X119240349Y-38453553D01*
X119222894Y-38343342D01*
X119144656Y-38102550D01*
X119029713Y-37876962D01*
X118880895Y-37672132D01*
X118701868Y-37493105D01*
X118497038Y-37344287D01*
X118271450Y-37229344D01*
X118030658Y-37151106D01*
X117780597Y-37111500D01*
X117780592Y-37111500D01*
X117527408Y-37111500D01*
X117527403Y-37111500D01*
X117277341Y-37151106D01*
X117036547Y-37229345D01*
X116810961Y-37344287D01*
X116694098Y-37429193D01*
X116606132Y-37493105D01*
X116606130Y-37493107D01*
X116606128Y-37493108D01*
X116516570Y-37582665D01*
X116455247Y-37616149D01*
X116415635Y-37618272D01*
X116352656Y-37611501D01*
X116352638Y-37611500D01*
X114755362Y-37611500D01*
X114755345Y-37611500D01*
X114694797Y-37618011D01*
X114694795Y-37618011D01*
X114557795Y-37669111D01*
X114440737Y-37756740D01*
X114416086Y-37789670D01*
X114360152Y-37831540D01*
X114290460Y-37836523D01*
X114243936Y-37815675D01*
X114213601Y-37793636D01*
X114213600Y-37793635D01*
X114213598Y-37793634D01*
X114120989Y-37746447D01*
X114037101Y-37703703D01*
X113848700Y-37642487D01*
X113653051Y-37611500D01*
X113653046Y-37611500D01*
X113454954Y-37611500D01*
X113454949Y-37611500D01*
X113259299Y-37642487D01*
X113070898Y-37703703D01*
X112894401Y-37793634D01*
X112820543Y-37847296D01*
X112734142Y-37910070D01*
X112734140Y-37910072D01*
X112734139Y-37910072D01*
X112641681Y-38002531D01*
X112580358Y-38036016D01*
X112510666Y-38031032D01*
X112466319Y-38002531D01*
X112373855Y-37910067D01*
X112363613Y-37902626D01*
X112320948Y-37847296D01*
X112312500Y-37802309D01*
X112312500Y-37561543D01*
X112332185Y-37494504D01*
X112348819Y-37473862D01*
X113037862Y-36784819D01*
X113099185Y-36751334D01*
X113125543Y-36748500D01*
X119299457Y-36748500D01*
X119366496Y-36768185D01*
X119387138Y-36784819D01*
X120780994Y-38178675D01*
X120814479Y-38239998D01*
X120809495Y-38309690D01*
X120786396Y-38347318D01*
X120786601Y-38347478D01*
X120785172Y-38349313D01*
X120784544Y-38350337D01*
X120783454Y-38351520D01*
X120783452Y-38351522D01*
X120657930Y-38543649D01*
X120565743Y-38753814D01*
X120509405Y-38976291D01*
X120490454Y-39204994D01*
X120490454Y-39205005D01*
X120509405Y-39433708D01*
X120565743Y-39656185D01*
X120657930Y-39866350D01*
X120783450Y-40058474D01*
X120783453Y-40058477D01*
X120938886Y-40227322D01*
X121051948Y-40315321D01*
X121119987Y-40368279D01*
X121119996Y-40368285D01*
X121124601Y-40370777D01*
X121174192Y-40419995D01*
X121189302Y-40488212D01*
X121165131Y-40553768D01*
X121128558Y-40585460D01*
X121128947Y-40586055D01*
X121124646Y-40588864D01*
X121098089Y-40609534D01*
X121098089Y-40609536D01*
X121712949Y-41224396D01*
X121669213Y-41236116D01*
X121544687Y-41308011D01*
X121443011Y-41409687D01*
X121371116Y-41534213D01*
X121359396Y-41577949D01*
X120745935Y-40964488D01*
X120665431Y-41087710D01*
X120665429Y-41087714D01*
X120573809Y-41296584D01*
X120517817Y-41517695D01*
X120498983Y-41744994D01*
X120498983Y-41745005D01*
X120517817Y-41972304D01*
X120573809Y-42193415D01*
X120665431Y-42402290D01*
X120745934Y-42525510D01*
X121359396Y-41912049D01*
X121371116Y-41955787D01*
X121443011Y-42080313D01*
X121544687Y-42181989D01*
X121669213Y-42253884D01*
X121712949Y-42265603D01*
X121098088Y-42880462D01*
X121098089Y-42880463D01*
X121124651Y-42901137D01*
X121128949Y-42903946D01*
X121128362Y-42904844D01*
X121174192Y-42950330D01*
X121189302Y-43018546D01*
X121165132Y-43084102D01*
X121124611Y-43119217D01*
X121119997Y-43121714D01*
X121119987Y-43121720D01*
X120938888Y-43262676D01*
X120938886Y-43262677D01*
X120938886Y-43262678D01*
X120920148Y-43283032D01*
X120783450Y-43431525D01*
X120657930Y-43623649D01*
X120565743Y-43833814D01*
X120509405Y-44056291D01*
X120490454Y-44284994D01*
X120490454Y-44285005D01*
X120509405Y-44513708D01*
X120565743Y-44736185D01*
X120657930Y-44946350D01*
X120783450Y-45138474D01*
X120794794Y-45150797D01*
X120938886Y-45307322D01*
X121119990Y-45448281D01*
X121119993Y-45448283D01*
X121124291Y-45451091D01*
X121122941Y-45453156D01*
X121165267Y-45495170D01*
X121180372Y-45563387D01*
X121156198Y-45628942D01*
X121123323Y-45657428D01*
X121124291Y-45658909D01*
X121119993Y-45661716D01*
X120938887Y-45802677D01*
X120783450Y-45971525D01*
X120657930Y-46163649D01*
X120565743Y-46373814D01*
X120509405Y-46596291D01*
X120490454Y-46824994D01*
X120490454Y-46825005D01*
X120509405Y-47053708D01*
X120565743Y-47276185D01*
X120657930Y-47486350D01*
X120783450Y-47678474D01*
X120783453Y-47678477D01*
X120938886Y-47847322D01*
X121119990Y-47988281D01*
X121119993Y-47988283D01*
X121124291Y-47991091D01*
X121122941Y-47993156D01*
X121165267Y-48035170D01*
X121180372Y-48103387D01*
X121156198Y-48168942D01*
X121123323Y-48197428D01*
X121124291Y-48198909D01*
X121119993Y-48201716D01*
X120938887Y-48342677D01*
X120938886Y-48342678D01*
X120795892Y-48498011D01*
X120783453Y-48511523D01*
X120676438Y-48675322D01*
X120623291Y-48720678D01*
X120572629Y-48731500D01*
X119990601Y-48731500D01*
X119868222Y-48755843D01*
X119868214Y-48755845D01*
X119752927Y-48803598D01*
X119752918Y-48803603D01*
X119649167Y-48872928D01*
X119649163Y-48872931D01*
X114052898Y-54469198D01*
X113991575Y-54502683D01*
X113965217Y-54505517D01*
X112157212Y-54505517D01*
X112090173Y-54485832D01*
X112044418Y-54433028D01*
X112034474Y-54363870D01*
X112049825Y-54319517D01*
X112055547Y-54309606D01*
X112123528Y-54191860D01*
X112182543Y-54010232D01*
X112202505Y-53820304D01*
X112182543Y-53630376D01*
X112123528Y-53448748D01*
X112028041Y-53283360D01*
X111939901Y-53185471D01*
X111909672Y-53122481D01*
X111918297Y-53053145D01*
X111963039Y-52999480D01*
X112029691Y-52978522D01*
X112032052Y-52978500D01*
X112109487Y-52978500D01*
X112296288Y-52938794D01*
X112470752Y-52861118D01*
X112625253Y-52748866D01*
X112753040Y-52606944D01*
X112848527Y-52441556D01*
X112907542Y-52259928D01*
X112927504Y-52070000D01*
X112907542Y-51880072D01*
X112848527Y-51698444D01*
X112753040Y-51533056D01*
X112625253Y-51391134D01*
X112470752Y-51278882D01*
X112296288Y-51201206D01*
X112296286Y-51201205D01*
X112109487Y-51161500D01*
X111918513Y-51161500D01*
X111731714Y-51201205D01*
X111724839Y-51204266D01*
X111580567Y-51268500D01*
X111557246Y-51278883D01*
X111402745Y-51391135D01*
X111274959Y-51533057D01*
X111179473Y-51698442D01*
X111179473Y-51698443D01*
X111161631Y-51753352D01*
X111131382Y-51802711D01*
X110457071Y-52477022D01*
X110395748Y-52510507D01*
X110326056Y-52505523D01*
X110270123Y-52463651D01*
X110245706Y-52398187D01*
X110246031Y-52376749D01*
X110249831Y-52339562D01*
X110249830Y-51713473D01*
X110239218Y-51609591D01*
X110183446Y-51441279D01*
X110090361Y-51290365D01*
X109964983Y-51164987D01*
X109964982Y-51164986D01*
X109907402Y-51129470D01*
X109860678Y-51077522D01*
X109848500Y-51023932D01*
X109848500Y-48951362D01*
X109848499Y-48951345D01*
X109843269Y-48902705D01*
X109841989Y-48890799D01*
X109840236Y-48886100D01*
X109802759Y-48785621D01*
X109790889Y-48753796D01*
X109703261Y-48636739D01*
X109586204Y-48549111D01*
X109449203Y-48498011D01*
X109388654Y-48491500D01*
X109388638Y-48491500D01*
X108191362Y-48491500D01*
X108191345Y-48491500D01*
X108130797Y-48498011D01*
X108130795Y-48498011D01*
X107985488Y-48552210D01*
X107984405Y-48549308D01*
X107931126Y-48560886D01*
X107895209Y-48550340D01*
X107894512Y-48552210D01*
X107886204Y-48549111D01*
X107858642Y-48538830D01*
X107749203Y-48498011D01*
X107688654Y-48491500D01*
X107688638Y-48491500D01*
X106491362Y-48491500D01*
X106491345Y-48491500D01*
X106430797Y-48498011D01*
X106430795Y-48498011D01*
X106285488Y-48552210D01*
X106284405Y-48549308D01*
X106231126Y-48560886D01*
X106195209Y-48550340D01*
X106194512Y-48552210D01*
X106186204Y-48549111D01*
X106158642Y-48538830D01*
X106049203Y-48498011D01*
X105988654Y-48491500D01*
X105988638Y-48491500D01*
X104791362Y-48491500D01*
X104791345Y-48491500D01*
X104730797Y-48498011D01*
X104730795Y-48498011D01*
X104593795Y-48549111D01*
X104476739Y-48636739D01*
X104389111Y-48753795D01*
X104338011Y-48890795D01*
X104338011Y-48890797D01*
X104331500Y-48951345D01*
X104331500Y-51031104D01*
X104311815Y-51098143D01*
X104272599Y-51136642D01*
X104232348Y-51161469D01*
X104106969Y-51286849D01*
X104013886Y-51437759D01*
X104013884Y-51437764D01*
X103958113Y-51606072D01*
X103947500Y-51709947D01*
X103947500Y-52336037D01*
X103947501Y-52336053D01*
X103958113Y-52439927D01*
X104013884Y-52608235D01*
X104013886Y-52608240D01*
X104096396Y-52742009D01*
X104114836Y-52809402D01*
X104093913Y-52876065D01*
X104040271Y-52920835D01*
X103970941Y-52929496D01*
X103940426Y-52920387D01*
X103787288Y-52852206D01*
X103787286Y-52852205D01*
X103600487Y-52812500D01*
X103409513Y-52812500D01*
X103222714Y-52852205D01*
X103150111Y-52884530D01*
X103069577Y-52920386D01*
X103048246Y-52929883D01*
X102893743Y-53042136D01*
X102893739Y-53042140D01*
X102885910Y-53050835D01*
X102826421Y-53087479D01*
X102756564Y-53086144D01*
X102706086Y-53055537D01*
X101440355Y-51789806D01*
X101406870Y-51728483D01*
X101411854Y-51658791D01*
X101435882Y-51619157D01*
X101514211Y-51532165D01*
X101527484Y-51509175D01*
X101535149Y-51495900D01*
X101585716Y-51447684D01*
X101642536Y-51433900D01*
X101753422Y-51433900D01*
X101940223Y-51394194D01*
X102114687Y-51316518D01*
X102269188Y-51204266D01*
X102396975Y-51062344D01*
X102460248Y-50952751D01*
X102510815Y-50904537D01*
X102567635Y-50890752D01*
X102593062Y-50890752D01*
X102779863Y-50851046D01*
X102954327Y-50773370D01*
X103108828Y-50661118D01*
X103236615Y-50519196D01*
X103332102Y-50353808D01*
X103391117Y-50172180D01*
X103411079Y-49982252D01*
X103391117Y-49792324D01*
X103332102Y-49610696D01*
X103236615Y-49445308D01*
X103108828Y-49303386D01*
X102954327Y-49191134D01*
X102779863Y-49113458D01*
X102779861Y-49113457D01*
X102593062Y-49073752D01*
X102536341Y-49073752D01*
X102469302Y-49054067D01*
X102448664Y-49037437D01*
X102313934Y-48902707D01*
X102313933Y-48902706D01*
X102313932Y-48902705D01*
X102210182Y-48833381D01*
X102210173Y-48833376D01*
X102094886Y-48785623D01*
X102094878Y-48785621D01*
X101972499Y-48761278D01*
X101972495Y-48761278D01*
X99501986Y-48761278D01*
X99434947Y-48741593D01*
X99389192Y-48688789D01*
X99378696Y-48624024D01*
X99379679Y-48614868D01*
X99382500Y-48588638D01*
X99382500Y-48211362D01*
X99382500Y-48211361D01*
X99382499Y-48211348D01*
X99379383Y-48182372D01*
X99377328Y-48163253D01*
X99377328Y-48136743D01*
X99382499Y-48088651D01*
X99382500Y-48088637D01*
X99382500Y-47711362D01*
X99382499Y-47711348D01*
X99377328Y-47663257D01*
X99377329Y-47636727D01*
X99377707Y-47633215D01*
X99378114Y-47629442D01*
X99404865Y-47564896D01*
X99462265Y-47525059D01*
X99501401Y-47518721D01*
X102037325Y-47518721D01*
X102037326Y-47518720D01*
X102159715Y-47494376D01*
X102275005Y-47446621D01*
X102378763Y-47377292D01*
X102513681Y-47242373D01*
X102575000Y-47208891D01*
X102588404Y-47206736D01*
X102593054Y-47206247D01*
X102593062Y-47206247D01*
X102779863Y-47166541D01*
X102954327Y-47088865D01*
X103108828Y-46976613D01*
X103236615Y-46834691D01*
X103332102Y-46669303D01*
X103391117Y-46487675D01*
X103411079Y-46297747D01*
X103391117Y-46107819D01*
X103332102Y-45926191D01*
X103236615Y-45760803D01*
X103108828Y-45618881D01*
X102954327Y-45506629D01*
X102779863Y-45428953D01*
X102779861Y-45428952D01*
X102593062Y-45389247D01*
X102567635Y-45389247D01*
X102500596Y-45369562D01*
X102460248Y-45327247D01*
X102448744Y-45307322D01*
X102396975Y-45217655D01*
X102269188Y-45075733D01*
X102114687Y-44963481D01*
X101940223Y-44885805D01*
X101940221Y-44885804D01*
X101753422Y-44846099D01*
X101642536Y-44846099D01*
X101575497Y-44826414D01*
X101535149Y-44784099D01*
X101520590Y-44758883D01*
X101514211Y-44747834D01*
X101500593Y-44732709D01*
X101386425Y-44605913D01*
X101356755Y-44584356D01*
X101231923Y-44493660D01*
X101057459Y-44415984D01*
X101057457Y-44415983D01*
X100870658Y-44376278D01*
X100679684Y-44376278D01*
X100679682Y-44376278D01*
X100679668Y-44376281D01*
X100679657Y-44376280D01*
X100673216Y-44376957D01*
X100673092Y-44375778D01*
X100610001Y-44370961D01*
X100561743Y-44337961D01*
X100514061Y-44285005D01*
X100461253Y-44226355D01*
X100358011Y-44151345D01*
X104331500Y-44151345D01*
X104331500Y-46248654D01*
X104338011Y-46309202D01*
X104338011Y-46309204D01*
X104378816Y-46418603D01*
X104389111Y-46446204D01*
X104476739Y-46563261D01*
X104593796Y-46650889D01*
X104708949Y-46693839D01*
X104730793Y-46701987D01*
X104730799Y-46701989D01*
X104758050Y-46704918D01*
X104791345Y-46708499D01*
X104791362Y-46708500D01*
X105988638Y-46708500D01*
X105988654Y-46708499D01*
X106015692Y-46705591D01*
X106049201Y-46701989D01*
X106049205Y-46701987D01*
X106049207Y-46701987D01*
X106194514Y-46647790D01*
X106195599Y-46650700D01*
X106248805Y-46639108D01*
X106284784Y-46649672D01*
X106285486Y-46647790D01*
X106430792Y-46701987D01*
X106430795Y-46701987D01*
X106430799Y-46701989D01*
X106460270Y-46705157D01*
X106491345Y-46708499D01*
X106491362Y-46708500D01*
X107688638Y-46708500D01*
X107688654Y-46708499D01*
X107715692Y-46705591D01*
X107749201Y-46701989D01*
X107749205Y-46701987D01*
X107749207Y-46701987D01*
X107894514Y-46647790D01*
X107895599Y-46650700D01*
X107948805Y-46639108D01*
X107984784Y-46649672D01*
X107985486Y-46647790D01*
X108130792Y-46701987D01*
X108130795Y-46701987D01*
X108130799Y-46701989D01*
X108160270Y-46705157D01*
X108191345Y-46708499D01*
X108191362Y-46708500D01*
X109388638Y-46708500D01*
X109388654Y-46708499D01*
X109415692Y-46705591D01*
X109449201Y-46701989D01*
X109449207Y-46701987D01*
X109463768Y-46696555D01*
X109586204Y-46650889D01*
X109703261Y-46563261D01*
X109790889Y-46446204D01*
X109841989Y-46309201D01*
X109847710Y-46255989D01*
X109848499Y-46248654D01*
X109848500Y-46248637D01*
X109848500Y-44151362D01*
X109848499Y-44151345D01*
X109844494Y-44114103D01*
X109841989Y-44090799D01*
X109839635Y-44084489D01*
X109800935Y-43980730D01*
X109790889Y-43953796D01*
X109703261Y-43836739D01*
X109586204Y-43749111D01*
X109555439Y-43737636D01*
X109449203Y-43698011D01*
X109388654Y-43691500D01*
X109388638Y-43691500D01*
X108638766Y-43691500D01*
X108571727Y-43671815D01*
X108551085Y-43655181D01*
X108166620Y-43270716D01*
X108133135Y-43209393D01*
X108130983Y-43196015D01*
X108113542Y-43030072D01*
X108054527Y-42848444D01*
X107959040Y-42683056D01*
X107831253Y-42541134D01*
X107676752Y-42428882D01*
X107502288Y-42351206D01*
X107502286Y-42351205D01*
X107315487Y-42311500D01*
X107124513Y-42311500D01*
X106937714Y-42351205D01*
X106763246Y-42428883D01*
X106608745Y-42541135D01*
X106604840Y-42545473D01*
X106545354Y-42582121D01*
X106512691Y-42586500D01*
X106307601Y-42586500D01*
X106185222Y-42610843D01*
X106185214Y-42610845D01*
X106069927Y-42658598D01*
X106069918Y-42658603D01*
X105966167Y-42727928D01*
X105966163Y-42727931D01*
X105038915Y-43655181D01*
X104977592Y-43688666D01*
X104951234Y-43691500D01*
X104791345Y-43691500D01*
X104730797Y-43698011D01*
X104730795Y-43698011D01*
X104593795Y-43749111D01*
X104476739Y-43836739D01*
X104389111Y-43953795D01*
X104338011Y-44090795D01*
X104338011Y-44090797D01*
X104331500Y-44151345D01*
X100358011Y-44151345D01*
X100306752Y-44114103D01*
X100132288Y-44036427D01*
X100132286Y-44036426D01*
X99945487Y-43996721D01*
X99754513Y-43996721D01*
X99567714Y-44036426D01*
X99519943Y-44057695D01*
X99459763Y-44084489D01*
X99393246Y-44114104D01*
X99238745Y-44226356D01*
X99110959Y-44368278D01*
X99015473Y-44533664D01*
X99015471Y-44533668D01*
X98972533Y-44665819D01*
X98933095Y-44723494D01*
X98868736Y-44750692D01*
X98854602Y-44751500D01*
X97575345Y-44751500D01*
X97514797Y-44758011D01*
X97514795Y-44758011D01*
X97377795Y-44809111D01*
X97260739Y-44896739D01*
X97173111Y-45013795D01*
X97122011Y-45150795D01*
X97122011Y-45150797D01*
X97115500Y-45211345D01*
X97115500Y-45211362D01*
X97115500Y-45588638D01*
X97118751Y-45618882D01*
X97120672Y-45636745D01*
X97120672Y-45663255D01*
X97115500Y-45711361D01*
X97115500Y-46088638D01*
X97120672Y-46136745D01*
X97120672Y-46163255D01*
X97115500Y-46211361D01*
X97115500Y-46588638D01*
X97120672Y-46636745D01*
X97120672Y-46663253D01*
X97120022Y-46669303D01*
X97115500Y-46711361D01*
X97115500Y-47088638D01*
X97120672Y-47136745D01*
X97120672Y-47163255D01*
X97115500Y-47211361D01*
X97115500Y-47588638D01*
X97120672Y-47636745D01*
X97120672Y-47663255D01*
X97115500Y-47711361D01*
X97115500Y-48088638D01*
X97120672Y-48136745D01*
X97120672Y-48163253D01*
X97117963Y-48188448D01*
X97115500Y-48211361D01*
X97115500Y-48588638D01*
X97120672Y-48636745D01*
X97120672Y-48663255D01*
X97115500Y-48711361D01*
X97115500Y-49088638D01*
X97120672Y-49136745D01*
X97120672Y-49163253D01*
X97115500Y-49211362D01*
X97115500Y-49588638D01*
X97116045Y-49593712D01*
X97120672Y-49636745D01*
X97120672Y-49663255D01*
X97115500Y-49711361D01*
X97115500Y-50088638D01*
X97120672Y-50136745D01*
X97120672Y-50163255D01*
X97115500Y-50211361D01*
X97115500Y-50588638D01*
X97120672Y-50636745D01*
X97120672Y-50663255D01*
X97115500Y-50711361D01*
X97115500Y-51088654D01*
X97122011Y-51149202D01*
X97122011Y-51149204D01*
X97166508Y-51268500D01*
X97173111Y-51286204D01*
X97260739Y-51403261D01*
X97377796Y-51490889D01*
X97514799Y-51541989D01*
X97542050Y-51544918D01*
X97575345Y-51548499D01*
X97575362Y-51548500D01*
X98861101Y-51548500D01*
X98928140Y-51568185D01*
X98973895Y-51620989D01*
X98979032Y-51634182D01*
X99015470Y-51746327D01*
X99015473Y-51746334D01*
X99110960Y-51911722D01*
X99133302Y-51936535D01*
X99238746Y-52053643D01*
X99243576Y-52057992D01*
X99241791Y-52059973D01*
X99277236Y-52105942D01*
X99283212Y-52175556D01*
X99250604Y-52237350D01*
X99189764Y-52271705D01*
X99135902Y-52272216D01*
X99085487Y-52261500D01*
X98894513Y-52261500D01*
X98707714Y-52301205D01*
X98533246Y-52378883D01*
X98378745Y-52491135D01*
X98250959Y-52633057D01*
X98155473Y-52798443D01*
X98155470Y-52798450D01*
X98096459Y-52980068D01*
X98096458Y-52980072D01*
X98076496Y-53170000D01*
X98096458Y-53359928D01*
X98096459Y-53359931D01*
X98155470Y-53541549D01*
X98155473Y-53541556D01*
X98250960Y-53706944D01*
X98378747Y-53848866D01*
X98533248Y-53961118D01*
X98707712Y-54038794D01*
X98894513Y-54078500D01*
X99085487Y-54078500D01*
X99272288Y-54038794D01*
X99446752Y-53961118D01*
X99601253Y-53848866D01*
X99605160Y-53844527D01*
X99664646Y-53807879D01*
X99697309Y-53803500D01*
X100156234Y-53803500D01*
X100223273Y-53823185D01*
X100243915Y-53839819D01*
X100793378Y-54389282D01*
X100826863Y-54450605D01*
X100829018Y-54464001D01*
X100833084Y-54502683D01*
X100846458Y-54629928D01*
X100846459Y-54629931D01*
X100905470Y-54811549D01*
X100908114Y-54817486D01*
X100905508Y-54818646D01*
X100919025Y-54874440D01*
X100896151Y-54940459D01*
X100841216Y-54983632D01*
X100795167Y-54992500D01*
X98314766Y-54992500D01*
X98247727Y-54972815D01*
X98227085Y-54956181D01*
X97064387Y-53793483D01*
X97030902Y-53732160D01*
X97028779Y-53692548D01*
X97033500Y-53648638D01*
X97033500Y-51751362D01*
X97033499Y-51751345D01*
X97029427Y-51713479D01*
X97026989Y-51690799D01*
X96975889Y-51553796D01*
X96888261Y-51436739D01*
X96771204Y-51349111D01*
X96634203Y-51298011D01*
X96573654Y-51291500D01*
X96573638Y-51291500D01*
X94476362Y-51291500D01*
X94476345Y-51291500D01*
X94415797Y-51298011D01*
X94415795Y-51298011D01*
X94278795Y-51349111D01*
X94161739Y-51436739D01*
X94074111Y-51553795D01*
X94023011Y-51690795D01*
X94023011Y-51690797D01*
X94016500Y-51751345D01*
X94016500Y-53344500D01*
X93996815Y-53411539D01*
X93944011Y-53457294D01*
X93892500Y-53468500D01*
X92155601Y-53468500D01*
X92033222Y-53492843D01*
X92033215Y-53492845D01*
X92011895Y-53501676D01*
X92011894Y-53501675D01*
X91917932Y-53540595D01*
X91917919Y-53540602D01*
X91814168Y-53609926D01*
X91743829Y-53680266D01*
X91679169Y-53744927D01*
X91651682Y-53772414D01*
X91590358Y-53805899D01*
X91520667Y-53800915D01*
X91464733Y-53759044D01*
X91440316Y-53693579D01*
X91440000Y-53684733D01*
X91440000Y-42651345D01*
X94016500Y-42651345D01*
X94016500Y-44548654D01*
X94023011Y-44609202D01*
X94023011Y-44609204D01*
X94069340Y-44733412D01*
X94074111Y-44746204D01*
X94161739Y-44863261D01*
X94278796Y-44950889D01*
X94415799Y-45001989D01*
X94443050Y-45004918D01*
X94476345Y-45008499D01*
X94476362Y-45008500D01*
X96573638Y-45008500D01*
X96573654Y-45008499D01*
X96600692Y-45005591D01*
X96634201Y-45001989D01*
X96771204Y-44950889D01*
X96888261Y-44863261D01*
X96975889Y-44746204D01*
X97026989Y-44609201D01*
X97030591Y-44575692D01*
X97033499Y-44548654D01*
X97033500Y-44548637D01*
X97033500Y-42651362D01*
X97033499Y-42651345D01*
X97027064Y-42591500D01*
X97026989Y-42590799D01*
X97026914Y-42590598D01*
X96995096Y-42505291D01*
X96975889Y-42453796D01*
X96888261Y-42336739D01*
X96771204Y-42249111D01*
X96634203Y-42198011D01*
X96573654Y-42191500D01*
X96573638Y-42191500D01*
X94476362Y-42191500D01*
X94476345Y-42191500D01*
X94415797Y-42198011D01*
X94415795Y-42198011D01*
X94278795Y-42249111D01*
X94161739Y-42336739D01*
X94074111Y-42453795D01*
X94023011Y-42590795D01*
X94023011Y-42590797D01*
X94016500Y-42651345D01*
X91440000Y-42651345D01*
X91440000Y-38100000D01*
X91731947Y-38100000D01*
X91752033Y-38432076D01*
X91812005Y-38759329D01*
X91910972Y-39076928D01*
X91910978Y-39076943D01*
X92047516Y-39380319D01*
X92047518Y-39380321D01*
X92219630Y-39665031D01*
X92219635Y-39665039D01*
X92372835Y-39860583D01*
X93192720Y-39040697D01*
X93266561Y-39142330D01*
X93444643Y-39320412D01*
X93546273Y-39394251D01*
X92726388Y-40214136D01*
X92726388Y-40214137D01*
X92921933Y-40367337D01*
X92921941Y-40367342D01*
X93206651Y-40539454D01*
X93206653Y-40539456D01*
X93510029Y-40675994D01*
X93510044Y-40676000D01*
X93827643Y-40774967D01*
X94154896Y-40834939D01*
X94486973Y-40855025D01*
X94819049Y-40834939D01*
X95146302Y-40774967D01*
X95463901Y-40676000D01*
X95463916Y-40675994D01*
X95767292Y-40539456D01*
X95767294Y-40539454D01*
X96052003Y-40367343D01*
X96247556Y-40214137D01*
X96247556Y-40214136D01*
X95427671Y-39394251D01*
X95529303Y-39320412D01*
X95707385Y-39142330D01*
X95781224Y-39040698D01*
X96601109Y-39860583D01*
X96601110Y-39860583D01*
X96754316Y-39665030D01*
X96926427Y-39380321D01*
X96926429Y-39380319D01*
X97045392Y-39115994D01*
X97404859Y-39115994D01*
X97404859Y-39116005D01*
X97425385Y-39363729D01*
X97425387Y-39363738D01*
X97486412Y-39604717D01*
X97586266Y-39832364D01*
X97686564Y-39985882D01*
X98308958Y-39363488D01*
X98333978Y-39423890D01*
X98405112Y-39530351D01*
X98495649Y-39620888D01*
X98602110Y-39692022D01*
X98662511Y-39717041D01*
X98039942Y-40339609D01*
X98086768Y-40376055D01*
X98086770Y-40376056D01*
X98305385Y-40494364D01*
X98305396Y-40494369D01*
X98540506Y-40575083D01*
X98785707Y-40616000D01*
X99034293Y-40616000D01*
X99279493Y-40575083D01*
X99514603Y-40494369D01*
X99514614Y-40494364D01*
X99733228Y-40376057D01*
X99733231Y-40376055D01*
X99780056Y-40339609D01*
X99157488Y-39717041D01*
X99217890Y-39692022D01*
X99324351Y-39620888D01*
X99414888Y-39530351D01*
X99486022Y-39423890D01*
X99511041Y-39363489D01*
X100133434Y-39985882D01*
X100233731Y-39832369D01*
X100333587Y-39604717D01*
X100394612Y-39363738D01*
X100394614Y-39363729D01*
X100415141Y-39116005D01*
X100415141Y-39116000D01*
X103896835Y-39116000D01*
X103915465Y-39352714D01*
X103970895Y-39583595D01*
X103970895Y-39583597D01*
X104061757Y-39802959D01*
X104061759Y-39802962D01*
X104185820Y-40005410D01*
X104185821Y-40005413D01*
X104185824Y-40005416D01*
X104340031Y-40185969D01*
X104479797Y-40305340D01*
X104520586Y-40340178D01*
X104520588Y-40340178D01*
X104573516Y-40372613D01*
X104723037Y-40464240D01*
X104723040Y-40464242D01*
X104942403Y-40555104D01*
X104942404Y-40555104D01*
X104942406Y-40555105D01*
X105173289Y-40610535D01*
X105410000Y-40629165D01*
X105646711Y-40610535D01*
X105877594Y-40555105D01*
X105877596Y-40555104D01*
X105877597Y-40555104D01*
X106096959Y-40464242D01*
X106096960Y-40464241D01*
X106096963Y-40464240D01*
X106299416Y-40340176D01*
X106479969Y-40185969D01*
X106634176Y-40005416D01*
X106758240Y-39802963D01*
X106773551Y-39766000D01*
X106849104Y-39583597D01*
X106849104Y-39583596D01*
X106849105Y-39583594D01*
X106904535Y-39352711D01*
X106923165Y-39116000D01*
X106904535Y-38879289D01*
X106849105Y-38648406D01*
X106849104Y-38648403D01*
X106849104Y-38648402D01*
X106758242Y-38429040D01*
X106758240Y-38429037D01*
X106710739Y-38351523D01*
X106634178Y-38226588D01*
X106634178Y-38226586D01*
X106593258Y-38178675D01*
X106479969Y-38046031D01*
X106360596Y-37944076D01*
X106299413Y-37891821D01*
X106299410Y-37891820D01*
X106096962Y-37767759D01*
X106096959Y-37767757D01*
X105877596Y-37676895D01*
X105646714Y-37621465D01*
X105410000Y-37602835D01*
X105173285Y-37621465D01*
X104942404Y-37676895D01*
X104942402Y-37676895D01*
X104723040Y-37767757D01*
X104723037Y-37767759D01*
X104520589Y-37891820D01*
X104520586Y-37891821D01*
X104340031Y-38046031D01*
X104185821Y-38226586D01*
X104185820Y-38226589D01*
X104061759Y-38429037D01*
X104061757Y-38429040D01*
X103970895Y-38648402D01*
X103970895Y-38648404D01*
X103915465Y-38879285D01*
X103896835Y-39116000D01*
X100415141Y-39116000D01*
X100415141Y-39115994D01*
X100394614Y-38868270D01*
X100394612Y-38868261D01*
X100333587Y-38627282D01*
X100233731Y-38399630D01*
X100133434Y-38246116D01*
X99511041Y-38868510D01*
X99486022Y-38808110D01*
X99414888Y-38701649D01*
X99324351Y-38611112D01*
X99217890Y-38539978D01*
X99157489Y-38514958D01*
X99780057Y-37892390D01*
X99780056Y-37892389D01*
X99733229Y-37855943D01*
X99514614Y-37737635D01*
X99514603Y-37737630D01*
X99279493Y-37656916D01*
X99034293Y-37616000D01*
X98785707Y-37616000D01*
X98540506Y-37656916D01*
X98305396Y-37737630D01*
X98305390Y-37737632D01*
X98086761Y-37855949D01*
X98039942Y-37892388D01*
X98039942Y-37892390D01*
X98662511Y-38514958D01*
X98602110Y-38539978D01*
X98495649Y-38611112D01*
X98405112Y-38701649D01*
X98333978Y-38808110D01*
X98308958Y-38868510D01*
X97686564Y-38246116D01*
X97586267Y-38399632D01*
X97486412Y-38627282D01*
X97425387Y-38868261D01*
X97425385Y-38868270D01*
X97404859Y-39115994D01*
X97045392Y-39115994D01*
X97062967Y-39076943D01*
X97062973Y-39076928D01*
X97161940Y-38759329D01*
X97221912Y-38432076D01*
X97241998Y-38100000D01*
X97221912Y-37767923D01*
X97161940Y-37440670D01*
X97062973Y-37123071D01*
X97062967Y-37123056D01*
X96926429Y-36819680D01*
X96926427Y-36819678D01*
X96754315Y-36534968D01*
X96754310Y-36534960D01*
X96601109Y-36339415D01*
X95781223Y-37159300D01*
X95707385Y-37057670D01*
X95529303Y-36879588D01*
X95427671Y-36805748D01*
X96247556Y-35985862D01*
X96247556Y-35985861D01*
X96052012Y-35832662D01*
X96052004Y-35832657D01*
X95767294Y-35660545D01*
X95767292Y-35660543D01*
X95463916Y-35524005D01*
X95463901Y-35523999D01*
X95146302Y-35425032D01*
X94819049Y-35365060D01*
X94486973Y-35344974D01*
X94154896Y-35365060D01*
X93827643Y-35425032D01*
X93510044Y-35523999D01*
X93510029Y-35524005D01*
X93206653Y-35660543D01*
X93206651Y-35660545D01*
X92921941Y-35832657D01*
X92726388Y-35985862D01*
X93546274Y-36805748D01*
X93444643Y-36879588D01*
X93266561Y-37057670D01*
X93192721Y-37159301D01*
X92372835Y-36339415D01*
X92219630Y-36534968D01*
X92047518Y-36819678D01*
X92047516Y-36819680D01*
X91910978Y-37123056D01*
X91910972Y-37123071D01*
X91812005Y-37440670D01*
X91752033Y-37767923D01*
X91731947Y-38100000D01*
X91440000Y-38100000D01*
X91440000Y-36577208D01*
X91440024Y-36574777D01*
X91440063Y-36572787D01*
X91442181Y-36464768D01*
X91443683Y-36447819D01*
X91478290Y-36229316D01*
X91482832Y-36210399D01*
X91550816Y-36001163D01*
X91558255Y-35983203D01*
X91658139Y-35787171D01*
X91668305Y-35770583D01*
X91797618Y-35592598D01*
X91810243Y-35577816D01*
X91965816Y-35422243D01*
X91980598Y-35409618D01*
X92158584Y-35280303D01*
X92175173Y-35270138D01*
X92371203Y-35170255D01*
X92389163Y-35162816D01*
X92598401Y-35094831D01*
X92617316Y-35090290D01*
X92835819Y-35055683D01*
X92852768Y-35054181D01*
X92960787Y-35052063D01*
X92962777Y-35052024D01*
X92965208Y-35052000D01*
X112419087Y-35052000D01*
X112486126Y-35071685D01*
G37*
%TD.AperFunction*%
%TA.AperFunction,Conductor*%
G36*
X123478190Y-51859094D02*
G01*
X125890181Y-54271085D01*
X125923666Y-54332408D01*
X125926500Y-54358766D01*
X125926500Y-54756234D01*
X125906815Y-54823273D01*
X125854011Y-54869028D01*
X125784853Y-54878972D01*
X125721297Y-54849947D01*
X125714819Y-54843915D01*
X123250711Y-52379807D01*
X123217226Y-52318484D01*
X123218185Y-52261690D01*
X123250594Y-52133712D01*
X123266933Y-51936535D01*
X123292086Y-51871350D01*
X123348488Y-51830112D01*
X123418231Y-51825914D01*
X123478190Y-51859094D01*
G37*
%TD.AperFunction*%
%TA.AperFunction,Conductor*%
G36*
X135775748Y-46203185D02*
G01*
X135821503Y-46255989D01*
X135831447Y-46325147D01*
X135822264Y-46357312D01*
X135813810Y-46376584D01*
X135757817Y-46597695D01*
X135738983Y-46824994D01*
X135738983Y-46825005D01*
X135757817Y-47052304D01*
X135813809Y-47273415D01*
X135905431Y-47482290D01*
X135985934Y-47605510D01*
X136599396Y-46992048D01*
X136611116Y-47035787D01*
X136683011Y-47160313D01*
X136784687Y-47261989D01*
X136909213Y-47333884D01*
X136952947Y-47345602D01*
X136338088Y-47960462D01*
X136338089Y-47960463D01*
X136364651Y-47981137D01*
X136368949Y-47983946D01*
X136368362Y-47984844D01*
X136414192Y-48030330D01*
X136429302Y-48098546D01*
X136405132Y-48164102D01*
X136364611Y-48199217D01*
X136359997Y-48201714D01*
X136359987Y-48201720D01*
X136178888Y-48342676D01*
X136023450Y-48511525D01*
X135897930Y-48703649D01*
X135805743Y-48913814D01*
X135749405Y-49136291D01*
X135730454Y-49364994D01*
X135730454Y-49365005D01*
X135749405Y-49593708D01*
X135805743Y-49816185D01*
X135897930Y-50026350D01*
X136023450Y-50218474D01*
X136023452Y-50218476D01*
X136023453Y-50218477D01*
X136178886Y-50387322D01*
X136348315Y-50519194D01*
X136359993Y-50528283D01*
X136364291Y-50531091D01*
X136362941Y-50533156D01*
X136405267Y-50575170D01*
X136420372Y-50643387D01*
X136396198Y-50708942D01*
X136363323Y-50737428D01*
X136364291Y-50738909D01*
X136359993Y-50741716D01*
X136178887Y-50882677D01*
X136023450Y-51051525D01*
X135897931Y-51243647D01*
X135824977Y-51409966D01*
X135780020Y-51463451D01*
X135713284Y-51484141D01*
X135645957Y-51465466D01*
X135623740Y-51447836D01*
X130795468Y-46619564D01*
X130761983Y-46558241D01*
X130766967Y-46488549D01*
X130808839Y-46432616D01*
X130832704Y-46418608D01*
X131006752Y-46341118D01*
X131161253Y-46228866D01*
X131165160Y-46224527D01*
X131224646Y-46187879D01*
X131257309Y-46183500D01*
X135708709Y-46183500D01*
X135775748Y-46203185D01*
G37*
%TD.AperFunction*%
%TA.AperFunction,Conductor*%
G36*
X141776615Y-48703185D02*
G01*
X141822370Y-48755989D01*
X141832865Y-48820756D01*
X141828500Y-48861345D01*
X141828500Y-49238654D01*
X141835011Y-49299202D01*
X141835011Y-49299204D01*
X141875726Y-49408362D01*
X141886111Y-49436204D01*
X141954971Y-49528190D01*
X141979388Y-49593653D01*
X141964537Y-49661926D01*
X141915132Y-49711332D01*
X141855704Y-49726500D01*
X138614291Y-49726500D01*
X138547252Y-49706815D01*
X138501497Y-49654011D01*
X138490715Y-49592260D01*
X138509546Y-49365005D01*
X138509546Y-49364994D01*
X138495139Y-49191134D01*
X138490594Y-49136288D01*
X138454111Y-48992218D01*
X138456736Y-48922401D01*
X138496692Y-48865084D01*
X138561294Y-48838467D01*
X138624751Y-48848500D01*
X138737712Y-48898794D01*
X138924513Y-48938500D01*
X139115487Y-48938500D01*
X139302288Y-48898794D01*
X139476752Y-48821118D01*
X139631253Y-48708866D01*
X139631254Y-48708864D01*
X139633570Y-48707182D01*
X139699377Y-48683702D01*
X139706456Y-48683500D01*
X141709576Y-48683500D01*
X141776615Y-48703185D01*
G37*
%TD.AperFunction*%
%TA.AperFunction,Conductor*%
G36*
X113978334Y-42176861D02*
G01*
X114022681Y-42205362D01*
X115605181Y-43787862D01*
X115638666Y-43849185D01*
X115641500Y-43875543D01*
X115641500Y-46717840D01*
X115621815Y-46784879D01*
X115573796Y-46828324D01*
X115541165Y-46844950D01*
X115541154Y-46844957D01*
X115471249Y-46901566D01*
X115406761Y-46928458D01*
X115337972Y-46916216D01*
X115315526Y-46901847D01*
X115249025Y-46848392D01*
X115249022Y-46848390D01*
X115078523Y-46763831D01*
X114893824Y-46717897D01*
X114851097Y-46715000D01*
X114650000Y-46715000D01*
X114650000Y-47853755D01*
X114610787Y-47831116D01*
X114471895Y-47793900D01*
X114328105Y-47793900D01*
X114189213Y-47831116D01*
X114150000Y-47853755D01*
X114150000Y-46715000D01*
X113948903Y-46715000D01*
X113906175Y-46717897D01*
X113721476Y-46763831D01*
X113550977Y-46848390D01*
X113550969Y-46848395D01*
X113484472Y-46901847D01*
X113419888Y-46928505D01*
X113351144Y-46916014D01*
X113328750Y-46901565D01*
X113258845Y-46844957D01*
X113258834Y-46844950D01*
X113226204Y-46828324D01*
X113175409Y-46780349D01*
X113158500Y-46717840D01*
X113158500Y-42945543D01*
X113178185Y-42878504D01*
X113194819Y-42857862D01*
X113847319Y-42205362D01*
X113908642Y-42171877D01*
X113978334Y-42176861D01*
G37*
%TD.AperFunction*%
%TA.AperFunction,Conductor*%
G36*
X140491217Y-46203185D02*
G01*
X140536972Y-46255989D01*
X140547498Y-46320460D01*
X140547006Y-46325147D01*
X140546496Y-46330001D01*
X140557271Y-46432527D01*
X140544701Y-46501256D01*
X140506836Y-46545804D01*
X140368750Y-46646131D01*
X140368746Y-46646134D01*
X140240959Y-46788057D01*
X140145473Y-46953443D01*
X140145470Y-46953450D01*
X140086459Y-47135068D01*
X140086458Y-47135072D01*
X140071918Y-47273415D01*
X140068550Y-47305462D01*
X140041965Y-47370076D01*
X139984668Y-47410061D01*
X139945229Y-47416500D01*
X139745318Y-47416500D01*
X139678279Y-47396815D01*
X139653168Y-47375472D01*
X139631258Y-47351138D01*
X139631255Y-47351136D01*
X139631254Y-47351135D01*
X139631253Y-47351134D01*
X139476752Y-47238882D01*
X139302288Y-47161206D01*
X139302286Y-47161205D01*
X139115487Y-47121500D01*
X138924513Y-47121500D01*
X138737714Y-47161205D01*
X138737712Y-47161206D01*
X138697670Y-47179034D01*
X138651974Y-47199379D01*
X138582724Y-47208663D01*
X138519448Y-47179034D01*
X138482235Y-47119899D01*
X138481359Y-47057372D01*
X138481338Y-47057369D01*
X138481357Y-47057252D01*
X138481335Y-47055654D01*
X138482182Y-47052308D01*
X138482182Y-47052306D01*
X138501017Y-46825005D01*
X138501017Y-46824994D01*
X138482182Y-46597695D01*
X138426189Y-46376584D01*
X138417736Y-46357312D01*
X138408832Y-46288012D01*
X138438808Y-46224899D01*
X138498147Y-46188012D01*
X138531291Y-46183500D01*
X140424178Y-46183500D01*
X140491217Y-46203185D01*
G37*
%TD.AperFunction*%
%TA.AperFunction,Conductor*%
G36*
X140933859Y-42398185D02*
G01*
X140979614Y-42450989D01*
X140989558Y-42520147D01*
X140960533Y-42583703D01*
X140901755Y-42621477D01*
X140892601Y-42623790D01*
X140857714Y-42631205D01*
X140857712Y-42631206D01*
X140741255Y-42683056D01*
X140683246Y-42708883D01*
X140528745Y-42821135D01*
X140400959Y-42963057D01*
X140305473Y-43128443D01*
X140305470Y-43128450D01*
X140253383Y-43288759D01*
X140246458Y-43310072D01*
X140233693Y-43431523D01*
X140226496Y-43500000D01*
X140244249Y-43668907D01*
X140231679Y-43737636D01*
X140183947Y-43788660D01*
X140146710Y-43803158D01*
X139967713Y-43841205D01*
X139793246Y-43918883D01*
X139638745Y-44031135D01*
X139510959Y-44173057D01*
X139415473Y-44338443D01*
X139415470Y-44338450D01*
X139356459Y-44520068D01*
X139356458Y-44520072D01*
X139336496Y-44710000D01*
X139340472Y-44747834D01*
X139343805Y-44779539D01*
X139331235Y-44848268D01*
X139283503Y-44899292D01*
X139220484Y-44916500D01*
X138535678Y-44916500D01*
X138468639Y-44896815D01*
X138422884Y-44844011D01*
X138412940Y-44774853D01*
X138422121Y-44742691D01*
X138426190Y-44733412D01*
X138482182Y-44512304D01*
X138501017Y-44285005D01*
X138501017Y-44284994D01*
X138482182Y-44057695D01*
X138426190Y-43836584D01*
X138334568Y-43627709D01*
X138254063Y-43504487D01*
X137640602Y-44117947D01*
X137628884Y-44074213D01*
X137556989Y-43949687D01*
X137455313Y-43848011D01*
X137330787Y-43776116D01*
X137287050Y-43764396D01*
X137901910Y-43149537D01*
X137901909Y-43149535D01*
X137875349Y-43128862D01*
X137871054Y-43126056D01*
X137871639Y-43125159D01*
X137825802Y-43079660D01*
X137810698Y-43011443D01*
X137834873Y-42945889D01*
X137875403Y-42910774D01*
X137880010Y-42908281D01*
X138061114Y-42767322D01*
X138216547Y-42598477D01*
X138323562Y-42434677D01*
X138376709Y-42389322D01*
X138427371Y-42378500D01*
X140866820Y-42378500D01*
X140933859Y-42398185D01*
G37*
%TD.AperFunction*%
%TD*%
M02*
