%TF.GenerationSoftware,KiCad,Pcbnew,8.0.5*%
%TF.CreationDate,2024-10-29T12:08:31+01:00*%
%TF.ProjectId,mcu_holder,6d63755f-686f-46c6-9465-722e6b696361,rev?*%
%TF.SameCoordinates,Original*%
%TF.FileFunction,Legend,Top*%
%TF.FilePolarity,Positive*%
%FSLAX46Y46*%
G04 Gerber Fmt 4.6, Leading zero omitted, Abs format (unit mm)*
G04 Created by KiCad (PCBNEW 8.0.5) date 2024-10-29 12:08:31*
%MOMM*%
%LPD*%
G01*
G04 APERTURE LIST*
G04 Aperture macros list*
%AMRoundRect*
0 Rectangle with rounded corners*
0 $1 Rounding radius*
0 $2 $3 $4 $5 $6 $7 $8 $9 X,Y pos of 4 corners*
0 Add a 4 corners polygon primitive as box body*
4,1,4,$2,$3,$4,$5,$6,$7,$8,$9,$2,$3,0*
0 Add four circle primitives for the rounded corners*
1,1,$1+$1,$2,$3*
1,1,$1+$1,$4,$5*
1,1,$1+$1,$6,$7*
1,1,$1+$1,$8,$9*
0 Add four rect primitives between the rounded corners*
20,1,$1+$1,$2,$3,$4,$5,0*
20,1,$1+$1,$4,$5,$6,$7,0*
20,1,$1+$1,$6,$7,$8,$9,0*
20,1,$1+$1,$8,$9,$2,$3,0*%
G04 Aperture macros list end*
%ADD10C,0.150000*%
%ADD11C,0.254000*%
%ADD12C,0.000000*%
%ADD13C,0.120000*%
%ADD14C,2.000000*%
%ADD15RoundRect,0.375000X0.375000X0.750000X-0.375000X0.750000X-0.375000X-0.750000X0.375000X-0.750000X0*%
%ADD16R,0.280000X1.250000*%
%ADD17R,1.800000X2.000000*%
%ADD18RoundRect,0.250000X0.450000X-0.262500X0.450000X0.262500X-0.450000X0.262500X-0.450000X-0.262500X0*%
%ADD19R,1.100000X2.000000*%
%ADD20C,4.500000*%
%ADD21RoundRect,0.250000X-0.262500X-0.450000X0.262500X-0.450000X0.262500X0.450000X-0.262500X0.450000X0*%
%ADD22R,1.250000X0.280000*%
%ADD23R,2.000000X1.800000*%
%ADD24O,2.200000X3.500000*%
%ADD25R,1.500000X2.500000*%
%ADD26O,1.500000X2.500000*%
%ADD27C,1.752600*%
%ADD28R,2.000000X1.100000*%
G04 APERTURE END LIST*
D10*
X105330666Y-66256819D02*
X105330666Y-66971104D01*
X105330666Y-66971104D02*
X105283047Y-67113961D01*
X105283047Y-67113961D02*
X105187809Y-67209200D01*
X105187809Y-67209200D02*
X105044952Y-67256819D01*
X105044952Y-67256819D02*
X104949714Y-67256819D01*
X105759238Y-66352057D02*
X105806857Y-66304438D01*
X105806857Y-66304438D02*
X105902095Y-66256819D01*
X105902095Y-66256819D02*
X106140190Y-66256819D01*
X106140190Y-66256819D02*
X106235428Y-66304438D01*
X106235428Y-66304438D02*
X106283047Y-66352057D01*
X106283047Y-66352057D02*
X106330666Y-66447295D01*
X106330666Y-66447295D02*
X106330666Y-66542533D01*
X106330666Y-66542533D02*
X106283047Y-66685390D01*
X106283047Y-66685390D02*
X105711619Y-67256819D01*
X105711619Y-67256819D02*
X106330666Y-67256819D01*
X105330666Y-67780819D02*
X105330666Y-68495104D01*
X105330666Y-68495104D02*
X105283047Y-68637961D01*
X105283047Y-68637961D02*
X105187809Y-68733200D01*
X105187809Y-68733200D02*
X105044952Y-68780819D01*
X105044952Y-68780819D02*
X104949714Y-68780819D01*
X105711619Y-67780819D02*
X106330666Y-67780819D01*
X106330666Y-67780819D02*
X105997333Y-68161771D01*
X105997333Y-68161771D02*
X106140190Y-68161771D01*
X106140190Y-68161771D02*
X106235428Y-68209390D01*
X106235428Y-68209390D02*
X106283047Y-68257009D01*
X106283047Y-68257009D02*
X106330666Y-68352247D01*
X106330666Y-68352247D02*
X106330666Y-68590342D01*
X106330666Y-68590342D02*
X106283047Y-68685580D01*
X106283047Y-68685580D02*
X106235428Y-68733200D01*
X106235428Y-68733200D02*
X106140190Y-68780819D01*
X106140190Y-68780819D02*
X105854476Y-68780819D01*
X105854476Y-68780819D02*
X105759238Y-68733200D01*
X105759238Y-68733200D02*
X105711619Y-68685580D01*
X103960819Y-53102166D02*
X103484628Y-53435499D01*
X103960819Y-53673594D02*
X102960819Y-53673594D01*
X102960819Y-53673594D02*
X102960819Y-53292642D01*
X102960819Y-53292642D02*
X103008438Y-53197404D01*
X103008438Y-53197404D02*
X103056057Y-53149785D01*
X103056057Y-53149785D02*
X103151295Y-53102166D01*
X103151295Y-53102166D02*
X103294152Y-53102166D01*
X103294152Y-53102166D02*
X103389390Y-53149785D01*
X103389390Y-53149785D02*
X103437009Y-53197404D01*
X103437009Y-53197404D02*
X103484628Y-53292642D01*
X103484628Y-53292642D02*
X103484628Y-53673594D01*
X103960819Y-52149785D02*
X103960819Y-52721213D01*
X103960819Y-52435499D02*
X102960819Y-52435499D01*
X102960819Y-52435499D02*
X103103676Y-52530737D01*
X103103676Y-52530737D02*
X103198914Y-52625975D01*
X103198914Y-52625975D02*
X103246533Y-52721213D01*
X104044819Y-48338094D02*
X103044819Y-48338094D01*
X103044819Y-48338094D02*
X103044819Y-48099999D01*
X103044819Y-48099999D02*
X103092438Y-47957142D01*
X103092438Y-47957142D02*
X103187676Y-47861904D01*
X103187676Y-47861904D02*
X103282914Y-47814285D01*
X103282914Y-47814285D02*
X103473390Y-47766666D01*
X103473390Y-47766666D02*
X103616247Y-47766666D01*
X103616247Y-47766666D02*
X103806723Y-47814285D01*
X103806723Y-47814285D02*
X103901961Y-47861904D01*
X103901961Y-47861904D02*
X103997200Y-47957142D01*
X103997200Y-47957142D02*
X104044819Y-48099999D01*
X104044819Y-48099999D02*
X104044819Y-48338094D01*
X103140057Y-47385713D02*
X103092438Y-47338094D01*
X103092438Y-47338094D02*
X103044819Y-47242856D01*
X103044819Y-47242856D02*
X103044819Y-47004761D01*
X103044819Y-47004761D02*
X103092438Y-46909523D01*
X103092438Y-46909523D02*
X103140057Y-46861904D01*
X103140057Y-46861904D02*
X103235295Y-46814285D01*
X103235295Y-46814285D02*
X103330533Y-46814285D01*
X103330533Y-46814285D02*
X103473390Y-46861904D01*
X103473390Y-46861904D02*
X104044819Y-47433332D01*
X104044819Y-47433332D02*
X104044819Y-46814285D01*
X93725068Y-35354819D02*
X93725068Y-34354819D01*
X93725068Y-34831009D02*
X94296496Y-34831009D01*
X94296496Y-35354819D02*
X94296496Y-34354819D01*
X95248877Y-34354819D02*
X94772687Y-34354819D01*
X94772687Y-34354819D02*
X94725068Y-34831009D01*
X94725068Y-34831009D02*
X94772687Y-34783390D01*
X94772687Y-34783390D02*
X94867925Y-34735771D01*
X94867925Y-34735771D02*
X95106020Y-34735771D01*
X95106020Y-34735771D02*
X95201258Y-34783390D01*
X95201258Y-34783390D02*
X95248877Y-34831009D01*
X95248877Y-34831009D02*
X95296496Y-34926247D01*
X95296496Y-34926247D02*
X95296496Y-35164342D01*
X95296496Y-35164342D02*
X95248877Y-35259580D01*
X95248877Y-35259580D02*
X95201258Y-35307200D01*
X95201258Y-35307200D02*
X95106020Y-35354819D01*
X95106020Y-35354819D02*
X94867925Y-35354819D01*
X94867925Y-35354819D02*
X94772687Y-35307200D01*
X94772687Y-35307200D02*
X94725068Y-35259580D01*
X106333333Y-59354819D02*
X106000000Y-58878628D01*
X105761905Y-59354819D02*
X105761905Y-58354819D01*
X105761905Y-58354819D02*
X106142857Y-58354819D01*
X106142857Y-58354819D02*
X106238095Y-58402438D01*
X106238095Y-58402438D02*
X106285714Y-58450057D01*
X106285714Y-58450057D02*
X106333333Y-58545295D01*
X106333333Y-58545295D02*
X106333333Y-58688152D01*
X106333333Y-58688152D02*
X106285714Y-58783390D01*
X106285714Y-58783390D02*
X106238095Y-58831009D01*
X106238095Y-58831009D02*
X106142857Y-58878628D01*
X106142857Y-58878628D02*
X105761905Y-58878628D01*
X107238095Y-58354819D02*
X106761905Y-58354819D01*
X106761905Y-58354819D02*
X106714286Y-58831009D01*
X106714286Y-58831009D02*
X106761905Y-58783390D01*
X106761905Y-58783390D02*
X106857143Y-58735771D01*
X106857143Y-58735771D02*
X107095238Y-58735771D01*
X107095238Y-58735771D02*
X107190476Y-58783390D01*
X107190476Y-58783390D02*
X107238095Y-58831009D01*
X107238095Y-58831009D02*
X107285714Y-58926247D01*
X107285714Y-58926247D02*
X107285714Y-59164342D01*
X107285714Y-59164342D02*
X107238095Y-59259580D01*
X107238095Y-59259580D02*
X107190476Y-59307200D01*
X107190476Y-59307200D02*
X107095238Y-59354819D01*
X107095238Y-59354819D02*
X106857143Y-59354819D01*
X106857143Y-59354819D02*
X106761905Y-59307200D01*
X106761905Y-59307200D02*
X106714286Y-59259580D01*
X148167160Y-63754819D02*
X148167160Y-62754819D01*
X148167160Y-63231009D02*
X148738588Y-63231009D01*
X148738588Y-63754819D02*
X148738588Y-62754819D01*
X149357636Y-63183390D02*
X149262398Y-63135771D01*
X149262398Y-63135771D02*
X149214779Y-63088152D01*
X149214779Y-63088152D02*
X149167160Y-62992914D01*
X149167160Y-62992914D02*
X149167160Y-62945295D01*
X149167160Y-62945295D02*
X149214779Y-62850057D01*
X149214779Y-62850057D02*
X149262398Y-62802438D01*
X149262398Y-62802438D02*
X149357636Y-62754819D01*
X149357636Y-62754819D02*
X149548112Y-62754819D01*
X149548112Y-62754819D02*
X149643350Y-62802438D01*
X149643350Y-62802438D02*
X149690969Y-62850057D01*
X149690969Y-62850057D02*
X149738588Y-62945295D01*
X149738588Y-62945295D02*
X149738588Y-62992914D01*
X149738588Y-62992914D02*
X149690969Y-63088152D01*
X149690969Y-63088152D02*
X149643350Y-63135771D01*
X149643350Y-63135771D02*
X149548112Y-63183390D01*
X149548112Y-63183390D02*
X149357636Y-63183390D01*
X149357636Y-63183390D02*
X149262398Y-63231009D01*
X149262398Y-63231009D02*
X149214779Y-63278628D01*
X149214779Y-63278628D02*
X149167160Y-63373866D01*
X149167160Y-63373866D02*
X149167160Y-63564342D01*
X149167160Y-63564342D02*
X149214779Y-63659580D01*
X149214779Y-63659580D02*
X149262398Y-63707200D01*
X149262398Y-63707200D02*
X149357636Y-63754819D01*
X149357636Y-63754819D02*
X149548112Y-63754819D01*
X149548112Y-63754819D02*
X149643350Y-63707200D01*
X149643350Y-63707200D02*
X149690969Y-63659580D01*
X149690969Y-63659580D02*
X149738588Y-63564342D01*
X149738588Y-63564342D02*
X149738588Y-63373866D01*
X149738588Y-63373866D02*
X149690969Y-63278628D01*
X149690969Y-63278628D02*
X149643350Y-63231009D01*
X149643350Y-63231009D02*
X149548112Y-63183390D01*
X107846150Y-53105683D02*
X107369959Y-53439016D01*
X107846150Y-53677111D02*
X106846150Y-53677111D01*
X106846150Y-53677111D02*
X106846150Y-53296159D01*
X106846150Y-53296159D02*
X106893769Y-53200921D01*
X106893769Y-53200921D02*
X106941388Y-53153302D01*
X106941388Y-53153302D02*
X107036626Y-53105683D01*
X107036626Y-53105683D02*
X107179483Y-53105683D01*
X107179483Y-53105683D02*
X107274721Y-53153302D01*
X107274721Y-53153302D02*
X107322340Y-53200921D01*
X107322340Y-53200921D02*
X107369959Y-53296159D01*
X107369959Y-53296159D02*
X107369959Y-53677111D01*
X106846150Y-52772349D02*
X106846150Y-52153302D01*
X106846150Y-52153302D02*
X107227102Y-52486635D01*
X107227102Y-52486635D02*
X107227102Y-52343778D01*
X107227102Y-52343778D02*
X107274721Y-52248540D01*
X107274721Y-52248540D02*
X107322340Y-52200921D01*
X107322340Y-52200921D02*
X107417578Y-52153302D01*
X107417578Y-52153302D02*
X107655673Y-52153302D01*
X107655673Y-52153302D02*
X107750911Y-52200921D01*
X107750911Y-52200921D02*
X107798531Y-52248540D01*
X107798531Y-52248540D02*
X107846150Y-52343778D01*
X107846150Y-52343778D02*
X107846150Y-52629492D01*
X107846150Y-52629492D02*
X107798531Y-52724730D01*
X107798531Y-52724730D02*
X107750911Y-52772349D01*
X112344476Y-43377200D02*
X112487333Y-43424819D01*
X112487333Y-43424819D02*
X112725428Y-43424819D01*
X112725428Y-43424819D02*
X112820666Y-43377200D01*
X112820666Y-43377200D02*
X112868285Y-43329580D01*
X112868285Y-43329580D02*
X112915904Y-43234342D01*
X112915904Y-43234342D02*
X112915904Y-43139104D01*
X112915904Y-43139104D02*
X112868285Y-43043866D01*
X112868285Y-43043866D02*
X112820666Y-42996247D01*
X112820666Y-42996247D02*
X112725428Y-42948628D01*
X112725428Y-42948628D02*
X112534952Y-42901009D01*
X112534952Y-42901009D02*
X112439714Y-42853390D01*
X112439714Y-42853390D02*
X112392095Y-42805771D01*
X112392095Y-42805771D02*
X112344476Y-42710533D01*
X112344476Y-42710533D02*
X112344476Y-42615295D01*
X112344476Y-42615295D02*
X112392095Y-42520057D01*
X112392095Y-42520057D02*
X112439714Y-42472438D01*
X112439714Y-42472438D02*
X112534952Y-42424819D01*
X112534952Y-42424819D02*
X112773047Y-42424819D01*
X112773047Y-42424819D02*
X112915904Y-42472438D01*
X113249238Y-42424819D02*
X113487333Y-43424819D01*
X113487333Y-43424819D02*
X113677809Y-42710533D01*
X113677809Y-42710533D02*
X113868285Y-43424819D01*
X113868285Y-43424819D02*
X114106381Y-42424819D01*
X115011142Y-43424819D02*
X114439714Y-43424819D01*
X114725428Y-43424819D02*
X114725428Y-42424819D01*
X114725428Y-42424819D02*
X114630190Y-42567676D01*
X114630190Y-42567676D02*
X114534952Y-42662914D01*
X114534952Y-42662914D02*
X114439714Y-42710533D01*
X115344476Y-42424819D02*
X116011142Y-42424819D01*
X116011142Y-42424819D02*
X115582571Y-43424819D01*
X106253333Y-57344819D02*
X105920000Y-56868628D01*
X105681905Y-57344819D02*
X105681905Y-56344819D01*
X105681905Y-56344819D02*
X106062857Y-56344819D01*
X106062857Y-56344819D02*
X106158095Y-56392438D01*
X106158095Y-56392438D02*
X106205714Y-56440057D01*
X106205714Y-56440057D02*
X106253333Y-56535295D01*
X106253333Y-56535295D02*
X106253333Y-56678152D01*
X106253333Y-56678152D02*
X106205714Y-56773390D01*
X106205714Y-56773390D02*
X106158095Y-56821009D01*
X106158095Y-56821009D02*
X106062857Y-56868628D01*
X106062857Y-56868628D02*
X105681905Y-56868628D01*
X107110476Y-56344819D02*
X106920000Y-56344819D01*
X106920000Y-56344819D02*
X106824762Y-56392438D01*
X106824762Y-56392438D02*
X106777143Y-56440057D01*
X106777143Y-56440057D02*
X106681905Y-56582914D01*
X106681905Y-56582914D02*
X106634286Y-56773390D01*
X106634286Y-56773390D02*
X106634286Y-57154342D01*
X106634286Y-57154342D02*
X106681905Y-57249580D01*
X106681905Y-57249580D02*
X106729524Y-57297200D01*
X106729524Y-57297200D02*
X106824762Y-57344819D01*
X106824762Y-57344819D02*
X107015238Y-57344819D01*
X107015238Y-57344819D02*
X107110476Y-57297200D01*
X107110476Y-57297200D02*
X107158095Y-57249580D01*
X107158095Y-57249580D02*
X107205714Y-57154342D01*
X107205714Y-57154342D02*
X107205714Y-56916247D01*
X107205714Y-56916247D02*
X107158095Y-56821009D01*
X107158095Y-56821009D02*
X107110476Y-56773390D01*
X107110476Y-56773390D02*
X107015238Y-56725771D01*
X107015238Y-56725771D02*
X106824762Y-56725771D01*
X106824762Y-56725771D02*
X106729524Y-56773390D01*
X106729524Y-56773390D02*
X106681905Y-56821009D01*
X106681905Y-56821009D02*
X106634286Y-56916247D01*
X104864819Y-73209635D02*
X103864819Y-73209635D01*
X103864819Y-73209635D02*
X104579104Y-72876302D01*
X104579104Y-72876302D02*
X103864819Y-72542969D01*
X103864819Y-72542969D02*
X104864819Y-72542969D01*
X103864819Y-71876302D02*
X103864819Y-71685826D01*
X103864819Y-71685826D02*
X103912438Y-71590588D01*
X103912438Y-71590588D02*
X104007676Y-71495350D01*
X104007676Y-71495350D02*
X104198152Y-71447731D01*
X104198152Y-71447731D02*
X104531485Y-71447731D01*
X104531485Y-71447731D02*
X104721961Y-71495350D01*
X104721961Y-71495350D02*
X104817200Y-71590588D01*
X104817200Y-71590588D02*
X104864819Y-71685826D01*
X104864819Y-71685826D02*
X104864819Y-71876302D01*
X104864819Y-71876302D02*
X104817200Y-71971540D01*
X104817200Y-71971540D02*
X104721961Y-72066778D01*
X104721961Y-72066778D02*
X104531485Y-72114397D01*
X104531485Y-72114397D02*
X104198152Y-72114397D01*
X104198152Y-72114397D02*
X104007676Y-72066778D01*
X104007676Y-72066778D02*
X103912438Y-71971540D01*
X103912438Y-71971540D02*
X103864819Y-71876302D01*
X104817200Y-71066778D02*
X104864819Y-70923921D01*
X104864819Y-70923921D02*
X104864819Y-70685826D01*
X104864819Y-70685826D02*
X104817200Y-70590588D01*
X104817200Y-70590588D02*
X104769580Y-70542969D01*
X104769580Y-70542969D02*
X104674342Y-70495350D01*
X104674342Y-70495350D02*
X104579104Y-70495350D01*
X104579104Y-70495350D02*
X104483866Y-70542969D01*
X104483866Y-70542969D02*
X104436247Y-70590588D01*
X104436247Y-70590588D02*
X104388628Y-70685826D01*
X104388628Y-70685826D02*
X104341009Y-70876302D01*
X104341009Y-70876302D02*
X104293390Y-70971540D01*
X104293390Y-70971540D02*
X104245771Y-71019159D01*
X104245771Y-71019159D02*
X104150533Y-71066778D01*
X104150533Y-71066778D02*
X104055295Y-71066778D01*
X104055295Y-71066778D02*
X103960057Y-71019159D01*
X103960057Y-71019159D02*
X103912438Y-70971540D01*
X103912438Y-70971540D02*
X103864819Y-70876302D01*
X103864819Y-70876302D02*
X103864819Y-70638207D01*
X103864819Y-70638207D02*
X103912438Y-70495350D01*
X104864819Y-70066778D02*
X103864819Y-70066778D01*
X114929580Y-70971541D02*
X114977200Y-71019160D01*
X114977200Y-71019160D02*
X115024819Y-71162017D01*
X115024819Y-71162017D02*
X115024819Y-71257255D01*
X115024819Y-71257255D02*
X114977200Y-71400112D01*
X114977200Y-71400112D02*
X114881961Y-71495350D01*
X114881961Y-71495350D02*
X114786723Y-71542969D01*
X114786723Y-71542969D02*
X114596247Y-71590588D01*
X114596247Y-71590588D02*
X114453390Y-71590588D01*
X114453390Y-71590588D02*
X114262914Y-71542969D01*
X114262914Y-71542969D02*
X114167676Y-71495350D01*
X114167676Y-71495350D02*
X114072438Y-71400112D01*
X114072438Y-71400112D02*
X114024819Y-71257255D01*
X114024819Y-71257255D02*
X114024819Y-71162017D01*
X114024819Y-71162017D02*
X114072438Y-71019160D01*
X114072438Y-71019160D02*
X114120057Y-70971541D01*
X114977200Y-70590588D02*
X115024819Y-70447731D01*
X115024819Y-70447731D02*
X115024819Y-70209636D01*
X115024819Y-70209636D02*
X114977200Y-70114398D01*
X114977200Y-70114398D02*
X114929580Y-70066779D01*
X114929580Y-70066779D02*
X114834342Y-70019160D01*
X114834342Y-70019160D02*
X114739104Y-70019160D01*
X114739104Y-70019160D02*
X114643866Y-70066779D01*
X114643866Y-70066779D02*
X114596247Y-70114398D01*
X114596247Y-70114398D02*
X114548628Y-70209636D01*
X114548628Y-70209636D02*
X114501009Y-70400112D01*
X114501009Y-70400112D02*
X114453390Y-70495350D01*
X114453390Y-70495350D02*
X114405771Y-70542969D01*
X114405771Y-70542969D02*
X114310533Y-70590588D01*
X114310533Y-70590588D02*
X114215295Y-70590588D01*
X114215295Y-70590588D02*
X114120057Y-70542969D01*
X114120057Y-70542969D02*
X114072438Y-70495350D01*
X114072438Y-70495350D02*
X114024819Y-70400112D01*
X114024819Y-70400112D02*
X114024819Y-70162017D01*
X114024819Y-70162017D02*
X114072438Y-70019160D01*
X111532438Y-72114398D02*
X111484819Y-72209636D01*
X111484819Y-72209636D02*
X111484819Y-72352493D01*
X111484819Y-72352493D02*
X111532438Y-72495350D01*
X111532438Y-72495350D02*
X111627676Y-72590588D01*
X111627676Y-72590588D02*
X111722914Y-72638207D01*
X111722914Y-72638207D02*
X111913390Y-72685826D01*
X111913390Y-72685826D02*
X112056247Y-72685826D01*
X112056247Y-72685826D02*
X112246723Y-72638207D01*
X112246723Y-72638207D02*
X112341961Y-72590588D01*
X112341961Y-72590588D02*
X112437200Y-72495350D01*
X112437200Y-72495350D02*
X112484819Y-72352493D01*
X112484819Y-72352493D02*
X112484819Y-72257255D01*
X112484819Y-72257255D02*
X112437200Y-72114398D01*
X112437200Y-72114398D02*
X112389580Y-72066779D01*
X112389580Y-72066779D02*
X112056247Y-72066779D01*
X112056247Y-72066779D02*
X112056247Y-72257255D01*
X112484819Y-71638207D02*
X111484819Y-71638207D01*
X111484819Y-71638207D02*
X112484819Y-71066779D01*
X112484819Y-71066779D02*
X111484819Y-71066779D01*
X112484819Y-70590588D02*
X111484819Y-70590588D01*
X111484819Y-70590588D02*
X111484819Y-70352493D01*
X111484819Y-70352493D02*
X111532438Y-70209636D01*
X111532438Y-70209636D02*
X111627676Y-70114398D01*
X111627676Y-70114398D02*
X111722914Y-70066779D01*
X111722914Y-70066779D02*
X111913390Y-70019160D01*
X111913390Y-70019160D02*
X112056247Y-70019160D01*
X112056247Y-70019160D02*
X112246723Y-70066779D01*
X112246723Y-70066779D02*
X112341961Y-70114398D01*
X112341961Y-70114398D02*
X112437200Y-70209636D01*
X112437200Y-70209636D02*
X112484819Y-70352493D01*
X112484819Y-70352493D02*
X112484819Y-70590588D01*
X108944819Y-72590588D02*
X109944819Y-72257255D01*
X109944819Y-72257255D02*
X108944819Y-71923922D01*
X109849580Y-71019160D02*
X109897200Y-71066779D01*
X109897200Y-71066779D02*
X109944819Y-71209636D01*
X109944819Y-71209636D02*
X109944819Y-71304874D01*
X109944819Y-71304874D02*
X109897200Y-71447731D01*
X109897200Y-71447731D02*
X109801961Y-71542969D01*
X109801961Y-71542969D02*
X109706723Y-71590588D01*
X109706723Y-71590588D02*
X109516247Y-71638207D01*
X109516247Y-71638207D02*
X109373390Y-71638207D01*
X109373390Y-71638207D02*
X109182914Y-71590588D01*
X109182914Y-71590588D02*
X109087676Y-71542969D01*
X109087676Y-71542969D02*
X108992438Y-71447731D01*
X108992438Y-71447731D02*
X108944819Y-71304874D01*
X108944819Y-71304874D02*
X108944819Y-71209636D01*
X108944819Y-71209636D02*
X108992438Y-71066779D01*
X108992438Y-71066779D02*
X109040057Y-71019160D01*
X109849580Y-70019160D02*
X109897200Y-70066779D01*
X109897200Y-70066779D02*
X109944819Y-70209636D01*
X109944819Y-70209636D02*
X109944819Y-70304874D01*
X109944819Y-70304874D02*
X109897200Y-70447731D01*
X109897200Y-70447731D02*
X109801961Y-70542969D01*
X109801961Y-70542969D02*
X109706723Y-70590588D01*
X109706723Y-70590588D02*
X109516247Y-70638207D01*
X109516247Y-70638207D02*
X109373390Y-70638207D01*
X109373390Y-70638207D02*
X109182914Y-70590588D01*
X109182914Y-70590588D02*
X109087676Y-70542969D01*
X109087676Y-70542969D02*
X108992438Y-70447731D01*
X108992438Y-70447731D02*
X108944819Y-70304874D01*
X108944819Y-70304874D02*
X108944819Y-70209636D01*
X108944819Y-70209636D02*
X108992438Y-70066779D01*
X108992438Y-70066779D02*
X109040057Y-70019160D01*
X107357200Y-72590588D02*
X107404819Y-72447731D01*
X107404819Y-72447731D02*
X107404819Y-72209636D01*
X107404819Y-72209636D02*
X107357200Y-72114398D01*
X107357200Y-72114398D02*
X107309580Y-72066779D01*
X107309580Y-72066779D02*
X107214342Y-72019160D01*
X107214342Y-72019160D02*
X107119104Y-72019160D01*
X107119104Y-72019160D02*
X107023866Y-72066779D01*
X107023866Y-72066779D02*
X106976247Y-72114398D01*
X106976247Y-72114398D02*
X106928628Y-72209636D01*
X106928628Y-72209636D02*
X106881009Y-72400112D01*
X106881009Y-72400112D02*
X106833390Y-72495350D01*
X106833390Y-72495350D02*
X106785771Y-72542969D01*
X106785771Y-72542969D02*
X106690533Y-72590588D01*
X106690533Y-72590588D02*
X106595295Y-72590588D01*
X106595295Y-72590588D02*
X106500057Y-72542969D01*
X106500057Y-72542969D02*
X106452438Y-72495350D01*
X106452438Y-72495350D02*
X106404819Y-72400112D01*
X106404819Y-72400112D02*
X106404819Y-72162017D01*
X106404819Y-72162017D02*
X106452438Y-72019160D01*
X107309580Y-71019160D02*
X107357200Y-71066779D01*
X107357200Y-71066779D02*
X107404819Y-71209636D01*
X107404819Y-71209636D02*
X107404819Y-71304874D01*
X107404819Y-71304874D02*
X107357200Y-71447731D01*
X107357200Y-71447731D02*
X107261961Y-71542969D01*
X107261961Y-71542969D02*
X107166723Y-71590588D01*
X107166723Y-71590588D02*
X106976247Y-71638207D01*
X106976247Y-71638207D02*
X106833390Y-71638207D01*
X106833390Y-71638207D02*
X106642914Y-71590588D01*
X106642914Y-71590588D02*
X106547676Y-71542969D01*
X106547676Y-71542969D02*
X106452438Y-71447731D01*
X106452438Y-71447731D02*
X106404819Y-71304874D01*
X106404819Y-71304874D02*
X106404819Y-71209636D01*
X106404819Y-71209636D02*
X106452438Y-71066779D01*
X106452438Y-71066779D02*
X106500057Y-71019160D01*
X107404819Y-70590588D02*
X106404819Y-70590588D01*
X107404819Y-70019160D02*
X106833390Y-70447731D01*
X106404819Y-70019160D02*
X106976247Y-70590588D01*
X100707618Y-39570819D02*
X100374285Y-39094628D01*
X100136190Y-39570819D02*
X100136190Y-38570819D01*
X100136190Y-38570819D02*
X100517142Y-38570819D01*
X100517142Y-38570819D02*
X100612380Y-38618438D01*
X100612380Y-38618438D02*
X100659999Y-38666057D01*
X100659999Y-38666057D02*
X100707618Y-38761295D01*
X100707618Y-38761295D02*
X100707618Y-38904152D01*
X100707618Y-38904152D02*
X100659999Y-38999390D01*
X100659999Y-38999390D02*
X100612380Y-39047009D01*
X100612380Y-39047009D02*
X100517142Y-39094628D01*
X100517142Y-39094628D02*
X100136190Y-39094628D01*
X101136190Y-39047009D02*
X101469523Y-39047009D01*
X101612380Y-39570819D02*
X101136190Y-39570819D01*
X101136190Y-39570819D02*
X101136190Y-38570819D01*
X101136190Y-38570819D02*
X101612380Y-38570819D01*
X101993333Y-39523200D02*
X102136190Y-39570819D01*
X102136190Y-39570819D02*
X102374285Y-39570819D01*
X102374285Y-39570819D02*
X102469523Y-39523200D01*
X102469523Y-39523200D02*
X102517142Y-39475580D01*
X102517142Y-39475580D02*
X102564761Y-39380342D01*
X102564761Y-39380342D02*
X102564761Y-39285104D01*
X102564761Y-39285104D02*
X102517142Y-39189866D01*
X102517142Y-39189866D02*
X102469523Y-39142247D01*
X102469523Y-39142247D02*
X102374285Y-39094628D01*
X102374285Y-39094628D02*
X102183809Y-39047009D01*
X102183809Y-39047009D02*
X102088571Y-38999390D01*
X102088571Y-38999390D02*
X102040952Y-38951771D01*
X102040952Y-38951771D02*
X101993333Y-38856533D01*
X101993333Y-38856533D02*
X101993333Y-38761295D01*
X101993333Y-38761295D02*
X102040952Y-38666057D01*
X102040952Y-38666057D02*
X102088571Y-38618438D01*
X102088571Y-38618438D02*
X102183809Y-38570819D01*
X102183809Y-38570819D02*
X102421904Y-38570819D01*
X102421904Y-38570819D02*
X102564761Y-38618438D01*
X102993333Y-39047009D02*
X103326666Y-39047009D01*
X103469523Y-39570819D02*
X102993333Y-39570819D01*
X102993333Y-39570819D02*
X102993333Y-38570819D01*
X102993333Y-38570819D02*
X103469523Y-38570819D01*
X103755238Y-38570819D02*
X104326666Y-38570819D01*
X104040952Y-39570819D02*
X104040952Y-38570819D01*
X105904819Y-53102166D02*
X105428628Y-53435499D01*
X105904819Y-53673594D02*
X104904819Y-53673594D01*
X104904819Y-53673594D02*
X104904819Y-53292642D01*
X104904819Y-53292642D02*
X104952438Y-53197404D01*
X104952438Y-53197404D02*
X105000057Y-53149785D01*
X105000057Y-53149785D02*
X105095295Y-53102166D01*
X105095295Y-53102166D02*
X105238152Y-53102166D01*
X105238152Y-53102166D02*
X105333390Y-53149785D01*
X105333390Y-53149785D02*
X105381009Y-53197404D01*
X105381009Y-53197404D02*
X105428628Y-53292642D01*
X105428628Y-53292642D02*
X105428628Y-53673594D01*
X105000057Y-52721213D02*
X104952438Y-52673594D01*
X104952438Y-52673594D02*
X104904819Y-52578356D01*
X104904819Y-52578356D02*
X104904819Y-52340261D01*
X104904819Y-52340261D02*
X104952438Y-52245023D01*
X104952438Y-52245023D02*
X105000057Y-52197404D01*
X105000057Y-52197404D02*
X105095295Y-52149785D01*
X105095295Y-52149785D02*
X105190533Y-52149785D01*
X105190533Y-52149785D02*
X105333390Y-52197404D01*
X105333390Y-52197404D02*
X105904819Y-52768832D01*
X105904819Y-52768832D02*
X105904819Y-52149785D01*
X140978095Y-35374819D02*
X140978095Y-34374819D01*
X140978095Y-34851009D02*
X141549523Y-34851009D01*
X141549523Y-35374819D02*
X141549523Y-34374819D01*
X141930476Y-34374819D02*
X142597142Y-34374819D01*
X142597142Y-34374819D02*
X142168571Y-35374819D01*
X113961904Y-46483247D02*
X114076190Y-46521342D01*
X114076190Y-46521342D02*
X114114285Y-46559438D01*
X114114285Y-46559438D02*
X114152381Y-46635628D01*
X114152381Y-46635628D02*
X114152381Y-46749914D01*
X114152381Y-46749914D02*
X114114285Y-46826104D01*
X114114285Y-46826104D02*
X114076190Y-46864200D01*
X114076190Y-46864200D02*
X114000000Y-46902295D01*
X114000000Y-46902295D02*
X113695238Y-46902295D01*
X113695238Y-46902295D02*
X113695238Y-46102295D01*
X113695238Y-46102295D02*
X113961904Y-46102295D01*
X113961904Y-46102295D02*
X114038095Y-46140390D01*
X114038095Y-46140390D02*
X114076190Y-46178485D01*
X114076190Y-46178485D02*
X114114285Y-46254676D01*
X114114285Y-46254676D02*
X114114285Y-46330866D01*
X114114285Y-46330866D02*
X114076190Y-46407057D01*
X114076190Y-46407057D02*
X114038095Y-46445152D01*
X114038095Y-46445152D02*
X113961904Y-46483247D01*
X113961904Y-46483247D02*
X113695238Y-46483247D01*
X114495238Y-46597533D02*
X115104762Y-46597533D01*
X115961904Y-46483247D02*
X116076190Y-46521342D01*
X116076190Y-46521342D02*
X116114285Y-46559438D01*
X116114285Y-46559438D02*
X116152381Y-46635628D01*
X116152381Y-46635628D02*
X116152381Y-46749914D01*
X116152381Y-46749914D02*
X116114285Y-46826104D01*
X116114285Y-46826104D02*
X116076190Y-46864200D01*
X116076190Y-46864200D02*
X116000000Y-46902295D01*
X116000000Y-46902295D02*
X115695238Y-46902295D01*
X115695238Y-46902295D02*
X115695238Y-46102295D01*
X115695238Y-46102295D02*
X115961904Y-46102295D01*
X115961904Y-46102295D02*
X116038095Y-46140390D01*
X116038095Y-46140390D02*
X116076190Y-46178485D01*
X116076190Y-46178485D02*
X116114285Y-46254676D01*
X116114285Y-46254676D02*
X116114285Y-46330866D01*
X116114285Y-46330866D02*
X116076190Y-46407057D01*
X116076190Y-46407057D02*
X116038095Y-46445152D01*
X116038095Y-46445152D02*
X115961904Y-46483247D01*
X115961904Y-46483247D02*
X115695238Y-46483247D01*
X116495238Y-46597533D02*
X117104762Y-46597533D01*
X116800000Y-46902295D02*
X116800000Y-46292771D01*
X111961904Y-46483247D02*
X112076190Y-46521342D01*
X112076190Y-46521342D02*
X112114285Y-46559438D01*
X112114285Y-46559438D02*
X112152381Y-46635628D01*
X112152381Y-46635628D02*
X112152381Y-46749914D01*
X112152381Y-46749914D02*
X112114285Y-46826104D01*
X112114285Y-46826104D02*
X112076190Y-46864200D01*
X112076190Y-46864200D02*
X112000000Y-46902295D01*
X112000000Y-46902295D02*
X111695238Y-46902295D01*
X111695238Y-46902295D02*
X111695238Y-46102295D01*
X111695238Y-46102295D02*
X111961904Y-46102295D01*
X111961904Y-46102295D02*
X112038095Y-46140390D01*
X112038095Y-46140390D02*
X112076190Y-46178485D01*
X112076190Y-46178485D02*
X112114285Y-46254676D01*
X112114285Y-46254676D02*
X112114285Y-46330866D01*
X112114285Y-46330866D02*
X112076190Y-46407057D01*
X112076190Y-46407057D02*
X112038095Y-46445152D01*
X112038095Y-46445152D02*
X111961904Y-46483247D01*
X111961904Y-46483247D02*
X111695238Y-46483247D01*
X112495238Y-46597533D02*
X113104762Y-46597533D01*
X112800000Y-46902295D02*
X112800000Y-46292771D01*
G36*
X141348617Y-57004276D02*
G01*
X141420561Y-57076219D01*
X141454819Y-57144735D01*
X141454819Y-57299801D01*
X141420561Y-57368316D01*
X141348617Y-57440259D01*
X141187251Y-57480601D01*
X140872386Y-57480601D01*
X140711019Y-57440259D01*
X140639077Y-57368317D01*
X140604819Y-57299801D01*
X140604819Y-57144735D01*
X140639077Y-57076219D01*
X140711019Y-57004276D01*
X140872386Y-56963935D01*
X141187251Y-56963935D01*
X141348617Y-57004276D01*
G37*
G36*
X141715930Y-60931599D02*
G01*
X140343708Y-60931599D01*
X140343708Y-60070031D01*
X140455408Y-60070031D01*
X140457483Y-60099221D01*
X140470569Y-60125394D01*
X140492676Y-60144568D01*
X140506102Y-60150562D01*
X141292648Y-60412744D01*
X140506102Y-60674926D01*
X140492676Y-60680920D01*
X140470569Y-60700094D01*
X140457483Y-60726267D01*
X140455408Y-60755457D01*
X140464662Y-60783220D01*
X140483836Y-60805327D01*
X140510009Y-60818413D01*
X140539199Y-60820488D01*
X140553536Y-60817228D01*
X141553536Y-60483895D01*
X141566961Y-60477901D01*
X141571008Y-60474390D01*
X141575802Y-60471994D01*
X141581966Y-60464886D01*
X141589068Y-60458727D01*
X141591463Y-60453935D01*
X141594976Y-60449886D01*
X141597950Y-60440963D01*
X141602155Y-60432554D01*
X141602534Y-60427209D01*
X141604230Y-60422124D01*
X141603563Y-60412744D01*
X141604230Y-60403364D01*
X141602534Y-60398278D01*
X141602155Y-60392934D01*
X141597950Y-60384524D01*
X141594976Y-60375602D01*
X141591463Y-60371552D01*
X141589068Y-60366761D01*
X141581966Y-60360601D01*
X141575802Y-60353494D01*
X141571008Y-60351097D01*
X141566961Y-60347587D01*
X141553536Y-60341593D01*
X140553536Y-60008260D01*
X140539199Y-60005000D01*
X140510009Y-60007075D01*
X140483836Y-60020161D01*
X140464662Y-60042268D01*
X140455408Y-60070031D01*
X140343708Y-60070031D01*
X140343708Y-59731445D01*
X140456260Y-59731445D01*
X140456260Y-59760709D01*
X140467459Y-59787745D01*
X140488151Y-59808437D01*
X140515187Y-59819636D01*
X140529819Y-59821077D01*
X141529819Y-59821077D01*
X141544451Y-59819636D01*
X141571487Y-59808437D01*
X141592179Y-59787745D01*
X141603378Y-59760709D01*
X141603378Y-59731445D01*
X141592179Y-59704409D01*
X141571487Y-59683717D01*
X141544451Y-59672518D01*
X141529819Y-59671077D01*
X140529819Y-59671077D01*
X140515187Y-59672518D01*
X140488151Y-59683717D01*
X140467459Y-59704409D01*
X140456260Y-59731445D01*
X140343708Y-59731445D01*
X140343708Y-58683828D01*
X140456260Y-58683828D01*
X140456260Y-58713090D01*
X140467459Y-58740127D01*
X140476786Y-58751492D01*
X140920181Y-59194887D01*
X140529819Y-59194887D01*
X140515187Y-59196328D01*
X140488151Y-59207527D01*
X140467459Y-59228219D01*
X140456260Y-59255255D01*
X140456260Y-59284519D01*
X140467459Y-59311555D01*
X140488151Y-59332247D01*
X140515187Y-59343446D01*
X140529819Y-59344887D01*
X141529819Y-59344887D01*
X141544451Y-59343446D01*
X141571487Y-59332247D01*
X141592179Y-59311555D01*
X141603378Y-59284519D01*
X141603378Y-59255255D01*
X141592179Y-59228219D01*
X141571487Y-59207527D01*
X141544451Y-59196328D01*
X141529819Y-59194887D01*
X141132313Y-59194887D01*
X141072570Y-59135144D01*
X141574819Y-58758459D01*
X141585660Y-58748527D01*
X141600570Y-58723346D01*
X141604708Y-58694377D01*
X141597446Y-58666029D01*
X141579887Y-58642618D01*
X141554706Y-58627709D01*
X141525738Y-58623570D01*
X141497389Y-58630832D01*
X141484819Y-58638459D01*
X140965427Y-59028001D01*
X140582852Y-58645426D01*
X140571487Y-58636099D01*
X140544450Y-58624900D01*
X140515188Y-58624900D01*
X140488151Y-58636099D01*
X140467459Y-58656791D01*
X140456260Y-58683828D01*
X140343708Y-58683828D01*
X140343708Y-57127030D01*
X140454819Y-57127030D01*
X140454819Y-57317506D01*
X140456260Y-57332138D01*
X140457291Y-57334627D01*
X140457482Y-57337315D01*
X140462737Y-57351047D01*
X140510356Y-57446285D01*
X140514320Y-57452584D01*
X140515078Y-57454412D01*
X140516766Y-57456468D01*
X140518188Y-57458728D01*
X140519686Y-57460027D01*
X140524405Y-57465777D01*
X140619643Y-57561015D01*
X140631008Y-57570343D01*
X140636161Y-57572477D01*
X140640640Y-57575796D01*
X140654486Y-57580743D01*
X140844962Y-57628362D01*
X140847498Y-57628737D01*
X140848520Y-57629160D01*
X140854032Y-57629702D01*
X140859506Y-57630512D01*
X140860598Y-57630349D01*
X140863152Y-57630601D01*
X141196485Y-57630601D01*
X141199038Y-57630349D01*
X141200131Y-57630512D01*
X141205604Y-57629702D01*
X141211117Y-57629160D01*
X141212138Y-57628737D01*
X141214675Y-57628362D01*
X141405151Y-57580743D01*
X141418997Y-57575796D01*
X141423476Y-57572476D01*
X141428628Y-57570343D01*
X141439994Y-57561015D01*
X141535233Y-57465777D01*
X141539953Y-57460026D01*
X141541450Y-57458728D01*
X141542869Y-57456473D01*
X141544561Y-57454412D01*
X141545319Y-57452579D01*
X141549282Y-57446285D01*
X141596901Y-57351047D01*
X141602156Y-57337316D01*
X141602347Y-57334626D01*
X141603378Y-57332138D01*
X141604819Y-57317506D01*
X141604819Y-57127030D01*
X141603378Y-57112398D01*
X141602347Y-57109909D01*
X141602156Y-57107220D01*
X141596901Y-57093489D01*
X141549282Y-56998251D01*
X141545319Y-56991956D01*
X141544561Y-56990124D01*
X141542869Y-56988062D01*
X141541450Y-56985808D01*
X141539953Y-56984509D01*
X141535233Y-56978759D01*
X141439994Y-56883521D01*
X141428628Y-56874193D01*
X141423476Y-56872059D01*
X141418997Y-56868740D01*
X141405151Y-56863793D01*
X141214675Y-56816174D01*
X141212138Y-56815798D01*
X141211117Y-56815376D01*
X141205604Y-56814833D01*
X141200131Y-56814024D01*
X141199038Y-56814186D01*
X141196485Y-56813935D01*
X140863152Y-56813935D01*
X140860598Y-56814186D01*
X140859506Y-56814024D01*
X140854032Y-56814833D01*
X140848520Y-56815376D01*
X140847498Y-56815798D01*
X140844962Y-56816174D01*
X140654486Y-56863793D01*
X140640640Y-56868740D01*
X140636161Y-56872058D01*
X140631008Y-56874193D01*
X140619643Y-56883521D01*
X140524405Y-56978759D01*
X140519686Y-56984508D01*
X140518188Y-56985808D01*
X140516766Y-56988067D01*
X140515078Y-56990124D01*
X140514320Y-56991951D01*
X140510356Y-56998251D01*
X140462737Y-57093489D01*
X140457482Y-57107221D01*
X140457291Y-57109908D01*
X140456260Y-57112398D01*
X140454819Y-57127030D01*
X140343708Y-57127030D01*
X140343708Y-55874303D01*
X140456260Y-55874303D01*
X140456260Y-55903567D01*
X140467459Y-55930603D01*
X140488151Y-55951295D01*
X140515187Y-55962494D01*
X140529819Y-55963935D01*
X141321637Y-55963935D01*
X141390153Y-55998193D01*
X141420561Y-56028600D01*
X141454819Y-56097116D01*
X141454819Y-56252182D01*
X141420561Y-56320697D01*
X141390153Y-56351104D01*
X141321637Y-56385363D01*
X140529819Y-56385363D01*
X140515187Y-56386804D01*
X140488151Y-56398003D01*
X140467459Y-56418695D01*
X140456260Y-56445731D01*
X140456260Y-56474995D01*
X140467459Y-56502031D01*
X140488151Y-56522723D01*
X140515187Y-56533922D01*
X140529819Y-56535363D01*
X141339342Y-56535363D01*
X141353974Y-56533922D01*
X141356463Y-56532890D01*
X141359151Y-56532700D01*
X141372883Y-56527445D01*
X141468121Y-56479826D01*
X141474417Y-56475862D01*
X141476247Y-56475105D01*
X141478305Y-56473415D01*
X141480564Y-56471994D01*
X141481863Y-56470495D01*
X141487612Y-56465778D01*
X141535232Y-56418159D01*
X141539950Y-56412409D01*
X141541450Y-56411109D01*
X141542872Y-56408849D01*
X141544560Y-56406793D01*
X141545317Y-56404965D01*
X141549282Y-56398666D01*
X141596901Y-56303428D01*
X141602156Y-56289697D01*
X141602347Y-56287007D01*
X141603378Y-56284519D01*
X141604819Y-56269887D01*
X141604819Y-56079411D01*
X141603378Y-56064779D01*
X141602347Y-56062290D01*
X141602156Y-56059601D01*
X141596901Y-56045870D01*
X141549282Y-55950632D01*
X141545317Y-55944332D01*
X141544560Y-55942505D01*
X141542872Y-55940448D01*
X141541450Y-55938189D01*
X141539950Y-55936888D01*
X141535232Y-55931139D01*
X141487612Y-55883520D01*
X141481863Y-55878802D01*
X141480564Y-55877304D01*
X141478305Y-55875882D01*
X141476247Y-55874193D01*
X141474417Y-55873435D01*
X141468121Y-55869472D01*
X141372883Y-55821853D01*
X141359151Y-55816598D01*
X141356463Y-55816407D01*
X141353974Y-55815376D01*
X141339342Y-55813935D01*
X140529819Y-55813935D01*
X140515187Y-55815376D01*
X140488151Y-55826575D01*
X140467459Y-55847267D01*
X140456260Y-55874303D01*
X140343708Y-55874303D01*
X140343708Y-54984173D01*
X140454819Y-54984173D01*
X140454819Y-55555601D01*
X140456260Y-55570233D01*
X140467459Y-55597269D01*
X140488151Y-55617961D01*
X140515187Y-55629160D01*
X140544451Y-55629160D01*
X140571487Y-55617961D01*
X140592179Y-55597269D01*
X140603378Y-55570233D01*
X140604819Y-55555601D01*
X140604819Y-55344887D01*
X141529819Y-55344887D01*
X141544451Y-55343446D01*
X141571487Y-55332247D01*
X141592179Y-55311555D01*
X141603378Y-55284519D01*
X141603378Y-55255255D01*
X141592179Y-55228219D01*
X141571487Y-55207527D01*
X141544451Y-55196328D01*
X141529819Y-55194887D01*
X140604819Y-55194887D01*
X140604819Y-54984173D01*
X140603378Y-54969541D01*
X140592179Y-54942505D01*
X140571487Y-54921813D01*
X140544451Y-54910614D01*
X140515187Y-54910614D01*
X140488151Y-54921813D01*
X140467459Y-54942505D01*
X140456260Y-54969541D01*
X140454819Y-54984173D01*
X140343708Y-54984173D01*
X140343708Y-54799503D01*
X141715930Y-54799503D01*
X141715930Y-60931599D01*
G37*
X141590414Y-63584173D02*
X141590414Y-63119887D01*
X141590414Y-63119887D02*
X141876128Y-63369887D01*
X141876128Y-63369887D02*
X141876128Y-63262744D01*
X141876128Y-63262744D02*
X141911842Y-63191316D01*
X141911842Y-63191316D02*
X141947557Y-63155601D01*
X141947557Y-63155601D02*
X142018985Y-63119887D01*
X142018985Y-63119887D02*
X142197557Y-63119887D01*
X142197557Y-63119887D02*
X142268985Y-63155601D01*
X142268985Y-63155601D02*
X142304700Y-63191316D01*
X142304700Y-63191316D02*
X142340414Y-63262744D01*
X142340414Y-63262744D02*
X142340414Y-63477030D01*
X142340414Y-63477030D02*
X142304700Y-63548458D01*
X142304700Y-63548458D02*
X142268985Y-63584173D01*
X141840414Y-62869887D02*
X142340414Y-62691315D01*
X142340414Y-62691315D02*
X141840414Y-62512744D01*
X141590414Y-62298458D02*
X141590414Y-61834172D01*
X141590414Y-61834172D02*
X141876128Y-62084172D01*
X141876128Y-62084172D02*
X141876128Y-61977029D01*
X141876128Y-61977029D02*
X141911842Y-61905601D01*
X141911842Y-61905601D02*
X141947557Y-61869886D01*
X141947557Y-61869886D02*
X142018985Y-61834172D01*
X142018985Y-61834172D02*
X142197557Y-61834172D01*
X142197557Y-61834172D02*
X142268985Y-61869886D01*
X142268985Y-61869886D02*
X142304700Y-61905601D01*
X142304700Y-61905601D02*
X142340414Y-61977029D01*
X142340414Y-61977029D02*
X142340414Y-62191315D01*
X142340414Y-62191315D02*
X142304700Y-62262743D01*
X142304700Y-62262743D02*
X142268985Y-62298458D01*
X106253333Y-61164819D02*
X105920000Y-60688628D01*
X105681905Y-61164819D02*
X105681905Y-60164819D01*
X105681905Y-60164819D02*
X106062857Y-60164819D01*
X106062857Y-60164819D02*
X106158095Y-60212438D01*
X106158095Y-60212438D02*
X106205714Y-60260057D01*
X106205714Y-60260057D02*
X106253333Y-60355295D01*
X106253333Y-60355295D02*
X106253333Y-60498152D01*
X106253333Y-60498152D02*
X106205714Y-60593390D01*
X106205714Y-60593390D02*
X106158095Y-60641009D01*
X106158095Y-60641009D02*
X106062857Y-60688628D01*
X106062857Y-60688628D02*
X105681905Y-60688628D01*
X107110476Y-60498152D02*
X107110476Y-61164819D01*
X106872381Y-60117200D02*
X106634286Y-60831485D01*
X106634286Y-60831485D02*
X107253333Y-60831485D01*
X111161905Y-64914819D02*
X111161905Y-63914819D01*
X111161905Y-63914819D02*
X111400000Y-63914819D01*
X111400000Y-63914819D02*
X111542857Y-63962438D01*
X111542857Y-63962438D02*
X111638095Y-64057676D01*
X111638095Y-64057676D02*
X111685714Y-64152914D01*
X111685714Y-64152914D02*
X111733333Y-64343390D01*
X111733333Y-64343390D02*
X111733333Y-64486247D01*
X111733333Y-64486247D02*
X111685714Y-64676723D01*
X111685714Y-64676723D02*
X111638095Y-64771961D01*
X111638095Y-64771961D02*
X111542857Y-64867200D01*
X111542857Y-64867200D02*
X111400000Y-64914819D01*
X111400000Y-64914819D02*
X111161905Y-64914819D01*
X112685714Y-64914819D02*
X112114286Y-64914819D01*
X112400000Y-64914819D02*
X112400000Y-63914819D01*
X112400000Y-63914819D02*
X112304762Y-64057676D01*
X112304762Y-64057676D02*
X112209524Y-64152914D01*
X112209524Y-64152914D02*
X112114286Y-64200533D01*
X93723187Y-65834819D02*
X93723187Y-64834819D01*
X93723187Y-65311009D02*
X94294615Y-65311009D01*
X94294615Y-65834819D02*
X94294615Y-64834819D01*
X95199377Y-64834819D02*
X95008901Y-64834819D01*
X95008901Y-64834819D02*
X94913663Y-64882438D01*
X94913663Y-64882438D02*
X94866044Y-64930057D01*
X94866044Y-64930057D02*
X94770806Y-65072914D01*
X94770806Y-65072914D02*
X94723187Y-65263390D01*
X94723187Y-65263390D02*
X94723187Y-65644342D01*
X94723187Y-65644342D02*
X94770806Y-65739580D01*
X94770806Y-65739580D02*
X94818425Y-65787200D01*
X94818425Y-65787200D02*
X94913663Y-65834819D01*
X94913663Y-65834819D02*
X95104139Y-65834819D01*
X95104139Y-65834819D02*
X95199377Y-65787200D01*
X95199377Y-65787200D02*
X95246996Y-65739580D01*
X95246996Y-65739580D02*
X95294615Y-65644342D01*
X95294615Y-65644342D02*
X95294615Y-65406247D01*
X95294615Y-65406247D02*
X95246996Y-65311009D01*
X95246996Y-65311009D02*
X95199377Y-65263390D01*
X95199377Y-65263390D02*
X95104139Y-65215771D01*
X95104139Y-65215771D02*
X94913663Y-65215771D01*
X94913663Y-65215771D02*
X94818425Y-65263390D01*
X94818425Y-65263390D02*
X94770806Y-65311009D01*
X94770806Y-65311009D02*
X94723187Y-65406247D01*
X123810476Y-41345390D02*
X123734286Y-41307295D01*
X123734286Y-41307295D02*
X123620000Y-41307295D01*
X123620000Y-41307295D02*
X123505714Y-41345390D01*
X123505714Y-41345390D02*
X123429524Y-41421580D01*
X123429524Y-41421580D02*
X123391429Y-41497771D01*
X123391429Y-41497771D02*
X123353333Y-41650152D01*
X123353333Y-41650152D02*
X123353333Y-41764438D01*
X123353333Y-41764438D02*
X123391429Y-41916819D01*
X123391429Y-41916819D02*
X123429524Y-41993009D01*
X123429524Y-41993009D02*
X123505714Y-42069200D01*
X123505714Y-42069200D02*
X123620000Y-42107295D01*
X123620000Y-42107295D02*
X123696191Y-42107295D01*
X123696191Y-42107295D02*
X123810476Y-42069200D01*
X123810476Y-42069200D02*
X123848572Y-42031104D01*
X123848572Y-42031104D02*
X123848572Y-41764438D01*
X123848572Y-41764438D02*
X123696191Y-41764438D01*
X124191429Y-42107295D02*
X124191429Y-41307295D01*
X124191429Y-41307295D02*
X124648572Y-42107295D01*
X124648572Y-42107295D02*
X124648572Y-41307295D01*
X125029524Y-42107295D02*
X125029524Y-41307295D01*
X125029524Y-41307295D02*
X125220000Y-41307295D01*
X125220000Y-41307295D02*
X125334286Y-41345390D01*
X125334286Y-41345390D02*
X125410476Y-41421580D01*
X125410476Y-41421580D02*
X125448571Y-41497771D01*
X125448571Y-41497771D02*
X125486667Y-41650152D01*
X125486667Y-41650152D02*
X125486667Y-41764438D01*
X125486667Y-41764438D02*
X125448571Y-41916819D01*
X125448571Y-41916819D02*
X125410476Y-41993009D01*
X125410476Y-41993009D02*
X125334286Y-42069200D01*
X125334286Y-42069200D02*
X125220000Y-42107295D01*
X125220000Y-42107295D02*
X125029524Y-42107295D01*
X133970476Y-43885390D02*
X133894286Y-43847295D01*
X133894286Y-43847295D02*
X133780000Y-43847295D01*
X133780000Y-43847295D02*
X133665714Y-43885390D01*
X133665714Y-43885390D02*
X133589524Y-43961580D01*
X133589524Y-43961580D02*
X133551429Y-44037771D01*
X133551429Y-44037771D02*
X133513333Y-44190152D01*
X133513333Y-44190152D02*
X133513333Y-44304438D01*
X133513333Y-44304438D02*
X133551429Y-44456819D01*
X133551429Y-44456819D02*
X133589524Y-44533009D01*
X133589524Y-44533009D02*
X133665714Y-44609200D01*
X133665714Y-44609200D02*
X133780000Y-44647295D01*
X133780000Y-44647295D02*
X133856191Y-44647295D01*
X133856191Y-44647295D02*
X133970476Y-44609200D01*
X133970476Y-44609200D02*
X134008572Y-44571104D01*
X134008572Y-44571104D02*
X134008572Y-44304438D01*
X134008572Y-44304438D02*
X133856191Y-44304438D01*
X134351429Y-44647295D02*
X134351429Y-43847295D01*
X134351429Y-43847295D02*
X134808572Y-44647295D01*
X134808572Y-44647295D02*
X134808572Y-43847295D01*
X135189524Y-44647295D02*
X135189524Y-43847295D01*
X135189524Y-43847295D02*
X135380000Y-43847295D01*
X135380000Y-43847295D02*
X135494286Y-43885390D01*
X135494286Y-43885390D02*
X135570476Y-43961580D01*
X135570476Y-43961580D02*
X135608571Y-44037771D01*
X135608571Y-44037771D02*
X135646667Y-44190152D01*
X135646667Y-44190152D02*
X135646667Y-44304438D01*
X135646667Y-44304438D02*
X135608571Y-44456819D01*
X135608571Y-44456819D02*
X135570476Y-44533009D01*
X135570476Y-44533009D02*
X135494286Y-44609200D01*
X135494286Y-44609200D02*
X135380000Y-44647295D01*
X135380000Y-44647295D02*
X135189524Y-44647295D01*
X133970476Y-46425390D02*
X133894286Y-46387295D01*
X133894286Y-46387295D02*
X133780000Y-46387295D01*
X133780000Y-46387295D02*
X133665714Y-46425390D01*
X133665714Y-46425390D02*
X133589524Y-46501580D01*
X133589524Y-46501580D02*
X133551429Y-46577771D01*
X133551429Y-46577771D02*
X133513333Y-46730152D01*
X133513333Y-46730152D02*
X133513333Y-46844438D01*
X133513333Y-46844438D02*
X133551429Y-46996819D01*
X133551429Y-46996819D02*
X133589524Y-47073009D01*
X133589524Y-47073009D02*
X133665714Y-47149200D01*
X133665714Y-47149200D02*
X133780000Y-47187295D01*
X133780000Y-47187295D02*
X133856191Y-47187295D01*
X133856191Y-47187295D02*
X133970476Y-47149200D01*
X133970476Y-47149200D02*
X134008572Y-47111104D01*
X134008572Y-47111104D02*
X134008572Y-46844438D01*
X134008572Y-46844438D02*
X133856191Y-46844438D01*
X134351429Y-47187295D02*
X134351429Y-46387295D01*
X134351429Y-46387295D02*
X134808572Y-47187295D01*
X134808572Y-47187295D02*
X134808572Y-46387295D01*
X135189524Y-47187295D02*
X135189524Y-46387295D01*
X135189524Y-46387295D02*
X135380000Y-46387295D01*
X135380000Y-46387295D02*
X135494286Y-46425390D01*
X135494286Y-46425390D02*
X135570476Y-46501580D01*
X135570476Y-46501580D02*
X135608571Y-46577771D01*
X135608571Y-46577771D02*
X135646667Y-46730152D01*
X135646667Y-46730152D02*
X135646667Y-46844438D01*
X135646667Y-46844438D02*
X135608571Y-46996819D01*
X135608571Y-46996819D02*
X135570476Y-47073009D01*
X135570476Y-47073009D02*
X135494286Y-47149200D01*
X135494286Y-47149200D02*
X135380000Y-47187295D01*
X135380000Y-47187295D02*
X135189524Y-47187295D01*
X123981905Y-44647295D02*
X123715238Y-44266342D01*
X123524762Y-44647295D02*
X123524762Y-43847295D01*
X123524762Y-43847295D02*
X123829524Y-43847295D01*
X123829524Y-43847295D02*
X123905714Y-43885390D01*
X123905714Y-43885390D02*
X123943809Y-43923485D01*
X123943809Y-43923485D02*
X123981905Y-43999676D01*
X123981905Y-43999676D02*
X123981905Y-44113961D01*
X123981905Y-44113961D02*
X123943809Y-44190152D01*
X123943809Y-44190152D02*
X123905714Y-44228247D01*
X123905714Y-44228247D02*
X123829524Y-44266342D01*
X123829524Y-44266342D02*
X123524762Y-44266342D01*
X124286666Y-44609200D02*
X124400952Y-44647295D01*
X124400952Y-44647295D02*
X124591428Y-44647295D01*
X124591428Y-44647295D02*
X124667619Y-44609200D01*
X124667619Y-44609200D02*
X124705714Y-44571104D01*
X124705714Y-44571104D02*
X124743809Y-44494914D01*
X124743809Y-44494914D02*
X124743809Y-44418723D01*
X124743809Y-44418723D02*
X124705714Y-44342533D01*
X124705714Y-44342533D02*
X124667619Y-44304438D01*
X124667619Y-44304438D02*
X124591428Y-44266342D01*
X124591428Y-44266342D02*
X124439047Y-44228247D01*
X124439047Y-44228247D02*
X124362857Y-44190152D01*
X124362857Y-44190152D02*
X124324762Y-44152057D01*
X124324762Y-44152057D02*
X124286666Y-44075866D01*
X124286666Y-44075866D02*
X124286666Y-43999676D01*
X124286666Y-43999676D02*
X124324762Y-43923485D01*
X124324762Y-43923485D02*
X124362857Y-43885390D01*
X124362857Y-43885390D02*
X124439047Y-43847295D01*
X124439047Y-43847295D02*
X124629524Y-43847295D01*
X124629524Y-43847295D02*
X124743809Y-43885390D01*
X124972381Y-43847295D02*
X125429524Y-43847295D01*
X125200952Y-44647295D02*
X125200952Y-43847295D01*
X123353333Y-46387295D02*
X123620000Y-47187295D01*
X123620000Y-47187295D02*
X123886666Y-46387295D01*
X124610476Y-47111104D02*
X124572380Y-47149200D01*
X124572380Y-47149200D02*
X124458095Y-47187295D01*
X124458095Y-47187295D02*
X124381904Y-47187295D01*
X124381904Y-47187295D02*
X124267618Y-47149200D01*
X124267618Y-47149200D02*
X124191428Y-47073009D01*
X124191428Y-47073009D02*
X124153333Y-46996819D01*
X124153333Y-46996819D02*
X124115237Y-46844438D01*
X124115237Y-46844438D02*
X124115237Y-46730152D01*
X124115237Y-46730152D02*
X124153333Y-46577771D01*
X124153333Y-46577771D02*
X124191428Y-46501580D01*
X124191428Y-46501580D02*
X124267618Y-46425390D01*
X124267618Y-46425390D02*
X124381904Y-46387295D01*
X124381904Y-46387295D02*
X124458095Y-46387295D01*
X124458095Y-46387295D02*
X124572380Y-46425390D01*
X124572380Y-46425390D02*
X124610476Y-46463485D01*
X125410476Y-47111104D02*
X125372380Y-47149200D01*
X125372380Y-47149200D02*
X125258095Y-47187295D01*
X125258095Y-47187295D02*
X125181904Y-47187295D01*
X125181904Y-47187295D02*
X125067618Y-47149200D01*
X125067618Y-47149200D02*
X124991428Y-47073009D01*
X124991428Y-47073009D02*
X124953333Y-46996819D01*
X124953333Y-46996819D02*
X124915237Y-46844438D01*
X124915237Y-46844438D02*
X124915237Y-46730152D01*
X124915237Y-46730152D02*
X124953333Y-46577771D01*
X124953333Y-46577771D02*
X124991428Y-46501580D01*
X124991428Y-46501580D02*
X125067618Y-46425390D01*
X125067618Y-46425390D02*
X125181904Y-46387295D01*
X125181904Y-46387295D02*
X125258095Y-46387295D01*
X125258095Y-46387295D02*
X125372380Y-46425390D01*
X125372380Y-46425390D02*
X125410476Y-46463485D01*
X123867619Y-39567295D02*
X123600952Y-39186342D01*
X123410476Y-39567295D02*
X123410476Y-38767295D01*
X123410476Y-38767295D02*
X123715238Y-38767295D01*
X123715238Y-38767295D02*
X123791428Y-38805390D01*
X123791428Y-38805390D02*
X123829523Y-38843485D01*
X123829523Y-38843485D02*
X123867619Y-38919676D01*
X123867619Y-38919676D02*
X123867619Y-39033961D01*
X123867619Y-39033961D02*
X123829523Y-39110152D01*
X123829523Y-39110152D02*
X123791428Y-39148247D01*
X123791428Y-39148247D02*
X123715238Y-39186342D01*
X123715238Y-39186342D02*
X123410476Y-39186342D01*
X124172380Y-39338723D02*
X124553333Y-39338723D01*
X124096190Y-39567295D02*
X124362857Y-38767295D01*
X124362857Y-38767295D02*
X124629523Y-39567295D01*
X124819999Y-38767295D02*
X125010475Y-39567295D01*
X125010475Y-39567295D02*
X125162856Y-38995866D01*
X125162856Y-38995866D02*
X125315237Y-39567295D01*
X125315237Y-39567295D02*
X125505714Y-38767295D01*
D11*
%TO.C,J11*%
X128100000Y-73920000D02*
X130469000Y-73920000D01*
X128100000Y-75581000D02*
X128100000Y-73920000D01*
X128100000Y-80415000D02*
X128100000Y-78032000D01*
X139100000Y-73920000D02*
X136731000Y-73920000D01*
X139100000Y-75581000D02*
X139100000Y-73920000D01*
X139100000Y-80415000D02*
X128100000Y-80415000D01*
X139100000Y-80415000D02*
X139100000Y-78032000D01*
X130298000Y-73412000D02*
G75*
G02*
X130044000Y-73412000I-127000J0D01*
G01*
X130044000Y-73412000D02*
G75*
G02*
X130298000Y-73412000I127000J0D01*
G01*
%TO.C,J16*%
X140100000Y-73920000D02*
X142469000Y-73920000D01*
X140100000Y-75581000D02*
X140100000Y-73920000D01*
X140100000Y-80415000D02*
X140100000Y-78032000D01*
X151100000Y-73920000D02*
X148731000Y-73920000D01*
X151100000Y-75581000D02*
X151100000Y-73920000D01*
X151100000Y-80415000D02*
X140100000Y-80415000D01*
X151100000Y-80415000D02*
X151100000Y-78032000D01*
X142298000Y-73412000D02*
G75*
G02*
X142044000Y-73412000I-127000J0D01*
G01*
X142044000Y-73412000D02*
G75*
G02*
X142298000Y-73412000I127000J0D01*
G01*
D12*
%TO.C,kibuzzard-6399CBD2*%
G36*
X109905056Y-69700500D02*
G01*
X109975899Y-69729671D01*
X110021738Y-69777891D01*
X110037017Y-69844764D01*
X110021738Y-69913225D01*
X109975899Y-69959858D01*
X109905056Y-69986647D01*
X109814767Y-69995577D01*
X109724280Y-69985854D01*
X109652842Y-69956683D01*
X109606408Y-69908463D01*
X109590930Y-69841589D01*
X109606408Y-69773129D01*
X109652842Y-69726496D01*
X109724280Y-69699707D01*
X109814767Y-69690777D01*
X109905056Y-69700500D01*
G37*
G36*
X110600051Y-68695414D02*
G01*
X110600051Y-71749764D01*
X110600051Y-71815910D01*
X109977486Y-72230953D01*
X109354921Y-71815910D01*
X109354921Y-71749764D01*
X109354921Y-71371939D01*
X109421067Y-71371939D01*
X109426822Y-71463618D01*
X109444086Y-71541802D01*
X109471867Y-71606889D01*
X109509173Y-71659277D01*
X109608392Y-71727539D01*
X109733805Y-71749764D01*
X109813577Y-71739247D01*
X109881442Y-71707696D01*
X109935814Y-71657094D01*
X109975105Y-71589427D01*
X110057655Y-71678327D01*
X110170367Y-71711664D01*
X110279905Y-71692614D01*
X110368011Y-71633877D01*
X110425955Y-71533071D01*
X110441433Y-71466594D01*
X110446592Y-71389402D01*
X110439250Y-71305066D01*
X110417224Y-71229858D01*
X110359280Y-71116352D01*
X110216405Y-71186202D01*
X110261649Y-71280658D01*
X110279905Y-71390989D01*
X110248949Y-71480683D01*
X110164017Y-71513227D01*
X110103692Y-71498146D01*
X110065592Y-71459252D01*
X110044955Y-71405277D01*
X110038605Y-71344952D01*
X110038605Y-71271927D01*
X109876680Y-71271927D01*
X109876680Y-71332252D01*
X109868941Y-71419168D01*
X109845724Y-71489414D01*
X109803059Y-71535849D01*
X109736980Y-71551327D01*
X109630617Y-71510846D01*
X109598470Y-71455482D01*
X109587755Y-71370352D01*
X109592120Y-71295144D01*
X109605217Y-71231446D01*
X109638555Y-71136989D01*
X109475042Y-71098889D01*
X109457580Y-71148102D01*
X109440117Y-71217158D01*
X109426623Y-71294946D01*
X109421067Y-71371939D01*
X109354921Y-71371939D01*
X109354921Y-70762339D01*
X109424242Y-70762339D01*
X109430592Y-70850446D01*
X109445673Y-70916327D01*
X109462342Y-70959983D01*
X109473455Y-70981414D01*
X109630617Y-70956014D01*
X109609980Y-70903627D01*
X109594105Y-70805202D01*
X109621092Y-70729002D01*
X109724280Y-70698839D01*
X110533905Y-70698839D01*
X110533905Y-70297202D01*
X110371980Y-70297202D01*
X110371980Y-70503577D01*
X109738567Y-70503577D01*
X109603034Y-70519055D01*
X109504411Y-70565489D01*
X109444284Y-70645658D01*
X109424242Y-70762339D01*
X109354921Y-70762339D01*
X109354921Y-69844764D01*
X109421067Y-69844764D01*
X109428211Y-69920369D01*
X109449642Y-69988433D01*
X109484170Y-70048163D01*
X109530605Y-70098764D01*
X109587953Y-70139643D01*
X109655224Y-70170202D01*
X109731622Y-70189252D01*
X109816355Y-70195602D01*
X109899897Y-70189252D01*
X109975899Y-70170202D01*
X110042970Y-70139444D01*
X110099724Y-70097971D01*
X110145364Y-70046774D01*
X110179099Y-69986846D01*
X110199934Y-69919179D01*
X110206880Y-69844764D01*
X110199934Y-69771343D01*
X110179099Y-69703477D01*
X110145364Y-69642954D01*
X110099724Y-69591558D01*
X110042970Y-69549886D01*
X109975899Y-69518533D01*
X109899897Y-69498888D01*
X109816355Y-69492339D01*
X109731622Y-69498689D01*
X109655224Y-69517739D01*
X109587953Y-69548497D01*
X109530605Y-69589971D01*
X109484170Y-69641168D01*
X109449642Y-69701096D01*
X109428211Y-69769160D01*
X109421067Y-69844764D01*
X109354921Y-69844764D01*
X109354921Y-69122452D01*
X109421067Y-69122452D01*
X109426425Y-69209169D01*
X109442498Y-69285171D01*
X109489330Y-69397089D01*
X109643317Y-69347877D01*
X109608392Y-69267708D01*
X109590930Y-69141502D01*
X109613353Y-69028194D01*
X109680624Y-68951796D01*
X109749151Y-68919605D01*
X109835140Y-68900290D01*
X109938592Y-68893852D01*
X110027492Y-68899210D01*
X110100517Y-68915283D01*
X110204499Y-68970846D01*
X110260061Y-69048633D01*
X110276730Y-69138327D01*
X110260061Y-69256596D01*
X110219580Y-69344702D01*
X110375155Y-69395502D01*
X110394205Y-69362958D01*
X110418017Y-69309777D01*
X110437861Y-69235958D01*
X110446592Y-69141502D01*
X110438059Y-69048435D01*
X110412461Y-68962908D01*
X110370392Y-68886708D01*
X110312449Y-68821621D01*
X110239225Y-68768638D01*
X110151317Y-68728752D01*
X110049320Y-68703749D01*
X109933830Y-68695414D01*
X109817843Y-68702261D01*
X109715945Y-68722799D01*
X109628137Y-68757029D01*
X109554417Y-68804952D01*
X109480334Y-68888913D01*
X109435884Y-68994746D01*
X109421067Y-69122452D01*
X109354921Y-69122452D01*
X109354921Y-68695414D01*
X109354921Y-68629269D01*
X110600051Y-68629269D01*
X110600051Y-68695414D01*
G37*
D13*
%TO.C,R1*%
X104421000Y-53162564D02*
X104421000Y-52708436D01*
X105891000Y-53162564D02*
X105891000Y-52708436D01*
%TO.C,D2*%
X104390000Y-51200000D02*
X104390000Y-45100000D01*
X105490000Y-51200000D02*
X104390000Y-51200000D01*
X109790000Y-45100000D02*
X109790000Y-50100000D01*
D12*
%TO.C,kibuzzard-6399CBDB*%
G36*
X97924305Y-71292564D02*
G01*
X98015586Y-71348921D01*
X98102105Y-71408452D01*
X98179892Y-71467189D01*
X97833817Y-71467189D01*
X97833817Y-71244939D01*
X97924305Y-71292564D01*
G37*
G36*
X97905056Y-69681450D02*
G01*
X97975899Y-69710621D01*
X98021738Y-69758841D01*
X98037017Y-69825714D01*
X98021738Y-69894175D01*
X97975899Y-69940808D01*
X97905056Y-69967597D01*
X97814767Y-69976527D01*
X97724280Y-69966804D01*
X97652842Y-69937633D01*
X97606408Y-69889413D01*
X97590930Y-69822539D01*
X97606408Y-69754079D01*
X97652842Y-69707446D01*
X97724280Y-69680657D01*
X97814767Y-69671727D01*
X97905056Y-69681450D01*
G37*
G36*
X98600051Y-68676364D02*
G01*
X98600051Y-71768814D01*
X98600051Y-71834960D01*
X97977486Y-72250003D01*
X97354921Y-71834960D01*
X97354921Y-71768814D01*
X97354921Y-71662452D01*
X97354921Y-71467189D01*
X97441705Y-71467189D01*
X97441705Y-71662452D01*
X97673480Y-71662452D01*
X97673480Y-71768814D01*
X97833817Y-71768814D01*
X97833817Y-71662452D01*
X98424367Y-71662452D01*
X98424367Y-71487827D01*
X98356700Y-71424327D01*
X98280699Y-71360827D01*
X98199934Y-71298914D01*
X98117980Y-71240177D01*
X98036422Y-71185408D01*
X97956849Y-71135402D01*
X97882434Y-71092143D01*
X97816355Y-71057614D01*
X97673480Y-71057614D01*
X97673480Y-71467189D01*
X97441705Y-71467189D01*
X97354921Y-71467189D01*
X97354921Y-70743289D01*
X97424242Y-70743289D01*
X97430592Y-70831396D01*
X97445673Y-70897277D01*
X97462342Y-70940933D01*
X97473455Y-70962364D01*
X97630617Y-70936964D01*
X97609980Y-70884577D01*
X97594105Y-70786152D01*
X97621092Y-70709952D01*
X97724280Y-70679789D01*
X98533905Y-70679789D01*
X98533905Y-70278152D01*
X98371980Y-70278152D01*
X98371980Y-70484527D01*
X97738567Y-70484527D01*
X97603034Y-70500005D01*
X97504411Y-70546439D01*
X97444284Y-70626608D01*
X97424242Y-70743289D01*
X97354921Y-70743289D01*
X97354921Y-69825714D01*
X97421067Y-69825714D01*
X97428211Y-69901319D01*
X97449642Y-69969383D01*
X97484170Y-70029113D01*
X97530605Y-70079714D01*
X97587953Y-70120593D01*
X97655224Y-70151152D01*
X97731622Y-70170202D01*
X97816355Y-70176552D01*
X97899897Y-70170202D01*
X97975899Y-70151152D01*
X98042970Y-70120394D01*
X98099724Y-70078921D01*
X98145364Y-70027724D01*
X98179099Y-69967796D01*
X98199934Y-69900129D01*
X98206880Y-69825714D01*
X98199934Y-69752293D01*
X98179099Y-69684427D01*
X98145364Y-69623904D01*
X98099724Y-69572508D01*
X98042970Y-69530836D01*
X97975899Y-69499483D01*
X97899897Y-69479838D01*
X97816355Y-69473289D01*
X97731622Y-69479639D01*
X97655224Y-69498689D01*
X97587953Y-69529447D01*
X97530605Y-69570921D01*
X97484170Y-69622118D01*
X97449642Y-69682046D01*
X97428211Y-69750110D01*
X97421067Y-69825714D01*
X97354921Y-69825714D01*
X97354921Y-69103402D01*
X97421067Y-69103402D01*
X97426425Y-69190119D01*
X97442498Y-69266121D01*
X97489330Y-69378039D01*
X97643317Y-69328827D01*
X97608392Y-69248658D01*
X97590930Y-69122452D01*
X97613353Y-69009144D01*
X97680624Y-68932746D01*
X97749151Y-68900555D01*
X97835140Y-68881240D01*
X97938592Y-68874802D01*
X98027492Y-68880160D01*
X98100517Y-68896233D01*
X98204499Y-68951796D01*
X98260061Y-69029583D01*
X98276730Y-69119277D01*
X98260061Y-69237546D01*
X98219580Y-69325652D01*
X98375155Y-69376452D01*
X98394205Y-69343908D01*
X98418017Y-69290727D01*
X98437861Y-69216908D01*
X98446592Y-69122452D01*
X98438059Y-69029385D01*
X98412461Y-68943858D01*
X98370392Y-68867658D01*
X98312449Y-68802571D01*
X98239225Y-68749588D01*
X98151317Y-68709702D01*
X98049320Y-68684699D01*
X97933830Y-68676364D01*
X97817843Y-68683211D01*
X97715945Y-68703749D01*
X97628137Y-68737979D01*
X97554417Y-68785902D01*
X97480334Y-68869863D01*
X97435884Y-68975696D01*
X97421067Y-69103402D01*
X97354921Y-69103402D01*
X97354921Y-68676364D01*
X97354921Y-68610219D01*
X98600051Y-68610219D01*
X98600051Y-68676364D01*
G37*
D13*
%TO.C,R5*%
X106198936Y-59717000D02*
X106653064Y-59717000D01*
X106198936Y-61187000D02*
X106653064Y-61187000D01*
D12*
%TO.C,kibuzzard-6399CBC9*%
G36*
X121905056Y-69691769D02*
G01*
X121975899Y-69720939D01*
X122021738Y-69769160D01*
X122037017Y-69836033D01*
X122021738Y-69904494D01*
X121975899Y-69951127D01*
X121905056Y-69977916D01*
X121814767Y-69986846D01*
X121724280Y-69977122D01*
X121652842Y-69947952D01*
X121606408Y-69899732D01*
X121590930Y-69832858D01*
X121606408Y-69764397D01*
X121652842Y-69717764D01*
X121724280Y-69690975D01*
X121814767Y-69682046D01*
X121905056Y-69691769D01*
G37*
G36*
X122600051Y-68686683D02*
G01*
X122600051Y-71758496D01*
X122600051Y-71824642D01*
X121977486Y-72239685D01*
X121354921Y-71824642D01*
X121354921Y-71758496D01*
X121354921Y-71117146D01*
X121441705Y-71117146D01*
X121441705Y-71758496D01*
X121603630Y-71758496D01*
X121603630Y-71336221D01*
X121656017Y-71352889D01*
X121712373Y-71393371D01*
X121766349Y-71444171D01*
X121811592Y-71491796D01*
X121890967Y-71572758D01*
X121976692Y-71644196D01*
X122067974Y-71694996D01*
X122165605Y-71714046D01*
X122288636Y-71688646D01*
X122376742Y-71620383D01*
X122429130Y-71521958D01*
X122446592Y-71406071D01*
X122438655Y-71323322D01*
X122414842Y-71240177D01*
X122374361Y-71161794D01*
X122316417Y-71093333D01*
X122179892Y-71190171D01*
X122254505Y-71290183D01*
X122276730Y-71387021D01*
X122244186Y-71479096D01*
X122151317Y-71515608D01*
X122067180Y-71486239D01*
X121981455Y-71411627D01*
X121936013Y-71364796D01*
X121888586Y-71314789D01*
X121838183Y-71264783D01*
X121783811Y-71217952D01*
X121724875Y-71176677D01*
X121660780Y-71143339D01*
X121590930Y-71121313D01*
X121514730Y-71113971D01*
X121481392Y-71113177D01*
X121441705Y-71117146D01*
X121354921Y-71117146D01*
X121354921Y-70753608D01*
X121424242Y-70753608D01*
X121430592Y-70841714D01*
X121445673Y-70907596D01*
X121462342Y-70951252D01*
X121473455Y-70972683D01*
X121630617Y-70947283D01*
X121609980Y-70894896D01*
X121594105Y-70796471D01*
X121621092Y-70720271D01*
X121724280Y-70690108D01*
X122533905Y-70690108D01*
X122533905Y-70288471D01*
X122371980Y-70288471D01*
X122371980Y-70494846D01*
X121738567Y-70494846D01*
X121603034Y-70510324D01*
X121504411Y-70556758D01*
X121444284Y-70636927D01*
X121424242Y-70753608D01*
X121354921Y-70753608D01*
X121354921Y-69836033D01*
X121421067Y-69836033D01*
X121428211Y-69911638D01*
X121449642Y-69979702D01*
X121484170Y-70039432D01*
X121530605Y-70090033D01*
X121587953Y-70130911D01*
X121655224Y-70161471D01*
X121731622Y-70180521D01*
X121816355Y-70186871D01*
X121899897Y-70180521D01*
X121975899Y-70161471D01*
X122042970Y-70130713D01*
X122099724Y-70089239D01*
X122145364Y-70038043D01*
X122179099Y-69978114D01*
X122199934Y-69910447D01*
X122206880Y-69836033D01*
X122199934Y-69762611D01*
X122179099Y-69694746D01*
X122145364Y-69634222D01*
X122099724Y-69582827D01*
X122042970Y-69541155D01*
X121975899Y-69509802D01*
X121899897Y-69490157D01*
X121816355Y-69483608D01*
X121731622Y-69489958D01*
X121655224Y-69509008D01*
X121587953Y-69539766D01*
X121530605Y-69581239D01*
X121484170Y-69632436D01*
X121449642Y-69692364D01*
X121428211Y-69760429D01*
X121421067Y-69836033D01*
X121354921Y-69836033D01*
X121354921Y-69113721D01*
X121421067Y-69113721D01*
X121426425Y-69200438D01*
X121442498Y-69276439D01*
X121489330Y-69388358D01*
X121643317Y-69339146D01*
X121608392Y-69258977D01*
X121590930Y-69132771D01*
X121613353Y-69019463D01*
X121680624Y-68943064D01*
X121749151Y-68910873D01*
X121835140Y-68891559D01*
X121938592Y-68885121D01*
X122027492Y-68890479D01*
X122100517Y-68906552D01*
X122204499Y-68962114D01*
X122260061Y-69039902D01*
X122276730Y-69129596D01*
X122260061Y-69247864D01*
X122219580Y-69335971D01*
X122375155Y-69386771D01*
X122394205Y-69354227D01*
X122418017Y-69301046D01*
X122437861Y-69227227D01*
X122446592Y-69132771D01*
X122438059Y-69039704D01*
X122412461Y-68954177D01*
X122370392Y-68877977D01*
X122312449Y-68812889D01*
X122239225Y-68759907D01*
X122151317Y-68720021D01*
X122049320Y-68695018D01*
X121933830Y-68686683D01*
X121817843Y-68693529D01*
X121715945Y-68714068D01*
X121628137Y-68748298D01*
X121554417Y-68796221D01*
X121480334Y-68880182D01*
X121435884Y-68986015D01*
X121421067Y-69113721D01*
X121354921Y-69113721D01*
X121354921Y-68686683D01*
X121354921Y-68620537D01*
X122600051Y-68620537D01*
X122600051Y-68686683D01*
G37*
D13*
%TO.C,R3*%
X108306331Y-53166081D02*
X108306331Y-52711953D01*
X109776331Y-53166081D02*
X109776331Y-52711953D01*
D12*
%TO.C,kibuzzard-6399CC4D*%
G36*
X101871197Y-53311860D02*
G01*
X101824762Y-53494026D01*
X101671172Y-53561891D01*
X101565206Y-53538079D01*
X101500912Y-53477357D01*
X101469956Y-53392823D01*
X101461622Y-53295191D01*
X101464003Y-53222563D01*
X101471147Y-53154697D01*
X101871197Y-53154697D01*
X101871197Y-53311860D01*
G37*
G36*
X102459365Y-53218991D02*
G01*
X102461747Y-53288047D01*
X102455793Y-53366629D01*
X102431981Y-53433304D01*
X102381975Y-53478547D01*
X102297440Y-53495216D01*
X102162900Y-53438066D01*
X102114084Y-53268997D01*
X102114084Y-53154697D01*
X102452222Y-53154697D01*
X102459365Y-53218991D01*
G37*
G36*
X102815759Y-48030247D02*
G01*
X102815759Y-53850023D01*
X102815759Y-53949241D01*
X101095703Y-53949241D01*
X101095703Y-53850023D01*
X101095703Y-53271379D01*
X101206828Y-53271379D01*
X101212483Y-53388953D01*
X101229450Y-53498788D01*
X101259811Y-53597610D01*
X101305650Y-53682144D01*
X101448525Y-53804779D01*
X101548835Y-53838712D01*
X101671172Y-53850023D01*
X101771184Y-53836628D01*
X101866434Y-53796444D01*
X101949778Y-53718756D01*
X102014072Y-53592848D01*
X102142659Y-53729769D01*
X102229575Y-53768167D01*
X102328397Y-53780966D01*
X102466509Y-53759535D01*
X102591525Y-53678572D01*
X102682012Y-53514266D01*
X102707908Y-53394013D01*
X102716540Y-53242804D01*
X102705825Y-53045160D01*
X102680822Y-52861804D01*
X101249690Y-52861804D01*
X101230938Y-52964793D01*
X101217543Y-53068973D01*
X101209507Y-53171962D01*
X101206828Y-53271379D01*
X101095703Y-53271379D01*
X101095703Y-52678448D01*
X101095703Y-51597360D01*
X101225878Y-51597360D01*
X101225878Y-51866441D01*
X102371259Y-51854535D01*
X101747372Y-52028366D01*
X101747372Y-52242679D01*
X102371259Y-52423654D01*
X101225878Y-52409366D01*
X101225878Y-52678448D01*
X101414294Y-52673090D01*
X101598543Y-52666541D01*
X101780114Y-52658505D01*
X101960493Y-52648682D01*
X102141171Y-52636776D01*
X102323634Y-52622488D01*
X102509372Y-52606712D01*
X102699872Y-52590341D01*
X102699872Y-52347454D01*
X102573665Y-52304591D01*
X102410550Y-52252204D01*
X102229575Y-52192672D01*
X102047409Y-52133141D01*
X102218859Y-52078372D01*
X102402215Y-52021222D01*
X102571284Y-51967644D01*
X102699872Y-51925972D01*
X102699872Y-51683085D01*
X102538542Y-51667309D01*
X102364115Y-51653319D01*
X102180164Y-51641115D01*
X101990259Y-51630697D01*
X101796783Y-51621470D01*
X101602115Y-51612838D01*
X101410425Y-51604801D01*
X101225878Y-51597360D01*
X101095703Y-51597360D01*
X101095703Y-50942516D01*
X101194922Y-50942516D01*
X101204744Y-51075866D01*
X101234212Y-51185404D01*
X101282135Y-51273510D01*
X101347322Y-51342566D01*
X101428879Y-51393168D01*
X101525915Y-51425910D01*
X101636643Y-51443769D01*
X101759278Y-51449722D01*
X102699872Y-51449722D01*
X102699872Y-51156829D01*
X101780709Y-51156829D01*
X101624737Y-51147304D01*
X101522343Y-51113966D01*
X101466384Y-51049672D01*
X101449715Y-50947279D01*
X101466384Y-50844885D01*
X101521153Y-50781782D01*
X101622356Y-50749635D01*
X101778328Y-50740110D01*
X102699872Y-50740110D01*
X102699872Y-50444835D01*
X101759278Y-50444835D01*
X101636643Y-50450788D01*
X101525915Y-50468647D01*
X101428879Y-50500794D01*
X101347322Y-50549610D01*
X101234212Y-50703201D01*
X101204744Y-50811250D01*
X101194922Y-50942516D01*
X101095703Y-50942516D01*
X101095703Y-50244810D01*
X101095703Y-49268497D01*
X101225878Y-49268497D01*
X101225878Y-49561391D01*
X101875959Y-49561391D01*
X101875959Y-49951916D01*
X101225878Y-49951916D01*
X101225878Y-50244810D01*
X102699872Y-50244810D01*
X102699872Y-49951916D01*
X102118847Y-49951916D01*
X102118847Y-49561391D01*
X102699872Y-49561391D01*
X102699872Y-49268497D01*
X101225878Y-49268497D01*
X101095703Y-49268497D01*
X101095703Y-48713666D01*
X101095703Y-48418391D01*
X101225878Y-48418391D01*
X101225878Y-48713666D01*
X102456984Y-48713666D01*
X102456984Y-49101810D01*
X102699872Y-49101810D01*
X102699872Y-48030247D01*
X102456984Y-48030247D01*
X102456984Y-48418391D01*
X101225878Y-48418391D01*
X101095703Y-48418391D01*
X101095703Y-48030247D01*
X101095703Y-47931029D01*
X102815759Y-47931029D01*
X102815759Y-48030247D01*
G37*
%TO.C,kibuzzard-6399CB9D*%
G36*
X102632891Y-43382787D02*
G01*
X102679524Y-43429221D01*
X102706313Y-43500659D01*
X102715243Y-43591146D01*
X102705519Y-43681435D01*
X102676349Y-43752278D01*
X102628128Y-43798117D01*
X102561255Y-43813396D01*
X102492794Y-43798117D01*
X102446161Y-43752278D01*
X102419372Y-43681435D01*
X102410443Y-43591146D01*
X102420166Y-43500659D01*
X102449336Y-43429221D01*
X102497557Y-43382787D01*
X102564430Y-43367309D01*
X102632891Y-43382787D01*
G37*
G36*
X101045589Y-43387748D02*
G01*
X101097580Y-43453828D01*
X101121393Y-43521649D01*
X101135680Y-43607639D01*
X101140443Y-43711796D01*
X101135680Y-43815072D01*
X101121393Y-43900532D01*
X101097580Y-43968178D01*
X101045589Y-44034257D01*
X100975343Y-44056284D01*
X100904103Y-44034257D01*
X100852311Y-43968178D01*
X100828940Y-43900532D01*
X100814917Y-43815072D01*
X100810961Y-43727671D01*
X100886443Y-43727671D01*
X100911049Y-43802284D01*
X100973755Y-43834034D01*
X101038843Y-43802284D01*
X101062655Y-43727671D01*
X101038843Y-43653853D01*
X100973755Y-43622896D01*
X100911049Y-43653853D01*
X100886443Y-43727671D01*
X100810961Y-43727671D01*
X100810243Y-43711796D01*
X100814917Y-43607639D01*
X100828940Y-43521649D01*
X100852311Y-43453828D01*
X100904103Y-43387748D01*
X100973755Y-43366212D01*
X100975343Y-43365721D01*
X101045589Y-43387748D01*
G37*
G36*
X100975343Y-43131300D02*
G01*
X101643680Y-43131300D01*
X102561255Y-43131300D01*
X103283568Y-43131300D01*
X103710605Y-43131300D01*
X103776751Y-43131300D01*
X103776751Y-44376430D01*
X103710605Y-44376430D01*
X100634030Y-44376430D01*
X100567884Y-44376430D01*
X100152841Y-43753865D01*
X100180887Y-43711796D01*
X100634030Y-43711796D01*
X100639487Y-43832893D01*
X100655858Y-43937420D01*
X100683143Y-44025377D01*
X100721343Y-44096765D01*
X100788370Y-44166880D01*
X100873037Y-44208948D01*
X100975343Y-44222971D01*
X101076061Y-44208860D01*
X101160198Y-44166527D01*
X101227755Y-44095971D01*
X101266649Y-44024335D01*
X101294430Y-43936428D01*
X101311099Y-43832248D01*
X101316655Y-43711796D01*
X101311198Y-43589956D01*
X101294827Y-43484784D01*
X101267542Y-43396281D01*
X101229343Y-43324446D01*
X101162315Y-43253891D01*
X101154201Y-43249834D01*
X101424605Y-43249834D01*
X101450005Y-43406996D01*
X101502393Y-43386359D01*
X101600818Y-43370484D01*
X101677018Y-43397471D01*
X101707180Y-43500659D01*
X101707180Y-44310284D01*
X102108818Y-44310284D01*
X102108818Y-44148359D01*
X101902443Y-44148359D01*
X101902443Y-43592734D01*
X102210418Y-43592734D01*
X102216768Y-43676276D01*
X102235818Y-43752278D01*
X102266575Y-43819349D01*
X102308049Y-43876103D01*
X102359246Y-43921743D01*
X102419174Y-43955478D01*
X102486841Y-43976313D01*
X102561255Y-43983259D01*
X102634677Y-43976313D01*
X102702543Y-43955478D01*
X102763066Y-43921743D01*
X102814461Y-43876103D01*
X102856133Y-43819349D01*
X102887486Y-43752278D01*
X102907132Y-43676276D01*
X102913680Y-43592734D01*
X102907330Y-43508001D01*
X102888280Y-43431603D01*
X102857522Y-43364332D01*
X102816049Y-43306984D01*
X102770541Y-43265709D01*
X103008930Y-43265709D01*
X103058143Y-43419696D01*
X103138311Y-43384771D01*
X103264518Y-43367309D01*
X103377825Y-43389732D01*
X103454224Y-43457003D01*
X103486415Y-43525530D01*
X103505729Y-43611519D01*
X103512168Y-43714971D01*
X103506810Y-43803871D01*
X103490736Y-43876896D01*
X103435174Y-43980878D01*
X103357386Y-44036440D01*
X103267693Y-44053109D01*
X103149424Y-44036440D01*
X103061318Y-43995959D01*
X103010518Y-44151534D01*
X103043061Y-44170584D01*
X103096243Y-44194396D01*
X103170061Y-44214240D01*
X103264518Y-44222971D01*
X103357585Y-44214438D01*
X103443111Y-44188840D01*
X103519311Y-44146771D01*
X103584399Y-44088828D01*
X103637382Y-44015604D01*
X103677268Y-43927696D01*
X103702271Y-43825699D01*
X103710605Y-43710209D01*
X103703759Y-43594222D01*
X103683221Y-43492324D01*
X103648990Y-43404516D01*
X103601068Y-43330796D01*
X103517106Y-43256713D01*
X103411273Y-43212263D01*
X103283568Y-43197446D01*
X103196850Y-43202804D01*
X103120849Y-43218877D01*
X103008930Y-43265709D01*
X102770541Y-43265709D01*
X102764852Y-43260549D01*
X102704924Y-43226021D01*
X102636860Y-43204590D01*
X102561255Y-43197446D01*
X102485650Y-43204590D01*
X102417586Y-43226021D01*
X102357857Y-43260549D01*
X102307255Y-43306984D01*
X102266377Y-43364332D01*
X102235818Y-43431603D01*
X102216768Y-43508001D01*
X102210418Y-43592734D01*
X101902443Y-43592734D01*
X101902443Y-43514946D01*
X101886964Y-43379413D01*
X101840530Y-43280790D01*
X101760361Y-43220663D01*
X101643680Y-43200621D01*
X101555574Y-43206971D01*
X101489693Y-43222052D01*
X101446036Y-43238721D01*
X101424605Y-43249834D01*
X101154201Y-43249834D01*
X101077648Y-43211557D01*
X100975343Y-43197446D01*
X100873037Y-43211557D01*
X100788370Y-43253891D01*
X100721343Y-43324446D01*
X100683143Y-43396281D01*
X100655858Y-43484784D01*
X100639487Y-43589956D01*
X100634030Y-43711796D01*
X100180887Y-43711796D01*
X100567884Y-43131300D01*
X100634030Y-43131300D01*
X100975343Y-43131300D01*
G37*
D11*
%TO.C,J17*%
X91916000Y-54750000D02*
X94299000Y-54750000D01*
X91916000Y-65750000D02*
X91916000Y-54750000D01*
X91916000Y-65750000D02*
X94299000Y-65750000D01*
X96750000Y-54750000D02*
X98411000Y-54750000D01*
X96750000Y-65750000D02*
X98411000Y-65750000D01*
X98411000Y-54750000D02*
X98411000Y-57119000D01*
X98411000Y-65750000D02*
X98411000Y-63381000D01*
X99046000Y-56821000D02*
G75*
G02*
X98792000Y-56821000I-127000J0D01*
G01*
X98792000Y-56821000D02*
G75*
G02*
X99046000Y-56821000I127000J0D01*
G01*
D10*
%TO.C,SW17*%
X111554000Y-37070000D02*
X109254000Y-37070000D01*
X117854000Y-37070000D02*
X115654000Y-37070000D01*
X117854000Y-41670000D02*
X109254000Y-41670000D01*
D11*
%TO.C,J13*%
X104100000Y-73920000D02*
X106469000Y-73920000D01*
X104100000Y-75581000D02*
X104100000Y-73920000D01*
X104100000Y-80415000D02*
X104100000Y-78032000D01*
X115100000Y-73920000D02*
X112731000Y-73920000D01*
X115100000Y-75581000D02*
X115100000Y-73920000D01*
X115100000Y-80415000D02*
X104100000Y-80415000D01*
X115100000Y-80415000D02*
X115100000Y-78032000D01*
X106298000Y-73412000D02*
G75*
G02*
X106044000Y-73412000I-127000J0D01*
G01*
X106044000Y-73412000D02*
G75*
G02*
X106298000Y-73412000I127000J0D01*
G01*
D13*
%TO.C,R6*%
X106192936Y-57805000D02*
X106647064Y-57805000D01*
X106192936Y-59275000D02*
X106647064Y-59275000D01*
D12*
%TO.C,kibuzzard-6399CBDB*%
G36*
X101533801Y-55732702D02*
G01*
X101477444Y-55823983D01*
X101417913Y-55910502D01*
X101359176Y-55988289D01*
X101359176Y-55642214D01*
X101581426Y-55642214D01*
X101533801Y-55732702D01*
G37*
G36*
X103072286Y-55414805D02*
G01*
X103118919Y-55461239D01*
X103145708Y-55532677D01*
X103154638Y-55623164D01*
X103144915Y-55713453D01*
X103115744Y-55784296D01*
X103067524Y-55830135D01*
X103000651Y-55845414D01*
X102932190Y-55830135D01*
X102885557Y-55784296D01*
X102858768Y-55713453D01*
X102849838Y-55623164D01*
X102859561Y-55532677D01*
X102888732Y-55461239D01*
X102936952Y-55414805D01*
X103003826Y-55399327D01*
X103072286Y-55414805D01*
G37*
G36*
X101163913Y-55163318D02*
G01*
X102083076Y-55163318D01*
X103000651Y-55163318D01*
X103722963Y-55163318D01*
X104150001Y-55163318D01*
X104216146Y-55163318D01*
X104216146Y-56408448D01*
X104150001Y-56408448D01*
X101057551Y-56408448D01*
X100991405Y-56408448D01*
X100576362Y-55785883D01*
X100779033Y-55481877D01*
X101057551Y-55481877D01*
X101057551Y-55642214D01*
X101163913Y-55642214D01*
X101163913Y-56232764D01*
X101338538Y-56232764D01*
X101402038Y-56165097D01*
X101465538Y-56089096D01*
X101527451Y-56008331D01*
X101586188Y-55926377D01*
X101640957Y-55844819D01*
X101690963Y-55765246D01*
X101734222Y-55690831D01*
X101768751Y-55624752D01*
X101768751Y-55481877D01*
X101359176Y-55481877D01*
X101359176Y-55281852D01*
X101864001Y-55281852D01*
X101889401Y-55439014D01*
X101941788Y-55418377D01*
X102040213Y-55402502D01*
X102116413Y-55429489D01*
X102146576Y-55532677D01*
X102146576Y-56342302D01*
X102548213Y-56342302D01*
X102548213Y-56180377D01*
X102341838Y-56180377D01*
X102341838Y-55624752D01*
X102649813Y-55624752D01*
X102656163Y-55708294D01*
X102675213Y-55784296D01*
X102705971Y-55851367D01*
X102747444Y-55908121D01*
X102798641Y-55953761D01*
X102858569Y-55987496D01*
X102926236Y-56008331D01*
X103000651Y-56015277D01*
X103074072Y-56008331D01*
X103141938Y-55987496D01*
X103202461Y-55953761D01*
X103253857Y-55908121D01*
X103295529Y-55851367D01*
X103326882Y-55784296D01*
X103346527Y-55708294D01*
X103353076Y-55624752D01*
X103346726Y-55540019D01*
X103327676Y-55463621D01*
X103296918Y-55396350D01*
X103255444Y-55339002D01*
X103209936Y-55297727D01*
X103448326Y-55297727D01*
X103497538Y-55451714D01*
X103577707Y-55416789D01*
X103703913Y-55399327D01*
X103817221Y-55421750D01*
X103893619Y-55489021D01*
X103925810Y-55557548D01*
X103945125Y-55643537D01*
X103951563Y-55746989D01*
X103946205Y-55835889D01*
X103930132Y-55908914D01*
X103874569Y-56012896D01*
X103796782Y-56068458D01*
X103707088Y-56085127D01*
X103588819Y-56068458D01*
X103500713Y-56027977D01*
X103449913Y-56183552D01*
X103482457Y-56202602D01*
X103535638Y-56226414D01*
X103609457Y-56246258D01*
X103703913Y-56254989D01*
X103796980Y-56246456D01*
X103882507Y-56220858D01*
X103958707Y-56178789D01*
X104023794Y-56120846D01*
X104076777Y-56047622D01*
X104116663Y-55959714D01*
X104141666Y-55857717D01*
X104150001Y-55742227D01*
X104143154Y-55626240D01*
X104122616Y-55524342D01*
X104088386Y-55436534D01*
X104040463Y-55362814D01*
X103956502Y-55288731D01*
X103850669Y-55244281D01*
X103722963Y-55229464D01*
X103636246Y-55234822D01*
X103560244Y-55250895D01*
X103448326Y-55297727D01*
X103209936Y-55297727D01*
X103204247Y-55292567D01*
X103144319Y-55258039D01*
X103076255Y-55236608D01*
X103000651Y-55229464D01*
X102925046Y-55236608D01*
X102856982Y-55258039D01*
X102797252Y-55292567D01*
X102746651Y-55339002D01*
X102705772Y-55396350D01*
X102675213Y-55463621D01*
X102656163Y-55540019D01*
X102649813Y-55624752D01*
X102341838Y-55624752D01*
X102341838Y-55546964D01*
X102326360Y-55411431D01*
X102279926Y-55312808D01*
X102199757Y-55252681D01*
X102083076Y-55232639D01*
X101994969Y-55238989D01*
X101929088Y-55254070D01*
X101885432Y-55270739D01*
X101864001Y-55281852D01*
X101359176Y-55281852D01*
X101359176Y-55250102D01*
X101163913Y-55250102D01*
X101163913Y-55481877D01*
X101057551Y-55481877D01*
X100779033Y-55481877D01*
X100991405Y-55163318D01*
X101057551Y-55163318D01*
X101163913Y-55163318D01*
G37*
%TO.C,Display1*%
D13*
X103140000Y-67130000D02*
X115840000Y-67130000D01*
X115840000Y-69730000D01*
X103140000Y-69730000D01*
X103140000Y-67130000D01*
D11*
%TO.C,J2*%
X142800000Y-40800000D02*
X142800000Y-43169000D01*
X142800000Y-51800000D02*
X142800000Y-49431000D01*
X144461000Y-40800000D02*
X142800000Y-40800000D01*
X144461000Y-51800000D02*
X142800000Y-51800000D01*
X149295000Y-40800000D02*
X146912000Y-40800000D01*
X149295000Y-40800000D02*
X149295000Y-51800000D01*
X149295000Y-51800000D02*
X146912000Y-51800000D01*
X142419000Y-49729000D02*
G75*
G02*
X142165000Y-49729000I-127000J0D01*
G01*
X142165000Y-49729000D02*
G75*
G02*
X142419000Y-49729000I127000J0D01*
G01*
D10*
%TO.C,SW16*%
X99160000Y-37366000D02*
X99160000Y-37616000D01*
X99160000Y-37366000D02*
X105160000Y-37366000D01*
X99160000Y-40866000D02*
X99160000Y-40616000D01*
X99160000Y-40866000D02*
X105160000Y-40866000D01*
X105160000Y-37366000D02*
X105160000Y-37616000D01*
X105160000Y-40866000D02*
X105160000Y-40616000D01*
D12*
%TO.C,kibuzzard-6399CB9D*%
G36*
X144307570Y-64689277D02*
G01*
X144378413Y-64718447D01*
X144424252Y-64766668D01*
X144439531Y-64833541D01*
X144424252Y-64902002D01*
X144378413Y-64948635D01*
X144307570Y-64975424D01*
X144217281Y-64984353D01*
X144126794Y-64974630D01*
X144055356Y-64945460D01*
X144008922Y-64897239D01*
X143993444Y-64830366D01*
X144008922Y-64761905D01*
X144055356Y-64715272D01*
X144126794Y-64688483D01*
X144217281Y-64679553D01*
X144307570Y-64689277D01*
G37*
G36*
X144441207Y-66259116D02*
G01*
X144526667Y-66273403D01*
X144594313Y-66297216D01*
X144660392Y-66349207D01*
X144682419Y-66419453D01*
X144660392Y-66490693D01*
X144594313Y-66542485D01*
X144526667Y-66565856D01*
X144441207Y-66579879D01*
X144337931Y-66584553D01*
X144233774Y-66579879D01*
X144147784Y-66565856D01*
X144079963Y-66542485D01*
X144013883Y-66490693D01*
X143992347Y-66421041D01*
X144249031Y-66421041D01*
X144279988Y-66483747D01*
X144353806Y-66508353D01*
X144428419Y-66483747D01*
X144460169Y-66421041D01*
X144428419Y-66355953D01*
X144353806Y-66332141D01*
X144279988Y-66355953D01*
X144249031Y-66421041D01*
X143992347Y-66421041D01*
X143991856Y-66419453D01*
X144013883Y-66349207D01*
X144079963Y-66297216D01*
X144147784Y-66273403D01*
X144233774Y-66259116D01*
X144337931Y-66254353D01*
X144441207Y-66259116D01*
G37*
G36*
X145002565Y-63684191D02*
G01*
X145002565Y-66760766D01*
X145002565Y-66826912D01*
X144380000Y-67241955D01*
X143757435Y-66826912D01*
X143757435Y-66760766D01*
X143757435Y-66419453D01*
X143823581Y-66419453D01*
X143837692Y-66521759D01*
X143880026Y-66606426D01*
X143950581Y-66673453D01*
X144022416Y-66711653D01*
X144110919Y-66738938D01*
X144216091Y-66755309D01*
X144337931Y-66760766D01*
X144459028Y-66755309D01*
X144563555Y-66738938D01*
X144651512Y-66711653D01*
X144722900Y-66673453D01*
X144793015Y-66606426D01*
X144835083Y-66521759D01*
X144849106Y-66419453D01*
X144834995Y-66318735D01*
X144792662Y-66234598D01*
X144722106Y-66167041D01*
X144650470Y-66128147D01*
X144562563Y-66100366D01*
X144458383Y-66083697D01*
X144337931Y-66078141D01*
X144216091Y-66083598D01*
X144110919Y-66099969D01*
X144022416Y-66127254D01*
X143950581Y-66165453D01*
X143880026Y-66232481D01*
X143837692Y-66317148D01*
X143823581Y-66419453D01*
X143757435Y-66419453D01*
X143757435Y-65751116D01*
X143826756Y-65751116D01*
X143833106Y-65839222D01*
X143848187Y-65905103D01*
X143864856Y-65948760D01*
X143875969Y-65970191D01*
X144033131Y-65944791D01*
X144012494Y-65892403D01*
X143996619Y-65793978D01*
X144023606Y-65717778D01*
X144126794Y-65687616D01*
X144936419Y-65687616D01*
X144936419Y-65285978D01*
X144774494Y-65285978D01*
X144774494Y-65492353D01*
X144141081Y-65492353D01*
X144005548Y-65507832D01*
X143906925Y-65554266D01*
X143846798Y-65634435D01*
X143826756Y-65751116D01*
X143757435Y-65751116D01*
X143757435Y-64833541D01*
X143823581Y-64833541D01*
X143830725Y-64909146D01*
X143852156Y-64977210D01*
X143886684Y-65036939D01*
X143933119Y-65087541D01*
X143990467Y-65128419D01*
X144057738Y-65158978D01*
X144134136Y-65178028D01*
X144218869Y-65184378D01*
X144302411Y-65178028D01*
X144378413Y-65158978D01*
X144445484Y-65128221D01*
X144502238Y-65086747D01*
X144547878Y-65035550D01*
X144581613Y-64975622D01*
X144602448Y-64907955D01*
X144609394Y-64833541D01*
X144602448Y-64760119D01*
X144581613Y-64692253D01*
X144547878Y-64631730D01*
X144502238Y-64580335D01*
X144445484Y-64538663D01*
X144378413Y-64507310D01*
X144302411Y-64487664D01*
X144218869Y-64481116D01*
X144134136Y-64487466D01*
X144057738Y-64506516D01*
X143990467Y-64537274D01*
X143933119Y-64578747D01*
X143886684Y-64629944D01*
X143852156Y-64689872D01*
X143830725Y-64757936D01*
X143823581Y-64833541D01*
X143757435Y-64833541D01*
X143757435Y-64111228D01*
X143823581Y-64111228D01*
X143828939Y-64197946D01*
X143845012Y-64273947D01*
X143891844Y-64385866D01*
X144045831Y-64336653D01*
X144010906Y-64256485D01*
X143993444Y-64130278D01*
X144015867Y-64016971D01*
X144083138Y-63940572D01*
X144151665Y-63908381D01*
X144237654Y-63889067D01*
X144341106Y-63882628D01*
X144430006Y-63887986D01*
X144503031Y-63904060D01*
X144607013Y-63959622D01*
X144662575Y-64037410D01*
X144679244Y-64127103D01*
X144662575Y-64245372D01*
X144622094Y-64333478D01*
X144777669Y-64384278D01*
X144796719Y-64351735D01*
X144820531Y-64298553D01*
X144840375Y-64224735D01*
X144849106Y-64130278D01*
X144840573Y-64037211D01*
X144814975Y-63951685D01*
X144772906Y-63875485D01*
X144714963Y-63810397D01*
X144641739Y-63757414D01*
X144553831Y-63717528D01*
X144451834Y-63692525D01*
X144336344Y-63684191D01*
X144220357Y-63691037D01*
X144118459Y-63711575D01*
X144030651Y-63745806D01*
X143956931Y-63793728D01*
X143882848Y-63877690D01*
X143838398Y-63983523D01*
X143823581Y-64111228D01*
X143757435Y-64111228D01*
X143757435Y-63684191D01*
X143757435Y-63618045D01*
X145002565Y-63618045D01*
X145002565Y-63684191D01*
G37*
D13*
%TO.C,R2*%
X106365000Y-53162564D02*
X106365000Y-52708436D01*
X107835000Y-53162564D02*
X107835000Y-52708436D01*
D11*
%TO.C,J3*%
X142940000Y-52390000D02*
X142940000Y-54759000D01*
X142940000Y-63390000D02*
X142940000Y-61021000D01*
X144601000Y-52390000D02*
X142940000Y-52390000D01*
X144601000Y-63390000D02*
X142940000Y-63390000D01*
X149435000Y-52390000D02*
X147052000Y-52390000D01*
X149435000Y-52390000D02*
X149435000Y-63390000D01*
X149435000Y-63390000D02*
X147052000Y-63390000D01*
X142559000Y-61319000D02*
G75*
G02*
X142305000Y-61319000I-127000J0D01*
G01*
X142305000Y-61319000D02*
G75*
G02*
X142559000Y-61319000I127000J0D01*
G01*
D13*
%TO.C,R4*%
X106192936Y-61625000D02*
X106647064Y-61625000D01*
X106192936Y-63095000D02*
X106647064Y-63095000D01*
D11*
%TO.C,J15*%
X91916000Y-42650000D02*
X94299000Y-42650000D01*
X91916000Y-53650000D02*
X91916000Y-42650000D01*
X91916000Y-53650000D02*
X94299000Y-53650000D01*
X96750000Y-42650000D02*
X98411000Y-42650000D01*
X96750000Y-53650000D02*
X98411000Y-53650000D01*
X98411000Y-42650000D02*
X98411000Y-45019000D01*
X98411000Y-53650000D02*
X98411000Y-51281000D01*
X99046000Y-44721000D02*
G75*
G02*
X98792000Y-44721000I-127000J0D01*
G01*
X98792000Y-44721000D02*
G75*
G02*
X99046000Y-44721000I127000J0D01*
G01*
D12*
%TO.C,kibuzzard-6399CBBA*%
G36*
X133905056Y-69694150D02*
G01*
X133975899Y-69723321D01*
X134021738Y-69771541D01*
X134037017Y-69838414D01*
X134021738Y-69906875D01*
X133975899Y-69953508D01*
X133905056Y-69980297D01*
X133814767Y-69989227D01*
X133724280Y-69979504D01*
X133652842Y-69950333D01*
X133606408Y-69902113D01*
X133590930Y-69835239D01*
X133606408Y-69766779D01*
X133652842Y-69720146D01*
X133724280Y-69693357D01*
X133814767Y-69684427D01*
X133905056Y-69694150D01*
G37*
G36*
X134600051Y-68689064D02*
G01*
X134600051Y-71756114D01*
X134600051Y-71822260D01*
X133977486Y-72237303D01*
X133354921Y-71822260D01*
X133354921Y-71756114D01*
X133354921Y-71159214D01*
X133441705Y-71159214D01*
X133441705Y-71756114D01*
X133603630Y-71756114D01*
X133603630Y-71560852D01*
X134424367Y-71560852D01*
X134424367Y-71427502D01*
X134362455Y-71359239D01*
X134305305Y-71275102D01*
X134256092Y-71186202D01*
X134219580Y-71103652D01*
X134057655Y-71167152D01*
X134096549Y-71263989D01*
X134152905Y-71365589D01*
X133603630Y-71365589D01*
X133603630Y-71159214D01*
X133441705Y-71159214D01*
X133354921Y-71159214D01*
X133354921Y-70755989D01*
X133424242Y-70755989D01*
X133430592Y-70844096D01*
X133445673Y-70909977D01*
X133462342Y-70953633D01*
X133473455Y-70975064D01*
X133630617Y-70949664D01*
X133609980Y-70897277D01*
X133594105Y-70798852D01*
X133621092Y-70722652D01*
X133724280Y-70692489D01*
X134533905Y-70692489D01*
X134533905Y-70290852D01*
X134371980Y-70290852D01*
X134371980Y-70497227D01*
X133738567Y-70497227D01*
X133603034Y-70512705D01*
X133504411Y-70559139D01*
X133444284Y-70639308D01*
X133424242Y-70755989D01*
X133354921Y-70755989D01*
X133354921Y-69838414D01*
X133421067Y-69838414D01*
X133428211Y-69914019D01*
X133449642Y-69982083D01*
X133484170Y-70041813D01*
X133530605Y-70092414D01*
X133587953Y-70133293D01*
X133655224Y-70163852D01*
X133731622Y-70182902D01*
X133816355Y-70189252D01*
X133899897Y-70182902D01*
X133975899Y-70163852D01*
X134042970Y-70133094D01*
X134099724Y-70091621D01*
X134145364Y-70040424D01*
X134179099Y-69980496D01*
X134199934Y-69912829D01*
X134206880Y-69838414D01*
X134199934Y-69764993D01*
X134179099Y-69697127D01*
X134145364Y-69636604D01*
X134099724Y-69585208D01*
X134042970Y-69543536D01*
X133975899Y-69512183D01*
X133899897Y-69492538D01*
X133816355Y-69485989D01*
X133731622Y-69492339D01*
X133655224Y-69511389D01*
X133587953Y-69542147D01*
X133530605Y-69583621D01*
X133484170Y-69634818D01*
X133449642Y-69694746D01*
X133428211Y-69762810D01*
X133421067Y-69838414D01*
X133354921Y-69838414D01*
X133354921Y-69116102D01*
X133421067Y-69116102D01*
X133426425Y-69202819D01*
X133442498Y-69278821D01*
X133489330Y-69390739D01*
X133643317Y-69341527D01*
X133608392Y-69261358D01*
X133590930Y-69135152D01*
X133613353Y-69021844D01*
X133680624Y-68945446D01*
X133749151Y-68913255D01*
X133835140Y-68893940D01*
X133938592Y-68887502D01*
X134027492Y-68892860D01*
X134100517Y-68908933D01*
X134204499Y-68964496D01*
X134260061Y-69042283D01*
X134276730Y-69131977D01*
X134260061Y-69250246D01*
X134219580Y-69338352D01*
X134375155Y-69389152D01*
X134394205Y-69356608D01*
X134418017Y-69303427D01*
X134437861Y-69229608D01*
X134446592Y-69135152D01*
X134438059Y-69042085D01*
X134412461Y-68956558D01*
X134370392Y-68880358D01*
X134312449Y-68815271D01*
X134239225Y-68762288D01*
X134151317Y-68722402D01*
X134049320Y-68697399D01*
X133933830Y-68689064D01*
X133817843Y-68695911D01*
X133715945Y-68716449D01*
X133628137Y-68750679D01*
X133554417Y-68798602D01*
X133480334Y-68882563D01*
X133435884Y-68988396D01*
X133421067Y-69116102D01*
X133354921Y-69116102D01*
X133354921Y-68689064D01*
X133354921Y-68622919D01*
X134600051Y-68622919D01*
X134600051Y-68689064D01*
G37*
D11*
%TO.C,J14*%
X92100000Y-73920000D02*
X94469000Y-73920000D01*
X92100000Y-75581000D02*
X92100000Y-73920000D01*
X92100000Y-80415000D02*
X92100000Y-78032000D01*
X103100000Y-73920000D02*
X100731000Y-73920000D01*
X103100000Y-75581000D02*
X103100000Y-73920000D01*
X103100000Y-80415000D02*
X92100000Y-80415000D01*
X103100000Y-80415000D02*
X103100000Y-78032000D01*
X94298000Y-73412000D02*
G75*
G02*
X94044000Y-73412000I-127000J0D01*
G01*
X94044000Y-73412000D02*
G75*
G02*
X94298000Y-73412000I127000J0D01*
G01*
D13*
%TO.C,D1*%
X109400000Y-58260000D02*
X114400000Y-58260000D01*
X115500000Y-62560000D02*
X115500000Y-63660000D01*
X115500000Y-63660000D02*
X109400000Y-63660000D01*
D11*
%TO.C,J12*%
X116100000Y-73920000D02*
X118469000Y-73920000D01*
X116100000Y-75581000D02*
X116100000Y-73920000D01*
X116100000Y-80415000D02*
X116100000Y-78032000D01*
X127100000Y-73920000D02*
X124731000Y-73920000D01*
X127100000Y-75581000D02*
X127100000Y-73920000D01*
X127100000Y-80415000D02*
X116100000Y-80415000D01*
X127100000Y-80415000D02*
X127100000Y-78032000D01*
X118298000Y-73412000D02*
G75*
G02*
X118044000Y-73412000I-127000J0D01*
G01*
X118044000Y-73412000D02*
G75*
G02*
X118298000Y-73412000I127000J0D01*
G01*
%TD*%
D14*
%TO.C,SW16*%
X105410000Y-39116000D03*
X98910000Y-39116000D03*
%TD*%
D15*
%TO.C,J7*%
X112400000Y-48340000D03*
X114400000Y-48340000D03*
X116400000Y-48340000D03*
%TD*%
%LPC*%
D16*
%TO.C,J11*%
X130850000Y-74082000D03*
X131350000Y-74082000D03*
X131850000Y-74082000D03*
X132350000Y-74082000D03*
X132850000Y-74082000D03*
X133350000Y-74082000D03*
X133850000Y-74082000D03*
X134350000Y-74082000D03*
X134850000Y-74082000D03*
X135350000Y-74082000D03*
X135850000Y-74082000D03*
X136350000Y-74082000D03*
D17*
X138150000Y-76806000D03*
X129050000Y-76806000D03*
%TD*%
D16*
%TO.C,J16*%
X142850000Y-74082000D03*
X143350000Y-74082000D03*
X143850000Y-74082000D03*
X144350000Y-74082000D03*
X144850000Y-74082000D03*
X145350000Y-74082000D03*
X145850000Y-74082000D03*
X146350000Y-74082000D03*
X146850000Y-74082000D03*
X147350000Y-74082000D03*
X147850000Y-74082000D03*
X148350000Y-74082000D03*
D17*
X150150000Y-76806000D03*
X141050000Y-76806000D03*
%TD*%
D18*
%TO.C,R1*%
X105156000Y-53848000D03*
X105156000Y-52023000D03*
%TD*%
D19*
%TO.C,D2*%
X105390000Y-45200000D03*
X105390000Y-50000000D03*
X107090000Y-45200000D03*
X107090000Y-50000000D03*
X108790000Y-45200000D03*
X108790000Y-50000000D03*
%TD*%
D20*
%TO.C,H5*%
X94486973Y-38100000D03*
%TD*%
D21*
%TO.C,R5*%
X105513500Y-60452000D03*
X107338500Y-60452000D03*
%TD*%
D20*
%TO.C,H8*%
X148929065Y-66500000D03*
%TD*%
D18*
%TO.C,R3*%
X109041331Y-53851517D03*
X109041331Y-52026517D03*
%TD*%
D22*
%TO.C,J17*%
X98249000Y-57500000D03*
X98249000Y-58000000D03*
X98249000Y-58500000D03*
X98249000Y-59000000D03*
X98249000Y-59500000D03*
X98249000Y-60000000D03*
X98249000Y-60500000D03*
X98249000Y-61000000D03*
X98249000Y-61500000D03*
X98249000Y-62000000D03*
X98249000Y-62500000D03*
X98249000Y-63000000D03*
D23*
X95525000Y-64800000D03*
X95525000Y-55700000D03*
%TD*%
D24*
%TO.C,SW17*%
X117654000Y-39370000D03*
X109454000Y-39370000D03*
D25*
X115554000Y-39370000D03*
D26*
X113554000Y-39370000D03*
X111554000Y-39370000D03*
%TD*%
D16*
%TO.C,J13*%
X106850000Y-74082000D03*
X107350000Y-74082000D03*
X107850000Y-74082000D03*
X108350000Y-74082000D03*
X108850000Y-74082000D03*
X109350000Y-74082000D03*
X109850000Y-74082000D03*
X110350000Y-74082000D03*
X110850000Y-74082000D03*
X111350000Y-74082000D03*
X111850000Y-74082000D03*
X112350000Y-74082000D03*
D17*
X114150000Y-76806000D03*
X105050000Y-76806000D03*
%TD*%
D21*
%TO.C,R6*%
X105507500Y-58540000D03*
X107332500Y-58540000D03*
%TD*%
D27*
%TO.C,Display1*%
X104410000Y-68430000D03*
X106950000Y-68430000D03*
X109490000Y-68430000D03*
X112030000Y-68430000D03*
X114570000Y-68430000D03*
%TD*%
D22*
%TO.C,J2*%
X142962000Y-49050000D03*
X142962000Y-48550000D03*
X142962000Y-48050000D03*
X142962000Y-47550000D03*
X142962000Y-47050000D03*
X142962000Y-46550000D03*
X142962000Y-46050000D03*
X142962000Y-45550000D03*
X142962000Y-45050000D03*
X142962000Y-44550000D03*
X142962000Y-44050000D03*
X142962000Y-43550000D03*
D23*
X145686000Y-41750000D03*
X145686000Y-50850000D03*
%TD*%
D14*
%TO.C,SW16*%
X105410000Y-39116000D03*
X98910000Y-39116000D03*
%TD*%
D18*
%TO.C,R2*%
X107100000Y-53848000D03*
X107100000Y-52023000D03*
%TD*%
D20*
%TO.C,H7*%
X141740000Y-38120000D03*
%TD*%
D15*
%TO.C,J7*%
X112400000Y-48340000D03*
X114400000Y-48340000D03*
X116400000Y-48340000D03*
%TD*%
D22*
%TO.C,J3*%
X143102000Y-60640000D03*
X143102000Y-60140000D03*
X143102000Y-59640000D03*
X143102000Y-59140000D03*
X143102000Y-58640000D03*
X143102000Y-58140000D03*
X143102000Y-57640000D03*
X143102000Y-57140000D03*
X143102000Y-56640000D03*
X143102000Y-56140000D03*
X143102000Y-55640000D03*
X143102000Y-55140000D03*
D23*
X145826000Y-53340000D03*
X145826000Y-62440000D03*
%TD*%
D21*
%TO.C,R4*%
X105507500Y-62360000D03*
X107332500Y-62360000D03*
%TD*%
D22*
%TO.C,J15*%
X98249000Y-45400000D03*
X98249000Y-45900000D03*
X98249000Y-46400000D03*
X98249000Y-46900000D03*
X98249000Y-47400000D03*
X98249000Y-47900000D03*
X98249000Y-48400000D03*
X98249000Y-48900000D03*
X98249000Y-49400000D03*
X98249000Y-49900000D03*
X98249000Y-50400000D03*
X98249000Y-50900000D03*
D23*
X95525000Y-52700000D03*
X95525000Y-43600000D03*
%TD*%
D16*
%TO.C,J14*%
X94850000Y-74082000D03*
X95350000Y-74082000D03*
X95850000Y-74082000D03*
X96350000Y-74082000D03*
X96850000Y-74082000D03*
X97350000Y-74082000D03*
X97850000Y-74082000D03*
X98350000Y-74082000D03*
X98850000Y-74082000D03*
X99350000Y-74082000D03*
X99850000Y-74082000D03*
X100350000Y-74082000D03*
D17*
X102150000Y-76806000D03*
X93050000Y-76806000D03*
%TD*%
D28*
%TO.C,D1*%
X109500000Y-62660000D03*
X114300000Y-62660000D03*
X109500000Y-60960000D03*
X114300000Y-60960000D03*
X109500000Y-59260000D03*
X114300000Y-59260000D03*
%TD*%
D16*
%TO.C,J12*%
X118850000Y-74082000D03*
X119350000Y-74082000D03*
X119850000Y-74082000D03*
X120350000Y-74082000D03*
X120850000Y-74082000D03*
X121350000Y-74082000D03*
X121850000Y-74082000D03*
X122350000Y-74082000D03*
X122850000Y-74082000D03*
X123350000Y-74082000D03*
X123850000Y-74082000D03*
X124350000Y-74082000D03*
D17*
X126150000Y-76806000D03*
X117050000Y-76806000D03*
%TD*%
D20*
%TO.C,H6*%
X94485092Y-68580000D03*
%TD*%
D27*
%TO.C,J1*%
X137120000Y-39205000D03*
X137120000Y-41745000D03*
X137120000Y-44285000D03*
X137120000Y-46825000D03*
X137120000Y-49365000D03*
X137120000Y-51905000D03*
X137120000Y-54445000D03*
X137120000Y-56985000D03*
X137120000Y-59525000D03*
X137120000Y-62065000D03*
X137120000Y-64605000D03*
X137120000Y-67145000D03*
X121880000Y-67145000D03*
X121880000Y-64605000D03*
X121880000Y-62065000D03*
X121880000Y-59525000D03*
X121880000Y-56985000D03*
X121880000Y-54445000D03*
X121880000Y-51905000D03*
X121880000Y-49365000D03*
X121880000Y-46825000D03*
X121880000Y-44285000D03*
X121880000Y-41745000D03*
X121880000Y-39205000D03*
X134580000Y-62065000D03*
X134040000Y-64055000D03*
X132040000Y-62065000D03*
X131500000Y-64055000D03*
X129500000Y-62065000D03*
X128960000Y-64055000D03*
%TD*%
%LPD*%
M02*
