%TF.GenerationSoftware,KiCad,Pcbnew,8.0.5*%
%TF.CreationDate,2024-10-29T12:08:31+01:00*%
%TF.ProjectId,mcu_holder,6d63755f-686f-46c6-9465-722e6b696361,rev?*%
%TF.SameCoordinates,Original*%
%TF.FileFunction,Soldermask,Bot*%
%TF.FilePolarity,Negative*%
%FSLAX46Y46*%
G04 Gerber Fmt 4.6, Leading zero omitted, Abs format (unit mm)*
G04 Created by KiCad (PCBNEW 8.0.5) date 2024-10-29 12:08:31*
%MOMM*%
%LPD*%
G01*
G04 APERTURE LIST*
G04 Aperture macros list*
%AMRoundRect*
0 Rectangle with rounded corners*
0 $1 Rounding radius*
0 $2 $3 $4 $5 $6 $7 $8 $9 X,Y pos of 4 corners*
0 Add a 4 corners polygon primitive as box body*
4,1,4,$2,$3,$4,$5,$6,$7,$8,$9,$2,$3,0*
0 Add four circle primitives for the rounded corners*
1,1,$1+$1,$2,$3*
1,1,$1+$1,$4,$5*
1,1,$1+$1,$6,$7*
1,1,$1+$1,$8,$9*
0 Add four rect primitives between the rounded corners*
20,1,$1+$1,$2,$3,$4,$5,0*
20,1,$1+$1,$4,$5,$6,$7,0*
20,1,$1+$1,$6,$7,$8,$9,0*
20,1,$1+$1,$8,$9,$2,$3,0*%
%AMFreePoly0*
4,1,6,1.000000,0.000000,0.500000,-0.750000,-0.500000,-0.750000,-0.500000,0.750000,0.500000,0.750000,1.000000,0.000000,1.000000,0.000000,$1*%
%AMFreePoly1*
4,1,6,0.500000,-0.750000,-0.650000,-0.750000,-0.150000,0.000000,-0.650000,0.750000,0.500000,0.750000,0.500000,-0.750000,0.500000,-0.750000,$1*%
G04 Aperture macros list end*
%ADD10C,4.500000*%
%ADD11O,2.200000X3.500000*%
%ADD12R,1.500000X2.500000*%
%ADD13O,1.500000X2.500000*%
%ADD14C,1.752600*%
%ADD15C,2.000000*%
%ADD16RoundRect,0.375000X0.375000X0.750000X-0.375000X0.750000X-0.375000X-0.750000X0.375000X-0.750000X0*%
%ADD17FreePoly0,90.000000*%
%ADD18FreePoly1,90.000000*%
%ADD19FreePoly0,0.000000*%
%ADD20FreePoly1,0.000000*%
G04 APERTURE END LIST*
D10*
%TO.C,H5*%
X94486973Y-38100000D03*
%TD*%
%TO.C,H8*%
X148929065Y-66500000D03*
%TD*%
D11*
%TO.C,SW17*%
X117654000Y-39370000D03*
X109454000Y-39370000D03*
D12*
X115554000Y-39370000D03*
D13*
X113554000Y-39370000D03*
X111554000Y-39370000D03*
%TD*%
D14*
%TO.C,Display1*%
X104410000Y-68430000D03*
X106950000Y-68430000D03*
X109490000Y-68430000D03*
X112030000Y-68430000D03*
X114570000Y-68430000D03*
%TD*%
D15*
%TO.C,SW16*%
X105410000Y-39116000D03*
X98910000Y-39116000D03*
%TD*%
D10*
%TO.C,H7*%
X141740000Y-38120000D03*
%TD*%
D16*
%TO.C,J7*%
X112400000Y-48340000D03*
X114400000Y-48340000D03*
X116400000Y-48340000D03*
%TD*%
D10*
%TO.C,H6*%
X94485092Y-68580000D03*
%TD*%
D17*
%TO.C,JP2*%
X107950000Y-65786000D03*
D18*
X107950000Y-64336000D03*
%TD*%
D19*
%TO.C,JP4*%
X94017000Y-57404000D03*
D20*
X95467000Y-57404000D03*
%TD*%
D17*
%TO.C,JP3*%
X110744000Y-65786000D03*
D18*
X110744000Y-64336000D03*
%TD*%
D19*
%TO.C,JP6*%
X94017000Y-62738000D03*
D20*
X95467000Y-62738000D03*
%TD*%
D19*
%TO.C,JP5*%
X93980000Y-59944000D03*
D20*
X95430000Y-59944000D03*
%TD*%
D17*
%TO.C,JP1*%
X104902000Y-65786000D03*
D18*
X104902000Y-64336000D03*
%TD*%
D14*
%TO.C,J1*%
X137120000Y-39205000D03*
X137120000Y-41745000D03*
X137120000Y-44285000D03*
X137120000Y-46825000D03*
X137120000Y-49365000D03*
X137120000Y-51905000D03*
X137120000Y-54445000D03*
X137120000Y-56985000D03*
X137120000Y-59525000D03*
X137120000Y-62065000D03*
X137120000Y-64605000D03*
X137120000Y-67145000D03*
X121880000Y-67145000D03*
X121880000Y-64605000D03*
X121880000Y-62065000D03*
X121880000Y-59525000D03*
X121880000Y-56985000D03*
X121880000Y-54445000D03*
X121880000Y-51905000D03*
X121880000Y-49365000D03*
X121880000Y-46825000D03*
X121880000Y-44285000D03*
X121880000Y-41745000D03*
X121880000Y-39205000D03*
X134580000Y-62065000D03*
X134040000Y-64055000D03*
X132040000Y-62065000D03*
X131500000Y-64055000D03*
X129500000Y-62065000D03*
X128960000Y-64055000D03*
%TD*%
M02*
