M48
; DRILL file {KiCad 8.0.5} date 2024-10-29T12:08:31+0100
; FORMAT={-:-/ absolute / inch / decimal}
; #@! TF.CreationDate,2024-10-29T12:08:31+01:00
; #@! TF.GenerationSoftware,Kicad,Pcbnew,8.0.5
; #@! TF.FileFunction,Plated,1,2,PTH
FMAT,2
INCH
; #@! TA.AperFunction,Plated,PTH,ViaDrill
T1C0.0157
; #@! TA.AperFunction,Plated,PTH,ComponentDrill
T2C0.0354
; #@! TA.AperFunction,Plated,PTH,ComponentDrill
T3C0.0430
; #@! TA.AperFunction,Plated,PTH,ComponentDrill
T4C0.0512
; #@! TA.AperFunction,Plated,PTH,ComponentDrill
T5C0.0591
; #@! TA.AperFunction,Plated,PTH,ComponentDrill
T6C0.1260
%
G90
G05
T1
X3.62Y-2.47
X3.652Y-2.36
X3.6579Y-2.178
X3.6622Y-2.5701
X3.715Y-2.8625
X3.73Y-2.8261
X3.7949Y-2.798
X3.8268Y-2.7642
X3.8343Y-2.2146
X3.84Y-2.57
X3.8539Y-2.863
X3.8783Y-2.1409
X3.8972Y-2.0933
X3.9149Y-2.7582
X3.9181Y-2.2449
X3.9311Y-1.7679
X3.9311Y-2.0226
X3.9363Y-2.7913
X3.9382Y-2.3811
X3.9548Y-2.8261
X3.9675Y-1.7829
X3.9675Y-2.0077
X3.9675Y-2.26
X3.9675Y-2.4849
X3.9697Y-2.8625
X3.9883Y-2.3685
X4.0023Y-1.8014
X4.0023Y-1.9892
X4.0023Y-2.2785
X4.0023Y-2.4664
X4.0055Y-2.1433
X4.0079Y-2.6217
X4.0353Y-1.8227
X4.0353Y-1.9678
X4.0353Y-2.2999
X4.0353Y-2.445
X4.0402Y-2.5272
X4.07Y-2.24
X4.075Y-2.115
X4.1875Y-2.8625
X4.2024Y-2.8261
X4.2209Y-2.7913
X4.2213Y-1.7016
X4.2423Y-2.7583
X4.3815Y-2.1189
X4.3873Y-2.7583
X4.4087Y-2.7913
X4.41Y-2.05
X4.4272Y-2.8261
X4.4422Y-2.8625
X4.47Y-2.55
X4.4939Y-2.262
X4.5039Y-1.7492
X4.5795Y-2.2602
X4.6Y-2.15
X4.6Y-2.4634
X4.6161Y-2.5394
X4.6323Y-2.36
X4.65Y-2.4205
X4.6516Y-2.2385
X4.6599Y-2.8626
X4.6748Y-2.8261
X4.6801Y-2.16
X4.6933Y-2.7914
X4.7Y-2.31
X4.7147Y-2.7583
X4.7185Y-1.6055
X4.72Y-2.09
X4.72Y-2.54
X4.8597Y-2.7583
X4.8807Y-2.0764
X4.8811Y-2.7914
X4.8909Y-2.4531
X4.8957Y-2.3461
X4.8996Y-2.8261
X4.9028Y-2.5465
X4.9083Y-1.7272
X4.9146Y-2.8626
X4.9169Y-2.2114
X4.9917Y-1.9
X5.0126Y-2.689
X5.1323Y-2.8626
X5.1398Y-1.7933
X5.1473Y-2.8262
X5.1658Y-2.7914
X5.1803Y-2.3354
X5.1871Y-2.7584
X5.239Y-1.6445
X5.2795Y-1.8846
X5.2843Y-1.7535
X5.3004Y-2.2299
X5.32Y-1.95
X5.3322Y-2.7584
X5.3536Y-2.7914
X5.3721Y-2.8262
X5.387Y-2.8626
X5.47Y-1.94
X5.472Y-1.7409
X5.4732Y-1.8909
X5.4791Y-2.2677
X5.4921Y-1.835
X5.5144Y-2.2998
X5.5217Y-1.7602
X5.5307Y-2.6004
X5.5409Y-2.2224
X5.5429Y-2.3583
X5.5433Y-2.4894
X5.5504Y-1.8632
X5.5567Y-1.7126
X5.5646Y-1.9358
X5.5693Y-1.824
X5.5787Y-2.098
X5.6047Y-2.8626
X5.6197Y-2.8262
X5.6305Y-2.5423
X5.6382Y-2.7914
X5.6461Y-1.6335
X5.6535Y-1.9827
X5.6596Y-2.7584
X5.7256Y-2.1906
X5.7508Y-2.3776
X5.8046Y-2.7584
X5.8117Y-2.2654
X5.826Y-2.7914
X5.8264Y-1.9283
X5.8445Y-2.8262
X5.8579Y-2.3339
X5.8594Y-2.8626
X5.9157Y-2.326
X5.9201Y-2.2063
T2
X4.3919Y-1.55
X4.4706Y-1.55
X4.5494Y-1.55
T3
X4.1106Y-2.6941
X4.2106Y-2.6941
X4.3106Y-2.6941
X4.4106Y-2.6941
X4.4252Y-1.9031
X4.5039Y-1.9031
X4.5106Y-2.6941
X4.5827Y-1.9031
X4.7984Y-1.5435
X4.7984Y-1.6435
X4.7984Y-1.7435
X4.7984Y-1.8435
X4.7984Y-1.9435
X4.7984Y-2.0435
X4.7984Y-2.1435
X4.7984Y-2.2435
X4.7984Y-2.3435
X4.7984Y-2.4435
X4.7984Y-2.5435
X4.7984Y-2.6435
X5.0772Y-2.5219
X5.0984Y-2.4435
X5.1772Y-2.5219
X5.1984Y-2.4435
X5.2772Y-2.5219
X5.2984Y-2.4435
X5.3984Y-1.5435
X5.3984Y-1.6435
X5.3984Y-1.7435
X5.3984Y-1.8435
X5.3984Y-1.9435
X5.3984Y-2.0435
X5.3984Y-2.1435
X5.3984Y-2.2435
X5.3984Y-2.3435
X5.3984Y-2.4435
X5.3984Y-2.5435
X5.3984Y-2.6435
T4
X3.8941Y-1.54
X4.15Y-1.54
T5
X4.3092Y-1.55
X4.632Y-1.55
T6
X3.7199Y-2.7
X3.72Y-1.5
X5.5803Y-1.5008
X5.8633Y-2.6181
M30
