%TF.GenerationSoftware,KiCad,Pcbnew,8.0.5*%
%TF.CreationDate,2024-10-29T12:08:31+01:00*%
%TF.ProjectId,mcu_holder,6d63755f-686f-46c6-9465-722e6b696361,rev?*%
%TF.SameCoordinates,Original*%
%TF.FileFunction,Copper,L2,Bot*%
%TF.FilePolarity,Positive*%
%FSLAX46Y46*%
G04 Gerber Fmt 4.6, Leading zero omitted, Abs format (unit mm)*
G04 Created by KiCad (PCBNEW 8.0.5) date 2024-10-29 12:08:31*
%MOMM*%
%LPD*%
G01*
G04 APERTURE LIST*
G04 Aperture macros list*
%AMRoundRect*
0 Rectangle with rounded corners*
0 $1 Rounding radius*
0 $2 $3 $4 $5 $6 $7 $8 $9 X,Y pos of 4 corners*
0 Add a 4 corners polygon primitive as box body*
4,1,4,$2,$3,$4,$5,$6,$7,$8,$9,$2,$3,0*
0 Add four circle primitives for the rounded corners*
1,1,$1+$1,$2,$3*
1,1,$1+$1,$4,$5*
1,1,$1+$1,$6,$7*
1,1,$1+$1,$8,$9*
0 Add four rect primitives between the rounded corners*
20,1,$1+$1,$2,$3,$4,$5,0*
20,1,$1+$1,$4,$5,$6,$7,0*
20,1,$1+$1,$6,$7,$8,$9,0*
20,1,$1+$1,$8,$9,$2,$3,0*%
%AMFreePoly0*
4,1,6,1.000000,0.000000,0.500000,-0.750000,-0.500000,-0.750000,-0.500000,0.750000,0.500000,0.750000,1.000000,0.000000,1.000000,0.000000,$1*%
%AMFreePoly1*
4,1,6,0.500000,-0.750000,-0.650000,-0.750000,-0.150000,0.000000,-0.650000,0.750000,0.500000,0.750000,0.500000,-0.750000,0.500000,-0.750000,$1*%
G04 Aperture macros list end*
%TA.AperFunction,ComponentPad*%
%ADD10C,4.500000*%
%TD*%
%TA.AperFunction,ComponentPad*%
%ADD11O,2.200000X3.500000*%
%TD*%
%TA.AperFunction,ComponentPad*%
%ADD12R,1.500000X2.500000*%
%TD*%
%TA.AperFunction,ComponentPad*%
%ADD13O,1.500000X2.500000*%
%TD*%
%TA.AperFunction,ComponentPad*%
%ADD14C,1.752600*%
%TD*%
%TA.AperFunction,ComponentPad*%
%ADD15C,2.000000*%
%TD*%
%TA.AperFunction,ComponentPad*%
%ADD16RoundRect,0.375000X0.375000X0.750000X-0.375000X0.750000X-0.375000X-0.750000X0.375000X-0.750000X0*%
%TD*%
%TA.AperFunction,SMDPad,CuDef*%
%ADD17FreePoly0,90.000000*%
%TD*%
%TA.AperFunction,SMDPad,CuDef*%
%ADD18FreePoly1,90.000000*%
%TD*%
%TA.AperFunction,SMDPad,CuDef*%
%ADD19FreePoly0,0.000000*%
%TD*%
%TA.AperFunction,SMDPad,CuDef*%
%ADD20FreePoly1,0.000000*%
%TD*%
%TA.AperFunction,ViaPad*%
%ADD21C,0.800000*%
%TD*%
%TA.AperFunction,Conductor*%
%ADD22C,0.250000*%
%TD*%
%TA.AperFunction,Conductor*%
%ADD23C,0.500000*%
%TD*%
G04 APERTURE END LIST*
D10*
%TO.P,H5,1,1*%
%TO.N,GND*%
X94486973Y-38100000D03*
%TD*%
%TO.P,H8,1,1*%
%TO.N,GND*%
X148929065Y-66500000D03*
%TD*%
D11*
%TO.P,SW17,*%
%TO.N,*%
X117654000Y-39370000D03*
X109454000Y-39370000D03*
D12*
%TO.P,SW17,1,A*%
%TO.N,unconnected-(SW17-A-Pad1)*%
X115554000Y-39370000D03*
D13*
%TO.P,SW17,2,B*%
%TO.N,BAT+*%
X113554000Y-39370000D03*
%TO.P,SW17,3,C*%
%TO.N,BATT_OR_5V*%
X111554000Y-39370000D03*
%TD*%
D14*
%TO.P,Display1,1,MOSI*%
%TO.N,NVMOSI*%
X104410000Y-68430000D03*
%TO.P,Display1,2,SCK*%
%TO.N,NVSCK*%
X106950000Y-68430000D03*
%TO.P,Display1,3,VCC*%
%TO.N,+3V3*%
X109490000Y-68430000D03*
%TO.P,Display1,4,GND*%
%TO.N,GND*%
X112030000Y-68430000D03*
%TO.P,Display1,5,CS*%
%TO.N,NVCS*%
X114570000Y-68430000D03*
%TD*%
D15*
%TO.P,SW16,1,1*%
%TO.N,RESET*%
X105410000Y-39116000D03*
%TO.P,SW16,2,2*%
%TO.N,GND*%
X98910000Y-39116000D03*
%TD*%
D10*
%TO.P,H7,1,1*%
%TO.N,GND*%
X141740000Y-38120000D03*
%TD*%
D16*
%TO.P,J7,1,Pin_1*%
%TO.N,BAT+*%
X112400000Y-48340000D03*
%TO.P,J7,2,Pin_2*%
%TO.N,GND*%
X114400000Y-48340000D03*
%TO.P,J7,3,Pin_3*%
%TO.N,BAT+*%
X116400000Y-48340000D03*
%TD*%
D10*
%TO.P,H6,1,1*%
%TO.N,GND*%
X94485092Y-68580000D03*
%TD*%
D17*
%TO.P,JP2,1,A*%
%TO.N,NVSCK*%
X107950000Y-65786000D03*
D18*
%TO.P,JP2,2,B*%
%TO.N,G*%
X107950000Y-64336000D03*
%TD*%
D19*
%TO.P,JP4,1,A*%
%TO.N,NVMOSI*%
X94017000Y-57404000D03*
D20*
%TO.P,JP4,2,B*%
%TO.N,B2*%
X95467000Y-57404000D03*
%TD*%
D17*
%TO.P,JP3,1,A*%
%TO.N,NVCS*%
X110744000Y-65786000D03*
D18*
%TO.P,JP3,2,B*%
%TO.N,R*%
X110744000Y-64336000D03*
%TD*%
D19*
%TO.P,JP6,1,A*%
%TO.N,NVCS*%
X94017000Y-62738000D03*
D20*
%TO.P,JP6,2,B*%
%TO.N,R2*%
X95467000Y-62738000D03*
%TD*%
D19*
%TO.P,JP5,1,A*%
%TO.N,NVSCK*%
X93980000Y-59944000D03*
D20*
%TO.P,JP5,2,B*%
%TO.N,G2*%
X95430000Y-59944000D03*
%TD*%
D17*
%TO.P,JP1,1,A*%
%TO.N,NVMOSI*%
X104902000Y-65786000D03*
D18*
%TO.P,JP1,2,B*%
%TO.N,B*%
X104902000Y-64336000D03*
%TD*%
D14*
%TO.P,J1,1,006*%
%TO.N,MOSI*%
X137120000Y-39205000D03*
%TO.P,J1,2,008*%
%TO.N,SPI_CS*%
X137120000Y-41745000D03*
%TO.P,J1,3,GND*%
%TO.N,GND*%
X137120000Y-44285000D03*
%TO.P,J1,4,GND*%
X137120000Y-46825000D03*
%TO.P,J1,5,017*%
%TO.N,MISO*%
X137120000Y-49365000D03*
%TO.P,J1,6,020*%
%TO.N,SCLK*%
X137120000Y-51905000D03*
%TO.P,J1,7,022*%
%TO.N,SDA*%
X137120000Y-54445000D03*
%TO.P,J1,8,024*%
%TO.N,SCL*%
X137120000Y-56985000D03*
%TO.P,J1,9,100*%
%TO.N,RGB_LED_OUT*%
X137120000Y-59525000D03*
%TO.P,J1,10,011*%
%TO.N,GPIO_AD1*%
X137120000Y-62065000D03*
%TO.P,J1,11,104*%
%TO.N,GPIO_AD2*%
X137120000Y-64605000D03*
%TO.P,J1,12,106*%
%TO.N,row_3*%
X137120000Y-67145000D03*
%TO.P,J1,13,009*%
%TO.N,row_2*%
X121880000Y-67145000D03*
%TO.P,J1,14,010*%
%TO.N,row_1*%
X121880000Y-64605000D03*
%TO.P,J1,15,111*%
%TO.N,row_0*%
X121880000Y-62065000D03*
%TO.P,J1,16,113*%
%TO.N,col3*%
X121880000Y-59525000D03*
%TO.P,J1,17,115*%
%TO.N,col4*%
X121880000Y-56985000D03*
%TO.P,J1,18,002*%
%TO.N,col2*%
X121880000Y-54445000D03*
%TO.P,J1,19,029*%
%TO.N,col1*%
X121880000Y-51905000D03*
%TO.P,J1,20,031*%
%TO.N,col0*%
X121880000Y-49365000D03*
%TO.P,J1,21,3V3*%
%TO.N,+3V3*%
X121880000Y-46825000D03*
%TO.P,J1,22,RST*%
%TO.N,RESET*%
X121880000Y-44285000D03*
%TO.P,J1,23,GND*%
%TO.N,GND*%
X121880000Y-41745000D03*
%TO.P,J1,24,BAT*%
%TO.N,BATT_OR_5V*%
X121880000Y-39205000D03*
%TO.P,J1,31,101*%
%TO.N,NVMOSI*%
X134580000Y-62065000D03*
X134040000Y-64055000D03*
%TO.P,J1,32,102*%
%TO.N,NVSCK*%
X132040000Y-62065000D03*
X131500000Y-64055000D03*
%TO.P,J1,33,107*%
%TO.N,NVCS*%
X129500000Y-62065000D03*
X128960000Y-64055000D03*
%TD*%
D21*
%TO.N,col2*%
X118360312Y-72708805D03*
X124829869Y-72708805D03*
X139020000Y-48030000D03*
%TO.N,row_0*%
X142740000Y-71784829D03*
X100775171Y-63115221D03*
X118739869Y-71783634D03*
X100775171Y-45284778D03*
X148450443Y-71784829D03*
X136450778Y-71784646D03*
X130740335Y-71784646D03*
X124450312Y-71783634D03*
X100451903Y-71781850D03*
X94741460Y-71781850D03*
X100775171Y-57404778D03*
X112451638Y-71782694D03*
X106741195Y-71782694D03*
X100775171Y-50995221D03*
%TO.N,row_1*%
X96390000Y-71070000D03*
X123980491Y-70900870D03*
X99982082Y-70899086D03*
X101657935Y-62645400D03*
X111981817Y-70899930D03*
X101657935Y-45754599D03*
X101657935Y-50525400D03*
X101657935Y-57874599D03*
X135980957Y-70901882D03*
X131210156Y-70901882D03*
X143209821Y-70902065D03*
X147980622Y-70902065D03*
X119209690Y-70900870D03*
X107211016Y-70899930D03*
%TO.N,row_2*%
X99438934Y-70059446D03*
X102497575Y-49982252D03*
X102497575Y-62102252D03*
X135437809Y-70062242D03*
X111438669Y-70060290D03*
X123437343Y-70061230D03*
X102497575Y-46297747D03*
X119752838Y-70061230D03*
X147437474Y-70062425D03*
X97200000Y-70210000D03*
X102497575Y-58417747D03*
X143752969Y-70062425D03*
X131753304Y-70062242D03*
X107754164Y-70060290D03*
%TO.N,col3*%
X106361638Y-72707865D03*
X140980000Y-47325000D03*
X112831195Y-72707865D03*
%TO.N,col0*%
X141140000Y-43500000D03*
X142360443Y-72710000D03*
X99850000Y-44905221D03*
X148830000Y-72710000D03*
X99850000Y-51374778D03*
%TO.N,col1*%
X136830335Y-72709817D03*
X130360778Y-72709817D03*
X140250000Y-44710000D03*
%TO.N,col4*%
X100831460Y-72707021D03*
X94361903Y-72707021D03*
X97890000Y-72720000D03*
X130550000Y-45550000D03*
%TO.N,GND*%
X97536000Y-65278000D03*
X98510000Y-54380000D03*
X131580000Y-59320000D03*
X133070000Y-41770000D03*
X116840000Y-54610000D03*
X92910000Y-55320000D03*
X134100000Y-47870000D03*
X124530000Y-64680000D03*
X119888000Y-64516000D03*
X141340000Y-49170000D03*
X139170000Y-57600000D03*
X101800000Y-66590000D03*
X134630000Y-56640000D03*
X138990000Y-44220000D03*
X117250000Y-64500000D03*
X119888000Y-53086000D03*
X119380000Y-58674000D03*
X114400000Y-44430000D03*
X140740000Y-56450000D03*
X138938000Y-49276000D03*
X135128000Y-49530000D03*
X124670000Y-43870000D03*
X140480000Y-66050000D03*
X141700000Y-53290000D03*
X124890000Y-56170000D03*
X100030000Y-60480000D03*
X139500000Y-46610000D03*
X118110000Y-61480000D03*
X127320000Y-68300000D03*
X116320000Y-57410000D03*
X97390000Y-56250000D03*
X146070000Y-60390000D03*
X147990000Y-48980000D03*
X119850000Y-40780000D03*
X140800000Y-63230000D03*
X123970000Y-52740000D03*
X113538000Y-64770000D03*
X124350000Y-59590000D03*
X134220000Y-44540000D03*
X124230000Y-62310000D03*
X126790000Y-48260000D03*
%TO.N,RGB_LED_OUT*%
X140064696Y-58415001D03*
%TO.N,+3V3*%
X118150000Y-56859000D03*
X107220000Y-43220000D03*
%TO.N,SDA*%
X140790000Y-59900000D03*
%TO.N,GPIO_AD2*%
X150260000Y-59080000D03*
X143015000Y-64575000D03*
%TO.N,GPIO_AD1*%
X148790000Y-59280000D03*
%TO.N,row_3*%
X141460000Y-46330000D03*
%TO.N,SPI_CS*%
X143410000Y-41490000D03*
X150370000Y-56040000D03*
%TO.N,NVCS*%
X116840000Y-62570000D03*
X91948000Y-62738000D03*
X117659303Y-59943997D03*
X118875000Y-54864000D03*
%TO.N,NVSCK*%
X93020000Y-65280000D03*
X92760000Y-59944000D03*
%TO.N,NVMOSI*%
X101740000Y-54440000D03*
X98990000Y-53170000D03*
X103378000Y-56896000D03*
X114145000Y-57455000D03*
%TO.N,MISO*%
X143600000Y-50360000D03*
X145430000Y-55640000D03*
%TO.N,MOSI*%
X147617347Y-57540000D03*
%TO.N,B*%
X103505000Y-53721000D03*
%TO.N,G*%
X111289001Y-53820304D03*
%TO.N,R*%
X112014000Y-52070000D03*
%TO.N,B2*%
X99520000Y-57020000D03*
%TO.N,G2*%
X101303000Y-60160000D03*
%TO.N,R2*%
X102620000Y-64190000D03*
%TD*%
D22*
%TO.N,col2*%
X120962000Y-58224000D02*
X120396000Y-57658000D01*
X120396000Y-57658000D02*
X120396000Y-55929000D01*
X135480000Y-48030000D02*
X125286000Y-58224000D01*
X125286000Y-58224000D02*
X120962000Y-58224000D01*
X118360312Y-72708805D02*
X124829869Y-72708805D01*
X120396000Y-55929000D02*
X121880000Y-54445000D01*
X139020000Y-48030000D02*
X135480000Y-48030000D01*
%TO.N,row_0*%
X105146198Y-72898000D02*
X106259369Y-71784829D01*
X100775171Y-56925087D02*
X100775171Y-57404778D01*
X102028000Y-60910126D02*
X102028000Y-59609873D01*
X94941631Y-71982021D02*
X101131765Y-71982021D01*
X100300000Y-45759949D02*
X100300000Y-50799473D01*
X101131765Y-71982021D02*
X102047744Y-72898000D01*
X100775171Y-63115221D02*
X100775171Y-62162955D01*
X100575000Y-51074473D02*
X100575000Y-51675083D01*
X102028000Y-59609873D02*
X100775171Y-58357044D01*
X100575000Y-51675083D02*
X99822000Y-52428083D01*
X102047744Y-72898000D02*
X105146198Y-72898000D01*
X99822000Y-52428083D02*
X99822000Y-55971916D01*
X99822000Y-55971916D02*
X100775171Y-56925087D01*
X94741460Y-71781850D02*
X94941631Y-71982021D01*
X100775171Y-62162955D02*
X102028000Y-60910126D01*
X106259369Y-71784829D02*
X148450443Y-71784829D01*
X100775171Y-58357044D02*
X100775171Y-57404778D01*
X100300000Y-50799473D02*
X100575000Y-51074473D01*
X100775171Y-45284778D02*
X100300000Y-45759949D01*
%TO.N,row_1*%
X147270723Y-71057694D02*
X106350108Y-71057694D01*
X102478000Y-59423477D02*
X101657935Y-58603412D01*
X100842990Y-71056850D02*
X96403150Y-71056850D01*
X101500171Y-51386308D02*
X100272000Y-52614479D01*
X101657935Y-58603412D02*
X101657935Y-57874599D01*
X100272000Y-55785520D02*
X101657935Y-57171455D01*
X101500171Y-45912363D02*
X101500171Y-51386308D01*
X96403150Y-71056850D02*
X96390000Y-71070000D01*
X105017802Y-72390000D02*
X102176140Y-72390000D01*
X147980622Y-70902065D02*
X147547858Y-71334829D01*
X102478000Y-61096522D02*
X102478000Y-59423477D01*
X101657935Y-62645400D02*
X101657935Y-61916587D01*
X101657935Y-45754599D02*
X101500171Y-45912363D01*
X100272000Y-52614479D02*
X100272000Y-55785520D01*
X147547858Y-71334829D02*
X147270723Y-71057694D01*
X102176140Y-72390000D02*
X100842990Y-71056850D01*
X101657935Y-61916587D02*
X102478000Y-61096522D01*
X106350108Y-71057694D02*
X105017802Y-72390000D01*
X101657935Y-57171455D02*
X101657935Y-57874599D01*
%TO.N,row_2*%
X100722000Y-52800875D02*
X100722000Y-55599124D01*
X97200000Y-70210000D02*
X97235914Y-70174086D01*
X100722000Y-55599124D02*
X102497575Y-57374699D01*
X102382935Y-47277915D02*
X102382935Y-51139940D01*
X100596622Y-70174086D02*
X102304536Y-71882000D01*
X101950171Y-46845151D02*
X102382935Y-47277915D01*
X102304536Y-71882000D02*
X104889406Y-71882000D01*
X102928000Y-61671827D02*
X102928000Y-58848172D01*
X102928000Y-58848172D02*
X102497575Y-58417747D01*
X104889406Y-71882000D02*
X106708981Y-70062425D01*
X102497575Y-62102252D02*
X102928000Y-61671827D01*
X102382935Y-51139940D02*
X100722000Y-52800875D01*
X102497575Y-46297747D02*
X101950171Y-46845151D01*
X102497575Y-57374699D02*
X102497575Y-58417747D01*
X106708981Y-70062425D02*
X147437474Y-70062425D01*
X97235914Y-70174086D02*
X100596622Y-70174086D01*
%TO.N,col3*%
X106361638Y-72707865D02*
X112831195Y-72707865D01*
X139770000Y-48535000D02*
X139770000Y-49750000D01*
X122731000Y-58674000D02*
X121880000Y-59525000D01*
X133535458Y-50610938D02*
X125472396Y-58674000D01*
X140980000Y-47325000D02*
X139770000Y-48535000D01*
X138909062Y-50610938D02*
X133535458Y-50610938D01*
X125472396Y-58674000D02*
X122731000Y-58674000D01*
X139770000Y-49750000D02*
X138909062Y-50610938D01*
%TO.N,col0*%
X137822304Y-40543700D02*
X139544302Y-42265698D01*
X99850000Y-44905221D02*
X99850000Y-51374778D01*
X142360443Y-72710000D02*
X148830000Y-72710000D01*
X121880000Y-49365000D02*
X130701300Y-40543700D01*
X140778604Y-43500000D02*
X141140000Y-43500000D01*
X137400000Y-40543700D02*
X137822304Y-40543700D01*
X130701300Y-40543700D02*
X137400000Y-40543700D01*
X139544302Y-42265698D02*
X140778604Y-43500000D01*
%TO.N,col1*%
X139660000Y-43070000D02*
X140250000Y-43660000D01*
X129720000Y-43070000D02*
X139660000Y-43070000D01*
X130360778Y-72709817D02*
X136830335Y-72709817D01*
X140250000Y-43660000D02*
X140250000Y-44710000D01*
X121880000Y-51905000D02*
X124940000Y-48845000D01*
X124940000Y-47850000D02*
X129720000Y-43070000D01*
X124940000Y-48845000D02*
X124940000Y-47850000D01*
%TO.N,col4*%
X130550000Y-45550000D02*
X129700000Y-46400000D01*
X129700000Y-49165000D02*
X121880000Y-56985000D01*
X94361903Y-72707021D02*
X100831460Y-72707021D01*
X129700000Y-46400000D02*
X129700000Y-49165000D01*
D23*
%TO.N,RESET*%
X105410000Y-40450000D02*
X105410000Y-39116000D01*
X119895000Y-42300000D02*
X107260000Y-42300000D01*
X121880000Y-44285000D02*
X119895000Y-42300000D01*
X107260000Y-42300000D02*
X105410000Y-40450000D01*
D22*
%TO.N,RGB_LED_OUT*%
X138229999Y-58415001D02*
X137120000Y-59525000D01*
X140064696Y-58415001D02*
X138229999Y-58415001D01*
%TO.N,+3V3*%
X118150000Y-56859000D02*
X118150000Y-50555000D01*
X121880000Y-46825000D02*
X118275000Y-43220000D01*
X118150000Y-50555000D02*
X121880000Y-46825000D01*
X118275000Y-43220000D02*
X107220000Y-43220000D01*
%TO.N,SDA*%
X140790000Y-59900000D02*
X140790000Y-58115000D01*
X140790000Y-58115000D02*
X137120000Y-54445000D01*
%TO.N,GPIO_AD2*%
X145945000Y-64575000D02*
X143015000Y-64575000D01*
X150260000Y-59080000D02*
X150424268Y-59244268D01*
X150424268Y-60095732D02*
X145945000Y-64575000D01*
X143015000Y-64575000D02*
X142985000Y-64605000D01*
X150424268Y-59244268D02*
X150424268Y-60095732D01*
%TO.N,GPIO_AD1*%
X148790000Y-59280000D02*
X148790000Y-61093604D01*
X147818604Y-62065000D02*
X137120000Y-62065000D01*
X148790000Y-61093604D02*
X147818604Y-62065000D01*
%TO.N,row_3*%
X146155000Y-51025000D02*
X146155000Y-57215000D01*
X141460000Y-46330000D02*
X146155000Y-51025000D01*
X150985000Y-60225000D02*
X144065000Y-67145000D01*
X150485000Y-58265000D02*
X150985000Y-58765000D01*
X147205000Y-58265000D02*
X150485000Y-58265000D01*
X150985000Y-58765000D02*
X150985000Y-60225000D01*
X144065000Y-67145000D02*
X137120000Y-67145000D01*
X146155000Y-57215000D02*
X147205000Y-58265000D01*
%TO.N,SPI_CS*%
X150370000Y-56040000D02*
X149820000Y-55490000D01*
X149820000Y-55490000D02*
X149820000Y-47900000D01*
X149820000Y-47900000D02*
X143410000Y-41490000D01*
%TO.N,NVCS*%
X94017000Y-62738000D02*
X91948000Y-62738000D01*
X118955000Y-57079305D02*
X118955000Y-54944000D01*
X116840000Y-62738000D02*
X113226000Y-66352000D01*
X128171300Y-63266300D02*
X128960000Y-64055000D01*
X117659303Y-59943997D02*
X117659303Y-58375002D01*
X117659303Y-58375002D02*
X118955000Y-57079305D01*
X117536300Y-63266300D02*
X128171300Y-63266300D01*
X111310000Y-66352000D02*
X110744000Y-65786000D01*
X116840000Y-62570000D02*
X116840000Y-62738000D01*
X113226000Y-66352000D02*
X111310000Y-66352000D01*
X118955000Y-54944000D02*
X118875000Y-54864000D01*
X116840000Y-62570000D02*
X117536300Y-63266300D01*
%TO.N,NVSCK*%
X92706000Y-59944000D02*
X92660000Y-59990000D01*
X129694111Y-65860889D02*
X131500000Y-64055000D01*
X93980000Y-59944000D02*
X92760000Y-59944000D01*
X104590000Y-71432000D02*
X106950000Y-69072000D01*
X102664695Y-71432000D02*
X104590000Y-71432000D01*
X113695700Y-66802000D02*
X114636811Y-65860889D01*
X96512696Y-65280000D02*
X96986348Y-65753652D01*
X107950000Y-67430000D02*
X107950000Y-65786000D01*
X108578000Y-66802000D02*
X113695700Y-66802000D01*
X114636811Y-65860889D02*
X129694111Y-65860889D01*
X106950000Y-69072000D02*
X106950000Y-68430000D01*
X92760000Y-59944000D02*
X92706000Y-59944000D01*
X93020000Y-65280000D02*
X96512696Y-65280000D01*
X106950000Y-68430000D02*
X108578000Y-66802000D01*
X96986348Y-65753652D02*
X102664695Y-71432000D01*
X106950000Y-68430000D02*
X107950000Y-67430000D01*
X106730000Y-68210000D02*
X106950000Y-68430000D01*
%TO.N,NVMOSI*%
X94017000Y-56987446D02*
X94017000Y-57404000D01*
X104410000Y-66278000D02*
X104410000Y-68430000D01*
X104902000Y-65786000D02*
X104410000Y-66278000D01*
X117416301Y-60726300D02*
X116934303Y-60244302D01*
X104485446Y-65786000D02*
X104902000Y-65786000D01*
X114145000Y-57455000D02*
X114080000Y-57390000D01*
X96520000Y-54864000D02*
X94742000Y-54864000D01*
X133241300Y-60726300D02*
X117416301Y-60726300D01*
X93980000Y-56950446D02*
X94017000Y-56987446D01*
X94742000Y-54864000D02*
X93980000Y-55626000D01*
X103378000Y-56896000D02*
X103378000Y-64678554D01*
X116934303Y-59276303D02*
X115113000Y-57455000D01*
X115113000Y-57455000D02*
X114145000Y-57455000D01*
X116934303Y-60244302D02*
X116934303Y-59276303D01*
X98214000Y-53170000D02*
X96520000Y-54864000D01*
X98990000Y-53170000D02*
X98214000Y-53170000D01*
X134580000Y-62065000D02*
X133241300Y-60726300D01*
X93980000Y-55626000D02*
X93980000Y-56950446D01*
X101740000Y-55258000D02*
X103378000Y-56896000D01*
X103378000Y-64678554D02*
X104485446Y-65786000D01*
X101740000Y-54440000D02*
X101740000Y-55258000D01*
%TO.N,MISO*%
X145430000Y-52190000D02*
X143600000Y-50360000D01*
X145430000Y-55640000D02*
X145430000Y-52190000D01*
%TO.N,MOSI*%
X147617347Y-57540000D02*
X149370000Y-55787347D01*
X143498604Y-42215000D02*
X140130000Y-42215000D01*
X140130000Y-42215000D02*
X137120000Y-39205000D01*
X149370000Y-48086396D02*
X143498604Y-42215000D01*
X149370000Y-55787347D02*
X149370000Y-48086396D01*
%TO.N,B*%
X103505000Y-53721000D02*
X104290000Y-54506000D01*
X104290000Y-63724000D02*
X104902000Y-64336000D01*
X104290000Y-54506000D02*
X104290000Y-63724000D01*
%TO.N,G*%
X109240000Y-56295000D02*
X109240000Y-63046000D01*
X111289001Y-54245999D02*
X109240000Y-56295000D01*
X109240000Y-63046000D02*
X107950000Y-64336000D01*
X111289001Y-53820304D02*
X111289001Y-54245999D01*
%TO.N,R*%
X112014000Y-52070000D02*
X112014000Y-54157396D01*
X109690000Y-56481396D02*
X109690000Y-63282000D01*
X112014000Y-54157396D02*
X109690000Y-56481396D01*
X109690000Y-63282000D02*
X110744000Y-64336000D01*
%TO.N,B2*%
X95467000Y-57404000D02*
X99136000Y-57404000D01*
X99136000Y-57404000D02*
X99520000Y-57020000D01*
%TO.N,G2*%
X96534000Y-58840000D02*
X95430000Y-59944000D01*
X101303000Y-60160000D02*
X99983000Y-58840000D01*
X99983000Y-58840000D02*
X96534000Y-58840000D01*
%TO.N,R2*%
X95467000Y-62738000D02*
X96639000Y-63910000D01*
X102340000Y-63910000D02*
X102620000Y-64190000D01*
X96639000Y-63910000D02*
X102340000Y-63910000D01*
%TD*%
%TA.AperFunction,Conductor*%
%TO.N,GND*%
G36*
X92946759Y-63391185D02*
G01*
X92992514Y-63443989D01*
X93003404Y-63486654D01*
X93008726Y-63561078D01*
X93008727Y-63561083D01*
X93049902Y-63701313D01*
X93049902Y-63701314D01*
X93128921Y-63824269D01*
X93128922Y-63824270D01*
X93128923Y-63824271D01*
X93239381Y-63919984D01*
X93291200Y-63943649D01*
X93372326Y-63980699D01*
X93372329Y-63980699D01*
X93372330Y-63980700D01*
X93517000Y-64001500D01*
X93517003Y-64001500D01*
X94516984Y-64001500D01*
X94517000Y-64001500D01*
X94581528Y-63997430D01*
X94627616Y-63984733D01*
X94678193Y-63981543D01*
X94817000Y-64001500D01*
X95783234Y-64001500D01*
X95850273Y-64021185D01*
X95870915Y-64037819D01*
X96146929Y-64313833D01*
X96204596Y-64371500D01*
X96235168Y-64402072D01*
X96261098Y-64419398D01*
X96305903Y-64473010D01*
X96314610Y-64542335D01*
X96284455Y-64605363D01*
X96225012Y-64642082D01*
X96192207Y-64646500D01*
X93727309Y-64646500D01*
X93660270Y-64626815D01*
X93635160Y-64605473D01*
X93631254Y-64601135D01*
X93595283Y-64575000D01*
X93476752Y-64488882D01*
X93302288Y-64411206D01*
X93302286Y-64411205D01*
X93115487Y-64371500D01*
X92924513Y-64371500D01*
X92737714Y-64411205D01*
X92737712Y-64411206D01*
X92602514Y-64471400D01*
X92563246Y-64488883D01*
X92408745Y-64601135D01*
X92280959Y-64743057D01*
X92185473Y-64908443D01*
X92185470Y-64908450D01*
X92130600Y-65077323D01*
X92126458Y-65090072D01*
X92106496Y-65280000D01*
X92126458Y-65469928D01*
X92126459Y-65469931D01*
X92185470Y-65651549D01*
X92185473Y-65651556D01*
X92280960Y-65816944D01*
X92408747Y-65958866D01*
X92563248Y-66071118D01*
X92737712Y-66148794D01*
X92786015Y-66159061D01*
X92847493Y-66192251D01*
X92881270Y-66253414D01*
X92876618Y-66323129D01*
X92836704Y-66377961D01*
X92724507Y-66465861D01*
X92724507Y-66465862D01*
X93544393Y-67285748D01*
X93442762Y-67359588D01*
X93264680Y-67537670D01*
X93190840Y-67639301D01*
X92370954Y-66819415D01*
X92217749Y-67014968D01*
X92045637Y-67299678D01*
X92045635Y-67299680D01*
X91909097Y-67603056D01*
X91909091Y-67603071D01*
X91810124Y-67920670D01*
X91750152Y-68247923D01*
X91730066Y-68580000D01*
X91750152Y-68912076D01*
X91810124Y-69239329D01*
X91909091Y-69556928D01*
X91909097Y-69556943D01*
X92045635Y-69860319D01*
X92045637Y-69860321D01*
X92217749Y-70145031D01*
X92217754Y-70145039D01*
X92370954Y-70340583D01*
X93190839Y-69520697D01*
X93264680Y-69622330D01*
X93442762Y-69800412D01*
X93544392Y-69874251D01*
X92724507Y-70694136D01*
X92724507Y-70694137D01*
X92920052Y-70847337D01*
X92920060Y-70847342D01*
X93204770Y-71019454D01*
X93204772Y-71019456D01*
X93508148Y-71155994D01*
X93508163Y-71156000D01*
X93825473Y-71254877D01*
X93883621Y-71293614D01*
X93911595Y-71357639D01*
X93906514Y-71411580D01*
X93847919Y-71591918D01*
X93847918Y-71591922D01*
X93847605Y-71594901D01*
X93827956Y-71781850D01*
X93839039Y-71887300D01*
X93826469Y-71956030D01*
X93788605Y-72000578D01*
X93750649Y-72028155D01*
X93622862Y-72170078D01*
X93527376Y-72335464D01*
X93527373Y-72335471D01*
X93476898Y-72490818D01*
X93468361Y-72517093D01*
X93448399Y-72707021D01*
X93468361Y-72896949D01*
X93468362Y-72896952D01*
X93527373Y-73078570D01*
X93527376Y-73078577D01*
X93622863Y-73243965D01*
X93725193Y-73357615D01*
X93749260Y-73384344D01*
X93750650Y-73385887D01*
X93905151Y-73498139D01*
X94079615Y-73575815D01*
X94266416Y-73615521D01*
X94457390Y-73615521D01*
X94644191Y-73575815D01*
X94818655Y-73498139D01*
X94973156Y-73385887D01*
X94977063Y-73381548D01*
X95036549Y-73344900D01*
X95069212Y-73340521D01*
X97171005Y-73340521D01*
X97238044Y-73360206D01*
X97263154Y-73381548D01*
X97278747Y-73398866D01*
X97433248Y-73511118D01*
X97607712Y-73588794D01*
X97794513Y-73628500D01*
X97985487Y-73628500D01*
X98172288Y-73588794D01*
X98346752Y-73511118D01*
X98501253Y-73398866D01*
X98516844Y-73381549D01*
X98576331Y-73344901D01*
X98608995Y-73340521D01*
X100124151Y-73340521D01*
X100191190Y-73360206D01*
X100216300Y-73381548D01*
X100218817Y-73384344D01*
X100220207Y-73385887D01*
X100374708Y-73498139D01*
X100549172Y-73575815D01*
X100735973Y-73615521D01*
X100926947Y-73615521D01*
X101113748Y-73575815D01*
X101288212Y-73498139D01*
X101442713Y-73385887D01*
X101448618Y-73379327D01*
X101508101Y-73342676D01*
X101577958Y-73344002D01*
X101628453Y-73374614D01*
X101643907Y-73390068D01*
X101643911Y-73390071D01*
X101747662Y-73459396D01*
X101747668Y-73459399D01*
X101747669Y-73459400D01*
X101862959Y-73507155D01*
X101985345Y-73531499D01*
X101985349Y-73531500D01*
X101985350Y-73531500D01*
X105208593Y-73531500D01*
X105208594Y-73531499D01*
X105330983Y-73507155D01*
X105446273Y-73459400D01*
X105550031Y-73390071D01*
X105564644Y-73375457D01*
X105625963Y-73341973D01*
X105695654Y-73346956D01*
X105744475Y-73380168D01*
X105750380Y-73386727D01*
X105750382Y-73386728D01*
X105750385Y-73386731D01*
X105904886Y-73498983D01*
X106079350Y-73576659D01*
X106266151Y-73616365D01*
X106457125Y-73616365D01*
X106643926Y-73576659D01*
X106818390Y-73498983D01*
X106972891Y-73386731D01*
X106976798Y-73382392D01*
X107036284Y-73345744D01*
X107068947Y-73341365D01*
X112123886Y-73341365D01*
X112190925Y-73361050D01*
X112216035Y-73382392D01*
X112216881Y-73383332D01*
X112219942Y-73386731D01*
X112374443Y-73498983D01*
X112548907Y-73576659D01*
X112735708Y-73616365D01*
X112926682Y-73616365D01*
X113113483Y-73576659D01*
X113287947Y-73498983D01*
X113442448Y-73386731D01*
X113570235Y-73244809D01*
X113665722Y-73079421D01*
X113724737Y-72897793D01*
X113744699Y-72707865D01*
X113728662Y-72555287D01*
X113741231Y-72486561D01*
X113788963Y-72435537D01*
X113851983Y-72418329D01*
X117339623Y-72418329D01*
X117406662Y-72438014D01*
X117452417Y-72490818D01*
X117462943Y-72555286D01*
X117446808Y-72708805D01*
X117466770Y-72898733D01*
X117466771Y-72898736D01*
X117525782Y-73080354D01*
X117525785Y-73080361D01*
X117621272Y-73245749D01*
X117708211Y-73342305D01*
X117748212Y-73386731D01*
X117749059Y-73387671D01*
X117903560Y-73499923D01*
X118078024Y-73577599D01*
X118264825Y-73617305D01*
X118455799Y-73617305D01*
X118642600Y-73577599D01*
X118817064Y-73499923D01*
X118971565Y-73387671D01*
X118975472Y-73383332D01*
X119034958Y-73346684D01*
X119067621Y-73342305D01*
X124122560Y-73342305D01*
X124189599Y-73361990D01*
X124214709Y-73383332D01*
X124217769Y-73386731D01*
X124218616Y-73387671D01*
X124373117Y-73499923D01*
X124547581Y-73577599D01*
X124734382Y-73617305D01*
X124925356Y-73617305D01*
X125112157Y-73577599D01*
X125286621Y-73499923D01*
X125441122Y-73387671D01*
X125568909Y-73245749D01*
X125664396Y-73080361D01*
X125723411Y-72898733D01*
X125743373Y-72708805D01*
X125727237Y-72555286D01*
X125739806Y-72486561D01*
X125787538Y-72435537D01*
X125850558Y-72418329D01*
X129340195Y-72418329D01*
X129407234Y-72438014D01*
X129452989Y-72490818D01*
X129463515Y-72555287D01*
X129447274Y-72709817D01*
X129467236Y-72899745D01*
X129467237Y-72899748D01*
X129526248Y-73081366D01*
X129526251Y-73081373D01*
X129621738Y-73246761D01*
X129653663Y-73282217D01*
X129747765Y-73386729D01*
X129749525Y-73388683D01*
X129904026Y-73500935D01*
X130078490Y-73578611D01*
X130265291Y-73618317D01*
X130456265Y-73618317D01*
X130643066Y-73578611D01*
X130817530Y-73500935D01*
X130972031Y-73388683D01*
X130975938Y-73384344D01*
X131035424Y-73347696D01*
X131068087Y-73343317D01*
X136123026Y-73343317D01*
X136190065Y-73363002D01*
X136215175Y-73384344D01*
X136217322Y-73386729D01*
X136219082Y-73388683D01*
X136373583Y-73500935D01*
X136548047Y-73578611D01*
X136734848Y-73618317D01*
X136925822Y-73618317D01*
X137112623Y-73578611D01*
X137287087Y-73500935D01*
X137441588Y-73388683D01*
X137569375Y-73246761D01*
X137664862Y-73081373D01*
X137723877Y-72899745D01*
X137743839Y-72709817D01*
X137727597Y-72555288D01*
X137740166Y-72486561D01*
X137787898Y-72435537D01*
X137850918Y-72418329D01*
X141339879Y-72418329D01*
X141406918Y-72438014D01*
X141452673Y-72490818D01*
X141463199Y-72555288D01*
X141449289Y-72687638D01*
X141447065Y-72708805D01*
X141446939Y-72710000D01*
X141466901Y-72899928D01*
X141466902Y-72899931D01*
X141525913Y-73081549D01*
X141525916Y-73081556D01*
X141621403Y-73246944D01*
X141708178Y-73343317D01*
X141747267Y-73386731D01*
X141749190Y-73388866D01*
X141903691Y-73501118D01*
X142078155Y-73578794D01*
X142264956Y-73618500D01*
X142455930Y-73618500D01*
X142642731Y-73578794D01*
X142817195Y-73501118D01*
X142971696Y-73388866D01*
X142975603Y-73384527D01*
X143035089Y-73347879D01*
X143067752Y-73343500D01*
X148122691Y-73343500D01*
X148189730Y-73363185D01*
X148214840Y-73384527D01*
X148216824Y-73386731D01*
X148218747Y-73388866D01*
X148373248Y-73501118D01*
X148547712Y-73578794D01*
X148734513Y-73618500D01*
X148925487Y-73618500D01*
X149112288Y-73578794D01*
X149286752Y-73501118D01*
X149441253Y-73388866D01*
X149569040Y-73246944D01*
X149664527Y-73081556D01*
X149723542Y-72899928D01*
X149743504Y-72710000D01*
X149723542Y-72520072D01*
X149664527Y-72338444D01*
X149569040Y-72173056D01*
X149518989Y-72117469D01*
X149441258Y-72031138D01*
X149441249Y-72031131D01*
X149403298Y-72003557D01*
X149360632Y-71948227D01*
X149352863Y-71890280D01*
X149363947Y-71784829D01*
X149343985Y-71594901D01*
X149284970Y-71413273D01*
X149189483Y-71247885D01*
X149061696Y-71105963D01*
X149012197Y-71070000D01*
X148944022Y-71020467D01*
X148901357Y-70965136D01*
X148893588Y-70907184D01*
X148893625Y-70906822D01*
X148894126Y-70902065D01*
X148874164Y-70712137D01*
X148815149Y-70530509D01*
X148719662Y-70365121D01*
X148591875Y-70223199D01*
X148507827Y-70162134D01*
X148437373Y-70110946D01*
X148417488Y-70102093D01*
X148364251Y-70056842D01*
X148344603Y-70001778D01*
X148331016Y-69872497D01*
X148272001Y-69690869D01*
X148176514Y-69525481D01*
X148048727Y-69383559D01*
X148047082Y-69382364D01*
X147989561Y-69340571D01*
X147946895Y-69285241D01*
X147940917Y-69215628D01*
X147973523Y-69153833D01*
X148034363Y-69119476D01*
X148099338Y-69121869D01*
X148269738Y-69174968D01*
X148596988Y-69234939D01*
X148929065Y-69255025D01*
X149261141Y-69234939D01*
X149588394Y-69174967D01*
X149905993Y-69076000D01*
X149906008Y-69075994D01*
X150209384Y-68939456D01*
X150209386Y-68939454D01*
X150494095Y-68767343D01*
X150689648Y-68614137D01*
X150689648Y-68614136D01*
X149869763Y-67794251D01*
X149971395Y-67720412D01*
X150149477Y-67542330D01*
X150223316Y-67440698D01*
X151043201Y-68260583D01*
X151043202Y-68260583D01*
X151196408Y-68065030D01*
X151368519Y-67780321D01*
X151368520Y-67780319D01*
X151462924Y-67570564D01*
X151508389Y-67517509D01*
X151575319Y-67497457D01*
X151642465Y-67516773D01*
X151688510Y-67569325D01*
X151700000Y-67621455D01*
X151700000Y-79848791D01*
X151699976Y-79851223D01*
X151697818Y-79961223D01*
X151696315Y-79978189D01*
X151661709Y-80196680D01*
X151657167Y-80215600D01*
X151589186Y-80424827D01*
X151581740Y-80442804D01*
X151481861Y-80638826D01*
X151471694Y-80655416D01*
X151342387Y-80833393D01*
X151329750Y-80848189D01*
X151174189Y-81003750D01*
X151159393Y-81016387D01*
X150981416Y-81145694D01*
X150964826Y-81155861D01*
X150768804Y-81255740D01*
X150750827Y-81263186D01*
X150541600Y-81331167D01*
X150522680Y-81335709D01*
X150304189Y-81370315D01*
X150287223Y-81371818D01*
X150177224Y-81373976D01*
X150174792Y-81374000D01*
X92965208Y-81374000D01*
X92962776Y-81373976D01*
X92852776Y-81371818D01*
X92835810Y-81370315D01*
X92617319Y-81335709D01*
X92598399Y-81331167D01*
X92389172Y-81263186D01*
X92371195Y-81255740D01*
X92175173Y-81155861D01*
X92158583Y-81145694D01*
X91980606Y-81016387D01*
X91965810Y-81003750D01*
X91810249Y-80848189D01*
X91797612Y-80833393D01*
X91668305Y-80655416D01*
X91658138Y-80638826D01*
X91558259Y-80442804D01*
X91550813Y-80424827D01*
X91482832Y-80215600D01*
X91478290Y-80196680D01*
X91443684Y-79978189D01*
X91442181Y-79961230D01*
X91440024Y-79851222D01*
X91440000Y-79848791D01*
X91440000Y-63697243D01*
X91459685Y-63630204D01*
X91512489Y-63584449D01*
X91581647Y-63574505D01*
X91614432Y-63583962D01*
X91665712Y-63606794D01*
X91852513Y-63646500D01*
X92043487Y-63646500D01*
X92230288Y-63606794D01*
X92404752Y-63529118D01*
X92559253Y-63416866D01*
X92563160Y-63412527D01*
X92622646Y-63375879D01*
X92655309Y-63371500D01*
X92879720Y-63371500D01*
X92946759Y-63391185D01*
G37*
%TD.AperFunction*%
%TA.AperFunction,Conductor*%
G36*
X101770496Y-64563185D02*
G01*
X101810844Y-64605500D01*
X101880960Y-64726944D01*
X102008747Y-64868866D01*
X102163248Y-64981118D01*
X102337712Y-65058794D01*
X102524513Y-65098500D01*
X102715486Y-65098500D01*
X102715487Y-65098500D01*
X102803483Y-65079795D01*
X102873149Y-65085110D01*
X102916945Y-65113404D01*
X103602181Y-65798639D01*
X103635666Y-65859962D01*
X103638500Y-65886320D01*
X103638500Y-66286002D01*
X103643726Y-66359077D01*
X103643727Y-66359083D01*
X103684902Y-66499313D01*
X103684902Y-66499314D01*
X103726226Y-66563614D01*
X103756815Y-66611211D01*
X103776500Y-66678249D01*
X103776500Y-67124366D01*
X103756815Y-67191405D01*
X103711519Y-67233420D01*
X103649995Y-67266715D01*
X103649993Y-67266716D01*
X103468887Y-67407677D01*
X103313450Y-67576525D01*
X103187930Y-67768649D01*
X103095743Y-67978814D01*
X103039405Y-68201291D01*
X103020454Y-68429994D01*
X103020454Y-68430005D01*
X103039405Y-68658708D01*
X103095743Y-68881185D01*
X103187930Y-69091350D01*
X103313450Y-69283474D01*
X103313453Y-69283477D01*
X103468886Y-69452322D01*
X103529575Y-69499558D01*
X103636174Y-69582528D01*
X103649990Y-69593281D01*
X103851826Y-69702509D01*
X104068887Y-69777026D01*
X104295252Y-69814800D01*
X104295253Y-69814800D01*
X104524747Y-69814800D01*
X104524748Y-69814800D01*
X104751113Y-69777026D01*
X104968174Y-69702509D01*
X105170010Y-69593281D01*
X105230579Y-69546138D01*
X105295571Y-69520495D01*
X105364111Y-69534061D01*
X105414437Y-69582528D01*
X105430570Y-69650510D01*
X105407388Y-69716422D01*
X105394422Y-69731672D01*
X104363915Y-70762181D01*
X104302592Y-70795666D01*
X104276234Y-70798500D01*
X102978461Y-70798500D01*
X102911422Y-70778815D01*
X102890780Y-70762181D01*
X97390181Y-65261581D01*
X96916532Y-64787931D01*
X96916528Y-64787928D01*
X96890598Y-64770602D01*
X96845793Y-64716990D01*
X96837086Y-64647665D01*
X96867241Y-64584637D01*
X96926684Y-64547918D01*
X96959489Y-64543500D01*
X101703457Y-64543500D01*
X101770496Y-64563185D01*
G37*
%TD.AperFunction*%
%TA.AperFunction,Conductor*%
G36*
X96265969Y-65933185D02*
G01*
X96286611Y-65949819D01*
X96494277Y-66157485D01*
X99300955Y-68964164D01*
X99334440Y-69025487D01*
X99329456Y-69095179D01*
X99287584Y-69151112D01*
X99239055Y-69173135D01*
X99156648Y-69190651D01*
X98982180Y-69268329D01*
X98827679Y-69380581D01*
X98720553Y-69499558D01*
X98661066Y-69536207D01*
X98628403Y-69540586D01*
X97864553Y-69540586D01*
X97797514Y-69520901D01*
X97791667Y-69516904D01*
X97656752Y-69418882D01*
X97482288Y-69341206D01*
X97482286Y-69341205D01*
X97295486Y-69301499D01*
X97289020Y-69300820D01*
X97289203Y-69299076D01*
X97230417Y-69281815D01*
X97184662Y-69229011D01*
X97174718Y-69159853D01*
X97175487Y-69155148D01*
X97220031Y-68912076D01*
X97240117Y-68580000D01*
X97220031Y-68247923D01*
X97160059Y-67920670D01*
X97061092Y-67603071D01*
X97061086Y-67603056D01*
X96924548Y-67299680D01*
X96924546Y-67299678D01*
X96752434Y-67014968D01*
X96752429Y-67014960D01*
X96599228Y-66819415D01*
X95779343Y-67639300D01*
X95705504Y-67537670D01*
X95527422Y-67359588D01*
X95425790Y-67285748D01*
X96245675Y-66465862D01*
X96245675Y-66465861D01*
X96050131Y-66312662D01*
X96050123Y-66312657D01*
X95770495Y-66143617D01*
X95723308Y-66092090D01*
X95711469Y-66023230D01*
X95738737Y-65958901D01*
X95796456Y-65919527D01*
X95834645Y-65913500D01*
X96198930Y-65913500D01*
X96265969Y-65933185D01*
G37*
%TD.AperFunction*%
%TA.AperFunction,Conductor*%
G36*
X135931905Y-62786600D02*
G01*
X135953809Y-62811879D01*
X136023450Y-62918474D01*
X136032153Y-62927928D01*
X136178886Y-63087322D01*
X136359990Y-63228281D01*
X136359993Y-63228283D01*
X136364291Y-63231091D01*
X136362941Y-63233156D01*
X136405267Y-63275170D01*
X136420372Y-63343387D01*
X136396198Y-63408942D01*
X136363323Y-63437428D01*
X136364291Y-63438909D01*
X136359993Y-63441716D01*
X136178887Y-63582677D01*
X136023450Y-63751525D01*
X135897930Y-63943649D01*
X135805743Y-64153814D01*
X135749405Y-64376291D01*
X135730454Y-64604994D01*
X135730454Y-64605005D01*
X135749405Y-64833708D01*
X135805743Y-65056185D01*
X135897930Y-65266350D01*
X136023450Y-65458474D01*
X136023453Y-65458477D01*
X136178886Y-65627322D01*
X136359990Y-65768281D01*
X136359993Y-65768283D01*
X136364291Y-65771091D01*
X136362941Y-65773156D01*
X136405267Y-65815170D01*
X136420372Y-65883387D01*
X136396198Y-65948942D01*
X136363323Y-65977428D01*
X136364291Y-65978909D01*
X136359993Y-65981716D01*
X136178887Y-66122677D01*
X136023450Y-66291525D01*
X135897930Y-66483649D01*
X135805743Y-66693814D01*
X135749405Y-66916291D01*
X135730454Y-67144994D01*
X135730454Y-67145005D01*
X135749405Y-67373708D01*
X135805743Y-67596185D01*
X135897930Y-67806350D01*
X136023450Y-67998474D01*
X136023452Y-67998476D01*
X136023453Y-67998477D01*
X136178886Y-68167322D01*
X136359990Y-68308281D01*
X136561826Y-68417509D01*
X136778887Y-68492026D01*
X137005252Y-68529800D01*
X137005253Y-68529800D01*
X137234747Y-68529800D01*
X137234748Y-68529800D01*
X137461113Y-68492026D01*
X137678174Y-68417509D01*
X137880010Y-68308281D01*
X138061114Y-68167322D01*
X138216547Y-67998477D01*
X138323562Y-67834677D01*
X138376709Y-67789322D01*
X138427371Y-67778500D01*
X144127395Y-67778500D01*
X144127396Y-67778499D01*
X144249785Y-67754155D01*
X144365075Y-67706400D01*
X144468833Y-67637071D01*
X145979424Y-66126479D01*
X146040743Y-66092997D01*
X146110434Y-66097981D01*
X146166368Y-66139852D01*
X146190785Y-66205317D01*
X146190875Y-66221649D01*
X146174039Y-66499999D01*
X146194125Y-66832076D01*
X146254097Y-67159329D01*
X146353064Y-67476928D01*
X146353070Y-67476943D01*
X146489608Y-67780319D01*
X146489610Y-67780321D01*
X146661722Y-68065031D01*
X146661727Y-68065039D01*
X146814927Y-68260583D01*
X147634812Y-67440697D01*
X147708653Y-67542330D01*
X147886735Y-67720412D01*
X147988365Y-67794251D01*
X147168480Y-68614136D01*
X147168480Y-68614137D01*
X147364025Y-68767337D01*
X147364040Y-68767347D01*
X147629756Y-68927977D01*
X147676944Y-68979504D01*
X147688783Y-69048364D01*
X147661515Y-69112693D01*
X147603796Y-69152067D01*
X147539829Y-69155384D01*
X147532961Y-69153925D01*
X147341987Y-69153925D01*
X147155188Y-69193630D01*
X147155186Y-69193631D01*
X146985518Y-69269172D01*
X146980720Y-69271308D01*
X146826219Y-69383560D01*
X146822314Y-69387898D01*
X146762828Y-69424546D01*
X146730165Y-69428925D01*
X144460278Y-69428925D01*
X144393239Y-69409240D01*
X144368129Y-69387898D01*
X144364223Y-69383560D01*
X144364218Y-69383556D01*
X144209721Y-69271307D01*
X144035257Y-69193631D01*
X144035255Y-69193630D01*
X143848456Y-69153925D01*
X143657482Y-69153925D01*
X143470683Y-69193630D01*
X143470681Y-69193631D01*
X143301013Y-69269172D01*
X143296215Y-69271308D01*
X143141714Y-69383560D01*
X143137809Y-69387898D01*
X143078323Y-69424546D01*
X143045660Y-69428925D01*
X136145283Y-69428925D01*
X136078244Y-69409240D01*
X136053134Y-69387898D01*
X136049064Y-69383378D01*
X136049063Y-69383377D01*
X136049062Y-69383376D01*
X135894561Y-69271124D01*
X135720097Y-69193448D01*
X135720095Y-69193447D01*
X135533296Y-69153742D01*
X135342322Y-69153742D01*
X135155523Y-69193447D01*
X135155521Y-69193448D01*
X134985442Y-69269172D01*
X134981055Y-69271125D01*
X134826553Y-69383378D01*
X134822484Y-69387898D01*
X134762997Y-69424546D01*
X134730335Y-69428925D01*
X132460778Y-69428925D01*
X132393739Y-69409240D01*
X132368629Y-69387898D01*
X132364559Y-69383378D01*
X132364558Y-69383377D01*
X132364557Y-69383376D01*
X132210056Y-69271124D01*
X132035592Y-69193448D01*
X132035590Y-69193447D01*
X131848791Y-69153742D01*
X131657817Y-69153742D01*
X131471018Y-69193447D01*
X131471016Y-69193448D01*
X131300937Y-69269172D01*
X131296550Y-69271125D01*
X131142048Y-69383378D01*
X131137979Y-69387898D01*
X131078492Y-69424546D01*
X131045830Y-69428925D01*
X124145728Y-69428925D01*
X124078689Y-69409240D01*
X124053579Y-69387898D01*
X124048597Y-69382365D01*
X124046141Y-69380580D01*
X123894095Y-69270112D01*
X123719631Y-69192436D01*
X123719629Y-69192435D01*
X123532830Y-69152730D01*
X123341856Y-69152730D01*
X123155057Y-69192435D01*
X123155055Y-69192436D01*
X122982703Y-69269172D01*
X122980589Y-69270113D01*
X122826088Y-69382365D01*
X122821107Y-69387898D01*
X122761621Y-69424546D01*
X122728958Y-69428925D01*
X120461223Y-69428925D01*
X120394184Y-69409240D01*
X120369074Y-69387898D01*
X120364092Y-69382365D01*
X120361636Y-69380580D01*
X120209590Y-69270112D01*
X120035126Y-69192436D01*
X120035124Y-69192435D01*
X119848325Y-69152730D01*
X119657351Y-69152730D01*
X119470552Y-69192435D01*
X119470550Y-69192436D01*
X119298198Y-69269172D01*
X119296084Y-69270113D01*
X119141583Y-69382365D01*
X119136602Y-69387898D01*
X119077116Y-69424546D01*
X119044453Y-69428925D01*
X115800653Y-69428925D01*
X115733614Y-69409240D01*
X115687859Y-69356436D01*
X115677915Y-69287278D01*
X115696843Y-69237105D01*
X115792069Y-69091351D01*
X115884257Y-68881185D01*
X115940594Y-68658712D01*
X115951276Y-68529800D01*
X115959546Y-68430005D01*
X115959546Y-68429994D01*
X115940594Y-68201291D01*
X115940594Y-68201288D01*
X115884257Y-67978815D01*
X115792069Y-67768649D01*
X115782599Y-67754154D01*
X115666549Y-67576525D01*
X115630780Y-67537670D01*
X115511114Y-67407678D01*
X115422341Y-67338583D01*
X115330012Y-67266720D01*
X115330007Y-67266717D01*
X115128180Y-67157494D01*
X115128177Y-67157492D01*
X115128174Y-67157491D01*
X115128171Y-67157490D01*
X115128169Y-67157489D01*
X114911115Y-67082974D01*
X114735068Y-67053597D01*
X114684748Y-67045200D01*
X114647765Y-67045200D01*
X114580726Y-67025515D01*
X114534971Y-66972711D01*
X114525027Y-66903553D01*
X114554052Y-66839997D01*
X114560084Y-66833519D01*
X114614904Y-66778700D01*
X114862896Y-66530708D01*
X114924219Y-66497223D01*
X114950577Y-66494389D01*
X120463423Y-66494389D01*
X120530462Y-66514074D01*
X120576217Y-66566878D01*
X120586161Y-66636036D01*
X120576979Y-66668199D01*
X120565743Y-66693814D01*
X120509405Y-66916291D01*
X120490454Y-67144994D01*
X120490454Y-67145005D01*
X120509405Y-67373708D01*
X120565743Y-67596185D01*
X120657930Y-67806350D01*
X120783450Y-67998474D01*
X120783452Y-67998476D01*
X120783453Y-67998477D01*
X120938886Y-68167322D01*
X121119990Y-68308281D01*
X121321826Y-68417509D01*
X121538887Y-68492026D01*
X121765252Y-68529800D01*
X121765253Y-68529800D01*
X121994747Y-68529800D01*
X121994748Y-68529800D01*
X122221113Y-68492026D01*
X122438174Y-68417509D01*
X122640010Y-68308281D01*
X122821114Y-68167322D01*
X122976547Y-67998477D01*
X123102069Y-67806351D01*
X123194257Y-67596185D01*
X123250594Y-67373712D01*
X123269546Y-67145000D01*
X123267836Y-67124366D01*
X123252625Y-66940803D01*
X123250594Y-66916288D01*
X123194257Y-66693815D01*
X123186953Y-66677165D01*
X123183021Y-66668199D01*
X123174118Y-66598899D01*
X123204095Y-66535787D01*
X123263435Y-66498900D01*
X123296577Y-66494389D01*
X129756506Y-66494389D01*
X129756507Y-66494388D01*
X129878896Y-66470044D01*
X129994186Y-66422289D01*
X130097944Y-66352960D01*
X131022260Y-65428642D01*
X131083581Y-65395159D01*
X131150200Y-65399043D01*
X131158887Y-65402026D01*
X131385252Y-65439800D01*
X131385253Y-65439800D01*
X131614747Y-65439800D01*
X131614748Y-65439800D01*
X131841113Y-65402026D01*
X132058174Y-65327509D01*
X132260010Y-65218281D01*
X132441114Y-65077322D01*
X132596547Y-64908477D01*
X132622426Y-64868866D01*
X132666191Y-64801879D01*
X132719337Y-64756522D01*
X132788569Y-64747098D01*
X132851905Y-64776600D01*
X132873809Y-64801879D01*
X132943450Y-64908474D01*
X132943453Y-64908477D01*
X133098886Y-65077322D01*
X133192223Y-65149969D01*
X133273049Y-65212879D01*
X133279990Y-65218281D01*
X133481826Y-65327509D01*
X133698887Y-65402026D01*
X133925252Y-65439800D01*
X133925253Y-65439800D01*
X134154747Y-65439800D01*
X134154748Y-65439800D01*
X134381113Y-65402026D01*
X134598174Y-65327509D01*
X134800010Y-65218281D01*
X134981114Y-65077322D01*
X135136547Y-64908477D01*
X135262069Y-64716351D01*
X135354257Y-64506185D01*
X135410594Y-64283712D01*
X135429546Y-64055000D01*
X135428122Y-64037819D01*
X135416741Y-63900473D01*
X135410594Y-63826288D01*
X135354257Y-63603815D01*
X135264252Y-63398627D01*
X135255350Y-63329328D01*
X135285327Y-63266216D01*
X135318792Y-63239763D01*
X135340010Y-63228281D01*
X135521114Y-63087322D01*
X135676547Y-62918477D01*
X135717629Y-62855596D01*
X135746191Y-62811879D01*
X135799337Y-62766522D01*
X135868569Y-62757098D01*
X135931905Y-62786600D01*
G37*
%TD.AperFunction*%
%TA.AperFunction,Conductor*%
G36*
X150177223Y-35052024D02*
G01*
X150179277Y-35052064D01*
X150287230Y-35054181D01*
X150304181Y-35055683D01*
X150522680Y-35090290D01*
X150541601Y-35094832D01*
X150750832Y-35162815D01*
X150768800Y-35170257D01*
X150866815Y-35220198D01*
X150964826Y-35270138D01*
X150981416Y-35280305D01*
X151159393Y-35409612D01*
X151174189Y-35422249D01*
X151329750Y-35577810D01*
X151342387Y-35592606D01*
X151471694Y-35770583D01*
X151481861Y-35787173D01*
X151581740Y-35983195D01*
X151589186Y-36001172D01*
X151657167Y-36210399D01*
X151661709Y-36229319D01*
X151696315Y-36447810D01*
X151697818Y-36464776D01*
X151699976Y-36574776D01*
X151700000Y-36577208D01*
X151700000Y-58286248D01*
X151680315Y-58353287D01*
X151627511Y-58399042D01*
X151558353Y-58408986D01*
X151494797Y-58379961D01*
X151480148Y-58364914D01*
X151477072Y-58361166D01*
X150888836Y-57772931D01*
X150888832Y-57772928D01*
X150785081Y-57703603D01*
X150785072Y-57703598D01*
X150669785Y-57655845D01*
X150669777Y-57655843D01*
X150547398Y-57631500D01*
X150547394Y-57631500D01*
X148721113Y-57631500D01*
X148654074Y-57611815D01*
X148608319Y-57559011D01*
X148598375Y-57489853D01*
X148627400Y-57426297D01*
X148633432Y-57419819D01*
X149036715Y-57016536D01*
X149465291Y-56587959D01*
X149526612Y-56554476D01*
X149596303Y-56559460D01*
X149645119Y-56592669D01*
X149695338Y-56648443D01*
X149738437Y-56696310D01*
X149758747Y-56718866D01*
X149913248Y-56831118D01*
X150087712Y-56908794D01*
X150274513Y-56948500D01*
X150465487Y-56948500D01*
X150652288Y-56908794D01*
X150826752Y-56831118D01*
X150981253Y-56718866D01*
X151109040Y-56576944D01*
X151204527Y-56411556D01*
X151263542Y-56229928D01*
X151283504Y-56040000D01*
X151263542Y-55850072D01*
X151204527Y-55668444D01*
X151109040Y-55503056D01*
X150981253Y-55361134D01*
X150826752Y-55248882D01*
X150652288Y-55171206D01*
X150652286Y-55171205D01*
X150652285Y-55171205D01*
X150551719Y-55149829D01*
X150490237Y-55116636D01*
X150456461Y-55055473D01*
X150453500Y-55028539D01*
X150453500Y-47837605D01*
X150453499Y-47837601D01*
X150438637Y-47762885D01*
X150429155Y-47715215D01*
X150381400Y-47599925D01*
X150381399Y-47599924D01*
X150381396Y-47599918D01*
X150312072Y-47496168D01*
X150284502Y-47468598D01*
X150223833Y-47407929D01*
X144356620Y-41540716D01*
X144323135Y-41479393D01*
X144320983Y-41466015D01*
X144303542Y-41300072D01*
X144244527Y-41118444D01*
X144149040Y-40953056D01*
X144021253Y-40811134D01*
X143866752Y-40698882D01*
X143692288Y-40621206D01*
X143692286Y-40621205D01*
X143505487Y-40581500D01*
X143416547Y-40581500D01*
X143349508Y-40561815D01*
X143303753Y-40509011D01*
X143293809Y-40439853D01*
X143322834Y-40376297D01*
X143340074Y-40359889D01*
X143500583Y-40234137D01*
X143500583Y-40234136D01*
X142680698Y-39414251D01*
X142782330Y-39340412D01*
X142960412Y-39162330D01*
X143034251Y-39060698D01*
X143854136Y-39880583D01*
X143854137Y-39880583D01*
X144007343Y-39685030D01*
X144179454Y-39400321D01*
X144179456Y-39400319D01*
X144315994Y-39096943D01*
X144316000Y-39096928D01*
X144414967Y-38779329D01*
X144474939Y-38452076D01*
X144495025Y-38120000D01*
X144474939Y-37787923D01*
X144414967Y-37460670D01*
X144316000Y-37143071D01*
X144315994Y-37143056D01*
X144179456Y-36839680D01*
X144179454Y-36839678D01*
X144007342Y-36554968D01*
X144007337Y-36554960D01*
X143854136Y-36359415D01*
X143034250Y-37179300D01*
X142960412Y-37077670D01*
X142782330Y-36899588D01*
X142680698Y-36825748D01*
X143500583Y-36005862D01*
X143500583Y-36005861D01*
X143305039Y-35852662D01*
X143305031Y-35852657D01*
X143020321Y-35680545D01*
X143020319Y-35680543D01*
X142716943Y-35544005D01*
X142716928Y-35543999D01*
X142399329Y-35445032D01*
X142072076Y-35385060D01*
X141740000Y-35364974D01*
X141407923Y-35385060D01*
X141080670Y-35445032D01*
X140763071Y-35543999D01*
X140763056Y-35544005D01*
X140459680Y-35680543D01*
X140459678Y-35680545D01*
X140174968Y-35852657D01*
X139979415Y-36005862D01*
X140799301Y-36825748D01*
X140697670Y-36899588D01*
X140519588Y-37077670D01*
X140445748Y-37179301D01*
X139625862Y-36359415D01*
X139472657Y-36554968D01*
X139300545Y-36839678D01*
X139300543Y-36839680D01*
X139164005Y-37143056D01*
X139163999Y-37143071D01*
X139065032Y-37460670D01*
X139005060Y-37787923D01*
X138984974Y-38120000D01*
X139005060Y-38452076D01*
X139065032Y-38779329D01*
X139163999Y-39096928D01*
X139164005Y-39096943D01*
X139300543Y-39400319D01*
X139300545Y-39400321D01*
X139472657Y-39685031D01*
X139472662Y-39685039D01*
X139625862Y-39880583D01*
X140445747Y-39060697D01*
X140519588Y-39162330D01*
X140697670Y-39340412D01*
X140799300Y-39414251D01*
X139979415Y-40234136D01*
X139979415Y-40234137D01*
X140174960Y-40387337D01*
X140174968Y-40387342D01*
X140459678Y-40559454D01*
X140459680Y-40559456D01*
X140763056Y-40695994D01*
X140763071Y-40696000D01*
X141080670Y-40794967D01*
X141407923Y-40854939D01*
X141740000Y-40875025D01*
X142072076Y-40854939D01*
X142399326Y-40794968D01*
X142543375Y-40750080D01*
X142613235Y-40748928D01*
X142672628Y-40785729D01*
X142702696Y-40848797D01*
X142693894Y-40918110D01*
X142674767Y-40947793D01*
X142674778Y-40947801D01*
X142674643Y-40947985D01*
X142672429Y-40951423D01*
X142670962Y-40953051D01*
X142670959Y-40953056D01*
X142575473Y-41118443D01*
X142575470Y-41118450D01*
X142518491Y-41293815D01*
X142516458Y-41300072D01*
X142498550Y-41470462D01*
X142471965Y-41535076D01*
X142414668Y-41575061D01*
X142375229Y-41581500D01*
X140443766Y-41581500D01*
X140376727Y-41561815D01*
X140356085Y-41545181D01*
X138490711Y-39679807D01*
X138457226Y-39618484D01*
X138458185Y-39561690D01*
X138490594Y-39433712D01*
X138509546Y-39205000D01*
X138506010Y-39162330D01*
X138490594Y-38976291D01*
X138490594Y-38976288D01*
X138434257Y-38753815D01*
X138342069Y-38543649D01*
X138296273Y-38473553D01*
X138216549Y-38351525D01*
X138197809Y-38331168D01*
X138061114Y-38182678D01*
X137958162Y-38102547D01*
X137880012Y-38041720D01*
X137880007Y-38041717D01*
X137678180Y-37932494D01*
X137678177Y-37932492D01*
X137678174Y-37932491D01*
X137678171Y-37932490D01*
X137678169Y-37932489D01*
X137461115Y-37857974D01*
X137302704Y-37831540D01*
X137234748Y-37820200D01*
X137005252Y-37820200D01*
X136948660Y-37829643D01*
X136778884Y-37857974D01*
X136561830Y-37932489D01*
X136561819Y-37932494D01*
X136359992Y-38041717D01*
X136359987Y-38041720D01*
X136178888Y-38182676D01*
X136023450Y-38351525D01*
X135897930Y-38543649D01*
X135805743Y-38753814D01*
X135749405Y-38976291D01*
X135730454Y-39204994D01*
X135730454Y-39205005D01*
X135749405Y-39433708D01*
X135805743Y-39656185D01*
X135840924Y-39736390D01*
X135849827Y-39805690D01*
X135819850Y-39868802D01*
X135760511Y-39905689D01*
X135727368Y-39910200D01*
X130638901Y-39910200D01*
X130516522Y-39934543D01*
X130516514Y-39934545D01*
X130401227Y-39982298D01*
X130401218Y-39982303D01*
X130297467Y-40051628D01*
X130297463Y-40051631D01*
X123478190Y-46870904D01*
X123416867Y-46904389D01*
X123347175Y-46899405D01*
X123291242Y-46857533D01*
X123266933Y-46793463D01*
X123256073Y-46662404D01*
X123250594Y-46596288D01*
X123194257Y-46373815D01*
X123102069Y-46163649D01*
X123086663Y-46140068D01*
X122976549Y-45971525D01*
X122930549Y-45921556D01*
X122821114Y-45802678D01*
X122675751Y-45689537D01*
X122640012Y-45661720D01*
X122635718Y-45658915D01*
X122637095Y-45656805D01*
X122594861Y-45615063D01*
X122579609Y-45546879D01*
X122603642Y-45481272D01*
X122636716Y-45452613D01*
X122635718Y-45451085D01*
X122640003Y-45448284D01*
X122640010Y-45448281D01*
X122821114Y-45307322D01*
X122976547Y-45138477D01*
X123102069Y-44946351D01*
X123194257Y-44736185D01*
X123250594Y-44513712D01*
X123262423Y-44370961D01*
X123269546Y-44285005D01*
X123269546Y-44284994D01*
X123253488Y-44091213D01*
X123250594Y-44056288D01*
X123194257Y-43833815D01*
X123102069Y-43623649D01*
X123081097Y-43591549D01*
X122976549Y-43431525D01*
X122864743Y-43310072D01*
X122821114Y-43262678D01*
X122662426Y-43139166D01*
X122640012Y-43121720D01*
X122640007Y-43121717D01*
X122635393Y-43119220D01*
X122585804Y-43069999D01*
X122570698Y-43001782D01*
X122594870Y-42936227D01*
X122631438Y-42904545D01*
X122631048Y-42903948D01*
X122635349Y-42901137D01*
X122661910Y-42880463D01*
X122047050Y-42265603D01*
X122090787Y-42253884D01*
X122215313Y-42181989D01*
X122316989Y-42080313D01*
X122388884Y-41955787D01*
X122400603Y-41912051D01*
X123014063Y-42525511D01*
X123094569Y-42402287D01*
X123186190Y-42193415D01*
X123242182Y-41972304D01*
X123261017Y-41745005D01*
X123261017Y-41744994D01*
X123242182Y-41517695D01*
X123186190Y-41296584D01*
X123094568Y-41087709D01*
X123014063Y-40964487D01*
X122400602Y-41577948D01*
X122388884Y-41534213D01*
X122316989Y-41409687D01*
X122215313Y-41308011D01*
X122090787Y-41236116D01*
X122047050Y-41224396D01*
X122661910Y-40609537D01*
X122661909Y-40609535D01*
X122635349Y-40588862D01*
X122631054Y-40586056D01*
X122631639Y-40585159D01*
X122585802Y-40539660D01*
X122570698Y-40471443D01*
X122594873Y-40405889D01*
X122635403Y-40370774D01*
X122640010Y-40368281D01*
X122821114Y-40227322D01*
X122976547Y-40058477D01*
X123102069Y-39866351D01*
X123194257Y-39656185D01*
X123250594Y-39433712D01*
X123259017Y-39332062D01*
X123269546Y-39205005D01*
X123269546Y-39204994D01*
X123250594Y-38976291D01*
X123250594Y-38976288D01*
X123194257Y-38753815D01*
X123102069Y-38543649D01*
X123056273Y-38473553D01*
X122976549Y-38351525D01*
X122957809Y-38331168D01*
X122821114Y-38182678D01*
X122718162Y-38102547D01*
X122640012Y-38041720D01*
X122640007Y-38041717D01*
X122438180Y-37932494D01*
X122438177Y-37932492D01*
X122438174Y-37932491D01*
X122438171Y-37932490D01*
X122438169Y-37932489D01*
X122221115Y-37857974D01*
X122062704Y-37831540D01*
X121994748Y-37820200D01*
X121765252Y-37820200D01*
X121708660Y-37829643D01*
X121538884Y-37857974D01*
X121321830Y-37932489D01*
X121321819Y-37932494D01*
X121119992Y-38041717D01*
X121119987Y-38041720D01*
X120938888Y-38182676D01*
X120783450Y-38351525D01*
X120657930Y-38543649D01*
X120565743Y-38753814D01*
X120509405Y-38976291D01*
X120490454Y-39204994D01*
X120490454Y-39205005D01*
X120509405Y-39433708D01*
X120565743Y-39656185D01*
X120657930Y-39866350D01*
X120783450Y-40058474D01*
X120783453Y-40058477D01*
X120938886Y-40227322D01*
X120993954Y-40270183D01*
X121119987Y-40368279D01*
X121119996Y-40368285D01*
X121124601Y-40370777D01*
X121174192Y-40419995D01*
X121189302Y-40488212D01*
X121165131Y-40553768D01*
X121128558Y-40585460D01*
X121128947Y-40586055D01*
X121124646Y-40588864D01*
X121098089Y-40609534D01*
X121098089Y-40609536D01*
X121712949Y-41224396D01*
X121669213Y-41236116D01*
X121544687Y-41308011D01*
X121443011Y-41409687D01*
X121371116Y-41534213D01*
X121359396Y-41577949D01*
X120745935Y-40964488D01*
X120665431Y-41087710D01*
X120665429Y-41087714D01*
X120573809Y-41296584D01*
X120517817Y-41517695D01*
X120512733Y-41579051D01*
X120487580Y-41644236D01*
X120431178Y-41685474D01*
X120361434Y-41689672D01*
X120320267Y-41671914D01*
X120278843Y-41644236D01*
X120254284Y-41627826D01*
X120126898Y-41575061D01*
X120116247Y-41570649D01*
X120116240Y-41570647D01*
X120024473Y-41552394D01*
X119969708Y-41541500D01*
X119969706Y-41541500D01*
X118678012Y-41541500D01*
X118610973Y-41521815D01*
X118565218Y-41469011D01*
X118555274Y-41399853D01*
X118584299Y-41336297D01*
X118605126Y-41317182D01*
X118701868Y-41246895D01*
X118880895Y-41067868D01*
X119029713Y-40863038D01*
X119144656Y-40637450D01*
X119222894Y-40396658D01*
X119244996Y-40257108D01*
X119262500Y-40146597D01*
X119262500Y-38593402D01*
X119240349Y-38453553D01*
X119222894Y-38343342D01*
X119144656Y-38102550D01*
X119029713Y-37876962D01*
X118880895Y-37672132D01*
X118701868Y-37493105D01*
X118497038Y-37344287D01*
X118271450Y-37229344D01*
X118030658Y-37151106D01*
X117780597Y-37111500D01*
X117780592Y-37111500D01*
X117527408Y-37111500D01*
X117527403Y-37111500D01*
X117277341Y-37151106D01*
X117036547Y-37229345D01*
X116810961Y-37344287D01*
X116694098Y-37429193D01*
X116606132Y-37493105D01*
X116606130Y-37493107D01*
X116606128Y-37493108D01*
X116516570Y-37582665D01*
X116455247Y-37616149D01*
X116415635Y-37618272D01*
X116352656Y-37611501D01*
X116352638Y-37611500D01*
X114755362Y-37611500D01*
X114755345Y-37611500D01*
X114694797Y-37618011D01*
X114694795Y-37618011D01*
X114557795Y-37669111D01*
X114440737Y-37756740D01*
X114416086Y-37789670D01*
X114360152Y-37831540D01*
X114290460Y-37836523D01*
X114243936Y-37815675D01*
X114213601Y-37793636D01*
X114213600Y-37793635D01*
X114213598Y-37793634D01*
X114120989Y-37746447D01*
X114037101Y-37703703D01*
X113848700Y-37642487D01*
X113653051Y-37611500D01*
X113653046Y-37611500D01*
X113454954Y-37611500D01*
X113454949Y-37611500D01*
X113259299Y-37642487D01*
X113070898Y-37703703D01*
X112894401Y-37793634D01*
X112812439Y-37853184D01*
X112734142Y-37910070D01*
X112734140Y-37910072D01*
X112734139Y-37910072D01*
X112641681Y-38002531D01*
X112580358Y-38036016D01*
X112510666Y-38031032D01*
X112466319Y-38002531D01*
X112373860Y-37910072D01*
X112373858Y-37910070D01*
X112213598Y-37793634D01*
X112184369Y-37778741D01*
X112037101Y-37703703D01*
X111848700Y-37642487D01*
X111653051Y-37611500D01*
X111653046Y-37611500D01*
X111454954Y-37611500D01*
X111454949Y-37611500D01*
X111259299Y-37642487D01*
X111070898Y-37703703D01*
X110897368Y-37792122D01*
X110828698Y-37805018D01*
X110763958Y-37778741D01*
X110740755Y-37754522D01*
X110703832Y-37703702D01*
X110680895Y-37672132D01*
X110501868Y-37493105D01*
X110297038Y-37344287D01*
X110071450Y-37229344D01*
X109830658Y-37151106D01*
X109580597Y-37111500D01*
X109580592Y-37111500D01*
X109327408Y-37111500D01*
X109327403Y-37111500D01*
X109077341Y-37151106D01*
X108836547Y-37229345D01*
X108610961Y-37344287D01*
X108494098Y-37429193D01*
X108406132Y-37493105D01*
X108406130Y-37493107D01*
X108406129Y-37493107D01*
X108227107Y-37672129D01*
X108227107Y-37672130D01*
X108227105Y-37672132D01*
X108179514Y-37737635D01*
X108078287Y-37876961D01*
X107963345Y-38102547D01*
X107885106Y-38343341D01*
X107845500Y-38593402D01*
X107845500Y-40146597D01*
X107885106Y-40396658D01*
X107963344Y-40637450D01*
X108078287Y-40863038D01*
X108227105Y-41067868D01*
X108406132Y-41246895D01*
X108479324Y-41300072D01*
X108502874Y-41317182D01*
X108545539Y-41372512D01*
X108551518Y-41442126D01*
X108518912Y-41503921D01*
X108458073Y-41538278D01*
X108429988Y-41541500D01*
X107625543Y-41541500D01*
X107558504Y-41521815D01*
X107537862Y-41505181D01*
X106433879Y-40401198D01*
X106400394Y-40339875D01*
X106405378Y-40270183D01*
X106441027Y-40219227D01*
X106479969Y-40185969D01*
X106634176Y-40005416D01*
X106758240Y-39802963D01*
X106773551Y-39766000D01*
X106849104Y-39583597D01*
X106849104Y-39583596D01*
X106849105Y-39583594D01*
X106904535Y-39352711D01*
X106923165Y-39116000D01*
X106904535Y-38879289D01*
X106849105Y-38648406D01*
X106849104Y-38648403D01*
X106849104Y-38648402D01*
X106758242Y-38429040D01*
X106758240Y-38429037D01*
X106634179Y-38226589D01*
X106634178Y-38226586D01*
X106596675Y-38182676D01*
X106479969Y-38046031D01*
X106360596Y-37944076D01*
X106299413Y-37891821D01*
X106299410Y-37891820D01*
X106096962Y-37767759D01*
X106096959Y-37767757D01*
X105877596Y-37676895D01*
X105646714Y-37621465D01*
X105410000Y-37602835D01*
X105173285Y-37621465D01*
X104942404Y-37676895D01*
X104942402Y-37676895D01*
X104723040Y-37767757D01*
X104723037Y-37767759D01*
X104520589Y-37891820D01*
X104520586Y-37891821D01*
X104340031Y-38046031D01*
X104185821Y-38226586D01*
X104185820Y-38226589D01*
X104061759Y-38429037D01*
X104061757Y-38429040D01*
X103970895Y-38648402D01*
X103970895Y-38648404D01*
X103915465Y-38879285D01*
X103896835Y-39116000D01*
X103915465Y-39352714D01*
X103970895Y-39583595D01*
X103970895Y-39583597D01*
X104061757Y-39802959D01*
X104061759Y-39802962D01*
X104185820Y-40005410D01*
X104185821Y-40005413D01*
X104185824Y-40005416D01*
X104340031Y-40185969D01*
X104438633Y-40270183D01*
X104520586Y-40340178D01*
X104520588Y-40340179D01*
X104592290Y-40384118D01*
X104639165Y-40435929D01*
X104651500Y-40489845D01*
X104651500Y-40524709D01*
X104680647Y-40671239D01*
X104680649Y-40671247D01*
X104737826Y-40809284D01*
X104779330Y-40871399D01*
X104820835Y-40933517D01*
X104820836Y-40933518D01*
X106446407Y-42559088D01*
X106479892Y-42620411D01*
X106474908Y-42690103D01*
X106466114Y-42708768D01*
X106385472Y-42848446D01*
X106385470Y-42848450D01*
X106347081Y-42966600D01*
X106326458Y-43030072D01*
X106306496Y-43220000D01*
X106326458Y-43409928D01*
X106326459Y-43409931D01*
X106385470Y-43591549D01*
X106385473Y-43591556D01*
X106480960Y-43756944D01*
X106608747Y-43898866D01*
X106763248Y-44011118D01*
X106937712Y-44088794D01*
X107124513Y-44128500D01*
X107315487Y-44128500D01*
X107502288Y-44088794D01*
X107676752Y-44011118D01*
X107831253Y-43898866D01*
X107835160Y-43894527D01*
X107894646Y-43857879D01*
X107927309Y-43853500D01*
X117961234Y-43853500D01*
X118028273Y-43873185D01*
X118048915Y-43889819D01*
X120509287Y-46350191D01*
X120542772Y-46411514D01*
X120541812Y-46468310D01*
X120509405Y-46596287D01*
X120509405Y-46596289D01*
X120490454Y-46824994D01*
X120490454Y-46825005D01*
X120509405Y-47053710D01*
X120541812Y-47181686D01*
X120539186Y-47251506D01*
X120509287Y-47299806D01*
X118198401Y-49610695D01*
X117746167Y-50062929D01*
X117702047Y-50107049D01*
X117657927Y-50151168D01*
X117588603Y-50254918D01*
X117588598Y-50254927D01*
X117540845Y-50370214D01*
X117540843Y-50370222D01*
X117516500Y-50492601D01*
X117516500Y-56157241D01*
X117496815Y-56224280D01*
X117484650Y-56240213D01*
X117410963Y-56322050D01*
X117410958Y-56322057D01*
X117315473Y-56487443D01*
X117315470Y-56487450D01*
X117261355Y-56654000D01*
X117256458Y-56669072D01*
X117236496Y-56859000D01*
X117256458Y-57048928D01*
X117256459Y-57048931D01*
X117315470Y-57230549D01*
X117315473Y-57230556D01*
X117410958Y-57395942D01*
X117410960Y-57395944D01*
X117489284Y-57482932D01*
X117519514Y-57545922D01*
X117510889Y-57615257D01*
X117484815Y-57653584D01*
X117255470Y-57882931D01*
X117226847Y-57911554D01*
X117167230Y-57971170D01*
X117097906Y-58074920D01*
X117097901Y-58074929D01*
X117050148Y-58190216D01*
X117050147Y-58190218D01*
X117044632Y-58217944D01*
X117012245Y-58279854D01*
X116951528Y-58314426D01*
X116881759Y-58310684D01*
X116835334Y-58281430D01*
X115516836Y-56962931D01*
X115516832Y-56962928D01*
X115413081Y-56893603D01*
X115413072Y-56893598D01*
X115297785Y-56845845D01*
X115297777Y-56845843D01*
X115175398Y-56821500D01*
X115175394Y-56821500D01*
X114852309Y-56821500D01*
X114785270Y-56801815D01*
X114760160Y-56780473D01*
X114756254Y-56776135D01*
X114728942Y-56756291D01*
X114601752Y-56663882D01*
X114427288Y-56586206D01*
X114427286Y-56586205D01*
X114240487Y-56546500D01*
X114049513Y-56546500D01*
X113862714Y-56586205D01*
X113842554Y-56595181D01*
X113710444Y-56654000D01*
X113688246Y-56663883D01*
X113533745Y-56776135D01*
X113405959Y-56918057D01*
X113310473Y-57083443D01*
X113310470Y-57083450D01*
X113268147Y-57213708D01*
X113251458Y-57265072D01*
X113231496Y-57455000D01*
X113251458Y-57644928D01*
X113251459Y-57644931D01*
X113310470Y-57826549D01*
X113310473Y-57826556D01*
X113405960Y-57991944D01*
X113533747Y-58133866D01*
X113688248Y-58246118D01*
X113862712Y-58323794D01*
X114049513Y-58363500D01*
X114240487Y-58363500D01*
X114427288Y-58323794D01*
X114601752Y-58246118D01*
X114751493Y-58137324D01*
X114817297Y-58113845D01*
X114885351Y-58129670D01*
X114912058Y-58149962D01*
X116264484Y-59502388D01*
X116297969Y-59563711D01*
X116300803Y-59590069D01*
X116300803Y-60306700D01*
X116325146Y-60429079D01*
X116325148Y-60429087D01*
X116372901Y-60544374D01*
X116372906Y-60544383D01*
X116442231Y-60648134D01*
X116442234Y-60648138D01*
X116924230Y-61130133D01*
X116975630Y-61181533D01*
X117012469Y-61218372D01*
X117116219Y-61287696D01*
X117116225Y-61287699D01*
X117116226Y-61287700D01*
X117231516Y-61335455D01*
X117353902Y-61359799D01*
X117353906Y-61359800D01*
X117353907Y-61359800D01*
X120487368Y-61359800D01*
X120554407Y-61379485D01*
X120600162Y-61432289D01*
X120610106Y-61501447D01*
X120600924Y-61533610D01*
X120565743Y-61613814D01*
X120509405Y-61836291D01*
X120490454Y-62064994D01*
X120490454Y-62065005D01*
X120509405Y-62293708D01*
X120509405Y-62293711D01*
X120509406Y-62293712D01*
X120551784Y-62461062D01*
X120556165Y-62478360D01*
X120553540Y-62548180D01*
X120513583Y-62605498D01*
X120448982Y-62632114D01*
X120435959Y-62632800D01*
X117871755Y-62632800D01*
X117804716Y-62613115D01*
X117758961Y-62560311D01*
X117748434Y-62521762D01*
X117742054Y-62461062D01*
X117733542Y-62380072D01*
X117674527Y-62198444D01*
X117579040Y-62033056D01*
X117451253Y-61891134D01*
X117296752Y-61778882D01*
X117122288Y-61701206D01*
X117122286Y-61701205D01*
X116935487Y-61661500D01*
X116744513Y-61661500D01*
X116557714Y-61701205D01*
X116470480Y-61740044D01*
X116392673Y-61774686D01*
X116383246Y-61778883D01*
X116228745Y-61891135D01*
X116100959Y-62033057D01*
X116005473Y-62198443D01*
X116005470Y-62198450D01*
X115974518Y-62293712D01*
X115946458Y-62380072D01*
X115942949Y-62413462D01*
X115926496Y-62570000D01*
X115937965Y-62679128D01*
X115925395Y-62747857D01*
X115902325Y-62779769D01*
X112999915Y-65682181D01*
X112938592Y-65715666D01*
X112912234Y-65718500D01*
X112131500Y-65718500D01*
X112064461Y-65698815D01*
X112018706Y-65646011D01*
X112007500Y-65594500D01*
X112007500Y-65286015D01*
X112007500Y-65286000D01*
X112003430Y-65221472D01*
X111990733Y-65175383D01*
X111987543Y-65124805D01*
X111989392Y-65111944D01*
X112007500Y-64986000D01*
X112007500Y-63836000D01*
X112002273Y-63762921D01*
X112000936Y-63758368D01*
X111961097Y-63622686D01*
X111961097Y-63622685D01*
X111882078Y-63499730D01*
X111786449Y-63416866D01*
X111771619Y-63404016D01*
X111743523Y-63391185D01*
X111638673Y-63343300D01*
X111638668Y-63343299D01*
X111494000Y-63322500D01*
X110677766Y-63322500D01*
X110610727Y-63302815D01*
X110590085Y-63286181D01*
X110359819Y-63055915D01*
X110326334Y-62994592D01*
X110323500Y-62968234D01*
X110323500Y-56795162D01*
X110343185Y-56728123D01*
X110359819Y-56707481D01*
X112506068Y-54561232D01*
X112506071Y-54561229D01*
X112575400Y-54457471D01*
X112623155Y-54342181D01*
X112647500Y-54219790D01*
X112647500Y-54095003D01*
X112647500Y-52771756D01*
X112667185Y-52704717D01*
X112679346Y-52688788D01*
X112753040Y-52606944D01*
X112848527Y-52441556D01*
X112907542Y-52259928D01*
X112927504Y-52070000D01*
X112907542Y-51880072D01*
X112848527Y-51698444D01*
X112753040Y-51533056D01*
X112625253Y-51391134D01*
X112470752Y-51278882D01*
X112296288Y-51201206D01*
X112296286Y-51201205D01*
X112109487Y-51161500D01*
X111918513Y-51161500D01*
X111731714Y-51201205D01*
X111731712Y-51201206D01*
X111580567Y-51268500D01*
X111557246Y-51278883D01*
X111402745Y-51391135D01*
X111274959Y-51533057D01*
X111179473Y-51698443D01*
X111179470Y-51698450D01*
X111163912Y-51746334D01*
X111120458Y-51880072D01*
X111100496Y-52070000D01*
X111120458Y-52259928D01*
X111120459Y-52259931D01*
X111179470Y-52441549D01*
X111179473Y-52441556D01*
X111251523Y-52566351D01*
X111274960Y-52606944D01*
X111348649Y-52688784D01*
X111378880Y-52751775D01*
X111380500Y-52771756D01*
X111380500Y-52787804D01*
X111360815Y-52854843D01*
X111308011Y-52900598D01*
X111256500Y-52911804D01*
X111193514Y-52911804D01*
X111006715Y-52951509D01*
X110832247Y-53029187D01*
X110677746Y-53141439D01*
X110549960Y-53283361D01*
X110454474Y-53448747D01*
X110454471Y-53448754D01*
X110399898Y-53616713D01*
X110395459Y-53630376D01*
X110379350Y-53783649D01*
X110375497Y-53820304D01*
X110393733Y-53993815D01*
X110395459Y-54010232D01*
X110424036Y-54098185D01*
X110429217Y-54114129D01*
X110431212Y-54183971D01*
X110398967Y-54240128D01*
X109610557Y-55028539D01*
X108836167Y-55802929D01*
X108809168Y-55829928D01*
X108747927Y-55891168D01*
X108678603Y-55994918D01*
X108678598Y-55994927D01*
X108630845Y-56110214D01*
X108630843Y-56110222D01*
X108606500Y-56232601D01*
X108606500Y-62732234D01*
X108586815Y-62799273D01*
X108570181Y-62819915D01*
X108103915Y-63286181D01*
X108042592Y-63319666D01*
X108016234Y-63322500D01*
X107199997Y-63322500D01*
X107126922Y-63327726D01*
X107126916Y-63327727D01*
X106986686Y-63368902D01*
X106986685Y-63368902D01*
X106863730Y-63447921D01*
X106768017Y-63558379D01*
X106768014Y-63558385D01*
X106707300Y-63691326D01*
X106707299Y-63691331D01*
X106686500Y-63835999D01*
X106686500Y-64986021D01*
X106693025Y-65067603D01*
X106693025Y-65067608D01*
X106701694Y-65095394D01*
X106706057Y-65149968D01*
X106687221Y-65280989D01*
X106686500Y-65286001D01*
X106686500Y-66286002D01*
X106691726Y-66359077D01*
X106691727Y-66359083D01*
X106732902Y-66499313D01*
X106732902Y-66499314D01*
X106811921Y-66622269D01*
X106811922Y-66622270D01*
X106811923Y-66622271D01*
X106922381Y-66717984D01*
X106988855Y-66748342D01*
X107055326Y-66778699D01*
X107055329Y-66778699D01*
X107055330Y-66778700D01*
X107200000Y-66799500D01*
X107200003Y-66799500D01*
X107201342Y-66799596D01*
X107201764Y-66799753D01*
X107204383Y-66800130D01*
X107204301Y-66800699D01*
X107266807Y-66824011D01*
X107308680Y-66879943D01*
X107316500Y-66923280D01*
X107316500Y-66940803D01*
X107296815Y-67007842D01*
X107244011Y-67053597D01*
X107174853Y-67063541D01*
X107172091Y-67063112D01*
X107064748Y-67045200D01*
X106835252Y-67045200D01*
X106784932Y-67053597D01*
X106608884Y-67082974D01*
X106391830Y-67157489D01*
X106391819Y-67157494D01*
X106189992Y-67266717D01*
X106189987Y-67266720D01*
X106008888Y-67407676D01*
X106008886Y-67407677D01*
X106008886Y-67407678D01*
X105908457Y-67516773D01*
X105853453Y-67576523D01*
X105783809Y-67683121D01*
X105730662Y-67728477D01*
X105661431Y-67737901D01*
X105598095Y-67708399D01*
X105576191Y-67683121D01*
X105535902Y-67621455D01*
X105506547Y-67576523D01*
X105351114Y-67407678D01*
X105170010Y-67266719D01*
X105170009Y-67266718D01*
X105170006Y-67266716D01*
X105170004Y-67266715D01*
X105108481Y-67233420D01*
X105058891Y-67184200D01*
X105043500Y-67124366D01*
X105043500Y-66923500D01*
X105063185Y-66856461D01*
X105115989Y-66810706D01*
X105167500Y-66799500D01*
X105652000Y-66799500D01*
X105725079Y-66794273D01*
X105725081Y-66794272D01*
X105725083Y-66794272D01*
X105865313Y-66753097D01*
X105865314Y-66753097D01*
X105919951Y-66717984D01*
X105988271Y-66674077D01*
X106083984Y-66563619D01*
X106144700Y-66430670D01*
X106165500Y-66286000D01*
X106165500Y-65286000D01*
X106161430Y-65221472D01*
X106148733Y-65175383D01*
X106145543Y-65124805D01*
X106147392Y-65111944D01*
X106165500Y-64986000D01*
X106165500Y-63836000D01*
X106160273Y-63762921D01*
X106158936Y-63758368D01*
X106119097Y-63622686D01*
X106119097Y-63622685D01*
X106040078Y-63499730D01*
X105944449Y-63416866D01*
X105929619Y-63404016D01*
X105901523Y-63391185D01*
X105796673Y-63343300D01*
X105796668Y-63343299D01*
X105652000Y-63322500D01*
X105047500Y-63322500D01*
X104980461Y-63302815D01*
X104934706Y-63250011D01*
X104923500Y-63198500D01*
X104923500Y-54443605D01*
X104923499Y-54443601D01*
X104899157Y-54321222D01*
X104899154Y-54321213D01*
X104891444Y-54302600D01*
X104885168Y-54287447D01*
X104851401Y-54205925D01*
X104851399Y-54205923D01*
X104851399Y-54205921D01*
X104782072Y-54102167D01*
X104782069Y-54102163D01*
X104451620Y-53771715D01*
X104418135Y-53710392D01*
X104415982Y-53697012D01*
X104398542Y-53531072D01*
X104339527Y-53349444D01*
X104244040Y-53184056D01*
X104116253Y-53042134D01*
X103961752Y-52929882D01*
X103787288Y-52852206D01*
X103787286Y-52852205D01*
X103600487Y-52812500D01*
X103409513Y-52812500D01*
X103222714Y-52852205D01*
X103048246Y-52929883D01*
X102893745Y-53042135D01*
X102765959Y-53184057D01*
X102670473Y-53349443D01*
X102670470Y-53349450D01*
X102611459Y-53531068D01*
X102611458Y-53531072D01*
X102605104Y-53591525D01*
X102591718Y-53718883D01*
X102565133Y-53783498D01*
X102507835Y-53823482D01*
X102438016Y-53826142D01*
X102377843Y-53790632D01*
X102376247Y-53788893D01*
X102371525Y-53783649D01*
X102351253Y-53761134D01*
X102196752Y-53648882D01*
X102022288Y-53571206D01*
X102022286Y-53571205D01*
X101835487Y-53531500D01*
X101644513Y-53531500D01*
X101505281Y-53561094D01*
X101435613Y-53555778D01*
X101379880Y-53513641D01*
X101355775Y-53448061D01*
X101355500Y-53439804D01*
X101355500Y-53114641D01*
X101375185Y-53047602D01*
X101391819Y-53026960D01*
X102117574Y-52301206D01*
X102875007Y-51543773D01*
X102944335Y-51440015D01*
X102992090Y-51324725D01*
X103016435Y-51202334D01*
X103016435Y-51077546D01*
X103016435Y-50791426D01*
X103036120Y-50724387D01*
X103067550Y-50691107D01*
X103108828Y-50661118D01*
X103236615Y-50519196D01*
X103332102Y-50353808D01*
X103391117Y-50172180D01*
X103411079Y-49982252D01*
X103391117Y-49792324D01*
X103332102Y-49610696D01*
X103236615Y-49445308D01*
X103108828Y-49303386D01*
X103108824Y-49303383D01*
X103067549Y-49273394D01*
X103024883Y-49218064D01*
X103016435Y-49173077D01*
X103016435Y-47528151D01*
X111141500Y-47528151D01*
X111141500Y-49151832D01*
X111141501Y-49151851D01*
X111147569Y-49228969D01*
X111192469Y-49396535D01*
X111195638Y-49408362D01*
X111279953Y-49573839D01*
X111396830Y-49718170D01*
X111541161Y-49835047D01*
X111706638Y-49919362D01*
X111886029Y-49967430D01*
X111963157Y-49973500D01*
X112836842Y-49973499D01*
X112913971Y-49967430D01*
X113093362Y-49919362D01*
X113258839Y-49835047D01*
X113328750Y-49778433D01*
X113393237Y-49751541D01*
X113462026Y-49763783D01*
X113484473Y-49778152D01*
X113550974Y-49831607D01*
X113550977Y-49831609D01*
X113721476Y-49916168D01*
X113906175Y-49962102D01*
X113948903Y-49965000D01*
X114150000Y-49965000D01*
X114150000Y-48826244D01*
X114189213Y-48848884D01*
X114328105Y-48886100D01*
X114471895Y-48886100D01*
X114610787Y-48848884D01*
X114650000Y-48826244D01*
X114650000Y-49965000D01*
X114851097Y-49965000D01*
X114893824Y-49962102D01*
X115078523Y-49916168D01*
X115249021Y-49831610D01*
X115315525Y-49778152D01*
X115380109Y-49751493D01*
X115448853Y-49763983D01*
X115471246Y-49778431D01*
X115541161Y-49835047D01*
X115706638Y-49919362D01*
X115886029Y-49967430D01*
X115963157Y-49973500D01*
X116836842Y-49973499D01*
X116913971Y-49967430D01*
X117093362Y-49919362D01*
X117258839Y-49835047D01*
X117403170Y-49718170D01*
X117520047Y-49573839D01*
X117604362Y-49408362D01*
X117652430Y-49228971D01*
X117658500Y-49151843D01*
X117658499Y-47528158D01*
X117652430Y-47451029D01*
X117604362Y-47271638D01*
X117520047Y-47106161D01*
X117403170Y-46961830D01*
X117258839Y-46844953D01*
X117093362Y-46760638D01*
X117093361Y-46760637D01*
X117093360Y-46760637D01*
X116913969Y-46712569D01*
X116848981Y-46707455D01*
X116836843Y-46706500D01*
X116836841Y-46706500D01*
X115963167Y-46706500D01*
X115963148Y-46706501D01*
X115886030Y-46712569D01*
X115706639Y-46760637D01*
X115541162Y-46844952D01*
X115541156Y-46844956D01*
X115471248Y-46901567D01*
X115406761Y-46928458D01*
X115337972Y-46916215D01*
X115315526Y-46901847D01*
X115249025Y-46848392D01*
X115249022Y-46848390D01*
X115078523Y-46763831D01*
X114893824Y-46717897D01*
X114851097Y-46715000D01*
X114650000Y-46715000D01*
X114650000Y-47853755D01*
X114610787Y-47831116D01*
X114471895Y-47793900D01*
X114328105Y-47793900D01*
X114189213Y-47831116D01*
X114150000Y-47853755D01*
X114150000Y-46715000D01*
X113948903Y-46715000D01*
X113906175Y-46717897D01*
X113721476Y-46763831D01*
X113550977Y-46848390D01*
X113550969Y-46848396D01*
X113484471Y-46901847D01*
X113419886Y-46928505D01*
X113351142Y-46916014D01*
X113328749Y-46901565D01*
X113258844Y-46844957D01*
X113258843Y-46844956D01*
X113258839Y-46844953D01*
X113093362Y-46760638D01*
X113093361Y-46760637D01*
X113093360Y-46760637D01*
X112913969Y-46712569D01*
X112848981Y-46707455D01*
X112836843Y-46706500D01*
X112836841Y-46706500D01*
X111963167Y-46706500D01*
X111963148Y-46706501D01*
X111886030Y-46712569D01*
X111706639Y-46760637D01*
X111541162Y-46844952D01*
X111541155Y-46844957D01*
X111396830Y-46961830D01*
X111279957Y-47106155D01*
X111279952Y-47106162D01*
X111195637Y-47271639D01*
X111147569Y-47451030D01*
X111141500Y-47528151D01*
X103016435Y-47528151D01*
X103016435Y-47215520D01*
X103016434Y-47215519D01*
X103002066Y-47143283D01*
X103008293Y-47073692D01*
X103050799Y-47018773D01*
X103108828Y-46976613D01*
X103236615Y-46834691D01*
X103332102Y-46669303D01*
X103391117Y-46487675D01*
X103411079Y-46297747D01*
X103391117Y-46107819D01*
X103332102Y-45926191D01*
X103236615Y-45760803D01*
X103108828Y-45618881D01*
X102954327Y-45506629D01*
X102779863Y-45428953D01*
X102779861Y-45428952D01*
X102593062Y-45389247D01*
X102567635Y-45389247D01*
X102500596Y-45369562D01*
X102460248Y-45327247D01*
X102413885Y-45246944D01*
X102396975Y-45217655D01*
X102269188Y-45075733D01*
X102114687Y-44963481D01*
X101940223Y-44885805D01*
X101940221Y-44885804D01*
X101753422Y-44846099D01*
X101642536Y-44846099D01*
X101575497Y-44826414D01*
X101535149Y-44784099D01*
X101520590Y-44758883D01*
X101514211Y-44747834D01*
X101386424Y-44605912D01*
X101231923Y-44493660D01*
X101057459Y-44415984D01*
X101057457Y-44415983D01*
X100870658Y-44376278D01*
X100679684Y-44376278D01*
X100679682Y-44376278D01*
X100679668Y-44376281D01*
X100679657Y-44376280D01*
X100673216Y-44376957D01*
X100673092Y-44375778D01*
X100610001Y-44370961D01*
X100561743Y-44337961D01*
X100544354Y-44318649D01*
X100461253Y-44226355D01*
X100306752Y-44114103D01*
X100132288Y-44036427D01*
X100132286Y-44036426D01*
X99945487Y-43996721D01*
X99754513Y-43996721D01*
X99567714Y-44036426D01*
X99393246Y-44114104D01*
X99238745Y-44226356D01*
X99110959Y-44368278D01*
X99015473Y-44533664D01*
X99015470Y-44533671D01*
X98956459Y-44715289D01*
X98956458Y-44715293D01*
X98936496Y-44905221D01*
X98956458Y-45095149D01*
X98956459Y-45095152D01*
X99015470Y-45276770D01*
X99015473Y-45276777D01*
X99110367Y-45441139D01*
X99110960Y-45442165D01*
X99184649Y-45524005D01*
X99214880Y-45586996D01*
X99216500Y-45606977D01*
X99216500Y-50673019D01*
X99196815Y-50740058D01*
X99184650Y-50755991D01*
X99110963Y-50837828D01*
X99110958Y-50837835D01*
X99015473Y-51003221D01*
X99015470Y-51003228D01*
X98960523Y-51172338D01*
X98956458Y-51184850D01*
X98936496Y-51374778D01*
X98956458Y-51564706D01*
X98956459Y-51564709D01*
X99015470Y-51746327D01*
X99015473Y-51746334D01*
X99107075Y-51904994D01*
X99110960Y-51911722D01*
X99194203Y-52004172D01*
X99222460Y-52035556D01*
X99252689Y-52098548D01*
X99244870Y-52165981D01*
X99235075Y-52189628D01*
X99191234Y-52244031D01*
X99124939Y-52266096D01*
X99094737Y-52263466D01*
X99091029Y-52262678D01*
X99085487Y-52261500D01*
X98894513Y-52261500D01*
X98707714Y-52301205D01*
X98533246Y-52378883D01*
X98378745Y-52491135D01*
X98374840Y-52495473D01*
X98315354Y-52532121D01*
X98282691Y-52536500D01*
X98151601Y-52536500D01*
X98029222Y-52560842D01*
X98029213Y-52560845D01*
X97913924Y-52608599D01*
X97913921Y-52608600D01*
X97810167Y-52677927D01*
X97810163Y-52677930D01*
X96293915Y-54194181D01*
X96232592Y-54227666D01*
X96206234Y-54230500D01*
X94679601Y-54230500D01*
X94557222Y-54254843D01*
X94557210Y-54254846D01*
X94544249Y-54260214D01*
X94544250Y-54260215D01*
X94441921Y-54302600D01*
X94338167Y-54371927D01*
X94338163Y-54371930D01*
X93688883Y-55021213D01*
X93576167Y-55133929D01*
X93538891Y-55171205D01*
X93487927Y-55222168D01*
X93418603Y-55325918D01*
X93418598Y-55325927D01*
X93370845Y-55441214D01*
X93370843Y-55441222D01*
X93346500Y-55563601D01*
X93346500Y-56091678D01*
X93326815Y-56158717D01*
X93289540Y-56195993D01*
X93180731Y-56265921D01*
X93180730Y-56265921D01*
X93085017Y-56376379D01*
X93085014Y-56376385D01*
X93024300Y-56509326D01*
X93024299Y-56509331D01*
X93003500Y-56653999D01*
X93003500Y-58154002D01*
X93008726Y-58227077D01*
X93008727Y-58227083D01*
X93049902Y-58367313D01*
X93049902Y-58367314D01*
X93128921Y-58490269D01*
X93128924Y-58490273D01*
X93219198Y-58568496D01*
X93256972Y-58627274D01*
X93256972Y-58697144D01*
X93219197Y-58755921D01*
X93205035Y-58766523D01*
X93143731Y-58805921D01*
X93143730Y-58805921D01*
X93048017Y-58916379D01*
X93048015Y-58916382D01*
X93022702Y-58971810D01*
X92976946Y-59024613D01*
X92909907Y-59044297D01*
X92884129Y-59041588D01*
X92877349Y-59040147D01*
X92855487Y-59035500D01*
X92664513Y-59035500D01*
X92477714Y-59075205D01*
X92421994Y-59100013D01*
X92347635Y-59133120D01*
X92303246Y-59152883D01*
X92148745Y-59265135D01*
X92020959Y-59407057D01*
X91925473Y-59572443D01*
X91925470Y-59572450D01*
X91866576Y-59753708D01*
X91866458Y-59754072D01*
X91846496Y-59944000D01*
X91866458Y-60133928D01*
X91866459Y-60133931D01*
X91925470Y-60315549D01*
X91925473Y-60315556D01*
X92020960Y-60480944D01*
X92148747Y-60622866D01*
X92303248Y-60735118D01*
X92477712Y-60812794D01*
X92664513Y-60852500D01*
X92855483Y-60852500D01*
X92855487Y-60852500D01*
X92879205Y-60847458D01*
X92948868Y-60852773D01*
X93004603Y-60894908D01*
X93009300Y-60901708D01*
X93091921Y-61030269D01*
X93091922Y-61030270D01*
X93091923Y-61030271D01*
X93202381Y-61125984D01*
X93264005Y-61154127D01*
X93335326Y-61186699D01*
X93335329Y-61186699D01*
X93335330Y-61186700D01*
X93480000Y-61207500D01*
X93480003Y-61207500D01*
X94479984Y-61207500D01*
X94480000Y-61207500D01*
X94544528Y-61203430D01*
X94590616Y-61190733D01*
X94641193Y-61187543D01*
X94780000Y-61207500D01*
X94780003Y-61207500D01*
X95930000Y-61207500D01*
X96003079Y-61202273D01*
X96003081Y-61202272D01*
X96003083Y-61202272D01*
X96143313Y-61161097D01*
X96143314Y-61161097D01*
X96154160Y-61154127D01*
X96266271Y-61082077D01*
X96361984Y-60971619D01*
X96415214Y-60855063D01*
X96422699Y-60838673D01*
X96422700Y-60838668D01*
X96423774Y-60831200D01*
X96443500Y-60694000D01*
X96443500Y-59877766D01*
X96463185Y-59810727D01*
X96479819Y-59790085D01*
X96760086Y-59509819D01*
X96821409Y-59476334D01*
X96847767Y-59473500D01*
X99669234Y-59473500D01*
X99736273Y-59493185D01*
X99756915Y-59509819D01*
X100356378Y-60109282D01*
X100389863Y-60170605D01*
X100392018Y-60184001D01*
X100397298Y-60234231D01*
X100409458Y-60349928D01*
X100409459Y-60349931D01*
X100468470Y-60531549D01*
X100468473Y-60531556D01*
X100563960Y-60696944D01*
X100628654Y-60768794D01*
X100691570Y-60838670D01*
X100691747Y-60838866D01*
X100778258Y-60901720D01*
X100846251Y-60951120D01*
X100850848Y-60953167D01*
X100904085Y-60998417D01*
X100924406Y-61065266D01*
X100905361Y-61132490D01*
X100888093Y-61154127D01*
X100486208Y-61556014D01*
X100371338Y-61670884D01*
X100341017Y-61701205D01*
X100283098Y-61759123D01*
X100213774Y-61862873D01*
X100213769Y-61862882D01*
X100166016Y-61978169D01*
X100166014Y-61978177D01*
X100141671Y-62100556D01*
X100141671Y-62413462D01*
X100121986Y-62480501D01*
X100109821Y-62496434D01*
X100036134Y-62578271D01*
X100036129Y-62578278D01*
X99940644Y-62743664D01*
X99940641Y-62743671D01*
X99881630Y-62925289D01*
X99881629Y-62925293D01*
X99861667Y-63115221D01*
X99861667Y-63115222D01*
X99864223Y-63139539D01*
X99851653Y-63208269D01*
X99803921Y-63259292D01*
X99740902Y-63276500D01*
X96952766Y-63276500D01*
X96885727Y-63256815D01*
X96865085Y-63240181D01*
X96516819Y-62891915D01*
X96483334Y-62830592D01*
X96480500Y-62804234D01*
X96480500Y-61988000D01*
X96475273Y-61914921D01*
X96471279Y-61901320D01*
X96434097Y-61774686D01*
X96434097Y-61774685D01*
X96355078Y-61651730D01*
X96244620Y-61556017D01*
X96244619Y-61556016D01*
X96221826Y-61545606D01*
X96111673Y-61495300D01*
X96111668Y-61495299D01*
X95967000Y-61474500D01*
X94817000Y-61474500D01*
X94816978Y-61474500D01*
X94735398Y-61481024D01*
X94735385Y-61481027D01*
X94707603Y-61489694D01*
X94653030Y-61494057D01*
X94517000Y-61474500D01*
X93517000Y-61474500D01*
X93516997Y-61474500D01*
X93443922Y-61479726D01*
X93443916Y-61479727D01*
X93303686Y-61520902D01*
X93303685Y-61520902D01*
X93180730Y-61599921D01*
X93085017Y-61710379D01*
X93085014Y-61710385D01*
X93024300Y-61843326D01*
X93024299Y-61843331D01*
X93003499Y-61988003D01*
X93003404Y-61989342D01*
X93003246Y-61989764D01*
X93002870Y-61992383D01*
X93002300Y-61992301D01*
X92978989Y-62054807D01*
X92923057Y-62096680D01*
X92879720Y-62104500D01*
X92655309Y-62104500D01*
X92588270Y-62084815D01*
X92563160Y-62063473D01*
X92559254Y-62059135D01*
X92523360Y-62033056D01*
X92404752Y-61946882D01*
X92230288Y-61869206D01*
X92230286Y-61869205D01*
X92043487Y-61829500D01*
X91852513Y-61829500D01*
X91665714Y-61869205D01*
X91641200Y-61880119D01*
X91616459Y-61891135D01*
X91614435Y-61892036D01*
X91545185Y-61901320D01*
X91481908Y-61871691D01*
X91444696Y-61812556D01*
X91440000Y-61778756D01*
X91440000Y-38100000D01*
X91731947Y-38100000D01*
X91752033Y-38432076D01*
X91812005Y-38759329D01*
X91910972Y-39076928D01*
X91910978Y-39076943D01*
X92047516Y-39380319D01*
X92047518Y-39380321D01*
X92219630Y-39665031D01*
X92219635Y-39665039D01*
X92372835Y-39860583D01*
X93192720Y-39040697D01*
X93266561Y-39142330D01*
X93444643Y-39320412D01*
X93546273Y-39394251D01*
X92726388Y-40214136D01*
X92726388Y-40214137D01*
X92921933Y-40367337D01*
X92921941Y-40367342D01*
X93206651Y-40539454D01*
X93206653Y-40539456D01*
X93510029Y-40675994D01*
X93510044Y-40676000D01*
X93827643Y-40774967D01*
X94154896Y-40834939D01*
X94486973Y-40855025D01*
X94819049Y-40834939D01*
X95146302Y-40774967D01*
X95463901Y-40676000D01*
X95463916Y-40675994D01*
X95767292Y-40539456D01*
X95767294Y-40539454D01*
X96052003Y-40367343D01*
X96247556Y-40214137D01*
X96247556Y-40214136D01*
X95427671Y-39394251D01*
X95529303Y-39320412D01*
X95707385Y-39142330D01*
X95781224Y-39040698D01*
X96601109Y-39860583D01*
X96601110Y-39860583D01*
X96754316Y-39665030D01*
X96926427Y-39380321D01*
X96926429Y-39380319D01*
X97045392Y-39115994D01*
X97404859Y-39115994D01*
X97404859Y-39116005D01*
X97425385Y-39363729D01*
X97425387Y-39363738D01*
X97486412Y-39604717D01*
X97586266Y-39832364D01*
X97686564Y-39985882D01*
X98308958Y-39363488D01*
X98333978Y-39423890D01*
X98405112Y-39530351D01*
X98495649Y-39620888D01*
X98602110Y-39692022D01*
X98662511Y-39717041D01*
X98039942Y-40339609D01*
X98086768Y-40376055D01*
X98086770Y-40376056D01*
X98305385Y-40494364D01*
X98305396Y-40494369D01*
X98540506Y-40575083D01*
X98785707Y-40616000D01*
X99034293Y-40616000D01*
X99279493Y-40575083D01*
X99514603Y-40494369D01*
X99514614Y-40494364D01*
X99733228Y-40376057D01*
X99733231Y-40376055D01*
X99780056Y-40339609D01*
X99157488Y-39717041D01*
X99217890Y-39692022D01*
X99324351Y-39620888D01*
X99414888Y-39530351D01*
X99486022Y-39423890D01*
X99511041Y-39363489D01*
X100133434Y-39985882D01*
X100233731Y-39832369D01*
X100333587Y-39604717D01*
X100394612Y-39363738D01*
X100394614Y-39363729D01*
X100415141Y-39116005D01*
X100415141Y-39115994D01*
X100394614Y-38868270D01*
X100394612Y-38868261D01*
X100333587Y-38627282D01*
X100233731Y-38399630D01*
X100133434Y-38246116D01*
X99511041Y-38868510D01*
X99486022Y-38808110D01*
X99414888Y-38701649D01*
X99324351Y-38611112D01*
X99217890Y-38539978D01*
X99157489Y-38514958D01*
X99780057Y-37892390D01*
X99780056Y-37892389D01*
X99733229Y-37855943D01*
X99514614Y-37737635D01*
X99514603Y-37737630D01*
X99279493Y-37656916D01*
X99034293Y-37616000D01*
X98785707Y-37616000D01*
X98540506Y-37656916D01*
X98305396Y-37737630D01*
X98305390Y-37737632D01*
X98086761Y-37855949D01*
X98039942Y-37892388D01*
X98039942Y-37892390D01*
X98662511Y-38514958D01*
X98602110Y-38539978D01*
X98495649Y-38611112D01*
X98405112Y-38701649D01*
X98333978Y-38808110D01*
X98308958Y-38868510D01*
X97686564Y-38246116D01*
X97586267Y-38399632D01*
X97486412Y-38627282D01*
X97425387Y-38868261D01*
X97425385Y-38868270D01*
X97404859Y-39115994D01*
X97045392Y-39115994D01*
X97062967Y-39076943D01*
X97062973Y-39076928D01*
X97161940Y-38759329D01*
X97221912Y-38432076D01*
X97241998Y-38100000D01*
X97221912Y-37767923D01*
X97161940Y-37440670D01*
X97062973Y-37123071D01*
X97062967Y-37123056D01*
X96926429Y-36819680D01*
X96926427Y-36819678D01*
X96754315Y-36534968D01*
X96754310Y-36534960D01*
X96601109Y-36339415D01*
X95781223Y-37159300D01*
X95707385Y-37057670D01*
X95529303Y-36879588D01*
X95427671Y-36805748D01*
X96247556Y-35985862D01*
X96247556Y-35985861D01*
X96052012Y-35832662D01*
X96052004Y-35832657D01*
X95767294Y-35660545D01*
X95767292Y-35660543D01*
X95463916Y-35524005D01*
X95463901Y-35523999D01*
X95146302Y-35425032D01*
X94819049Y-35365060D01*
X94486973Y-35344974D01*
X94154896Y-35365060D01*
X93827643Y-35425032D01*
X93510044Y-35523999D01*
X93510029Y-35524005D01*
X93206653Y-35660543D01*
X93206651Y-35660545D01*
X92921941Y-35832657D01*
X92726388Y-35985862D01*
X93546274Y-36805748D01*
X93444643Y-36879588D01*
X93266561Y-37057670D01*
X93192721Y-37159301D01*
X92372835Y-36339415D01*
X92219630Y-36534968D01*
X92047518Y-36819678D01*
X92047516Y-36819680D01*
X91910978Y-37123056D01*
X91910972Y-37123071D01*
X91812005Y-37440670D01*
X91752033Y-37767923D01*
X91731947Y-38100000D01*
X91440000Y-38100000D01*
X91440000Y-36577208D01*
X91440024Y-36574777D01*
X91440063Y-36572787D01*
X91442181Y-36464768D01*
X91443683Y-36447819D01*
X91478290Y-36229316D01*
X91482832Y-36210399D01*
X91550816Y-36001163D01*
X91558255Y-35983203D01*
X91658139Y-35787171D01*
X91668305Y-35770583D01*
X91797618Y-35592598D01*
X91810243Y-35577816D01*
X91965816Y-35422243D01*
X91980598Y-35409618D01*
X92158584Y-35280303D01*
X92175173Y-35270138D01*
X92371203Y-35170255D01*
X92389163Y-35162816D01*
X92598401Y-35094831D01*
X92617316Y-35090290D01*
X92835819Y-35055683D01*
X92852768Y-35054181D01*
X92960787Y-35052063D01*
X92962777Y-35052024D01*
X92965208Y-35052000D01*
X150174792Y-35052000D01*
X150177223Y-35052024D01*
G37*
%TD.AperFunction*%
%TA.AperFunction,Conductor*%
G36*
X146693273Y-62718185D02*
G01*
X146739028Y-62770989D01*
X146748972Y-62840147D01*
X146719947Y-62903703D01*
X146713915Y-62910181D01*
X145718915Y-63905181D01*
X145657592Y-63938666D01*
X145631234Y-63941500D01*
X143722309Y-63941500D01*
X143655270Y-63921815D01*
X143630160Y-63900473D01*
X143626254Y-63896135D01*
X143616572Y-63889100D01*
X143471752Y-63783882D01*
X143297288Y-63706206D01*
X143297286Y-63706205D01*
X143110487Y-63666500D01*
X142919513Y-63666500D01*
X142732714Y-63706205D01*
X142732712Y-63706206D01*
X142605328Y-63762921D01*
X142558246Y-63783883D01*
X142403745Y-63896135D01*
X142275959Y-64038057D01*
X142180473Y-64203443D01*
X142180470Y-64203450D01*
X142124312Y-64376288D01*
X142121458Y-64385072D01*
X142101496Y-64575000D01*
X142121458Y-64764928D01*
X142121459Y-64764931D01*
X142180470Y-64946549D01*
X142180473Y-64946556D01*
X142275960Y-65111944D01*
X142403747Y-65253866D01*
X142558248Y-65366118D01*
X142732712Y-65443794D01*
X142919513Y-65483500D01*
X143110487Y-65483500D01*
X143297288Y-65443794D01*
X143471752Y-65366118D01*
X143626253Y-65253866D01*
X143630160Y-65249527D01*
X143689646Y-65212879D01*
X143722309Y-65208500D01*
X144806234Y-65208500D01*
X144873273Y-65228185D01*
X144919028Y-65280989D01*
X144928972Y-65350147D01*
X144899947Y-65413703D01*
X144893915Y-65420181D01*
X143838915Y-66475181D01*
X143777592Y-66508666D01*
X143751234Y-66511500D01*
X138427371Y-66511500D01*
X138360332Y-66491815D01*
X138323562Y-66455322D01*
X138301981Y-66422290D01*
X138216547Y-66291523D01*
X138061114Y-66122678D01*
X137960671Y-66044500D01*
X137880012Y-65981720D01*
X137875718Y-65978915D01*
X137877095Y-65976805D01*
X137834861Y-65935063D01*
X137819609Y-65866879D01*
X137843642Y-65801272D01*
X137876716Y-65772613D01*
X137875718Y-65771085D01*
X137880006Y-65768283D01*
X137880010Y-65768281D01*
X138061114Y-65627322D01*
X138216547Y-65458477D01*
X138342069Y-65266351D01*
X138434257Y-65056185D01*
X138490594Y-64833712D01*
X138506107Y-64646500D01*
X138509546Y-64605005D01*
X138509546Y-64604994D01*
X138493487Y-64411205D01*
X138490594Y-64376288D01*
X138434257Y-64153815D01*
X138342069Y-63943649D01*
X138313421Y-63899800D01*
X138216549Y-63751525D01*
X138170325Y-63701313D01*
X138061114Y-63582678D01*
X137958640Y-63502919D01*
X137880012Y-63441720D01*
X137875718Y-63438915D01*
X137877095Y-63436805D01*
X137834861Y-63395063D01*
X137819609Y-63326879D01*
X137843642Y-63261272D01*
X137876716Y-63232613D01*
X137875718Y-63231085D01*
X137880006Y-63228283D01*
X137880010Y-63228281D01*
X138061114Y-63087322D01*
X138216547Y-62918477D01*
X138323562Y-62754677D01*
X138376709Y-62709322D01*
X138427371Y-62698500D01*
X146626234Y-62698500D01*
X146693273Y-62718185D01*
G37*
%TD.AperFunction*%
%TA.AperFunction,Conductor*%
G36*
X151667503Y-60620064D02*
G01*
X151698221Y-60682819D01*
X151700000Y-60703750D01*
X151700000Y-65378544D01*
X151680315Y-65445583D01*
X151627511Y-65491338D01*
X151558353Y-65501282D01*
X151494797Y-65472257D01*
X151462924Y-65429435D01*
X151368521Y-65219680D01*
X151368519Y-65219678D01*
X151196407Y-64934968D01*
X151196402Y-64934960D01*
X151043201Y-64739415D01*
X150223315Y-65559300D01*
X150149477Y-65457670D01*
X149971395Y-65279588D01*
X149869762Y-65205747D01*
X150689648Y-64385862D01*
X150689648Y-64385861D01*
X150494104Y-64232662D01*
X150494096Y-64232657D01*
X150209386Y-64060545D01*
X150209384Y-64060543D01*
X149906008Y-63924005D01*
X149905993Y-63923999D01*
X149588394Y-63825032D01*
X149261141Y-63765060D01*
X148929064Y-63744974D01*
X148650714Y-63761810D01*
X148582609Y-63746209D01*
X148533749Y-63696263D01*
X148519649Y-63627831D01*
X148544783Y-63562639D01*
X148555532Y-63550371D01*
X151477071Y-60628833D01*
X151477075Y-60628825D01*
X151480144Y-60625088D01*
X151537888Y-60585752D01*
X151607733Y-60583879D01*
X151667503Y-60620064D01*
G37*
%TD.AperFunction*%
%TA.AperFunction,Conductor*%
G36*
X116967333Y-63609084D02*
G01*
X117011680Y-63637585D01*
X117132463Y-63758368D01*
X117132467Y-63758371D01*
X117236218Y-63827696D01*
X117236227Y-63827701D01*
X117256260Y-63835999D01*
X117351515Y-63875455D01*
X117445170Y-63894084D01*
X117473901Y-63899799D01*
X117473905Y-63899800D01*
X117473906Y-63899800D01*
X117598694Y-63899800D01*
X120487368Y-63899800D01*
X120554407Y-63919485D01*
X120600162Y-63972289D01*
X120610106Y-64041447D01*
X120600924Y-64073610D01*
X120565743Y-64153814D01*
X120509405Y-64376291D01*
X120490454Y-64604994D01*
X120490454Y-64605005D01*
X120509405Y-64833708D01*
X120565744Y-65056189D01*
X120567407Y-65061033D01*
X120565633Y-65061642D01*
X120573505Y-65122867D01*
X120543534Y-65185982D01*
X120484198Y-65222875D01*
X120451044Y-65227389D01*
X115545877Y-65227389D01*
X115478838Y-65207704D01*
X115433083Y-65154900D01*
X115423139Y-65085742D01*
X115452164Y-65022186D01*
X115458196Y-65015708D01*
X116102404Y-64371500D01*
X116836320Y-63637583D01*
X116897641Y-63604100D01*
X116967333Y-63609084D01*
G37*
%TD.AperFunction*%
%TA.AperFunction,Conductor*%
G36*
X127515653Y-63919485D02*
G01*
X127561408Y-63972289D01*
X127572190Y-64034037D01*
X127570455Y-64054994D01*
X127570454Y-64055004D01*
X127570454Y-64055005D01*
X127589405Y-64283708D01*
X127645743Y-64506185D01*
X127737930Y-64716350D01*
X127863450Y-64908474D01*
X127863453Y-64908477D01*
X127965571Y-65019407D01*
X127996493Y-65082060D01*
X127988633Y-65151487D01*
X127944486Y-65205642D01*
X127878068Y-65227333D01*
X127874341Y-65227389D01*
X123308956Y-65227389D01*
X123241917Y-65207704D01*
X123196162Y-65154900D01*
X123186218Y-65085742D01*
X123193212Y-65061245D01*
X123192593Y-65061033D01*
X123194255Y-65056189D01*
X123194257Y-65056185D01*
X123250594Y-64833712D01*
X123266107Y-64646500D01*
X123269546Y-64605005D01*
X123269546Y-64604994D01*
X123253487Y-64411205D01*
X123250594Y-64376288D01*
X123194257Y-64153815D01*
X123159076Y-64073610D01*
X123150173Y-64004310D01*
X123180150Y-63941198D01*
X123239489Y-63904311D01*
X123272632Y-63899800D01*
X127448614Y-63899800D01*
X127515653Y-63919485D01*
G37*
%TD.AperFunction*%
%TA.AperFunction,Conductor*%
G36*
X128174407Y-61379485D02*
G01*
X128220162Y-61432289D01*
X128230106Y-61501447D01*
X128220924Y-61533610D01*
X128185743Y-61613814D01*
X128129405Y-61836291D01*
X128110454Y-62064994D01*
X128110454Y-62065005D01*
X128129405Y-62293708D01*
X128129405Y-62293711D01*
X128129406Y-62293712D01*
X128171784Y-62461062D01*
X128176165Y-62478360D01*
X128173540Y-62548180D01*
X128133583Y-62605498D01*
X128068982Y-62632114D01*
X128055959Y-62632800D01*
X123324041Y-62632800D01*
X123257002Y-62613115D01*
X123211247Y-62560311D01*
X123201303Y-62491153D01*
X123203835Y-62478360D01*
X123250594Y-62293712D01*
X123266273Y-62104500D01*
X123269546Y-62065005D01*
X123269546Y-62064994D01*
X123255983Y-61901320D01*
X123250594Y-61836288D01*
X123194257Y-61613815D01*
X123159076Y-61533610D01*
X123150173Y-61464310D01*
X123180150Y-61401198D01*
X123239489Y-61364311D01*
X123272632Y-61359800D01*
X128107368Y-61359800D01*
X128174407Y-61379485D01*
G37*
%TD.AperFunction*%
%TA.AperFunction,Conductor*%
G36*
X141960269Y-47727413D02*
G01*
X141971299Y-47737203D01*
X143492363Y-49258268D01*
X143525848Y-49319591D01*
X143520864Y-49389283D01*
X143478992Y-49445216D01*
X143430464Y-49467239D01*
X143317713Y-49491205D01*
X143172015Y-49556073D01*
X143143352Y-49568836D01*
X143143246Y-49568883D01*
X142988745Y-49681135D01*
X142860959Y-49823057D01*
X142765473Y-49988443D01*
X142765470Y-49988450D01*
X142711734Y-50153833D01*
X142706458Y-50170072D01*
X142686496Y-50360000D01*
X142706458Y-50549928D01*
X142706459Y-50549931D01*
X142765470Y-50731549D01*
X142765473Y-50731556D01*
X142860960Y-50896944D01*
X142988747Y-51038866D01*
X143143248Y-51151118D01*
X143317712Y-51228794D01*
X143504513Y-51268500D01*
X143561234Y-51268500D01*
X143628273Y-51288185D01*
X143648915Y-51304819D01*
X144760181Y-52416085D01*
X144793666Y-52477408D01*
X144796500Y-52503766D01*
X144796500Y-54938241D01*
X144776815Y-55005280D01*
X144764650Y-55021213D01*
X144690963Y-55103050D01*
X144690958Y-55103057D01*
X144595473Y-55268443D01*
X144595470Y-55268450D01*
X144536459Y-55450068D01*
X144536458Y-55450072D01*
X144516496Y-55640000D01*
X144536458Y-55829928D01*
X144536459Y-55829931D01*
X144595470Y-56011549D01*
X144595473Y-56011556D01*
X144690960Y-56176944D01*
X144818747Y-56318866D01*
X144973248Y-56431118D01*
X145147712Y-56508794D01*
X145334513Y-56548500D01*
X145397500Y-56548500D01*
X145464539Y-56568185D01*
X145510294Y-56620989D01*
X145521500Y-56672500D01*
X145521500Y-57277398D01*
X145545843Y-57399777D01*
X145545845Y-57399785D01*
X145593598Y-57515072D01*
X145593603Y-57515081D01*
X145662928Y-57618832D01*
X145662931Y-57618836D01*
X146801163Y-58757068D01*
X146801167Y-58757071D01*
X146904918Y-58826396D01*
X146904924Y-58826399D01*
X146904925Y-58826400D01*
X147020215Y-58874155D01*
X147142601Y-58898499D01*
X147142605Y-58898500D01*
X147142606Y-58898500D01*
X147267394Y-58898500D01*
X147788032Y-58898500D01*
X147855071Y-58918185D01*
X147900826Y-58970989D01*
X147910770Y-59040147D01*
X147905963Y-59060817D01*
X147896459Y-59090066D01*
X147896458Y-59090070D01*
X147896458Y-59090072D01*
X147876496Y-59280000D01*
X147896458Y-59469928D01*
X147896459Y-59469931D01*
X147955470Y-59651549D01*
X147955473Y-59651556D01*
X148047370Y-59810727D01*
X148050960Y-59816944D01*
X148124649Y-59898784D01*
X148154880Y-59961775D01*
X148156500Y-59981756D01*
X148156500Y-60779838D01*
X148136815Y-60846877D01*
X148120181Y-60867519D01*
X147592519Y-61395181D01*
X147531196Y-61428666D01*
X147504838Y-61431500D01*
X138427371Y-61431500D01*
X138360332Y-61411815D01*
X138323562Y-61375322D01*
X138297516Y-61335456D01*
X138216547Y-61211523D01*
X138061114Y-61042678D01*
X137969819Y-60971620D01*
X137880012Y-60901720D01*
X137875718Y-60898915D01*
X137877095Y-60896805D01*
X137834861Y-60855063D01*
X137819609Y-60786879D01*
X137843642Y-60721272D01*
X137876716Y-60692613D01*
X137875718Y-60691085D01*
X137880006Y-60688283D01*
X137880010Y-60688281D01*
X138061114Y-60547322D01*
X138216547Y-60378477D01*
X138342069Y-60186351D01*
X138434257Y-59976185D01*
X138490594Y-59753712D01*
X138505614Y-59572450D01*
X138509546Y-59525005D01*
X138509546Y-59524994D01*
X138490594Y-59296289D01*
X138488960Y-59289838D01*
X138476907Y-59242238D01*
X138466956Y-59202940D01*
X138469582Y-59133120D01*
X138509538Y-59075803D01*
X138574140Y-59049187D01*
X138587162Y-59048501D01*
X139357387Y-59048501D01*
X139424426Y-59068186D01*
X139449536Y-59089528D01*
X139450020Y-59090066D01*
X139453443Y-59093867D01*
X139607944Y-59206119D01*
X139782408Y-59283795D01*
X139895423Y-59307817D01*
X139956905Y-59341009D01*
X139990681Y-59402172D01*
X139986029Y-59471887D01*
X139977030Y-59491105D01*
X139955474Y-59528441D01*
X139955470Y-59528450D01*
X139915473Y-59651549D01*
X139896458Y-59710072D01*
X139876496Y-59900000D01*
X139896458Y-60089928D01*
X139896459Y-60089931D01*
X139955470Y-60271549D01*
X139955473Y-60271556D01*
X140050960Y-60436944D01*
X140178747Y-60578866D01*
X140333248Y-60691118D01*
X140507712Y-60768794D01*
X140694513Y-60808500D01*
X140885487Y-60808500D01*
X141072288Y-60768794D01*
X141246752Y-60691118D01*
X141401253Y-60578866D01*
X141529040Y-60436944D01*
X141624527Y-60271556D01*
X141683542Y-60089928D01*
X141703504Y-59900000D01*
X141683542Y-59710072D01*
X141624527Y-59528444D01*
X141554444Y-59407057D01*
X141529041Y-59363057D01*
X141529036Y-59363050D01*
X141455350Y-59281213D01*
X141425120Y-59218221D01*
X141423500Y-59198241D01*
X141423500Y-58052605D01*
X141423499Y-58052601D01*
X141412942Y-57999528D01*
X141399155Y-57930215D01*
X141391426Y-57911556D01*
X141351401Y-57814925D01*
X141328857Y-57781185D01*
X141282072Y-57711166D01*
X141282069Y-57711163D01*
X138490711Y-54919806D01*
X138457226Y-54858483D01*
X138458187Y-54801684D01*
X138466615Y-54768404D01*
X138490594Y-54673712D01*
X138503381Y-54519405D01*
X138509546Y-54445005D01*
X138509546Y-54444994D01*
X138492569Y-54240128D01*
X138490594Y-54216288D01*
X138434257Y-53993815D01*
X138342069Y-53783649D01*
X138311543Y-53736925D01*
X138216549Y-53591525D01*
X138144851Y-53513641D01*
X138061114Y-53422678D01*
X137882120Y-53283361D01*
X137880012Y-53281720D01*
X137875718Y-53278915D01*
X137877095Y-53276805D01*
X137834861Y-53235063D01*
X137819609Y-53166879D01*
X137843642Y-53101272D01*
X137876716Y-53072613D01*
X137875718Y-53071085D01*
X137880006Y-53068283D01*
X137880010Y-53068281D01*
X138061114Y-52927322D01*
X138216547Y-52758477D01*
X138342069Y-52566351D01*
X138434257Y-52356185D01*
X138490594Y-52133712D01*
X138508989Y-51911722D01*
X138509546Y-51905005D01*
X138509546Y-51904994D01*
X138490594Y-51676291D01*
X138490594Y-51676288D01*
X138434257Y-51453815D01*
X138418656Y-51418248D01*
X138409753Y-51348948D01*
X138439730Y-51285836D01*
X138499069Y-51248949D01*
X138532212Y-51244438D01*
X138971457Y-51244438D01*
X138971458Y-51244437D01*
X139093847Y-51220093D01*
X139209137Y-51172338D01*
X139312895Y-51103009D01*
X140262071Y-50153833D01*
X140331400Y-50050075D01*
X140379155Y-49934785D01*
X140403500Y-49812394D01*
X140403500Y-49687606D01*
X140403500Y-48848766D01*
X140423185Y-48781727D01*
X140439819Y-48761085D01*
X140931085Y-48269819D01*
X140992408Y-48236334D01*
X141018766Y-48233500D01*
X141075487Y-48233500D01*
X141262288Y-48193794D01*
X141436752Y-48116118D01*
X141591253Y-48003866D01*
X141719040Y-47861944D01*
X141776234Y-47762881D01*
X141826797Y-47714669D01*
X141895403Y-47701445D01*
X141960269Y-47727413D01*
G37*
%TD.AperFunction*%
%TA.AperFunction,Conductor*%
G36*
X135774827Y-51264123D02*
G01*
X135820582Y-51316927D01*
X135830526Y-51386085D01*
X135821344Y-51418248D01*
X135805743Y-51453814D01*
X135749405Y-51676291D01*
X135730454Y-51904994D01*
X135730454Y-51905005D01*
X135749405Y-52133708D01*
X135805743Y-52356185D01*
X135897930Y-52566350D01*
X136023450Y-52758474D01*
X136023453Y-52758477D01*
X136178886Y-52927322D01*
X136359990Y-53068281D01*
X136359993Y-53068283D01*
X136364291Y-53071091D01*
X136362941Y-53073156D01*
X136405267Y-53115170D01*
X136420372Y-53183387D01*
X136396198Y-53248942D01*
X136363323Y-53277428D01*
X136364291Y-53278909D01*
X136359993Y-53281716D01*
X136178887Y-53422677D01*
X136023450Y-53591525D01*
X135897930Y-53783649D01*
X135805743Y-53993814D01*
X135749405Y-54216291D01*
X135730454Y-54444994D01*
X135730454Y-54445005D01*
X135749405Y-54673708D01*
X135805743Y-54896185D01*
X135897930Y-55106350D01*
X136023450Y-55298474D01*
X136023453Y-55298477D01*
X136178886Y-55467322D01*
X136359990Y-55608281D01*
X136359993Y-55608283D01*
X136364291Y-55611091D01*
X136362941Y-55613156D01*
X136405267Y-55655170D01*
X136420372Y-55723387D01*
X136396198Y-55788942D01*
X136363323Y-55817428D01*
X136364291Y-55818909D01*
X136359993Y-55821716D01*
X136178887Y-55962677D01*
X136023450Y-56131525D01*
X135897930Y-56323649D01*
X135805743Y-56533814D01*
X135749405Y-56756291D01*
X135730454Y-56984994D01*
X135730454Y-56985005D01*
X135749405Y-57213708D01*
X135805743Y-57436185D01*
X135897930Y-57646350D01*
X136023450Y-57838474D01*
X136023453Y-57838477D01*
X136178886Y-58007322D01*
X136341470Y-58133866D01*
X136359993Y-58148283D01*
X136364291Y-58151091D01*
X136362941Y-58153156D01*
X136405267Y-58195170D01*
X136420372Y-58263387D01*
X136396198Y-58328942D01*
X136363323Y-58357428D01*
X136364291Y-58358909D01*
X136359993Y-58361716D01*
X136178887Y-58502677D01*
X136023450Y-58671525D01*
X135897930Y-58863649D01*
X135805743Y-59073814D01*
X135749405Y-59296291D01*
X135730454Y-59524994D01*
X135730454Y-59525005D01*
X135749405Y-59753708D01*
X135805743Y-59976185D01*
X135897930Y-60186350D01*
X136023450Y-60378474D01*
X136023453Y-60378477D01*
X136178886Y-60547322D01*
X136359990Y-60688281D01*
X136359993Y-60688283D01*
X136364291Y-60691091D01*
X136362941Y-60693156D01*
X136405267Y-60735170D01*
X136420372Y-60803387D01*
X136396198Y-60868942D01*
X136363323Y-60897428D01*
X136364291Y-60898909D01*
X136359993Y-60901716D01*
X136178887Y-61042677D01*
X136023453Y-61211523D01*
X135953809Y-61318121D01*
X135900662Y-61363477D01*
X135831431Y-61372901D01*
X135768095Y-61343399D01*
X135746191Y-61318121D01*
X135726313Y-61287696D01*
X135676547Y-61211523D01*
X135521114Y-61042678D01*
X135429819Y-60971620D01*
X135340012Y-60901720D01*
X135340007Y-60901717D01*
X135138180Y-60792494D01*
X135138177Y-60792492D01*
X135138174Y-60792491D01*
X135138171Y-60792490D01*
X135138169Y-60792489D01*
X134921115Y-60717974D01*
X134760163Y-60691116D01*
X134694748Y-60680200D01*
X134465252Y-60680200D01*
X134390866Y-60692613D01*
X134238886Y-60717974D01*
X134230192Y-60720958D01*
X134160393Y-60724102D01*
X134102258Y-60691354D01*
X133645136Y-60234231D01*
X133645132Y-60234228D01*
X133541381Y-60164903D01*
X133541372Y-60164898D01*
X133426085Y-60117145D01*
X133426077Y-60117143D01*
X133303698Y-60092800D01*
X133303694Y-60092800D01*
X123324041Y-60092800D01*
X123257002Y-60073115D01*
X123211247Y-60020311D01*
X123201303Y-59951153D01*
X123203835Y-59938360D01*
X123250594Y-59753712D01*
X123265614Y-59572450D01*
X123269546Y-59525005D01*
X123269546Y-59524994D01*
X123262647Y-59441740D01*
X123276728Y-59373304D01*
X123325573Y-59323345D01*
X123386223Y-59307500D01*
X125534791Y-59307500D01*
X125534792Y-59307499D01*
X125657181Y-59283155D01*
X125772471Y-59235400D01*
X125876229Y-59166071D01*
X129806751Y-55235549D01*
X133761544Y-51280757D01*
X133822867Y-51247272D01*
X133849225Y-51244438D01*
X135707788Y-51244438D01*
X135774827Y-51264123D01*
G37*
%TD.AperFunction*%
%TA.AperFunction,Conductor*%
G36*
X119701772Y-57301990D02*
G01*
X119749383Y-57353126D01*
X119762500Y-57408632D01*
X119762500Y-57720398D01*
X119786843Y-57842777D01*
X119786845Y-57842785D01*
X119834598Y-57958072D01*
X119834603Y-57958081D01*
X119903928Y-58061832D01*
X119903931Y-58061836D01*
X120469929Y-58627833D01*
X120522596Y-58680500D01*
X120558168Y-58716072D01*
X120598967Y-58743333D01*
X120643772Y-58796945D01*
X120652479Y-58866270D01*
X120643632Y-58896245D01*
X120565743Y-59073814D01*
X120509405Y-59296291D01*
X120490454Y-59524994D01*
X120490454Y-59525005D01*
X120509405Y-59753708D01*
X120509405Y-59753711D01*
X120509406Y-59753712D01*
X120555100Y-59934158D01*
X120556165Y-59938360D01*
X120553540Y-60008180D01*
X120513583Y-60065498D01*
X120448982Y-60092114D01*
X120435959Y-60092800D01*
X118694883Y-60092800D01*
X118627844Y-60073115D01*
X118582089Y-60020311D01*
X118571562Y-59955839D01*
X118572807Y-59943997D01*
X118552845Y-59754069D01*
X118493830Y-59572441D01*
X118446086Y-59489747D01*
X118398344Y-59407054D01*
X118398339Y-59407047D01*
X118324653Y-59325210D01*
X118294423Y-59262218D01*
X118292803Y-59242238D01*
X118292803Y-58688768D01*
X118312488Y-58621729D01*
X118329122Y-58601087D01*
X119447068Y-57483141D01*
X119447071Y-57483138D01*
X119516400Y-57379380D01*
X119523939Y-57361178D01*
X119567779Y-57306777D01*
X119634073Y-57284711D01*
X119701772Y-57301990D01*
G37*
%TD.AperFunction*%
%TA.AperFunction,Conductor*%
G36*
X138718190Y-56939095D02*
G01*
X139348915Y-57569820D01*
X139382400Y-57631143D01*
X139377416Y-57700835D01*
X139335544Y-57756768D01*
X139270080Y-57781185D01*
X139261234Y-57781501D01*
X138472583Y-57781501D01*
X138405544Y-57761816D01*
X138359789Y-57709012D01*
X138349845Y-57639854D01*
X138359027Y-57607690D01*
X138364328Y-57595606D01*
X138434257Y-57436185D01*
X138490594Y-57213712D01*
X138501389Y-57083443D01*
X138506933Y-57016536D01*
X138532086Y-56951351D01*
X138588488Y-56910113D01*
X138658231Y-56905915D01*
X138718190Y-56939095D01*
G37*
%TD.AperFunction*%
%TA.AperFunction,Conductor*%
G36*
X135755235Y-43723185D02*
G01*
X135800990Y-43775989D01*
X135810934Y-43845147D01*
X135808402Y-43857940D01*
X135757817Y-44057695D01*
X135738983Y-44284994D01*
X135738983Y-44285005D01*
X135757817Y-44512304D01*
X135813809Y-44733415D01*
X135905431Y-44942290D01*
X135985934Y-45065510D01*
X136599396Y-44452048D01*
X136611116Y-44495787D01*
X136683011Y-44620313D01*
X136784687Y-44721989D01*
X136909213Y-44793884D01*
X136952949Y-44805603D01*
X136338088Y-45420462D01*
X136338089Y-45420463D01*
X136364651Y-45441137D01*
X136364652Y-45441138D01*
X136373530Y-45445943D01*
X136423121Y-45495162D01*
X136438231Y-45563379D01*
X136414061Y-45628935D01*
X136373540Y-45664049D01*
X136364662Y-45668854D01*
X136364646Y-45668864D01*
X136338089Y-45689534D01*
X136338089Y-45689536D01*
X136952949Y-46304396D01*
X136909213Y-46316116D01*
X136784687Y-46388011D01*
X136683011Y-46489687D01*
X136611116Y-46614213D01*
X136599396Y-46657949D01*
X135985935Y-46044488D01*
X135905431Y-46167710D01*
X135905429Y-46167714D01*
X135813809Y-46376584D01*
X135757817Y-46597695D01*
X135738983Y-46824994D01*
X135738983Y-46825005D01*
X135757817Y-47052304D01*
X135805870Y-47242060D01*
X135803245Y-47311880D01*
X135763289Y-47369198D01*
X135698687Y-47395814D01*
X135685664Y-47396500D01*
X135417601Y-47396500D01*
X135295222Y-47420843D01*
X135295214Y-47420845D01*
X135179927Y-47468598D01*
X135179918Y-47468603D01*
X135076167Y-47537928D01*
X135076163Y-47537931D01*
X125059915Y-57554181D01*
X124998592Y-57587666D01*
X124972234Y-57590500D01*
X123314495Y-57590500D01*
X123247456Y-57570815D01*
X123201701Y-57518011D01*
X123191757Y-57448853D01*
X123194289Y-57436060D01*
X123208642Y-57379380D01*
X123250594Y-57213712D01*
X123261389Y-57083443D01*
X123269546Y-56985005D01*
X123269546Y-56984994D01*
X123255998Y-56821500D01*
X123250594Y-56756288D01*
X123218186Y-56628309D01*
X123220811Y-56558492D01*
X123250709Y-56510193D01*
X130192071Y-49568833D01*
X130261400Y-49465075D01*
X130309155Y-49349785D01*
X130333500Y-49227394D01*
X130333500Y-49102606D01*
X130333500Y-46713766D01*
X130353185Y-46646727D01*
X130369819Y-46626085D01*
X130501085Y-46494819D01*
X130562408Y-46461334D01*
X130588766Y-46458500D01*
X130645487Y-46458500D01*
X130832288Y-46418794D01*
X131006752Y-46341118D01*
X131161253Y-46228866D01*
X131289040Y-46086944D01*
X131384527Y-45921556D01*
X131443542Y-45739928D01*
X131463504Y-45550000D01*
X131443542Y-45360072D01*
X131384527Y-45178444D01*
X131289040Y-45013056D01*
X131161253Y-44871134D01*
X131006752Y-44758882D01*
X130832288Y-44681206D01*
X130832286Y-44681205D01*
X130645487Y-44641500D01*
X130454513Y-44641500D01*
X130267714Y-44681205D01*
X130267712Y-44681206D01*
X130118063Y-44747834D01*
X130093246Y-44758883D01*
X129938745Y-44871135D01*
X129810959Y-45013057D01*
X129715473Y-45178443D01*
X129715470Y-45178450D01*
X129656459Y-45360068D01*
X129656458Y-45360072D01*
X129639312Y-45523209D01*
X129639019Y-45525996D01*
X129612434Y-45590610D01*
X129603386Y-45600707D01*
X129296167Y-45907929D01*
X129252047Y-45952049D01*
X129207927Y-45996168D01*
X129138603Y-46099918D01*
X129138598Y-46099927D01*
X129090845Y-46215214D01*
X129090843Y-46215222D01*
X129066500Y-46337601D01*
X129066500Y-48851233D01*
X129046815Y-48918272D01*
X129030181Y-48938914D01*
X123478190Y-54490904D01*
X123416867Y-54524389D01*
X123347175Y-54519405D01*
X123291242Y-54477533D01*
X123266933Y-54413463D01*
X123257746Y-54302599D01*
X123250594Y-54216288D01*
X123194257Y-53993815D01*
X123102069Y-53783649D01*
X123071543Y-53736925D01*
X122976549Y-53591525D01*
X122904851Y-53513641D01*
X122821114Y-53422678D01*
X122642120Y-53283361D01*
X122640012Y-53281720D01*
X122635718Y-53278915D01*
X122637095Y-53276805D01*
X122594861Y-53235063D01*
X122579609Y-53166879D01*
X122603642Y-53101272D01*
X122636716Y-53072613D01*
X122635718Y-53071085D01*
X122640006Y-53068283D01*
X122640010Y-53068281D01*
X122821114Y-52927322D01*
X122976547Y-52758477D01*
X123102069Y-52566351D01*
X123194257Y-52356185D01*
X123250594Y-52133712D01*
X123268989Y-51911722D01*
X123269546Y-51905005D01*
X123269546Y-51904994D01*
X123250594Y-51676291D01*
X123250594Y-51676288D01*
X123218186Y-51548310D01*
X123220811Y-51478493D01*
X123250709Y-51430194D01*
X125432072Y-49248833D01*
X125501401Y-49145075D01*
X125549155Y-49029784D01*
X125567313Y-48938500D01*
X125573500Y-48907394D01*
X125573500Y-48163766D01*
X125593185Y-48096727D01*
X125609819Y-48076085D01*
X129946085Y-43739819D01*
X130007408Y-43706334D01*
X130033766Y-43703500D01*
X135688196Y-43703500D01*
X135755235Y-43723185D01*
G37*
%TD.AperFunction*%
%TA.AperFunction,Conductor*%
G36*
X143251877Y-42868185D02*
G01*
X143272519Y-42884819D01*
X148700181Y-48312481D01*
X148733666Y-48373804D01*
X148736500Y-48400162D01*
X148736500Y-55473580D01*
X148716815Y-55540619D01*
X148700181Y-55561261D01*
X147666262Y-56595181D01*
X147604939Y-56628666D01*
X147578581Y-56631500D01*
X147521860Y-56631500D01*
X147335061Y-56671205D01*
X147304486Y-56684818D01*
X147172010Y-56743800D01*
X147160593Y-56748883D01*
X147006092Y-56861135D01*
X147004646Y-56862742D01*
X147003576Y-56863400D01*
X147001264Y-56865483D01*
X147000883Y-56865059D01*
X146945157Y-56899387D01*
X146875300Y-56898054D01*
X146817254Y-56859164D01*
X146789448Y-56795066D01*
X146788500Y-56779765D01*
X146788500Y-50962605D01*
X146788499Y-50962601D01*
X146775439Y-50896944D01*
X146764155Y-50840215D01*
X146736467Y-50773370D01*
X146716401Y-50724925D01*
X146713524Y-50720619D01*
X146647072Y-50621166D01*
X146647069Y-50621163D01*
X142406620Y-46380716D01*
X142373135Y-46319393D01*
X142370983Y-46306015D01*
X142353542Y-46140072D01*
X142294527Y-45958444D01*
X142199040Y-45793056D01*
X142071253Y-45651134D01*
X141916752Y-45538882D01*
X141742288Y-45461206D01*
X141742286Y-45461205D01*
X141555487Y-45421500D01*
X141364513Y-45421500D01*
X141177713Y-45461205D01*
X141177710Y-45461206D01*
X141073718Y-45507506D01*
X141004468Y-45516790D01*
X140941192Y-45487161D01*
X140903979Y-45428026D01*
X140904645Y-45358159D01*
X140931133Y-45311255D01*
X140989040Y-45246944D01*
X141084527Y-45081556D01*
X141143542Y-44899928D01*
X141163504Y-44710000D01*
X141145750Y-44541088D01*
X141158319Y-44472363D01*
X141206051Y-44421339D01*
X141243287Y-44406841D01*
X141422288Y-44368794D01*
X141596752Y-44291118D01*
X141751253Y-44178866D01*
X141879040Y-44036944D01*
X141974527Y-43871556D01*
X142033542Y-43689928D01*
X142053504Y-43500000D01*
X142033542Y-43310072D01*
X141974527Y-43128444D01*
X141920287Y-43034499D01*
X141903815Y-42966600D01*
X141926668Y-42900573D01*
X141981589Y-42857382D01*
X142027675Y-42848500D01*
X143184838Y-42848500D01*
X143251877Y-42868185D01*
G37*
%TD.AperFunction*%
%TA.AperFunction,Conductor*%
G36*
X98465159Y-53917256D02*
G01*
X98494711Y-53933120D01*
X98533243Y-53961115D01*
X98533245Y-53961116D01*
X98533248Y-53961118D01*
X98707712Y-54038794D01*
X98894513Y-54078500D01*
X99064500Y-54078500D01*
X99131539Y-54098185D01*
X99177294Y-54150989D01*
X99188500Y-54202500D01*
X99188500Y-56034310D01*
X99194535Y-56064653D01*
X99188306Y-56134245D01*
X99145442Y-56189421D01*
X99123353Y-56202121D01*
X99063248Y-56228881D01*
X98908745Y-56341135D01*
X98780959Y-56483057D01*
X98685473Y-56648443D01*
X98685470Y-56648450D01*
X98673654Y-56684818D01*
X98634216Y-56742494D01*
X98569858Y-56769692D01*
X98555723Y-56770500D01*
X96604280Y-56770500D01*
X96537241Y-56750815D01*
X96491486Y-56698011D01*
X96480596Y-56655346D01*
X96480102Y-56648444D01*
X96475273Y-56580921D01*
X96474105Y-56576944D01*
X96434097Y-56440686D01*
X96434097Y-56440685D01*
X96355078Y-56317730D01*
X96252542Y-56228881D01*
X96244619Y-56222016D01*
X96221826Y-56211606D01*
X96111673Y-56161300D01*
X96111668Y-56161299D01*
X95967000Y-56140500D01*
X94817000Y-56140500D01*
X94816996Y-56140500D01*
X94816976Y-56140501D01*
X94747384Y-56146066D01*
X94678989Y-56131788D01*
X94629171Y-56082799D01*
X94613500Y-56022461D01*
X94613500Y-55939766D01*
X94633185Y-55872727D01*
X94649819Y-55852085D01*
X94968086Y-55533819D01*
X95029409Y-55500334D01*
X95055767Y-55497500D01*
X96582395Y-55497500D01*
X96582396Y-55497499D01*
X96704785Y-55473155D01*
X96820075Y-55425400D01*
X96923833Y-55356071D01*
X98334147Y-53945755D01*
X98395468Y-53912272D01*
X98465159Y-53917256D01*
G37*
%TD.AperFunction*%
%TA.AperFunction,Conductor*%
G36*
X120412824Y-49290593D02*
G01*
X120468757Y-49332465D01*
X120493066Y-49396535D01*
X120509405Y-49593708D01*
X120565743Y-49816185D01*
X120657930Y-50026350D01*
X120783450Y-50218474D01*
X120783453Y-50218477D01*
X120938886Y-50387322D01*
X121074155Y-50492606D01*
X121119993Y-50528283D01*
X121124291Y-50531091D01*
X121122941Y-50533156D01*
X121165267Y-50575170D01*
X121180372Y-50643387D01*
X121156198Y-50708942D01*
X121123323Y-50737428D01*
X121124291Y-50738909D01*
X121119993Y-50741716D01*
X120938887Y-50882677D01*
X120783450Y-51051525D01*
X120657930Y-51243649D01*
X120565743Y-51453814D01*
X120509405Y-51676291D01*
X120490454Y-51904994D01*
X120490454Y-51905005D01*
X120509405Y-52133708D01*
X120565743Y-52356185D01*
X120657930Y-52566350D01*
X120783450Y-52758474D01*
X120783453Y-52758477D01*
X120938886Y-52927322D01*
X121119990Y-53068281D01*
X121119993Y-53068283D01*
X121124291Y-53071091D01*
X121122941Y-53073156D01*
X121165267Y-53115170D01*
X121180372Y-53183387D01*
X121156198Y-53248942D01*
X121123323Y-53277428D01*
X121124291Y-53278909D01*
X121119993Y-53281716D01*
X120938887Y-53422677D01*
X120783450Y-53591525D01*
X120657930Y-53783649D01*
X120565743Y-53993814D01*
X120509405Y-54216291D01*
X120490454Y-54444994D01*
X120490454Y-54445005D01*
X120509405Y-54673710D01*
X120541812Y-54801687D01*
X120539186Y-54871507D01*
X120509287Y-54919807D01*
X120103178Y-55325918D01*
X119992167Y-55436929D01*
X119961774Y-55467322D01*
X119903927Y-55525168D01*
X119834603Y-55628918D01*
X119834598Y-55628928D01*
X119827061Y-55647125D01*
X119783220Y-55701528D01*
X119716925Y-55723593D01*
X119649226Y-55706313D01*
X119601616Y-55655176D01*
X119588500Y-55599672D01*
X119588500Y-55476386D01*
X119608185Y-55409347D01*
X119612187Y-55403494D01*
X119614033Y-55400950D01*
X119614040Y-55400944D01*
X119709527Y-55235556D01*
X119768542Y-55053928D01*
X119788504Y-54864000D01*
X119768542Y-54674072D01*
X119709527Y-54492444D01*
X119614040Y-54327056D01*
X119486253Y-54185134D01*
X119331752Y-54072882D01*
X119157288Y-53995206D01*
X119157286Y-53995205D01*
X118970487Y-53955500D01*
X118907500Y-53955500D01*
X118840461Y-53935815D01*
X118794706Y-53883011D01*
X118783500Y-53831500D01*
X118783500Y-50868766D01*
X118803185Y-50801727D01*
X118819819Y-50781085D01*
X119537975Y-50062929D01*
X120281811Y-49319092D01*
X120343132Y-49285609D01*
X120412824Y-49290593D01*
G37*
%TD.AperFunction*%
%TA.AperFunction,Conductor*%
G36*
X135724680Y-48783736D02*
G01*
X135780614Y-48825608D01*
X135805031Y-48891072D01*
X135801553Y-48930357D01*
X135749405Y-49136289D01*
X135730454Y-49364994D01*
X135730454Y-49365005D01*
X135749405Y-49593708D01*
X135807002Y-49821157D01*
X135805091Y-49821640D01*
X135807859Y-49882975D01*
X135772772Y-49943396D01*
X135710589Y-49975256D01*
X135687428Y-49977438D01*
X134727828Y-49977438D01*
X134660789Y-49957753D01*
X134615034Y-49904949D01*
X134605090Y-49835791D01*
X134634115Y-49772235D01*
X134640147Y-49765757D01*
X135115311Y-49290593D01*
X135593668Y-48812235D01*
X135654989Y-48778752D01*
X135724680Y-48783736D01*
G37*
%TD.AperFunction*%
%TA.AperFunction,Conductor*%
G36*
X138624751Y-48848500D02*
G01*
X138737712Y-48898794D01*
X138924513Y-48938500D01*
X139012500Y-48938500D01*
X139079539Y-48958185D01*
X139125294Y-49010989D01*
X139136500Y-49062500D01*
X139136500Y-49436234D01*
X139116815Y-49503273D01*
X139100181Y-49523915D01*
X138682977Y-49941119D01*
X138621654Y-49974604D01*
X138595296Y-49977438D01*
X138552572Y-49977438D01*
X138485533Y-49957753D01*
X138439778Y-49904949D01*
X138429834Y-49835791D01*
X138433343Y-49821244D01*
X138432998Y-49821157D01*
X138459077Y-49718170D01*
X138490594Y-49593712D01*
X138502891Y-49445309D01*
X138509546Y-49365005D01*
X138509546Y-49364994D01*
X138493642Y-49173077D01*
X138490594Y-49136288D01*
X138454111Y-48992218D01*
X138456736Y-48922401D01*
X138496692Y-48865084D01*
X138561294Y-48838467D01*
X138624751Y-48848500D01*
G37*
%TD.AperFunction*%
%TA.AperFunction,Conductor*%
G36*
X139413273Y-43723185D02*
G01*
X139433915Y-43739819D01*
X139580181Y-43886085D01*
X139613666Y-43947408D01*
X139616500Y-43973766D01*
X139616500Y-44008241D01*
X139596815Y-44075280D01*
X139584650Y-44091213D01*
X139510963Y-44173050D01*
X139510958Y-44173057D01*
X139415473Y-44338443D01*
X139415470Y-44338450D01*
X139356459Y-44520068D01*
X139356458Y-44520072D01*
X139336496Y-44710000D01*
X139356458Y-44899928D01*
X139356459Y-44899931D01*
X139415470Y-45081549D01*
X139415473Y-45081556D01*
X139510960Y-45246944D01*
X139638747Y-45388866D01*
X139793248Y-45501118D01*
X139967712Y-45578794D01*
X140154513Y-45618500D01*
X140345487Y-45618500D01*
X140532288Y-45578794D01*
X140636280Y-45532493D01*
X140705529Y-45523209D01*
X140768806Y-45552837D01*
X140806019Y-45611972D01*
X140805354Y-45681838D01*
X140778866Y-45728744D01*
X140720960Y-45793056D01*
X140720958Y-45793057D01*
X140720957Y-45793060D01*
X140625473Y-45958443D01*
X140625470Y-45958450D01*
X140566459Y-46140068D01*
X140566458Y-46140072D01*
X140551867Y-46278900D01*
X140546496Y-46330000D01*
X140557271Y-46432527D01*
X140544701Y-46501256D01*
X140506836Y-46545804D01*
X140368750Y-46646131D01*
X140368746Y-46646134D01*
X140240959Y-46788057D01*
X140145473Y-46953443D01*
X140145470Y-46953450D01*
X140089940Y-47124356D01*
X140086458Y-47135072D01*
X140069144Y-47299806D01*
X140069019Y-47300996D01*
X140042434Y-47365610D01*
X140033379Y-47375715D01*
X139925822Y-47483272D01*
X139864499Y-47516757D01*
X139794807Y-47511773D01*
X139745991Y-47478563D01*
X139631254Y-47351135D01*
X139607511Y-47333884D01*
X139476752Y-47238882D01*
X139302288Y-47161206D01*
X139302286Y-47161205D01*
X139115487Y-47121500D01*
X138924513Y-47121500D01*
X138737714Y-47161205D01*
X138737712Y-47161206D01*
X138697670Y-47179034D01*
X138651974Y-47199379D01*
X138582724Y-47208663D01*
X138519448Y-47179034D01*
X138482235Y-47119899D01*
X138481359Y-47057372D01*
X138481338Y-47057369D01*
X138481357Y-47057252D01*
X138481335Y-47055654D01*
X138482182Y-47052308D01*
X138482182Y-47052306D01*
X138501017Y-46825005D01*
X138501017Y-46824994D01*
X138482182Y-46597695D01*
X138426190Y-46376584D01*
X138334568Y-46167709D01*
X138254063Y-46044487D01*
X137640602Y-46657947D01*
X137628884Y-46614213D01*
X137556989Y-46489687D01*
X137455313Y-46388011D01*
X137330787Y-46316116D01*
X137287050Y-46304396D01*
X137901910Y-45689537D01*
X137901909Y-45689535D01*
X137875349Y-45668862D01*
X137875348Y-45668861D01*
X137866468Y-45664056D01*
X137816877Y-45614837D01*
X137801767Y-45546621D01*
X137825937Y-45481065D01*
X137866468Y-45445944D01*
X137875346Y-45441139D01*
X137875349Y-45441137D01*
X137901910Y-45420463D01*
X137287050Y-44805603D01*
X137330787Y-44793884D01*
X137455313Y-44721989D01*
X137556989Y-44620313D01*
X137628884Y-44495787D01*
X137640603Y-44452051D01*
X138254063Y-45065511D01*
X138334569Y-44942287D01*
X138426190Y-44733415D01*
X138482182Y-44512304D01*
X138501017Y-44285005D01*
X138501017Y-44284994D01*
X138482182Y-44057695D01*
X138431598Y-43857940D01*
X138434223Y-43788120D01*
X138474179Y-43730802D01*
X138538781Y-43704186D01*
X138551804Y-43703500D01*
X139346234Y-43703500D01*
X139413273Y-43723185D01*
G37*
%TD.AperFunction*%
%TA.AperFunction,Conductor*%
G36*
X135742998Y-41196885D02*
G01*
X135788753Y-41249689D01*
X135798697Y-41318847D01*
X135796166Y-41331631D01*
X135778891Y-41399853D01*
X135749405Y-41516291D01*
X135730454Y-41744994D01*
X135730454Y-41745005D01*
X135749405Y-41973708D01*
X135805041Y-42193415D01*
X135805743Y-42196185D01*
X135831052Y-42253884D01*
X135834915Y-42262689D01*
X135843818Y-42331989D01*
X135813841Y-42395102D01*
X135754502Y-42431989D01*
X135721359Y-42436500D01*
X130003766Y-42436500D01*
X129936727Y-42416815D01*
X129890972Y-42364011D01*
X129881028Y-42294853D01*
X129910053Y-42231297D01*
X129916085Y-42224819D01*
X130927385Y-41213519D01*
X130988708Y-41180034D01*
X131015066Y-41177200D01*
X135675959Y-41177200D01*
X135742998Y-41196885D01*
G37*
%TD.AperFunction*%
%TD*%
M02*
