%TF.GenerationSoftware,KiCad,Pcbnew,7.0.2*%
%TF.CreationDate,2024-09-11T13:34:27+02:00*%
%TF.ProjectId,column,636f6c75-6d6e-42e6-9b69-6361645f7063,rev?*%
%TF.SameCoordinates,Original*%
%TF.FileFunction,Legend,Bot*%
%TF.FilePolarity,Positive*%
%FSLAX46Y46*%
G04 Gerber Fmt 4.6, Leading zero omitted, Abs format (unit mm)*
G04 Created by KiCad (PCBNEW 7.0.2) date 2024-09-11 13:34:27*
%MOMM*%
%LPD*%
G01*
G04 APERTURE LIST*
G04 Aperture macros list*
%AMRoundRect*
0 Rectangle with rounded corners*
0 $1 Rounding radius*
0 $2 $3 $4 $5 $6 $7 $8 $9 X,Y pos of 4 corners*
0 Add a 4 corners polygon primitive as box body*
4,1,4,$2,$3,$4,$5,$6,$7,$8,$9,$2,$3,0*
0 Add four circle primitives for the rounded corners*
1,1,$1+$1,$2,$3*
1,1,$1+$1,$4,$5*
1,1,$1+$1,$6,$7*
1,1,$1+$1,$8,$9*
0 Add four rect primitives between the rounded corners*
20,1,$1+$1,$2,$3,$4,$5,0*
20,1,$1+$1,$4,$5,$6,$7,0*
20,1,$1+$1,$6,$7,$8,$9,0*
20,1,$1+$1,$8,$9,$2,$3,0*%
%AMHorizOval*
0 Thick line with rounded ends*
0 $1 width*
0 $2 $3 position (X,Y) of the first rounded end (center of the circle)*
0 $4 $5 position (X,Y) of the second rounded end (center of the circle)*
0 Add line between two ends*
20,1,$1,$2,$3,$4,$5,0*
0 Add two circle primitives to create the rounded ends*
1,1,$1,$2,$3*
1,1,$1,$4,$5*%
G04 Aperture macros list end*
%ADD10C,0.150000*%
%ADD11C,0.254000*%
%ADD12C,0.120000*%
%ADD13R,1.250000X0.280000*%
%ADD14R,2.000000X1.800000*%
%ADD15RoundRect,0.225000X-0.375000X0.225000X-0.375000X-0.225000X0.375000X-0.225000X0.375000X0.225000X0*%
%ADD16O,2.701800X1.701800*%
%ADD17C,3.987800*%
%ADD18HorizOval,2.032000X-0.608505X0.641231X0.608505X-0.641231X0*%
%ADD19C,2.032000*%
%ADD20HorizOval,2.032000X-0.608505X-0.641231X0.608505X0.641231X0*%
%ADD21HorizOval,2.032000X-1.269427X-0.410014X1.269427X0.410014X0*%
%ADD22HorizOval,2.032000X-1.269427X0.410014X1.269427X-0.410014X0*%
%ADD23C,1.600000*%
G04 APERTURE END LIST*
D10*
%TO.C,D3*%
X186637619Y-122661905D02*
X185637619Y-122661905D01*
X185637619Y-122661905D02*
X185637619Y-122900000D01*
X185637619Y-122900000D02*
X185685238Y-123042857D01*
X185685238Y-123042857D02*
X185780476Y-123138095D01*
X185780476Y-123138095D02*
X185875714Y-123185714D01*
X185875714Y-123185714D02*
X186066190Y-123233333D01*
X186066190Y-123233333D02*
X186209047Y-123233333D01*
X186209047Y-123233333D02*
X186399523Y-123185714D01*
X186399523Y-123185714D02*
X186494761Y-123138095D01*
X186494761Y-123138095D02*
X186590000Y-123042857D01*
X186590000Y-123042857D02*
X186637619Y-122900000D01*
X186637619Y-122900000D02*
X186637619Y-122661905D01*
X185637619Y-123566667D02*
X185637619Y-124185714D01*
X185637619Y-124185714D02*
X186018571Y-123852381D01*
X186018571Y-123852381D02*
X186018571Y-123995238D01*
X186018571Y-123995238D02*
X186066190Y-124090476D01*
X186066190Y-124090476D02*
X186113809Y-124138095D01*
X186113809Y-124138095D02*
X186209047Y-124185714D01*
X186209047Y-124185714D02*
X186447142Y-124185714D01*
X186447142Y-124185714D02*
X186542380Y-124138095D01*
X186542380Y-124138095D02*
X186590000Y-124090476D01*
X186590000Y-124090476D02*
X186637619Y-123995238D01*
X186637619Y-123995238D02*
X186637619Y-123709524D01*
X186637619Y-123709524D02*
X186590000Y-123614286D01*
X186590000Y-123614286D02*
X186542380Y-123566667D01*
%TO.C,D2*%
X186641813Y-99709237D02*
X185641813Y-99709237D01*
X185641813Y-99709237D02*
X185641813Y-99947332D01*
X185641813Y-99947332D02*
X185689432Y-100090189D01*
X185689432Y-100090189D02*
X185784670Y-100185427D01*
X185784670Y-100185427D02*
X185879908Y-100233046D01*
X185879908Y-100233046D02*
X186070384Y-100280665D01*
X186070384Y-100280665D02*
X186213241Y-100280665D01*
X186213241Y-100280665D02*
X186403717Y-100233046D01*
X186403717Y-100233046D02*
X186498955Y-100185427D01*
X186498955Y-100185427D02*
X186594194Y-100090189D01*
X186594194Y-100090189D02*
X186641813Y-99947332D01*
X186641813Y-99947332D02*
X186641813Y-99709237D01*
X185737051Y-100661618D02*
X185689432Y-100709237D01*
X185689432Y-100709237D02*
X185641813Y-100804475D01*
X185641813Y-100804475D02*
X185641813Y-101042570D01*
X185641813Y-101042570D02*
X185689432Y-101137808D01*
X185689432Y-101137808D02*
X185737051Y-101185427D01*
X185737051Y-101185427D02*
X185832289Y-101233046D01*
X185832289Y-101233046D02*
X185927527Y-101233046D01*
X185927527Y-101233046D02*
X186070384Y-101185427D01*
X186070384Y-101185427D02*
X186641813Y-100613999D01*
X186641813Y-100613999D02*
X186641813Y-101233046D01*
%TO.C,D1*%
X186446511Y-79792346D02*
X185446511Y-79792346D01*
X185446511Y-79792346D02*
X185446511Y-80030441D01*
X185446511Y-80030441D02*
X185494130Y-80173298D01*
X185494130Y-80173298D02*
X185589368Y-80268536D01*
X185589368Y-80268536D02*
X185684606Y-80316155D01*
X185684606Y-80316155D02*
X185875082Y-80363774D01*
X185875082Y-80363774D02*
X186017939Y-80363774D01*
X186017939Y-80363774D02*
X186208415Y-80316155D01*
X186208415Y-80316155D02*
X186303653Y-80268536D01*
X186303653Y-80268536D02*
X186398892Y-80173298D01*
X186398892Y-80173298D02*
X186446511Y-80030441D01*
X186446511Y-80030441D02*
X186446511Y-79792346D01*
X186446511Y-81316155D02*
X186446511Y-80744727D01*
X186446511Y-81030441D02*
X185446511Y-81030441D01*
X185446511Y-81030441D02*
X185589368Y-80935203D01*
X185589368Y-80935203D02*
X185684606Y-80839965D01*
X185684606Y-80839965D02*
X185732225Y-80744727D01*
D11*
%TO.C,J6*%
X199545000Y-115200000D02*
X199545000Y-117569000D01*
X206040000Y-126200000D02*
X203657000Y-126200000D01*
X201206000Y-115200000D02*
X199545000Y-115200000D01*
X199545000Y-126200000D02*
X199545000Y-123831000D01*
X201206000Y-126200000D02*
X199545000Y-126200000D01*
X206040000Y-126200000D02*
X206040000Y-115200000D01*
X206040000Y-115200000D02*
X203657000Y-115200000D01*
X199164000Y-117271000D02*
G75*
G03*
X199164000Y-117271000I-127000J0D01*
G01*
%TO.C,J4*%
X199545000Y-91025000D02*
X199545000Y-93394000D01*
X206040000Y-102025000D02*
X203657000Y-102025000D01*
X201206000Y-91025000D02*
X199545000Y-91025000D01*
X199545000Y-102025000D02*
X199545000Y-99656000D01*
X201206000Y-102025000D02*
X199545000Y-102025000D01*
X206040000Y-102025000D02*
X206040000Y-91025000D01*
X206040000Y-91025000D02*
X203657000Y-91025000D01*
X199164000Y-93096000D02*
G75*
G03*
X199164000Y-93096000I-127000J0D01*
G01*
%TO.C,J1*%
X199389000Y-70271000D02*
G75*
G03*
X199389000Y-70271000I-127000J0D01*
G01*
X206265000Y-68200000D02*
X203882000Y-68200000D01*
X206265000Y-79200000D02*
X206265000Y-68200000D01*
X201431000Y-79200000D02*
X199770000Y-79200000D01*
X199770000Y-79200000D02*
X199770000Y-76831000D01*
X201431000Y-68200000D02*
X199770000Y-68200000D01*
X206265000Y-79200000D02*
X203882000Y-79200000D01*
X199770000Y-68200000D02*
X199770000Y-70569000D01*
D12*
%TO.C,D3*%
X185195806Y-120992668D02*
X185195806Y-125002668D01*
X183195806Y-120992668D02*
X183195806Y-125002668D01*
X183195806Y-120992668D02*
X185195806Y-120992668D01*
%TO.C,D2*%
X185200000Y-98040000D02*
X185200000Y-102050000D01*
X183200000Y-98040000D02*
X183200000Y-102050000D01*
X183200000Y-98040000D02*
X185200000Y-98040000D01*
%TO.C,D1*%
X185004698Y-78123109D02*
X185004698Y-82133109D01*
X183004698Y-78123109D02*
X183004698Y-82133109D01*
X183004698Y-78123109D02*
X185004698Y-78123109D01*
%TO.C,kibuzzard-6399CA4F*%
G36*
X201062977Y-100126043D02*
G01*
X201053253Y-100212165D01*
X201024083Y-100270506D01*
X200913752Y-100314956D01*
X200846283Y-100303049D01*
X200799452Y-100267331D01*
X200772067Y-100212165D01*
X200762939Y-100141918D01*
X200763733Y-100114931D01*
X200767702Y-100083181D01*
X201062977Y-100083181D01*
X201062977Y-100126043D01*
G37*
G36*
X201652998Y-101329368D02*
G01*
X201652998Y-101395514D01*
X201084408Y-101774574D01*
X200515818Y-101395514D01*
X200515818Y-101329368D01*
X200515818Y-100976943D01*
X200581964Y-100976943D01*
X200599427Y-101092831D01*
X200651814Y-101191256D01*
X200739920Y-101259518D01*
X200862952Y-101284918D01*
X200960583Y-101265868D01*
X201051864Y-101215068D01*
X201137589Y-101143631D01*
X201216964Y-101062668D01*
X201262208Y-101015043D01*
X201316183Y-100964243D01*
X201372539Y-100923762D01*
X201424927Y-100907093D01*
X201424927Y-101329368D01*
X201586852Y-101329368D01*
X201586852Y-100688018D01*
X201547164Y-100684049D01*
X201513827Y-100684843D01*
X201437627Y-100692185D01*
X201367777Y-100714212D01*
X201303681Y-100747549D01*
X201244745Y-100788824D01*
X201190374Y-100835656D01*
X201139970Y-100885662D01*
X201092544Y-100935668D01*
X201047102Y-100982499D01*
X200961377Y-101057112D01*
X200877239Y-101086481D01*
X200784371Y-101049968D01*
X200751827Y-100957893D01*
X200774052Y-100861056D01*
X200848664Y-100761043D01*
X200712139Y-100664206D01*
X200654195Y-100732667D01*
X200613714Y-100811049D01*
X200589902Y-100894195D01*
X200581964Y-100976943D01*
X200515818Y-100976943D01*
X200515818Y-100141918D01*
X200593077Y-100141918D01*
X200597839Y-100222087D01*
X200612127Y-100294318D01*
X200636336Y-100357818D01*
X200670864Y-100411793D01*
X200771670Y-100487199D01*
X200838147Y-100506845D01*
X200915339Y-100513393D01*
X200997095Y-100504662D01*
X201070914Y-100478468D01*
X201132430Y-100432034D01*
X201177277Y-100362581D01*
X201268558Y-100419731D01*
X201373333Y-100478468D01*
X201482871Y-100533237D01*
X201586852Y-100578481D01*
X201586852Y-100373693D01*
X201493388Y-100334204D01*
X201403496Y-100288762D01*
X201314794Y-100238557D01*
X201224902Y-100184781D01*
X201224902Y-100083181D01*
X201586852Y-100083181D01*
X201586852Y-99887918D01*
X200618477Y-99887918D01*
X200606570Y-99950624D01*
X200598633Y-100019681D01*
X200594664Y-100086356D01*
X200593077Y-100141918D01*
X200515818Y-100141918D01*
X200515818Y-99887918D01*
X200515818Y-99821772D01*
X201652998Y-99821772D01*
X201652998Y-99887918D01*
X201652998Y-100578481D01*
X201652998Y-101329368D01*
G37*
%TO.C,kibuzzard-6399CA47*%
G36*
X199956524Y-126414860D02*
G01*
X199956524Y-126481006D01*
X199393491Y-126856361D01*
X198830458Y-126481006D01*
X198830458Y-126414860D01*
X198830458Y-126219597D01*
X198907716Y-126219597D01*
X199728454Y-126219597D01*
X199728454Y-126414860D01*
X199890379Y-126414860D01*
X199890379Y-125817960D01*
X199728454Y-125817960D01*
X199728454Y-126024335D01*
X199179178Y-126024335D01*
X199235535Y-125922735D01*
X199274429Y-125825897D01*
X199112504Y-125762397D01*
X199075991Y-125844947D01*
X199026778Y-125933847D01*
X198969628Y-126017985D01*
X198907716Y-126086247D01*
X198907716Y-126219597D01*
X198830458Y-126219597D01*
X198830458Y-125232172D01*
X198896603Y-125232172D01*
X198901366Y-125312341D01*
X198915653Y-125384572D01*
X198939863Y-125448072D01*
X198974391Y-125502047D01*
X199075197Y-125577454D01*
X199141674Y-125597099D01*
X199218866Y-125603647D01*
X199300622Y-125594916D01*
X199374441Y-125568722D01*
X199435957Y-125522288D01*
X199480804Y-125452835D01*
X199572085Y-125509985D01*
X199676860Y-125568722D01*
X199786397Y-125623491D01*
X199890379Y-125668735D01*
X199890379Y-125463947D01*
X199796914Y-125424458D01*
X199707022Y-125379016D01*
X199618321Y-125328812D01*
X199528428Y-125275035D01*
X199528428Y-125173435D01*
X199890379Y-125173435D01*
X199890379Y-124978172D01*
X198922003Y-124978172D01*
X198910097Y-125040879D01*
X198902160Y-125109935D01*
X198898191Y-125176610D01*
X198896603Y-125232172D01*
X198830458Y-125232172D01*
X198830458Y-124978172D01*
X198830458Y-124912027D01*
X199956524Y-124912027D01*
X199956524Y-124978172D01*
X199956524Y-125668735D01*
X199956524Y-126414860D01*
G37*
G36*
X199366503Y-125216297D02*
G01*
X199356780Y-125302419D01*
X199327610Y-125360760D01*
X199217278Y-125405210D01*
X199149810Y-125393304D01*
X199102979Y-125357585D01*
X199075594Y-125302419D01*
X199066466Y-125232172D01*
X199067260Y-125205185D01*
X199071228Y-125173435D01*
X199366503Y-125173435D01*
X199366503Y-125216297D01*
G37*
%TO.C,kibuzzard-6399CA1D*%
G36*
X194837077Y-125081081D02*
G01*
X195325379Y-125569382D01*
X195618360Y-125862363D01*
X195859704Y-126103708D01*
X195906477Y-126150480D01*
X195770027Y-126832730D01*
X195087777Y-126969180D01*
X195041005Y-126922407D01*
X194582264Y-126463666D01*
X194755632Y-126463666D01*
X194785192Y-126553094D01*
X194846432Y-126634291D01*
X194928689Y-126696716D01*
X195018304Y-126726838D01*
X195115278Y-126724654D01*
X195192769Y-126701187D01*
X195274257Y-126658285D01*
X195359745Y-126595949D01*
X195449232Y-126514180D01*
X195531527Y-126424167D01*
X195594319Y-126338223D01*
X195637607Y-126256349D01*
X195661390Y-126178543D01*
X195663885Y-126081257D01*
X195633951Y-125991454D01*
X195571587Y-125909135D01*
X195489269Y-125846773D01*
X195399466Y-125816838D01*
X195302180Y-125819333D01*
X195224374Y-125843116D01*
X195142500Y-125886404D01*
X195056556Y-125949196D01*
X194966543Y-126031492D01*
X194885300Y-126120592D01*
X194823420Y-126206045D01*
X194780904Y-126287850D01*
X194757752Y-126366006D01*
X194755632Y-126463666D01*
X194582264Y-126463666D01*
X194018378Y-125899780D01*
X193971605Y-125853008D01*
X193997423Y-125827190D01*
X194090968Y-125827190D01*
X194126890Y-125879949D01*
X194170107Y-125934392D01*
X194214446Y-125984345D01*
X194252612Y-126024756D01*
X194312668Y-126078076D01*
X194373846Y-126119048D01*
X194435866Y-126146831D01*
X194498447Y-126160582D01*
X194623049Y-126142622D01*
X194683945Y-126109507D01*
X194743159Y-126059555D01*
X194794796Y-125995570D01*
X194828471Y-125924851D01*
X194839136Y-125848519D01*
X194821737Y-125767696D01*
X194926693Y-125743562D01*
X195042314Y-125711008D01*
X195158496Y-125672281D01*
X195264014Y-125630747D01*
X195119207Y-125485940D01*
X195025195Y-125524106D01*
X194929500Y-125555537D01*
X194831278Y-125582759D01*
X194729689Y-125608297D01*
X194657847Y-125536455D01*
X194913784Y-125280517D01*
X194775712Y-125142446D01*
X194090968Y-125827190D01*
X193997423Y-125827190D01*
X194790305Y-125034308D01*
X194837077Y-125081081D01*
G37*
G36*
X194573657Y-125681261D02*
G01*
X194627679Y-125749034D01*
X194648305Y-125810914D01*
X194601720Y-125920361D01*
X194545594Y-125959650D01*
X194487222Y-125967507D01*
X194428850Y-125947862D01*
X194372723Y-125904645D01*
X194354202Y-125885001D01*
X194334558Y-125859744D01*
X194543349Y-125650953D01*
X194573657Y-125681261D01*
G37*
G36*
X195452599Y-126028124D02*
G01*
X195453375Y-126029593D01*
X195487398Y-126094072D01*
X195477295Y-126177421D01*
X195445864Y-126241903D01*
X195394976Y-126312623D01*
X195324630Y-126389579D01*
X195248299Y-126459300D01*
X195177953Y-126509815D01*
X195113595Y-126541121D01*
X195030247Y-126551223D01*
X194964298Y-126516425D01*
X194930201Y-126451177D01*
X194940163Y-126367690D01*
X194971157Y-126303019D01*
X194979078Y-126291918D01*
X195099002Y-126291918D01*
X195122575Y-126360393D01*
X195189366Y-126382282D01*
X195259523Y-126346923D01*
X195294322Y-126277326D01*
X195271872Y-126211097D01*
X195203958Y-126186962D01*
X195134923Y-126222322D01*
X195099002Y-126291918D01*
X194979078Y-126291918D01*
X195021485Y-126232487D01*
X195091144Y-126156092D01*
X195168162Y-126085809D01*
X195239069Y-126035108D01*
X195303864Y-126003989D01*
X195387352Y-125994026D01*
X195452599Y-126028124D01*
G37*
G36*
X195732843Y-101111740D02*
G01*
X195733619Y-101113209D01*
X195767642Y-101177688D01*
X195757539Y-101261037D01*
X195726108Y-101325519D01*
X195675220Y-101396239D01*
X195604874Y-101473195D01*
X195528543Y-101542916D01*
X195458197Y-101593431D01*
X195393839Y-101624737D01*
X195310491Y-101634839D01*
X195244542Y-101600041D01*
X195210445Y-101534793D01*
X195220407Y-101451306D01*
X195251401Y-101386635D01*
X195259322Y-101375534D01*
X195379246Y-101375534D01*
X195402819Y-101444009D01*
X195469610Y-101465898D01*
X195539767Y-101430539D01*
X195574566Y-101360942D01*
X195552116Y-101294713D01*
X195484202Y-101270578D01*
X195415167Y-101305938D01*
X195379246Y-101375534D01*
X195259322Y-101375534D01*
X195301729Y-101316103D01*
X195371388Y-101239708D01*
X195448406Y-101169425D01*
X195519313Y-101118724D01*
X195584108Y-101087605D01*
X195667596Y-101077642D01*
X195732843Y-101111740D01*
G37*
G36*
X195117321Y-100164697D02*
G01*
X195605623Y-100652998D01*
X195898604Y-100945979D01*
X196139948Y-101187324D01*
X196186721Y-101234096D01*
X196050271Y-101916346D01*
X195368021Y-102052796D01*
X195321249Y-102006023D01*
X194862508Y-101547282D01*
X195035876Y-101547282D01*
X195065436Y-101636710D01*
X195126676Y-101717907D01*
X195208933Y-101780332D01*
X195298548Y-101810454D01*
X195395522Y-101808270D01*
X195473013Y-101784803D01*
X195554501Y-101741901D01*
X195639989Y-101679565D01*
X195729476Y-101597796D01*
X195811771Y-101507783D01*
X195874563Y-101421839D01*
X195917851Y-101339965D01*
X195941634Y-101262159D01*
X195944129Y-101164873D01*
X195914195Y-101075070D01*
X195851831Y-100992751D01*
X195769513Y-100930389D01*
X195679710Y-100900454D01*
X195582424Y-100902949D01*
X195504618Y-100926732D01*
X195422744Y-100970020D01*
X195336800Y-101032812D01*
X195246787Y-101115108D01*
X195165544Y-101204208D01*
X195103664Y-101289661D01*
X195061148Y-101371466D01*
X195037996Y-101449622D01*
X195035876Y-101547282D01*
X194862508Y-101547282D01*
X194298622Y-100983396D01*
X194251849Y-100936624D01*
X194277667Y-100910806D01*
X194371212Y-100910806D01*
X194407134Y-100963565D01*
X194450351Y-101018008D01*
X194494690Y-101067961D01*
X194532856Y-101108372D01*
X194592912Y-101161692D01*
X194654090Y-101202664D01*
X194716110Y-101230447D01*
X194778691Y-101244198D01*
X194903293Y-101226238D01*
X194964189Y-101193123D01*
X195023403Y-101143171D01*
X195075040Y-101079186D01*
X195108715Y-101008467D01*
X195119380Y-100932135D01*
X195101981Y-100851312D01*
X195206937Y-100827178D01*
X195322558Y-100794624D01*
X195438740Y-100755897D01*
X195544258Y-100714363D01*
X195399451Y-100569556D01*
X195305439Y-100607722D01*
X195209744Y-100639153D01*
X195111522Y-100666375D01*
X195009933Y-100691913D01*
X194938091Y-100620071D01*
X195194028Y-100364133D01*
X195055956Y-100226062D01*
X194371212Y-100910806D01*
X194277667Y-100910806D01*
X195070549Y-100117924D01*
X195117321Y-100164697D01*
G37*
G36*
X194853901Y-100764877D02*
G01*
X194907923Y-100832650D01*
X194928549Y-100894530D01*
X194881964Y-101003977D01*
X194825838Y-101043266D01*
X194767466Y-101051123D01*
X194709094Y-101031478D01*
X194652967Y-100988261D01*
X194634446Y-100968617D01*
X194614802Y-100943360D01*
X194823593Y-100734569D01*
X194853901Y-100764877D01*
G37*
%TO.C,kibuzzard-63982C97*%
G36*
X185656060Y-93145181D02*
G01*
X185703685Y-93151135D01*
X185703685Y-93594047D01*
X185639391Y-93594047D01*
X185510208Y-93579462D01*
X185422697Y-93535706D01*
X185356022Y-93370210D01*
X185373882Y-93269007D01*
X185427460Y-93198760D01*
X185510208Y-93157683D01*
X185615579Y-93143991D01*
X185656060Y-93145181D01*
G37*
G36*
X186492672Y-94875953D02*
G01*
X185996579Y-94875953D01*
X184960735Y-94875953D01*
X183834403Y-94875953D01*
X183338310Y-94875953D01*
X183338310Y-94379860D01*
X183834403Y-94379860D01*
X184796429Y-94379860D01*
X184960735Y-94379860D01*
X185267916Y-94379860D01*
X185327150Y-94239664D01*
X185395313Y-94104825D01*
X185470620Y-93971773D01*
X185551285Y-93836935D01*
X185703685Y-93836935D01*
X185703685Y-94379860D01*
X185996579Y-94379860D01*
X185996579Y-92927297D01*
X185902519Y-92909438D01*
X185798935Y-92897532D01*
X185698922Y-92891578D01*
X185615579Y-92889197D01*
X185495325Y-92896341D01*
X185386978Y-92917772D01*
X185291728Y-92954086D01*
X185210766Y-93005878D01*
X185097657Y-93157088D01*
X185068189Y-93256803D01*
X185058366Y-93372591D01*
X185071463Y-93495225D01*
X185110753Y-93605953D01*
X185180405Y-93698227D01*
X185284585Y-93765497D01*
X185198860Y-93902419D01*
X185110753Y-94059581D01*
X185028600Y-94223888D01*
X184960735Y-94379860D01*
X184796429Y-94379860D01*
X184802382Y-94320328D01*
X184801191Y-94270322D01*
X184790178Y-94156022D01*
X184757138Y-94051247D01*
X184707132Y-93955104D01*
X184645219Y-93866700D01*
X184574972Y-93785142D01*
X184499963Y-93709538D01*
X184424953Y-93638398D01*
X184354707Y-93570235D01*
X184242788Y-93441647D01*
X184198735Y-93315441D01*
X184253503Y-93176138D01*
X184391616Y-93127322D01*
X184536872Y-93160660D01*
X184686891Y-93272578D01*
X184832147Y-93067791D01*
X184729456Y-92980875D01*
X184611882Y-92920153D01*
X184487164Y-92884435D01*
X184363041Y-92872528D01*
X184189210Y-92898722D01*
X184041572Y-92977303D01*
X183939179Y-93109463D01*
X183901079Y-93294010D01*
X183929654Y-93440457D01*
X184005854Y-93577378D01*
X184113010Y-93705966D01*
X184234453Y-93825028D01*
X184305891Y-93892894D01*
X184382091Y-93973857D01*
X184442813Y-94058391D01*
X184467816Y-94136972D01*
X183834403Y-94136972D01*
X183834403Y-94379860D01*
X183338310Y-94379860D01*
X183338310Y-92376435D01*
X183834403Y-92376435D01*
X185996579Y-92376435D01*
X186492672Y-92376435D01*
X186492672Y-94875953D01*
G37*
%TO.C,kibuzzard-6399CA3A*%
G36*
X190850007Y-126785629D02*
G01*
X191572319Y-126785629D01*
X192489894Y-126785629D01*
X192708969Y-126785629D01*
X192775115Y-126785629D01*
X193190158Y-127408194D01*
X192775115Y-128030759D01*
X192708969Y-128030759D01*
X190422969Y-128030759D01*
X190356824Y-128030759D01*
X190356824Y-127964613D01*
X192024757Y-127964613D01*
X192426394Y-127964613D01*
X192426394Y-127154988D01*
X192456557Y-127051800D01*
X192532757Y-127024813D01*
X192631182Y-127040688D01*
X192683569Y-127061325D01*
X192708969Y-126904163D01*
X192687538Y-126893050D01*
X192643882Y-126876381D01*
X192578001Y-126861300D01*
X192489894Y-126854950D01*
X192373213Y-126874992D01*
X192293044Y-126935119D01*
X192246610Y-127033742D01*
X192231132Y-127169275D01*
X192231132Y-127802688D01*
X192024757Y-127802688D01*
X192024757Y-127964613D01*
X190356824Y-127964613D01*
X190356824Y-127364538D01*
X190422969Y-127364538D01*
X190431304Y-127480028D01*
X190456307Y-127582025D01*
X190496193Y-127669933D01*
X190549176Y-127743157D01*
X190614263Y-127801100D01*
X190690463Y-127843169D01*
X190775990Y-127868767D01*
X190869057Y-127877300D01*
X190963513Y-127868569D01*
X191037332Y-127848725D01*
X191090513Y-127824913D01*
X191123057Y-127805863D01*
X191072257Y-127650288D01*
X190984151Y-127690769D01*
X190865882Y-127707438D01*
X190776188Y-127690769D01*
X190698401Y-127635207D01*
X190642838Y-127531225D01*
X190626765Y-127458200D01*
X190621407Y-127369300D01*
X190627845Y-127265848D01*
X190632065Y-127247063D01*
X191219894Y-127247063D01*
X191226443Y-127330605D01*
X191246088Y-127406607D01*
X191277441Y-127473678D01*
X191319113Y-127530432D01*
X191370509Y-127576072D01*
X191431032Y-127609807D01*
X191498898Y-127630642D01*
X191572319Y-127637588D01*
X191646734Y-127630642D01*
X191714401Y-127609807D01*
X191774329Y-127576072D01*
X191825526Y-127530432D01*
X191866999Y-127473678D01*
X191897757Y-127406607D01*
X191916807Y-127330605D01*
X191923157Y-127247063D01*
X191916807Y-127162330D01*
X191897757Y-127085932D01*
X191867198Y-127018661D01*
X191826319Y-126961313D01*
X191775718Y-126914878D01*
X191715988Y-126880350D01*
X191647924Y-126858919D01*
X191572319Y-126851775D01*
X191496715Y-126858919D01*
X191428651Y-126880350D01*
X191368723Y-126914878D01*
X191317526Y-126961313D01*
X191276052Y-127018661D01*
X191245294Y-127085932D01*
X191226244Y-127162330D01*
X191219894Y-127247063D01*
X190632065Y-127247063D01*
X190647160Y-127179859D01*
X190679351Y-127111332D01*
X190755749Y-127044061D01*
X190869057Y-127021638D01*
X190995263Y-127039100D01*
X191075432Y-127074025D01*
X191124644Y-126920038D01*
X191012726Y-126873206D01*
X190936724Y-126857133D01*
X190850007Y-126851775D01*
X190722301Y-126866592D01*
X190616468Y-126911042D01*
X190532507Y-126985125D01*
X190484584Y-127058845D01*
X190450354Y-127146653D01*
X190429816Y-127248551D01*
X190422969Y-127364538D01*
X190356824Y-127364538D01*
X190356824Y-126785629D01*
X190422969Y-126785629D01*
X190850007Y-126785629D01*
G37*
G36*
X191636018Y-127037116D02*
G01*
X191684238Y-127083550D01*
X191713409Y-127154988D01*
X191723132Y-127245475D01*
X191714202Y-127335764D01*
X191687413Y-127406607D01*
X191640780Y-127452446D01*
X191572319Y-127467725D01*
X191505446Y-127452446D01*
X191457226Y-127406607D01*
X191428055Y-127335764D01*
X191418332Y-127245475D01*
X191427262Y-127154988D01*
X191454051Y-127083550D01*
X191500684Y-127037116D01*
X191569144Y-127021638D01*
X191636018Y-127037116D01*
G37*
%TO.C,kibuzzard-6399CA47*%
G36*
X199277495Y-100189326D02*
G01*
X199267772Y-100275448D01*
X199238602Y-100333789D01*
X199128270Y-100378239D01*
X199060802Y-100366333D01*
X199013971Y-100330614D01*
X198986586Y-100275448D01*
X198977458Y-100205201D01*
X198978252Y-100178214D01*
X198982220Y-100146464D01*
X199277495Y-100146464D01*
X199277495Y-100189326D01*
G37*
G36*
X199867516Y-101387889D02*
G01*
X199867516Y-101454035D01*
X199304483Y-101829390D01*
X198741450Y-101454035D01*
X198741450Y-101387889D01*
X198741450Y-101192626D01*
X198818708Y-101192626D01*
X199639446Y-101192626D01*
X199639446Y-101387889D01*
X199801371Y-101387889D01*
X199801371Y-100790989D01*
X199639446Y-100790989D01*
X199639446Y-100997364D01*
X199090170Y-100997364D01*
X199146527Y-100895764D01*
X199185421Y-100798926D01*
X199023496Y-100735426D01*
X198986983Y-100817976D01*
X198937770Y-100906876D01*
X198880620Y-100991014D01*
X198818708Y-101059276D01*
X198818708Y-101192626D01*
X198741450Y-101192626D01*
X198741450Y-100205201D01*
X198807595Y-100205201D01*
X198812358Y-100285370D01*
X198826645Y-100357601D01*
X198850855Y-100421101D01*
X198885383Y-100475076D01*
X198986189Y-100550483D01*
X199052666Y-100570128D01*
X199129858Y-100576676D01*
X199211614Y-100567945D01*
X199285433Y-100541751D01*
X199346949Y-100495317D01*
X199391796Y-100425864D01*
X199483077Y-100483014D01*
X199587852Y-100541751D01*
X199697389Y-100596520D01*
X199801371Y-100641764D01*
X199801371Y-100436976D01*
X199707906Y-100397487D01*
X199618014Y-100352045D01*
X199529313Y-100301841D01*
X199439420Y-100248064D01*
X199439420Y-100146464D01*
X199801371Y-100146464D01*
X199801371Y-99951201D01*
X198832995Y-99951201D01*
X198821089Y-100013908D01*
X198813152Y-100082964D01*
X198809183Y-100149639D01*
X198807595Y-100205201D01*
X198741450Y-100205201D01*
X198741450Y-99951201D01*
X198741450Y-99885056D01*
X199867516Y-99885056D01*
X199867516Y-99951201D01*
X199867516Y-100641764D01*
X199867516Y-101387889D01*
G37*
%TO.C,kibuzzard-6399CA3A*%
G36*
X191804602Y-102892602D02*
G01*
X191852822Y-102939036D01*
X191881993Y-103010474D01*
X191891716Y-103100961D01*
X191882786Y-103191250D01*
X191855997Y-103262093D01*
X191809364Y-103307932D01*
X191740903Y-103323211D01*
X191674030Y-103307932D01*
X191625810Y-103262093D01*
X191596639Y-103191250D01*
X191586916Y-103100961D01*
X191595846Y-103010474D01*
X191622635Y-102939036D01*
X191669268Y-102892602D01*
X191737728Y-102877124D01*
X191804602Y-102892602D01*
G37*
G36*
X191018591Y-102641115D02*
G01*
X191740903Y-102641115D01*
X192658478Y-102641115D01*
X192877553Y-102641115D01*
X192943699Y-102641115D01*
X193358742Y-103263680D01*
X192943699Y-103886245D01*
X192877553Y-103886245D01*
X190591553Y-103886245D01*
X190525408Y-103886245D01*
X190525408Y-103820099D01*
X192193341Y-103820099D01*
X192594978Y-103820099D01*
X192594978Y-103010474D01*
X192625141Y-102907286D01*
X192701341Y-102880299D01*
X192799766Y-102896174D01*
X192852153Y-102916811D01*
X192877553Y-102759649D01*
X192856122Y-102748536D01*
X192812466Y-102731867D01*
X192746585Y-102716786D01*
X192658478Y-102710436D01*
X192541797Y-102730478D01*
X192461628Y-102790605D01*
X192415194Y-102889228D01*
X192399716Y-103024761D01*
X192399716Y-103658174D01*
X192193341Y-103658174D01*
X192193341Y-103820099D01*
X190525408Y-103820099D01*
X190525408Y-103220024D01*
X190591553Y-103220024D01*
X190599888Y-103335514D01*
X190624891Y-103437511D01*
X190664777Y-103525419D01*
X190717760Y-103598643D01*
X190782847Y-103656586D01*
X190859047Y-103698655D01*
X190944574Y-103724253D01*
X191037641Y-103732786D01*
X191132097Y-103724055D01*
X191205916Y-103704211D01*
X191259097Y-103680399D01*
X191291641Y-103661349D01*
X191240841Y-103505774D01*
X191152735Y-103546255D01*
X191034466Y-103562924D01*
X190944772Y-103546255D01*
X190866985Y-103490693D01*
X190811422Y-103386711D01*
X190795349Y-103313686D01*
X190789991Y-103224786D01*
X190796429Y-103121334D01*
X190800649Y-103102549D01*
X191388478Y-103102549D01*
X191395027Y-103186091D01*
X191414672Y-103262093D01*
X191446025Y-103329164D01*
X191487697Y-103385918D01*
X191539093Y-103431558D01*
X191599616Y-103465293D01*
X191667482Y-103486128D01*
X191740903Y-103493074D01*
X191815318Y-103486128D01*
X191882985Y-103465293D01*
X191942913Y-103431558D01*
X191994110Y-103385918D01*
X192035583Y-103329164D01*
X192066341Y-103262093D01*
X192085391Y-103186091D01*
X192091741Y-103102549D01*
X192085391Y-103017816D01*
X192066341Y-102941418D01*
X192035782Y-102874147D01*
X191994903Y-102816799D01*
X191944302Y-102770364D01*
X191884572Y-102735836D01*
X191816508Y-102714405D01*
X191740903Y-102707261D01*
X191665299Y-102714405D01*
X191597235Y-102735836D01*
X191537307Y-102770364D01*
X191486110Y-102816799D01*
X191444636Y-102874147D01*
X191413878Y-102941418D01*
X191394828Y-103017816D01*
X191388478Y-103102549D01*
X190800649Y-103102549D01*
X190815744Y-103035345D01*
X190847935Y-102966818D01*
X190924333Y-102899547D01*
X191037641Y-102877124D01*
X191163847Y-102894586D01*
X191244016Y-102929511D01*
X191293228Y-102775524D01*
X191181310Y-102728692D01*
X191105308Y-102712619D01*
X191018591Y-102707261D01*
X190890885Y-102722078D01*
X190785052Y-102766528D01*
X190701091Y-102840611D01*
X190653168Y-102914331D01*
X190618938Y-103002139D01*
X190598400Y-103104037D01*
X190591553Y-103220024D01*
X190525408Y-103220024D01*
X190525408Y-102641115D01*
X190591553Y-102641115D01*
X191018591Y-102641115D01*
G37*
%TO.C,kibuzzard-63982CB3*%
G36*
X186733575Y-119275431D02*
G01*
X186237482Y-119275431D01*
X185201638Y-119275431D01*
X184668238Y-119275431D01*
X184101500Y-119275431D01*
X183605407Y-119275431D01*
X183605407Y-118310231D01*
X184101500Y-118310231D01*
X184134838Y-118498350D01*
X184237232Y-118647178D01*
X184315813Y-118703138D01*
X184413444Y-118744810D01*
X184530721Y-118770706D01*
X184668238Y-118779338D01*
X184783728Y-118771003D01*
X184900410Y-118750763D01*
X184909830Y-118748381D01*
X185201638Y-118748381D01*
X185508819Y-118748381D01*
X185568053Y-118608185D01*
X185636216Y-118473347D01*
X185711523Y-118340295D01*
X185792188Y-118205456D01*
X185944588Y-118205456D01*
X185944588Y-118748381D01*
X186237482Y-118748381D01*
X186237482Y-117295819D01*
X186143422Y-117277960D01*
X186039838Y-117266053D01*
X185939825Y-117260100D01*
X185856482Y-117257719D01*
X185736228Y-117264863D01*
X185627882Y-117286294D01*
X185532632Y-117322608D01*
X185451669Y-117374400D01*
X185338560Y-117525610D01*
X185309092Y-117625324D01*
X185299269Y-117741113D01*
X185312366Y-117863747D01*
X185351657Y-117974475D01*
X185421308Y-118066749D01*
X185525488Y-118134019D01*
X185439763Y-118270941D01*
X185351657Y-118428103D01*
X185269503Y-118592410D01*
X185201638Y-118748381D01*
X184909830Y-118748381D01*
X185003994Y-118724569D01*
X185077813Y-118698375D01*
X185020663Y-118453106D01*
X184878978Y-118503113D01*
X184783431Y-118522758D01*
X184670619Y-118529306D01*
X184542925Y-118513233D01*
X184459878Y-118465013D01*
X184399157Y-118305469D01*
X184422374Y-118206349D01*
X184492025Y-118142353D01*
X184597396Y-118107528D01*
X184727769Y-118095919D01*
X184818257Y-118095919D01*
X184818257Y-117853031D01*
X184708719Y-117853031D01*
X184618232Y-117843506D01*
X184537269Y-117812550D01*
X184478928Y-117755400D01*
X184456307Y-117664913D01*
X184505122Y-117537516D01*
X184639663Y-117491081D01*
X184805160Y-117518466D01*
X184946844Y-117586331D01*
X185051619Y-117372019D01*
X184881360Y-117285103D01*
X184768548Y-117252064D01*
X184642044Y-117241050D01*
X184526256Y-117248789D01*
X184426541Y-117272006D01*
X184275332Y-117358922D01*
X184187225Y-117491081D01*
X184158650Y-117655388D01*
X184208657Y-117824456D01*
X184342007Y-117948281D01*
X184240506Y-118007217D01*
X184164603Y-118088775D01*
X184117276Y-118190574D01*
X184101500Y-118310231D01*
X183605407Y-118310231D01*
X183605407Y-116744956D01*
X184101500Y-116744956D01*
X186237482Y-116744956D01*
X186733575Y-116744956D01*
X186733575Y-119275431D01*
G37*
G36*
X185896963Y-117513703D02*
G01*
X185944588Y-117519656D01*
X185944588Y-117962569D01*
X185880294Y-117962569D01*
X185751111Y-117947984D01*
X185663600Y-117904228D01*
X185596925Y-117738731D01*
X185614785Y-117637528D01*
X185668363Y-117567281D01*
X185751111Y-117526205D01*
X185856482Y-117512513D01*
X185896963Y-117513703D01*
G37*
%TO.C,kibuzzard-6399CA4F*%
G36*
X201740081Y-126161389D02*
G01*
X201740081Y-126227535D01*
X201171491Y-126606595D01*
X200602901Y-126227535D01*
X200602901Y-126161389D01*
X200602901Y-125808964D01*
X200669047Y-125808964D01*
X200686510Y-125924852D01*
X200738897Y-126023277D01*
X200827003Y-126091539D01*
X200950035Y-126116939D01*
X201047666Y-126097889D01*
X201138947Y-126047089D01*
X201224672Y-125975652D01*
X201304047Y-125894689D01*
X201349291Y-125847064D01*
X201403266Y-125796264D01*
X201459622Y-125755783D01*
X201512010Y-125739114D01*
X201512010Y-126161389D01*
X201673935Y-126161389D01*
X201673935Y-125520039D01*
X201634247Y-125516070D01*
X201600910Y-125516864D01*
X201524710Y-125524206D01*
X201454860Y-125546233D01*
X201390764Y-125579570D01*
X201331828Y-125620845D01*
X201277457Y-125667677D01*
X201227053Y-125717683D01*
X201179627Y-125767689D01*
X201134185Y-125814520D01*
X201048460Y-125889133D01*
X200964322Y-125918502D01*
X200871454Y-125881989D01*
X200838910Y-125789914D01*
X200861135Y-125693077D01*
X200935747Y-125593064D01*
X200799222Y-125496227D01*
X200741278Y-125564688D01*
X200700797Y-125643070D01*
X200676985Y-125726216D01*
X200669047Y-125808964D01*
X200602901Y-125808964D01*
X200602901Y-124973939D01*
X200680160Y-124973939D01*
X200684922Y-125054108D01*
X200699210Y-125126339D01*
X200723419Y-125189839D01*
X200757947Y-125243814D01*
X200858753Y-125319220D01*
X200925230Y-125338866D01*
X201002422Y-125345414D01*
X201084178Y-125336683D01*
X201157997Y-125310489D01*
X201219513Y-125264055D01*
X201264360Y-125194602D01*
X201355641Y-125251752D01*
X201460416Y-125310489D01*
X201569954Y-125365258D01*
X201673935Y-125410502D01*
X201673935Y-125205714D01*
X201580471Y-125166225D01*
X201490579Y-125120783D01*
X201401877Y-125070578D01*
X201311985Y-125016802D01*
X201311985Y-124915202D01*
X201673935Y-124915202D01*
X201673935Y-124719939D01*
X200705560Y-124719939D01*
X200693653Y-124782645D01*
X200685716Y-124851702D01*
X200681747Y-124918377D01*
X200680160Y-124973939D01*
X200602901Y-124973939D01*
X200602901Y-124719939D01*
X200602901Y-124653793D01*
X201740081Y-124653793D01*
X201740081Y-124719939D01*
X201740081Y-125410502D01*
X201740081Y-126161389D01*
G37*
G36*
X201150060Y-124958064D02*
G01*
X201140336Y-125044186D01*
X201111166Y-125102527D01*
X201000835Y-125146977D01*
X200933366Y-125135070D01*
X200886535Y-125099352D01*
X200859150Y-125044186D01*
X200850022Y-124973939D01*
X200850816Y-124946952D01*
X200854785Y-124915202D01*
X201150060Y-124915202D01*
X201150060Y-124958064D01*
G37*
%TO.C,kibuzzard-63982C76*%
G36*
X185652488Y-69514847D02*
G01*
X185700113Y-69520800D01*
X185700113Y-69963713D01*
X185635819Y-69963713D01*
X185506636Y-69949128D01*
X185419125Y-69905372D01*
X185352450Y-69739875D01*
X185370310Y-69638672D01*
X185423888Y-69568425D01*
X185506636Y-69527349D01*
X185612007Y-69513657D01*
X185652488Y-69514847D01*
G37*
G36*
X186489100Y-71245619D02*
G01*
X185993007Y-71245619D01*
X184957163Y-71245619D01*
X183837975Y-71245619D01*
X183341882Y-71245619D01*
X183341882Y-70749525D01*
X183837975Y-70749525D01*
X184733325Y-70749525D01*
X184957163Y-70749525D01*
X185264344Y-70749525D01*
X185323578Y-70609329D01*
X185391741Y-70474491D01*
X185467048Y-70341439D01*
X185547713Y-70206600D01*
X185700113Y-70206600D01*
X185700113Y-70749525D01*
X185993007Y-70749525D01*
X185993007Y-69296963D01*
X185898947Y-69279103D01*
X185795363Y-69267197D01*
X185695350Y-69261244D01*
X185612007Y-69258863D01*
X185491753Y-69266006D01*
X185383407Y-69287438D01*
X185288157Y-69323752D01*
X185207194Y-69375544D01*
X185094085Y-69526753D01*
X185064617Y-69626468D01*
X185054794Y-69742256D01*
X185067891Y-69864891D01*
X185107182Y-69975619D01*
X185176833Y-70067892D01*
X185281013Y-70135163D01*
X185195288Y-70272085D01*
X185107182Y-70429247D01*
X185025028Y-70593553D01*
X184957163Y-70749525D01*
X184733325Y-70749525D01*
X184733325Y-70506638D01*
X184423763Y-70506638D01*
X184423763Y-69682725D01*
X184576163Y-69767260D01*
X184721419Y-69825600D01*
X184816669Y-69582713D01*
X184692844Y-69527944D01*
X184559494Y-69454125D01*
X184433288Y-69368400D01*
X184330894Y-69275532D01*
X184130869Y-69275532D01*
X184130869Y-70506638D01*
X183837975Y-70506638D01*
X183837975Y-70749525D01*
X183341882Y-70749525D01*
X183341882Y-68762769D01*
X183837975Y-68762769D01*
X185993007Y-68762769D01*
X186489100Y-68762769D01*
X186489100Y-71245619D01*
G37*
%TD*%
%LPC*%
D13*
%TO.C,J6*%
X199707000Y-117950000D03*
X199707000Y-118450000D03*
X199707000Y-118950000D03*
X199707000Y-119450000D03*
X199707000Y-119950000D03*
X199707000Y-120450000D03*
X199707000Y-120950000D03*
X199707000Y-121450000D03*
X199707000Y-121950000D03*
X199707000Y-122450000D03*
X199707000Y-122950000D03*
X199707000Y-123450000D03*
D14*
X202431000Y-125250000D03*
X202431000Y-116150000D03*
%TD*%
D13*
%TO.C,J4*%
X199707000Y-93775000D03*
X199707000Y-94275000D03*
X199707000Y-94775000D03*
X199707000Y-95275000D03*
X199707000Y-95775000D03*
X199707000Y-96275000D03*
X199707000Y-96775000D03*
X199707000Y-97275000D03*
X199707000Y-97775000D03*
X199707000Y-98275000D03*
X199707000Y-98775000D03*
X199707000Y-99275000D03*
D14*
X202431000Y-101075000D03*
X202431000Y-91975000D03*
%TD*%
%TO.C,J1*%
X202656000Y-69150000D03*
X202656000Y-78250000D03*
D13*
X199932000Y-76450000D03*
X199932000Y-75950000D03*
X199932000Y-75450000D03*
X199932000Y-74950000D03*
X199932000Y-74450000D03*
X199932000Y-73950000D03*
X199932000Y-73450000D03*
X199932000Y-72950000D03*
X199932000Y-72450000D03*
X199932000Y-71950000D03*
X199932000Y-71450000D03*
X199932000Y-70950000D03*
%TD*%
D15*
%TO.C,D3*%
X184195806Y-121702668D03*
X184195806Y-125002668D03*
%TD*%
%TO.C,D2*%
X184200000Y-98750000D03*
X184200000Y-102050000D03*
%TD*%
%TO.C,D1*%
X184004698Y-78833109D03*
X184004698Y-82133109D03*
%TD*%
D16*
%TO.C,SW3*%
X187305903Y-124417886D03*
D17*
X192383491Y-124421194D03*
D16*
X197465903Y-124421847D03*
D18*
X187968592Y-121237762D03*
D19*
X188573491Y-121881194D03*
X196193491Y-121881194D03*
D20*
X196798390Y-121237762D03*
D21*
X191128143Y-118926263D03*
D19*
X192383491Y-118521194D03*
D22*
X193638839Y-118926263D03*
%TD*%
D16*
%TO.C,SW2*%
X187305903Y-100319886D03*
D17*
X192383491Y-100323194D03*
D16*
X197465903Y-100323847D03*
D18*
X187968592Y-97139762D03*
D19*
X188573491Y-97783194D03*
X196193491Y-97783194D03*
D20*
X196798390Y-97139762D03*
D21*
X191128143Y-94828263D03*
D19*
X192383491Y-94423194D03*
D22*
X193638839Y-94828263D03*
%TD*%
D16*
%TO.C,SW1*%
X187305903Y-76121886D03*
D17*
X192383491Y-76125194D03*
D16*
X197465903Y-76125847D03*
D18*
X187968592Y-72941762D03*
D19*
X188573491Y-73585194D03*
X196193491Y-73585194D03*
D20*
X196798390Y-72941762D03*
D21*
X191128143Y-70630263D03*
D19*
X192383491Y-70225194D03*
D22*
X193638839Y-70630263D03*
%TD*%
D23*
%TO.C,J3*%
X194313491Y-127916194D03*
X194053491Y-129206194D03*
X196339491Y-129206194D03*
X196599491Y-127916194D03*
X198885491Y-127916194D03*
X198625491Y-129206194D03*
X201171491Y-127916194D03*
X200911491Y-129206194D03*
%TD*%
%TO.C,J5*%
X194348163Y-103204170D03*
X194088163Y-104494170D03*
X196634163Y-103204170D03*
X196374163Y-104494170D03*
X198660163Y-104494170D03*
X198920163Y-103204170D03*
X201206163Y-103204170D03*
X200946163Y-104494170D03*
%TD*%
%LPD*%
M02*
