%TF.GenerationSoftware,KiCad,Pcbnew,7.0.2*%
%TF.CreationDate,2024-09-11T13:34:27+02:00*%
%TF.ProjectId,column,636f6c75-6d6e-42e6-9b69-6361645f7063,rev?*%
%TF.SameCoordinates,Original*%
%TF.FileFunction,Copper,L2,Bot*%
%TF.FilePolarity,Positive*%
%FSLAX46Y46*%
G04 Gerber Fmt 4.6, Leading zero omitted, Abs format (unit mm)*
G04 Created by KiCad (PCBNEW 7.0.2) date 2024-09-11 13:34:27*
%MOMM*%
%LPD*%
G01*
G04 APERTURE LIST*
G04 Aperture macros list*
%AMRoundRect*
0 Rectangle with rounded corners*
0 $1 Rounding radius*
0 $2 $3 $4 $5 $6 $7 $8 $9 X,Y pos of 4 corners*
0 Add a 4 corners polygon primitive as box body*
4,1,4,$2,$3,$4,$5,$6,$7,$8,$9,$2,$3,0*
0 Add four circle primitives for the rounded corners*
1,1,$1+$1,$2,$3*
1,1,$1+$1,$4,$5*
1,1,$1+$1,$6,$7*
1,1,$1+$1,$8,$9*
0 Add four rect primitives between the rounded corners*
20,1,$1+$1,$2,$3,$4,$5,0*
20,1,$1+$1,$4,$5,$6,$7,0*
20,1,$1+$1,$6,$7,$8,$9,0*
20,1,$1+$1,$8,$9,$2,$3,0*%
%AMHorizOval*
0 Thick line with rounded ends*
0 $1 width*
0 $2 $3 position (X,Y) of the first rounded end (center of the circle)*
0 $4 $5 position (X,Y) of the second rounded end (center of the circle)*
0 Add line between two ends*
20,1,$1,$2,$3,$4,$5,0*
0 Add two circle primitives to create the rounded ends*
1,1,$1,$2,$3*
1,1,$1,$4,$5*%
G04 Aperture macros list end*
%TA.AperFunction,SMDPad,CuDef*%
%ADD10R,1.250000X0.280000*%
%TD*%
%TA.AperFunction,SMDPad,CuDef*%
%ADD11R,2.000000X1.800000*%
%TD*%
%TA.AperFunction,SMDPad,CuDef*%
%ADD12RoundRect,0.225000X-0.375000X0.225000X-0.375000X-0.225000X0.375000X-0.225000X0.375000X0.225000X0*%
%TD*%
%TA.AperFunction,ComponentPad*%
%ADD13HorizOval,2.032000X-0.608505X0.641231X0.608505X-0.641231X0*%
%TD*%
%TA.AperFunction,ComponentPad*%
%ADD14C,2.032000*%
%TD*%
%TA.AperFunction,ComponentPad*%
%ADD15HorizOval,2.032000X-0.608505X-0.641231X0.608505X0.641231X0*%
%TD*%
%TA.AperFunction,ComponentPad*%
%ADD16HorizOval,2.032000X-1.269427X-0.410014X1.269427X0.410014X0*%
%TD*%
%TA.AperFunction,ComponentPad*%
%ADD17HorizOval,2.032000X-1.269427X0.410014X1.269427X-0.410014X0*%
%TD*%
%TA.AperFunction,ComponentPad*%
%ADD18C,1.600000*%
%TD*%
%TA.AperFunction,ViaPad*%
%ADD19C,0.800000*%
%TD*%
%TA.AperFunction,Conductor*%
%ADD20C,0.250000*%
%TD*%
G04 APERTURE END LIST*
D10*
%TO.P,J6,1,Pin_1*%
%TO.N,col0*%
X199707000Y-117950000D03*
%TO.P,J6,2,Pin_2*%
%TO.N,row_0*%
X199707000Y-118450000D03*
%TO.P,J6,3,Pin_3*%
%TO.N,row_1*%
X199707000Y-118950000D03*
%TO.P,J6,4,Pin_4*%
%TO.N,row_2*%
X199707000Y-119450000D03*
%TO.P,J6,5,Pin_5*%
%TO.N,unconnected-(J6-Pin_5-Pad5)*%
X199707000Y-119950000D03*
%TO.P,J6,6,Pin_6*%
%TO.N,unconnected-(J6-Pin_6-Pad6)*%
X199707000Y-120450000D03*
%TO.P,J6,7,Pin_7*%
%TO.N,unconnected-(J6-Pin_7-Pad7)*%
X199707000Y-120950000D03*
%TO.P,J6,8,Pin_8*%
%TO.N,unconnected-(J6-Pin_8-Pad8)*%
X199707000Y-121450000D03*
%TO.P,J6,9,Pin_9*%
%TO.N,row_2*%
X199707000Y-121950000D03*
%TO.P,J6,10,Pin_10*%
%TO.N,row_1*%
X199707000Y-122450000D03*
%TO.P,J6,11,Pin_11*%
%TO.N,row_0*%
X199707000Y-122950000D03*
%TO.P,J6,12,Pin_12*%
%TO.N,col0*%
X199707000Y-123450000D03*
D11*
%TO.P,J6,13*%
%TO.N,N/C*%
X202431000Y-125250000D03*
%TO.P,J6,14*%
X202431000Y-116150000D03*
%TD*%
D10*
%TO.P,J4,1,Pin_1*%
%TO.N,col0*%
X199707000Y-93775000D03*
%TO.P,J4,2,Pin_2*%
%TO.N,row_0*%
X199707000Y-94275000D03*
%TO.P,J4,3,Pin_3*%
%TO.N,row_1*%
X199707000Y-94775000D03*
%TO.P,J4,4,Pin_4*%
%TO.N,row_2*%
X199707000Y-95275000D03*
%TO.P,J4,5,Pin_5*%
%TO.N,unconnected-(J4-Pin_5-Pad5)*%
X199707000Y-95775000D03*
%TO.P,J4,6,Pin_6*%
%TO.N,unconnected-(J4-Pin_6-Pad6)*%
X199707000Y-96275000D03*
%TO.P,J4,7,Pin_7*%
%TO.N,unconnected-(J4-Pin_7-Pad7)*%
X199707000Y-96775000D03*
%TO.P,J4,8,Pin_8*%
%TO.N,unconnected-(J4-Pin_8-Pad8)*%
X199707000Y-97275000D03*
%TO.P,J4,9,Pin_9*%
%TO.N,row_2*%
X199707000Y-97775000D03*
%TO.P,J4,10,Pin_10*%
%TO.N,row_1*%
X199707000Y-98275000D03*
%TO.P,J4,11,Pin_11*%
%TO.N,row_0*%
X199707000Y-98775000D03*
%TO.P,J4,12,Pin_12*%
%TO.N,col0*%
X199707000Y-99275000D03*
D11*
%TO.P,J4,13*%
%TO.N,N/C*%
X202431000Y-101075000D03*
%TO.P,J4,14*%
X202431000Y-91975000D03*
%TD*%
%TO.P,J1,14*%
%TO.N,N/C*%
X202656000Y-69150000D03*
%TO.P,J1,13*%
X202656000Y-78250000D03*
D10*
%TO.P,J1,12,Pin_12*%
%TO.N,col0*%
X199932000Y-76450000D03*
%TO.P,J1,11,Pin_11*%
%TO.N,row_0*%
X199932000Y-75950000D03*
%TO.P,J1,10,Pin_10*%
%TO.N,row_1*%
X199932000Y-75450000D03*
%TO.P,J1,9,Pin_9*%
%TO.N,row_2*%
X199932000Y-74950000D03*
%TO.P,J1,8,Pin_8*%
%TO.N,unconnected-(J1-Pin_8-Pad8)*%
X199932000Y-74450000D03*
%TO.P,J1,7,Pin_7*%
%TO.N,unconnected-(J1-Pin_7-Pad7)*%
X199932000Y-73950000D03*
%TO.P,J1,6,Pin_6*%
%TO.N,unconnected-(J1-Pin_6-Pad6)*%
X199932000Y-73450000D03*
%TO.P,J1,5,Pin_5*%
%TO.N,unconnected-(J1-Pin_5-Pad5)*%
X199932000Y-72950000D03*
%TO.P,J1,4,Pin_4*%
%TO.N,row_2*%
X199932000Y-72450000D03*
%TO.P,J1,3,Pin_3*%
%TO.N,row_1*%
X199932000Y-71950000D03*
%TO.P,J1,2,Pin_2*%
%TO.N,row_0*%
X199932000Y-71450000D03*
%TO.P,J1,1,Pin_1*%
%TO.N,col0*%
X199932000Y-70950000D03*
%TD*%
D12*
%TO.P,D3,1,K*%
%TO.N,Net-(D3-K)*%
X184195806Y-121702668D03*
%TO.P,D3,2,A*%
%TO.N,col0*%
X184195806Y-125002668D03*
%TD*%
%TO.P,D2,1,K*%
%TO.N,Net-(D2-K)*%
X184200000Y-98750000D03*
%TO.P,D2,2,A*%
%TO.N,col0*%
X184200000Y-102050000D03*
%TD*%
%TO.P,D1,1,K*%
%TO.N,Net-(D1-K)*%
X184004698Y-78833109D03*
%TO.P,D1,2,A*%
%TO.N,col0*%
X184004698Y-82133109D03*
%TD*%
D13*
%TO.P,SW3,1,1*%
%TO.N,row_2*%
X187968592Y-121237762D03*
D14*
X188573491Y-121881194D03*
X196193491Y-121881194D03*
D15*
X196798390Y-121237762D03*
D16*
%TO.P,SW3,2,2*%
%TO.N,Net-(D3-K)*%
X191128143Y-118926263D03*
D14*
X192383491Y-118521194D03*
D17*
X193638839Y-118926263D03*
%TD*%
D13*
%TO.P,SW2,1,1*%
%TO.N,row_1*%
X187968592Y-97139762D03*
D14*
X188573491Y-97783194D03*
X196193491Y-97783194D03*
D15*
X196798390Y-97139762D03*
D16*
%TO.P,SW2,2,2*%
%TO.N,Net-(D2-K)*%
X191128143Y-94828263D03*
D14*
X192383491Y-94423194D03*
D17*
X193638839Y-94828263D03*
%TD*%
D13*
%TO.P,SW1,1,1*%
%TO.N,row_0*%
X187968592Y-72941762D03*
D14*
X188573491Y-73585194D03*
X196193491Y-73585194D03*
D15*
X196798390Y-72941762D03*
D16*
%TO.P,SW1,2,2*%
%TO.N,Net-(D1-K)*%
X191128143Y-70630263D03*
D14*
X192383491Y-70225194D03*
D17*
X193638839Y-70630263D03*
%TD*%
D18*
%TO.P,J3,1,Pin_1*%
%TO.N,col0*%
X194313491Y-127916194D03*
X194053491Y-129206194D03*
%TO.P,J3,2,Pin_2*%
%TO.N,row_0*%
X196339491Y-129206194D03*
X196599491Y-127916194D03*
%TO.P,J3,3,Pin_3*%
%TO.N,row_1*%
X198885491Y-127916194D03*
X198625491Y-129206194D03*
%TO.P,J3,4,Pin_4*%
%TO.N,row_2*%
X201171491Y-127916194D03*
X200911491Y-129206194D03*
%TD*%
%TO.P,J5,1,Pin_1*%
%TO.N,col0*%
X194348163Y-103204170D03*
X194088163Y-104494170D03*
%TO.P,J5,2,Pin_2*%
%TO.N,row_0*%
X196634163Y-103204170D03*
X196374163Y-104494170D03*
%TO.P,J5,3,Pin_3*%
%TO.N,row_1*%
X198660163Y-104494170D03*
X198920163Y-103204170D03*
%TO.P,J5,4,Pin_4*%
%TO.N,row_2*%
X201206163Y-103204170D03*
X200946163Y-104494170D03*
%TD*%
D19*
%TO.N,row_1*%
X191675000Y-105100500D03*
%TO.N,row_2*%
X201925000Y-96350000D03*
%TO.N,row_0*%
X196900000Y-93825000D03*
%TO.N,row_1*%
X202450000Y-75100000D03*
%TO.N,row_2*%
X202350000Y-73550000D03*
%TO.N,row_1*%
X196650000Y-116975000D03*
%TO.N,row_0*%
X198300000Y-117800000D03*
%TO.N,row_2*%
X201975000Y-120450000D03*
%TD*%
D20*
%TO.N,row_1*%
X197383491Y-96866491D02*
X198792000Y-98275000D01*
X197383491Y-96523194D02*
X197383491Y-96866491D01*
X198792000Y-98275000D02*
X199707000Y-98275000D01*
%TO.N,col0*%
X198903437Y-92971437D02*
X199707000Y-93775000D01*
X185003563Y-92971437D02*
X198903437Y-92971437D01*
X184087500Y-93887500D02*
X185003563Y-92971437D01*
%TO.N,row_0*%
X198415000Y-94240000D02*
X199435604Y-94240000D01*
X198000000Y-93825000D02*
X198415000Y-94240000D01*
X198000000Y-93825000D02*
X196900000Y-93825000D01*
X199678500Y-94275000D02*
X204146500Y-94275000D01*
%TO.N,row_1*%
X197329333Y-105825000D02*
X198660163Y-104494170D01*
X192399500Y-105825000D02*
X197329333Y-105825000D01*
X191675000Y-105100500D02*
X192399500Y-105825000D01*
X195850000Y-101750000D02*
X197465993Y-101750000D01*
X198920163Y-103204170D02*
X197465993Y-101750000D01*
%TO.N,col0*%
X205271500Y-94275000D02*
X204771500Y-93775000D01*
X199678500Y-99275000D02*
X204971500Y-99275000D01*
X205271500Y-98975000D02*
X205271500Y-94275000D01*
X204971500Y-99275000D02*
X205271500Y-98975000D01*
X204771500Y-93775000D02*
X199678500Y-93775000D01*
X197607000Y-78775000D02*
X199932000Y-76450000D01*
%TO.N,row_1*%
X195177492Y-101077492D02*
X195850000Y-101750000D01*
X195177492Y-98799193D02*
X195177492Y-101077492D01*
X196193491Y-97783194D02*
X195177492Y-98799193D01*
%TO.N,col0*%
X184450000Y-93525000D02*
X184087500Y-93887500D01*
X185700000Y-88250000D02*
X184450000Y-89500000D01*
X199675000Y-88250000D02*
X185700000Y-88250000D01*
X200650000Y-87275000D02*
X199675000Y-88250000D01*
X200025000Y-84475000D02*
X200650000Y-85100000D01*
X186025000Y-84475000D02*
X200025000Y-84475000D01*
X184004698Y-82454698D02*
X186025000Y-84475000D01*
X184004698Y-82133109D02*
X184004698Y-82454698D01*
X184087500Y-93887500D02*
X183250000Y-94725000D01*
X200650000Y-85100000D02*
X200650000Y-87275000D01*
X184450000Y-89500000D02*
X184450000Y-93525000D01*
%TO.N,row_2*%
X201871500Y-96350000D02*
X202946500Y-95275000D01*
X201925000Y-96350000D02*
X201871500Y-96350000D01*
%TO.N,col0*%
X183250000Y-100875000D02*
X184200000Y-101825000D01*
X184200000Y-101825000D02*
X184200000Y-102050000D01*
X183250000Y-94725000D02*
X183250000Y-100875000D01*
%TO.N,row_1*%
X202450000Y-75125000D02*
X202125000Y-75450000D01*
X202450000Y-75100000D02*
X202450000Y-75125000D01*
X202475000Y-75100000D02*
X202450000Y-75100000D01*
X204000000Y-72825000D02*
X204000000Y-73575000D01*
X202125000Y-75450000D02*
X200003500Y-75450000D01*
X203125000Y-71950000D02*
X204000000Y-72825000D01*
X204000000Y-73575000D02*
X202475000Y-75100000D01*
X200003500Y-71950000D02*
X203125000Y-71950000D01*
%TO.N,row_2*%
X201250000Y-72450000D02*
X202350000Y-73550000D01*
X200003500Y-72450000D02*
X201250000Y-72450000D01*
X200950000Y-74950000D02*
X200003500Y-74950000D01*
X202350000Y-73550000D02*
X200950000Y-74950000D01*
X202350000Y-73371500D02*
X202350000Y-73550000D01*
%TO.N,col0*%
X187362807Y-78775000D02*
X197607000Y-78775000D01*
X184004698Y-82133109D02*
X187362807Y-78775000D01*
%TO.N,row_0*%
X204471500Y-71450000D02*
X205096500Y-72075000D01*
X205096500Y-72075000D02*
X205096500Y-75750000D01*
X205096500Y-75750000D02*
X204896500Y-75950000D01*
X200003500Y-71450000D02*
X204471500Y-71450000D01*
X204896500Y-75950000D02*
X200003500Y-75950000D01*
%TO.N,col0*%
X205296500Y-76450000D02*
X205596500Y-76150000D01*
X205596500Y-76150000D02*
X205596500Y-71450000D01*
X205096500Y-70950000D02*
X200003500Y-70950000D01*
X205596500Y-71450000D02*
X205096500Y-70950000D01*
X200003500Y-76450000D02*
X205296500Y-76450000D01*
%TO.N,row_2*%
X202271500Y-73450000D02*
X202350000Y-73371500D01*
%TO.N,col0*%
X184200000Y-105324703D02*
X184200000Y-102050000D01*
X184661491Y-105786194D02*
X184200000Y-105324703D01*
%TO.N,row_0*%
X204146500Y-94275000D02*
X204771500Y-94900000D01*
X204771500Y-94900000D02*
X204771500Y-98575000D01*
X204771500Y-98575000D02*
X204571500Y-98775000D01*
X204571500Y-98775000D02*
X199678500Y-98775000D01*
%TO.N,row_2*%
X203746500Y-95825000D02*
X203746500Y-97500000D01*
X203471500Y-97775000D02*
X199678500Y-97775000D01*
X203746500Y-97500000D02*
X203471500Y-97775000D01*
X203196500Y-95275000D02*
X203746500Y-95825000D01*
%TO.N,row_1*%
X203771500Y-98275000D02*
X199678500Y-98275000D01*
X204321500Y-95550000D02*
X204321500Y-97725000D01*
X199678500Y-94775000D02*
X203546500Y-94775000D01*
X204321500Y-97725000D02*
X203771500Y-98275000D01*
X203546500Y-94775000D02*
X204321500Y-95550000D01*
%TO.N,row_2*%
X199678500Y-95275000D02*
X203196500Y-95275000D01*
X202946500Y-95275000D02*
X203196500Y-95275000D01*
%TO.N,row_1*%
X196575000Y-117050000D02*
X196650000Y-116975000D01*
X196575000Y-117100305D02*
X196575000Y-117050000D01*
X198424695Y-118950000D02*
X196575000Y-117100305D01*
X199707000Y-118950000D02*
X198424695Y-118950000D01*
%TO.N,row_0*%
X198950000Y-118450000D02*
X199707000Y-118450000D01*
X198300000Y-117800000D02*
X198950000Y-118450000D01*
%TO.N,row_2*%
X199707000Y-119450000D02*
X203225000Y-119450000D01*
%TO.N,col0*%
X185447343Y-116225000D02*
X183247343Y-118425000D01*
X197982000Y-116225000D02*
X185447343Y-116225000D01*
X199707000Y-117950000D02*
X197982000Y-116225000D01*
%TO.N,row_2*%
X202975000Y-119450000D02*
X203225000Y-119450000D01*
X201975000Y-120450000D02*
X202975000Y-119450000D01*
%TO.N,col0*%
X183247343Y-118425000D02*
X183247343Y-124054205D01*
X183247343Y-116122343D02*
X183247343Y-118425000D01*
X183247343Y-116122343D02*
X186947491Y-112422194D01*
X183247343Y-124054205D02*
X184195806Y-125002668D01*
%TO.N,row_2*%
X196262297Y-121950000D02*
X199707000Y-121950000D01*
X196193491Y-121881194D02*
X196262297Y-121950000D01*
%TO.N,col0*%
X184968806Y-129206194D02*
X194053491Y-129206194D01*
X184950000Y-129225000D02*
X184968806Y-129206194D01*
X184195806Y-128470806D02*
X184950000Y-129225000D01*
X184195806Y-125002668D02*
X184195806Y-128470806D01*
%TO.N,row_2*%
X203500000Y-121950000D02*
X199707000Y-121950000D01*
X203775000Y-121675000D02*
X203500000Y-121950000D01*
X203775000Y-120000000D02*
X203775000Y-121675000D01*
X203225000Y-119450000D02*
X203775000Y-120000000D01*
%TO.N,row_1*%
X203800000Y-122450000D02*
X199707000Y-122450000D01*
X204350000Y-119725000D02*
X204350000Y-121900000D01*
X203575000Y-118950000D02*
X204350000Y-119725000D01*
X204350000Y-121900000D02*
X203800000Y-122450000D01*
X199707000Y-118950000D02*
X203575000Y-118950000D01*
%TO.N,row_0*%
X204600000Y-122950000D02*
X199707000Y-122950000D01*
X204800000Y-119075000D02*
X204800000Y-122750000D01*
X204800000Y-122750000D02*
X204600000Y-122950000D01*
X204175000Y-118450000D02*
X204800000Y-119075000D01*
X199707000Y-118450000D02*
X204175000Y-118450000D01*
%TO.N,col0*%
X204800000Y-117950000D02*
X199707000Y-117950000D01*
X205300000Y-118450000D02*
X204800000Y-117950000D01*
X205300000Y-123150000D02*
X205300000Y-118450000D01*
X205000000Y-123450000D02*
X205300000Y-123150000D01*
X199707000Y-123450000D02*
X205000000Y-123450000D01*
%TO.N,Net-(D3-K)*%
X184325000Y-121573474D02*
X184195806Y-121702668D01*
X184325000Y-118825000D02*
X184325000Y-121573474D01*
X184628806Y-118521194D02*
X184325000Y-118825000D01*
X192383491Y-118521194D02*
X184628806Y-118521194D01*
%TO.N,Net-(D2-K)*%
X184350000Y-98600000D02*
X184200000Y-98750000D01*
X184350000Y-95150000D02*
X184350000Y-98600000D01*
X185076806Y-94423194D02*
X184350000Y-95150000D01*
X192383491Y-94423194D02*
X185076806Y-94423194D01*
%TO.N,Net-(D1-K)*%
X184075000Y-70775000D02*
X184075000Y-78762807D01*
X184624806Y-70225194D02*
X184075000Y-70775000D01*
X184075000Y-78762807D02*
X184004698Y-78833109D01*
X192383491Y-70225194D02*
X184624806Y-70225194D01*
%TO.N,row_0*%
X198258685Y-71450000D02*
X197383491Y-72325194D01*
X199932000Y-71450000D02*
X198258685Y-71450000D01*
%TO.N,col0*%
X198885491Y-108612194D02*
X186439491Y-108612194D01*
X199139491Y-112422194D02*
X200409491Y-111152194D01*
X184661491Y-105786194D02*
X187455491Y-102992194D01*
X186947491Y-112422194D02*
X199139491Y-112422194D01*
X200409491Y-110136194D02*
X198885491Y-108612194D01*
X185677491Y-107850194D02*
X185677491Y-106802194D01*
X186439491Y-108612194D02*
X185677491Y-107850194D01*
X200409491Y-111152194D02*
X200409491Y-110136194D01*
X187455491Y-102992194D02*
X194281491Y-102992194D01*
X185677491Y-106802194D02*
X184661491Y-105786194D01*
%TO.N,row_0*%
X188471491Y-73814194D02*
X187709491Y-73814194D01*
%TD*%
M02*
