%TF.GenerationSoftware,KiCad,Pcbnew,7.0.2*%
%TF.CreationDate,2024-09-11T13:34:27+02:00*%
%TF.ProjectId,column,636f6c75-6d6e-42e6-9b69-6361645f7063,rev?*%
%TF.SameCoordinates,Original*%
%TF.FileFunction,Paste,Bot*%
%TF.FilePolarity,Positive*%
%FSLAX46Y46*%
G04 Gerber Fmt 4.6, Leading zero omitted, Abs format (unit mm)*
G04 Created by KiCad (PCBNEW 7.0.2) date 2024-09-11 13:34:27*
%MOMM*%
%LPD*%
G01*
G04 APERTURE LIST*
G04 Aperture macros list*
%AMRoundRect*
0 Rectangle with rounded corners*
0 $1 Rounding radius*
0 $2 $3 $4 $5 $6 $7 $8 $9 X,Y pos of 4 corners*
0 Add a 4 corners polygon primitive as box body*
4,1,4,$2,$3,$4,$5,$6,$7,$8,$9,$2,$3,0*
0 Add four circle primitives for the rounded corners*
1,1,$1+$1,$2,$3*
1,1,$1+$1,$4,$5*
1,1,$1+$1,$6,$7*
1,1,$1+$1,$8,$9*
0 Add four rect primitives between the rounded corners*
20,1,$1+$1,$2,$3,$4,$5,0*
20,1,$1+$1,$4,$5,$6,$7,0*
20,1,$1+$1,$6,$7,$8,$9,0*
20,1,$1+$1,$8,$9,$2,$3,0*%
G04 Aperture macros list end*
%ADD10R,1.250000X0.280000*%
%ADD11R,2.000000X1.800000*%
%ADD12RoundRect,0.225000X-0.375000X0.225000X-0.375000X-0.225000X0.375000X-0.225000X0.375000X0.225000X0*%
G04 APERTURE END LIST*
D10*
%TO.C,J6*%
X199707000Y-117950000D03*
X199707000Y-118450000D03*
X199707000Y-118950000D03*
X199707000Y-119450000D03*
X199707000Y-119950000D03*
X199707000Y-120450000D03*
X199707000Y-120950000D03*
X199707000Y-121450000D03*
X199707000Y-121950000D03*
X199707000Y-122450000D03*
X199707000Y-122950000D03*
X199707000Y-123450000D03*
D11*
X202431000Y-125250000D03*
X202431000Y-116150000D03*
%TD*%
D10*
%TO.C,J4*%
X199707000Y-93775000D03*
X199707000Y-94275000D03*
X199707000Y-94775000D03*
X199707000Y-95275000D03*
X199707000Y-95775000D03*
X199707000Y-96275000D03*
X199707000Y-96775000D03*
X199707000Y-97275000D03*
X199707000Y-97775000D03*
X199707000Y-98275000D03*
X199707000Y-98775000D03*
X199707000Y-99275000D03*
D11*
X202431000Y-101075000D03*
X202431000Y-91975000D03*
%TD*%
%TO.C,J1*%
X202656000Y-69150000D03*
X202656000Y-78250000D03*
D10*
X199932000Y-76450000D03*
X199932000Y-75950000D03*
X199932000Y-75450000D03*
X199932000Y-74950000D03*
X199932000Y-74450000D03*
X199932000Y-73950000D03*
X199932000Y-73450000D03*
X199932000Y-72950000D03*
X199932000Y-72450000D03*
X199932000Y-71950000D03*
X199932000Y-71450000D03*
X199932000Y-70950000D03*
%TD*%
D12*
%TO.C,D3*%
X184195806Y-121702668D03*
X184195806Y-125002668D03*
%TD*%
%TO.C,D2*%
X184200000Y-98750000D03*
X184200000Y-102050000D03*
%TD*%
%TO.C,D1*%
X184004698Y-78833109D03*
X184004698Y-82133109D03*
%TD*%
M02*
