%TF.GenerationSoftware,KiCad,Pcbnew,7.0.2*%
%TF.CreationDate,2024-09-11T13:34:27+02:00*%
%TF.ProjectId,column,636f6c75-6d6e-42e6-9b69-6361645f7063,rev?*%
%TF.SameCoordinates,Original*%
%TF.FileFunction,Other,Comment*%
%FSLAX46Y46*%
G04 Gerber Fmt 4.6, Leading zero omitted, Abs format (unit mm)*
G04 Created by KiCad (PCBNEW 7.0.2) date 2024-09-11 13:34:27*
%MOMM*%
%LPD*%
G01*
G04 APERTURE LIST*
%ADD10C,0.150000*%
G04 APERTURE END LIST*
D10*
%TO.C,J6*%
X201436380Y-123247619D02*
X201484000Y-123295238D01*
X201484000Y-123295238D02*
X201531619Y-123438095D01*
X201531619Y-123438095D02*
X201531619Y-123533333D01*
X201531619Y-123533333D02*
X201484000Y-123676190D01*
X201484000Y-123676190D02*
X201388761Y-123771428D01*
X201388761Y-123771428D02*
X201293523Y-123819047D01*
X201293523Y-123819047D02*
X201103047Y-123866666D01*
X201103047Y-123866666D02*
X200960190Y-123866666D01*
X200960190Y-123866666D02*
X200769714Y-123819047D01*
X200769714Y-123819047D02*
X200674476Y-123771428D01*
X200674476Y-123771428D02*
X200579238Y-123676190D01*
X200579238Y-123676190D02*
X200531619Y-123533333D01*
X200531619Y-123533333D02*
X200531619Y-123438095D01*
X200531619Y-123438095D02*
X200579238Y-123295238D01*
X200579238Y-123295238D02*
X200626857Y-123247619D01*
X200864952Y-122390476D02*
X201531619Y-122390476D01*
X200484000Y-122628571D02*
X201198285Y-122866666D01*
X201198285Y-122866666D02*
X201198285Y-122247619D01*
X200531619Y-121961904D02*
X200531619Y-121295238D01*
X200531619Y-121295238D02*
X201531619Y-121723809D01*
X201531619Y-120866666D02*
X201531619Y-120676190D01*
X201531619Y-120676190D02*
X201484000Y-120580952D01*
X201484000Y-120580952D02*
X201436380Y-120533333D01*
X201436380Y-120533333D02*
X201293523Y-120438095D01*
X201293523Y-120438095D02*
X201103047Y-120390476D01*
X201103047Y-120390476D02*
X200722095Y-120390476D01*
X200722095Y-120390476D02*
X200626857Y-120438095D01*
X200626857Y-120438095D02*
X200579238Y-120485714D01*
X200579238Y-120485714D02*
X200531619Y-120580952D01*
X200531619Y-120580952D02*
X200531619Y-120771428D01*
X200531619Y-120771428D02*
X200579238Y-120866666D01*
X200579238Y-120866666D02*
X200626857Y-120914285D01*
X200626857Y-120914285D02*
X200722095Y-120961904D01*
X200722095Y-120961904D02*
X200960190Y-120961904D01*
X200960190Y-120961904D02*
X201055428Y-120914285D01*
X201055428Y-120914285D02*
X201103047Y-120866666D01*
X201103047Y-120866666D02*
X201150666Y-120771428D01*
X201150666Y-120771428D02*
X201150666Y-120580952D01*
X201150666Y-120580952D02*
X201103047Y-120485714D01*
X201103047Y-120485714D02*
X201055428Y-120438095D01*
X201055428Y-120438095D02*
X200960190Y-120390476D01*
X200531619Y-120057142D02*
X200531619Y-119390476D01*
X200531619Y-119390476D02*
X201531619Y-119819047D01*
X200531619Y-118533333D02*
X200531619Y-119009523D01*
X200531619Y-119009523D02*
X201007809Y-119057142D01*
X201007809Y-119057142D02*
X200960190Y-119009523D01*
X200960190Y-119009523D02*
X200912571Y-118914285D01*
X200912571Y-118914285D02*
X200912571Y-118676190D01*
X200912571Y-118676190D02*
X200960190Y-118580952D01*
X200960190Y-118580952D02*
X201007809Y-118533333D01*
X201007809Y-118533333D02*
X201103047Y-118485714D01*
X201103047Y-118485714D02*
X201341142Y-118485714D01*
X201341142Y-118485714D02*
X201436380Y-118533333D01*
X201436380Y-118533333D02*
X201484000Y-118580952D01*
X201484000Y-118580952D02*
X201531619Y-118676190D01*
X201531619Y-118676190D02*
X201531619Y-118914285D01*
X201531619Y-118914285D02*
X201484000Y-119009523D01*
X201484000Y-119009523D02*
X201436380Y-119057142D01*
X200531619Y-117866666D02*
X200531619Y-117771428D01*
X200531619Y-117771428D02*
X200579238Y-117676190D01*
X200579238Y-117676190D02*
X200626857Y-117628571D01*
X200626857Y-117628571D02*
X200722095Y-117580952D01*
X200722095Y-117580952D02*
X200912571Y-117533333D01*
X200912571Y-117533333D02*
X201150666Y-117533333D01*
X201150666Y-117533333D02*
X201341142Y-117580952D01*
X201341142Y-117580952D02*
X201436380Y-117628571D01*
X201436380Y-117628571D02*
X201484000Y-117676190D01*
X201484000Y-117676190D02*
X201531619Y-117771428D01*
X201531619Y-117771428D02*
X201531619Y-117866666D01*
X201531619Y-117866666D02*
X201484000Y-117961904D01*
X201484000Y-117961904D02*
X201436380Y-118009523D01*
X201436380Y-118009523D02*
X201341142Y-118057142D01*
X201341142Y-118057142D02*
X201150666Y-118104761D01*
X201150666Y-118104761D02*
X200912571Y-118104761D01*
X200912571Y-118104761D02*
X200722095Y-118057142D01*
X200722095Y-118057142D02*
X200626857Y-118009523D01*
X200626857Y-118009523D02*
X200579238Y-117961904D01*
X200579238Y-117961904D02*
X200531619Y-117866666D01*
X201440380Y-123247619D02*
X201488000Y-123295238D01*
X201488000Y-123295238D02*
X201535619Y-123438095D01*
X201535619Y-123438095D02*
X201535619Y-123533333D01*
X201535619Y-123533333D02*
X201488000Y-123676190D01*
X201488000Y-123676190D02*
X201392761Y-123771428D01*
X201392761Y-123771428D02*
X201297523Y-123819047D01*
X201297523Y-123819047D02*
X201107047Y-123866666D01*
X201107047Y-123866666D02*
X200964190Y-123866666D01*
X200964190Y-123866666D02*
X200773714Y-123819047D01*
X200773714Y-123819047D02*
X200678476Y-123771428D01*
X200678476Y-123771428D02*
X200583238Y-123676190D01*
X200583238Y-123676190D02*
X200535619Y-123533333D01*
X200535619Y-123533333D02*
X200535619Y-123438095D01*
X200535619Y-123438095D02*
X200583238Y-123295238D01*
X200583238Y-123295238D02*
X200630857Y-123247619D01*
X200868952Y-122390476D02*
X201535619Y-122390476D01*
X200488000Y-122628571D02*
X201202285Y-122866666D01*
X201202285Y-122866666D02*
X201202285Y-122247619D01*
X200535619Y-121961904D02*
X200535619Y-121295238D01*
X200535619Y-121295238D02*
X201535619Y-121723809D01*
X201535619Y-120866666D02*
X201535619Y-120676190D01*
X201535619Y-120676190D02*
X201488000Y-120580952D01*
X201488000Y-120580952D02*
X201440380Y-120533333D01*
X201440380Y-120533333D02*
X201297523Y-120438095D01*
X201297523Y-120438095D02*
X201107047Y-120390476D01*
X201107047Y-120390476D02*
X200726095Y-120390476D01*
X200726095Y-120390476D02*
X200630857Y-120438095D01*
X200630857Y-120438095D02*
X200583238Y-120485714D01*
X200583238Y-120485714D02*
X200535619Y-120580952D01*
X200535619Y-120580952D02*
X200535619Y-120771428D01*
X200535619Y-120771428D02*
X200583238Y-120866666D01*
X200583238Y-120866666D02*
X200630857Y-120914285D01*
X200630857Y-120914285D02*
X200726095Y-120961904D01*
X200726095Y-120961904D02*
X200964190Y-120961904D01*
X200964190Y-120961904D02*
X201059428Y-120914285D01*
X201059428Y-120914285D02*
X201107047Y-120866666D01*
X201107047Y-120866666D02*
X201154666Y-120771428D01*
X201154666Y-120771428D02*
X201154666Y-120580952D01*
X201154666Y-120580952D02*
X201107047Y-120485714D01*
X201107047Y-120485714D02*
X201059428Y-120438095D01*
X201059428Y-120438095D02*
X200964190Y-120390476D01*
X200535619Y-120057142D02*
X200535619Y-119390476D01*
X200535619Y-119390476D02*
X201535619Y-119819047D01*
X200535619Y-118533333D02*
X200535619Y-119009523D01*
X200535619Y-119009523D02*
X201011809Y-119057142D01*
X201011809Y-119057142D02*
X200964190Y-119009523D01*
X200964190Y-119009523D02*
X200916571Y-118914285D01*
X200916571Y-118914285D02*
X200916571Y-118676190D01*
X200916571Y-118676190D02*
X200964190Y-118580952D01*
X200964190Y-118580952D02*
X201011809Y-118533333D01*
X201011809Y-118533333D02*
X201107047Y-118485714D01*
X201107047Y-118485714D02*
X201345142Y-118485714D01*
X201345142Y-118485714D02*
X201440380Y-118533333D01*
X201440380Y-118533333D02*
X201488000Y-118580952D01*
X201488000Y-118580952D02*
X201535619Y-118676190D01*
X201535619Y-118676190D02*
X201535619Y-118914285D01*
X201535619Y-118914285D02*
X201488000Y-119009523D01*
X201488000Y-119009523D02*
X201440380Y-119057142D01*
X200535619Y-117866666D02*
X200535619Y-117771428D01*
X200535619Y-117771428D02*
X200583238Y-117676190D01*
X200583238Y-117676190D02*
X200630857Y-117628571D01*
X200630857Y-117628571D02*
X200726095Y-117580952D01*
X200726095Y-117580952D02*
X200916571Y-117533333D01*
X200916571Y-117533333D02*
X201154666Y-117533333D01*
X201154666Y-117533333D02*
X201345142Y-117580952D01*
X201345142Y-117580952D02*
X201440380Y-117628571D01*
X201440380Y-117628571D02*
X201488000Y-117676190D01*
X201488000Y-117676190D02*
X201535619Y-117771428D01*
X201535619Y-117771428D02*
X201535619Y-117866666D01*
X201535619Y-117866666D02*
X201488000Y-117961904D01*
X201488000Y-117961904D02*
X201440380Y-118009523D01*
X201440380Y-118009523D02*
X201345142Y-118057142D01*
X201345142Y-118057142D02*
X201154666Y-118104761D01*
X201154666Y-118104761D02*
X200916571Y-118104761D01*
X200916571Y-118104761D02*
X200726095Y-118057142D01*
X200726095Y-118057142D02*
X200630857Y-118009523D01*
X200630857Y-118009523D02*
X200583238Y-117961904D01*
X200583238Y-117961904D02*
X200535619Y-117866666D01*
%TO.C,J4*%
X201436380Y-99072619D02*
X201484000Y-99120238D01*
X201484000Y-99120238D02*
X201531619Y-99263095D01*
X201531619Y-99263095D02*
X201531619Y-99358333D01*
X201531619Y-99358333D02*
X201484000Y-99501190D01*
X201484000Y-99501190D02*
X201388761Y-99596428D01*
X201388761Y-99596428D02*
X201293523Y-99644047D01*
X201293523Y-99644047D02*
X201103047Y-99691666D01*
X201103047Y-99691666D02*
X200960190Y-99691666D01*
X200960190Y-99691666D02*
X200769714Y-99644047D01*
X200769714Y-99644047D02*
X200674476Y-99596428D01*
X200674476Y-99596428D02*
X200579238Y-99501190D01*
X200579238Y-99501190D02*
X200531619Y-99358333D01*
X200531619Y-99358333D02*
X200531619Y-99263095D01*
X200531619Y-99263095D02*
X200579238Y-99120238D01*
X200579238Y-99120238D02*
X200626857Y-99072619D01*
X200864952Y-98215476D02*
X201531619Y-98215476D01*
X200484000Y-98453571D02*
X201198285Y-98691666D01*
X201198285Y-98691666D02*
X201198285Y-98072619D01*
X200531619Y-97786904D02*
X200531619Y-97120238D01*
X200531619Y-97120238D02*
X201531619Y-97548809D01*
X201531619Y-96691666D02*
X201531619Y-96501190D01*
X201531619Y-96501190D02*
X201484000Y-96405952D01*
X201484000Y-96405952D02*
X201436380Y-96358333D01*
X201436380Y-96358333D02*
X201293523Y-96263095D01*
X201293523Y-96263095D02*
X201103047Y-96215476D01*
X201103047Y-96215476D02*
X200722095Y-96215476D01*
X200722095Y-96215476D02*
X200626857Y-96263095D01*
X200626857Y-96263095D02*
X200579238Y-96310714D01*
X200579238Y-96310714D02*
X200531619Y-96405952D01*
X200531619Y-96405952D02*
X200531619Y-96596428D01*
X200531619Y-96596428D02*
X200579238Y-96691666D01*
X200579238Y-96691666D02*
X200626857Y-96739285D01*
X200626857Y-96739285D02*
X200722095Y-96786904D01*
X200722095Y-96786904D02*
X200960190Y-96786904D01*
X200960190Y-96786904D02*
X201055428Y-96739285D01*
X201055428Y-96739285D02*
X201103047Y-96691666D01*
X201103047Y-96691666D02*
X201150666Y-96596428D01*
X201150666Y-96596428D02*
X201150666Y-96405952D01*
X201150666Y-96405952D02*
X201103047Y-96310714D01*
X201103047Y-96310714D02*
X201055428Y-96263095D01*
X201055428Y-96263095D02*
X200960190Y-96215476D01*
X200531619Y-95882142D02*
X200531619Y-95215476D01*
X200531619Y-95215476D02*
X201531619Y-95644047D01*
X200531619Y-94358333D02*
X200531619Y-94834523D01*
X200531619Y-94834523D02*
X201007809Y-94882142D01*
X201007809Y-94882142D02*
X200960190Y-94834523D01*
X200960190Y-94834523D02*
X200912571Y-94739285D01*
X200912571Y-94739285D02*
X200912571Y-94501190D01*
X200912571Y-94501190D02*
X200960190Y-94405952D01*
X200960190Y-94405952D02*
X201007809Y-94358333D01*
X201007809Y-94358333D02*
X201103047Y-94310714D01*
X201103047Y-94310714D02*
X201341142Y-94310714D01*
X201341142Y-94310714D02*
X201436380Y-94358333D01*
X201436380Y-94358333D02*
X201484000Y-94405952D01*
X201484000Y-94405952D02*
X201531619Y-94501190D01*
X201531619Y-94501190D02*
X201531619Y-94739285D01*
X201531619Y-94739285D02*
X201484000Y-94834523D01*
X201484000Y-94834523D02*
X201436380Y-94882142D01*
X200531619Y-93691666D02*
X200531619Y-93596428D01*
X200531619Y-93596428D02*
X200579238Y-93501190D01*
X200579238Y-93501190D02*
X200626857Y-93453571D01*
X200626857Y-93453571D02*
X200722095Y-93405952D01*
X200722095Y-93405952D02*
X200912571Y-93358333D01*
X200912571Y-93358333D02*
X201150666Y-93358333D01*
X201150666Y-93358333D02*
X201341142Y-93405952D01*
X201341142Y-93405952D02*
X201436380Y-93453571D01*
X201436380Y-93453571D02*
X201484000Y-93501190D01*
X201484000Y-93501190D02*
X201531619Y-93596428D01*
X201531619Y-93596428D02*
X201531619Y-93691666D01*
X201531619Y-93691666D02*
X201484000Y-93786904D01*
X201484000Y-93786904D02*
X201436380Y-93834523D01*
X201436380Y-93834523D02*
X201341142Y-93882142D01*
X201341142Y-93882142D02*
X201150666Y-93929761D01*
X201150666Y-93929761D02*
X200912571Y-93929761D01*
X200912571Y-93929761D02*
X200722095Y-93882142D01*
X200722095Y-93882142D02*
X200626857Y-93834523D01*
X200626857Y-93834523D02*
X200579238Y-93786904D01*
X200579238Y-93786904D02*
X200531619Y-93691666D01*
X201440380Y-99072619D02*
X201488000Y-99120238D01*
X201488000Y-99120238D02*
X201535619Y-99263095D01*
X201535619Y-99263095D02*
X201535619Y-99358333D01*
X201535619Y-99358333D02*
X201488000Y-99501190D01*
X201488000Y-99501190D02*
X201392761Y-99596428D01*
X201392761Y-99596428D02*
X201297523Y-99644047D01*
X201297523Y-99644047D02*
X201107047Y-99691666D01*
X201107047Y-99691666D02*
X200964190Y-99691666D01*
X200964190Y-99691666D02*
X200773714Y-99644047D01*
X200773714Y-99644047D02*
X200678476Y-99596428D01*
X200678476Y-99596428D02*
X200583238Y-99501190D01*
X200583238Y-99501190D02*
X200535619Y-99358333D01*
X200535619Y-99358333D02*
X200535619Y-99263095D01*
X200535619Y-99263095D02*
X200583238Y-99120238D01*
X200583238Y-99120238D02*
X200630857Y-99072619D01*
X200868952Y-98215476D02*
X201535619Y-98215476D01*
X200488000Y-98453571D02*
X201202285Y-98691666D01*
X201202285Y-98691666D02*
X201202285Y-98072619D01*
X200535619Y-97786904D02*
X200535619Y-97120238D01*
X200535619Y-97120238D02*
X201535619Y-97548809D01*
X201535619Y-96691666D02*
X201535619Y-96501190D01*
X201535619Y-96501190D02*
X201488000Y-96405952D01*
X201488000Y-96405952D02*
X201440380Y-96358333D01*
X201440380Y-96358333D02*
X201297523Y-96263095D01*
X201297523Y-96263095D02*
X201107047Y-96215476D01*
X201107047Y-96215476D02*
X200726095Y-96215476D01*
X200726095Y-96215476D02*
X200630857Y-96263095D01*
X200630857Y-96263095D02*
X200583238Y-96310714D01*
X200583238Y-96310714D02*
X200535619Y-96405952D01*
X200535619Y-96405952D02*
X200535619Y-96596428D01*
X200535619Y-96596428D02*
X200583238Y-96691666D01*
X200583238Y-96691666D02*
X200630857Y-96739285D01*
X200630857Y-96739285D02*
X200726095Y-96786904D01*
X200726095Y-96786904D02*
X200964190Y-96786904D01*
X200964190Y-96786904D02*
X201059428Y-96739285D01*
X201059428Y-96739285D02*
X201107047Y-96691666D01*
X201107047Y-96691666D02*
X201154666Y-96596428D01*
X201154666Y-96596428D02*
X201154666Y-96405952D01*
X201154666Y-96405952D02*
X201107047Y-96310714D01*
X201107047Y-96310714D02*
X201059428Y-96263095D01*
X201059428Y-96263095D02*
X200964190Y-96215476D01*
X200535619Y-95882142D02*
X200535619Y-95215476D01*
X200535619Y-95215476D02*
X201535619Y-95644047D01*
X200535619Y-94358333D02*
X200535619Y-94834523D01*
X200535619Y-94834523D02*
X201011809Y-94882142D01*
X201011809Y-94882142D02*
X200964190Y-94834523D01*
X200964190Y-94834523D02*
X200916571Y-94739285D01*
X200916571Y-94739285D02*
X200916571Y-94501190D01*
X200916571Y-94501190D02*
X200964190Y-94405952D01*
X200964190Y-94405952D02*
X201011809Y-94358333D01*
X201011809Y-94358333D02*
X201107047Y-94310714D01*
X201107047Y-94310714D02*
X201345142Y-94310714D01*
X201345142Y-94310714D02*
X201440380Y-94358333D01*
X201440380Y-94358333D02*
X201488000Y-94405952D01*
X201488000Y-94405952D02*
X201535619Y-94501190D01*
X201535619Y-94501190D02*
X201535619Y-94739285D01*
X201535619Y-94739285D02*
X201488000Y-94834523D01*
X201488000Y-94834523D02*
X201440380Y-94882142D01*
X200535619Y-93691666D02*
X200535619Y-93596428D01*
X200535619Y-93596428D02*
X200583238Y-93501190D01*
X200583238Y-93501190D02*
X200630857Y-93453571D01*
X200630857Y-93453571D02*
X200726095Y-93405952D01*
X200726095Y-93405952D02*
X200916571Y-93358333D01*
X200916571Y-93358333D02*
X201154666Y-93358333D01*
X201154666Y-93358333D02*
X201345142Y-93405952D01*
X201345142Y-93405952D02*
X201440380Y-93453571D01*
X201440380Y-93453571D02*
X201488000Y-93501190D01*
X201488000Y-93501190D02*
X201535619Y-93596428D01*
X201535619Y-93596428D02*
X201535619Y-93691666D01*
X201535619Y-93691666D02*
X201488000Y-93786904D01*
X201488000Y-93786904D02*
X201440380Y-93834523D01*
X201440380Y-93834523D02*
X201345142Y-93882142D01*
X201345142Y-93882142D02*
X201154666Y-93929761D01*
X201154666Y-93929761D02*
X200916571Y-93929761D01*
X200916571Y-93929761D02*
X200726095Y-93882142D01*
X200726095Y-93882142D02*
X200630857Y-93834523D01*
X200630857Y-93834523D02*
X200583238Y-93786904D01*
X200583238Y-93786904D02*
X200535619Y-93691666D01*
%TO.C,J1*%
X201665380Y-76247619D02*
X201713000Y-76295238D01*
X201713000Y-76295238D02*
X201760619Y-76438095D01*
X201760619Y-76438095D02*
X201760619Y-76533333D01*
X201760619Y-76533333D02*
X201713000Y-76676190D01*
X201713000Y-76676190D02*
X201617761Y-76771428D01*
X201617761Y-76771428D02*
X201522523Y-76819047D01*
X201522523Y-76819047D02*
X201332047Y-76866666D01*
X201332047Y-76866666D02*
X201189190Y-76866666D01*
X201189190Y-76866666D02*
X200998714Y-76819047D01*
X200998714Y-76819047D02*
X200903476Y-76771428D01*
X200903476Y-76771428D02*
X200808238Y-76676190D01*
X200808238Y-76676190D02*
X200760619Y-76533333D01*
X200760619Y-76533333D02*
X200760619Y-76438095D01*
X200760619Y-76438095D02*
X200808238Y-76295238D01*
X200808238Y-76295238D02*
X200855857Y-76247619D01*
X201093952Y-75390476D02*
X201760619Y-75390476D01*
X200713000Y-75628571D02*
X201427285Y-75866666D01*
X201427285Y-75866666D02*
X201427285Y-75247619D01*
X200760619Y-74961904D02*
X200760619Y-74295238D01*
X200760619Y-74295238D02*
X201760619Y-74723809D01*
X201760619Y-73866666D02*
X201760619Y-73676190D01*
X201760619Y-73676190D02*
X201713000Y-73580952D01*
X201713000Y-73580952D02*
X201665380Y-73533333D01*
X201665380Y-73533333D02*
X201522523Y-73438095D01*
X201522523Y-73438095D02*
X201332047Y-73390476D01*
X201332047Y-73390476D02*
X200951095Y-73390476D01*
X200951095Y-73390476D02*
X200855857Y-73438095D01*
X200855857Y-73438095D02*
X200808238Y-73485714D01*
X200808238Y-73485714D02*
X200760619Y-73580952D01*
X200760619Y-73580952D02*
X200760619Y-73771428D01*
X200760619Y-73771428D02*
X200808238Y-73866666D01*
X200808238Y-73866666D02*
X200855857Y-73914285D01*
X200855857Y-73914285D02*
X200951095Y-73961904D01*
X200951095Y-73961904D02*
X201189190Y-73961904D01*
X201189190Y-73961904D02*
X201284428Y-73914285D01*
X201284428Y-73914285D02*
X201332047Y-73866666D01*
X201332047Y-73866666D02*
X201379666Y-73771428D01*
X201379666Y-73771428D02*
X201379666Y-73580952D01*
X201379666Y-73580952D02*
X201332047Y-73485714D01*
X201332047Y-73485714D02*
X201284428Y-73438095D01*
X201284428Y-73438095D02*
X201189190Y-73390476D01*
X200760619Y-73057142D02*
X200760619Y-72390476D01*
X200760619Y-72390476D02*
X201760619Y-72819047D01*
X200760619Y-71533333D02*
X200760619Y-72009523D01*
X200760619Y-72009523D02*
X201236809Y-72057142D01*
X201236809Y-72057142D02*
X201189190Y-72009523D01*
X201189190Y-72009523D02*
X201141571Y-71914285D01*
X201141571Y-71914285D02*
X201141571Y-71676190D01*
X201141571Y-71676190D02*
X201189190Y-71580952D01*
X201189190Y-71580952D02*
X201236809Y-71533333D01*
X201236809Y-71533333D02*
X201332047Y-71485714D01*
X201332047Y-71485714D02*
X201570142Y-71485714D01*
X201570142Y-71485714D02*
X201665380Y-71533333D01*
X201665380Y-71533333D02*
X201713000Y-71580952D01*
X201713000Y-71580952D02*
X201760619Y-71676190D01*
X201760619Y-71676190D02*
X201760619Y-71914285D01*
X201760619Y-71914285D02*
X201713000Y-72009523D01*
X201713000Y-72009523D02*
X201665380Y-72057142D01*
X200760619Y-70866666D02*
X200760619Y-70771428D01*
X200760619Y-70771428D02*
X200808238Y-70676190D01*
X200808238Y-70676190D02*
X200855857Y-70628571D01*
X200855857Y-70628571D02*
X200951095Y-70580952D01*
X200951095Y-70580952D02*
X201141571Y-70533333D01*
X201141571Y-70533333D02*
X201379666Y-70533333D01*
X201379666Y-70533333D02*
X201570142Y-70580952D01*
X201570142Y-70580952D02*
X201665380Y-70628571D01*
X201665380Y-70628571D02*
X201713000Y-70676190D01*
X201713000Y-70676190D02*
X201760619Y-70771428D01*
X201760619Y-70771428D02*
X201760619Y-70866666D01*
X201760619Y-70866666D02*
X201713000Y-70961904D01*
X201713000Y-70961904D02*
X201665380Y-71009523D01*
X201665380Y-71009523D02*
X201570142Y-71057142D01*
X201570142Y-71057142D02*
X201379666Y-71104761D01*
X201379666Y-71104761D02*
X201141571Y-71104761D01*
X201141571Y-71104761D02*
X200951095Y-71057142D01*
X200951095Y-71057142D02*
X200855857Y-71009523D01*
X200855857Y-71009523D02*
X200808238Y-70961904D01*
X200808238Y-70961904D02*
X200760619Y-70866666D01*
X201661380Y-76247619D02*
X201709000Y-76295238D01*
X201709000Y-76295238D02*
X201756619Y-76438095D01*
X201756619Y-76438095D02*
X201756619Y-76533333D01*
X201756619Y-76533333D02*
X201709000Y-76676190D01*
X201709000Y-76676190D02*
X201613761Y-76771428D01*
X201613761Y-76771428D02*
X201518523Y-76819047D01*
X201518523Y-76819047D02*
X201328047Y-76866666D01*
X201328047Y-76866666D02*
X201185190Y-76866666D01*
X201185190Y-76866666D02*
X200994714Y-76819047D01*
X200994714Y-76819047D02*
X200899476Y-76771428D01*
X200899476Y-76771428D02*
X200804238Y-76676190D01*
X200804238Y-76676190D02*
X200756619Y-76533333D01*
X200756619Y-76533333D02*
X200756619Y-76438095D01*
X200756619Y-76438095D02*
X200804238Y-76295238D01*
X200804238Y-76295238D02*
X200851857Y-76247619D01*
X201089952Y-75390476D02*
X201756619Y-75390476D01*
X200709000Y-75628571D02*
X201423285Y-75866666D01*
X201423285Y-75866666D02*
X201423285Y-75247619D01*
X200756619Y-74961904D02*
X200756619Y-74295238D01*
X200756619Y-74295238D02*
X201756619Y-74723809D01*
X201756619Y-73866666D02*
X201756619Y-73676190D01*
X201756619Y-73676190D02*
X201709000Y-73580952D01*
X201709000Y-73580952D02*
X201661380Y-73533333D01*
X201661380Y-73533333D02*
X201518523Y-73438095D01*
X201518523Y-73438095D02*
X201328047Y-73390476D01*
X201328047Y-73390476D02*
X200947095Y-73390476D01*
X200947095Y-73390476D02*
X200851857Y-73438095D01*
X200851857Y-73438095D02*
X200804238Y-73485714D01*
X200804238Y-73485714D02*
X200756619Y-73580952D01*
X200756619Y-73580952D02*
X200756619Y-73771428D01*
X200756619Y-73771428D02*
X200804238Y-73866666D01*
X200804238Y-73866666D02*
X200851857Y-73914285D01*
X200851857Y-73914285D02*
X200947095Y-73961904D01*
X200947095Y-73961904D02*
X201185190Y-73961904D01*
X201185190Y-73961904D02*
X201280428Y-73914285D01*
X201280428Y-73914285D02*
X201328047Y-73866666D01*
X201328047Y-73866666D02*
X201375666Y-73771428D01*
X201375666Y-73771428D02*
X201375666Y-73580952D01*
X201375666Y-73580952D02*
X201328047Y-73485714D01*
X201328047Y-73485714D02*
X201280428Y-73438095D01*
X201280428Y-73438095D02*
X201185190Y-73390476D01*
X200756619Y-73057142D02*
X200756619Y-72390476D01*
X200756619Y-72390476D02*
X201756619Y-72819047D01*
X200756619Y-71533333D02*
X200756619Y-72009523D01*
X200756619Y-72009523D02*
X201232809Y-72057142D01*
X201232809Y-72057142D02*
X201185190Y-72009523D01*
X201185190Y-72009523D02*
X201137571Y-71914285D01*
X201137571Y-71914285D02*
X201137571Y-71676190D01*
X201137571Y-71676190D02*
X201185190Y-71580952D01*
X201185190Y-71580952D02*
X201232809Y-71533333D01*
X201232809Y-71533333D02*
X201328047Y-71485714D01*
X201328047Y-71485714D02*
X201566142Y-71485714D01*
X201566142Y-71485714D02*
X201661380Y-71533333D01*
X201661380Y-71533333D02*
X201709000Y-71580952D01*
X201709000Y-71580952D02*
X201756619Y-71676190D01*
X201756619Y-71676190D02*
X201756619Y-71914285D01*
X201756619Y-71914285D02*
X201709000Y-72009523D01*
X201709000Y-72009523D02*
X201661380Y-72057142D01*
X200756619Y-70866666D02*
X200756619Y-70771428D01*
X200756619Y-70771428D02*
X200804238Y-70676190D01*
X200804238Y-70676190D02*
X200851857Y-70628571D01*
X200851857Y-70628571D02*
X200947095Y-70580952D01*
X200947095Y-70580952D02*
X201137571Y-70533333D01*
X201137571Y-70533333D02*
X201375666Y-70533333D01*
X201375666Y-70533333D02*
X201566142Y-70580952D01*
X201566142Y-70580952D02*
X201661380Y-70628571D01*
X201661380Y-70628571D02*
X201709000Y-70676190D01*
X201709000Y-70676190D02*
X201756619Y-70771428D01*
X201756619Y-70771428D02*
X201756619Y-70866666D01*
X201756619Y-70866666D02*
X201709000Y-70961904D01*
X201709000Y-70961904D02*
X201661380Y-71009523D01*
X201661380Y-71009523D02*
X201566142Y-71057142D01*
X201566142Y-71057142D02*
X201375666Y-71104761D01*
X201375666Y-71104761D02*
X201137571Y-71104761D01*
X201137571Y-71104761D02*
X200947095Y-71057142D01*
X200947095Y-71057142D02*
X200851857Y-71009523D01*
X200851857Y-71009523D02*
X200804238Y-70961904D01*
X200804238Y-70961904D02*
X200756619Y-70866666D01*
%TD*%
M02*
