%TF.GenerationSoftware,KiCad,Pcbnew,7.0.2*%
%TF.CreationDate,2024-09-11T13:34:27+02:00*%
%TF.ProjectId,column,636f6c75-6d6e-42e6-9b69-6361645f7063,rev?*%
%TF.SameCoordinates,Original*%
%TF.FileFunction,Profile,NP*%
%FSLAX46Y46*%
G04 Gerber Fmt 4.6, Leading zero omitted, Abs format (unit mm)*
G04 Created by KiCad (PCBNEW 7.0.2) date 2024-09-11 13:34:27*
%MOMM*%
%LPD*%
G01*
G04 APERTURE LIST*
%TA.AperFunction,Profile*%
%ADD10C,0.100000*%
%TD*%
G04 APERTURE END LIST*
D10*
X203403509Y-126502806D02*
X205923820Y-126498000D01*
X202285242Y-129674819D02*
X202273820Y-127673000D01*
X203403509Y-126502807D02*
G75*
G03*
X202273821Y-127673000I35353J-1164518D01*
G01*
X206389147Y-115324453D02*
G75*
G03*
X205915446Y-114875075I-450047J-47D01*
G01*
X206389097Y-115324453D02*
X206373198Y-126024349D01*
X205923820Y-126498019D02*
G75*
G03*
X206373197Y-126024349I-20J450019D01*
G01*
X203404689Y-102454806D02*
X205925000Y-102450000D01*
X202301180Y-104902000D02*
X202275000Y-103625000D01*
X203404689Y-102454807D02*
G75*
G03*
X202275001Y-103625000I35353J-1164518D01*
G01*
X206390276Y-91276453D02*
G75*
G03*
X205916626Y-90827076I-449999J0D01*
G01*
X206390277Y-91276453D02*
X206374378Y-101976349D01*
X205925000Y-102449999D02*
G75*
G03*
X206374377Y-101976349I0J449999D01*
G01*
X206565277Y-68351453D02*
X206549378Y-79051349D01*
X206565276Y-68351453D02*
G75*
G03*
X206091626Y-67902076I-449999J0D01*
G01*
X206100000Y-79524999D02*
G75*
G03*
X206549377Y-79051349I0J449999D01*
G01*
X203520125Y-79517777D02*
X206100000Y-79525000D01*
X202435730Y-80946814D02*
X202435730Y-80522756D01*
X203520125Y-79517777D02*
G75*
G03*
X202435730Y-80522756I-25814J-1059679D01*
G01*
X182720449Y-129540003D02*
G75*
G03*
X183725382Y-130659515I1059651J-59597D01*
G01*
X197983148Y-111350517D02*
G75*
G03*
X197983180Y-109572464I535152J889017D01*
G01*
X201298491Y-81926194D02*
X187836491Y-81926194D01*
X201171491Y-106072194D02*
X187701941Y-106072194D01*
X198117730Y-85493215D02*
X183870402Y-85508272D01*
X182865488Y-84508277D02*
G75*
G03*
X183870402Y-85508271I933212J-67123D01*
G01*
X182730833Y-108587517D02*
G75*
G03*
X183735852Y-109587520I933367J-66983D01*
G01*
X201148003Y-130679798D02*
X183725382Y-130659515D01*
X183782668Y-111350467D02*
G75*
G03*
X182645429Y-112366821I-64968J-1071733D01*
G01*
X199895718Y-89303191D02*
G75*
G03*
X199895730Y-83461215I-1446818J2920991D01*
G01*
X187701964Y-106072168D02*
G75*
G03*
X187569180Y-107540462I-603964J-685532D01*
G01*
X183917218Y-87271212D02*
G75*
G03*
X182779980Y-88287573I-64918J-1071788D01*
G01*
X182865423Y-84508272D02*
X182883491Y-68988194D01*
X201298490Y-81926202D02*
G75*
G03*
X202435729Y-80946814I100810J1032902D01*
G01*
X182645429Y-112366821D02*
X182720403Y-129540000D01*
X184020730Y-67983215D02*
X206091626Y-67902075D01*
X197983180Y-111350463D02*
X183782668Y-111350463D01*
X199761209Y-113382522D02*
G75*
G03*
X199761180Y-107540464I-1446809J2921022D01*
G01*
X201148008Y-130679734D02*
G75*
G03*
X202285242Y-129674819I76092J1059834D01*
G01*
X199895730Y-89303215D02*
X187836491Y-89281173D01*
X198117744Y-87271192D02*
G75*
G03*
X198117730Y-85493216I535056J888992D01*
G01*
X187836463Y-89281205D02*
G75*
G03*
X187703730Y-90816193I-623763J-719295D01*
G01*
X201171490Y-106072158D02*
G75*
G03*
X202301179Y-104902000I-35290J1164458D01*
G01*
X187836485Y-81926200D02*
G75*
G03*
X187703730Y-83461214I-623785J-719300D01*
G01*
X187569180Y-107540463D02*
X199761180Y-107540463D01*
X187703730Y-90816194D02*
X205916626Y-90827075D01*
X187703730Y-83461215D02*
X199895730Y-83461215D01*
X182779979Y-88287573D02*
X182730873Y-108587520D01*
X184020731Y-67983208D02*
G75*
G03*
X182883491Y-68988194I-76131J-1059792D01*
G01*
X198117730Y-87271215D02*
X183917218Y-87271215D01*
X187569180Y-114895442D02*
X205915446Y-114875075D01*
X187701969Y-113360389D02*
G75*
G03*
X187569180Y-114895442I-623769J-719311D01*
G01*
X197983180Y-109572463D02*
X183735852Y-109587520D01*
X199761180Y-113382463D02*
X187701941Y-113360421D01*
M02*
