M48
; DRILL file {KiCad 7.0.2} date Wed Sep 11 13:34:27 2024
; FORMAT={-:-/ absolute / inch / decimal}
; #@! TF.CreationDate,2024-09-11T13:34:27+02:00
; #@! TF.GenerationSoftware,Kicad,Pcbnew,7.0.2
; #@! TF.FileFunction,Plated,1,2,PTH
FMAT,2
INCH
; #@! TA.AperFunction,Plated,PTH,ViaDrill
T1C0.0157
; #@! TA.AperFunction,Plated,PTH,ComponentDrill
T2C0.0394
; #@! TA.AperFunction,Plated,PTH,ComponentDrill
T3C0.0500
%
G90
G05
T1
X7.5463Y-4.1378
X7.7421Y-4.6053
X7.752Y-3.6939
X7.8071Y-4.6378
X7.9498Y-3.7933
X7.9518Y-4.7421
X7.9665Y-2.8957
X7.9705Y-2.9567
T2
X7.6399Y-5.0869
X7.6413Y-4.1139
X7.6501Y-5.0361
X7.6515Y-4.0632
X7.7299Y-5.0869
X7.7313Y-4.1139
X7.7401Y-5.0361
X7.7415Y-4.0632
X7.8199Y-5.0869
X7.8213Y-4.1139
X7.8301Y-5.0361
X7.8315Y-4.0632
X7.9099Y-5.0869
X7.9113Y-4.1139
X7.9201Y-5.0361
X7.9215Y-4.0632
T3
X7.3773Y-2.8474
X7.3773Y-3.8001
X7.3773Y-4.7489
X7.4242Y-2.8971
X7.4242Y-3.8497
X7.4242Y-4.7985
X7.4742Y-2.7971
X7.4742Y-3.7497
X7.4742Y-4.6985
X7.5742Y-2.7648
X7.5742Y-3.7174
X7.5742Y-4.6662
X7.6742Y-2.7971
X7.6742Y-3.7497
X7.6742Y-4.6985
X7.7242Y-2.8971
X7.7242Y-3.8497
X7.7242Y-4.7985
X7.771Y-2.8474
X7.771Y-3.8001
X7.771Y-4.7489
T0
M30
