%TF.GenerationSoftware,KiCad,Pcbnew,7.0.2*%
%TF.CreationDate,2024-09-11T13:34:27+02:00*%
%TF.ProjectId,column,636f6c75-6d6e-42e6-9b69-6361645f7063,rev?*%
%TF.SameCoordinates,Original*%
%TF.FileFunction,Soldermask,Top*%
%TF.FilePolarity,Negative*%
%FSLAX46Y46*%
G04 Gerber Fmt 4.6, Leading zero omitted, Abs format (unit mm)*
G04 Created by KiCad (PCBNEW 7.0.2) date 2024-09-11 13:34:27*
%MOMM*%
%LPD*%
G01*
G04 APERTURE LIST*
G04 Aperture macros list*
%AMRoundRect*
0 Rectangle with rounded corners*
0 $1 Rounding radius*
0 $2 $3 $4 $5 $6 $7 $8 $9 X,Y pos of 4 corners*
0 Add a 4 corners polygon primitive as box body*
4,1,4,$2,$3,$4,$5,$6,$7,$8,$9,$2,$3,0*
0 Add four circle primitives for the rounded corners*
1,1,$1+$1,$2,$3*
1,1,$1+$1,$4,$5*
1,1,$1+$1,$6,$7*
1,1,$1+$1,$8,$9*
0 Add four rect primitives between the rounded corners*
20,1,$1+$1,$2,$3,$4,$5,0*
20,1,$1+$1,$4,$5,$6,$7,0*
20,1,$1+$1,$6,$7,$8,$9,0*
20,1,$1+$1,$8,$9,$2,$3,0*%
%AMHorizOval*
0 Thick line with rounded ends*
0 $1 width*
0 $2 $3 position (X,Y) of the first rounded end (center of the circle)*
0 $4 $5 position (X,Y) of the second rounded end (center of the circle)*
0 Add line between two ends*
20,1,$1,$2,$3,$4,$5,0*
0 Add two circle primitives to create the rounded ends*
1,1,$1,$2,$3*
1,1,$1,$4,$5*%
G04 Aperture macros list end*
%ADD10O,2.701800X1.701800*%
%ADD11C,3.987800*%
%ADD12HorizOval,2.032000X-0.608505X0.641231X0.608505X-0.641231X0*%
%ADD13C,2.032000*%
%ADD14RoundRect,0.189673X3.620327X0.189672X-3.620327X0.189672X-3.620327X-0.189672X3.620327X-0.189672X0*%
%ADD15HorizOval,2.032000X-0.608505X-0.641231X0.608505X0.641231X0*%
%ADD16HorizOval,2.032000X-1.269427X-0.410014X1.269427X0.410014X0*%
%ADD17HorizOval,2.032000X-1.269427X0.410014X1.269427X-0.410014X0*%
%ADD18C,1.600000*%
G04 APERTURE END LIST*
D10*
%TO.C,SW3*%
X187305903Y-124417886D03*
D11*
X192383491Y-124421194D03*
D10*
X197465903Y-124421847D03*
D12*
X187968592Y-121237762D03*
D13*
X188573491Y-121881194D03*
D14*
X192378594Y-121411349D03*
D13*
X196193491Y-121881194D03*
D15*
X196798390Y-121237762D03*
D16*
X191128143Y-118926263D03*
D13*
X192383491Y-118521194D03*
D17*
X193638839Y-118926263D03*
%TD*%
D10*
%TO.C,SW2*%
X187305903Y-100319886D03*
D11*
X192383491Y-100323194D03*
D10*
X197465903Y-100323847D03*
D12*
X187968592Y-97139762D03*
D13*
X188573491Y-97783194D03*
D14*
X192378594Y-97313349D03*
D13*
X196193491Y-97783194D03*
D15*
X196798390Y-97139762D03*
D16*
X191128143Y-94828263D03*
D13*
X192383491Y-94423194D03*
D17*
X193638839Y-94828263D03*
%TD*%
D10*
%TO.C,SW1*%
X187305903Y-76121886D03*
D11*
X192383491Y-76125194D03*
D10*
X197465903Y-76125847D03*
D12*
X187968592Y-72941762D03*
D13*
X188573491Y-73585194D03*
D14*
X192378594Y-73115349D03*
D13*
X196193491Y-73585194D03*
D15*
X196798390Y-72941762D03*
D16*
X191128143Y-70630263D03*
D13*
X192383491Y-70225194D03*
D17*
X193638839Y-70630263D03*
%TD*%
D18*
%TO.C,J3*%
X194313491Y-127916194D03*
X194053491Y-129206194D03*
X196339491Y-129206194D03*
X196599491Y-127916194D03*
X198885491Y-127916194D03*
X198625491Y-129206194D03*
X201171491Y-127916194D03*
X200911491Y-129206194D03*
%TD*%
%TO.C,J5*%
X194348163Y-103204170D03*
X194088163Y-104494170D03*
X196634163Y-103204170D03*
X196374163Y-104494170D03*
X198660163Y-104494170D03*
X198920163Y-103204170D03*
X201206163Y-103204170D03*
X200946163Y-104494170D03*
%TD*%
M02*
