%TF.GenerationSoftware,KiCad,Pcbnew,7.0.2*%
%TF.CreationDate,2024-09-11T13:34:27+02:00*%
%TF.ProjectId,column,636f6c75-6d6e-42e6-9b69-6361645f7063,rev?*%
%TF.SameCoordinates,Original*%
%TF.FileFunction,Soldermask,Bot*%
%TF.FilePolarity,Negative*%
%FSLAX46Y46*%
G04 Gerber Fmt 4.6, Leading zero omitted, Abs format (unit mm)*
G04 Created by KiCad (PCBNEW 7.0.2) date 2024-09-11 13:34:27*
%MOMM*%
%LPD*%
G01*
G04 APERTURE LIST*
G04 Aperture macros list*
%AMRoundRect*
0 Rectangle with rounded corners*
0 $1 Rounding radius*
0 $2 $3 $4 $5 $6 $7 $8 $9 X,Y pos of 4 corners*
0 Add a 4 corners polygon primitive as box body*
4,1,4,$2,$3,$4,$5,$6,$7,$8,$9,$2,$3,0*
0 Add four circle primitives for the rounded corners*
1,1,$1+$1,$2,$3*
1,1,$1+$1,$4,$5*
1,1,$1+$1,$6,$7*
1,1,$1+$1,$8,$9*
0 Add four rect primitives between the rounded corners*
20,1,$1+$1,$2,$3,$4,$5,0*
20,1,$1+$1,$4,$5,$6,$7,0*
20,1,$1+$1,$6,$7,$8,$9,0*
20,1,$1+$1,$8,$9,$2,$3,0*%
%AMHorizOval*
0 Thick line with rounded ends*
0 $1 width*
0 $2 $3 position (X,Y) of the first rounded end (center of the circle)*
0 $4 $5 position (X,Y) of the second rounded end (center of the circle)*
0 Add line between two ends*
20,1,$1,$2,$3,$4,$5,0*
0 Add two circle primitives to create the rounded ends*
1,1,$1,$2,$3*
1,1,$1,$4,$5*%
G04 Aperture macros list end*
%ADD10R,1.250000X0.280000*%
%ADD11R,2.000000X1.800000*%
%ADD12RoundRect,0.225000X-0.375000X0.225000X-0.375000X-0.225000X0.375000X-0.225000X0.375000X0.225000X0*%
%ADD13O,2.701800X1.701800*%
%ADD14C,3.987800*%
%ADD15HorizOval,2.032000X-0.608505X0.641231X0.608505X-0.641231X0*%
%ADD16C,2.032000*%
%ADD17HorizOval,2.032000X-0.608505X-0.641231X0.608505X0.641231X0*%
%ADD18HorizOval,2.032000X-1.269427X-0.410014X1.269427X0.410014X0*%
%ADD19HorizOval,2.032000X-1.269427X0.410014X1.269427X-0.410014X0*%
%ADD20C,1.600000*%
G04 APERTURE END LIST*
D10*
%TO.C,J6*%
X199707000Y-117950000D03*
X199707000Y-118450000D03*
X199707000Y-118950000D03*
X199707000Y-119450000D03*
X199707000Y-119950000D03*
X199707000Y-120450000D03*
X199707000Y-120950000D03*
X199707000Y-121450000D03*
X199707000Y-121950000D03*
X199707000Y-122450000D03*
X199707000Y-122950000D03*
X199707000Y-123450000D03*
D11*
X202431000Y-125250000D03*
X202431000Y-116150000D03*
%TD*%
D10*
%TO.C,J4*%
X199707000Y-93775000D03*
X199707000Y-94275000D03*
X199707000Y-94775000D03*
X199707000Y-95275000D03*
X199707000Y-95775000D03*
X199707000Y-96275000D03*
X199707000Y-96775000D03*
X199707000Y-97275000D03*
X199707000Y-97775000D03*
X199707000Y-98275000D03*
X199707000Y-98775000D03*
X199707000Y-99275000D03*
D11*
X202431000Y-101075000D03*
X202431000Y-91975000D03*
%TD*%
%TO.C,J1*%
X202656000Y-69150000D03*
X202656000Y-78250000D03*
D10*
X199932000Y-76450000D03*
X199932000Y-75950000D03*
X199932000Y-75450000D03*
X199932000Y-74950000D03*
X199932000Y-74450000D03*
X199932000Y-73950000D03*
X199932000Y-73450000D03*
X199932000Y-72950000D03*
X199932000Y-72450000D03*
X199932000Y-71950000D03*
X199932000Y-71450000D03*
X199932000Y-70950000D03*
%TD*%
D12*
%TO.C,D3*%
X184195806Y-121702668D03*
X184195806Y-125002668D03*
%TD*%
%TO.C,D2*%
X184200000Y-98750000D03*
X184200000Y-102050000D03*
%TD*%
%TO.C,D1*%
X184004698Y-78833109D03*
X184004698Y-82133109D03*
%TD*%
D13*
%TO.C,SW3*%
X187305903Y-124417886D03*
D14*
X192383491Y-124421194D03*
D13*
X197465903Y-124421847D03*
D15*
X187968592Y-121237762D03*
D16*
X188573491Y-121881194D03*
X196193491Y-121881194D03*
D17*
X196798390Y-121237762D03*
D18*
X191128143Y-118926263D03*
D16*
X192383491Y-118521194D03*
D19*
X193638839Y-118926263D03*
%TD*%
D13*
%TO.C,SW2*%
X187305903Y-100319886D03*
D14*
X192383491Y-100323194D03*
D13*
X197465903Y-100323847D03*
D15*
X187968592Y-97139762D03*
D16*
X188573491Y-97783194D03*
X196193491Y-97783194D03*
D17*
X196798390Y-97139762D03*
D18*
X191128143Y-94828263D03*
D16*
X192383491Y-94423194D03*
D19*
X193638839Y-94828263D03*
%TD*%
D13*
%TO.C,SW1*%
X187305903Y-76121886D03*
D14*
X192383491Y-76125194D03*
D13*
X197465903Y-76125847D03*
D15*
X187968592Y-72941762D03*
D16*
X188573491Y-73585194D03*
X196193491Y-73585194D03*
D17*
X196798390Y-72941762D03*
D18*
X191128143Y-70630263D03*
D16*
X192383491Y-70225194D03*
D19*
X193638839Y-70630263D03*
%TD*%
D20*
%TO.C,J3*%
X194313491Y-127916194D03*
X194053491Y-129206194D03*
X196339491Y-129206194D03*
X196599491Y-127916194D03*
X198885491Y-127916194D03*
X198625491Y-129206194D03*
X201171491Y-127916194D03*
X200911491Y-129206194D03*
%TD*%
%TO.C,J5*%
X194348163Y-103204170D03*
X194088163Y-104494170D03*
X196634163Y-103204170D03*
X196374163Y-104494170D03*
X198660163Y-104494170D03*
X198920163Y-103204170D03*
X201206163Y-103204170D03*
X200946163Y-104494170D03*
%TD*%
M02*
