%TF.GenerationSoftware,KiCad,Pcbnew,(6.0.4)*%
%TF.CreationDate,2022-12-14T16:12:08+01:00*%
%TF.ProjectId,column,636f6c75-6d6e-42e6-9b69-6361645f7063,rev?*%
%TF.SameCoordinates,Original*%
%TF.FileFunction,Copper,L2,Bot*%
%TF.FilePolarity,Positive*%
%FSLAX46Y46*%
G04 Gerber Fmt 4.6, Leading zero omitted, Abs format (unit mm)*
G04 Created by KiCad (PCBNEW (6.0.4)) date 2022-12-14 16:12:08*
%MOMM*%
%LPD*%
G01*
G04 APERTURE LIST*
G04 Aperture macros list*
%AMRoundRect*
0 Rectangle with rounded corners*
0 $1 Rounding radius*
0 $2 $3 $4 $5 $6 $7 $8 $9 X,Y pos of 4 corners*
0 Add a 4 corners polygon primitive as box body*
4,1,4,$2,$3,$4,$5,$6,$7,$8,$9,$2,$3,0*
0 Add four circle primitives for the rounded corners*
1,1,$1+$1,$2,$3*
1,1,$1+$1,$4,$5*
1,1,$1+$1,$6,$7*
1,1,$1+$1,$8,$9*
0 Add four rect primitives between the rounded corners*
20,1,$1+$1,$2,$3,$4,$5,0*
20,1,$1+$1,$4,$5,$6,$7,0*
20,1,$1+$1,$6,$7,$8,$9,0*
20,1,$1+$1,$8,$9,$2,$3,0*%
%AMHorizOval*
0 Thick line with rounded ends*
0 $1 width*
0 $2 $3 position (X,Y) of the first rounded end (center of the circle)*
0 $4 $5 position (X,Y) of the second rounded end (center of the circle)*
0 Add line between two ends*
20,1,$1,$2,$3,$4,$5,0*
0 Add two circle primitives to create the rounded ends*
1,1,$1,$2,$3*
1,1,$1,$4,$5*%
%AMFreePoly0*
4,1,13,0.650000,-0.475000,-0.650000,-0.475000,-0.650000,-0.228200,-1.093000,-0.228200,-1.128355,-0.213555,-1.143000,-0.178200,-1.143000,0.177400,-1.128355,0.212755,-1.093000,0.227400,-0.650000,0.227400,-0.650000,0.475000,0.650000,0.475000,0.650000,-0.475000,0.650000,-0.475000,$1*%
%AMFreePoly1*
4,1,13,0.650000,0.228600,1.093000,0.228600,1.128355,0.213955,1.143000,0.178600,1.143000,-0.177000,1.128355,-0.212355,1.093000,-0.227000,0.650000,-0.227000,0.650000,-0.475000,-0.650000,-0.475000,-0.650000,0.475000,0.650000,0.475000,0.650000,0.228600,0.650000,0.228600,$1*%
G04 Aperture macros list end*
%TA.AperFunction,ComponentPad*%
%ADD10C,1.600000*%
%TD*%
%TA.AperFunction,ComponentPad*%
%ADD11C,2.032000*%
%TD*%
%TA.AperFunction,ComponentPad*%
%ADD12HorizOval,2.032000X-0.608505X0.641231X0.608505X-0.641231X0*%
%TD*%
%TA.AperFunction,ComponentPad*%
%ADD13HorizOval,2.032000X-0.608505X-0.641231X0.608505X0.641231X0*%
%TD*%
%TA.AperFunction,ComponentPad*%
%ADD14HorizOval,2.032000X-1.269427X0.410014X1.269427X-0.410014X0*%
%TD*%
%TA.AperFunction,ComponentPad*%
%ADD15HorizOval,2.032000X-1.269427X-0.410014X1.269427X0.410014X0*%
%TD*%
%TA.AperFunction,SMDPad,CuDef*%
%ADD16R,2.600000X2.600000*%
%TD*%
%TA.AperFunction,SMDPad,CuDef*%
%ADD17R,2.550000X2.500000*%
%TD*%
%TA.AperFunction,SMDPad,CuDef*%
%ADD18R,3.000000X0.250000*%
%TD*%
%TA.AperFunction,SMDPad,CuDef*%
%ADD19RoundRect,0.062500X0.265165X0.353553X-0.353553X-0.265165X-0.265165X-0.353553X0.353553X0.265165X0*%
%TD*%
%TA.AperFunction,SMDPad,CuDef*%
%ADD20R,0.250000X4.000000*%
%TD*%
%TA.AperFunction,ComponentPad*%
%ADD21R,1.600000X1.600000*%
%TD*%
%TA.AperFunction,SMDPad,CuDef*%
%ADD22FreePoly0,90.000000*%
%TD*%
%TA.AperFunction,SMDPad,CuDef*%
%ADD23FreePoly1,90.000000*%
%TD*%
%TA.AperFunction,SMDPad,CuDef*%
%ADD24FreePoly0,180.000000*%
%TD*%
%TA.AperFunction,SMDPad,CuDef*%
%ADD25FreePoly1,180.000000*%
%TD*%
%TA.AperFunction,ViaPad*%
%ADD26C,0.800000*%
%TD*%
%TA.AperFunction,Conductor*%
%ADD27C,0.250000*%
%TD*%
G04 APERTURE END LIST*
D10*
%TO.P,J5,1,Pin_1*%
%TO.N,col0*%
X216182672Y-104293976D03*
X216442672Y-103003976D03*
%TO.P,J5,2,Pin_2*%
%TO.N,row_0*%
X218728672Y-103003976D03*
X218468672Y-104293976D03*
%TO.P,J5,3,Pin_3*%
%TO.N,row_1*%
X220754672Y-104293976D03*
X221014672Y-103003976D03*
%TO.P,J5,4,Pin_4*%
%TO.N,row_2*%
X223040672Y-104293976D03*
X223300672Y-103003976D03*
%TD*%
D11*
%TO.P,SW2,1,1*%
%TO.N,row_1*%
X188473903Y-98008886D03*
X196093903Y-98008886D03*
D12*
X187869004Y-97365454D03*
D13*
X196698802Y-97365454D03*
D11*
%TO.P,SW2,2,2*%
%TO.N,Net-(D2-Pad1)*%
X192283903Y-94648886D03*
D14*
X193539251Y-95053955D03*
D15*
X191028555Y-95053955D03*
%TD*%
D16*
%TO.P,SW3,1,1*%
%TO.N,row_2*%
X222651000Y-121000000D03*
D17*
X220220412Y-119666692D03*
D18*
%TO.P,SW3,2,2*%
%TO.N,Net-(D3-Pad1)*%
X208794412Y-118452653D03*
D19*
X207023656Y-118741976D03*
D16*
X211103411Y-118796692D03*
D17*
X206756000Y-122210000D03*
D20*
X206732653Y-121001588D03*
%TD*%
D10*
%TO.P,J2,1,Pin_1*%
%TO.N,col0*%
X216541641Y-78728932D03*
X216281641Y-80018932D03*
%TO.P,J2,2,Pin_2*%
%TO.N,row_0*%
X218567641Y-80018932D03*
X218827641Y-78728932D03*
%TO.P,J2,3,Pin_3*%
%TO.N,row_1*%
X220853641Y-80018932D03*
X221113641Y-78728932D03*
%TO.P,J2,4,Pin_4*%
%TO.N,row_2*%
X223399641Y-78728932D03*
X223139641Y-80018932D03*
%TD*%
D11*
%TO.P,SW3,1,1*%
%TO.N,row_2*%
X188473903Y-122106886D03*
D13*
X196698802Y-121463454D03*
D11*
X196093903Y-122106886D03*
D12*
X187869004Y-121463454D03*
D15*
%TO.P,SW3,2,2*%
%TO.N,Net-(D3-Pad1)*%
X191028555Y-119151955D03*
D11*
X192283903Y-118746886D03*
D14*
X193539251Y-119151955D03*
%TD*%
D10*
%TO.P,J3,1,Pin_1*%
%TO.N,col0*%
X194313491Y-127916194D03*
X194053491Y-129206194D03*
%TO.P,J3,2,Pin_2*%
%TO.N,row_0*%
X196339491Y-129206194D03*
X196599491Y-127916194D03*
%TO.P,J3,3,Pin_3*%
%TO.N,row_1*%
X198885491Y-127916194D03*
X198625491Y-129206194D03*
%TO.P,J3,4,Pin_4*%
%TO.N,row_2*%
X201171491Y-127916194D03*
X200911491Y-129206194D03*
%TD*%
D17*
%TO.P,SW2,1,1*%
%TO.N,row_1*%
X220220412Y-95568692D03*
D16*
X222651000Y-96902000D03*
%TO.P,SW2,2,2*%
%TO.N,Net-(D2-Pad1)*%
X211103411Y-94698692D03*
D18*
X208794412Y-94354653D03*
D17*
X206756000Y-98112000D03*
D19*
X207023656Y-94643976D03*
D20*
X206732653Y-96903588D03*
%TD*%
D10*
%TO.P,J3,1,Pin_1*%
%TO.N,col0*%
X216148000Y-129306000D03*
X216408000Y-128016000D03*
%TO.P,J3,2,Pin_2*%
%TO.N,row_0*%
X218694000Y-128016000D03*
X218434000Y-129306000D03*
%TO.P,J3,3,Pin_3*%
%TO.N,row_1*%
X220720000Y-129306000D03*
X220980000Y-128016000D03*
%TO.P,J3,4,Pin_4*%
%TO.N,row_2*%
X223266000Y-128016000D03*
X223006000Y-129306000D03*
%TD*%
%TO.P,J5,1,Pin_1*%
%TO.N,col0*%
X194348163Y-102904170D03*
X194088163Y-104194170D03*
%TO.P,J5,2,Pin_2*%
%TO.N,row_0*%
X196634163Y-102904170D03*
X196374163Y-104194170D03*
%TO.P,J5,3,Pin_3*%
%TO.N,row_1*%
X198660163Y-104194170D03*
X198920163Y-102904170D03*
%TO.P,J5,4,Pin_4*%
%TO.N,row_2*%
X201206163Y-102904170D03*
X200946163Y-104194170D03*
%TD*%
%TO.P,J2,1,Pin_1*%
%TO.N,col0*%
X194447132Y-78629126D03*
X194187132Y-79919126D03*
%TO.P,J2,2,Pin_2*%
%TO.N,row_0*%
X196473132Y-79919126D03*
X196733132Y-78629126D03*
%TO.P,J2,3,Pin_3*%
%TO.N,row_1*%
X198759132Y-79919126D03*
X199019132Y-78629126D03*
%TO.P,J2,4,Pin_4*%
%TO.N,row_2*%
X201045132Y-79919126D03*
X201305132Y-78629126D03*
%TD*%
D11*
%TO.P,SW1,1,1*%
%TO.N,row_0*%
X188473903Y-73810886D03*
X196093903Y-73810886D03*
D12*
X187869004Y-73167454D03*
D13*
X196698802Y-73167454D03*
D14*
%TO.P,SW1,2,2*%
%TO.N,Net-(D1-Pad1)*%
X193539251Y-70855955D03*
D15*
X191028555Y-70855955D03*
D11*
X192283903Y-70450886D03*
%TD*%
D17*
%TO.P,SW1,1,1*%
%TO.N,row_0*%
X220220412Y-71370692D03*
D16*
X222651000Y-72704000D03*
D18*
%TO.P,SW1,2,2*%
%TO.N,Net-(D1-Pad1)*%
X208794412Y-70156653D03*
D20*
X206732653Y-72705588D03*
D19*
X207023656Y-70445976D03*
D16*
X211103411Y-70500692D03*
D17*
X206756000Y-73914000D03*
%TD*%
D21*
%TO.P,D2,1,K*%
%TO.N,Net-(D2-Pad1)*%
X205983046Y-108559411D03*
D22*
X205983046Y-106758411D03*
D23*
%TO.P,D2,2,A*%
%TO.N,col0*%
X205983046Y-103208411D03*
D10*
X205983046Y-101407411D03*
%TD*%
D24*
%TO.P,D3,1,K*%
%TO.N,Net-(D3-Pad1)*%
X211579000Y-129286000D03*
D21*
X213380000Y-129286000D03*
D25*
%TO.P,D3,2,A*%
%TO.N,col0*%
X208029000Y-129286000D03*
D10*
X206228000Y-129286000D03*
%TD*%
D24*
%TO.P,D3,1,K*%
%TO.N,Net-(D3-Pad1)*%
X189484491Y-129186194D03*
D21*
X191285491Y-129186194D03*
D25*
%TO.P,D3,2,A*%
%TO.N,col0*%
X185934491Y-129186194D03*
D10*
X184133491Y-129186194D03*
%TD*%
D21*
%TO.P,D2,1,K*%
%TO.N,Net-(D2-Pad1)*%
X183888537Y-108459605D03*
D22*
X183888537Y-106658605D03*
D23*
%TO.P,D2,2,A*%
%TO.N,col0*%
X183888537Y-103108605D03*
D10*
X183888537Y-101307605D03*
%TD*%
D21*
%TO.P,D1,1,K*%
%TO.N,Net-(D1-Pad1)*%
X206078401Y-84206247D03*
D22*
X206078401Y-82405247D03*
D23*
%TO.P,D1,2,A*%
%TO.N,col0*%
X206078401Y-78855247D03*
D10*
X206078401Y-77054247D03*
%TD*%
D21*
%TO.P,D1,1,K*%
%TO.N,Net-(D1-Pad1)*%
X183983892Y-84106441D03*
D22*
X183983892Y-82305441D03*
D23*
%TO.P,D1,2,A*%
%TO.N,col0*%
X183983892Y-78755441D03*
D10*
X183983892Y-76954441D03*
%TD*%
D26*
%TO.N,Net-(D1-Pad1)*%
X185423491Y-78386194D03*
X207518000Y-78486000D03*
%TO.N,Net-(D2-Pad1)*%
X186185491Y-102008194D03*
X208280000Y-102108000D03*
%TO.N,Net-(D3-Pad1)*%
X187963491Y-126646194D03*
X210058000Y-126746000D03*
%TO.N,row_0*%
X213360000Y-79756000D03*
X214122000Y-104140000D03*
X192027491Y-104040194D03*
X191265491Y-79656194D03*
%TO.N,row_1*%
X190630491Y-104675194D03*
X211836000Y-80518000D03*
X189741491Y-80418194D03*
X212725000Y-104775000D03*
%TD*%
D27*
%TO.N,Net-(D1-Pad1)*%
X207518000Y-76200000D02*
X207518000Y-78486000D01*
X190500000Y-75438000D02*
X190500000Y-72038423D01*
X190500000Y-72038423D02*
X189739079Y-71277502D01*
X206756000Y-73914000D02*
X206756000Y-75438000D01*
X206756000Y-75438000D02*
X207518000Y-76200000D01*
X190500000Y-75438000D02*
X187551806Y-78386194D01*
X187551806Y-78386194D02*
X185423491Y-78386194D01*
%TO.N,col0*%
X208534000Y-108712000D02*
X207772000Y-107950000D01*
X183031491Y-91192194D02*
X186185491Y-88038194D01*
X183888537Y-105013240D02*
X183888537Y-100413262D01*
X183983892Y-79740595D02*
X185677491Y-81434194D01*
X222504000Y-111252000D02*
X222504000Y-110236000D01*
X200917491Y-85244194D02*
X200155491Y-84482194D01*
X207772000Y-106902000D02*
X206756000Y-105886000D01*
X216408000Y-78994000D02*
X210312000Y-78994000D01*
X207518000Y-84328000D02*
X207518000Y-81788000D01*
X198885491Y-108612194D02*
X186439491Y-108612194D01*
X205156489Y-116407511D02*
X209042000Y-112522000D01*
X192027491Y-127662194D02*
X184915491Y-127662194D01*
X185423491Y-81688194D02*
X185677491Y-81434194D01*
X214122000Y-127762000D02*
X207010000Y-127762000D01*
X221234000Y-112522000D02*
X222504000Y-111252000D01*
X205126000Y-99656022D02*
X205126000Y-91292000D01*
X207518000Y-81788000D02*
X207772000Y-81534000D01*
X184133491Y-126920194D02*
X184133491Y-129186194D01*
X183061980Y-116307705D02*
X186947491Y-112422194D01*
X186185491Y-88038194D02*
X199647491Y-88038194D01*
X199647491Y-88038194D02*
X200917491Y-86768194D01*
X199139491Y-112422194D02*
X200409491Y-111152194D01*
X206078401Y-78855247D02*
X206078401Y-77054247D01*
X185423491Y-84228194D02*
X185423491Y-81688194D01*
X222250000Y-84582000D02*
X207772000Y-84582000D01*
X183888537Y-100413262D02*
X183031491Y-99556216D01*
X184661491Y-105786194D02*
X183888537Y-105013240D01*
X184661491Y-105786194D02*
X187455491Y-102992194D01*
X223012000Y-85344000D02*
X222250000Y-84582000D01*
X220980000Y-108712000D02*
X208534000Y-108712000D01*
X221742000Y-88138000D02*
X223012000Y-86868000D01*
X186947491Y-112422194D02*
X199139491Y-112422194D01*
X200409491Y-110136194D02*
X198885491Y-108612194D01*
X205126000Y-91292000D02*
X208280000Y-88138000D01*
X205156489Y-125908489D02*
X205156489Y-116407511D01*
X205983046Y-105113046D02*
X205983046Y-100513068D01*
X183031491Y-99556216D02*
X183031491Y-91192194D01*
X183983892Y-78755441D02*
X183983892Y-76954441D01*
X185677491Y-107850194D02*
X185677491Y-106802194D01*
X222504000Y-110236000D02*
X220980000Y-108712000D01*
X207772000Y-107950000D02*
X207772000Y-106902000D01*
X207010000Y-127762000D02*
X205156489Y-125908489D01*
X206078401Y-78855247D02*
X206078401Y-79840401D01*
X209550000Y-103092000D02*
X216376000Y-103092000D01*
X185677491Y-84482194D02*
X185423491Y-84228194D01*
X206756000Y-105886000D02*
X209550000Y-103092000D01*
X200917491Y-86768194D02*
X200917491Y-85244194D01*
X215900000Y-129540000D02*
X214122000Y-127762000D01*
X209042000Y-112522000D02*
X221234000Y-112522000D01*
X186439491Y-108612194D02*
X185677491Y-107850194D01*
X206078401Y-79840401D02*
X207772000Y-81534000D01*
X210312000Y-78994000D02*
X207772000Y-81534000D01*
X193805491Y-129440194D02*
X192027491Y-127662194D01*
X200409491Y-111152194D02*
X200409491Y-110136194D01*
X188217491Y-78894194D02*
X185677491Y-81434194D01*
X200155491Y-84482194D02*
X185677491Y-84482194D01*
X194313491Y-78894194D02*
X188217491Y-78894194D01*
X206756000Y-105886000D02*
X205983046Y-105113046D01*
X187455491Y-102992194D02*
X194281491Y-102992194D01*
X206228000Y-127020000D02*
X206228000Y-129286000D01*
X183061980Y-125808683D02*
X183061980Y-116307705D01*
X207772000Y-84582000D02*
X207518000Y-84328000D01*
X185677491Y-106802194D02*
X184661491Y-105786194D01*
X184915491Y-127662194D02*
X183061980Y-125808683D01*
X223012000Y-86868000D02*
X223012000Y-85344000D01*
X208280000Y-88138000D02*
X221742000Y-88138000D01*
X205983046Y-100513068D02*
X205126000Y-99656022D01*
X183983892Y-78755441D02*
X183983892Y-79740595D01*
%TO.N,Net-(D2-Pad1)*%
X187078699Y-101114986D02*
X189207014Y-101114986D01*
X189207014Y-101114986D02*
X190246000Y-100076000D01*
X206756000Y-98012000D02*
X206756000Y-98112000D01*
X207386792Y-101214792D02*
X208280000Y-102108000D01*
X186185491Y-102008194D02*
X187078699Y-101114986D01*
X190246000Y-100076000D02*
X190246000Y-95982423D01*
X190246000Y-95982423D02*
X189739079Y-95475502D01*
X206756000Y-98112000D02*
X207386792Y-98742792D01*
X207386792Y-98742792D02*
X207386792Y-101214792D01*
%TO.N,Net-(D3-Pad1)*%
X189329806Y-126646194D02*
X190246000Y-125730000D01*
X208191794Y-126746000D02*
X206756000Y-125310206D01*
X210058000Y-126746000D02*
X208191794Y-126746000D01*
X190246000Y-120080423D02*
X189739079Y-119573502D01*
X190246000Y-125730000D02*
X190246000Y-120080423D01*
X187963491Y-126646194D02*
X189329806Y-126646194D01*
X206756000Y-125310206D02*
X206756000Y-122210000D01*
%TO.N,row_0*%
X222651000Y-75492005D02*
X219149005Y-78994000D01*
X217315489Y-81388511D02*
X215246511Y-81388511D01*
X213614000Y-79756000D02*
X213360000Y-79756000D01*
X217315489Y-105518511D02*
X215500511Y-105518511D01*
X191519491Y-79656194D02*
X191265491Y-79656194D01*
X188471491Y-73814194D02*
X187709491Y-73814194D01*
X196345491Y-80164194D02*
X195220980Y-81288705D01*
X195220980Y-105418705D02*
X193406002Y-105418705D01*
X199136000Y-76812690D02*
X197054496Y-78894194D01*
X197054496Y-78894194D02*
X196599491Y-78894194D01*
X199136000Y-74414423D02*
X199136000Y-76812690D01*
X193152002Y-81288705D02*
X191519491Y-79656194D01*
X193406002Y-105418705D02*
X192027491Y-104040194D01*
X195220980Y-81288705D02*
X193152002Y-81288705D01*
X218440000Y-104394000D02*
X217315489Y-105518511D01*
X219149005Y-78994000D02*
X218694000Y-78994000D01*
X196345491Y-104294194D02*
X195220980Y-105418705D01*
X218440000Y-80264000D02*
X217315489Y-81388511D01*
X197279079Y-72557502D02*
X199136000Y-74414423D01*
X222651000Y-72704000D02*
X222651000Y-75492005D01*
X215246511Y-81388511D02*
X213614000Y-79756000D01*
X215500511Y-105518511D02*
X214122000Y-104140000D01*
%TO.N,row_1*%
X197057460Y-105868225D02*
X191823522Y-105868225D01*
X213156031Y-81838031D02*
X211836000Y-80518000D01*
X219151969Y-105968031D02*
X213918031Y-105968031D01*
X191061522Y-81738225D02*
X189741491Y-80418194D01*
X197279079Y-96755502D02*
X198920163Y-98396586D01*
X198631491Y-80164194D02*
X197057460Y-81738225D01*
X220726000Y-104394000D02*
X219151969Y-105968031D01*
X198631491Y-104294194D02*
X197057460Y-105868225D01*
X220726000Y-80264000D02*
X219151969Y-81838031D01*
X198920163Y-98396586D02*
X198920163Y-102904170D01*
X222651000Y-96902000D02*
X222651000Y-101453000D01*
X219151969Y-81838031D02*
X213156031Y-81838031D01*
X191823522Y-105868225D02*
X190630491Y-104675194D01*
X222651000Y-101453000D02*
X220980000Y-103124000D01*
X197057460Y-81738225D02*
X191061522Y-81738225D01*
X213918031Y-105968031D02*
X212725000Y-104775000D01*
%TO.N,row_2*%
X201171491Y-127916194D02*
X201171491Y-124745914D01*
X222651000Y-121000000D02*
X222651000Y-129433000D01*
X201171491Y-124745914D02*
X197279079Y-120853502D01*
%TD*%
M02*
