M48
; DRILL file {KiCad (6.0.4)} date Wed Dec 14 16:12:08 2022
; FORMAT={-:-/ absolute / inch / decimal}
; #@! TF.CreationDate,2022-12-14T16:12:08+01:00
; #@! TF.GenerationSoftware,Kicad,Pcbnew,(6.0.4)
; #@! TF.FileFunction,NonPlated,1,2,NPTH
FMAT,2
INCH
; #@! TA.AperFunction,NonPlated,NPTH,ComponentDrill
T1C0.0197
; #@! TA.AperFunction,NonPlated,NPTH,ComponentDrill
T2C0.0670
; #@! TA.AperFunction,NonPlated,NPTH,ComponentDrill
T3C0.1181
; #@! TA.AperFunction,NonPlated,NPTH,ComponentDrill
T4C0.1570
%
G90
G05
T1
X7.9791Y-2.8179
X7.9791Y-2.8579
X7.9791Y-2.8979
X7.9791Y-2.9379
X7.9791Y-2.9779
X8.0591Y-2.8179
X8.0591Y-2.8579
X8.0591Y-2.8979
X8.0591Y-2.9379
X8.0591Y-2.9779
T3
X8.2432Y-2.8622
X8.2432Y-3.8149
X8.2432Y-4.7636
X8.29Y-2.91
X8.29Y-3.8627
X8.29Y-4.8114
X8.4401Y-2.7756
X8.4401Y-3.7283
X8.4401Y-4.677
X8.54Y-2.81
X8.54Y-3.7627
X8.54Y-4.7114
X8.6369Y-2.8624
X8.6369Y-3.815
X8.6369Y-4.7638
T4
X7.5702Y-3.0059
X7.5702Y-3.9586
X7.5702Y-4.9074
X8.4401Y-3.0099
X8.4401Y-3.9625
X8.4401Y-4.9113
T2
G00X7.39Y-3.0058
M15
G01X7.3506Y-3.0058
M16
G05
G00X7.39Y-3.9585
M15
G01X7.3506Y-3.9585
M16
G05
G00X7.39Y-4.9072
M15
G01X7.3506Y-4.9072
M16
G05
G00X7.79Y-3.006
M15
G01X7.7506Y-3.006
M16
G05
G00X7.79Y-3.9586
M15
G01X7.7506Y-3.9586
M16
G05
G00X7.79Y-4.9074
M15
G01X7.7506Y-4.9074
M16
G05
G00X8.2203Y-3.0098
M15
G01X8.2597Y-3.0098
M16
G05
G00X8.2203Y-3.9625
M15
G01X8.2597Y-3.9625
M16
G05
G00X8.2203Y-4.9113
M15
G01X8.2597Y-4.9113
M16
G05
G00X8.6203Y-3.01
M15
G01X8.6597Y-3.01
M16
G05
G00X8.6203Y-3.9627
M15
G01X8.6597Y-3.9627
M16
G05
G00X8.6203Y-4.9114
M15
G01X8.6597Y-4.9114
M16
G05
T0
M30
