%TF.GenerationSoftware,KiCad,Pcbnew,(6.0.4)*%
%TF.CreationDate,2022-12-14T16:12:08+01:00*%
%TF.ProjectId,column,636f6c75-6d6e-42e6-9b69-6361645f7063,rev?*%
%TF.SameCoordinates,Original*%
%TF.FileFunction,Profile,NP*%
%FSLAX46Y46*%
G04 Gerber Fmt 4.6, Leading zero omitted, Abs format (unit mm)*
G04 Created by KiCad (PCBNEW (6.0.4)) date 2022-12-14 16:12:08*
%MOMM*%
%LPD*%
G01*
G04 APERTURE LIST*
%TA.AperFunction,Profile*%
%ADD10C,0.100000*%
%TD*%
%TA.AperFunction,Profile*%
%ADD11C,0.050000*%
%TD*%
G04 APERTURE END LIST*
D10*
X182720449Y-129540003D02*
G75*
G03*
X183725382Y-130659515I1059651J-59597D01*
G01*
X204978000Y-69088000D02*
X204978000Y-71067156D01*
D11*
X202733680Y-76147156D02*
X202438000Y-76147156D01*
D10*
X202443610Y-69052684D02*
G75*
G03*
X201438614Y-67968289I-1059710J25784D01*
G01*
X204959932Y-84608078D02*
X204978000Y-76147156D01*
X197983147Y-111350517D02*
G75*
G03*
X197983180Y-109572463I535153J889017D01*
G01*
X201298491Y-81926194D02*
X187836491Y-81926194D01*
X204814894Y-129622081D02*
G75*
G03*
X205819891Y-130759321I1059806J-76119D01*
G01*
X201171491Y-106072194D02*
X187701941Y-106072194D01*
X198117730Y-85493215D02*
X183870402Y-85508272D01*
X182865487Y-84508277D02*
G75*
G03*
X183870402Y-85508272I933213J-67123D01*
G01*
X209798239Y-90916000D02*
X223382635Y-90912095D01*
X182730833Y-108587517D02*
G75*
G03*
X183735852Y-109587520I933367J-66983D01*
G01*
D11*
X204978000Y-76147156D02*
X204638680Y-76147156D01*
D10*
X202293105Y-92102194D02*
X202301180Y-104902000D01*
X223242517Y-130779531D02*
G75*
G03*
X224379751Y-129774625I76183J1059731D01*
G01*
X209930978Y-89381004D02*
G75*
G03*
X209798239Y-90916000I-623778J-719296D01*
G01*
X204825433Y-108687330D02*
G75*
G03*
X205830361Y-109687326I933267J-67070D01*
G01*
D11*
X202733715Y-71067141D02*
G75*
G03*
X204638679Y-71067156I952485J380941D01*
G01*
X204638714Y-76147143D02*
G75*
G03*
X202733681Y-76147156I-952514J-381057D01*
G01*
D10*
X206115239Y-68083018D02*
G75*
G03*
X204978000Y-69088000I-76139J-1059782D01*
G01*
X223266000Y-106172000D02*
X209796450Y-106172000D01*
X224252984Y-116281239D02*
G75*
G03*
X223248085Y-114991343I-1158384J133939D01*
G01*
X201148003Y-130679798D02*
X183725382Y-130659515D01*
X223266002Y-106172075D02*
G75*
G03*
X224395689Y-105100269I-35602J1168775D01*
G01*
X183782668Y-111350467D02*
G75*
G03*
X182645429Y-112366821I-64968J-1071733D01*
G01*
X223393000Y-82026000D02*
X209931000Y-82026000D01*
X221990222Y-89402987D02*
G75*
G03*
X221990239Y-83561021I-1446822J2920987D01*
G01*
X220212239Y-85593021D02*
X205964911Y-85608078D01*
D11*
X204978000Y-71067156D02*
X204638680Y-71067156D01*
D10*
X199895718Y-89303191D02*
G75*
G03*
X199895730Y-83461215I-1446818J2920991D01*
G01*
X209931000Y-82026000D02*
G75*
G03*
X209798239Y-83561021I-623800J-719300D01*
G01*
X220212239Y-87371021D02*
X206011727Y-87371021D01*
X204959874Y-84608074D02*
G75*
G03*
X205964911Y-85608078I933326J-67026D01*
G01*
X220077689Y-111450269D02*
X205877177Y-111450269D01*
X187701965Y-106072167D02*
G75*
G03*
X187569180Y-107540463I-603965J-685533D01*
G01*
X202293074Y-92102190D02*
G75*
G03*
X201288126Y-90812289I-1158574J133790D01*
G01*
X209798239Y-83561021D02*
X221990239Y-83561021D01*
X209796484Y-113460188D02*
G75*
G03*
X209663689Y-114995248I-623784J-719312D01*
G01*
X183917218Y-87271211D02*
G75*
G03*
X182779979Y-88287573I-64918J-1071789D01*
G01*
X224538089Y-69205333D02*
G75*
G03*
X223533123Y-68068095I-1059789J76133D01*
G01*
X182865423Y-84508272D02*
X182883491Y-68988194D01*
X204874488Y-88387379D02*
X204825382Y-108687326D01*
X201298490Y-81926203D02*
G75*
G03*
X202435730Y-80946814I100810J1032903D01*
G01*
X182645429Y-112366821D02*
X182720403Y-129540000D01*
X224253064Y-116281248D02*
X224379751Y-129774625D01*
X209796479Y-106171967D02*
G75*
G03*
X209663689Y-107640269I-603979J-685533D01*
G01*
X184020730Y-67983215D02*
X201438614Y-67968289D01*
X197983180Y-111350463D02*
X183782668Y-111350463D01*
X220077662Y-111450314D02*
G75*
G03*
X220077689Y-109672269I535138J889014D01*
G01*
X221990239Y-89403021D02*
X209931000Y-89380979D01*
X199761210Y-113382523D02*
G75*
G03*
X199761180Y-107540463I-1446810J2921023D01*
G01*
X209663689Y-107640269D02*
X221855689Y-107640269D01*
X204739938Y-112466627D02*
X204814912Y-129622082D01*
X201148008Y-130679734D02*
G75*
G03*
X202285242Y-129674819I76092J1059834D01*
G01*
X199895730Y-89303215D02*
X187836491Y-89281173D01*
D11*
X202733680Y-71067156D02*
X202438000Y-71067156D01*
D10*
X198117743Y-87271193D02*
G75*
G03*
X198117730Y-85493215I535057J888993D01*
G01*
X209663689Y-114995248D02*
X223248085Y-114991343D01*
X224538102Y-69205334D02*
X224530239Y-81046620D01*
X202443593Y-69052684D02*
X202438000Y-71067156D01*
X187836464Y-89281204D02*
G75*
G03*
X187703730Y-90816194I-623764J-719296D01*
G01*
X201171490Y-106072159D02*
G75*
G03*
X202301180Y-104902000I-35290J1164459D01*
G01*
X187836486Y-81926200D02*
G75*
G03*
X187703730Y-83461215I-623786J-719300D01*
G01*
X187569180Y-107540463D02*
X199761180Y-107540463D01*
X202158555Y-116181442D02*
X202285242Y-129674819D01*
X187703730Y-90816194D02*
X201288126Y-90812289D01*
X220212257Y-87370990D02*
G75*
G03*
X220212239Y-85593021I535043J888990D01*
G01*
X220077689Y-109672269D02*
X205830361Y-109687326D01*
X187703730Y-83461215D02*
X199895730Y-83461215D01*
X223242512Y-130779604D02*
X205819891Y-130759321D01*
X182779979Y-88287573D02*
X182730873Y-108587520D01*
X221855689Y-113482269D02*
X209796450Y-113460227D01*
X221855713Y-113482318D02*
G75*
G03*
X221855689Y-107640269I-1446813J2921018D01*
G01*
X184020731Y-67983208D02*
G75*
G03*
X182883491Y-68988194I-76131J-1059792D01*
G01*
X224387654Y-92202005D02*
G75*
G03*
X223382635Y-90912095I-1158554J133805D01*
G01*
X198117730Y-87271215D02*
X183917218Y-87271215D01*
X223392999Y-82026013D02*
G75*
G03*
X224530239Y-81046620I100801J1032913D01*
G01*
X187569180Y-114895442D02*
X201153576Y-114891537D01*
X206011727Y-87371022D02*
G75*
G03*
X204874488Y-88387379I-64927J-1071778D01*
G01*
X187701969Y-113360389D02*
G75*
G03*
X187569180Y-114895442I-623769J-719311D01*
G01*
X197983180Y-109572463D02*
X183735852Y-109587520D01*
X205877177Y-111450277D02*
G75*
G03*
X204739938Y-112466627I-64977J-1071723D01*
G01*
X199761180Y-113382463D02*
X187701941Y-113360421D01*
X224387614Y-92202000D02*
X224395689Y-105100269D01*
X206115239Y-68083021D02*
X223533123Y-68068095D01*
X202158624Y-116181450D02*
G75*
G03*
X201153576Y-114891537I-1158624J133750D01*
G01*
X202435730Y-80946814D02*
X202438000Y-76147156D01*
M02*
