%TF.GenerationSoftware,KiCad,Pcbnew,(6.0.4)*%
%TF.CreationDate,2022-12-14T16:12:08+01:00*%
%TF.ProjectId,column,636f6c75-6d6e-42e6-9b69-6361645f7063,rev?*%
%TF.SameCoordinates,Original*%
%TF.FileFunction,Legend,Bot*%
%TF.FilePolarity,Positive*%
%FSLAX46Y46*%
G04 Gerber Fmt 4.6, Leading zero omitted, Abs format (unit mm)*
G04 Created by KiCad (PCBNEW (6.0.4)) date 2022-12-14 16:12:08*
%MOMM*%
%LPD*%
G01*
G04 APERTURE LIST*
G04 Aperture macros list*
%AMHorizOval*
0 Thick line with rounded ends*
0 $1 width*
0 $2 $3 position (X,Y) of the first rounded end (center of the circle)*
0 $4 $5 position (X,Y) of the second rounded end (center of the circle)*
0 Add line between two ends*
20,1,$1,$2,$3,$4,$5,0*
0 Add two circle primitives to create the rounded ends*
1,1,$1,$2,$3*
1,1,$1,$4,$5*%
G04 Aperture macros list end*
%ADD10C,0.150000*%
%ADD11C,0.100000*%
%ADD12C,1.600000*%
%ADD13C,3.987800*%
%ADD14O,2.701800X1.701800*%
%ADD15C,2.032000*%
%ADD16HorizOval,2.032000X-0.608505X0.641231X0.608505X-0.641231X0*%
%ADD17HorizOval,2.032000X-0.608505X-0.641231X0.608505X0.641231X0*%
%ADD18HorizOval,2.032000X-1.269427X0.410014X1.269427X-0.410014X0*%
%ADD19HorizOval,2.032000X-1.269427X-0.410014X1.269427X0.410014X0*%
%ADD20C,3.000000*%
%ADD21R,2.600000X2.600000*%
%ADD22R,2.550000X2.500000*%
%ADD23C,0.500000*%
%ADD24R,1.600000X1.600000*%
G04 APERTURE END LIST*
D10*
%TO.C,SW2*%
X193614824Y-109156955D02*
X193471967Y-109204574D01*
X193233871Y-109204574D01*
X193138633Y-109156955D01*
X193091014Y-109109336D01*
X193043395Y-109014098D01*
X193043395Y-108918860D01*
X193091014Y-108823622D01*
X193138633Y-108776003D01*
X193233871Y-108728384D01*
X193424348Y-108680765D01*
X193519586Y-108633146D01*
X193567205Y-108585527D01*
X193614824Y-108490289D01*
X193614824Y-108395051D01*
X193567205Y-108299813D01*
X193519586Y-108252194D01*
X193424348Y-108204574D01*
X193186252Y-108204574D01*
X193043395Y-108252194D01*
X192710062Y-108204574D02*
X192471967Y-109204574D01*
X192281491Y-108490289D01*
X192091014Y-109204574D01*
X191852919Y-108204574D01*
X191519586Y-108299813D02*
X191471967Y-108252194D01*
X191376729Y-108204574D01*
X191138633Y-108204574D01*
X191043395Y-108252194D01*
X190995776Y-108299813D01*
X190948157Y-108395051D01*
X190948157Y-108490289D01*
X190995776Y-108633146D01*
X191567205Y-109204574D01*
X190948157Y-109204574D01*
%TO.C,SW3*%
X215709333Y-116954761D02*
X215566476Y-117002380D01*
X215328380Y-117002380D01*
X215233142Y-116954761D01*
X215185523Y-116907142D01*
X215137904Y-116811904D01*
X215137904Y-116716666D01*
X215185523Y-116621428D01*
X215233142Y-116573809D01*
X215328380Y-116526190D01*
X215518857Y-116478571D01*
X215614095Y-116430952D01*
X215661714Y-116383333D01*
X215709333Y-116288095D01*
X215709333Y-116192857D01*
X215661714Y-116097619D01*
X215614095Y-116050000D01*
X215518857Y-116002380D01*
X215280761Y-116002380D01*
X215137904Y-116050000D01*
X214804571Y-116002380D02*
X214566476Y-117002380D01*
X214376000Y-116288095D01*
X214185523Y-117002380D01*
X213947428Y-116002380D01*
X213661714Y-116002380D02*
X213042666Y-116002380D01*
X213376000Y-116383333D01*
X213233142Y-116383333D01*
X213137904Y-116430952D01*
X213090285Y-116478571D01*
X213042666Y-116573809D01*
X213042666Y-116811904D01*
X213090285Y-116907142D01*
X213137904Y-116954761D01*
X213233142Y-117002380D01*
X213518857Y-117002380D01*
X213614095Y-116954761D01*
X213661714Y-116907142D01*
X193614824Y-133254955D02*
X193471967Y-133302574D01*
X193233871Y-133302574D01*
X193138633Y-133254955D01*
X193091014Y-133207336D01*
X193043395Y-133112098D01*
X193043395Y-133016860D01*
X193091014Y-132921622D01*
X193138633Y-132874003D01*
X193233871Y-132826384D01*
X193424348Y-132778765D01*
X193519586Y-132731146D01*
X193567205Y-132683527D01*
X193614824Y-132588289D01*
X193614824Y-132493051D01*
X193567205Y-132397813D01*
X193519586Y-132350194D01*
X193424348Y-132302574D01*
X193186252Y-132302574D01*
X193043395Y-132350194D01*
X192710062Y-132302574D02*
X192471967Y-133302574D01*
X192281491Y-132588289D01*
X192091014Y-133302574D01*
X191852919Y-132302574D01*
X191567205Y-132302574D02*
X190948157Y-132302574D01*
X191281491Y-132683527D01*
X191138633Y-132683527D01*
X191043395Y-132731146D01*
X190995776Y-132778765D01*
X190948157Y-132874003D01*
X190948157Y-133112098D01*
X190995776Y-133207336D01*
X191043395Y-133254955D01*
X191138633Y-133302574D01*
X191424348Y-133302574D01*
X191519586Y-133254955D01*
X191567205Y-133207336D01*
%TO.C,SW2*%
X215709333Y-92856761D02*
X215566476Y-92904380D01*
X215328380Y-92904380D01*
X215233142Y-92856761D01*
X215185523Y-92809142D01*
X215137904Y-92713904D01*
X215137904Y-92618666D01*
X215185523Y-92523428D01*
X215233142Y-92475809D01*
X215328380Y-92428190D01*
X215518857Y-92380571D01*
X215614095Y-92332952D01*
X215661714Y-92285333D01*
X215709333Y-92190095D01*
X215709333Y-92094857D01*
X215661714Y-91999619D01*
X215614095Y-91952000D01*
X215518857Y-91904380D01*
X215280761Y-91904380D01*
X215137904Y-91952000D01*
X214804571Y-91904380D02*
X214566476Y-92904380D01*
X214376000Y-92190095D01*
X214185523Y-92904380D01*
X213947428Y-91904380D01*
X213614095Y-91999619D02*
X213566476Y-91952000D01*
X213471238Y-91904380D01*
X213233142Y-91904380D01*
X213137904Y-91952000D01*
X213090285Y-91999619D01*
X213042666Y-92094857D01*
X213042666Y-92190095D01*
X213090285Y-92332952D01*
X213661714Y-92904380D01*
X213042666Y-92904380D01*
%TO.C,SW1*%
X193614824Y-84958955D02*
X193471967Y-85006574D01*
X193233871Y-85006574D01*
X193138633Y-84958955D01*
X193091014Y-84911336D01*
X193043395Y-84816098D01*
X193043395Y-84720860D01*
X193091014Y-84625622D01*
X193138633Y-84578003D01*
X193233871Y-84530384D01*
X193424348Y-84482765D01*
X193519586Y-84435146D01*
X193567205Y-84387527D01*
X193614824Y-84292289D01*
X193614824Y-84197051D01*
X193567205Y-84101813D01*
X193519586Y-84054194D01*
X193424348Y-84006574D01*
X193186252Y-84006574D01*
X193043395Y-84054194D01*
X192710062Y-84006574D02*
X192471967Y-85006574D01*
X192281491Y-84292289D01*
X192091014Y-85006574D01*
X191852919Y-84006574D01*
X190948157Y-85006574D02*
X191519586Y-85006574D01*
X191233871Y-85006574D02*
X191233871Y-84006574D01*
X191329110Y-84149432D01*
X191424348Y-84244670D01*
X191519586Y-84292289D01*
X215709333Y-69238761D02*
X215566476Y-69286380D01*
X215328380Y-69286380D01*
X215233142Y-69238761D01*
X215185523Y-69191142D01*
X215137904Y-69095904D01*
X215137904Y-69000666D01*
X215185523Y-68905428D01*
X215233142Y-68857809D01*
X215328380Y-68810190D01*
X215518857Y-68762571D01*
X215614095Y-68714952D01*
X215661714Y-68667333D01*
X215709333Y-68572095D01*
X215709333Y-68476857D01*
X215661714Y-68381619D01*
X215614095Y-68334000D01*
X215518857Y-68286380D01*
X215280761Y-68286380D01*
X215137904Y-68334000D01*
X214804571Y-68286380D02*
X214566476Y-69286380D01*
X214376000Y-68572095D01*
X214185523Y-69286380D01*
X213947428Y-68286380D01*
X213042666Y-69286380D02*
X213614095Y-69286380D01*
X213328380Y-69286380D02*
X213328380Y-68286380D01*
X213423619Y-68429238D01*
X213518857Y-68524476D01*
X213614095Y-68572095D01*
%TO.C,SW3*%
X221376000Y-118550000D02*
X216876000Y-118550000D01*
X221376000Y-119150000D02*
X221376000Y-118550000D01*
X210566000Y-117765000D02*
X219456000Y-117765000D01*
X212376000Y-120550000D02*
X212876000Y-121050000D01*
X219456000Y-117765000D02*
X219456000Y-118146000D01*
X215876000Y-116550000D02*
X216376000Y-117050000D01*
X212376000Y-117050000D02*
X212376000Y-120550000D01*
X216376000Y-118050000D02*
X216376000Y-117050000D01*
X212876000Y-121050000D02*
X215376000Y-121050000D01*
X216876000Y-122550000D02*
X216876000Y-123250000D01*
X221376000Y-123250000D02*
X221376000Y-122750000D01*
X212376000Y-117050000D02*
X212876000Y-116550000D01*
X208026000Y-123734000D02*
X208026000Y-124115000D01*
X212876000Y-116550000D02*
X215876000Y-116550000D01*
X211911838Y-124115000D02*
X210516734Y-124113475D01*
X219456000Y-121194000D02*
X219456000Y-122210000D01*
X208026000Y-120305000D02*
X208026000Y-120686000D01*
X219456000Y-122210000D02*
X214376000Y-122210000D01*
X216876000Y-123250000D02*
X221376000Y-123250000D01*
X216876000Y-122550000D02*
G75*
G03*
X215376000Y-121050000I-1500000J0D01*
G01*
X214376000Y-122209999D02*
G75*
G03*
X211911838Y-124133960I0J-2540000D01*
G01*
X210566000Y-117765000D02*
G75*
G03*
X208026000Y-120305000I1J-2540001D01*
G01*
X216376000Y-118050000D02*
G75*
G03*
X216876000Y-118550000I500000J0D01*
G01*
%TO.C,SW2*%
X208026000Y-96207000D02*
X208026000Y-96588000D01*
X219456000Y-93667000D02*
X219456000Y-94048000D01*
X212376000Y-96452000D02*
X212876000Y-96952000D01*
X212376000Y-92952000D02*
X212876000Y-92452000D01*
X216876000Y-98452000D02*
X216876000Y-99152000D01*
X219456000Y-98112000D02*
X214376000Y-98112000D01*
X210566000Y-93667000D02*
X219456000Y-93667000D01*
X216376000Y-93952000D02*
X216376000Y-92952000D01*
X208026000Y-99636000D02*
X208026000Y-100017000D01*
X221376000Y-99152000D02*
X221376000Y-98652000D01*
X221376000Y-94452000D02*
X216876000Y-94452000D01*
X212876000Y-96952000D02*
X215376000Y-96952000D01*
X212876000Y-92452000D02*
X215876000Y-92452000D01*
X215876000Y-92452000D02*
X216376000Y-92952000D01*
X211911838Y-100017000D02*
X210516734Y-100015475D01*
X216876000Y-99152000D02*
X221376000Y-99152000D01*
X221376000Y-95052000D02*
X221376000Y-94452000D01*
X219456000Y-97096000D02*
X219456000Y-98112000D01*
X212376000Y-92952000D02*
X212376000Y-96452000D01*
X216376000Y-93952000D02*
G75*
G03*
X216876000Y-94452000I500000J0D01*
G01*
X214376000Y-98111999D02*
G75*
G03*
X211911838Y-100035960I0J-2540000D01*
G01*
X210566000Y-93667000D02*
G75*
G03*
X208026000Y-96207000I1J-2540001D01*
G01*
X216876000Y-98452000D02*
G75*
G03*
X215376000Y-96952000I-1500000J0D01*
G01*
%TO.C,SW1*%
X212376000Y-72254000D02*
X212876000Y-72754000D01*
X210566000Y-69469000D02*
X219456000Y-69469000D01*
X212376000Y-68754000D02*
X212876000Y-68254000D01*
X215876000Y-68254000D02*
X216376000Y-68754000D01*
X216876000Y-74254000D02*
X216876000Y-74954000D01*
X208026000Y-75438000D02*
X208026000Y-75819000D01*
X221376000Y-70254000D02*
X216876000Y-70254000D01*
X216876000Y-74954000D02*
X221376000Y-74954000D01*
X212376000Y-68754000D02*
X212376000Y-72254000D01*
X208026000Y-72009000D02*
X208026000Y-72390000D01*
X219456000Y-73914000D02*
X214376000Y-73914000D01*
X221376000Y-70854000D02*
X221376000Y-70254000D01*
X212876000Y-68254000D02*
X215876000Y-68254000D01*
X212876000Y-72754000D02*
X215376000Y-72754000D01*
X219456000Y-72898000D02*
X219456000Y-73914000D01*
X221376000Y-74954000D02*
X221376000Y-74454000D01*
X219456000Y-69469000D02*
X219456000Y-69850000D01*
X211911838Y-75819000D02*
X210516734Y-75817475D01*
X216376000Y-69754000D02*
X216376000Y-68754000D01*
X216376000Y-69754000D02*
G75*
G03*
X216876000Y-70254000I500000J0D01*
G01*
X214376000Y-73913999D02*
G75*
G03*
X211911838Y-75837960I0J-2540000D01*
G01*
X210566000Y-69469000D02*
G75*
G03*
X208026000Y-72009000I1J-2540001D01*
G01*
X216876000Y-74254000D02*
G75*
G03*
X215376000Y-72754000I-1500000J0D01*
G01*
%TO.C,kibuzzard-6399CA4F*%
G36*
X201062977Y-100126043D02*
G01*
X201053253Y-100212165D01*
X201024083Y-100270506D01*
X200913752Y-100314956D01*
X200846283Y-100303049D01*
X200799452Y-100267331D01*
X200772067Y-100212165D01*
X200762939Y-100141918D01*
X200763733Y-100114931D01*
X200767702Y-100083181D01*
X201062977Y-100083181D01*
X201062977Y-100126043D01*
G37*
G36*
X201084408Y-101774574D02*
G01*
X200515818Y-101395514D01*
X200515818Y-100976943D01*
X200581964Y-100976943D01*
X200599427Y-101092831D01*
X200651814Y-101191256D01*
X200739920Y-101259518D01*
X200862952Y-101284918D01*
X200960583Y-101265868D01*
X201051864Y-101215068D01*
X201137589Y-101143631D01*
X201216964Y-101062668D01*
X201262208Y-101015043D01*
X201316183Y-100964243D01*
X201372539Y-100923762D01*
X201424927Y-100907093D01*
X201424927Y-101329368D01*
X201586852Y-101329368D01*
X201586852Y-100688018D01*
X201547164Y-100684049D01*
X201513827Y-100684843D01*
X201437627Y-100692185D01*
X201367777Y-100714212D01*
X201303681Y-100747549D01*
X201244745Y-100788824D01*
X201190374Y-100835656D01*
X201139970Y-100885662D01*
X201092544Y-100935668D01*
X201047102Y-100982499D01*
X200961377Y-101057112D01*
X200877239Y-101086481D01*
X200784371Y-101049968D01*
X200751827Y-100957893D01*
X200774052Y-100861056D01*
X200848664Y-100761043D01*
X200712139Y-100664206D01*
X200654195Y-100732667D01*
X200613714Y-100811049D01*
X200589902Y-100894195D01*
X200581964Y-100976943D01*
X200515818Y-100976943D01*
X200515818Y-100141918D01*
X200593077Y-100141918D01*
X200597839Y-100222087D01*
X200612127Y-100294318D01*
X200636336Y-100357818D01*
X200670864Y-100411793D01*
X200771670Y-100487199D01*
X200838147Y-100506845D01*
X200915339Y-100513393D01*
X200997095Y-100504662D01*
X201070914Y-100478468D01*
X201132430Y-100432034D01*
X201177277Y-100362581D01*
X201268558Y-100419731D01*
X201373333Y-100478468D01*
X201482871Y-100533237D01*
X201586852Y-100578481D01*
X201586852Y-100373693D01*
X201493388Y-100334204D01*
X201403496Y-100288762D01*
X201314794Y-100238557D01*
X201224902Y-100184781D01*
X201224902Y-100083181D01*
X201586852Y-100083181D01*
X201586852Y-99887918D01*
X200618477Y-99887918D01*
X200606570Y-99950624D01*
X200598633Y-100019681D01*
X200594664Y-100086356D01*
X200593077Y-100141918D01*
X200515818Y-100141918D01*
X200515818Y-99821772D01*
X201652998Y-99821772D01*
X201652998Y-101395514D01*
X201084408Y-101774574D01*
G37*
%TO.C,kibuzzard-6399CA47*%
G36*
X199393491Y-126856361D02*
G01*
X198830458Y-126481006D01*
X198830458Y-126219597D01*
X198907716Y-126219597D01*
X199728454Y-126219597D01*
X199728454Y-126414860D01*
X199890379Y-126414860D01*
X199890379Y-125817960D01*
X199728454Y-125817960D01*
X199728454Y-126024335D01*
X199179178Y-126024335D01*
X199235535Y-125922735D01*
X199274429Y-125825897D01*
X199112504Y-125762397D01*
X199075991Y-125844947D01*
X199026778Y-125933847D01*
X198969628Y-126017985D01*
X198907716Y-126086247D01*
X198907716Y-126219597D01*
X198830458Y-126219597D01*
X198830458Y-125232172D01*
X198896603Y-125232172D01*
X198901366Y-125312341D01*
X198915653Y-125384572D01*
X198939863Y-125448072D01*
X198974391Y-125502047D01*
X199075197Y-125577454D01*
X199141674Y-125597099D01*
X199218866Y-125603647D01*
X199300622Y-125594916D01*
X199374441Y-125568722D01*
X199435957Y-125522288D01*
X199480804Y-125452835D01*
X199572085Y-125509985D01*
X199676860Y-125568722D01*
X199786397Y-125623491D01*
X199890379Y-125668735D01*
X199890379Y-125463947D01*
X199796914Y-125424458D01*
X199707022Y-125379016D01*
X199618321Y-125328812D01*
X199528428Y-125275035D01*
X199528428Y-125173435D01*
X199890379Y-125173435D01*
X199890379Y-124978172D01*
X198922003Y-124978172D01*
X198910097Y-125040879D01*
X198902160Y-125109935D01*
X198898191Y-125176610D01*
X198896603Y-125232172D01*
X198830458Y-125232172D01*
X198830458Y-124912027D01*
X199956524Y-124912027D01*
X199956524Y-126481006D01*
X199393491Y-126856361D01*
G37*
G36*
X199366503Y-125216297D02*
G01*
X199356780Y-125302419D01*
X199327610Y-125360760D01*
X199217278Y-125405210D01*
X199149810Y-125393304D01*
X199102979Y-125357585D01*
X199075594Y-125302419D01*
X199066466Y-125232172D01*
X199067260Y-125205185D01*
X199071228Y-125173435D01*
X199366503Y-125173435D01*
X199366503Y-125216297D01*
G37*
%TO.C,kibuzzard-6399CA1D*%
G36*
X194837077Y-125081081D02*
G01*
X195325379Y-125569382D01*
X195618360Y-125862363D01*
X195859704Y-126103708D01*
X195906477Y-126150480D01*
X195770027Y-126832730D01*
X195087777Y-126969180D01*
X195041005Y-126922407D01*
X194582264Y-126463666D01*
X194755632Y-126463666D01*
X194785192Y-126553094D01*
X194846432Y-126634291D01*
X194928689Y-126696716D01*
X195018304Y-126726838D01*
X195115278Y-126724654D01*
X195192769Y-126701187D01*
X195274257Y-126658285D01*
X195359745Y-126595949D01*
X195449232Y-126514180D01*
X195531527Y-126424167D01*
X195594319Y-126338223D01*
X195637607Y-126256349D01*
X195661390Y-126178543D01*
X195663885Y-126081257D01*
X195633951Y-125991454D01*
X195571587Y-125909135D01*
X195489269Y-125846773D01*
X195399466Y-125816838D01*
X195302180Y-125819333D01*
X195224374Y-125843116D01*
X195142500Y-125886404D01*
X195056556Y-125949196D01*
X194966543Y-126031492D01*
X194885300Y-126120592D01*
X194823420Y-126206045D01*
X194780904Y-126287850D01*
X194757752Y-126366006D01*
X194755632Y-126463666D01*
X194582264Y-126463666D01*
X194018378Y-125899780D01*
X193971605Y-125853008D01*
X193997423Y-125827190D01*
X194090968Y-125827190D01*
X194126890Y-125879949D01*
X194170107Y-125934392D01*
X194214446Y-125984345D01*
X194252612Y-126024756D01*
X194312668Y-126078076D01*
X194373846Y-126119048D01*
X194435866Y-126146831D01*
X194498447Y-126160582D01*
X194623049Y-126142622D01*
X194683945Y-126109507D01*
X194743159Y-126059555D01*
X194794796Y-125995570D01*
X194828471Y-125924851D01*
X194839136Y-125848519D01*
X194821737Y-125767696D01*
X194926693Y-125743562D01*
X195042314Y-125711008D01*
X195158496Y-125672281D01*
X195264014Y-125630747D01*
X195119207Y-125485940D01*
X195025195Y-125524106D01*
X194929500Y-125555537D01*
X194831278Y-125582759D01*
X194729689Y-125608297D01*
X194657847Y-125536455D01*
X194913784Y-125280517D01*
X194775712Y-125142446D01*
X194090968Y-125827190D01*
X193997423Y-125827190D01*
X194790305Y-125034308D01*
X194837077Y-125081081D01*
G37*
G36*
X194573657Y-125681261D02*
G01*
X194627679Y-125749034D01*
X194648305Y-125810914D01*
X194601720Y-125920361D01*
X194545594Y-125959650D01*
X194487222Y-125967507D01*
X194428850Y-125947862D01*
X194372723Y-125904645D01*
X194354202Y-125885001D01*
X194334558Y-125859744D01*
X194543349Y-125650953D01*
X194573657Y-125681261D01*
G37*
G36*
X195452599Y-126028124D02*
G01*
X195453375Y-126029593D01*
X195487398Y-126094072D01*
X195477295Y-126177421D01*
X195445864Y-126241903D01*
X195394976Y-126312623D01*
X195324630Y-126389579D01*
X195248299Y-126459300D01*
X195177953Y-126509815D01*
X195113595Y-126541121D01*
X195030247Y-126551223D01*
X194964298Y-126516425D01*
X194930201Y-126451177D01*
X194940163Y-126367690D01*
X194971157Y-126303019D01*
X194979078Y-126291918D01*
X195099002Y-126291918D01*
X195122575Y-126360393D01*
X195189366Y-126382282D01*
X195259523Y-126346923D01*
X195294322Y-126277326D01*
X195271872Y-126211097D01*
X195203958Y-126186962D01*
X195134923Y-126222322D01*
X195099002Y-126291918D01*
X194979078Y-126291918D01*
X195021485Y-126232487D01*
X195091144Y-126156092D01*
X195168162Y-126085809D01*
X195239069Y-126035108D01*
X195303864Y-126003989D01*
X195387352Y-125994026D01*
X195452599Y-126028124D01*
G37*
G36*
X216668166Y-125781067D02*
G01*
X216722188Y-125848840D01*
X216742814Y-125910720D01*
X216696229Y-126020167D01*
X216640103Y-126059456D01*
X216581731Y-126067313D01*
X216523359Y-126047668D01*
X216467232Y-126004451D01*
X216448711Y-125984807D01*
X216429067Y-125959550D01*
X216637858Y-125750759D01*
X216668166Y-125781067D01*
G37*
G36*
X216931586Y-125180887D02*
G01*
X217419888Y-125669188D01*
X217712869Y-125962169D01*
X217954213Y-126203514D01*
X218000986Y-126250286D01*
X217864536Y-126932536D01*
X217182286Y-127068986D01*
X217135514Y-127022213D01*
X216676773Y-126563472D01*
X216850141Y-126563472D01*
X216879701Y-126652900D01*
X216940941Y-126734097D01*
X217023198Y-126796522D01*
X217112813Y-126826644D01*
X217209787Y-126824460D01*
X217287278Y-126800993D01*
X217368766Y-126758091D01*
X217454254Y-126695755D01*
X217543741Y-126613986D01*
X217626036Y-126523973D01*
X217688828Y-126438029D01*
X217732116Y-126356155D01*
X217755899Y-126278349D01*
X217758394Y-126181063D01*
X217728460Y-126091260D01*
X217666096Y-126008941D01*
X217583778Y-125946579D01*
X217493975Y-125916644D01*
X217396689Y-125919139D01*
X217318883Y-125942922D01*
X217237009Y-125986210D01*
X217151065Y-126049002D01*
X217061052Y-126131298D01*
X216979809Y-126220398D01*
X216917929Y-126305851D01*
X216875413Y-126387656D01*
X216852261Y-126465812D01*
X216850141Y-126563472D01*
X216676773Y-126563472D01*
X216112887Y-125999586D01*
X216066114Y-125952814D01*
X216091932Y-125926996D01*
X216185477Y-125926996D01*
X216221399Y-125979755D01*
X216264616Y-126034198D01*
X216308955Y-126084151D01*
X216347121Y-126124562D01*
X216407177Y-126177882D01*
X216468355Y-126218854D01*
X216530375Y-126246637D01*
X216592956Y-126260388D01*
X216717558Y-126242428D01*
X216778454Y-126209313D01*
X216837668Y-126159361D01*
X216889305Y-126095376D01*
X216922980Y-126024657D01*
X216933645Y-125948325D01*
X216916246Y-125867502D01*
X217021202Y-125843368D01*
X217136823Y-125810814D01*
X217253005Y-125772087D01*
X217358523Y-125730553D01*
X217213716Y-125585746D01*
X217119704Y-125623912D01*
X217024009Y-125655343D01*
X216925787Y-125682565D01*
X216824198Y-125708103D01*
X216752356Y-125636261D01*
X217008293Y-125380323D01*
X216870221Y-125242252D01*
X216185477Y-125926996D01*
X216091932Y-125926996D01*
X216884814Y-125134114D01*
X216931586Y-125180887D01*
G37*
G36*
X217547108Y-126127930D02*
G01*
X217547884Y-126129399D01*
X217581907Y-126193878D01*
X217571804Y-126277227D01*
X217540373Y-126341709D01*
X217489485Y-126412429D01*
X217419139Y-126489385D01*
X217342808Y-126559106D01*
X217272462Y-126609621D01*
X217208104Y-126640927D01*
X217124756Y-126651029D01*
X217058807Y-126616231D01*
X217024710Y-126550983D01*
X217034672Y-126467496D01*
X217065666Y-126402825D01*
X217073587Y-126391724D01*
X217193511Y-126391724D01*
X217217084Y-126460199D01*
X217283875Y-126482088D01*
X217354032Y-126446729D01*
X217388831Y-126377132D01*
X217366381Y-126310903D01*
X217298467Y-126286768D01*
X217229432Y-126322128D01*
X217193511Y-126391724D01*
X217073587Y-126391724D01*
X217115994Y-126332293D01*
X217185653Y-126255898D01*
X217262671Y-126185615D01*
X217333578Y-126134914D01*
X217398373Y-126103795D01*
X217481861Y-126093832D01*
X217547108Y-126127930D01*
G37*
%TO.C,D2*%
X205483046Y-104483411D02*
X205983046Y-105383411D01*
X205983046Y-105383411D02*
X206483046Y-104483411D01*
X206483046Y-105483411D02*
X205483046Y-105483411D01*
X206483046Y-104483411D02*
X205483046Y-104483411D01*
%TO.C,D3*%
X209304000Y-128786000D02*
X209304000Y-129786000D01*
X209304000Y-129786000D02*
X210204000Y-129286000D01*
X210204000Y-129286000D02*
X209304000Y-128786000D01*
X210304000Y-128786000D02*
X210304000Y-129786000D01*
%TO.C,kibuzzard-6399CA47*%
G36*
X221488000Y-77426167D02*
G01*
X220924967Y-77050812D01*
X220924967Y-76789403D01*
X221002225Y-76789403D01*
X221822963Y-76789403D01*
X221822963Y-76984666D01*
X221984888Y-76984666D01*
X221984888Y-76387766D01*
X221822963Y-76387766D01*
X221822963Y-76594141D01*
X221273687Y-76594141D01*
X221330044Y-76492541D01*
X221368938Y-76395703D01*
X221207013Y-76332203D01*
X221170500Y-76414753D01*
X221121287Y-76503653D01*
X221064137Y-76587791D01*
X221002225Y-76656053D01*
X221002225Y-76789403D01*
X220924967Y-76789403D01*
X220924967Y-75801978D01*
X220991112Y-75801978D01*
X220995875Y-75882147D01*
X221010162Y-75954378D01*
X221034372Y-76017878D01*
X221068900Y-76071853D01*
X221169706Y-76147260D01*
X221236183Y-76166905D01*
X221313375Y-76173453D01*
X221395131Y-76164722D01*
X221468950Y-76138528D01*
X221530466Y-76092094D01*
X221575313Y-76022641D01*
X221666594Y-76079791D01*
X221771369Y-76138528D01*
X221880906Y-76193297D01*
X221984888Y-76238541D01*
X221984888Y-76033753D01*
X221891423Y-75994264D01*
X221801531Y-75948822D01*
X221712830Y-75898618D01*
X221622937Y-75844841D01*
X221622937Y-75743241D01*
X221984888Y-75743241D01*
X221984888Y-75547978D01*
X221016512Y-75547978D01*
X221004606Y-75610685D01*
X220996669Y-75679741D01*
X220992700Y-75746416D01*
X220991112Y-75801978D01*
X220924967Y-75801978D01*
X220924967Y-75481833D01*
X222051033Y-75481833D01*
X222051033Y-77050812D01*
X221488000Y-77426167D01*
G37*
G36*
X221461012Y-75786103D02*
G01*
X221451289Y-75872225D01*
X221422119Y-75930566D01*
X221311787Y-75975016D01*
X221244319Y-75963110D01*
X221197488Y-75927391D01*
X221170103Y-75872225D01*
X221160975Y-75801978D01*
X221161769Y-75774991D01*
X221165737Y-75743241D01*
X221461012Y-75743241D01*
X221461012Y-75786103D01*
G37*
G36*
X199366503Y-75686297D02*
G01*
X199356780Y-75772419D01*
X199327610Y-75830760D01*
X199217278Y-75875210D01*
X199149810Y-75863304D01*
X199102979Y-75827585D01*
X199075594Y-75772419D01*
X199066466Y-75702172D01*
X199067260Y-75675185D01*
X199071228Y-75643435D01*
X199366503Y-75643435D01*
X199366503Y-75686297D01*
G37*
G36*
X199393491Y-77326361D02*
G01*
X198830458Y-76951006D01*
X198830458Y-76689597D01*
X198907716Y-76689597D01*
X199728454Y-76689597D01*
X199728454Y-76884860D01*
X199890379Y-76884860D01*
X199890379Y-76287960D01*
X199728454Y-76287960D01*
X199728454Y-76494335D01*
X199179178Y-76494335D01*
X199235535Y-76392735D01*
X199274429Y-76295897D01*
X199112504Y-76232397D01*
X199075991Y-76314947D01*
X199026778Y-76403847D01*
X198969628Y-76487985D01*
X198907716Y-76556247D01*
X198907716Y-76689597D01*
X198830458Y-76689597D01*
X198830458Y-75702172D01*
X198896603Y-75702172D01*
X198901366Y-75782341D01*
X198915653Y-75854572D01*
X198939863Y-75918072D01*
X198974391Y-75972047D01*
X199075197Y-76047454D01*
X199141674Y-76067099D01*
X199218866Y-76073647D01*
X199300622Y-76064916D01*
X199374441Y-76038722D01*
X199435957Y-75992288D01*
X199480804Y-75922835D01*
X199572085Y-75979985D01*
X199676860Y-76038722D01*
X199786397Y-76093491D01*
X199890379Y-76138735D01*
X199890379Y-75933947D01*
X199796914Y-75894458D01*
X199707022Y-75849016D01*
X199618321Y-75798812D01*
X199528428Y-75745035D01*
X199528428Y-75643435D01*
X199890379Y-75643435D01*
X199890379Y-75448172D01*
X198922003Y-75448172D01*
X198910097Y-75510879D01*
X198902160Y-75579935D01*
X198898191Y-75646610D01*
X198896603Y-75702172D01*
X198830458Y-75702172D01*
X198830458Y-75382027D01*
X199956524Y-75382027D01*
X199956524Y-76951006D01*
X199393491Y-77326361D01*
G37*
%TO.C,kibuzzard-6399CA3A*%
G36*
X215284667Y-127508000D02*
G01*
X214869624Y-128130565D01*
X212451333Y-128130565D01*
X212451333Y-128064419D01*
X214119266Y-128064419D01*
X214520903Y-128064419D01*
X214520903Y-127254794D01*
X214551066Y-127151606D01*
X214627266Y-127124619D01*
X214725691Y-127140494D01*
X214778078Y-127161131D01*
X214803478Y-127003969D01*
X214782047Y-126992856D01*
X214738391Y-126976187D01*
X214672510Y-126961106D01*
X214584403Y-126954756D01*
X214467722Y-126974798D01*
X214387553Y-127034925D01*
X214341119Y-127133548D01*
X214325641Y-127269081D01*
X214325641Y-127902494D01*
X214119266Y-127902494D01*
X214119266Y-128064419D01*
X212451333Y-128064419D01*
X212451333Y-127464344D01*
X212517478Y-127464344D01*
X212525813Y-127579834D01*
X212550816Y-127681831D01*
X212590702Y-127769739D01*
X212643685Y-127842963D01*
X212708772Y-127900906D01*
X212784972Y-127942975D01*
X212870499Y-127968573D01*
X212963566Y-127977106D01*
X213058022Y-127968375D01*
X213131841Y-127948531D01*
X213185022Y-127924719D01*
X213217566Y-127905669D01*
X213166766Y-127750094D01*
X213078660Y-127790575D01*
X212960391Y-127807244D01*
X212870697Y-127790575D01*
X212792910Y-127735013D01*
X212737347Y-127631031D01*
X212721274Y-127558006D01*
X212715916Y-127469106D01*
X212722354Y-127365654D01*
X212726574Y-127346869D01*
X213314403Y-127346869D01*
X213320952Y-127430411D01*
X213340597Y-127506413D01*
X213371950Y-127573484D01*
X213413622Y-127630238D01*
X213465018Y-127675878D01*
X213525541Y-127709613D01*
X213593407Y-127730448D01*
X213666828Y-127737394D01*
X213741243Y-127730448D01*
X213808910Y-127709613D01*
X213868838Y-127675878D01*
X213920035Y-127630238D01*
X213961508Y-127573484D01*
X213992266Y-127506413D01*
X214011316Y-127430411D01*
X214017666Y-127346869D01*
X214011316Y-127262136D01*
X213992266Y-127185738D01*
X213961707Y-127118467D01*
X213920828Y-127061119D01*
X213870227Y-127014684D01*
X213810497Y-126980156D01*
X213742433Y-126958725D01*
X213666828Y-126951581D01*
X213591224Y-126958725D01*
X213523160Y-126980156D01*
X213463232Y-127014684D01*
X213412035Y-127061119D01*
X213370561Y-127118467D01*
X213339803Y-127185738D01*
X213320753Y-127262136D01*
X213314403Y-127346869D01*
X212726574Y-127346869D01*
X212741669Y-127279665D01*
X212773860Y-127211138D01*
X212850258Y-127143867D01*
X212963566Y-127121444D01*
X213089772Y-127138906D01*
X213169941Y-127173831D01*
X213219153Y-127019844D01*
X213107235Y-126973012D01*
X213031233Y-126956939D01*
X212944516Y-126951581D01*
X212816810Y-126966398D01*
X212710977Y-127010848D01*
X212627016Y-127084931D01*
X212579093Y-127158651D01*
X212544863Y-127246459D01*
X212524325Y-127348357D01*
X212517478Y-127464344D01*
X212451333Y-127464344D01*
X212451333Y-126885435D01*
X214869624Y-126885435D01*
X215284667Y-127508000D01*
G37*
G36*
X213730527Y-127136922D02*
G01*
X213778747Y-127183356D01*
X213807918Y-127254794D01*
X213817641Y-127345281D01*
X213808711Y-127435570D01*
X213781922Y-127506413D01*
X213735289Y-127552252D01*
X213666828Y-127567531D01*
X213599955Y-127552252D01*
X213551735Y-127506413D01*
X213522564Y-127435570D01*
X213512841Y-127345281D01*
X213521771Y-127254794D01*
X213548560Y-127183356D01*
X213595193Y-127136922D01*
X213663653Y-127121444D01*
X213730527Y-127136922D01*
G37*
%TO.C,kibuzzard-6399CA1D*%
G36*
X216948410Y-100864683D02*
G01*
X217002432Y-100932456D01*
X217023058Y-100994336D01*
X216976473Y-101103783D01*
X216920347Y-101143072D01*
X216861975Y-101150929D01*
X216803603Y-101131284D01*
X216747476Y-101088067D01*
X216728955Y-101068423D01*
X216709311Y-101043166D01*
X216918102Y-100834375D01*
X216948410Y-100864683D01*
G37*
G36*
X217827352Y-101211546D02*
G01*
X217828128Y-101213015D01*
X217862151Y-101277494D01*
X217852048Y-101360843D01*
X217820617Y-101425325D01*
X217769729Y-101496045D01*
X217699383Y-101573001D01*
X217623052Y-101642722D01*
X217552706Y-101693237D01*
X217488348Y-101724543D01*
X217405000Y-101734645D01*
X217339051Y-101699847D01*
X217304954Y-101634599D01*
X217314916Y-101551112D01*
X217345910Y-101486441D01*
X217353831Y-101475340D01*
X217473755Y-101475340D01*
X217497328Y-101543815D01*
X217564119Y-101565704D01*
X217634276Y-101530345D01*
X217669075Y-101460748D01*
X217646625Y-101394519D01*
X217578711Y-101370384D01*
X217509676Y-101405744D01*
X217473755Y-101475340D01*
X217353831Y-101475340D01*
X217396238Y-101415909D01*
X217465897Y-101339514D01*
X217542915Y-101269231D01*
X217613822Y-101218530D01*
X217678617Y-101187411D01*
X217762105Y-101177448D01*
X217827352Y-101211546D01*
G37*
G36*
X217211830Y-100264503D02*
G01*
X217700132Y-100752804D01*
X217993113Y-101045785D01*
X218234457Y-101287130D01*
X218281230Y-101333902D01*
X218144780Y-102016152D01*
X217462530Y-102152602D01*
X217415758Y-102105829D01*
X216957017Y-101647088D01*
X217130385Y-101647088D01*
X217159945Y-101736516D01*
X217221185Y-101817713D01*
X217303442Y-101880138D01*
X217393057Y-101910260D01*
X217490031Y-101908076D01*
X217567522Y-101884609D01*
X217649010Y-101841707D01*
X217734498Y-101779371D01*
X217823985Y-101697602D01*
X217906280Y-101607589D01*
X217969072Y-101521645D01*
X218012360Y-101439771D01*
X218036143Y-101361965D01*
X218038638Y-101264679D01*
X218008704Y-101174876D01*
X217946340Y-101092557D01*
X217864022Y-101030195D01*
X217774219Y-101000260D01*
X217676933Y-101002755D01*
X217599127Y-101026538D01*
X217517253Y-101069826D01*
X217431309Y-101132618D01*
X217341296Y-101214914D01*
X217260053Y-101304014D01*
X217198173Y-101389467D01*
X217155657Y-101471272D01*
X217132505Y-101549428D01*
X217130385Y-101647088D01*
X216957017Y-101647088D01*
X216393131Y-101083202D01*
X216346358Y-101036430D01*
X216372176Y-101010612D01*
X216465721Y-101010612D01*
X216501643Y-101063371D01*
X216544860Y-101117814D01*
X216589199Y-101167767D01*
X216627365Y-101208178D01*
X216687421Y-101261498D01*
X216748599Y-101302470D01*
X216810619Y-101330253D01*
X216873200Y-101344004D01*
X216997802Y-101326044D01*
X217058698Y-101292929D01*
X217117912Y-101242977D01*
X217169549Y-101178992D01*
X217203224Y-101108273D01*
X217213889Y-101031941D01*
X217196490Y-100951118D01*
X217301446Y-100926984D01*
X217417067Y-100894430D01*
X217533249Y-100855703D01*
X217638767Y-100814169D01*
X217493960Y-100669362D01*
X217399948Y-100707528D01*
X217304253Y-100738959D01*
X217206031Y-100766181D01*
X217104442Y-100791719D01*
X217032600Y-100719877D01*
X217288537Y-100463939D01*
X217150465Y-100325868D01*
X216465721Y-101010612D01*
X216372176Y-101010612D01*
X217165058Y-100217730D01*
X217211830Y-100264503D01*
G37*
%TO.C,kibuzzard-6399CA3A*%
G36*
X215453251Y-103363486D02*
G01*
X215038208Y-103986051D01*
X212619917Y-103986051D01*
X212619917Y-103919905D01*
X214287850Y-103919905D01*
X214689487Y-103919905D01*
X214689487Y-103110280D01*
X214719650Y-103007092D01*
X214795850Y-102980105D01*
X214894275Y-102995980D01*
X214946662Y-103016617D01*
X214972062Y-102859455D01*
X214950631Y-102848342D01*
X214906975Y-102831673D01*
X214841094Y-102816592D01*
X214752987Y-102810242D01*
X214636306Y-102830284D01*
X214556137Y-102890411D01*
X214509703Y-102989034D01*
X214494225Y-103124567D01*
X214494225Y-103757980D01*
X214287850Y-103757980D01*
X214287850Y-103919905D01*
X212619917Y-103919905D01*
X212619917Y-103319830D01*
X212686062Y-103319830D01*
X212694397Y-103435320D01*
X212719400Y-103537317D01*
X212759286Y-103625225D01*
X212812269Y-103698449D01*
X212877356Y-103756392D01*
X212953556Y-103798461D01*
X213039083Y-103824059D01*
X213132150Y-103832592D01*
X213226606Y-103823861D01*
X213300425Y-103804017D01*
X213353606Y-103780205D01*
X213386150Y-103761155D01*
X213335350Y-103605580D01*
X213247244Y-103646061D01*
X213128975Y-103662730D01*
X213039281Y-103646061D01*
X212961494Y-103590499D01*
X212905931Y-103486517D01*
X212889858Y-103413492D01*
X212884500Y-103324592D01*
X212890938Y-103221140D01*
X212895158Y-103202355D01*
X213482987Y-103202355D01*
X213489536Y-103285897D01*
X213509181Y-103361899D01*
X213540534Y-103428970D01*
X213582206Y-103485724D01*
X213633602Y-103531364D01*
X213694125Y-103565099D01*
X213761991Y-103585934D01*
X213835412Y-103592880D01*
X213909827Y-103585934D01*
X213977494Y-103565099D01*
X214037422Y-103531364D01*
X214088619Y-103485724D01*
X214130092Y-103428970D01*
X214160850Y-103361899D01*
X214179900Y-103285897D01*
X214186250Y-103202355D01*
X214179900Y-103117622D01*
X214160850Y-103041224D01*
X214130291Y-102973953D01*
X214089412Y-102916605D01*
X214038811Y-102870170D01*
X213979081Y-102835642D01*
X213911017Y-102814211D01*
X213835412Y-102807067D01*
X213759808Y-102814211D01*
X213691744Y-102835642D01*
X213631816Y-102870170D01*
X213580619Y-102916605D01*
X213539145Y-102973953D01*
X213508387Y-103041224D01*
X213489337Y-103117622D01*
X213482987Y-103202355D01*
X212895158Y-103202355D01*
X212910253Y-103135151D01*
X212942444Y-103066624D01*
X213018842Y-102999353D01*
X213132150Y-102976930D01*
X213258356Y-102994392D01*
X213338525Y-103029317D01*
X213387737Y-102875330D01*
X213275819Y-102828498D01*
X213199817Y-102812425D01*
X213113100Y-102807067D01*
X212985394Y-102821884D01*
X212879561Y-102866334D01*
X212795600Y-102940417D01*
X212747677Y-103014137D01*
X212713447Y-103101945D01*
X212692909Y-103203843D01*
X212686062Y-103319830D01*
X212619917Y-103319830D01*
X212619917Y-102740921D01*
X215038208Y-102740921D01*
X215453251Y-103363486D01*
G37*
G36*
X213899111Y-102992408D02*
G01*
X213947331Y-103038842D01*
X213976502Y-103110280D01*
X213986225Y-103200767D01*
X213977295Y-103291056D01*
X213950506Y-103361899D01*
X213903873Y-103407738D01*
X213835412Y-103423017D01*
X213768539Y-103407738D01*
X213720319Y-103361899D01*
X213691148Y-103291056D01*
X213681425Y-103200767D01*
X213690355Y-103110280D01*
X213717144Y-103038842D01*
X213763777Y-102992408D01*
X213832237Y-102976930D01*
X213899111Y-102992408D01*
G37*
%TO.C,kibuzzard-6399CA1D*%
G36*
X195732843Y-101111740D02*
G01*
X195733619Y-101113209D01*
X195767642Y-101177688D01*
X195757539Y-101261037D01*
X195726108Y-101325519D01*
X195675220Y-101396239D01*
X195604874Y-101473195D01*
X195528543Y-101542916D01*
X195458197Y-101593431D01*
X195393839Y-101624737D01*
X195310491Y-101634839D01*
X195244542Y-101600041D01*
X195210445Y-101534793D01*
X195220407Y-101451306D01*
X195251401Y-101386635D01*
X195259322Y-101375534D01*
X195379246Y-101375534D01*
X195402819Y-101444009D01*
X195469610Y-101465898D01*
X195539767Y-101430539D01*
X195574566Y-101360942D01*
X195552116Y-101294713D01*
X195484202Y-101270578D01*
X195415167Y-101305938D01*
X195379246Y-101375534D01*
X195259322Y-101375534D01*
X195301729Y-101316103D01*
X195371388Y-101239708D01*
X195448406Y-101169425D01*
X195519313Y-101118724D01*
X195584108Y-101087605D01*
X195667596Y-101077642D01*
X195732843Y-101111740D01*
G37*
G36*
X195117321Y-100164697D02*
G01*
X195605623Y-100652998D01*
X195898604Y-100945979D01*
X196139948Y-101187324D01*
X196186721Y-101234096D01*
X196050271Y-101916346D01*
X195368021Y-102052796D01*
X195321249Y-102006023D01*
X194862508Y-101547282D01*
X195035876Y-101547282D01*
X195065436Y-101636710D01*
X195126676Y-101717907D01*
X195208933Y-101780332D01*
X195298548Y-101810454D01*
X195395522Y-101808270D01*
X195473013Y-101784803D01*
X195554501Y-101741901D01*
X195639989Y-101679565D01*
X195729476Y-101597796D01*
X195811771Y-101507783D01*
X195874563Y-101421839D01*
X195917851Y-101339965D01*
X195941634Y-101262159D01*
X195944129Y-101164873D01*
X195914195Y-101075070D01*
X195851831Y-100992751D01*
X195769513Y-100930389D01*
X195679710Y-100900454D01*
X195582424Y-100902949D01*
X195504618Y-100926732D01*
X195422744Y-100970020D01*
X195336800Y-101032812D01*
X195246787Y-101115108D01*
X195165544Y-101204208D01*
X195103664Y-101289661D01*
X195061148Y-101371466D01*
X195037996Y-101449622D01*
X195035876Y-101547282D01*
X194862508Y-101547282D01*
X194298622Y-100983396D01*
X194251849Y-100936624D01*
X194277667Y-100910806D01*
X194371212Y-100910806D01*
X194407134Y-100963565D01*
X194450351Y-101018008D01*
X194494690Y-101067961D01*
X194532856Y-101108372D01*
X194592912Y-101161692D01*
X194654090Y-101202664D01*
X194716110Y-101230447D01*
X194778691Y-101244198D01*
X194903293Y-101226238D01*
X194964189Y-101193123D01*
X195023403Y-101143171D01*
X195075040Y-101079186D01*
X195108715Y-101008467D01*
X195119380Y-100932135D01*
X195101981Y-100851312D01*
X195206937Y-100827178D01*
X195322558Y-100794624D01*
X195438740Y-100755897D01*
X195544258Y-100714363D01*
X195399451Y-100569556D01*
X195305439Y-100607722D01*
X195209744Y-100639153D01*
X195111522Y-100666375D01*
X195009933Y-100691913D01*
X194938091Y-100620071D01*
X195194028Y-100364133D01*
X195055956Y-100226062D01*
X194371212Y-100910806D01*
X194277667Y-100910806D01*
X195070549Y-100117924D01*
X195117321Y-100164697D01*
G37*
G36*
X194853901Y-100764877D02*
G01*
X194907923Y-100832650D01*
X194928549Y-100894530D01*
X194881964Y-101003977D01*
X194825838Y-101043266D01*
X194767466Y-101051123D01*
X194709094Y-101031478D01*
X194652967Y-100988261D01*
X194634446Y-100968617D01*
X194614802Y-100943360D01*
X194823593Y-100734569D01*
X194853901Y-100764877D01*
G37*
%TO.C,kibuzzard-63982C97*%
G36*
X185656060Y-93145181D02*
G01*
X185703685Y-93151135D01*
X185703685Y-93594047D01*
X185639391Y-93594047D01*
X185510208Y-93579462D01*
X185422697Y-93535706D01*
X185356022Y-93370210D01*
X185373882Y-93269007D01*
X185427460Y-93198760D01*
X185510208Y-93157683D01*
X185615579Y-93143991D01*
X185656060Y-93145181D01*
G37*
G36*
X183338310Y-92376435D02*
G01*
X186492672Y-92376435D01*
X186492672Y-94875953D01*
X183338310Y-94875953D01*
X183338310Y-94379860D01*
X183834403Y-94379860D01*
X184796429Y-94379860D01*
X184960735Y-94379860D01*
X185267916Y-94379860D01*
X185327150Y-94239664D01*
X185395313Y-94104825D01*
X185470620Y-93971773D01*
X185551285Y-93836935D01*
X185703685Y-93836935D01*
X185703685Y-94379860D01*
X185996579Y-94379860D01*
X185996579Y-92927297D01*
X185902519Y-92909438D01*
X185798935Y-92897532D01*
X185698922Y-92891578D01*
X185615579Y-92889197D01*
X185495325Y-92896341D01*
X185386978Y-92917772D01*
X185291728Y-92954086D01*
X185210766Y-93005878D01*
X185097657Y-93157088D01*
X185068189Y-93256803D01*
X185058366Y-93372591D01*
X185071463Y-93495225D01*
X185110753Y-93605953D01*
X185180405Y-93698227D01*
X185284585Y-93765497D01*
X185198860Y-93902419D01*
X185110753Y-94059581D01*
X185028600Y-94223888D01*
X184960735Y-94379860D01*
X184796429Y-94379860D01*
X184802382Y-94320328D01*
X184801191Y-94270322D01*
X184790178Y-94156022D01*
X184757138Y-94051247D01*
X184707132Y-93955104D01*
X184645219Y-93866700D01*
X184574972Y-93785142D01*
X184499963Y-93709538D01*
X184424953Y-93638398D01*
X184354707Y-93570235D01*
X184242788Y-93441647D01*
X184198735Y-93315441D01*
X184253503Y-93176138D01*
X184391616Y-93127322D01*
X184536872Y-93160660D01*
X184686891Y-93272578D01*
X184832147Y-93067791D01*
X184729456Y-92980875D01*
X184611882Y-92920153D01*
X184487164Y-92884435D01*
X184363041Y-92872528D01*
X184189210Y-92898722D01*
X184041572Y-92977303D01*
X183939179Y-93109463D01*
X183901079Y-93294010D01*
X183929654Y-93440457D01*
X184005854Y-93577378D01*
X184113010Y-93705966D01*
X184234453Y-93825028D01*
X184305891Y-93892894D01*
X184382091Y-93973857D01*
X184442813Y-94058391D01*
X184467816Y-94136972D01*
X183834403Y-94136972D01*
X183834403Y-94379860D01*
X183338310Y-94379860D01*
X183338310Y-92376435D01*
G37*
%TO.C,kibuzzard-6399CA1D*%
G36*
X217185586Y-76158887D02*
G01*
X217673888Y-76647188D01*
X217966869Y-76940169D01*
X218208213Y-77181514D01*
X218254986Y-77228286D01*
X218118536Y-77910536D01*
X217436286Y-78046986D01*
X217389514Y-78000213D01*
X216930773Y-77541472D01*
X217104141Y-77541472D01*
X217133701Y-77630900D01*
X217194941Y-77712097D01*
X217277198Y-77774522D01*
X217366813Y-77804644D01*
X217463787Y-77802460D01*
X217541278Y-77778993D01*
X217622766Y-77736091D01*
X217708254Y-77673755D01*
X217797741Y-77591986D01*
X217880036Y-77501973D01*
X217942828Y-77416029D01*
X217986116Y-77334155D01*
X218009899Y-77256349D01*
X218012394Y-77159063D01*
X217982460Y-77069260D01*
X217920096Y-76986941D01*
X217837778Y-76924579D01*
X217747975Y-76894644D01*
X217650689Y-76897139D01*
X217572883Y-76920922D01*
X217491009Y-76964210D01*
X217405065Y-77027002D01*
X217315052Y-77109298D01*
X217233809Y-77198398D01*
X217171929Y-77283851D01*
X217129413Y-77365656D01*
X217106261Y-77443812D01*
X217104141Y-77541472D01*
X216930773Y-77541472D01*
X216366887Y-76977586D01*
X216320114Y-76930814D01*
X216345932Y-76904996D01*
X216439477Y-76904996D01*
X216475399Y-76957755D01*
X216518616Y-77012198D01*
X216562955Y-77062151D01*
X216601121Y-77102562D01*
X216661177Y-77155882D01*
X216722355Y-77196854D01*
X216784375Y-77224637D01*
X216846956Y-77238388D01*
X216971558Y-77220428D01*
X217032454Y-77187313D01*
X217091668Y-77137361D01*
X217143305Y-77073376D01*
X217176980Y-77002657D01*
X217187645Y-76926325D01*
X217170246Y-76845502D01*
X217275202Y-76821368D01*
X217390823Y-76788814D01*
X217507005Y-76750087D01*
X217612523Y-76708553D01*
X217467716Y-76563746D01*
X217373704Y-76601912D01*
X217278009Y-76633343D01*
X217179787Y-76660565D01*
X217078198Y-76686103D01*
X217006356Y-76614261D01*
X217262293Y-76358323D01*
X217124221Y-76220252D01*
X216439477Y-76904996D01*
X216345932Y-76904996D01*
X217138814Y-76112114D01*
X217185586Y-76158887D01*
G37*
G36*
X216922166Y-76759067D02*
G01*
X216976188Y-76826840D01*
X216996814Y-76888720D01*
X216950229Y-76998167D01*
X216894103Y-77037456D01*
X216835731Y-77045313D01*
X216777359Y-77025668D01*
X216721232Y-76982451D01*
X216702711Y-76962807D01*
X216683067Y-76937550D01*
X216891858Y-76728759D01*
X216922166Y-76759067D01*
G37*
G36*
X217801108Y-77105930D02*
G01*
X217801884Y-77107399D01*
X217835907Y-77171878D01*
X217825804Y-77255227D01*
X217794373Y-77319709D01*
X217743485Y-77390429D01*
X217673139Y-77467385D01*
X217596808Y-77537106D01*
X217526462Y-77587621D01*
X217462104Y-77618927D01*
X217378756Y-77629029D01*
X217312807Y-77594231D01*
X217278710Y-77528983D01*
X217288672Y-77445496D01*
X217319666Y-77380825D01*
X217327587Y-77369724D01*
X217447511Y-77369724D01*
X217471084Y-77438199D01*
X217537875Y-77460088D01*
X217608032Y-77424729D01*
X217642831Y-77355132D01*
X217620381Y-77288903D01*
X217552467Y-77264768D01*
X217483432Y-77300128D01*
X217447511Y-77369724D01*
X217327587Y-77369724D01*
X217369994Y-77310293D01*
X217439653Y-77233898D01*
X217516671Y-77163615D01*
X217587578Y-77112914D01*
X217652373Y-77081795D01*
X217735861Y-77071832D01*
X217801108Y-77105930D01*
G37*
%TO.C,kibuzzard-6399CA4F*%
G36*
X223178917Y-101874380D02*
G01*
X222610327Y-101495320D01*
X222610327Y-101076749D01*
X222676473Y-101076749D01*
X222693936Y-101192637D01*
X222746323Y-101291062D01*
X222834429Y-101359324D01*
X222957461Y-101384724D01*
X223055092Y-101365674D01*
X223146373Y-101314874D01*
X223232098Y-101243437D01*
X223311473Y-101162474D01*
X223356717Y-101114849D01*
X223410692Y-101064049D01*
X223467048Y-101023568D01*
X223519436Y-101006899D01*
X223519436Y-101429174D01*
X223681361Y-101429174D01*
X223681361Y-100787824D01*
X223641673Y-100783855D01*
X223608336Y-100784649D01*
X223532136Y-100791991D01*
X223462286Y-100814018D01*
X223398190Y-100847355D01*
X223339254Y-100888630D01*
X223284883Y-100935462D01*
X223234479Y-100985468D01*
X223187053Y-101035474D01*
X223141611Y-101082305D01*
X223055886Y-101156918D01*
X222971748Y-101186287D01*
X222878880Y-101149774D01*
X222846336Y-101057699D01*
X222868561Y-100960862D01*
X222943173Y-100860849D01*
X222806648Y-100764012D01*
X222748704Y-100832473D01*
X222708223Y-100910855D01*
X222684411Y-100994001D01*
X222676473Y-101076749D01*
X222610327Y-101076749D01*
X222610327Y-100241724D01*
X222687586Y-100241724D01*
X222692348Y-100321893D01*
X222706636Y-100394124D01*
X222730845Y-100457624D01*
X222765373Y-100511599D01*
X222866179Y-100587005D01*
X222932656Y-100606651D01*
X223009848Y-100613199D01*
X223091604Y-100604468D01*
X223165423Y-100578274D01*
X223226939Y-100531840D01*
X223271786Y-100462387D01*
X223363067Y-100519537D01*
X223467842Y-100578274D01*
X223577380Y-100633043D01*
X223681361Y-100678287D01*
X223681361Y-100473499D01*
X223587897Y-100434010D01*
X223498005Y-100388568D01*
X223409303Y-100338363D01*
X223319411Y-100284587D01*
X223319411Y-100182987D01*
X223681361Y-100182987D01*
X223681361Y-99987724D01*
X222712986Y-99987724D01*
X222701079Y-100050430D01*
X222693142Y-100119487D01*
X222689173Y-100186162D01*
X222687586Y-100241724D01*
X222610327Y-100241724D01*
X222610327Y-99921578D01*
X223747507Y-99921578D01*
X223747507Y-101495320D01*
X223178917Y-101874380D01*
G37*
G36*
X223157486Y-100225849D02*
G01*
X223147762Y-100311971D01*
X223118592Y-100370312D01*
X223008261Y-100414762D01*
X222940792Y-100402855D01*
X222893961Y-100367137D01*
X222866576Y-100311971D01*
X222857448Y-100241724D01*
X222858242Y-100214737D01*
X222862211Y-100182987D01*
X223157486Y-100182987D01*
X223157486Y-100225849D01*
G37*
G36*
X201150060Y-75682064D02*
G01*
X201140336Y-75768186D01*
X201111166Y-75826527D01*
X201000835Y-75870977D01*
X200933366Y-75859070D01*
X200886535Y-75823352D01*
X200859150Y-75768186D01*
X200850022Y-75697939D01*
X200850816Y-75670952D01*
X200854785Y-75639202D01*
X201150060Y-75639202D01*
X201150060Y-75682064D01*
G37*
G36*
X201171491Y-77330595D02*
G01*
X200602901Y-76951535D01*
X200602901Y-76532964D01*
X200669047Y-76532964D01*
X200686510Y-76648852D01*
X200738897Y-76747277D01*
X200827003Y-76815539D01*
X200950035Y-76840939D01*
X201047666Y-76821889D01*
X201138947Y-76771089D01*
X201224672Y-76699652D01*
X201304047Y-76618689D01*
X201349291Y-76571064D01*
X201403266Y-76520264D01*
X201459622Y-76479783D01*
X201512010Y-76463114D01*
X201512010Y-76885389D01*
X201673935Y-76885389D01*
X201673935Y-76244039D01*
X201634247Y-76240070D01*
X201600910Y-76240864D01*
X201524710Y-76248206D01*
X201454860Y-76270233D01*
X201390764Y-76303570D01*
X201331828Y-76344845D01*
X201277457Y-76391677D01*
X201227053Y-76441683D01*
X201179627Y-76491689D01*
X201134185Y-76538520D01*
X201048460Y-76613133D01*
X200964322Y-76642502D01*
X200871454Y-76605989D01*
X200838910Y-76513914D01*
X200861135Y-76417077D01*
X200935747Y-76317064D01*
X200799222Y-76220227D01*
X200741278Y-76288688D01*
X200700797Y-76367070D01*
X200676985Y-76450216D01*
X200669047Y-76532964D01*
X200602901Y-76532964D01*
X200602901Y-75697939D01*
X200680160Y-75697939D01*
X200684922Y-75778108D01*
X200699210Y-75850339D01*
X200723419Y-75913839D01*
X200757947Y-75967814D01*
X200858753Y-76043220D01*
X200925230Y-76062866D01*
X201002422Y-76069414D01*
X201084178Y-76060683D01*
X201157997Y-76034489D01*
X201219513Y-75988055D01*
X201264360Y-75918602D01*
X201355641Y-75975752D01*
X201460416Y-76034489D01*
X201569954Y-76089258D01*
X201673935Y-76134502D01*
X201673935Y-75929714D01*
X201580471Y-75890225D01*
X201490579Y-75844783D01*
X201401877Y-75794578D01*
X201311985Y-75740802D01*
X201311985Y-75639202D01*
X201673935Y-75639202D01*
X201673935Y-75443939D01*
X200705560Y-75443939D01*
X200693653Y-75506645D01*
X200685716Y-75575702D01*
X200681747Y-75642377D01*
X200680160Y-75697939D01*
X200602901Y-75697939D01*
X200602901Y-75377793D01*
X201740081Y-75377793D01*
X201740081Y-76951535D01*
X201171491Y-77330595D01*
G37*
%TO.C,kibuzzard-63982C97*%
G36*
X205432819Y-92476241D02*
G01*
X208587181Y-92476241D01*
X208587181Y-94975759D01*
X205432819Y-94975759D01*
X205432819Y-94479666D01*
X205928912Y-94479666D01*
X206890938Y-94479666D01*
X207055244Y-94479666D01*
X207362425Y-94479666D01*
X207421659Y-94339470D01*
X207489822Y-94204631D01*
X207565129Y-94071579D01*
X207645794Y-93936741D01*
X207798194Y-93936741D01*
X207798194Y-94479666D01*
X208091088Y-94479666D01*
X208091088Y-93027103D01*
X207997028Y-93009244D01*
X207893444Y-92997338D01*
X207793431Y-92991384D01*
X207710088Y-92989003D01*
X207589834Y-92996147D01*
X207481487Y-93017578D01*
X207386237Y-93053892D01*
X207305275Y-93105684D01*
X207192166Y-93256894D01*
X207162698Y-93356609D01*
X207152875Y-93472397D01*
X207165972Y-93595031D01*
X207205262Y-93705759D01*
X207274914Y-93798033D01*
X207379094Y-93865303D01*
X207293369Y-94002225D01*
X207205262Y-94159387D01*
X207123109Y-94323694D01*
X207055244Y-94479666D01*
X206890938Y-94479666D01*
X206896891Y-94420134D01*
X206895700Y-94370128D01*
X206884687Y-94255828D01*
X206851647Y-94151053D01*
X206801641Y-94054910D01*
X206739728Y-93966506D01*
X206669481Y-93884948D01*
X206594472Y-93809344D01*
X206519462Y-93738204D01*
X206449216Y-93670041D01*
X206337297Y-93541453D01*
X206293244Y-93415247D01*
X206348012Y-93275944D01*
X206486125Y-93227128D01*
X206631381Y-93260466D01*
X206781400Y-93372384D01*
X206926656Y-93167597D01*
X206823965Y-93080681D01*
X206706391Y-93019959D01*
X206581673Y-92984241D01*
X206457550Y-92972334D01*
X206283719Y-92998528D01*
X206136081Y-93077109D01*
X206033688Y-93209269D01*
X205995588Y-93393816D01*
X206024163Y-93540263D01*
X206100363Y-93677184D01*
X206207519Y-93805772D01*
X206328962Y-93924834D01*
X206400400Y-93992700D01*
X206476600Y-94073663D01*
X206537322Y-94158197D01*
X206562325Y-94236778D01*
X205928912Y-94236778D01*
X205928912Y-94479666D01*
X205432819Y-94479666D01*
X205432819Y-92476241D01*
G37*
G36*
X207750569Y-93244987D02*
G01*
X207798194Y-93250941D01*
X207798194Y-93693853D01*
X207733900Y-93693853D01*
X207604717Y-93679268D01*
X207517206Y-93635512D01*
X207450531Y-93470016D01*
X207468391Y-93368813D01*
X207521969Y-93298566D01*
X207604717Y-93257489D01*
X207710088Y-93243797D01*
X207750569Y-93244987D01*
G37*
%TO.C,kibuzzard-6399CA1D*%
G36*
X195706599Y-77006124D02*
G01*
X195707375Y-77007593D01*
X195741398Y-77072072D01*
X195731295Y-77155421D01*
X195699864Y-77219903D01*
X195648976Y-77290623D01*
X195578630Y-77367579D01*
X195502299Y-77437300D01*
X195431953Y-77487815D01*
X195367595Y-77519121D01*
X195284247Y-77529223D01*
X195218298Y-77494425D01*
X195184201Y-77429177D01*
X195194163Y-77345690D01*
X195225157Y-77281019D01*
X195233078Y-77269918D01*
X195353002Y-77269918D01*
X195376575Y-77338393D01*
X195443366Y-77360282D01*
X195513523Y-77324923D01*
X195548322Y-77255326D01*
X195525872Y-77189097D01*
X195457958Y-77164962D01*
X195388923Y-77200322D01*
X195353002Y-77269918D01*
X195233078Y-77269918D01*
X195275485Y-77210487D01*
X195345144Y-77134092D01*
X195422162Y-77063809D01*
X195493069Y-77013108D01*
X195557864Y-76981989D01*
X195641352Y-76972026D01*
X195706599Y-77006124D01*
G37*
G36*
X194827657Y-76659261D02*
G01*
X194881679Y-76727034D01*
X194902305Y-76788914D01*
X194855720Y-76898361D01*
X194799594Y-76937650D01*
X194741222Y-76945507D01*
X194682850Y-76925862D01*
X194626723Y-76882645D01*
X194608202Y-76863001D01*
X194588558Y-76837744D01*
X194797349Y-76628953D01*
X194827657Y-76659261D01*
G37*
G36*
X195091077Y-76059081D02*
G01*
X195579379Y-76547382D01*
X195872360Y-76840363D01*
X196113704Y-77081708D01*
X196160477Y-77128480D01*
X196024027Y-77810730D01*
X195341777Y-77947180D01*
X195295005Y-77900407D01*
X194836264Y-77441666D01*
X195009632Y-77441666D01*
X195039192Y-77531094D01*
X195100432Y-77612291D01*
X195182689Y-77674716D01*
X195272304Y-77704838D01*
X195369278Y-77702654D01*
X195446769Y-77679187D01*
X195528257Y-77636285D01*
X195613745Y-77573949D01*
X195703232Y-77492180D01*
X195785527Y-77402167D01*
X195848319Y-77316223D01*
X195891607Y-77234349D01*
X195915390Y-77156543D01*
X195917885Y-77059257D01*
X195887951Y-76969454D01*
X195825587Y-76887135D01*
X195743269Y-76824773D01*
X195653466Y-76794838D01*
X195556180Y-76797333D01*
X195478374Y-76821116D01*
X195396500Y-76864404D01*
X195310556Y-76927196D01*
X195220543Y-77009492D01*
X195139300Y-77098592D01*
X195077420Y-77184045D01*
X195034904Y-77265850D01*
X195011752Y-77344006D01*
X195009632Y-77441666D01*
X194836264Y-77441666D01*
X194272378Y-76877780D01*
X194225605Y-76831008D01*
X194251423Y-76805190D01*
X194344968Y-76805190D01*
X194380890Y-76857949D01*
X194424107Y-76912392D01*
X194468446Y-76962345D01*
X194506612Y-77002756D01*
X194566668Y-77056076D01*
X194627846Y-77097048D01*
X194689866Y-77124831D01*
X194752447Y-77138582D01*
X194877049Y-77120622D01*
X194937945Y-77087507D01*
X194997159Y-77037555D01*
X195048796Y-76973570D01*
X195082471Y-76902851D01*
X195093136Y-76826519D01*
X195075737Y-76745696D01*
X195180693Y-76721562D01*
X195296314Y-76689008D01*
X195412496Y-76650281D01*
X195518014Y-76608747D01*
X195373207Y-76463940D01*
X195279195Y-76502106D01*
X195183500Y-76533537D01*
X195085278Y-76560759D01*
X194983689Y-76586297D01*
X194911847Y-76514455D01*
X195167784Y-76258517D01*
X195029712Y-76120446D01*
X194344968Y-76805190D01*
X194251423Y-76805190D01*
X195044305Y-76012308D01*
X195091077Y-76059081D01*
G37*
%TO.C,kibuzzard-6399CA3A*%
G36*
X193190158Y-127408194D02*
G01*
X192775115Y-128030759D01*
X190356824Y-128030759D01*
X190356824Y-127964613D01*
X192024757Y-127964613D01*
X192426394Y-127964613D01*
X192426394Y-127154988D01*
X192456557Y-127051800D01*
X192532757Y-127024813D01*
X192631182Y-127040688D01*
X192683569Y-127061325D01*
X192708969Y-126904163D01*
X192687538Y-126893050D01*
X192643882Y-126876381D01*
X192578001Y-126861300D01*
X192489894Y-126854950D01*
X192373213Y-126874992D01*
X192293044Y-126935119D01*
X192246610Y-127033742D01*
X192231132Y-127169275D01*
X192231132Y-127802688D01*
X192024757Y-127802688D01*
X192024757Y-127964613D01*
X190356824Y-127964613D01*
X190356824Y-127364538D01*
X190422969Y-127364538D01*
X190431304Y-127480028D01*
X190456307Y-127582025D01*
X190496193Y-127669933D01*
X190549176Y-127743157D01*
X190614263Y-127801100D01*
X190690463Y-127843169D01*
X190775990Y-127868767D01*
X190869057Y-127877300D01*
X190963513Y-127868569D01*
X191037332Y-127848725D01*
X191090513Y-127824913D01*
X191123057Y-127805863D01*
X191072257Y-127650288D01*
X190984151Y-127690769D01*
X190865882Y-127707438D01*
X190776188Y-127690769D01*
X190698401Y-127635207D01*
X190642838Y-127531225D01*
X190626765Y-127458200D01*
X190621407Y-127369300D01*
X190627845Y-127265848D01*
X190632065Y-127247063D01*
X191219894Y-127247063D01*
X191226443Y-127330605D01*
X191246088Y-127406607D01*
X191277441Y-127473678D01*
X191319113Y-127530432D01*
X191370509Y-127576072D01*
X191431032Y-127609807D01*
X191498898Y-127630642D01*
X191572319Y-127637588D01*
X191646734Y-127630642D01*
X191714401Y-127609807D01*
X191774329Y-127576072D01*
X191825526Y-127530432D01*
X191866999Y-127473678D01*
X191897757Y-127406607D01*
X191916807Y-127330605D01*
X191923157Y-127247063D01*
X191916807Y-127162330D01*
X191897757Y-127085932D01*
X191867198Y-127018661D01*
X191826319Y-126961313D01*
X191775718Y-126914878D01*
X191715988Y-126880350D01*
X191647924Y-126858919D01*
X191572319Y-126851775D01*
X191496715Y-126858919D01*
X191428651Y-126880350D01*
X191368723Y-126914878D01*
X191317526Y-126961313D01*
X191276052Y-127018661D01*
X191245294Y-127085932D01*
X191226244Y-127162330D01*
X191219894Y-127247063D01*
X190632065Y-127247063D01*
X190647160Y-127179859D01*
X190679351Y-127111332D01*
X190755749Y-127044061D01*
X190869057Y-127021638D01*
X190995263Y-127039100D01*
X191075432Y-127074025D01*
X191124644Y-126920038D01*
X191012726Y-126873206D01*
X190936724Y-126857133D01*
X190850007Y-126851775D01*
X190722301Y-126866592D01*
X190616468Y-126911042D01*
X190532507Y-126985125D01*
X190484584Y-127058845D01*
X190450354Y-127146653D01*
X190429816Y-127248551D01*
X190422969Y-127364538D01*
X190356824Y-127364538D01*
X190356824Y-126785629D01*
X192775115Y-126785629D01*
X193190158Y-127408194D01*
G37*
G36*
X191636018Y-127037116D02*
G01*
X191684238Y-127083550D01*
X191713409Y-127154988D01*
X191723132Y-127245475D01*
X191714202Y-127335764D01*
X191687413Y-127406607D01*
X191640780Y-127452446D01*
X191572319Y-127467725D01*
X191505446Y-127452446D01*
X191457226Y-127406607D01*
X191428055Y-127335764D01*
X191418332Y-127245475D01*
X191427262Y-127154988D01*
X191454051Y-127083550D01*
X191500684Y-127037116D01*
X191569144Y-127021638D01*
X191636018Y-127037116D01*
G37*
%TO.C,kibuzzard-6399CA4F*%
G36*
X223266000Y-126706401D02*
G01*
X222697410Y-126327341D01*
X222697410Y-125908770D01*
X222763556Y-125908770D01*
X222781019Y-126024658D01*
X222833406Y-126123083D01*
X222921512Y-126191345D01*
X223044544Y-126216745D01*
X223142175Y-126197695D01*
X223233456Y-126146895D01*
X223319181Y-126075458D01*
X223398556Y-125994495D01*
X223443800Y-125946870D01*
X223497775Y-125896070D01*
X223554131Y-125855589D01*
X223606519Y-125838920D01*
X223606519Y-126261195D01*
X223768444Y-126261195D01*
X223768444Y-125619845D01*
X223728756Y-125615876D01*
X223695419Y-125616670D01*
X223619219Y-125624012D01*
X223549369Y-125646039D01*
X223485273Y-125679376D01*
X223426337Y-125720651D01*
X223371966Y-125767483D01*
X223321562Y-125817489D01*
X223274136Y-125867495D01*
X223228694Y-125914326D01*
X223142969Y-125988939D01*
X223058831Y-126018308D01*
X222965963Y-125981795D01*
X222933419Y-125889720D01*
X222955644Y-125792883D01*
X223030256Y-125692870D01*
X222893731Y-125596033D01*
X222835787Y-125664494D01*
X222795306Y-125742876D01*
X222771494Y-125826022D01*
X222763556Y-125908770D01*
X222697410Y-125908770D01*
X222697410Y-125073745D01*
X222774669Y-125073745D01*
X222779431Y-125153914D01*
X222793719Y-125226145D01*
X222817928Y-125289645D01*
X222852456Y-125343620D01*
X222953262Y-125419026D01*
X223019739Y-125438672D01*
X223096931Y-125445220D01*
X223178687Y-125436489D01*
X223252506Y-125410295D01*
X223314022Y-125363861D01*
X223358869Y-125294408D01*
X223450150Y-125351558D01*
X223554925Y-125410295D01*
X223664463Y-125465064D01*
X223768444Y-125510308D01*
X223768444Y-125305520D01*
X223674980Y-125266031D01*
X223585088Y-125220589D01*
X223496386Y-125170384D01*
X223406494Y-125116608D01*
X223406494Y-125015008D01*
X223768444Y-125015008D01*
X223768444Y-124819745D01*
X222800069Y-124819745D01*
X222788162Y-124882451D01*
X222780225Y-124951508D01*
X222776256Y-125018183D01*
X222774669Y-125073745D01*
X222697410Y-125073745D01*
X222697410Y-124753599D01*
X223834590Y-124753599D01*
X223834590Y-126327341D01*
X223266000Y-126706401D01*
G37*
G36*
X223244569Y-125057870D02*
G01*
X223234845Y-125143992D01*
X223205675Y-125202333D01*
X223095344Y-125246783D01*
X223027875Y-125234876D01*
X222981044Y-125199158D01*
X222953659Y-125143992D01*
X222944531Y-125073745D01*
X222945325Y-125046758D01*
X222949294Y-125015008D01*
X223244569Y-125015008D01*
X223244569Y-125057870D01*
G37*
%TO.C,kibuzzard-6399CA47*%
G36*
X221372004Y-100289132D02*
G01*
X221362281Y-100375254D01*
X221333111Y-100433595D01*
X221222779Y-100478045D01*
X221155311Y-100466139D01*
X221108480Y-100430420D01*
X221081095Y-100375254D01*
X221071967Y-100305007D01*
X221072761Y-100278020D01*
X221076729Y-100246270D01*
X221372004Y-100246270D01*
X221372004Y-100289132D01*
G37*
G36*
X221398992Y-101929196D02*
G01*
X220835959Y-101553841D01*
X220835959Y-101292432D01*
X220913217Y-101292432D01*
X221733955Y-101292432D01*
X221733955Y-101487695D01*
X221895880Y-101487695D01*
X221895880Y-100890795D01*
X221733955Y-100890795D01*
X221733955Y-101097170D01*
X221184679Y-101097170D01*
X221241036Y-100995570D01*
X221279930Y-100898732D01*
X221118005Y-100835232D01*
X221081492Y-100917782D01*
X221032279Y-101006682D01*
X220975129Y-101090820D01*
X220913217Y-101159082D01*
X220913217Y-101292432D01*
X220835959Y-101292432D01*
X220835959Y-100305007D01*
X220902104Y-100305007D01*
X220906867Y-100385176D01*
X220921154Y-100457407D01*
X220945364Y-100520907D01*
X220979892Y-100574882D01*
X221080698Y-100650289D01*
X221147175Y-100669934D01*
X221224367Y-100676482D01*
X221306123Y-100667751D01*
X221379942Y-100641557D01*
X221441458Y-100595123D01*
X221486305Y-100525670D01*
X221577586Y-100582820D01*
X221682361Y-100641557D01*
X221791898Y-100696326D01*
X221895880Y-100741570D01*
X221895880Y-100536782D01*
X221802415Y-100497293D01*
X221712523Y-100451851D01*
X221623822Y-100401647D01*
X221533929Y-100347870D01*
X221533929Y-100246270D01*
X221895880Y-100246270D01*
X221895880Y-100051007D01*
X220927504Y-100051007D01*
X220915598Y-100113714D01*
X220907661Y-100182770D01*
X220903692Y-100249445D01*
X220902104Y-100305007D01*
X220835959Y-100305007D01*
X220835959Y-99984862D01*
X221962025Y-99984862D01*
X221962025Y-101553841D01*
X221398992Y-101929196D01*
G37*
%TO.C,kibuzzard-63982CB3*%
G36*
X207991472Y-117613509D02*
G01*
X208039097Y-117619462D01*
X208039097Y-118062375D01*
X207974803Y-118062375D01*
X207845620Y-118047790D01*
X207758109Y-118004034D01*
X207691434Y-117838537D01*
X207709294Y-117737334D01*
X207762872Y-117667087D01*
X207845620Y-117626011D01*
X207950991Y-117612319D01*
X207991472Y-117613509D01*
G37*
G36*
X205699916Y-116844762D02*
G01*
X208828084Y-116844762D01*
X208828084Y-119375237D01*
X205699916Y-119375237D01*
X205699916Y-118410037D01*
X206196009Y-118410037D01*
X206229347Y-118598156D01*
X206331741Y-118746984D01*
X206410322Y-118802944D01*
X206507953Y-118844616D01*
X206625230Y-118870512D01*
X206762747Y-118879144D01*
X206878237Y-118870809D01*
X206994919Y-118850569D01*
X207004339Y-118848187D01*
X207296147Y-118848187D01*
X207603328Y-118848187D01*
X207662562Y-118707991D01*
X207730725Y-118573153D01*
X207806032Y-118440101D01*
X207886697Y-118305262D01*
X208039097Y-118305262D01*
X208039097Y-118848187D01*
X208331991Y-118848187D01*
X208331991Y-117395625D01*
X208237931Y-117377766D01*
X208134347Y-117365859D01*
X208034334Y-117359906D01*
X207950991Y-117357525D01*
X207830737Y-117364669D01*
X207722391Y-117386100D01*
X207627141Y-117422414D01*
X207546178Y-117474206D01*
X207433069Y-117625416D01*
X207403601Y-117725130D01*
X207393778Y-117840919D01*
X207406875Y-117963553D01*
X207446166Y-118074281D01*
X207515817Y-118166555D01*
X207619997Y-118233825D01*
X207534272Y-118370747D01*
X207446166Y-118527909D01*
X207364012Y-118692216D01*
X207296147Y-118848187D01*
X207004339Y-118848187D01*
X207098503Y-118824375D01*
X207172322Y-118798181D01*
X207115172Y-118552912D01*
X206973487Y-118602919D01*
X206877940Y-118622564D01*
X206765128Y-118629112D01*
X206637434Y-118613039D01*
X206554387Y-118564819D01*
X206493666Y-118405275D01*
X206516883Y-118306155D01*
X206586534Y-118242159D01*
X206691905Y-118207334D01*
X206822278Y-118195725D01*
X206912766Y-118195725D01*
X206912766Y-117952837D01*
X206803228Y-117952837D01*
X206712741Y-117943312D01*
X206631778Y-117912356D01*
X206573437Y-117855206D01*
X206550816Y-117764719D01*
X206599631Y-117637322D01*
X206734172Y-117590887D01*
X206899669Y-117618272D01*
X207041353Y-117686137D01*
X207146128Y-117471825D01*
X206975869Y-117384909D01*
X206863057Y-117351870D01*
X206736553Y-117340856D01*
X206620765Y-117348595D01*
X206521050Y-117371812D01*
X206369841Y-117458728D01*
X206281734Y-117590887D01*
X206253159Y-117755194D01*
X206303166Y-117924262D01*
X206436516Y-118048087D01*
X206335015Y-118107023D01*
X206259112Y-118188581D01*
X206211785Y-118290380D01*
X206196009Y-118410037D01*
X205699916Y-118410037D01*
X205699916Y-116844762D01*
G37*
%TO.C,kibuzzard-6399CA4F*%
G36*
X223244569Y-75781870D02*
G01*
X223234845Y-75867992D01*
X223205675Y-75926333D01*
X223095344Y-75970783D01*
X223027875Y-75958876D01*
X222981044Y-75923158D01*
X222953659Y-75867992D01*
X222944531Y-75797745D01*
X222945325Y-75770758D01*
X222949294Y-75739008D01*
X223244569Y-75739008D01*
X223244569Y-75781870D01*
G37*
G36*
X223266000Y-77430401D02*
G01*
X222697410Y-77051341D01*
X222697410Y-76632770D01*
X222763556Y-76632770D01*
X222781019Y-76748658D01*
X222833406Y-76847083D01*
X222921512Y-76915345D01*
X223044544Y-76940745D01*
X223142175Y-76921695D01*
X223233456Y-76870895D01*
X223319181Y-76799458D01*
X223398556Y-76718495D01*
X223443800Y-76670870D01*
X223497775Y-76620070D01*
X223554131Y-76579589D01*
X223606519Y-76562920D01*
X223606519Y-76985195D01*
X223768444Y-76985195D01*
X223768444Y-76343845D01*
X223728756Y-76339876D01*
X223695419Y-76340670D01*
X223619219Y-76348012D01*
X223549369Y-76370039D01*
X223485273Y-76403376D01*
X223426337Y-76444651D01*
X223371966Y-76491483D01*
X223321562Y-76541489D01*
X223274136Y-76591495D01*
X223228694Y-76638326D01*
X223142969Y-76712939D01*
X223058831Y-76742308D01*
X222965963Y-76705795D01*
X222933419Y-76613720D01*
X222955644Y-76516883D01*
X223030256Y-76416870D01*
X222893731Y-76320033D01*
X222835787Y-76388494D01*
X222795306Y-76466876D01*
X222771494Y-76550022D01*
X222763556Y-76632770D01*
X222697410Y-76632770D01*
X222697410Y-75797745D01*
X222774669Y-75797745D01*
X222779431Y-75877914D01*
X222793719Y-75950145D01*
X222817928Y-76013645D01*
X222852456Y-76067620D01*
X222953262Y-76143026D01*
X223019739Y-76162672D01*
X223096931Y-76169220D01*
X223178687Y-76160489D01*
X223252506Y-76134295D01*
X223314022Y-76087861D01*
X223358869Y-76018408D01*
X223450150Y-76075558D01*
X223554925Y-76134295D01*
X223664463Y-76189064D01*
X223768444Y-76234308D01*
X223768444Y-76029520D01*
X223674980Y-75990031D01*
X223585088Y-75944589D01*
X223496386Y-75894384D01*
X223406494Y-75840608D01*
X223406494Y-75739008D01*
X223768444Y-75739008D01*
X223768444Y-75543745D01*
X222800069Y-75543745D01*
X222788162Y-75606451D01*
X222780225Y-75675508D01*
X222776256Y-75742183D01*
X222774669Y-75797745D01*
X222697410Y-75797745D01*
X222697410Y-75477599D01*
X223834590Y-75477599D01*
X223834590Y-77051341D01*
X223266000Y-77430401D01*
G37*
%TO.C,kibuzzard-6399CA47*%
G36*
X221461012Y-125316103D02*
G01*
X221451289Y-125402225D01*
X221422119Y-125460566D01*
X221311787Y-125505016D01*
X221244319Y-125493110D01*
X221197488Y-125457391D01*
X221170103Y-125402225D01*
X221160975Y-125331978D01*
X221161769Y-125304991D01*
X221165737Y-125273241D01*
X221461012Y-125273241D01*
X221461012Y-125316103D01*
G37*
G36*
X221488000Y-126956167D02*
G01*
X220924967Y-126580812D01*
X220924967Y-126319403D01*
X221002225Y-126319403D01*
X221822963Y-126319403D01*
X221822963Y-126514666D01*
X221984888Y-126514666D01*
X221984888Y-125917766D01*
X221822963Y-125917766D01*
X221822963Y-126124141D01*
X221273687Y-126124141D01*
X221330044Y-126022541D01*
X221368938Y-125925703D01*
X221207013Y-125862203D01*
X221170500Y-125944753D01*
X221121287Y-126033653D01*
X221064137Y-126117791D01*
X221002225Y-126186053D01*
X221002225Y-126319403D01*
X220924967Y-126319403D01*
X220924967Y-125331978D01*
X220991112Y-125331978D01*
X220995875Y-125412147D01*
X221010162Y-125484378D01*
X221034372Y-125547878D01*
X221068900Y-125601853D01*
X221169706Y-125677260D01*
X221236183Y-125696905D01*
X221313375Y-125703453D01*
X221395131Y-125694722D01*
X221468950Y-125668528D01*
X221530466Y-125622094D01*
X221575313Y-125552641D01*
X221666594Y-125609791D01*
X221771369Y-125668528D01*
X221880906Y-125723297D01*
X221984888Y-125768541D01*
X221984888Y-125563753D01*
X221891423Y-125524264D01*
X221801531Y-125478822D01*
X221712830Y-125428618D01*
X221622937Y-125374841D01*
X221622937Y-125273241D01*
X221984888Y-125273241D01*
X221984888Y-125077978D01*
X221016512Y-125077978D01*
X221004606Y-125140685D01*
X220996669Y-125209741D01*
X220992700Y-125276416D01*
X220991112Y-125331978D01*
X220924967Y-125331978D01*
X220924967Y-125011833D01*
X222051033Y-125011833D01*
X222051033Y-126580812D01*
X221488000Y-126956167D01*
G37*
%TO.C,D3*%
X187209491Y-128686194D02*
X187209491Y-129686194D01*
X188109491Y-129186194D02*
X187209491Y-128686194D01*
X187209491Y-129686194D02*
X188109491Y-129186194D01*
X188209491Y-128686194D02*
X188209491Y-129686194D01*
%TO.C,D2*%
X184388537Y-105383605D02*
X183388537Y-105383605D01*
X183888537Y-105283605D02*
X184388537Y-104383605D01*
X183388537Y-104383605D02*
X183888537Y-105283605D01*
X184388537Y-104383605D02*
X183388537Y-104383605D01*
%TO.C,kibuzzard-63982C76*%
G36*
X207746997Y-69614653D02*
G01*
X207794622Y-69620606D01*
X207794622Y-70063519D01*
X207730328Y-70063519D01*
X207601145Y-70048934D01*
X207513634Y-70005178D01*
X207446959Y-69839681D01*
X207464819Y-69738478D01*
X207518397Y-69668231D01*
X207601145Y-69627155D01*
X207706516Y-69613463D01*
X207746997Y-69614653D01*
G37*
G36*
X205436391Y-68862575D02*
G01*
X208583609Y-68862575D01*
X208583609Y-71345425D01*
X205436391Y-71345425D01*
X205436391Y-70849331D01*
X205932484Y-70849331D01*
X206827834Y-70849331D01*
X207051672Y-70849331D01*
X207358853Y-70849331D01*
X207418087Y-70709135D01*
X207486250Y-70574297D01*
X207561557Y-70441245D01*
X207642222Y-70306406D01*
X207794622Y-70306406D01*
X207794622Y-70849331D01*
X208087516Y-70849331D01*
X208087516Y-69396769D01*
X207993456Y-69378909D01*
X207889872Y-69367003D01*
X207789859Y-69361050D01*
X207706516Y-69358669D01*
X207586262Y-69365812D01*
X207477916Y-69387244D01*
X207382666Y-69423558D01*
X207301703Y-69475350D01*
X207188594Y-69626559D01*
X207159126Y-69726274D01*
X207149303Y-69842062D01*
X207162400Y-69964697D01*
X207201691Y-70075425D01*
X207271342Y-70167698D01*
X207375522Y-70234969D01*
X207289797Y-70371891D01*
X207201691Y-70529053D01*
X207119537Y-70693359D01*
X207051672Y-70849331D01*
X206827834Y-70849331D01*
X206827834Y-70606444D01*
X206518272Y-70606444D01*
X206518272Y-69782531D01*
X206670672Y-69867066D01*
X206815928Y-69925406D01*
X206911178Y-69682519D01*
X206787353Y-69627750D01*
X206654003Y-69553931D01*
X206527797Y-69468206D01*
X206425403Y-69375338D01*
X206225378Y-69375338D01*
X206225378Y-70606444D01*
X205932484Y-70606444D01*
X205932484Y-70849331D01*
X205436391Y-70849331D01*
X205436391Y-68862575D01*
G37*
%TO.C,kibuzzard-6399CA47*%
G36*
X199277495Y-100189326D02*
G01*
X199267772Y-100275448D01*
X199238602Y-100333789D01*
X199128270Y-100378239D01*
X199060802Y-100366333D01*
X199013971Y-100330614D01*
X198986586Y-100275448D01*
X198977458Y-100205201D01*
X198978252Y-100178214D01*
X198982220Y-100146464D01*
X199277495Y-100146464D01*
X199277495Y-100189326D01*
G37*
G36*
X199304483Y-101829390D02*
G01*
X198741450Y-101454035D01*
X198741450Y-101192626D01*
X198818708Y-101192626D01*
X199639446Y-101192626D01*
X199639446Y-101387889D01*
X199801371Y-101387889D01*
X199801371Y-100790989D01*
X199639446Y-100790989D01*
X199639446Y-100997364D01*
X199090170Y-100997364D01*
X199146527Y-100895764D01*
X199185421Y-100798926D01*
X199023496Y-100735426D01*
X198986983Y-100817976D01*
X198937770Y-100906876D01*
X198880620Y-100991014D01*
X198818708Y-101059276D01*
X198818708Y-101192626D01*
X198741450Y-101192626D01*
X198741450Y-100205201D01*
X198807595Y-100205201D01*
X198812358Y-100285370D01*
X198826645Y-100357601D01*
X198850855Y-100421101D01*
X198885383Y-100475076D01*
X198986189Y-100550483D01*
X199052666Y-100570128D01*
X199129858Y-100576676D01*
X199211614Y-100567945D01*
X199285433Y-100541751D01*
X199346949Y-100495317D01*
X199391796Y-100425864D01*
X199483077Y-100483014D01*
X199587852Y-100541751D01*
X199697389Y-100596520D01*
X199801371Y-100641764D01*
X199801371Y-100436976D01*
X199707906Y-100397487D01*
X199618014Y-100352045D01*
X199529313Y-100301841D01*
X199439420Y-100248064D01*
X199439420Y-100146464D01*
X199801371Y-100146464D01*
X199801371Y-99951201D01*
X198832995Y-99951201D01*
X198821089Y-100013908D01*
X198813152Y-100082964D01*
X198809183Y-100149639D01*
X198807595Y-100205201D01*
X198741450Y-100205201D01*
X198741450Y-99885056D01*
X199867516Y-99885056D01*
X199867516Y-101454035D01*
X199304483Y-101829390D01*
G37*
%TO.C,kibuzzard-6399CA3A*%
G36*
X191804602Y-102892602D02*
G01*
X191852822Y-102939036D01*
X191881993Y-103010474D01*
X191891716Y-103100961D01*
X191882786Y-103191250D01*
X191855997Y-103262093D01*
X191809364Y-103307932D01*
X191740903Y-103323211D01*
X191674030Y-103307932D01*
X191625810Y-103262093D01*
X191596639Y-103191250D01*
X191586916Y-103100961D01*
X191595846Y-103010474D01*
X191622635Y-102939036D01*
X191669268Y-102892602D01*
X191737728Y-102877124D01*
X191804602Y-102892602D01*
G37*
G36*
X193358742Y-103263680D02*
G01*
X192943699Y-103886245D01*
X190525408Y-103886245D01*
X190525408Y-103820099D01*
X192193341Y-103820099D01*
X192594978Y-103820099D01*
X192594978Y-103010474D01*
X192625141Y-102907286D01*
X192701341Y-102880299D01*
X192799766Y-102896174D01*
X192852153Y-102916811D01*
X192877553Y-102759649D01*
X192856122Y-102748536D01*
X192812466Y-102731867D01*
X192746585Y-102716786D01*
X192658478Y-102710436D01*
X192541797Y-102730478D01*
X192461628Y-102790605D01*
X192415194Y-102889228D01*
X192399716Y-103024761D01*
X192399716Y-103658174D01*
X192193341Y-103658174D01*
X192193341Y-103820099D01*
X190525408Y-103820099D01*
X190525408Y-103220024D01*
X190591553Y-103220024D01*
X190599888Y-103335514D01*
X190624891Y-103437511D01*
X190664777Y-103525419D01*
X190717760Y-103598643D01*
X190782847Y-103656586D01*
X190859047Y-103698655D01*
X190944574Y-103724253D01*
X191037641Y-103732786D01*
X191132097Y-103724055D01*
X191205916Y-103704211D01*
X191259097Y-103680399D01*
X191291641Y-103661349D01*
X191240841Y-103505774D01*
X191152735Y-103546255D01*
X191034466Y-103562924D01*
X190944772Y-103546255D01*
X190866985Y-103490693D01*
X190811422Y-103386711D01*
X190795349Y-103313686D01*
X190789991Y-103224786D01*
X190796429Y-103121334D01*
X190800649Y-103102549D01*
X191388478Y-103102549D01*
X191395027Y-103186091D01*
X191414672Y-103262093D01*
X191446025Y-103329164D01*
X191487697Y-103385918D01*
X191539093Y-103431558D01*
X191599616Y-103465293D01*
X191667482Y-103486128D01*
X191740903Y-103493074D01*
X191815318Y-103486128D01*
X191882985Y-103465293D01*
X191942913Y-103431558D01*
X191994110Y-103385918D01*
X192035583Y-103329164D01*
X192066341Y-103262093D01*
X192085391Y-103186091D01*
X192091741Y-103102549D01*
X192085391Y-103017816D01*
X192066341Y-102941418D01*
X192035782Y-102874147D01*
X191994903Y-102816799D01*
X191944302Y-102770364D01*
X191884572Y-102735836D01*
X191816508Y-102714405D01*
X191740903Y-102707261D01*
X191665299Y-102714405D01*
X191597235Y-102735836D01*
X191537307Y-102770364D01*
X191486110Y-102816799D01*
X191444636Y-102874147D01*
X191413878Y-102941418D01*
X191394828Y-103017816D01*
X191388478Y-103102549D01*
X190800649Y-103102549D01*
X190815744Y-103035345D01*
X190847935Y-102966818D01*
X190924333Y-102899547D01*
X191037641Y-102877124D01*
X191163847Y-102894586D01*
X191244016Y-102929511D01*
X191293228Y-102775524D01*
X191181310Y-102728692D01*
X191105308Y-102712619D01*
X191018591Y-102707261D01*
X190890885Y-102722078D01*
X190785052Y-102766528D01*
X190701091Y-102840611D01*
X190653168Y-102914331D01*
X190618938Y-103002139D01*
X190598400Y-103104037D01*
X190591553Y-103220024D01*
X190525408Y-103220024D01*
X190525408Y-102641115D01*
X192943699Y-102641115D01*
X193358742Y-103263680D01*
G37*
%TO.C,kibuzzard-63982CB3*%
G36*
X183605407Y-116744956D02*
G01*
X186733575Y-116744956D01*
X186733575Y-119275431D01*
X183605407Y-119275431D01*
X183605407Y-118310231D01*
X184101500Y-118310231D01*
X184134838Y-118498350D01*
X184237232Y-118647178D01*
X184315813Y-118703138D01*
X184413444Y-118744810D01*
X184530721Y-118770706D01*
X184668238Y-118779338D01*
X184783728Y-118771003D01*
X184900410Y-118750763D01*
X184909830Y-118748381D01*
X185201638Y-118748381D01*
X185508819Y-118748381D01*
X185568053Y-118608185D01*
X185636216Y-118473347D01*
X185711523Y-118340295D01*
X185792188Y-118205456D01*
X185944588Y-118205456D01*
X185944588Y-118748381D01*
X186237482Y-118748381D01*
X186237482Y-117295819D01*
X186143422Y-117277960D01*
X186039838Y-117266053D01*
X185939825Y-117260100D01*
X185856482Y-117257719D01*
X185736228Y-117264863D01*
X185627882Y-117286294D01*
X185532632Y-117322608D01*
X185451669Y-117374400D01*
X185338560Y-117525610D01*
X185309092Y-117625324D01*
X185299269Y-117741113D01*
X185312366Y-117863747D01*
X185351657Y-117974475D01*
X185421308Y-118066749D01*
X185525488Y-118134019D01*
X185439763Y-118270941D01*
X185351657Y-118428103D01*
X185269503Y-118592410D01*
X185201638Y-118748381D01*
X184909830Y-118748381D01*
X185003994Y-118724569D01*
X185077813Y-118698375D01*
X185020663Y-118453106D01*
X184878978Y-118503113D01*
X184783431Y-118522758D01*
X184670619Y-118529306D01*
X184542925Y-118513233D01*
X184459878Y-118465013D01*
X184399157Y-118305469D01*
X184422374Y-118206349D01*
X184492025Y-118142353D01*
X184597396Y-118107528D01*
X184727769Y-118095919D01*
X184818257Y-118095919D01*
X184818257Y-117853031D01*
X184708719Y-117853031D01*
X184618232Y-117843506D01*
X184537269Y-117812550D01*
X184478928Y-117755400D01*
X184456307Y-117664913D01*
X184505122Y-117537516D01*
X184639663Y-117491081D01*
X184805160Y-117518466D01*
X184946844Y-117586331D01*
X185051619Y-117372019D01*
X184881360Y-117285103D01*
X184768548Y-117252064D01*
X184642044Y-117241050D01*
X184526256Y-117248789D01*
X184426541Y-117272006D01*
X184275332Y-117358922D01*
X184187225Y-117491081D01*
X184158650Y-117655388D01*
X184208657Y-117824456D01*
X184342007Y-117948281D01*
X184240506Y-118007217D01*
X184164603Y-118088775D01*
X184117276Y-118190574D01*
X184101500Y-118310231D01*
X183605407Y-118310231D01*
X183605407Y-116744956D01*
G37*
G36*
X185896963Y-117513703D02*
G01*
X185944588Y-117519656D01*
X185944588Y-117962569D01*
X185880294Y-117962569D01*
X185751111Y-117947984D01*
X185663600Y-117904228D01*
X185596925Y-117738731D01*
X185614785Y-117637528D01*
X185668363Y-117567281D01*
X185751111Y-117526205D01*
X185856482Y-117512513D01*
X185896963Y-117513703D01*
G37*
%TO.C,kibuzzard-6399CA4F*%
G36*
X201171491Y-126606595D02*
G01*
X200602901Y-126227535D01*
X200602901Y-125808964D01*
X200669047Y-125808964D01*
X200686510Y-125924852D01*
X200738897Y-126023277D01*
X200827003Y-126091539D01*
X200950035Y-126116939D01*
X201047666Y-126097889D01*
X201138947Y-126047089D01*
X201224672Y-125975652D01*
X201304047Y-125894689D01*
X201349291Y-125847064D01*
X201403266Y-125796264D01*
X201459622Y-125755783D01*
X201512010Y-125739114D01*
X201512010Y-126161389D01*
X201673935Y-126161389D01*
X201673935Y-125520039D01*
X201634247Y-125516070D01*
X201600910Y-125516864D01*
X201524710Y-125524206D01*
X201454860Y-125546233D01*
X201390764Y-125579570D01*
X201331828Y-125620845D01*
X201277457Y-125667677D01*
X201227053Y-125717683D01*
X201179627Y-125767689D01*
X201134185Y-125814520D01*
X201048460Y-125889133D01*
X200964322Y-125918502D01*
X200871454Y-125881989D01*
X200838910Y-125789914D01*
X200861135Y-125693077D01*
X200935747Y-125593064D01*
X200799222Y-125496227D01*
X200741278Y-125564688D01*
X200700797Y-125643070D01*
X200676985Y-125726216D01*
X200669047Y-125808964D01*
X200602901Y-125808964D01*
X200602901Y-124973939D01*
X200680160Y-124973939D01*
X200684922Y-125054108D01*
X200699210Y-125126339D01*
X200723419Y-125189839D01*
X200757947Y-125243814D01*
X200858753Y-125319220D01*
X200925230Y-125338866D01*
X201002422Y-125345414D01*
X201084178Y-125336683D01*
X201157997Y-125310489D01*
X201219513Y-125264055D01*
X201264360Y-125194602D01*
X201355641Y-125251752D01*
X201460416Y-125310489D01*
X201569954Y-125365258D01*
X201673935Y-125410502D01*
X201673935Y-125205714D01*
X201580471Y-125166225D01*
X201490579Y-125120783D01*
X201401877Y-125070578D01*
X201311985Y-125016802D01*
X201311985Y-124915202D01*
X201673935Y-124915202D01*
X201673935Y-124719939D01*
X200705560Y-124719939D01*
X200693653Y-124782645D01*
X200685716Y-124851702D01*
X200681747Y-124918377D01*
X200680160Y-124973939D01*
X200602901Y-124973939D01*
X200602901Y-124653793D01*
X201740081Y-124653793D01*
X201740081Y-126227535D01*
X201171491Y-126606595D01*
G37*
G36*
X201150060Y-124958064D02*
G01*
X201140336Y-125044186D01*
X201111166Y-125102527D01*
X201000835Y-125146977D01*
X200933366Y-125135070D01*
X200886535Y-125099352D01*
X200859150Y-125044186D01*
X200850022Y-124973939D01*
X200850816Y-124946952D01*
X200854785Y-124915202D01*
X201150060Y-124915202D01*
X201150060Y-124958064D01*
G37*
%TO.C,D1*%
X206078401Y-81030247D02*
X206578401Y-80130247D01*
X206578401Y-80130247D02*
X205578401Y-80130247D01*
X206578401Y-81130247D02*
X205578401Y-81130247D01*
X205578401Y-80130247D02*
X206078401Y-81030247D01*
%TO.C,kibuzzard-6399CA3A*%
G36*
X193444158Y-79148194D02*
G01*
X193029115Y-79770759D01*
X190610824Y-79770759D01*
X190610824Y-79704613D01*
X192278757Y-79704613D01*
X192680394Y-79704613D01*
X192680394Y-78894988D01*
X192710557Y-78791800D01*
X192786757Y-78764813D01*
X192885182Y-78780688D01*
X192937569Y-78801325D01*
X192962969Y-78644163D01*
X192941538Y-78633050D01*
X192897882Y-78616381D01*
X192832001Y-78601300D01*
X192743894Y-78594950D01*
X192627213Y-78614992D01*
X192547044Y-78675119D01*
X192500610Y-78773742D01*
X192485132Y-78909275D01*
X192485132Y-79542688D01*
X192278757Y-79542688D01*
X192278757Y-79704613D01*
X190610824Y-79704613D01*
X190610824Y-79104538D01*
X190676969Y-79104538D01*
X190685304Y-79220028D01*
X190710307Y-79322025D01*
X190750193Y-79409933D01*
X190803176Y-79483157D01*
X190868263Y-79541100D01*
X190944463Y-79583169D01*
X191029990Y-79608767D01*
X191123057Y-79617300D01*
X191217513Y-79608569D01*
X191291332Y-79588725D01*
X191344513Y-79564913D01*
X191377057Y-79545863D01*
X191326257Y-79390288D01*
X191238151Y-79430769D01*
X191119882Y-79447438D01*
X191030188Y-79430769D01*
X190952401Y-79375207D01*
X190896838Y-79271225D01*
X190880765Y-79198200D01*
X190875407Y-79109300D01*
X190881845Y-79005848D01*
X190886065Y-78987063D01*
X191473894Y-78987063D01*
X191480443Y-79070605D01*
X191500088Y-79146607D01*
X191531441Y-79213678D01*
X191573113Y-79270432D01*
X191624509Y-79316072D01*
X191685032Y-79349807D01*
X191752898Y-79370642D01*
X191826319Y-79377588D01*
X191900734Y-79370642D01*
X191968401Y-79349807D01*
X192028329Y-79316072D01*
X192079526Y-79270432D01*
X192120999Y-79213678D01*
X192151757Y-79146607D01*
X192170807Y-79070605D01*
X192177157Y-78987063D01*
X192170807Y-78902330D01*
X192151757Y-78825932D01*
X192121198Y-78758661D01*
X192080319Y-78701313D01*
X192029718Y-78654878D01*
X191969988Y-78620350D01*
X191901924Y-78598919D01*
X191826319Y-78591775D01*
X191750715Y-78598919D01*
X191682651Y-78620350D01*
X191622723Y-78654878D01*
X191571526Y-78701313D01*
X191530052Y-78758661D01*
X191499294Y-78825932D01*
X191480244Y-78902330D01*
X191473894Y-78987063D01*
X190886065Y-78987063D01*
X190901160Y-78919859D01*
X190933351Y-78851332D01*
X191009749Y-78784061D01*
X191123057Y-78761638D01*
X191249263Y-78779100D01*
X191329432Y-78814025D01*
X191378644Y-78660038D01*
X191266726Y-78613206D01*
X191190724Y-78597133D01*
X191104007Y-78591775D01*
X190976301Y-78606592D01*
X190870468Y-78651042D01*
X190786507Y-78725125D01*
X190738584Y-78798845D01*
X190704354Y-78886653D01*
X190683816Y-78988551D01*
X190676969Y-79104538D01*
X190610824Y-79104538D01*
X190610824Y-78525629D01*
X193029115Y-78525629D01*
X193444158Y-79148194D01*
G37*
G36*
X191890018Y-78777116D02*
G01*
X191938238Y-78823550D01*
X191967409Y-78894988D01*
X191977132Y-78985475D01*
X191968202Y-79075764D01*
X191941413Y-79146607D01*
X191894780Y-79192446D01*
X191826319Y-79207725D01*
X191759446Y-79192446D01*
X191711226Y-79146607D01*
X191682055Y-79075764D01*
X191672332Y-78985475D01*
X191681262Y-78894988D01*
X191708051Y-78823550D01*
X191754684Y-78777116D01*
X191823144Y-78761638D01*
X191890018Y-78777116D01*
G37*
G36*
X215538667Y-79248000D02*
G01*
X215123624Y-79870565D01*
X212705333Y-79870565D01*
X212705333Y-79804419D01*
X214373266Y-79804419D01*
X214774903Y-79804419D01*
X214774903Y-78994794D01*
X214805066Y-78891606D01*
X214881266Y-78864619D01*
X214979691Y-78880494D01*
X215032078Y-78901131D01*
X215057478Y-78743969D01*
X215036047Y-78732856D01*
X214992391Y-78716187D01*
X214926510Y-78701106D01*
X214838403Y-78694756D01*
X214721722Y-78714798D01*
X214641553Y-78774925D01*
X214595119Y-78873548D01*
X214579641Y-79009081D01*
X214579641Y-79642494D01*
X214373266Y-79642494D01*
X214373266Y-79804419D01*
X212705333Y-79804419D01*
X212705333Y-79204344D01*
X212771478Y-79204344D01*
X212779813Y-79319834D01*
X212804816Y-79421831D01*
X212844702Y-79509739D01*
X212897685Y-79582963D01*
X212962772Y-79640906D01*
X213038972Y-79682975D01*
X213124499Y-79708573D01*
X213217566Y-79717106D01*
X213312022Y-79708375D01*
X213385841Y-79688531D01*
X213439022Y-79664719D01*
X213471566Y-79645669D01*
X213420766Y-79490094D01*
X213332660Y-79530575D01*
X213214391Y-79547244D01*
X213124697Y-79530575D01*
X213046910Y-79475013D01*
X212991347Y-79371031D01*
X212975274Y-79298006D01*
X212969916Y-79209106D01*
X212976354Y-79105654D01*
X212980574Y-79086869D01*
X213568403Y-79086869D01*
X213574952Y-79170411D01*
X213594597Y-79246413D01*
X213625950Y-79313484D01*
X213667622Y-79370238D01*
X213719018Y-79415878D01*
X213779541Y-79449613D01*
X213847407Y-79470448D01*
X213920828Y-79477394D01*
X213995243Y-79470448D01*
X214062910Y-79449613D01*
X214122838Y-79415878D01*
X214174035Y-79370238D01*
X214215508Y-79313484D01*
X214246266Y-79246413D01*
X214265316Y-79170411D01*
X214271666Y-79086869D01*
X214265316Y-79002136D01*
X214246266Y-78925738D01*
X214215707Y-78858467D01*
X214174828Y-78801119D01*
X214124227Y-78754684D01*
X214064497Y-78720156D01*
X213996433Y-78698725D01*
X213920828Y-78691581D01*
X213845224Y-78698725D01*
X213777160Y-78720156D01*
X213717232Y-78754684D01*
X213666035Y-78801119D01*
X213624561Y-78858467D01*
X213593803Y-78925738D01*
X213574753Y-79002136D01*
X213568403Y-79086869D01*
X212980574Y-79086869D01*
X212995669Y-79019665D01*
X213027860Y-78951138D01*
X213104258Y-78883867D01*
X213217566Y-78861444D01*
X213343772Y-78878906D01*
X213423941Y-78913831D01*
X213473153Y-78759844D01*
X213361235Y-78713012D01*
X213285233Y-78696939D01*
X213198516Y-78691581D01*
X213070810Y-78706398D01*
X212964977Y-78750848D01*
X212881016Y-78824931D01*
X212833093Y-78898651D01*
X212798863Y-78986459D01*
X212778325Y-79088357D01*
X212771478Y-79204344D01*
X212705333Y-79204344D01*
X212705333Y-78625435D01*
X215123624Y-78625435D01*
X215538667Y-79248000D01*
G37*
G36*
X213984527Y-78876922D02*
G01*
X214032747Y-78923356D01*
X214061918Y-78994794D01*
X214071641Y-79085281D01*
X214062711Y-79175570D01*
X214035922Y-79246413D01*
X213989289Y-79292252D01*
X213920828Y-79307531D01*
X213853955Y-79292252D01*
X213805735Y-79246413D01*
X213776564Y-79175570D01*
X213766841Y-79085281D01*
X213775771Y-78994794D01*
X213802560Y-78923356D01*
X213849193Y-78876922D01*
X213917653Y-78861444D01*
X213984527Y-78876922D01*
G37*
%TO.C,kibuzzard-63982C76*%
G36*
X185652488Y-69514847D02*
G01*
X185700113Y-69520800D01*
X185700113Y-69963713D01*
X185635819Y-69963713D01*
X185506636Y-69949128D01*
X185419125Y-69905372D01*
X185352450Y-69739875D01*
X185370310Y-69638672D01*
X185423888Y-69568425D01*
X185506636Y-69527349D01*
X185612007Y-69513657D01*
X185652488Y-69514847D01*
G37*
G36*
X183341882Y-68762769D02*
G01*
X186489100Y-68762769D01*
X186489100Y-71245619D01*
X183341882Y-71245619D01*
X183341882Y-70749525D01*
X183837975Y-70749525D01*
X184733325Y-70749525D01*
X184957163Y-70749525D01*
X185264344Y-70749525D01*
X185323578Y-70609329D01*
X185391741Y-70474491D01*
X185467048Y-70341439D01*
X185547713Y-70206600D01*
X185700113Y-70206600D01*
X185700113Y-70749525D01*
X185993007Y-70749525D01*
X185993007Y-69296963D01*
X185898947Y-69279103D01*
X185795363Y-69267197D01*
X185695350Y-69261244D01*
X185612007Y-69258863D01*
X185491753Y-69266006D01*
X185383407Y-69287438D01*
X185288157Y-69323752D01*
X185207194Y-69375544D01*
X185094085Y-69526753D01*
X185064617Y-69626468D01*
X185054794Y-69742256D01*
X185067891Y-69864891D01*
X185107182Y-69975619D01*
X185176833Y-70067892D01*
X185281013Y-70135163D01*
X185195288Y-70272085D01*
X185107182Y-70429247D01*
X185025028Y-70593553D01*
X184957163Y-70749525D01*
X184733325Y-70749525D01*
X184733325Y-70506638D01*
X184423763Y-70506638D01*
X184423763Y-69682725D01*
X184576163Y-69767260D01*
X184721419Y-69825600D01*
X184816669Y-69582713D01*
X184692844Y-69527944D01*
X184559494Y-69454125D01*
X184433288Y-69368400D01*
X184330894Y-69275532D01*
X184130869Y-69275532D01*
X184130869Y-70506638D01*
X183837975Y-70506638D01*
X183837975Y-70749525D01*
X183341882Y-70749525D01*
X183341882Y-68762769D01*
G37*
%TO.C,D1*%
X184483892Y-81030441D02*
X183483892Y-81030441D01*
X183483892Y-80030441D02*
X183983892Y-80930441D01*
X183983892Y-80930441D02*
X184483892Y-80030441D01*
X184483892Y-80030441D02*
X183483892Y-80030441D01*
%TD*%
%LPC*%
%TO.C,D2*%
G36*
X206408046Y-107358411D02*
G01*
X205558046Y-107358411D01*
X205558046Y-106158411D01*
X206408046Y-106158411D01*
X206408046Y-107358411D01*
G37*
D11*
X206408046Y-107358411D02*
X205558046Y-107358411D01*
X205558046Y-106158411D01*
X206408046Y-106158411D01*
X206408046Y-107358411D01*
G36*
X206408046Y-103808411D02*
G01*
X205558046Y-103808411D01*
X205558046Y-102608411D01*
X206408046Y-102608411D01*
X206408046Y-103808411D01*
G37*
X206408046Y-103808411D02*
X205558046Y-103808411D01*
X205558046Y-102608411D01*
X206408046Y-102608411D01*
X206408046Y-103808411D01*
%TO.C,D3*%
G36*
X212179000Y-129711000D02*
G01*
X210979000Y-129711000D01*
X210979000Y-128861000D01*
X212179000Y-128861000D01*
X212179000Y-129711000D01*
G37*
X212179000Y-129711000D02*
X210979000Y-129711000D01*
X210979000Y-128861000D01*
X212179000Y-128861000D01*
X212179000Y-129711000D01*
G36*
X208629000Y-129711000D02*
G01*
X207429000Y-129711000D01*
X207429000Y-128861000D01*
X208629000Y-128861000D01*
X208629000Y-129711000D01*
G37*
X208629000Y-129711000D02*
X207429000Y-129711000D01*
X207429000Y-128861000D01*
X208629000Y-128861000D01*
X208629000Y-129711000D01*
G36*
X190084491Y-129611194D02*
G01*
X188884491Y-129611194D01*
X188884491Y-128761194D01*
X190084491Y-128761194D01*
X190084491Y-129611194D01*
G37*
X190084491Y-129611194D02*
X188884491Y-129611194D01*
X188884491Y-128761194D01*
X190084491Y-128761194D01*
X190084491Y-129611194D01*
G36*
X186534491Y-129611194D02*
G01*
X185334491Y-129611194D01*
X185334491Y-128761194D01*
X186534491Y-128761194D01*
X186534491Y-129611194D01*
G37*
X186534491Y-129611194D02*
X185334491Y-129611194D01*
X185334491Y-128761194D01*
X186534491Y-128761194D01*
X186534491Y-129611194D01*
%TO.C,D2*%
G36*
X184313537Y-103708605D02*
G01*
X183463537Y-103708605D01*
X183463537Y-102508605D01*
X184313537Y-102508605D01*
X184313537Y-103708605D01*
G37*
X184313537Y-103708605D02*
X183463537Y-103708605D01*
X183463537Y-102508605D01*
X184313537Y-102508605D01*
X184313537Y-103708605D01*
G36*
X184313537Y-107258605D02*
G01*
X183463537Y-107258605D01*
X183463537Y-106058605D01*
X184313537Y-106058605D01*
X184313537Y-107258605D01*
G37*
X184313537Y-107258605D02*
X183463537Y-107258605D01*
X183463537Y-106058605D01*
X184313537Y-106058605D01*
X184313537Y-107258605D01*
%TO.C,D1*%
G36*
X206503401Y-83005247D02*
G01*
X205653401Y-83005247D01*
X205653401Y-81805247D01*
X206503401Y-81805247D01*
X206503401Y-83005247D01*
G37*
X206503401Y-83005247D02*
X205653401Y-83005247D01*
X205653401Y-81805247D01*
X206503401Y-81805247D01*
X206503401Y-83005247D01*
G36*
X206503401Y-79455247D02*
G01*
X205653401Y-79455247D01*
X205653401Y-78255247D01*
X206503401Y-78255247D01*
X206503401Y-79455247D01*
G37*
X206503401Y-79455247D02*
X205653401Y-79455247D01*
X205653401Y-78255247D01*
X206503401Y-78255247D01*
X206503401Y-79455247D01*
G36*
X184408892Y-82905441D02*
G01*
X183558892Y-82905441D01*
X183558892Y-81705441D01*
X184408892Y-81705441D01*
X184408892Y-82905441D01*
G37*
X184408892Y-82905441D02*
X183558892Y-82905441D01*
X183558892Y-81705441D01*
X184408892Y-81705441D01*
X184408892Y-82905441D01*
G36*
X184408892Y-79355441D02*
G01*
X183558892Y-79355441D01*
X183558892Y-78155441D01*
X184408892Y-78155441D01*
X184408892Y-79355441D01*
G37*
X184408892Y-79355441D02*
X183558892Y-79355441D01*
X183558892Y-78155441D01*
X184408892Y-78155441D01*
X184408892Y-79355441D01*
%TD*%
D12*
%TO.C,J5*%
X216182672Y-104293976D03*
X216442672Y-103003976D03*
X218728672Y-103003976D03*
X218468672Y-104293976D03*
X220754672Y-104293976D03*
X221014672Y-103003976D03*
X223040672Y-104293976D03*
X223300672Y-103003976D03*
%TD*%
D13*
%TO.C,SW2*%
X192283903Y-100548886D03*
D14*
X187206315Y-100545578D03*
X197366315Y-100549539D03*
D15*
X188473903Y-98008886D03*
X196093903Y-98008886D03*
D16*
X187869004Y-97365454D03*
D17*
X196698802Y-97365454D03*
D15*
X192283903Y-94648886D03*
D18*
X193539251Y-95053955D03*
D19*
X191028555Y-95053955D03*
%TD*%
D14*
%TO.C,SW3*%
X219456000Y-124750000D03*
D20*
X209378412Y-120996693D03*
D13*
X214378412Y-124746692D03*
D20*
X219376000Y-121000000D03*
X214378412Y-118796692D03*
D14*
X209296000Y-124746039D03*
D20*
X216916000Y-119670000D03*
X210566000Y-122210000D03*
D21*
X222651000Y-121000000D03*
D22*
X220220412Y-119666692D03*
D21*
X211103411Y-118796692D03*
D22*
X206756000Y-122210000D03*
%TD*%
D12*
%TO.C,J2*%
X216541641Y-78728932D03*
X216281641Y-80018932D03*
X218567641Y-80018932D03*
X218827641Y-78728932D03*
X220853641Y-80018932D03*
X221113641Y-78728932D03*
X223399641Y-78728932D03*
X223139641Y-80018932D03*
%TD*%
D13*
%TO.C,SW3*%
X192283903Y-124646886D03*
D14*
X197366315Y-124647539D03*
X187206315Y-124643578D03*
D15*
X188473903Y-122106886D03*
D17*
X196698802Y-121463454D03*
D15*
X196093903Y-122106886D03*
D16*
X187869004Y-121463454D03*
D19*
X191028555Y-119151955D03*
D15*
X192283903Y-118746886D03*
D18*
X193539251Y-119151955D03*
%TD*%
D12*
%TO.C,J3*%
X194313491Y-127916194D03*
X194053491Y-129206194D03*
X196339491Y-129206194D03*
X196599491Y-127916194D03*
X198885491Y-127916194D03*
X198625491Y-129206194D03*
X201171491Y-127916194D03*
X200911491Y-129206194D03*
%TD*%
D20*
%TO.C,SW2*%
X214378412Y-94698692D03*
X210566000Y-98112000D03*
D13*
X214378412Y-100648692D03*
D20*
X219376000Y-96902000D03*
X209378412Y-96898693D03*
D14*
X219456000Y-100652000D03*
D20*
X216916000Y-95572000D03*
D14*
X209296000Y-100648039D03*
D22*
X220220412Y-95568692D03*
D21*
X222651000Y-96902000D03*
X211103411Y-94698692D03*
D22*
X206756000Y-98112000D03*
%TD*%
D12*
%TO.C,J3*%
X216148000Y-129306000D03*
X216408000Y-128016000D03*
X218694000Y-128016000D03*
X218434000Y-129306000D03*
X220720000Y-129306000D03*
X220980000Y-128016000D03*
X223266000Y-128016000D03*
X223006000Y-129306000D03*
%TD*%
%TO.C,J5*%
X194348163Y-102904170D03*
X194088163Y-104194170D03*
X196634163Y-102904170D03*
X196374163Y-104194170D03*
X198660163Y-104194170D03*
X198920163Y-102904170D03*
X201206163Y-102904170D03*
X200946163Y-104194170D03*
%TD*%
%TO.C,J2*%
X194447132Y-78629126D03*
X194187132Y-79919126D03*
X196473132Y-79919126D03*
X196733132Y-78629126D03*
X198759132Y-79919126D03*
X199019132Y-78629126D03*
X201045132Y-79919126D03*
X201305132Y-78629126D03*
%TD*%
D23*
%TO.C,mouse-bite-2mm-slot*%
X204702180Y-75639156D03*
X204702180Y-72591156D03*
X202670180Y-72591156D03*
X202670180Y-75639156D03*
X202670180Y-73607156D03*
X204702180Y-73607156D03*
X204702180Y-74623156D03*
X202670180Y-71575156D03*
X202670180Y-74623156D03*
X204702180Y-71575156D03*
%TD*%
D14*
%TO.C,SW1*%
X197366315Y-76351539D03*
D13*
X192283903Y-76350886D03*
D14*
X187206315Y-76347578D03*
D15*
X188473903Y-73810886D03*
X196093903Y-73810886D03*
D16*
X187869004Y-73167454D03*
D17*
X196698802Y-73167454D03*
D18*
X193539251Y-70855955D03*
D19*
X191028555Y-70855955D03*
D15*
X192283903Y-70450886D03*
%TD*%
D13*
%TO.C,SW1*%
X214378412Y-76450692D03*
D14*
X209296000Y-76450039D03*
X219456000Y-76454000D03*
D20*
X210566000Y-73914000D03*
X214378412Y-70500692D03*
X219376000Y-72704000D03*
X209378412Y-72700693D03*
X216916000Y-71374000D03*
D22*
X220220412Y-71370692D03*
D21*
X222651000Y-72704000D03*
X211103411Y-70500692D03*
D22*
X206756000Y-73914000D03*
%TD*%
D24*
%TO.C,D2*%
X205983046Y-108559411D03*
D12*
X205983046Y-101407411D03*
%TD*%
D24*
%TO.C,D3*%
X213380000Y-129286000D03*
D12*
X206228000Y-129286000D03*
%TD*%
D24*
%TO.C,D3*%
X191285491Y-129186194D03*
D12*
X184133491Y-129186194D03*
%TD*%
D24*
%TO.C,D2*%
X183888537Y-108459605D03*
D12*
X183888537Y-101307605D03*
%TD*%
D24*
%TO.C,D1*%
X206078401Y-84206247D03*
D12*
X206078401Y-77054247D03*
%TD*%
D24*
%TO.C,D1*%
X183983892Y-84106441D03*
D12*
X183983892Y-76954441D03*
%TD*%
M02*
