%TF.GenerationSoftware,KiCad,Pcbnew,(6.0.4)*%
%TF.CreationDate,2022-12-14T16:12:08+01:00*%
%TF.ProjectId,column,636f6c75-6d6e-42e6-9b69-6361645f7063,rev?*%
%TF.SameCoordinates,Original*%
%TF.FileFunction,Soldermask,Top*%
%TF.FilePolarity,Negative*%
%FSLAX46Y46*%
G04 Gerber Fmt 4.6, Leading zero omitted, Abs format (unit mm)*
G04 Created by KiCad (PCBNEW (6.0.4)) date 2022-12-14 16:12:08*
%MOMM*%
%LPD*%
G01*
G04 APERTURE LIST*
G04 Aperture macros list*
%AMHorizOval*
0 Thick line with rounded ends*
0 $1 width*
0 $2 $3 position (X,Y) of the first rounded end (center of the circle)*
0 $4 $5 position (X,Y) of the second rounded end (center of the circle)*
0 Add line between two ends*
20,1,$1,$2,$3,$4,$5,0*
0 Add two circle primitives to create the rounded ends*
1,1,$1,$2,$3*
1,1,$1,$4,$5*%
G04 Aperture macros list end*
%ADD10C,0.100000*%
%ADD11C,1.600000*%
%ADD12C,3.987800*%
%ADD13O,2.701800X1.701800*%
%ADD14C,2.032000*%
%ADD15HorizOval,2.032000X-0.608505X0.641231X0.608505X-0.641231X0*%
%ADD16HorizOval,2.032000X-0.608505X-0.641231X0.608505X0.641231X0*%
%ADD17HorizOval,2.032000X-1.269427X0.410014X1.269427X-0.410014X0*%
%ADD18HorizOval,2.032000X-1.269427X-0.410014X1.269427X0.410014X0*%
%ADD19C,3.000000*%
%ADD20C,0.500000*%
%ADD21R,1.600000X1.600000*%
G04 APERTURE END LIST*
%TO.C,D2*%
G36*
X206408046Y-103808411D02*
G01*
X205558046Y-103808411D01*
X205558046Y-102608411D01*
X206408046Y-102608411D01*
X206408046Y-103808411D01*
G37*
D10*
X206408046Y-103808411D02*
X205558046Y-103808411D01*
X205558046Y-102608411D01*
X206408046Y-102608411D01*
X206408046Y-103808411D01*
G36*
X206408046Y-107358411D02*
G01*
X205558046Y-107358411D01*
X205558046Y-106158411D01*
X206408046Y-106158411D01*
X206408046Y-107358411D01*
G37*
X206408046Y-107358411D02*
X205558046Y-107358411D01*
X205558046Y-106158411D01*
X206408046Y-106158411D01*
X206408046Y-107358411D01*
%TO.C,D3*%
G36*
X212179000Y-129711000D02*
G01*
X210979000Y-129711000D01*
X210979000Y-128861000D01*
X212179000Y-128861000D01*
X212179000Y-129711000D01*
G37*
X212179000Y-129711000D02*
X210979000Y-129711000D01*
X210979000Y-128861000D01*
X212179000Y-128861000D01*
X212179000Y-129711000D01*
G36*
X208629000Y-129711000D02*
G01*
X207429000Y-129711000D01*
X207429000Y-128861000D01*
X208629000Y-128861000D01*
X208629000Y-129711000D01*
G37*
X208629000Y-129711000D02*
X207429000Y-129711000D01*
X207429000Y-128861000D01*
X208629000Y-128861000D01*
X208629000Y-129711000D01*
G36*
X186534491Y-129611194D02*
G01*
X185334491Y-129611194D01*
X185334491Y-128761194D01*
X186534491Y-128761194D01*
X186534491Y-129611194D01*
G37*
X186534491Y-129611194D02*
X185334491Y-129611194D01*
X185334491Y-128761194D01*
X186534491Y-128761194D01*
X186534491Y-129611194D01*
G36*
X190084491Y-129611194D02*
G01*
X188884491Y-129611194D01*
X188884491Y-128761194D01*
X190084491Y-128761194D01*
X190084491Y-129611194D01*
G37*
X190084491Y-129611194D02*
X188884491Y-129611194D01*
X188884491Y-128761194D01*
X190084491Y-128761194D01*
X190084491Y-129611194D01*
%TO.C,D2*%
G36*
X184313537Y-107258605D02*
G01*
X183463537Y-107258605D01*
X183463537Y-106058605D01*
X184313537Y-106058605D01*
X184313537Y-107258605D01*
G37*
X184313537Y-107258605D02*
X183463537Y-107258605D01*
X183463537Y-106058605D01*
X184313537Y-106058605D01*
X184313537Y-107258605D01*
G36*
X184313537Y-103708605D02*
G01*
X183463537Y-103708605D01*
X183463537Y-102508605D01*
X184313537Y-102508605D01*
X184313537Y-103708605D01*
G37*
X184313537Y-103708605D02*
X183463537Y-103708605D01*
X183463537Y-102508605D01*
X184313537Y-102508605D01*
X184313537Y-103708605D01*
%TO.C,D1*%
G36*
X206503401Y-83005247D02*
G01*
X205653401Y-83005247D01*
X205653401Y-81805247D01*
X206503401Y-81805247D01*
X206503401Y-83005247D01*
G37*
X206503401Y-83005247D02*
X205653401Y-83005247D01*
X205653401Y-81805247D01*
X206503401Y-81805247D01*
X206503401Y-83005247D01*
G36*
X206503401Y-79455247D02*
G01*
X205653401Y-79455247D01*
X205653401Y-78255247D01*
X206503401Y-78255247D01*
X206503401Y-79455247D01*
G37*
X206503401Y-79455247D02*
X205653401Y-79455247D01*
X205653401Y-78255247D01*
X206503401Y-78255247D01*
X206503401Y-79455247D01*
G36*
X184408892Y-79355441D02*
G01*
X183558892Y-79355441D01*
X183558892Y-78155441D01*
X184408892Y-78155441D01*
X184408892Y-79355441D01*
G37*
X184408892Y-79355441D02*
X183558892Y-79355441D01*
X183558892Y-78155441D01*
X184408892Y-78155441D01*
X184408892Y-79355441D01*
G36*
X184408892Y-82905441D02*
G01*
X183558892Y-82905441D01*
X183558892Y-81705441D01*
X184408892Y-81705441D01*
X184408892Y-82905441D01*
G37*
X184408892Y-82905441D02*
X183558892Y-82905441D01*
X183558892Y-81705441D01*
X184408892Y-81705441D01*
X184408892Y-82905441D01*
%TD*%
D11*
%TO.C,J5*%
X216182672Y-104293976D03*
X216442672Y-103003976D03*
X218728672Y-103003976D03*
X218468672Y-104293976D03*
X220754672Y-104293976D03*
X221014672Y-103003976D03*
X223040672Y-104293976D03*
X223300672Y-103003976D03*
%TD*%
D12*
%TO.C,SW2*%
X192283903Y-100548886D03*
D13*
X187206315Y-100545578D03*
X197366315Y-100549539D03*
D14*
X188473903Y-98008886D03*
X196093903Y-98008886D03*
D15*
X187869004Y-97365454D03*
D16*
X196698802Y-97365454D03*
D14*
X192283903Y-94648886D03*
D17*
X193539251Y-95053955D03*
D18*
X191028555Y-95053955D03*
%TD*%
D13*
%TO.C,SW3*%
X219456000Y-124750000D03*
D19*
X209378412Y-120996693D03*
D12*
X214378412Y-124746692D03*
D19*
X219376000Y-121000000D03*
X214378412Y-118796692D03*
D13*
X209296000Y-124746039D03*
D19*
X216916000Y-119670000D03*
X210566000Y-122210000D03*
%TD*%
D11*
%TO.C,J2*%
X216541641Y-78728932D03*
X216281641Y-80018932D03*
X218567641Y-80018932D03*
X218827641Y-78728932D03*
X220853641Y-80018932D03*
X221113641Y-78728932D03*
X223399641Y-78728932D03*
X223139641Y-80018932D03*
%TD*%
D12*
%TO.C,SW3*%
X192283903Y-124646886D03*
D13*
X197366315Y-124647539D03*
X187206315Y-124643578D03*
D14*
X188473903Y-122106886D03*
D16*
X196698802Y-121463454D03*
D14*
X196093903Y-122106886D03*
D15*
X187869004Y-121463454D03*
D18*
X191028555Y-119151955D03*
D14*
X192283903Y-118746886D03*
D17*
X193539251Y-119151955D03*
%TD*%
D11*
%TO.C,J3*%
X194313491Y-127916194D03*
X194053491Y-129206194D03*
X196339491Y-129206194D03*
X196599491Y-127916194D03*
X198885491Y-127916194D03*
X198625491Y-129206194D03*
X201171491Y-127916194D03*
X200911491Y-129206194D03*
%TD*%
D19*
%TO.C,SW2*%
X214378412Y-94698692D03*
X210566000Y-98112000D03*
D12*
X214378412Y-100648692D03*
D19*
X219376000Y-96902000D03*
X209378412Y-96898693D03*
D13*
X219456000Y-100652000D03*
D19*
X216916000Y-95572000D03*
D13*
X209296000Y-100648039D03*
%TD*%
D11*
%TO.C,J3*%
X216148000Y-129306000D03*
X216408000Y-128016000D03*
X218694000Y-128016000D03*
X218434000Y-129306000D03*
X220720000Y-129306000D03*
X220980000Y-128016000D03*
X223266000Y-128016000D03*
X223006000Y-129306000D03*
%TD*%
%TO.C,J5*%
X194348163Y-102904170D03*
X194088163Y-104194170D03*
X196634163Y-102904170D03*
X196374163Y-104194170D03*
X198660163Y-104194170D03*
X198920163Y-102904170D03*
X201206163Y-102904170D03*
X200946163Y-104194170D03*
%TD*%
%TO.C,J2*%
X194447132Y-78629126D03*
X194187132Y-79919126D03*
X196473132Y-79919126D03*
X196733132Y-78629126D03*
X198759132Y-79919126D03*
X199019132Y-78629126D03*
X201045132Y-79919126D03*
X201305132Y-78629126D03*
%TD*%
D20*
%TO.C,mouse-bite-2mm-slot*%
X204702180Y-75639156D03*
X204702180Y-72591156D03*
X202670180Y-72591156D03*
X202670180Y-75639156D03*
X202670180Y-73607156D03*
X204702180Y-73607156D03*
X204702180Y-74623156D03*
X202670180Y-71575156D03*
X202670180Y-74623156D03*
X204702180Y-71575156D03*
%TD*%
D13*
%TO.C,SW1*%
X197366315Y-76351539D03*
D12*
X192283903Y-76350886D03*
D13*
X187206315Y-76347578D03*
D14*
X188473903Y-73810886D03*
X196093903Y-73810886D03*
D15*
X187869004Y-73167454D03*
D16*
X196698802Y-73167454D03*
D17*
X193539251Y-70855955D03*
D18*
X191028555Y-70855955D03*
D14*
X192283903Y-70450886D03*
%TD*%
D12*
%TO.C,SW1*%
X214378412Y-76450692D03*
D13*
X209296000Y-76450039D03*
X219456000Y-76454000D03*
D19*
X210566000Y-73914000D03*
X214378412Y-70500692D03*
X219376000Y-72704000D03*
X209378412Y-72700693D03*
X216916000Y-71374000D03*
%TD*%
D21*
%TO.C,D2*%
X205983046Y-108559411D03*
D11*
X205983046Y-101407411D03*
%TD*%
D21*
%TO.C,D3*%
X213380000Y-129286000D03*
D11*
X206228000Y-129286000D03*
%TD*%
D21*
%TO.C,D3*%
X191285491Y-129186194D03*
D11*
X184133491Y-129186194D03*
%TD*%
D21*
%TO.C,D2*%
X183888537Y-108459605D03*
D11*
X183888537Y-101307605D03*
%TD*%
D21*
%TO.C,D1*%
X206078401Y-84206247D03*
D11*
X206078401Y-77054247D03*
%TD*%
D21*
%TO.C,D1*%
X183983892Y-84106441D03*
D11*
X183983892Y-76954441D03*
%TD*%
M02*
