M48
; DRILL file {KiCad (6.0.4)} date Wed Dec 14 16:12:08 2022
; FORMAT={-:-/ absolute / inch / decimal}
; #@! TF.CreationDate,2022-12-14T16:12:08+01:00
; #@! TF.GenerationSoftware,Kicad,Pcbnew,(6.0.4)
; #@! TF.FileFunction,Plated,1,2,PTH
FMAT,2
INCH
; #@! TA.AperFunction,Plated,PTH,ViaDrill
T1C0.0157
; #@! TA.AperFunction,Plated,PTH,ComponentDrill
T2C0.0394
; #@! TA.AperFunction,Plated,PTH,ComponentDrill
T3C0.0500
%
G90
G05
T1
X7.3001Y-3.0861
X7.3301Y-4.0161
X7.4001Y-4.9861
X7.4701Y-3.1661
X7.5051Y-4.1211
X7.5301Y-3.1361
X7.5601Y-4.0961
X8.17Y-3.09
X8.2Y-4.02
X8.27Y-4.99
X8.34Y-3.17
X8.375Y-4.125
X8.4Y-3.14
X8.43Y-4.1
T2
X7.2397Y-3.9885
X7.2397Y-4.2701
X7.2435Y-3.0297
X7.2435Y-3.3113
X7.2494Y-5.0861
X7.5309Y-5.0861
X7.6399Y-5.0869
X7.6413Y-4.1021
X7.6452Y-3.1464
X7.6501Y-5.0361
X7.6515Y-4.0513
X7.6554Y-3.0956
X7.7299Y-5.0869
X7.7313Y-4.1021
X7.7352Y-3.1464
X7.7401Y-5.0361
X7.7415Y-4.0513
X7.7454Y-3.0956
X7.8199Y-5.0869
X7.8213Y-4.1021
X7.8252Y-3.1464
X7.8301Y-5.0361
X7.8315Y-4.0513
X7.8354Y-3.0956
X7.9099Y-5.0869
X7.9113Y-4.1021
X7.9152Y-3.1464
X7.9201Y-5.0361
X7.9215Y-4.0513
X7.9254Y-3.0956
X8.1096Y-3.9924
X8.1096Y-4.274
X8.1133Y-3.0336
X8.1133Y-3.3152
X8.1192Y-5.09
X8.4008Y-5.09
X8.5098Y-5.0908
X8.5111Y-4.1061
X8.515Y-3.1504
X8.52Y-5.04
X8.5214Y-4.0553
X8.5253Y-3.0996
X8.5998Y-5.0908
X8.6011Y-4.1061
X8.605Y-3.1504
X8.61Y-5.04
X8.6114Y-4.0553
X8.6153Y-3.0996
X8.6898Y-5.0908
X8.6911Y-4.1061
X8.695Y-3.1504
X8.7Y-5.04
X8.7014Y-4.0553
X8.7053Y-3.0996
X8.7798Y-5.0908
X8.7811Y-4.1061
X8.785Y-3.1504
X8.79Y-5.04
X8.7914Y-4.0553
X8.7953Y-3.0996
T3
X7.3734Y-2.8563
X7.3734Y-3.809
X7.3734Y-4.7578
X7.4202Y-2.9059
X7.4202Y-3.8586
X7.4202Y-4.8074
X7.4702Y-2.8059
X7.4702Y-3.7586
X7.4702Y-4.7074
X7.5702Y-2.7737
X7.5702Y-3.7263
X7.5702Y-4.6751
X7.6702Y-2.8059
X7.6702Y-3.7586
X7.6702Y-4.7074
X7.7202Y-2.9059
X7.7202Y-3.8586
X7.7202Y-4.8074
X7.7671Y-2.8563
X7.7671Y-3.809
X7.7671Y-4.7578
T0
M30
