0
SECTION
2
HEADER
9
$INSUNITS
70
4
9
$ACADVER
1
AC1014
9
$HANDSEED
5
FFFF
0
ENDSEC
0
SECTION
2
TABLES
0
TABLE
2
VPORT
5
8
100
AcDbSymbolTable
0
ENDTAB
0
TABLE
2
LTYPE
5
5
100
AcDbSymbolTable
0
LTYPE
5
14
100
AcDbSymbolTableRecord
100
AcDbLinetypeTableRecord
2
BYBLOCK
70
0
0
LTYPE
5
15
100
AcDbSymbolTableRecord
100
AcDbLinetypeTableRecord
2
BYLAYER
70
0
0
ENDTAB
0
TABLE
2
LAYER
5
2
100
AcDbSymbolTable
70
2
0
LAYER
5
50
100
AcDbSymbolTableRecord
100
AcDbLayerTableRecord
2
0
70
0
6
CONTINUOUS
0
ENDTAB
0
TABLE
2
STYLE
5
3
100
AcDbSymbolTable
70
1
0
STYLE
5
11
100
AcDbSymbolTableRecord
100
AcDbTextStyleTableRecord
2
STANDARD
70
0
0
ENDTAB
0
TABLE
2
VIEW
5
6
100
AcDbSymbolTable
70
0
0
ENDTAB
0
TABLE
2
UCS
5
7
100
AcDbSymbolTable
70
0
0
ENDTAB
0
TABLE
2
APPID
5
9
100
AcDbSymbolTable
70
2
0
APPID
5
12
100
AcDbSymbolTableRecord
100
AcDbRegAppTableRecord
2
ACAD
70
0
0
ENDTAB
0
TABLE
2
DIMSTYLE
5
A
100
AcDbSymbolTable
70
1
0
ENDTAB
0
TABLE
2
BLOCK_RECORD
5
1
100
AcDbSymbolTable
70
1
0
BLOCK_RECORD
5
1F
100
AcDbSymbolTableRecord
100
AcDbBlockTableRecord
2
*MODEL_SPACE
0
BLOCK_RECORD
5
1B
100
AcDbSymbolTableRecord
100
AcDbBlockTableRecord
2
*PAPER_SPACE
0
ENDTAB
0
ENDSEC
0
SECTION
2
BLOCKS
0
BLOCK
5
20
100
AcDbEntity
100
AcDbBlockBegin
2
*MODEL_SPACE
0
ENDBLK
5
21
100
AcDbEntity
100
AcDbBlockEnd
0
BLOCK
5
1C
100
AcDbEntity
100
AcDbBlockBegin
2
*PAPER_SPACE
0
ENDBLK
5
1D
100
AcDbEntity
100
AcDbBlockEnd
0
ENDSEC
0
SECTION
2
ENTITIES
0
SPLINE
5
100
100
AcDbEntity
8
0
100
AcDbSpline
70
6
71
5
72
51
73
45
74
0
42
0.000000001
43
0.0000000001
44
0.0000000001
40
0
40
0
40
0
40
0
40
0
40
0
40
0.025000000000000001
40
0.050000000000000003
40
0.075000000000000011
40
0.10000000000000001
40
0.125
40
0.14999999999999999
40
0.17499999999999999
40
0.19999999999999998
40
0.22499999999999998
40
0.24999999999999997
40
0.27499999999999997
40
0.29999999999999999
40
0.32500000000000001
40
0.35000000000000003
40
0.37500000000000006
40
0.40000000000000008
40
0.4250000000000001
40
0.45000000000000012
40
0.47500000000000014
40
0.50000000000000011
40
0.52500000000000013
40
0.55000000000000016
40
0.57500000000000018
40
0.6000000000000002
40
0.62500000000000022
40
0.65000000000000024
40
0.67500000000000027
40
0.70000000000000029
40
0.72500000000000031
40
0.75000000000000033
40
0.77500000000000036
40
0.80000000000000038
40
0.8250000000000004
40
0.85000000000000042
40
0.87500000000000044
40
0.90000000000000047
40
0.92500000000000049
40
0.95000000000000051
40
0.97500000000000053
40
1
40
1
40
1
40
1
40
1
40
1
41
1
41
1
41
1
41
1
41
1
41
1
41
1
41
1
41
1
41
1
41
1
41
1
41
1
41
1
41
1
41
1
41
1
41
1
41
1
41
1
41
1
41
1
41
1
41
1
41
1
41
1
41
1
41
1
41
1
41
1
41
1
41
1
41
1
41
1
41
1
41
1
41
1
41
1
41
1
41
1
41
1
41
1
41
1
41
1
41
1
10
75.524017771782766
20
26.941858755792762
30
0
10
74.797976078542291
20
27.995331016573068
30
0
10
73.124210545604953
20
29.928464121136148
30
0
10
69.893259576866924
20
32.392585650827108
30
0
10
64.00120576879003
20
35.202191662577967
30
0
10
54.408940912924322
20
38.289574851686588
30
0
10
43.31460204666115
20
41.110948545545213
30
0
10
31.597817982922489
20
43.54538774984146
30
0
10
20.03606746503095
20
45.326157094235882
30
0
10
9.0205285241098245
20
46.08291155685518
30
0
10
-1.3623730594103804
20
45.434007504597631
30
0
10
-11.136729828852532
20
43.050909417766192
30
0
10
-20.16338912795667
20
38.762963917931231
30
0
10
-28.159131299712719
20
32.58072211320507
30
0
10
-33.972292181102659
20
24.909697616185809
30
0
10
-37.00372976698268
20
16.228010168958619
30
0
10
-37.825728718664571
20
6.8363363110290809
30
0
10
-37.386109368688352
20
-3.0854694703374785
30
0
10
-36.735851144092969
20
-13.451147096877891
30
0
10
-36.601934753795852
20
-24.435980368879243
30
0
10
-36.853771145644735
20
-36.041907785097564
30
0
10
-36.61999723591515
20
-47.387029376367273
30
0
10
-34.790598649876664
20
-57.344138687043994
30
0
10
-30.413250420150266
20
-64.747616842789711
30
0
10
-23.074334130895839
20
-68.749038826710404
30
0
10
-13.434337417992834
20
-69.185755635582197
30
0
10
-3.1755405860661856
20
-66.671021901982243
30
0
10
5.817323144469837
20
-62.249467888954143
30
0
10
12.144793314814223
20
-57.161148830806127
30
0
10
15.504002145065019
20
-52.570914435605225
30
0
10
17.667567621892765
20
-49.292283014104676
30
0
10
21.488480082447097
20
-47.617762985741351
30
0
10
28.938282417468812
20
-47.1880760562495
30
0
10
39.601227455645066
20
-46.876898089562005
30
0
10
51.657697073001188
20
-45.253957466343053
30
0
10
62.748858795204328
20
-40.999035705883472
30
0
10
70.919898123799186
20
-33.360710788796943
30
0
10
75.436569080178586
20
-22.53728091887087
30
0
10
77.966603348915257
20
-10.281540066073644
30
0
10
79.197177180408346
20
1.9035486524275835
30
0
10
79.442976799649941
20
12.701811049656257
30
0
10
78.716272355670739
20
19.579206273782333
30
0
10
77.480460705047122
20
23.607630556454065
30
0
10
76.250059465023242
20
25.88838649501248
30
0
10
75.524017771782766
20
26.941858755792762
30
0
0
SPLINE
5
101
100
AcDbEntity
8
0
100
AcDbSpline
70
0
71
3
72
95
73
91
74
0
42
0.000000001
43
0.0000000001
44
0.0000000001
40
0
40
0
40
0
40
0
40
0.026112441191784623
40
0.026112441191784623
40
0.026112441191784623
40
0.06622655573688456
40
0.06622655573688456
40
0.06622655573688456
40
0.11744131639199293
40
0.11744131639199293
40
0.11744131639199293
40
0.16102438733133709
40
0.16102438733133709
40
0.16102438733133709
40
0.21346036312312852
40
0.21346036312312852
40
0.21346036312312852
40
0.25099987587714689
40
0.25099987587714689
40
0.25099987587714689
40
0.28882145142415655
40
0.28882145142415655
40
0.28882145142415655
40
0.32880573759645199
40
0.32880573759645199
40
0.32880573759645199
40
0.37833779811168838
40
0.37833779811168838
40
0.37833779811168838
40
0.41370248402192739
40
0.41370248402192739
40
0.41370248402192739
40
0.44962148612055242
40
0.44962148612055242
40
0.44962148612055242
40
0.48547213581422588
40
0.48547213581422588
40
0.48547213581422588
40
0.51504351154663974
40
0.51504351154663974
40
0.51504351154663974
40
0.54545202081217148
40
0.54545202081217148
40
0.54545202081217148
40
0.57426628869484964
40
0.57426628869484964
40
0.57426628869484964
40
0.6105744131822185
40
0.6105744131822185
40
0.6105744131822185
40
0.63857185382784232
40
0.63857185382784232
40
0.63857185382784232
40
0.6653907834251207
40
0.6653907834251207
40
0.6653907834251207
40
0.68847409203865251
40
0.68847409203865251
40
0.68847409203865251
40
0.70841870861090128
40
0.70841870861090128
40
0.70841870861090128
40
0.7334875229704908
40
0.7334875229704908
40
0.7334875229704908
40
0.7614024155239224
40
0.7614024155239224
40
0.7614024155239224
40
0.79962758755665075
40
0.79962758755665075
40
0.79962758755665075
40
0.82901274108731804
40
0.82901274108731804
40
0.82901274108731804
40
0.85879577150724051
40
0.85879577150724051
40
0.85879577150724051
40
0.90264764677315601
40
0.90264764677315601
40
0.90264764677315601
40
0.94189504298793525
40
0.94189504298793525
40
0.94189504298793525
40
0.97121832995648982
40
0.97121832995648982
40
0.97121832995648982
40
0.99702628334200294
40
0.99702628334200294
40
0.99702628334200294
40
1
40
1
40
1
40
1
10
73.053841571725584
20
25.239440023320917
30
0
10
72.050438275757173
20
26.695358531196653
30
0
10
70.719695848653558
20
27.926296692403167
30
0
10
68.827898916591025
20
29.133065950256398
30
0
10
65.921707256015793
20
30.986913313032261
30
0
10
61.706759688749329
20
32.702143534621541
30
0
10
56.640472079234918
20
34.303286974139368
30
0
10
50.172207472783157
20
36.347509536679254
30
0
10
42.376397728480427
20
38.248223037344985
30
0
10
34.56245717443597
20
39.778601069259899
30
0
10
27.912899095347893
20
41.080932144828623
30
0
10
21.278202384205372
20
42.094852992743526
30
0
10
15.048898976797405
20
42.517485655905105
30
0
10
7.5542549411542534
20
43.025966486115607
30
0
10
0.60902837879647453
20
42.654075442471473
30
0
10
-5.7944829510695701
20
41.014599838318937
30
0
10
-10.378829701714736
20
39.840880565955914
30
0
10
-14.71005973727382
20
38.016120284693947
30
0
10
-18.637173166244153
20
35.543760303069902
30
0
10
-22.593793972932126
20
33.052823608256574
30
0
10
-26.080550043649538
20
29.920512222180442
30
0
10
-28.627815508940447
20
26.421366848975964
30
0
10
-31.3207385257091
20
22.722133595544424
30
0
10
-32.956494923611423
20
18.633276979278161
30
0
10
-33.782166461398461
20
14.127809944297287
30
0
10
-34.804998590979217
20
8.5464907014217353
30
0
10
-34.59742038779234
20
2.3092667240304863
30
0
10
-34.269439988588005
20
-4.411560476074059
30
0
10
-34.035269964528375
20
-9.2100675544455779
30
0
10
-33.784962962054081
20
-14.265123233326147
30
0
10
-33.717848731522722
20
-19.511413091667954
30
0
10
-33.649682533371767
20
-24.839934795778884
30
0
10
-33.762568978015523
20
-30.391513849578324
30
0
10
-33.731483219622881
20
-35.784858867046907
30
0
10
-33.700456616168339
20
-41.167940567576302
30
0
10
-33.485981980961022
20
-46.372222811759862
30
0
10
-32.65626520135153
20
-50.768525608481497
30
0
10
-31.971874071735531
20
-54.394811964409364
30
0
10
-30.866275871358177
20
-57.432899247909944
30
0
10
-29.314623433952271
20
-59.698790795379892
30
0
10
-27.719045401103987
20
-62.028827271850091
30
0
10
-25.676421845938691
20
-63.610496326641588
30
0
10
-22.984533614506525
20
-64.576492878245588
30
0
10
-20.433774288115096
20
-65.491844669042237
30
0
10
-17.26624843498595
20
-65.800978877926454
30
0
10
-13.839011976363402
20
-65.490912821554105
30
0
10
-9.5204386746234544
20
-65.100206487459005
30
0
10
-4.8620982542473259
20
-63.730583554677565
30
0
10
-0.85190307380632402
20
-61.889773035041962
30
0
10
2.2403855840895899
20
-60.470311578660009
30
0
10
4.9385094071494011
20
-58.787144425201902
30
0
10
7.038193064133198
20
-57.131215785170809
30
0
10
9.0494936285655498
20
-55.544991023513802
30
0
10
10.497878196066617
20
-54.005679530271358
30
0
10
11.654288214841998
20
-52.582198200915258
30
0
10
12.649621352592622
20
-51.356994237724194
30
0
10
13.438602875019356
20
-50.187258903853063
30
0
10
14.463449332027798
20
-49.014834512753168
30
0
10
15.348944993532694
20
-48.001827437730483
30
0
10
16.471366094857601
20
-46.996918245029477
30
0
10
17.872270813944919
20
-46.272437250238752
30
0
10
19.633097862740531
20
-45.361821621220848
30
0
10
21.703406554845124
20
-44.90445629574473
30
0
10
24.159465992423179
20
-44.623001554050333
30
0
10
26.894363396081467
20
-44.309593079267515
30
0
10
30.18977944882943
20
-44.203362572878618
30
0
10
33.936326647133669
20
-43.988898343989192
30
0
10
39.066649499345786
20
-43.695222413534758
30
0
10
45.009433880881843
20
-43.178694818030309
30
0
10
50.489836716902246
20
-41.743367992656118
30
0
10
54.702832242690327
20
-40.639977297796889
30
0
10
58.594982400726337
20
-38.998034726677815
30
0
10
61.774784480263925
20
-36.721797785093358
30
0
10
64.997641286690495
20
-34.414740447332306
30
0
10
67.502066228143292
20
-31.459485388071656
30
0
10
69.416451468781858
20
-27.795820511670858
30
0
10
72.235149955798022
20
-22.401521378545173
30
0
10
73.852110394081279
20
-15.46850497431231
30
0
10
74.866663505726081
20
-8.5792865160325213
30
0
10
75.774687796869912
20
-2.4134410464218456
30
0
10
76.197206687485703
20
3.7009825555527973
30
0
10
76.206461446086877
20
8.9243843303017236
30
0
10
76.213376043447738
20
12.826995050126811
30
0
10
75.971722053682967
20
16.238825596224903
30
0
10
75.444730682776253
20
18.971534297585425
30
0
10
74.980916078720682
20
21.3766404801402
30
0
10
74.309971130708021
20
23.227119228676063
30
0
10
73.384944080320196
20
24.731108172963829
30
0
10
73.278358009439415
20
24.904405021042546
30
0
10
73.168110363141651
20
25.073638247540742
30
0
10
73.053841571725584
20
25.23944002332092
30
0
0
LINE
5
102
100
AcDbEntity
8
0
100
AcDbLine
10
-34.000000506639481
20
-65.000000968575478
30
0
11
-22.000000327825546
21
-61.000000908970833
31
0
0
LINE
5
103
100
AcDbEntity
8
0
100
AcDbLine
10
-42.00000062584877
20
-52.000000774860382
30
0
11
-27.000000402331352
21
-46.000000685453415
31
0
0
LINE
5
104
100
AcDbEntity
8
0
100
AcDbLine
10
-5.000000074505806
20
-74.000001102685928
30
0
11
-10.000000149011612
21
-60.000000894069672
31
0
0
LINE
5
105
100
AcDbEntity
8
0
100
AcDbLine
10
13.000000193715096
20
-63.000000938773155
30
0
11
7.0000001043081284
21
-52.000000774860382
31
0
0
LINE
5
106
100
AcDbEntity
8
0
100
AcDbLine
10
16.000000238418579
20
-60.000000894069672
30
0
11
14.249431287973362
21
-39.154649251419485
31
0
0
LINE
5
107
100
AcDbEntity
8
0
100
AcDbLine
10
28.551483903023783
20
-50.702339238298407
30
0
11
28.551483903023787
21
-40.702339089286795
31
0
0
LINE
5
108
100
AcDbEntity
8
0
100
AcDbLine
10
31.085630184938143
20
-50.201344782324611
30
0
11
31.085630184938147
21
-41.201344648214175
31
0
0
LINE
5
109
100
AcDbEntity
8
0
100
AcDbLine
10
45.39885017618181
20
-50.856457549668207
30
0
11
45.39885017618181
21
-38.856457370854272
31
0
0
LINE
5
110
100
AcDbEntity
8
0
100
AcDbLine
10
50.00000074505806
20
-45.000000670552254
30
0
11
50.00000074505806
21
-30.000000447034836
31
0
0
LINE
5
111
100
AcDbEntity
8
0
100
AcDbLine
10
63.888889840907524
20
-44.000000655651093
30
0
11
63.888889840907524
21
-28.35026676050834
31
0
0
LINE
5
112
100
AcDbEntity
8
0
100
AcDbLine
10
76.000001132488251
20
32.000000476837158
30
0
11
73.000001087784767
21
18.000000268220901
31
0
0
LINE
5
113
100
AcDbEntity
8
0
100
AcDbLine
10
59.00000087916851
20
42.00000062584877
30
0
11
57.000000849366188
21
24.000000357627869
31
0
0
LINE
5
114
100
AcDbEntity
8
0
100
AcDbLine
10
53.000000789761543
20
43.000000640749931
30
0
11
50.00000074505806
21
24.000000357627869
31
0
0
LINE
5
115
100
AcDbEntity
8
0
100
AcDbLine
10
34.000000506639481
20
45.000000670552254
30
0
11
33.000000491738319
21
25.00000037252903
31
0
0
LINE
5
116
100
AcDbEntity
8
0
100
AcDbLine
10
28.000000417232513
20
44.000000655651093
30
0
11
27.000000402331352
21
30.000000447034836
31
0
0
LINE
5
117
100
AcDbEntity
8
0
100
AcDbLine
10
12.00000017881395
20
49.000000730156962
30
0
11
11.000000163912773
21
28.000000417232513
31
0
0
LINE
5
118
100
AcDbEntity
8
0
100
AcDbLine
10
9.8512302251058124
20
48.523979256466276
30
0
11
8.8512302102046512
21
32.523979018047726
31
0
0
LINE
5
119
100
AcDbEntity
8
0
100
AcDbLine
10
-6.0005232158951225
20
48.275523596059919
30
0
11
-8.0000001192092896
21
21.000000312924385
31
0
0
LINE
5
120
100
AcDbEntity
8
0
100
AcDbLine
10
-14.000000208616257
20
50
30
0
11
-14.000000208616257
21
20.000000298023224
31
0
0
LINE
5
121
100
AcDbEntity
8
0
100
AcDbLine
10
-26.523668165867811
20
45.127948490084663
30
0
11
-26.523668165867811
21
7.3814651608161146
31
0
0
ENDSEC
0
SECTION
2
OBJECTS
0
DICTIONARY
5
C
100
AcDbDictionary
3
ACAD_GROUP
350
D
3
ACAD_MLINESTYLE
350
17
0
DICTIONARY
5
D
100
AcDbDictionary
0
DICTIONARY
5
1A
330
C
100
AcDbDictionary
0
DICTIONARY
5
17
100
AcDbDictionary
0
ENDSEC
0
EOF
