0
SECTION
2
HEADER
9
$INSUNITS
70
4
9
$ACADVER
1
AC1014
9
$HANDSEED
5
FFFF
0
ENDSEC
0
SECTION
2
TABLES
0
TABLE
2
VPORT
5
8
100
AcDbSymbolTable
0
ENDTAB
0
TABLE
2
LTYPE
5
5
100
AcDbSymbolTable
0
LTYPE
5
14
100
AcDbSymbolTableRecord
100
AcDbLinetypeTableRecord
2
BYBLOCK
70
0
0
LTYPE
5
15
100
AcDbSymbolTableRecord
100
AcDbLinetypeTableRecord
2
BYLAYER
70
0
0
ENDTAB
0
TABLE
2
LAYER
5
2
100
AcDbSymbolTable
70
2
0
LAYER
5
50
100
AcDbSymbolTableRecord
100
AcDbLayerTableRecord
2
0
70
0
6
CONTINUOUS
0
ENDTAB
0
TABLE
2
STYLE
5
3
100
AcDbSymbolTable
70
1
0
STYLE
5
11
100
AcDbSymbolTableRecord
100
AcDbTextStyleTableRecord
2
STANDARD
70
0
0
ENDTAB
0
TABLE
2
VIEW
5
6
100
AcDbSymbolTable
70
0
0
ENDTAB
0
TABLE
2
UCS
5
7
100
AcDbSymbolTable
70
0
0
ENDTAB
0
TABLE
2
APPID
5
9
100
AcDbSymbolTable
70
2
0
APPID
5
12
100
AcDbSymbolTableRecord
100
AcDbRegAppTableRecord
2
ACAD
70
0
0
ENDTAB
0
TABLE
2
DIMSTYLE
5
A
100
AcDbSymbolTable
70
1
0
ENDTAB
0
TABLE
2
BLOCK_RECORD
5
1
100
AcDbSymbolTable
70
1
0
BLOCK_RECORD
5
1F
100
AcDbSymbolTableRecord
100
AcDbBlockTableRecord
2
*MODEL_SPACE
0
BLOCK_RECORD
5
1B
100
AcDbSymbolTableRecord
100
AcDbBlockTableRecord
2
*PAPER_SPACE
0
ENDTAB
0
ENDSEC
0
SECTION
2
BLOCKS
0
BLOCK
5
20
100
AcDbEntity
100
AcDbBlockBegin
2
*MODEL_SPACE
0
ENDBLK
5
21
100
AcDbEntity
100
AcDbBlockEnd
0
BLOCK
5
1C
100
AcDbEntity
100
AcDbBlockBegin
2
*PAPER_SPACE
0
ENDBLK
5
1D
100
AcDbEntity
100
AcDbBlockEnd
0
ENDSEC
0
SECTION
2
ENTITIES
0
SPLINE
5
100
100
AcDbEntity
8
0
100
AcDbSpline
70
0
71
3
72
12
73
8
74
0
42
0.000000001
43
0.0000000001
44
0.0000000001
40
0
40
0
40
0
40
0
40
0.11719334201607925
40
0.11719334201607925
40
0.21223221445814522
40
0.21223221445814522
40
0.30727108690020993
40
0.30727108690020993
40
0.30727108690020993
40
0.30727108690020993
10
-28.754008202480019
20
-12.400725765677475
30
0
10
-28.363363729364075
20
-12.400711215233285
30
0
10
-27.976451188303496
20
-12.476998356140218
30
0
10
-27.321966525989744
20
-12.745554107965367
30
0
10
-27.049774672887871
20
-12.911483149642738
30
0
10
-26.567437111500965
20
-13.322323643414238
30
0
10
-26.360321620535071
20
-13.564654048376056
30
0
10
-26.194969585426303
20
-13.834873520467088
30
0
0
LINE
5
101
100
AcDbEntity
8
0
100
AcDbLine
10
-28.754008202480019
20
-12.400725765677475
30
0
11
-31.359725337937519
21
-12.400822821554007
31
0
0
SPLINE
5
102
100
AcDbEntity
8
0
100
AcDbSpline
70
0
71
3
72
14
73
10
74
0
42
0.000000001
43
0.0000000001
44
0.0000000001
40
0
40
0
40
0
40
0
40
0.11719334201607846
40
0.11719334201607846
40
0.2343866840321564
40
0.2343866840321564
40
0.34190481493616542
40
0.34190481493616542
40
0.44942294584017428
40
0.44942294584017428
40
0.44942294584017428
40
0.44942294584017428
10
-34.350923298621694
20
-9.6319142156111308
30
0
10
-34.320831773580778
20
-10.021397982549448
30
0
10
-34.214953099406209
20
-10.401280528414272
30
0
10
-33.863540638958654
20
-11.099078279193964
30
0
10
-33.621366547342134
20
-11.410322157282218
30
0
10
-33.055700548857615
20
-11.901321411594633
30
0
10
-32.74512380762048
20
-12.085860398010851
30
0
10
-32.073632328809495
20
-12.336626365530524
30
0
10
-31.718119107368938
20
-12.400836170747196
30
0
10
-31.359725337937519
20
-12.400822821554007
30
0
0
SPLINE
5
103
100
AcDbEntity
8
0
100
AcDbSpline
70
0
71
3
72
14
73
10
74
0
42
0.000000001
43
0.0000000001
44
0.0000000001
40
0.34171892494967787
40
0.34171892494967787
40
0.34171892494967787
40
0.34171892494967787
40
0.37833779811168838
40
0.37833779811168838
40
0.37833779811168838
40
0.41370248402192739
40
0.41370248402192739
40
0.41370248402192739
40
0.42680474322833545
40
0.42680474322833545
40
0.42680474322833545
40
0.42680474322833545
10
-34.35092329862168
20
-9.6319142156111326
30
0
10
-34.688582513113531
20
-5.2614882361070663
30
0
10
-34.511914711285939
20
-0.55712276109338654
30
0
10
-34.269439988588005
20
4.411560476074059
30
0
10
-34.035269964528375
20
9.2100675544455779
30
0
10
-33.784962962054081
20
14.265123233326147
30
0
10
-33.717848731522722
20
19.511413091667954
30
0
10
-33.692983586471172
20
21.455110535225415
30
0
10
-33.69220910247148
20
23.428487738898639
30
0
10
-33.699749808542478
20
25.413038267648361
30
0
0
SPLINE
5
104
100
AcDbEntity
8
0
100
AcDbSpline
70
0
71
3
72
16
73
12
74
0
42
0.000000001
43
0.0000000001
44
0.0000000001
40
0
40
0
40
0
40
0
40
0.11719334201607878
40
0.11719334201607878
40
0.23438668403215721
40
0.23438668403215721
40
0.35158002604823591
40
0.35158002604823591
40
0.42692208428720074
40
0.42692208428720074
40
0.5022641425261658
40
0.5022641425261658
40
0.5022641425261658
40
0.5022641425261658
10
-30.414355072830702
20
28.410829350753282
30
0
10
-30.803227589545571
20
28.447994796150759
30
0
10
-31.195641510971498
20
28.408849469880131
30
0
10
-31.943376557334279
20
28.182344020074062
30
0
10
-32.291548927680822
20
27.997149412093773
30
0
10
-32.897308205290592
20
27.503724528306282
30
0
10
-33.149103723695546
20
27.200211663325433
30
0
10
-33.455565508819411
20
26.636324499330399
30
0
10
-33.547307501671341
20
26.401478709501511
30
0
10
-33.670119075699965
20
25.914443899949873
30
0
10
-33.700704060242487
20
25.664176648849512
30
0
10
-33.699749808542506
20
25.413038267650442
30
0
0
ARC
5
105
100
AcDbEntity
8
0
100
AcDbCircle
10
-30.0947270296769
20
31.755187536820241
30
0
40
3.3595972619770071
210
0
220
0
230
1
100
AcDbArc
50
-95.459308499545429
51
49.022559599404495
0
LINE
5
106
100
AcDbEntity
8
0
100
AcDbLine
10
-27.891631416942914
20
34.291575418007902
30
0
11
-29.64200453938432
21
35.72640123729321
31
0
0
ARC
5
107
100
AcDbEntity
8
0
100
AcDbCircle
10
-30.74040351598186
20
39.883746506597817
30
0
40
4.2999999999999945
210
-0
220
0
230
1
100
AcDbArc
50
-75.200245075695904
51
78.265492683070846
0
SPLINE
5
108
100
AcDbEntity
8
0
100
AcDbSpline
70
0
71
3
72
14
73
10
74
0
42
0.000000001
43
0.0000000001
44
0.0000000001
40
0
40
0
40
0
40
0
40
0.15625778935477072
40
0.15625778935477072
40
0.31251557870954172
40
0.31251557870954172
40
0.45776275396479904
40
0.45776275396479904
40
0.6030099292200567
40
0.6030099292200567
40
0.6030099292200567
40
0.6030099292200567
10
-33.014835395306569
20
48.55700018685269
30
0
10
-33.086026381799776
20
48.041029013628716
30
0
10
-33.055756100036568
20
47.516085623332515
30
0
10
-32.795700646782961
20
46.50734938731388
30
0
10
-32.568401747166838
20
46.033200609811502
30
0
10
-31.966818670130831
20
45.228119207352755
30
0
10
-31.608989008339332
20
44.89609865672459
30
0
10
-30.792167519186648
20
44.376064399137427
30
0
10
-30.339920973707027
20
44.192345115993277
30
0
10
-29.865882366796626
20
44.093878661248986
30
0
0
SPLINE
5
109
100
AcDbEntity
8
0
100
AcDbSpline
70
0
71
3
72
44
73
40
74
0
42
0.000000001
43
0.0000000001
44
0.0000000001
40
0.47962833435035152
40
0.47962833435035152
40
0.47962833435035152
40
0.47962833435035152
40
0.48547213581422588
40
0.48547213581422588
40
0.48547213581422588
40
0.51504351154663974
40
0.51504351154663974
40
0.51504351154663974
40
0.54545202081217148
40
0.54545202081217148
40
0.54545202081217148
40
0.57426628869484964
40
0.57426628869484964
40
0.57426628869484964
40
0.6105744131822185
40
0.6105744131822185
40
0.6105744131822185
40
0.63857185382784232
40
0.63857185382784232
40
0.63857185382784232
40
0.6653907834251207
40
0.6653907834251207
40
0.6653907834251207
40
0.68847409203865251
40
0.68847409203865251
40
0.68847409203865251
40
0.70841870861090128
40
0.70841870861090128
40
0.70841870861090128
40
0.7334875229704908
40
0.7334875229704908
40
0.7334875229704908
40
0.7614024155239224
40
0.7614024155239224
40
0.7614024155239224
40
0.79962758755665075
40
0.79962758755665075
40
0.79962758755665075
40
0.80041404931079274
40
0.80041404931079274
40
0.80041404931079274
40
0.80041404931079274
10
-33.014835395306569
20
48.55700018685269
30
0
10
-32.910412426363578
20
49.313826920840889
30
0
10
-32.791512405313327
20
50.051910402379661
30
0
10
-32.65626520135153
20
50.768525608481497
30
0
10
-31.971874071735531
20
54.394811964409364
30
0
10
-30.866275871358177
20
57.432899247909944
30
0
10
-29.314623433952271
20
59.698790795379892
30
0
10
-27.719045401103987
20
62.028827271850091
30
0
10
-25.676421845938691
20
63.610496326641588
30
0
10
-22.984533614506525
20
64.576492878245588
30
0
10
-20.433774288115096
20
65.491844669042237
30
0
10
-17.26624843498595
20
65.800978877926454
30
0
10
-13.839011976363402
20
65.490912821554105
30
0
10
-9.5204386746234544
20
65.100206487459005
30
0
10
-4.8620982542473259
20
63.730583554677565
30
0
10
-0.85190307380632402
20
61.889773035041962
30
0
10
2.2403855840895899
20
60.470311578660009
30
0
10
4.9385094071494011
20
58.787144425201902
30
0
10
7.038193064133198
20
57.131215785170809
30
0
10
9.0494936285655498
20
55.544991023513802
30
0
10
10.497878196066617
20
54.005679530271358
30
0
10
11.654288214841998
20
52.582198200915258
30
0
10
12.649621352592622
20
51.356994237724194
30
0
10
13.438602875019356
20
50.187258903853063
30
0
10
14.463449332027798
20
49.014834512753168
30
0
10
15.348944993532694
20
48.001827437730483
30
0
10
16.471366094857601
20
46.996918245029477
30
0
10
17.872270813944919
20
46.272437250238752
30
0
10
19.633097862740531
20
45.361821621220848
30
0
10
21.703406554845124
20
44.90445629574473
30
0
10
24.159465992423179
20
44.623001554050333
30
0
10
26.894363396081467
20
44.309593079267515
30
0
10
30.18977944882943
20
44.203362572878618
30
0
10
33.936326647133669
20
43.988898343989192
30
0
10
39.066649499345786
20
43.695222413534758
30
0
10
45.009433880881843
20
43.178694818030309
30
0
10
50.489836716902246
20
41.743367992656118
30
0
10
50.602592971449155
20
41.713836937782538
30
0
10
50.715119402164703
20
41.683920114348695
30
0
10
50.82740850347848
20
41.653615686857641
30
0
0
SPLINE
5
110
100
AcDbEntity
8
0
100
AcDbSpline
70
0
71
3
72
14
73
10
74
0
42
0.000000001
43
0.0000000001
44
0.0000000001
40
0
40
0
40
0
40
0
40
0.15625778935477097
40
0.15625778935477097
40
0.31251557870954183
40
0.31251557870954183
40
0.45860119506788788
40
0.45860119506788788
40
0.60468681142623459
40
0.60468681142623459
40
0.60468681142623459
40
0.60468681142623459
10
53.705400579063564
20
36.996868623062809
30
0
10
53.80891000894237
20
37.50733919624227
30
0
10
53.811723578134917
20
38.033147085876969
30
0
10
53.615642260401231
20
39.056245199187622
30
0
10
53.418622017745093
20
39.54375404726877
30
0
10
52.867348991591179
20
40.387425649620774
30
0
10
52.528772707446116
20
40.743023930116635
30
0
10
51.740576271125967
20
41.315069025723346
30
0
10
51.297540536510304
20
41.526737103455112
30
0
10
50.82740850347848
20
41.653615686857641
30
0
0
ARC
5
111
100
AcDbEntity
8
0
100
AcDbCircle
10
57.919635543737336
20
36.142337369964821
30
0
40
4.3000000000000211
210
0
220
0
230
1
100
AcDbArc
50
168.53740261123164
51
310.59435068706875
0
SPLINE
5
112
100
AcDbEntity
8
0
100
AcDbSpline
70
0
71
3
72
16
73
12
74
0
42
0.000000001
43
0.0000000001
44
0.0000000001
40
0
40
0
40
0
40
0
40
0.15625778935477144
40
0.15625778935477144
40
0.3125155787095425
40
0.3125155787095425
40
0.46877336806431391
40
0.46877336806431391
40
0.55389993582291375
40
0.55389993582291375
40
0.63902650358151436
40
0.63902650358151436
40
0.63902650358151436
40
0.63902650358151436
10
66.41605630013386
20
32.373064507802617
30
0
10
66.08619460492298
20
32.776159620882162
30
0
10
65.680753128219934
20
33.110971600868766
30
0
10
64.764352781785647
20
33.606338169865005
30
0
10
64.262155198843089
20
33.762156784479401
30
0
10
63.226299605643383
20
33.87252354877419
30
0
10
62.702544939442149
20
33.826016532033378
30
0
10
61.929997546492757
20
33.601127542942841
30
0
10
61.666762026148902
20
33.493052349515253
30
0
10
61.167610363267279
20
33.223023220978199
30
0
10
60.933108159057419
20
33.061834192735475
30
0
10
60.717642751431825
20
32.877194851530156
30
0
0
SPLINE
5
113
100
AcDbEntity
8
0
100
AcDbSpline
70
0
71
3
72
20
73
16
74
0
42
0.000000001
43
0.0000000001
44
0.0000000001
40
0.84520962156281898
40
0.84520962156281898
40
0.84520962156281898
40
0.84520962156281898
40
0.85879577150724051
40
0.85879577150724051
40
0.85879577150724051
40
0.90264764677315601
40
0.90264764677315601
40
0.90264764677315601
40
0.94189504298793525
40
0.94189504298793525
40
0.94189504298793525
40
0.97121832995648982
40
0.97121832995648982
40
0.97121832995648982
40
0.9942786234694535
40
0.9942786234694535
40
0.9942786234694535
40
0.9942786234694535
10
66.41605630013386
20
32.373064507802624
30
0
10
67.547095586742927
20
30.99092036753909
30
0
10
68.543164749331538
20
29.467077588438851
30
0
10
69.416451468781858
20
27.795820511670858
30
0
10
72.235149955798022
20
22.401521378545173
30
0
10
73.852110394081279
20
15.46850497431231
30
0
10
74.866663505726081
20
8.5792865160325213
30
0
10
75.774687796869912
20
2.4134410464218456
30
0
10
76.197206687485703
20
-3.7009825555527973
30
0
10
76.206461446086877
20
-8.9243843303017236
30
0
10
76.213376043447738
20
-12.826995050126811
30
0
10
75.971722053682967
20
-16.238825596224903
30
0
10
75.444730682776253
20
-18.971534297585425
30
0
10
75.030296390163016
20
-21.120579348584691
30
0
10
74.450488468628848
20
-22.826807815057755
30
0
10
73.671811480477658
20
-24.238705318099303
30
0
0
SPLINE
5
114
100
AcDbEntity
8
0
100
AcDbSpline
70
0
71
3
72
11
73
7
74
0
42
0.000000001
43
0.0000000001
44
0.0000000001
40
0
40
0
40
0
40
0
40
0.25
40
0.5
40
0.75
40
1
40
1
40
1
40
1
10
67.656898722990462
20
-25.419590634754883
30
0
10
68.109750591026526
20
-25.785100300065228
30
0
10
69.177213979298017
20
-26.31504267620986
30
0
10
70.964641588346467
20
-26.358675860084237
30
0
10
72.60289699267345
20
-25.642491147515464
30
0
10
73.390765269855152
20
-24.748298447285482
30
0
10
73.671811480477672
20
-24.238705318099306
30
0
0
ARC
5
115
100
AcDbEntity
8
0
100
AcDbCircle
10
64.956190966269915
20
-28.765659613839063
30
0
40
4.299999999999998
210
0
220
-0
230
1
100
AcDbArc
50
51.092010561520212
51
188.98337519711799
0
SPLINE
5
116
100
AcDbEntity
8
0
100
AcDbSpline
70
0
71
3
72
14
73
10
74
0
42
0.000000001
43
0.0000000001
44
0.0000000001
40
0
40
0
40
0
40
0
40
0.15625778935477108
40
0.15625778935477108
40
0.312515578709542
40
0.312515578709542
40
0.43865479916080674
40
0.43865479916080674
40
0.56479401961207121
40
0.56479401961207121
40
0.56479401961207121
40
0.56479401961207121
10
58.013794669727645
20
-33.859447238238246
30
0
10
58.508319357491445
20
-33.695924330521557
30
0
10
58.9661764596176
20
-33.437373122815359
30
0
10
59.757012685872425
20
-32.759320251818536
30
0
10
60.082430984639046
20
-32.346301143542028
30
0
10
60.510933149266428
20
-31.508162984092699
30
0
10
60.642113135504268
20
-31.105940575036513
30
0
10
60.774353491854072
20
-30.275475272544163
30
0
10
60.774590670756652
20
-29.852401994160278
30
0
10
60.708936100741226
20
-29.437095468737308
30
0
0
SPLINE
5
117
100
AcDbEntity
8
0
100
AcDbSpline
70
0
71
3
72
17
73
13
74
0
42
0.000000001
43
0.0000000001
44
0.0000000001
40
0.062544232129205984
40
0.062544232129205984
40
0.062544232129205984
40
0.062544232129205984
40
0.06622655573688456
40
0.06622655573688456
40
0.06622655573688456
40
0.11744131639199293
40
0.11744131639199293
40
0.11744131639199293
40
0.16102438733133709
40
0.16102438733133709
40
0.16102438733133709
40
0.21315845580500303
40
0.21315845580500303
40
0.21315845580500303
40
0.21315845580500303
10
58.013794669728412
20
-33.859447238237998
30
0
10
57.563430208742602
20
-34.008367824034579
30
0
10
57.105538071077511
20
-34.156308077721569
30
0
10
56.640472079234918
20
-34.303286974139368
30
0
10
50.172207472783157
20
-36.347509536679254
30
0
10
42.376397728480427
20
-38.248223037344985
30
0
10
34.56245717443597
20
-39.778601069259899
30
0
10
27.912899095347893
20
-41.080932144828623
30
0
10
21.278202384205372
20
-42.094852992743526
30
0
10
15.048898976797405
20
-42.517485655905105
30
0
10
7.5974063814953414
20
-43.023038838037174
30
0
10
0.68902278005483653
20
-42.658328685124481
30
0
10
-5.6838217927229815
20
-41.042792366029452
30
0
0
SPLINE
5
118
100
AcDbEntity
8
0
100
AcDbSpline
70
0
71
3
72
14
73
10
74
0
42
0.000000001
43
0.0000000001
44
0.0000000001
40
0
40
0
40
0
40
0
40
0.15625778935477111
40
0.15625778935477111
40
0.31251557870954239
40
0.31251557870954239
40
0.45273061751959209
40
0.45273061751959209
40
0.5929456563296418
40
0.5929456563296418
40
0.5929456563296418
40
0.5929456563296418
10
-8.6525677758900539
20
-36.545499183213984
30
0
10
-8.7332931865641452
20
-37.06006484105319
30
0
10
-8.7127407030986479
20
-37.585478438514372
30
0
10
-8.4713936232208003
20
-38.598853600859705
30
0
10
-8.2529064364364082
20
-39.077126746859705
30
0
10
-7.6761122579832648
20
-39.879580626830929
30
0
10
-7.3389026758423359
20
-40.208364330177766
30
0
10
-6.5663113867548306
20
-40.734569522900614
30
0
10
-6.1368744527142951
20
-40.927942079267801
30
0
10
-5.6838217926077128
20
-41.042792366058684
30
0
0
ARC
5
119
100
AcDbEntity
8
0
100
AcDbCircle
10
-12.900610074155892
20
-35.879063415758289
30
0
40
4.2999999999999954
210
-0
220
0
230
1
100
AcDbArc
50
-8.9159299108496057
51
138.35846506616383
0
SPLINE
5
120
100
AcDbEntity
8
0
100
AcDbSpline
70
0
71
3
72
14
73
10
74
0
42
0.000000001
43
0.0000000001
44
0.0000000001
40
0
40
0
40
0
40
0
40
0.15625778935477128
40
0.15625778935477128
40
0.31251557870954205
40
0.31251557870954205
40
0.45555618718368646
40
0.45555618718368646
40
0.59859679565783042
40
0.59859679565783042
40
0.59859679565783042
40
0.59859679565783042
10
-21.518157254839778
20
-33.552809556057781
30
0
10
-21.102924102098211
20
-33.867254840678655
30
0
10
-20.630242648306549
20
-34.097589588849864
30
0
10
-19.623194781951945
20
-34.3641083076946
30
0
10
-19.09845629587485
20
-34.397744214152048
30
0
10
-18.109303651324304
20
-34.267724341182358
30
0
10
-17.651464486125302
20
-34.121557439390926
30
0
10
-16.808884378458831
20
-33.674993380461949
30
0
10
-16.430891206649687
20
-33.378172514559481
30
0
10
-16.11407145315075
20
-33.021850444048177
30
0
0
SPLINE
5
121
100
AcDbEntity
8
0
100
AcDbSpline
70
0
71
3
72
11
73
7
74
0
42
0.000000001
43
0.0000000001
44
0.0000000001
40
0.26048585333942104
40
0.26048585333942104
40
0.26048585333942104
40
0.26048585333942104
40
0.28882145142415655
40
0.28882145142415655
40
0.28882145142415655
40
0.2980989794371352
40
0.2980989794371352
40
0.2980989794371352
40
0.2980989794371352
10
-21.518157254839778
20
-33.552809556057781
30
0
10
-24.283712357481512
20
-31.458526487272781
30
0
10
-26.719426199513151
20
-29.042896372830587
30
0
10
-28.627815508940447
20
-26.421366848975964
30
0
10
-29.252652691657918
20
-25.563036154078304
30
0
10
-29.820574539444344
20
-24.683729064545254
30
0
10
-30.334667574931828
20
-23.783108460553933
30
0
0
SPLINE
5
122
100
AcDbEntity
8
0
100
AcDbSpline
70
0
71
3
72
14
73
10
74
0
42
0.000000001
43
0.0000000001
44
0.0000000001
40
0
40
0
40
0
40
0
40
0.11719334201607801
40
0.11719334201607801
40
0.23438668403215657
40
0.23438668403215657
40
0.32105974338328724
40
0.32105974338328724
40
0.40773280273441881
40
0.40773280273441881
40
0.40773280273441881
40
0.40773280273441881
10
-29.73840125174922
20
-20.068030607814173
30
0
10
-30.02850096959736
20
-20.329651054821241
30
0
10
-30.264726885152147
20
-20.645433193515004
30
0
10
-30.602838214782786
20
-21.349771994892865
30
0
10
-30.701491100262448
20
-21.73159479474149
30
0
10
-30.740974595938479
20
-22.410001460946649
30
0
10
-30.716009128180545
20
-22.69934183663354
30
0
10
-30.584123475217901
20
-23.261909685163577
30
0
10
-30.477892213252161
20
-23.532198505805813
30
0
10
-30.334667574931331
20
-23.783108460554804
30
0
0
SPLINE
5
123
100
AcDbEntity
8
0
100
AcDbSpline
70
4
71
5
72
12
73
6
74
0
42
0.000000001
43
0.0000000001
44
0.0000000001
40
-0.045311799800595159
40
-0.045311799800595159
40
-0.045311799800595159
40
-0.045311799800595159
40
-0.045311799800595159
40
-0.045311799800595159
40
0
40
0
40
0
40
0
40
0
40
0
41
1
41
1
41
1
41
1
41
1
41
1
10
-29.738401251752666
20
-20.068030607817274
30
0
10
-29.197466001734718
20
-19.580199309802598
30
0
10
-28.638497156421515
20
-19.057285706966368
30
0
10
-28.061375305276393
20
-18.499057499715661
30
0
10
-27.466033113645292
20
-17.905383696153397
30
0
10
-26.852466867291533
20
-17.27625707065533
30
0
0
SPLINE
5
124
100
AcDbEntity
8
0
100
AcDbSpline
70
4
71
5
72
15
73
9
74
0
42
0.000000001
43
0.0000000001
44
0.0000000001
40
0
40
0
40
0
40
0
40
0
40
0
40
0.20000000000000001
40
0.40000000000000002
40
0.60000000000000009
40
0.7781756138272713
40
0.7781756138272713
40
0.7781756138272713
40
0.7781756138272713
40
0.7781756138272713
40
0.7781756138272713
41
1
41
1
41
1
41
1
41
1
41
1
41
1
41
1
41
1
10
-26.852466867291533
20
-17.27625707065533
30
0
10
-26.712243990080719
20
-17.132478063772993
30
0
10
-26.450955596879009
20
-16.838973521086004
30
0
10
-26.11647086726714
20
-16.380884594743137
30
0
10
-25.802135006186862
20
-15.749637979778839
30
0
10
-25.718340547886086
20
-15.04659095415793
30
0
10
-25.86052575445882
20
-14.46048965448286
30
0
10
-26.068711876977201
20
-14.041204765813402
30
0
10
-26.194969585426293
20
-13.834873520467092
30
0
0
CIRCLE
5
125
100
AcDbEntity
8
0
100
AcDbCircle
10
-30.0947270296769
20
31.755187536820241
30
0
40
1.4000000000000012
210
0
220
-0
230
1
0
CIRCLE
5
126
100
AcDbEntity
8
0
100
AcDbCircle
10
-30.094727029676918
20
-15.488812463179812
30
0
40
1.4000000000000012
210
0
220
-0
230
1
0
CIRCLE
5
127
100
AcDbEntity
8
0
100
AcDbCircle
10
57.919635543737336
20
36.142337369964821
30
0
40
1.899999999999995
210
0
220
0
230
1
0
CIRCLE
5
128
100
AcDbEntity
8
0
100
AcDbCircle
10
-12.900610074155892
20
-35.879063415758289
30
0
40
1.8999999999999995
210
0
220
0
230
1
0
CIRCLE
5
129
100
AcDbEntity
8
0
100
AcDbCircle
10
-30.74040351598186
20
39.883746506597817
30
0
40
1.9000000000000037
210
0
220
0
230
1
0
CIRCLE
5
130
100
AcDbEntity
8
0
100
AcDbCircle
10
64.956190966269915
20
-28.765659613839063
30
0
40
1.899999999999995
210
0
220
0
230
1
0
SPLINE
5
131
100
AcDbEntity
8
0
100
AcDbSpline
70
6
71
5
72
51
73
45
74
0
42
0.000000001
43
0.0000000001
44
0.0000000001
40
-1
40
-1
40
-1
40
-1
40
-1
40
-1
40
-0.97500000000000053
40
-0.95000000000000051
40
-0.92500000000000049
40
-0.90000000000000047
40
-0.87500000000000044
40
-0.85000000000000042
40
-0.8250000000000004
40
-0.80000000000000038
40
-0.77500000000000036
40
-0.75000000000000033
40
-0.72500000000000031
40
-0.70000000000000029
40
-0.67500000000000027
40
-0.65000000000000024
40
-0.62500000000000022
40
-0.6000000000000002
40
-0.57500000000000018
40
-0.55000000000000016
40
-0.52500000000000013
40
-0.50000000000000011
40
-0.47500000000000014
40
-0.45000000000000012
40
-0.4250000000000001
40
-0.40000000000000008
40
-0.37500000000000006
40
-0.35000000000000003
40
-0.32500000000000001
40
-0.29999999999999999
40
-0.27499999999999997
40
-0.24999999999999997
40
-0.22499999999999998
40
-0.19999999999999998
40
-0.17499999999999999
40
-0.14999999999999999
40
-0.125
40
-0.10000000000000001
40
-0.075000000000000011
40
-0.050000000000000003
40
-0.025000000000000001
40
0
40
0
40
0
40
0
40
0
40
0
41
1
41
1
41
1
41
1
41
1
41
1
41
1
41
1
41
1
41
1
41
1
41
1
41
1
41
1
41
1
41
1
41
1
41
1
41
1
41
1
41
1
41
1
41
1
41
1
41
1
41
1
41
1
41
1
41
1
41
1
41
1
41
1
41
1
41
1
41
1
41
1
41
1
41
1
41
1
41
1
41
1
41
1
41
1
41
1
41
1
10
75.524017771782766
20
-26.941858755792762
30
0
10
76.250059465023242
20
-25.88838649501248
30
0
10
77.480460705047122
20
-23.607630556454065
30
0
10
78.716272355670739
20
-19.579206273782333
30
0
10
79.442976799649941
20
-12.701811049656257
30
0
10
79.197177180408346
20
-1.9035486524275835
30
0
10
77.966603348915257
20
10.281540066073644
30
0
10
75.436569080178586
20
22.53728091887087
30
0
10
70.919898123799186
20
33.360710788796943
30
0
10
62.748858795204328
20
40.999035705883472
30
0
10
51.657697073001188
20
45.253957466343053
30
0
10
39.601227455645066
20
46.876898089562005
30
0
10
28.938282417468812
20
47.1880760562495
30
0
10
21.488480082447097
20
47.617762985741351
30
0
10
17.667567621892765
20
49.292283014104676
30
0
10
15.504002145065019
20
52.570914435605225
30
0
10
12.144793314814223
20
57.161148830806127
30
0
10
5.817323144469837
20
62.249467888954143
30
0
10
-3.1755405860661856
20
66.671021901982243
30
0
10
-13.434337417992834
20
69.185755635582197
30
0
10
-23.074334130895839
20
68.749038826710404
30
0
10
-30.413250420150266
20
64.747616842789711
30
0
10
-34.790598649876664
20
57.344138687043994
30
0
10
-36.61999723591515
20
47.387029376367273
30
0
10
-36.853771145644735
20
36.041907785097564
30
0
10
-36.601934753795852
20
24.435980368879243
30
0
10
-36.735851144092969
20
13.451147096877891
30
0
10
-37.386109368688352
20
3.0854694703374785
30
0
10
-37.825728718664571
20
-6.8363363110290809
30
0
10
-37.00372976698268
20
-16.228010168958619
30
0
10
-33.972292181102659
20
-24.909697616185809
30
0
10
-28.159131299712719
20
-32.58072211320507
30
0
10
-20.16338912795667
20
-38.762963917931231
30
0
10
-11.136729828852532
20
-43.050909417766192
30
0
10
-1.3623730594103804
20
-45.434007504597631
30
0
10
9.0205285241098245
20
-46.08291155685518
30
0
10
20.03606746503095
20
-45.326157094235882
30
0
10
31.597817982922489
20
-43.54538774984146
30
0
10
43.31460204666115
20
-41.110948545545213
30
0
10
54.408940912924322
20
-38.289574851686588
30
0
10
64.00120576879003
20
-35.202191662577967
30
0
10
69.893259576866924
20
-32.392585650827108
30
0
10
73.124210545604953
20
-29.928464121136148
30
0
10
74.797976078542291
20
-27.995331016573068
30
0
10
75.524017771782766
20
-26.941858755792762
30
0
0
ENDSEC
0
SECTION
2
OBJECTS
0
DICTIONARY
5
C
100
AcDbDictionary
3
ACAD_GROUP
350
D
3
ACAD_MLINESTYLE
350
17
0
DICTIONARY
5
D
100
AcDbDictionary
0
DICTIONARY
5
1A
330
C
100
AcDbDictionary
0
DICTIONARY
5
17
100
AcDbDictionary
0
ENDSEC
0
EOF
