  0
SECTION
  2
HEADER
  9
$ANGBASE
  50
0.0
  9
$ANGDIR
  70
1
  9
$MEASUREMENT
  70
0
  0
ENDSEC
  0
SECTION
  2
TABLES
  0
TABLE
  2
LTYPE
  70
4
  0
LTYPE
  5
40F
  2
CONTINUOUS
  70
0
  3
Solid line
  72
65
  73
0
  40
0.0
  0
LTYPE
  5
410
  2
DASHDOT
 70
0
  3
Dash Dot ____ _ ____ _
 72
65
 73
4
 40
2.0
 49
1.25
 49
-0.25
 49
0.25
 49
-0.25
  0
LTYPE
  5
411
  2
DASHED
 70
0
  3
Dashed __ __ __ __ __
 72
65
 73
2
 40
0.75
 49
0.5
 49
-0.25
  0
LTYPE
  5
43B
  2
DOTTED
 70
0
  3
Dotted .  .  .  .
 72
65
 73
2
 40
0.2
 49
0.0
 49
-0.2
  0
ENDTAB
  0
TABLE
  2
STYLE
  70
4
  0
STYLE
  2
KICAD
  70
0
  40
0
  41
1
  42
1
  50
0
  71
0
  3
isocp.shx
  0
STYLE
  2
KICADB
  70
0
  40
0
  41
1
  42
1
  50
0
  71
0
  3
isocp.shx
  0
STYLE
  2
KICADI
  70
0
  40
0
  41
1
  42
1
  50
15
  71
0
  3
isocp.shx
  0
STYLE
  2
KICADBI
  70
0
  40
0
  41
1
  42
1
  50
15
  71
0
  3
isocp.shx
  0
ENDTAB
  0
TABLE
  2
LAYER
  70
1
  0
LAYER
  2
BLACK
  70
0
  62
7
  6
CONTINUOUS
  0
ENDTAB
  0
ENDSEC
  0
SECTION
  2
ENTITIES
0
LINE
8
BLACK
6
CONTINUOUS
10
6.34205
20
-3.56732
11
6.34372
21
-3.56801
0
LINE
8
BLACK
6
CONTINUOUS
10
6.34372
20
-3.56801
11
6.34441
21
-3.56969
0
LINE
8
BLACK
6
CONTINUOUS
10
6.34441
20
-3.56969
11
6.34441
21
-4.2374
0
LINE
8
BLACK
6
CONTINUOUS
10
6.34441
20
-4.2374
11
6.34372
21
-4.23907
0
LINE
8
BLACK
6
CONTINUOUS
10
6.34372
20
-4.23907
11
6.34205
21
-4.23976
0
LINE
8
BLACK
6
CONTINUOUS
10
6.34205
20
-4.23976
11
6.00346
21
-4.23976
0
LINE
8
BLACK
6
CONTINUOUS
10
6.00346
20
-4.23976
11
6.00179
21
-4.23907
0
LINE
8
BLACK
6
CONTINUOUS
10
6.00179
20
-4.23907
11
6.0011
21
-4.2374
0
LINE
8
BLACK
6
CONTINUOUS
10
6.0011
20
-4.2374
11
6.0011
21
-3.56969
0
LINE
8
BLACK
6
CONTINUOUS
10
6.0011
20
-3.56969
11
6.00179
21
-3.56801
0
LINE
8
BLACK
6
CONTINUOUS
10
6.00179
20
-3.56801
11
6.00346
21
-3.56732
0
LINE
8
BLACK
6
CONTINUOUS
10
6.00346
20
-3.56732
11
6.34205
21
-3.56732
0
LINE
8
BLACK
6
CONTINUOUS
10
6.00583
20
-3.57205
11
6.00583
21
-4.23504
0
LINE
8
BLACK
6
CONTINUOUS
10
6.00583
20
-4.23504
11
6.33969
21
-4.23504
0
LINE
8
BLACK
6
CONTINUOUS
10
6.33969
20
-4.23504
11
6.33969
21
-3.57205
0
LINE
8
BLACK
6
CONTINUOUS
10
6.33969
20
-3.57205
11
6.00583
21
-3.57205
0
LINE
8
BLACK
6
CONTINUOUS
10
6.51193
20
-3.39643
11
6.52633
21
-3.39709
0
LINE
8
BLACK
6
CONTINUOUS
10
6.52633
20
-3.39709
11
6.54061
21
-3.39909
0
LINE
8
BLACK
6
CONTINUOUS
10
6.54061
20
-3.39909
11
6.55465
21
-3.40239
0
LINE
8
BLACK
6
CONTINUOUS
10
6.55465
20
-3.40239
11
6.56832
21
-3.40697
0
LINE
8
BLACK
6
CONTINUOUS
10
6.56832
20
-3.40697
11
6.58151
21
-3.41279
0
LINE
8
BLACK
6
CONTINUOUS
10
6.58151
20
-3.41279
11
6.59411
21
-3.41981
0
LINE
8
BLACK
6
CONTINUOUS
10
6.59411
20
-3.41981
11
6.606
21
-3.42796
0
LINE
8
BLACK
6
CONTINUOUS
10
6.606
20
-3.42796
11
6.61709
21
-3.43717
0
LINE
8
BLACK
6
CONTINUOUS
10
6.61709
20
-3.43717
11
6.62729
21
-3.44737
0
LINE
8
BLACK
6
CONTINUOUS
10
6.62729
20
-3.44737
11
6.6365
21
-3.45846
0
LINE
8
BLACK
6
CONTINUOUS
10
6.6365
20
-3.45846
11
6.64465
21
-3.47035
0
LINE
8
BLACK
6
CONTINUOUS
10
6.64465
20
-3.47035
11
6.65166
21
-3.48295
0
LINE
8
BLACK
6
CONTINUOUS
10
6.65166
20
-3.48295
11
6.65749
21
-3.49614
0
LINE
8
BLACK
6
CONTINUOUS
10
6.65749
20
-3.49614
11
6.66207
21
-3.50981
0
LINE
8
BLACK
6
CONTINUOUS
10
6.66207
20
-3.50981
11
6.66537
21
-3.52385
0
LINE
8
BLACK
6
CONTINUOUS
10
6.66537
20
-3.52385
11
6.66736
21
-3.53813
0
LINE
8
BLACK
6
CONTINUOUS
10
6.66736
20
-3.53813
11
6.66803
21
-3.55252
0
LINE
8
BLACK
6
CONTINUOUS
10
6.66803
20
-3.55252
11
6.66803
21
-3.55253
0
LINE
8
BLACK
6
CONTINUOUS
10
6.66803
20
-3.55253
11
6.66803
21
-4.22773
0
LINE
8
BLACK
6
CONTINUOUS
10
6.66803
20
-4.22773
11
6.66803
21
-4.22773
0
LINE
8
BLACK
6
CONTINUOUS
10
6.66803
20
-4.22773
11
6.66737
21
-4.24213
0
LINE
8
BLACK
6
CONTINUOUS
10
6.66737
20
-4.24213
11
6.66537
21
-4.25641
0
LINE
8
BLACK
6
CONTINUOUS
10
6.66537
20
-4.25641
11
6.66207
21
-4.27045
0
LINE
8
BLACK
6
CONTINUOUS
10
6.66207
20
-4.27045
11
6.65749
21
-4.28412
0
LINE
8
BLACK
6
CONTINUOUS
10
6.65749
20
-4.28412
11
6.65167
21
-4.29731
0
LINE
8
BLACK
6
CONTINUOUS
10
6.65167
20
-4.29731
11
6.64465
21
-4.3099
0
LINE
8
BLACK
6
CONTINUOUS
10
6.64465
20
-4.3099
11
6.6365
21
-4.3218
0
LINE
8
BLACK
6
CONTINUOUS
10
6.6365
20
-4.3218
11
6.62729
21
-4.33289
0
LINE
8
BLACK
6
CONTINUOUS
10
6.62729
20
-4.33289
11
6.61709
21
-4.34309
0
LINE
8
BLACK
6
CONTINUOUS
10
6.61709
20
-4.34309
11
6.606
21
-4.3523
0
LINE
8
BLACK
6
CONTINUOUS
10
6.606
20
-4.3523
11
6.59411
21
-4.36045
0
LINE
8
BLACK
6
CONTINUOUS
10
6.59411
20
-4.36045
11
6.58151
21
-4.36747
0
LINE
8
BLACK
6
CONTINUOUS
10
6.58151
20
-4.36747
11
6.56832
21
-4.37329
0
LINE
8
BLACK
6
CONTINUOUS
10
6.56832
20
-4.37329
11
6.55465
21
-4.37787
0
LINE
8
BLACK
6
CONTINUOUS
10
6.55465
20
-4.37787
11
6.54061
21
-4.38117
0
LINE
8
BLACK
6
CONTINUOUS
10
6.54061
20
-4.38117
11
6.52633
21
-4.38316
0
LINE
8
BLACK
6
CONTINUOUS
10
6.52633
20
-4.38316
11
6.51193
21
-4.38383
0
LINE
8
BLACK
6
CONTINUOUS
10
6.51193
20
-4.38383
11
6.51193
21
-4.38383
0
LINE
8
BLACK
6
CONTINUOUS
10
6.51193
20
-4.38383
11
5.83791
21
-4.38383
0
LINE
8
BLACK
6
CONTINUOUS
10
5.83791
20
-4.38383
11
5.82351
21
-4.38316
0
LINE
8
BLACK
6
CONTINUOUS
10
5.82351
20
-4.38316
11
5.80923
21
-4.38117
0
LINE
8
BLACK
6
CONTINUOUS
10
5.80923
20
-4.38117
11
5.79519
21
-4.37787
0
LINE
8
BLACK
6
CONTINUOUS
10
5.79519
20
-4.37787
11
5.78152
21
-4.37329
0
LINE
8
BLACK
6
CONTINUOUS
10
5.78152
20
-4.37329
11
5.76833
21
-4.36746
0
LINE
8
BLACK
6
CONTINUOUS
10
5.76833
20
-4.36746
11
5.75574
21
-4.36045
0
LINE
8
BLACK
6
CONTINUOUS
10
5.75574
20
-4.36045
11
5.74384
21
-4.3523
0
LINE
8
BLACK
6
CONTINUOUS
10
5.74384
20
-4.3523
11
5.73275
21
-4.34309
0
LINE
8
BLACK
6
CONTINUOUS
10
5.73275
20
-4.34309
11
5.72255
21
-4.33289
0
LINE
8
BLACK
6
CONTINUOUS
10
5.72255
20
-4.33289
11
5.71334
21
-4.3218
0
LINE
8
BLACK
6
CONTINUOUS
10
5.71334
20
-4.3218
11
5.70519
21
-4.3099
0
LINE
8
BLACK
6
CONTINUOUS
10
5.70519
20
-4.3099
11
5.69817
21
-4.29731
0
LINE
8
BLACK
6
CONTINUOUS
10
5.69817
20
-4.29731
11
5.69235
21
-4.28412
0
LINE
8
BLACK
6
CONTINUOUS
10
5.69235
20
-4.28412
11
5.68777
21
-4.27045
0
LINE
8
BLACK
6
CONTINUOUS
10
5.68777
20
-4.27045
11
5.68447
21
-4.25641
0
LINE
8
BLACK
6
CONTINUOUS
10
5.68447
20
-4.25641
11
5.68247
21
-4.24213
0
LINE
8
BLACK
6
CONTINUOUS
10
5.68247
20
-4.24213
11
5.68181
21
-4.22773
0
LINE
8
BLACK
6
CONTINUOUS
10
5.68181
20
-4.22773
11
5.68181
21
-4.22773
0
LINE
8
BLACK
6
CONTINUOUS
10
5.68181
20
-4.22773
11
5.68181
21
-3.55253
0
LINE
8
BLACK
6
CONTINUOUS
10
5.68181
20
-3.55253
11
5.68181
21
-3.55253
0
LINE
8
BLACK
6
CONTINUOUS
10
5.68181
20
-3.55253
11
5.68248
21
-3.53813
0
LINE
8
BLACK
6
CONTINUOUS
10
5.68248
20
-3.53813
11
5.68447
21
-3.52385
0
LINE
8
BLACK
6
CONTINUOUS
10
5.68447
20
-3.52385
11
5.68777
21
-3.50981
0
LINE
8
BLACK
6
CONTINUOUS
10
5.68777
20
-3.50981
11
5.69235
21
-3.49614
0
LINE
8
BLACK
6
CONTINUOUS
10
5.69235
20
-3.49614
11
5.69818
21
-3.48295
0
LINE
8
BLACK
6
CONTINUOUS
10
5.69818
20
-3.48295
11
5.70519
21
-3.47035
0
LINE
8
BLACK
6
CONTINUOUS
10
5.70519
20
-3.47035
11
5.71334
21
-3.45846
0
LINE
8
BLACK
6
CONTINUOUS
10
5.71334
20
-3.45846
11
5.72255
21
-3.44737
0
LINE
8
BLACK
6
CONTINUOUS
10
5.72255
20
-3.44737
11
5.73275
21
-3.43717
0
LINE
8
BLACK
6
CONTINUOUS
10
5.73275
20
-3.43717
11
5.74384
21
-3.42796
0
LINE
8
BLACK
6
CONTINUOUS
10
5.74384
20
-3.42796
11
5.75574
21
-3.41981
0
LINE
8
BLACK
6
CONTINUOUS
10
5.75574
20
-3.41981
11
5.76833
21
-3.41279
0
LINE
8
BLACK
6
CONTINUOUS
10
5.76833
20
-3.41279
11
5.78152
21
-3.40697
0
LINE
8
BLACK
6
CONTINUOUS
10
5.78152
20
-3.40697
11
5.79519
21
-3.40239
0
LINE
8
BLACK
6
CONTINUOUS
10
5.79519
20
-3.40239
11
5.80923
21
-3.39909
0
LINE
8
BLACK
6
CONTINUOUS
10
5.80923
20
-3.39909
11
5.82351
21
-3.3971
0
LINE
8
BLACK
6
CONTINUOUS
10
5.82351
20
-3.3971
11
5.83791
21
-3.39643
0
LINE
8
BLACK
6
CONTINUOUS
10
5.83791
20
-3.39643
11
5.83791
21
-3.39643
0
LINE
8
BLACK
6
CONTINUOUS
10
5.83791
20
-3.39643
11
6.51193
21
-3.39643
0
LINE
8
BLACK
6
CONTINUOUS
10
5.83791
20
-3.3984
11
5.83791
21
-3.3984
0
LINE
8
BLACK
6
CONTINUOUS
10
5.83791
20
-3.3984
11
5.83079
21
-3.3984
0
LINE
8
BLACK
6
CONTINUOUS
10
5.83079
20
-3.3984
11
5.8166
21
-3.39971
0
LINE
8
BLACK
6
CONTINUOUS
10
5.8166
20
-3.39971
11
5.80259
21
-3.40233
0
LINE
8
BLACK
6
CONTINUOUS
10
5.80259
20
-3.40233
11
5.78888
21
-3.40623
0
LINE
8
BLACK
6
CONTINUOUS
10
5.78888
20
-3.40623
11
5.77559
21
-3.41138
0
LINE
8
BLACK
6
CONTINUOUS
10
5.77559
20
-3.41138
11
5.76283
21
-3.41773
0
LINE
8
BLACK
6
CONTINUOUS
10
5.76283
20
-3.41773
11
5.75071
21
-3.42524
0
LINE
8
BLACK
6
CONTINUOUS
10
5.75071
20
-3.42524
11
5.73934
21
-3.43382
0
LINE
8
BLACK
6
CONTINUOUS
10
5.73934
20
-3.43382
11
5.72881
21
-3.44343
0
LINE
8
BLACK
6
CONTINUOUS
10
5.72881
20
-3.44343
11
5.71921
21
-3.45396
0
LINE
8
BLACK
6
CONTINUOUS
10
5.71921
20
-3.45396
11
5.71062
21
-3.46533
0
LINE
8
BLACK
6
CONTINUOUS
10
5.71062
20
-3.46533
11
5.70312
21
-3.47745
0
LINE
8
BLACK
6
CONTINUOUS
10
5.70312
20
-3.47745
11
5.69676
21
-3.49021
0
LINE
8
BLACK
6
CONTINUOUS
10
5.69676
20
-3.49021
11
5.69161
21
-3.5035
0
LINE
8
BLACK
6
CONTINUOUS
10
5.69161
20
-3.5035
11
5.68771
21
-3.5172
0
LINE
8
BLACK
6
CONTINUOUS
10
5.68771
20
-3.5172
11
5.68509
21
-3.53121
0
LINE
8
BLACK
6
CONTINUOUS
10
5.68509
20
-3.53121
11
5.68378
21
-3.5454
0
LINE
8
BLACK
6
CONTINUOUS
10
5.68378
20
-3.5454
11
5.68378
21
-3.55253
0
LINE
8
BLACK
6
CONTINUOUS
10
5.68378
20
-3.55253
11
5.68378
21
-4.22773
0
LINE
8
BLACK
6
CONTINUOUS
10
5.68378
20
-4.22773
11
5.68378
21
-4.22773
0
LINE
8
BLACK
6
CONTINUOUS
10
5.68378
20
-4.22773
11
5.68378
21
-4.23485
0
LINE
8
BLACK
6
CONTINUOUS
10
5.68378
20
-4.23485
11
5.68509
21
-4.24904
0
LINE
8
BLACK
6
CONTINUOUS
10
5.68509
20
-4.24904
11
5.68771
21
-4.26305
0
LINE
8
BLACK
6
CONTINUOUS
10
5.68771
20
-4.26305
11
5.69161
21
-4.27676
0
LINE
8
BLACK
6
CONTINUOUS
10
5.69161
20
-4.27676
11
5.69676
21
-4.29005
0
LINE
8
BLACK
6
CONTINUOUS
10
5.69676
20
-4.29005
11
5.70311
21
-4.30281
0
LINE
8
BLACK
6
CONTINUOUS
10
5.70311
20
-4.30281
11
5.71062
21
-4.31493
0
LINE
8
BLACK
6
CONTINUOUS
10
5.71062
20
-4.31493
11
5.71921
21
-4.3263
0
LINE
8
BLACK
6
CONTINUOUS
10
5.71921
20
-4.3263
11
5.72881
21
-4.33683
0
LINE
8
BLACK
6
CONTINUOUS
10
5.72881
20
-4.33683
11
5.73934
21
-4.34643
0
LINE
8
BLACK
6
CONTINUOUS
10
5.73934
20
-4.34643
11
5.75071
21
-4.35502
0
LINE
8
BLACK
6
CONTINUOUS
10
5.75071
20
-4.35502
11
5.76283
21
-4.36253
0
LINE
8
BLACK
6
CONTINUOUS
10
5.76283
20
-4.36253
11
5.77559
21
-4.36888
0
LINE
8
BLACK
6
CONTINUOUS
10
5.77559
20
-4.36888
11
5.78888
21
-4.37403
0
LINE
8
BLACK
6
CONTINUOUS
10
5.78888
20
-4.37403
11
5.80259
21
-4.37793
0
LINE
8
BLACK
6
CONTINUOUS
10
5.80259
20
-4.37793
11
5.8166
21
-4.38055
0
LINE
8
BLACK
6
CONTINUOUS
10
5.8166
20
-4.38055
11
5.83079
21
-4.38186
0
LINE
8
BLACK
6
CONTINUOUS
10
5.83079
20
-4.38186
11
5.83791
21
-4.38186
0
LINE
8
BLACK
6
CONTINUOUS
10
5.83791
20
-4.38186
11
6.51193
21
-4.38186
0
LINE
8
BLACK
6
CONTINUOUS
10
6.51193
20
-4.38186
11
6.51193
21
-4.38186
0
LINE
8
BLACK
6
CONTINUOUS
10
6.51193
20
-4.38186
11
6.51906
21
-4.38186
0
LINE
8
BLACK
6
CONTINUOUS
10
6.51906
20
-4.38186
11
6.53325
21
-4.38055
0
LINE
8
BLACK
6
CONTINUOUS
10
6.53325
20
-4.38055
11
6.54726
21
-4.37793
0
LINE
8
BLACK
6
CONTINUOUS
10
6.54726
20
-4.37793
11
6.56096
21
-4.37403
0
LINE
8
BLACK
6
CONTINUOUS
10
6.56096
20
-4.37403
11
6.57425
21
-4.36888
0
LINE
8
BLACK
6
CONTINUOUS
10
6.57425
20
-4.36888
11
6.58701
21
-4.36253
0
LINE
8
BLACK
6
CONTINUOUS
10
6.58701
20
-4.36253
11
6.59913
21
-4.35502
0
LINE
8
BLACK
6
CONTINUOUS
10
6.59913
20
-4.35502
11
6.6105
21
-4.34644
0
LINE
8
BLACK
6
CONTINUOUS
10
6.6105
20
-4.34644
11
6.62104
21
-4.33683
0
LINE
8
BLACK
6
CONTINUOUS
10
6.62104
20
-4.33683
11
6.63064
21
-4.3263
0
LINE
8
BLACK
6
CONTINUOUS
10
6.63064
20
-4.3263
11
6.63923
21
-4.31493
0
LINE
8
BLACK
6
CONTINUOUS
10
6.63923
20
-4.31493
11
6.64673
21
-4.30281
0
LINE
8
BLACK
6
CONTINUOUS
10
6.64673
20
-4.30281
11
6.65308
21
-4.29005
0
LINE
8
BLACK
6
CONTINUOUS
10
6.65308
20
-4.29005
11
6.65823
21
-4.27676
0
LINE
8
BLACK
6
CONTINUOUS
10
6.65823
20
-4.27676
11
6.66213
21
-4.26305
0
LINE
8
BLACK
6
CONTINUOUS
10
6.66213
20
-4.26305
11
6.66475
21
-4.24904
0
LINE
8
BLACK
6
CONTINUOUS
10
6.66475
20
-4.24904
11
6.66606
21
-4.23485
0
LINE
8
BLACK
6
CONTINUOUS
10
6.66606
20
-4.23485
11
6.66606
21
-4.22773
0
LINE
8
BLACK
6
CONTINUOUS
10
6.66606
20
-4.22773
11
6.66606
21
-4.22773
0
LINE
8
BLACK
6
CONTINUOUS
10
6.66606
20
-4.22773
11
6.66606
21
-3.55253
0
LINE
8
BLACK
6
CONTINUOUS
10
6.66606
20
-3.55253
11
6.66606
21
-3.55253
0
LINE
8
BLACK
6
CONTINUOUS
10
6.66606
20
-3.55253
11
6.66606
21
-3.5454
0
LINE
8
BLACK
6
CONTINUOUS
10
6.66606
20
-3.5454
11
6.66475
21
-3.53121
0
LINE
8
BLACK
6
CONTINUOUS
10
6.66475
20
-3.53121
11
6.66213
21
-3.5172
0
LINE
8
BLACK
6
CONTINUOUS
10
6.66213
20
-3.5172
11
6.65823
21
-3.5035
0
LINE
8
BLACK
6
CONTINUOUS
10
6.65823
20
-3.5035
11
6.65308
21
-3.49021
0
LINE
8
BLACK
6
CONTINUOUS
10
6.65308
20
-3.49021
11
6.64673
21
-3.47745
0
LINE
8
BLACK
6
CONTINUOUS
10
6.64673
20
-3.47745
11
6.63922
21
-3.46533
0
LINE
8
BLACK
6
CONTINUOUS
10
6.63922
20
-3.46533
11
6.63064
21
-3.45396
0
LINE
8
BLACK
6
CONTINUOUS
10
6.63064
20
-3.45396
11
6.62103
21
-3.44342
0
LINE
8
BLACK
6
CONTINUOUS
10
6.62103
20
-3.44342
11
6.6105
21
-3.43382
0
LINE
8
BLACK
6
CONTINUOUS
10
6.6105
20
-3.43382
11
6.59913
21
-3.42523
0
LINE
8
BLACK
6
CONTINUOUS
10
6.59913
20
-3.42523
11
6.58701
21
-3.41773
0
LINE
8
BLACK
6
CONTINUOUS
10
6.58701
20
-3.41773
11
6.57425
21
-3.41138
0
LINE
8
BLACK
6
CONTINUOUS
10
6.57425
20
-3.41138
11
6.56096
21
-3.40623
0
LINE
8
BLACK
6
CONTINUOUS
10
6.56096
20
-3.40623
11
6.54726
21
-3.40233
0
LINE
8
BLACK
6
CONTINUOUS
10
6.54726
20
-3.40233
11
6.53325
21
-3.39971
0
LINE
8
BLACK
6
CONTINUOUS
10
6.53325
20
-3.39971
11
6.51906
21
-3.3984
0
LINE
8
BLACK
6
CONTINUOUS
10
6.51906
20
-3.3984
11
6.51193
21
-3.3984
0
LINE
8
BLACK
6
CONTINUOUS
10
6.51193
20
-3.3984
11
5.83791
21
-3.3984
  0
ENDSEC
  0
EOF
