%TF.GenerationSoftware,KiCad,Pcbnew,7.0.2*%
%TF.CreationDate,2024-09-11T13:33:12+02:00*%
%TF.ProjectId,mcu_holder,6d63755f-686f-46c6-9465-722e6b696361,rev?*%
%TF.SameCoordinates,Original*%
%TF.FileFunction,Copper,L2,Bot*%
%TF.FilePolarity,Positive*%
%FSLAX46Y46*%
G04 Gerber Fmt 4.6, Leading zero omitted, Abs format (unit mm)*
G04 Created by KiCad (PCBNEW 7.0.2) date 2024-09-11 13:33:12*
%MOMM*%
%LPD*%
G01*
G04 APERTURE LIST*
G04 Aperture macros list*
%AMRoundRect*
0 Rectangle with rounded corners*
0 $1 Rounding radius*
0 $2 $3 $4 $5 $6 $7 $8 $9 X,Y pos of 4 corners*
0 Add a 4 corners polygon primitive as box body*
4,1,4,$2,$3,$4,$5,$6,$7,$8,$9,$2,$3,0*
0 Add four circle primitives for the rounded corners*
1,1,$1+$1,$2,$3*
1,1,$1+$1,$4,$5*
1,1,$1+$1,$6,$7*
1,1,$1+$1,$8,$9*
0 Add four rect primitives between the rounded corners*
20,1,$1+$1,$2,$3,$4,$5,0*
20,1,$1+$1,$4,$5,$6,$7,0*
20,1,$1+$1,$6,$7,$8,$9,0*
20,1,$1+$1,$8,$9,$2,$3,0*%
%AMFreePoly0*
4,1,6,0.500000,-0.750000,-0.650000,-0.750000,-0.150000,0.000000,-0.650000,0.750000,0.500000,0.750000,0.500000,-0.750000,0.500000,-0.750000,$1*%
%AMFreePoly1*
4,1,6,0.150000,0.000000,0.650000,-0.750000,-0.500000,-0.750000,-0.500000,0.750000,0.650000,0.750000,0.150000,0.000000,0.150000,0.000000,$1*%
%AMFreePoly2*
4,1,6,0.500000,-0.750000,-0.500000,-0.750000,-1.000000,0.000000,-0.500000,0.750000,0.500000,0.750000,0.500000,-0.750000,0.500000,-0.750000,$1*%
%AMFreePoly3*
4,1,6,1.000000,0.000000,0.500000,-0.750000,-0.500000,-0.750000,-0.500000,0.750000,0.500000,0.750000,1.000000,0.000000,1.000000,0.000000,$1*%
G04 Aperture macros list end*
%TA.AperFunction,ComponentPad*%
%ADD10C,4.500000*%
%TD*%
%TA.AperFunction,ComponentPad*%
%ADD11R,1.350000X1.350000*%
%TD*%
%TA.AperFunction,ComponentPad*%
%ADD12O,1.350000X1.350000*%
%TD*%
%TA.AperFunction,ComponentPad*%
%ADD13O,2.200000X3.500000*%
%TD*%
%TA.AperFunction,ComponentPad*%
%ADD14R,1.500000X2.500000*%
%TD*%
%TA.AperFunction,ComponentPad*%
%ADD15O,1.500000X2.500000*%
%TD*%
%TA.AperFunction,ComponentPad*%
%ADD16C,2.000000*%
%TD*%
%TA.AperFunction,ComponentPad*%
%ADD17RoundRect,0.375000X-0.375000X-0.750000X0.375000X-0.750000X0.375000X0.750000X-0.375000X0.750000X0*%
%TD*%
%TA.AperFunction,SMDPad,CuDef*%
%ADD18R,1.524000X0.500000*%
%TD*%
%TA.AperFunction,SMDPad,CuDef*%
%ADD19FreePoly0,180.000000*%
%TD*%
%TA.AperFunction,SMDPad,CuDef*%
%ADD20FreePoly1,180.000000*%
%TD*%
%TA.AperFunction,SMDPad,CuDef*%
%ADD21FreePoly2,180.000000*%
%TD*%
%TA.AperFunction,SMDPad,CuDef*%
%ADD22FreePoly3,180.000000*%
%TD*%
%TA.AperFunction,ViaPad*%
%ADD23C,0.800000*%
%TD*%
%TA.AperFunction,Conductor*%
%ADD24C,0.250000*%
%TD*%
%TA.AperFunction,Conductor*%
%ADD25C,0.500000*%
%TD*%
G04 APERTURE END LIST*
D10*
%TO.P,H4,1*%
%TO.N,N/C*%
X141732000Y-68580000D03*
%TD*%
%TO.P,H3,1*%
%TO.N,N/C*%
X94488000Y-38100000D03*
%TD*%
D11*
%TO.P,J10,1,Pin_1*%
%TO.N,+5V*%
X141986000Y-58166000D03*
D12*
%TO.P,J10,2,Pin_2*%
%TO.N,GND*%
X141986000Y-60166000D03*
%TO.P,J10,3,Pin_3*%
%TO.N,+3V3*%
X141986000Y-62166000D03*
%TD*%
D13*
%TO.P,SW17,*%
%TO.N,*%
X116654000Y-39370000D03*
X108454000Y-39370000D03*
D14*
%TO.P,SW17,1,A*%
%TO.N,unconnected-(SW17-A-Pad1)*%
X114554000Y-39370000D03*
D15*
%TO.P,SW17,2,B*%
%TO.N,BAT+*%
X112554000Y-39370000D03*
%TO.P,SW17,3,C*%
%TO.N,Pogo_BAT+*%
X110554000Y-39370000D03*
%TD*%
D11*
%TO.P,J6,1,Pin_1*%
%TO.N,D0*%
X133128000Y-67310000D03*
D12*
%TO.P,J6,2,Pin_2*%
%TO.N,D1*%
X135128000Y-67310000D03*
%TO.P,J6,3,Pin_3*%
%TO.N,D2*%
X137128000Y-67310000D03*
%TD*%
D16*
%TO.P,SW16,1,1*%
%TO.N,RST*%
X105410000Y-39116000D03*
%TO.P,SW16,2,2*%
%TO.N,GND*%
X98910000Y-39116000D03*
%TD*%
D17*
%TO.P,J7,1,Pin_1*%
%TO.N,BAT+*%
X114522000Y-47752000D03*
%TO.P,J7,2,Pin_2*%
%TO.N,GND*%
X112522000Y-47752000D03*
%TO.P,J7,3,Pin_3*%
%TO.N,BAT+*%
X110522000Y-47752000D03*
%TD*%
D10*
%TO.P,H1,1*%
%TO.N,N/C*%
X94488000Y-68580000D03*
%TD*%
D16*
%TO.P,U1,*%
%TO.N,*%
X122428000Y-38606910D03*
X122428000Y-41142364D03*
X122428000Y-43678377D03*
D18*
X123808000Y-38676910D03*
X123808000Y-41216910D03*
X123808000Y-43756910D03*
D19*
X124733000Y-38676910D03*
X124733000Y-41216910D03*
X124733000Y-43756910D03*
D20*
X135408000Y-38716910D03*
X135408000Y-41256910D03*
X135408000Y-43796910D03*
D18*
X136358000Y-38716910D03*
X136358000Y-41256910D03*
X136358000Y-43796910D03*
D16*
X137668000Y-38609090D03*
X137668000Y-41149090D03*
X137668000Y-43689090D03*
D21*
%TO.P,U1,1,PA02_A0_D0*%
%TO.N,D0*%
X133958000Y-38716910D03*
%TO.P,U1,2,PA4_A1_D1*%
%TO.N,D1*%
X133958000Y-41256910D03*
%TO.P,U1,3,PA10_A2_D2*%
%TO.N,D2*%
X133958000Y-43796910D03*
D16*
%TO.P,U1,4,PA11_A3_D3*%
%TO.N,col3*%
X122428000Y-46226910D03*
%TO.P,U1,5,PA8_A4_D4_SDA*%
%TO.N,col2*%
X122428000Y-48765032D03*
%TO.P,U1,6,PA9_A5_D5_SCL*%
%TO.N,col1*%
X122428000Y-51304474D03*
%TO.P,U1,7,PB08_A6_D6_TX*%
%TO.N,col0*%
X122428000Y-53839229D03*
%TO.P,U1,8,PB09_A7_D7_RX*%
%TO.N,row_2*%
X137668000Y-53849090D03*
%TO.P,U1,9,PA7_A8_D8_SCK*%
%TO.N,row_1*%
X137668000Y-51309090D03*
%TO.P,U1,10,PA5_A9_D9_MISO*%
%TO.N,row_0*%
X137668000Y-48769090D03*
%TO.P,U1,11,PA6_A10_D10_MOSI*%
%TO.N,col4*%
X137668000Y-46229090D03*
D22*
%TO.P,U1,12,3V3*%
%TO.N,+3V3*%
X126183000Y-43756910D03*
%TO.P,U1,13,GND*%
%TO.N,GND*%
X126183000Y-41216910D03*
%TO.P,U1,14,5V*%
%TO.N,+5V*%
X126183000Y-38676910D03*
D16*
%TO.P,U1,15,RESET*%
%TO.N,RST*%
X128856803Y-40462723D03*
X131396803Y-40462723D03*
%TO.P,U1,16,BAT+*%
%TO.N,Pogo_BAT+*%
X125598000Y-45926910D03*
X134498000Y-45926910D03*
%TD*%
D10*
%TO.P,H2,1*%
%TO.N,N/C*%
X141732000Y-38100000D03*
%TD*%
D23*
%TO.N,col2*%
X124000000Y-61625000D03*
X123200000Y-69700000D03*
%TO.N,col3*%
X115950000Y-61500000D03*
X115625000Y-69325000D03*
%TO.N,col4*%
X108625000Y-61500000D03*
X108500000Y-68875000D03*
X106625000Y-60900000D03*
X123550000Y-59100000D03*
%TO.N,col0*%
X113425000Y-53825000D03*
%TO.N,col1*%
X127675000Y-51550000D03*
X129325000Y-69175000D03*
X128300000Y-62325500D03*
%TO.N,D0*%
X131025992Y-43904500D03*
%TO.N,D1*%
X131863500Y-44450011D03*
%TO.N,D2*%
X132842000Y-45052498D03*
%TO.N,GND*%
X128547204Y-42394796D03*
%TO.N,+5V*%
X130302000Y-37846000D03*
%TO.N,+3V3*%
X129540000Y-43180000D03*
%TD*%
D24*
%TO.N,col2*%
X123200000Y-62425000D02*
X124000000Y-61625000D01*
X123200000Y-69700000D02*
X123200000Y-62425000D01*
%TO.N,col3*%
X115625000Y-61825000D02*
X115950000Y-61500000D01*
X115625000Y-69325000D02*
X115625000Y-61825000D01*
%TO.N,col4*%
X108725000Y-61500000D02*
X108625000Y-61600000D01*
X108625000Y-61500000D02*
X108725000Y-61500000D01*
X108625000Y-61600000D02*
X108625000Y-61500000D01*
X108500000Y-61725000D02*
X108625000Y-61600000D01*
X108500000Y-68875000D02*
X108500000Y-61725000D01*
X108425000Y-59100000D02*
X106625000Y-60900000D01*
X123550000Y-59100000D02*
X108425000Y-59100000D01*
%TO.N,col0*%
X113439229Y-53839229D02*
X113425000Y-53825000D01*
X122428000Y-53839229D02*
X113439229Y-53839229D01*
%TO.N,col1*%
X128300000Y-52175000D02*
X127675000Y-51550000D01*
X128300000Y-62325500D02*
X128300000Y-52175000D01*
%TO.N,D0*%
X133128000Y-62950792D02*
X133128000Y-67310000D01*
X130847489Y-44083003D02*
X130847489Y-60670281D01*
X130847489Y-60670281D02*
X133128000Y-62950792D01*
X131025992Y-43904500D02*
X130847489Y-44083003D01*
%TO.N,D1*%
X131572000Y-60758396D02*
X135128000Y-64314396D01*
X131572000Y-44741511D02*
X131572000Y-60758396D01*
X131863500Y-44450011D02*
X131572000Y-44741511D01*
X135128000Y-64314396D02*
X135128000Y-67310000D01*
%TO.N,D2*%
X137128000Y-65678000D02*
X137128000Y-67310000D01*
X132842000Y-45052498D02*
X132588000Y-45306498D01*
X132588000Y-45306498D02*
X132588000Y-61138000D01*
X132588000Y-61138000D02*
X137128000Y-65678000D01*
%TO.N,col1*%
X128775000Y-68625000D02*
X129325000Y-69175000D01*
X128775000Y-62800500D02*
X128775000Y-68625000D01*
X128300000Y-62325500D02*
X128775000Y-62800500D01*
%TO.N,D0*%
X132842000Y-41402000D02*
X132842000Y-39832910D01*
X131025992Y-43218008D02*
X132842000Y-41402000D01*
X131025992Y-43904500D02*
X131025992Y-43218008D01*
X132842000Y-39832910D02*
X133958000Y-38716910D01*
%TO.N,D1*%
X131863500Y-43351410D02*
X133958000Y-41256910D01*
X131863500Y-44450011D02*
X131863500Y-43351410D01*
%TO.N,D2*%
X132588000Y-44196000D02*
X132987090Y-43796910D01*
X132987090Y-43796910D02*
X133958000Y-43796910D01*
X132842000Y-45052498D02*
X132588000Y-44798498D01*
X132588000Y-44798498D02*
X132588000Y-44196000D01*
D25*
%TO.N,BAT+*%
X112554000Y-41434000D02*
X110522000Y-43466000D01*
X112554000Y-39370000D02*
X112554000Y-41434000D01*
X110522000Y-43466000D02*
X110522000Y-47752000D01*
X114300000Y-43180000D02*
X114300000Y-47530000D01*
X114300000Y-47530000D02*
X114522000Y-47752000D01*
X112554000Y-41434000D02*
X114300000Y-43180000D01*
D24*
%TO.N,GND*%
X133028198Y-69654480D02*
X137735802Y-69654480D01*
X128547204Y-42394796D02*
X127369318Y-41216910D01*
X130243520Y-43501094D02*
X130243520Y-66869802D01*
X130556000Y-42418000D02*
X130556000Y-43188614D01*
X127369318Y-41216910D02*
X126183000Y-41216910D01*
X128778000Y-42164000D02*
X130302000Y-42164000D01*
X137735802Y-69654480D02*
X138707969Y-68682313D01*
X138707969Y-63444031D02*
X141986000Y-60166000D01*
X138707969Y-68682313D02*
X138707969Y-63444031D01*
X130302000Y-42164000D02*
X130556000Y-42418000D01*
X130556000Y-43188614D02*
X130243520Y-43501094D01*
X130243520Y-66869802D02*
X133028198Y-69654480D01*
X128547204Y-42394796D02*
X128778000Y-42164000D01*
%TO.N,+5V*%
X132588000Y-36576000D02*
X138430000Y-36576000D01*
X131318000Y-37846000D02*
X132588000Y-36576000D01*
X130302000Y-37846000D02*
X129471090Y-38676910D01*
X129471090Y-38676910D02*
X126183000Y-38676910D01*
X130302000Y-37846000D02*
X131318000Y-37846000D01*
X139100000Y-55280000D02*
X141986000Y-58166000D01*
X139100000Y-37246000D02*
X139100000Y-55280000D01*
X138430000Y-36576000D02*
X139100000Y-37246000D01*
%TO.N,+3V3*%
X129540000Y-43180000D02*
X129794000Y-43434000D01*
X129794000Y-43434000D02*
X129794000Y-67056000D01*
X129794000Y-67056000D02*
X132842000Y-70104000D01*
X128963090Y-43756910D02*
X126183000Y-43756910D01*
X132842000Y-70104000D02*
X137922000Y-70104000D01*
X139157489Y-64994511D02*
X141986000Y-62166000D01*
X129540000Y-43180000D02*
X128963090Y-43756910D01*
X139157489Y-68868511D02*
X139157489Y-64994511D01*
X137922000Y-70104000D02*
X139157489Y-68868511D01*
D25*
%TO.N,Pogo_BAT+*%
X110554000Y-41546000D02*
X110554000Y-39370000D01*
X125598000Y-54402000D02*
X123800000Y-56200000D01*
X114100000Y-56200000D02*
X107950000Y-50050000D01*
X125598000Y-45926910D02*
X125598000Y-54402000D01*
X123800000Y-56200000D02*
X114100000Y-56200000D01*
X107950000Y-44150000D02*
X110554000Y-41546000D01*
X107950000Y-50050000D02*
X107950000Y-44150000D01*
%TD*%
M02*
