%TF.GenerationSoftware,KiCad,Pcbnew,7.0.2*%
%TF.CreationDate,2024-09-11T13:33:12+02:00*%
%TF.ProjectId,mcu_holder,6d63755f-686f-46c6-9465-722e6b696361,rev?*%
%TF.SameCoordinates,Original*%
%TF.FileFunction,Legend,Top*%
%TF.FilePolarity,Positive*%
%FSLAX46Y46*%
G04 Gerber Fmt 4.6, Leading zero omitted, Abs format (unit mm)*
G04 Created by KiCad (PCBNEW 7.0.2) date 2024-09-11 13:33:12*
%MOMM*%
%LPD*%
G01*
G04 APERTURE LIST*
G04 Aperture macros list*
%AMRoundRect*
0 Rectangle with rounded corners*
0 $1 Rounding radius*
0 $2 $3 $4 $5 $6 $7 $8 $9 X,Y pos of 4 corners*
0 Add a 4 corners polygon primitive as box body*
4,1,4,$2,$3,$4,$5,$6,$7,$8,$9,$2,$3,0*
0 Add four circle primitives for the rounded corners*
1,1,$1+$1,$2,$3*
1,1,$1+$1,$4,$5*
1,1,$1+$1,$6,$7*
1,1,$1+$1,$8,$9*
0 Add four rect primitives between the rounded corners*
20,1,$1+$1,$2,$3,$4,$5,0*
20,1,$1+$1,$4,$5,$6,$7,0*
20,1,$1+$1,$6,$7,$8,$9,0*
20,1,$1+$1,$8,$9,$2,$3,0*%
%AMFreePoly0*
4,1,6,0.500000,-0.750000,-0.650000,-0.750000,-0.150000,0.000000,-0.650000,0.750000,0.500000,0.750000,0.500000,-0.750000,0.500000,-0.750000,$1*%
%AMFreePoly1*
4,1,6,0.150000,0.000000,0.650000,-0.750000,-0.500000,-0.750000,-0.500000,0.750000,0.650000,0.750000,0.150000,0.000000,0.150000,0.000000,$1*%
%AMFreePoly2*
4,1,6,1.000000,0.000000,0.500000,-0.750000,-0.500000,-0.750000,-0.500000,0.750000,0.500000,0.750000,1.000000,0.000000,1.000000,0.000000,$1*%
%AMFreePoly3*
4,1,6,0.500000,-0.750000,-0.500000,-0.750000,-1.000000,0.000000,-0.500000,0.750000,0.500000,0.750000,0.500000,-0.750000,0.500000,-0.750000,$1*%
G04 Aperture macros list end*
%ADD10C,0.150000*%
%ADD11C,0.254000*%
%ADD12C,0.120000*%
%ADD13C,2.000000*%
%ADD14RoundRect,0.375000X-0.375000X-0.750000X0.375000X-0.750000X0.375000X0.750000X-0.375000X0.750000X0*%
%ADD15R,1.250000X0.280000*%
%ADD16R,2.000000X1.800000*%
%ADD17C,4.500000*%
%ADD18R,1.350000X1.350000*%
%ADD19O,1.350000X1.350000*%
%ADD20O,2.200000X3.500000*%
%ADD21R,1.500000X2.500000*%
%ADD22O,1.500000X2.500000*%
%ADD23FreePoly0,180.000000*%
%ADD24FreePoly1,180.000000*%
%ADD25FreePoly2,180.000000*%
%ADD26FreePoly3,180.000000*%
G04 APERTURE END LIST*
D10*
X105330666Y-66264619D02*
X105330666Y-66978904D01*
X105330666Y-66978904D02*
X105283047Y-67121761D01*
X105283047Y-67121761D02*
X105187809Y-67217000D01*
X105187809Y-67217000D02*
X105044952Y-67264619D01*
X105044952Y-67264619D02*
X104949714Y-67264619D01*
X105759238Y-66359857D02*
X105806857Y-66312238D01*
X105806857Y-66312238D02*
X105902095Y-66264619D01*
X105902095Y-66264619D02*
X106140190Y-66264619D01*
X106140190Y-66264619D02*
X106235428Y-66312238D01*
X106235428Y-66312238D02*
X106283047Y-66359857D01*
X106283047Y-66359857D02*
X106330666Y-66455095D01*
X106330666Y-66455095D02*
X106330666Y-66550333D01*
X106330666Y-66550333D02*
X106283047Y-66693190D01*
X106283047Y-66693190D02*
X105711619Y-67264619D01*
X105711619Y-67264619D02*
X106330666Y-67264619D01*
X105330666Y-67788619D02*
X105330666Y-68502904D01*
X105330666Y-68502904D02*
X105283047Y-68645761D01*
X105283047Y-68645761D02*
X105187809Y-68741000D01*
X105187809Y-68741000D02*
X105044952Y-68788619D01*
X105044952Y-68788619D02*
X104949714Y-68788619D01*
X105711619Y-67788619D02*
X106330666Y-67788619D01*
X106330666Y-67788619D02*
X105997333Y-68169571D01*
X105997333Y-68169571D02*
X106140190Y-68169571D01*
X106140190Y-68169571D02*
X106235428Y-68217190D01*
X106235428Y-68217190D02*
X106283047Y-68264809D01*
X106283047Y-68264809D02*
X106330666Y-68360047D01*
X106330666Y-68360047D02*
X106330666Y-68598142D01*
X106330666Y-68598142D02*
X106283047Y-68693380D01*
X106283047Y-68693380D02*
X106235428Y-68741000D01*
X106235428Y-68741000D02*
X106140190Y-68788619D01*
X106140190Y-68788619D02*
X105854476Y-68788619D01*
X105854476Y-68788619D02*
X105759238Y-68741000D01*
X105759238Y-68741000D02*
X105711619Y-68693380D01*
%TO.C,H4*%
X140970095Y-65842619D02*
X140970095Y-64842619D01*
X140970095Y-65318809D02*
X141541523Y-65318809D01*
X141541523Y-65842619D02*
X141541523Y-64842619D01*
X142446285Y-65175952D02*
X142446285Y-65842619D01*
X142208190Y-64795000D02*
X141970095Y-65509285D01*
X141970095Y-65509285D02*
X142589142Y-65509285D01*
%TO.C,H3*%
X93726095Y-42118619D02*
X93726095Y-41118619D01*
X93726095Y-41594809D02*
X94297523Y-41594809D01*
X94297523Y-42118619D02*
X94297523Y-41118619D01*
X94678476Y-41118619D02*
X95297523Y-41118619D01*
X95297523Y-41118619D02*
X94964190Y-41499571D01*
X94964190Y-41499571D02*
X95107047Y-41499571D01*
X95107047Y-41499571D02*
X95202285Y-41547190D01*
X95202285Y-41547190D02*
X95249904Y-41594809D01*
X95249904Y-41594809D02*
X95297523Y-41690047D01*
X95297523Y-41690047D02*
X95297523Y-41928142D01*
X95297523Y-41928142D02*
X95249904Y-42023380D01*
X95249904Y-42023380D02*
X95202285Y-42071000D01*
X95202285Y-42071000D02*
X95107047Y-42118619D01*
X95107047Y-42118619D02*
X94821333Y-42118619D01*
X94821333Y-42118619D02*
X94726095Y-42071000D01*
X94726095Y-42071000D02*
X94678476Y-42023380D01*
%TO.C,J10*%
X141176476Y-55568619D02*
X141176476Y-56282904D01*
X141176476Y-56282904D02*
X141128857Y-56425761D01*
X141128857Y-56425761D02*
X141033619Y-56521000D01*
X141033619Y-56521000D02*
X140890762Y-56568619D01*
X140890762Y-56568619D02*
X140795524Y-56568619D01*
X142176476Y-56568619D02*
X141605048Y-56568619D01*
X141890762Y-56568619D02*
X141890762Y-55568619D01*
X141890762Y-55568619D02*
X141795524Y-55711476D01*
X141795524Y-55711476D02*
X141700286Y-55806714D01*
X141700286Y-55806714D02*
X141605048Y-55854333D01*
X142795524Y-55568619D02*
X142890762Y-55568619D01*
X142890762Y-55568619D02*
X142986000Y-55616238D01*
X142986000Y-55616238D02*
X143033619Y-55663857D01*
X143033619Y-55663857D02*
X143081238Y-55759095D01*
X143081238Y-55759095D02*
X143128857Y-55949571D01*
X143128857Y-55949571D02*
X143128857Y-56187666D01*
X143128857Y-56187666D02*
X143081238Y-56378142D01*
X143081238Y-56378142D02*
X143033619Y-56473380D01*
X143033619Y-56473380D02*
X142986000Y-56521000D01*
X142986000Y-56521000D02*
X142890762Y-56568619D01*
X142890762Y-56568619D02*
X142795524Y-56568619D01*
X142795524Y-56568619D02*
X142700286Y-56521000D01*
X142700286Y-56521000D02*
X142652667Y-56473380D01*
X142652667Y-56473380D02*
X142605048Y-56378142D01*
X142605048Y-56378142D02*
X142557429Y-56187666D01*
X142557429Y-56187666D02*
X142557429Y-55949571D01*
X142557429Y-55949571D02*
X142605048Y-55759095D01*
X142605048Y-55759095D02*
X142652667Y-55663857D01*
X142652667Y-55663857D02*
X142700286Y-55616238D01*
X142700286Y-55616238D02*
X142795524Y-55568619D01*
%TO.C,SW17*%
X111344476Y-43385000D02*
X111487333Y-43432619D01*
X111487333Y-43432619D02*
X111725428Y-43432619D01*
X111725428Y-43432619D02*
X111820666Y-43385000D01*
X111820666Y-43385000D02*
X111868285Y-43337380D01*
X111868285Y-43337380D02*
X111915904Y-43242142D01*
X111915904Y-43242142D02*
X111915904Y-43146904D01*
X111915904Y-43146904D02*
X111868285Y-43051666D01*
X111868285Y-43051666D02*
X111820666Y-43004047D01*
X111820666Y-43004047D02*
X111725428Y-42956428D01*
X111725428Y-42956428D02*
X111534952Y-42908809D01*
X111534952Y-42908809D02*
X111439714Y-42861190D01*
X111439714Y-42861190D02*
X111392095Y-42813571D01*
X111392095Y-42813571D02*
X111344476Y-42718333D01*
X111344476Y-42718333D02*
X111344476Y-42623095D01*
X111344476Y-42623095D02*
X111392095Y-42527857D01*
X111392095Y-42527857D02*
X111439714Y-42480238D01*
X111439714Y-42480238D02*
X111534952Y-42432619D01*
X111534952Y-42432619D02*
X111773047Y-42432619D01*
X111773047Y-42432619D02*
X111915904Y-42480238D01*
X112249238Y-42432619D02*
X112487333Y-43432619D01*
X112487333Y-43432619D02*
X112677809Y-42718333D01*
X112677809Y-42718333D02*
X112868285Y-43432619D01*
X112868285Y-43432619D02*
X113106381Y-42432619D01*
X114011142Y-43432619D02*
X113439714Y-43432619D01*
X113725428Y-43432619D02*
X113725428Y-42432619D01*
X113725428Y-42432619D02*
X113630190Y-42575476D01*
X113630190Y-42575476D02*
X113534952Y-42670714D01*
X113534952Y-42670714D02*
X113439714Y-42718333D01*
X114344476Y-42432619D02*
X115011142Y-42432619D01*
X115011142Y-42432619D02*
X114582571Y-43432619D01*
%TO.C,J6*%
X130530619Y-67643333D02*
X131244904Y-67643333D01*
X131244904Y-67643333D02*
X131387761Y-67690952D01*
X131387761Y-67690952D02*
X131483000Y-67786190D01*
X131483000Y-67786190D02*
X131530619Y-67929047D01*
X131530619Y-67929047D02*
X131530619Y-68024285D01*
X130530619Y-66738571D02*
X130530619Y-66929047D01*
X130530619Y-66929047D02*
X130578238Y-67024285D01*
X130578238Y-67024285D02*
X130625857Y-67071904D01*
X130625857Y-67071904D02*
X130768714Y-67167142D01*
X130768714Y-67167142D02*
X130959190Y-67214761D01*
X130959190Y-67214761D02*
X131340142Y-67214761D01*
X131340142Y-67214761D02*
X131435380Y-67167142D01*
X131435380Y-67167142D02*
X131483000Y-67119523D01*
X131483000Y-67119523D02*
X131530619Y-67024285D01*
X131530619Y-67024285D02*
X131530619Y-66833809D01*
X131530619Y-66833809D02*
X131483000Y-66738571D01*
X131483000Y-66738571D02*
X131435380Y-66690952D01*
X131435380Y-66690952D02*
X131340142Y-66643333D01*
X131340142Y-66643333D02*
X131102047Y-66643333D01*
X131102047Y-66643333D02*
X131006809Y-66690952D01*
X131006809Y-66690952D02*
X130959190Y-66738571D01*
X130959190Y-66738571D02*
X130911571Y-66833809D01*
X130911571Y-66833809D02*
X130911571Y-67024285D01*
X130911571Y-67024285D02*
X130959190Y-67119523D01*
X130959190Y-67119523D02*
X131006809Y-67167142D01*
X131006809Y-67167142D02*
X131102047Y-67214761D01*
%TO.C,SW16*%
X100707618Y-39578619D02*
X100374285Y-39102428D01*
X100136190Y-39578619D02*
X100136190Y-38578619D01*
X100136190Y-38578619D02*
X100517142Y-38578619D01*
X100517142Y-38578619D02*
X100612380Y-38626238D01*
X100612380Y-38626238D02*
X100659999Y-38673857D01*
X100659999Y-38673857D02*
X100707618Y-38769095D01*
X100707618Y-38769095D02*
X100707618Y-38911952D01*
X100707618Y-38911952D02*
X100659999Y-39007190D01*
X100659999Y-39007190D02*
X100612380Y-39054809D01*
X100612380Y-39054809D02*
X100517142Y-39102428D01*
X100517142Y-39102428D02*
X100136190Y-39102428D01*
X101136190Y-39054809D02*
X101469523Y-39054809D01*
X101612380Y-39578619D02*
X101136190Y-39578619D01*
X101136190Y-39578619D02*
X101136190Y-38578619D01*
X101136190Y-38578619D02*
X101612380Y-38578619D01*
X101993333Y-39531000D02*
X102136190Y-39578619D01*
X102136190Y-39578619D02*
X102374285Y-39578619D01*
X102374285Y-39578619D02*
X102469523Y-39531000D01*
X102469523Y-39531000D02*
X102517142Y-39483380D01*
X102517142Y-39483380D02*
X102564761Y-39388142D01*
X102564761Y-39388142D02*
X102564761Y-39292904D01*
X102564761Y-39292904D02*
X102517142Y-39197666D01*
X102517142Y-39197666D02*
X102469523Y-39150047D01*
X102469523Y-39150047D02*
X102374285Y-39102428D01*
X102374285Y-39102428D02*
X102183809Y-39054809D01*
X102183809Y-39054809D02*
X102088571Y-39007190D01*
X102088571Y-39007190D02*
X102040952Y-38959571D01*
X102040952Y-38959571D02*
X101993333Y-38864333D01*
X101993333Y-38864333D02*
X101993333Y-38769095D01*
X101993333Y-38769095D02*
X102040952Y-38673857D01*
X102040952Y-38673857D02*
X102088571Y-38626238D01*
X102088571Y-38626238D02*
X102183809Y-38578619D01*
X102183809Y-38578619D02*
X102421904Y-38578619D01*
X102421904Y-38578619D02*
X102564761Y-38626238D01*
X102993333Y-39054809D02*
X103326666Y-39054809D01*
X103469523Y-39578619D02*
X102993333Y-39578619D01*
X102993333Y-39578619D02*
X102993333Y-38578619D01*
X102993333Y-38578619D02*
X103469523Y-38578619D01*
X103755238Y-38578619D02*
X104326666Y-38578619D01*
X104040952Y-39578619D02*
X104040952Y-38578619D01*
%TO.C,J7*%
X112083904Y-49503047D02*
X112198190Y-49541142D01*
X112198190Y-49541142D02*
X112236285Y-49579238D01*
X112236285Y-49579238D02*
X112274381Y-49655428D01*
X112274381Y-49655428D02*
X112274381Y-49769714D01*
X112274381Y-49769714D02*
X112236285Y-49845904D01*
X112236285Y-49845904D02*
X112198190Y-49884000D01*
X112198190Y-49884000D02*
X112122000Y-49922095D01*
X112122000Y-49922095D02*
X111817238Y-49922095D01*
X111817238Y-49922095D02*
X111817238Y-49122095D01*
X111817238Y-49122095D02*
X112083904Y-49122095D01*
X112083904Y-49122095D02*
X112160095Y-49160190D01*
X112160095Y-49160190D02*
X112198190Y-49198285D01*
X112198190Y-49198285D02*
X112236285Y-49274476D01*
X112236285Y-49274476D02*
X112236285Y-49350666D01*
X112236285Y-49350666D02*
X112198190Y-49426857D01*
X112198190Y-49426857D02*
X112160095Y-49464952D01*
X112160095Y-49464952D02*
X112083904Y-49503047D01*
X112083904Y-49503047D02*
X111817238Y-49503047D01*
X112617238Y-49617333D02*
X113226762Y-49617333D01*
X110083904Y-49503047D02*
X110198190Y-49541142D01*
X110198190Y-49541142D02*
X110236285Y-49579238D01*
X110236285Y-49579238D02*
X110274381Y-49655428D01*
X110274381Y-49655428D02*
X110274381Y-49769714D01*
X110274381Y-49769714D02*
X110236285Y-49845904D01*
X110236285Y-49845904D02*
X110198190Y-49884000D01*
X110198190Y-49884000D02*
X110122000Y-49922095D01*
X110122000Y-49922095D02*
X109817238Y-49922095D01*
X109817238Y-49922095D02*
X109817238Y-49122095D01*
X109817238Y-49122095D02*
X110083904Y-49122095D01*
X110083904Y-49122095D02*
X110160095Y-49160190D01*
X110160095Y-49160190D02*
X110198190Y-49198285D01*
X110198190Y-49198285D02*
X110236285Y-49274476D01*
X110236285Y-49274476D02*
X110236285Y-49350666D01*
X110236285Y-49350666D02*
X110198190Y-49426857D01*
X110198190Y-49426857D02*
X110160095Y-49464952D01*
X110160095Y-49464952D02*
X110083904Y-49503047D01*
X110083904Y-49503047D02*
X109817238Y-49503047D01*
X110617238Y-49617333D02*
X111226762Y-49617333D01*
X110922000Y-49922095D02*
X110922000Y-49312571D01*
X114083904Y-49503047D02*
X114198190Y-49541142D01*
X114198190Y-49541142D02*
X114236285Y-49579238D01*
X114236285Y-49579238D02*
X114274381Y-49655428D01*
X114274381Y-49655428D02*
X114274381Y-49769714D01*
X114274381Y-49769714D02*
X114236285Y-49845904D01*
X114236285Y-49845904D02*
X114198190Y-49884000D01*
X114198190Y-49884000D02*
X114122000Y-49922095D01*
X114122000Y-49922095D02*
X113817238Y-49922095D01*
X113817238Y-49922095D02*
X113817238Y-49122095D01*
X113817238Y-49122095D02*
X114083904Y-49122095D01*
X114083904Y-49122095D02*
X114160095Y-49160190D01*
X114160095Y-49160190D02*
X114198190Y-49198285D01*
X114198190Y-49198285D02*
X114236285Y-49274476D01*
X114236285Y-49274476D02*
X114236285Y-49350666D01*
X114236285Y-49350666D02*
X114198190Y-49426857D01*
X114198190Y-49426857D02*
X114160095Y-49464952D01*
X114160095Y-49464952D02*
X114083904Y-49503047D01*
X114083904Y-49503047D02*
X113817238Y-49503047D01*
X114617238Y-49617333D02*
X115226762Y-49617333D01*
X114922000Y-49922095D02*
X114922000Y-49312571D01*
%TO.C,H1*%
X97282095Y-70566619D02*
X97282095Y-69566619D01*
X97282095Y-70042809D02*
X97853523Y-70042809D01*
X97853523Y-70566619D02*
X97853523Y-69566619D01*
X98853523Y-70566619D02*
X98282095Y-70566619D01*
X98567809Y-70566619D02*
X98567809Y-69566619D01*
X98567809Y-69566619D02*
X98472571Y-69709476D01*
X98472571Y-69709476D02*
X98377333Y-69804714D01*
X98377333Y-69804714D02*
X98282095Y-69852333D01*
%TO.C,H2*%
X140970095Y-42118619D02*
X140970095Y-41118619D01*
X140970095Y-41594809D02*
X141541523Y-41594809D01*
X141541523Y-42118619D02*
X141541523Y-41118619D01*
X141970095Y-41213857D02*
X142017714Y-41166238D01*
X142017714Y-41166238D02*
X142112952Y-41118619D01*
X142112952Y-41118619D02*
X142351047Y-41118619D01*
X142351047Y-41118619D02*
X142446285Y-41166238D01*
X142446285Y-41166238D02*
X142493904Y-41213857D01*
X142493904Y-41213857D02*
X142541523Y-41309095D01*
X142541523Y-41309095D02*
X142541523Y-41404333D01*
X142541523Y-41404333D02*
X142493904Y-41547190D01*
X142493904Y-41547190D02*
X141922476Y-42118619D01*
X141922476Y-42118619D02*
X142541523Y-42118619D01*
D11*
%TO.C,J11*%
X130455000Y-59800000D02*
X130455000Y-62169000D01*
X123960000Y-70800000D02*
X126343000Y-70800000D01*
X128794000Y-59800000D02*
X130455000Y-59800000D01*
X130455000Y-70800000D02*
X130455000Y-68431000D01*
X128794000Y-70800000D02*
X130455000Y-70800000D01*
X123960000Y-70800000D02*
X123960000Y-59800000D01*
X123960000Y-59800000D02*
X126343000Y-59800000D01*
X131090000Y-61871000D02*
G75*
G03*
X131090000Y-61871000I-127000J0D01*
G01*
%TO.C,kibuzzard-6399CB9D*%
G36*
X104268095Y-41328922D02*
G01*
X104314728Y-41375356D01*
X104341517Y-41446794D01*
X104350447Y-41537281D01*
X104340723Y-41627570D01*
X104311553Y-41698413D01*
X104263332Y-41744252D01*
X104196459Y-41759531D01*
X104127998Y-41744252D01*
X104081365Y-41698413D01*
X104054576Y-41627570D01*
X104045647Y-41537281D01*
X104055370Y-41446794D01*
X104084540Y-41375356D01*
X104132761Y-41328922D01*
X104199634Y-41313444D01*
X104268095Y-41328922D01*
G37*
G36*
X102680793Y-41333883D02*
G01*
X102732784Y-41399963D01*
X102756597Y-41467784D01*
X102770884Y-41553774D01*
X102775647Y-41657931D01*
X102770884Y-41761207D01*
X102756597Y-41846667D01*
X102732784Y-41914313D01*
X102680793Y-41980392D01*
X102610547Y-42002419D01*
X102539307Y-41980392D01*
X102487515Y-41914313D01*
X102464144Y-41846667D01*
X102450121Y-41761207D01*
X102446165Y-41673806D01*
X102521647Y-41673806D01*
X102546253Y-41748419D01*
X102608959Y-41780169D01*
X102674047Y-41748419D01*
X102697859Y-41673806D01*
X102674047Y-41599988D01*
X102608959Y-41569031D01*
X102546253Y-41599988D01*
X102521647Y-41673806D01*
X102446165Y-41673806D01*
X102445447Y-41657931D01*
X102450121Y-41553774D01*
X102464144Y-41467784D01*
X102487515Y-41399963D01*
X102539307Y-41333883D01*
X102608959Y-41312347D01*
X102610547Y-41311856D01*
X102680793Y-41333883D01*
G37*
G36*
X102610547Y-41077435D02*
G01*
X103278884Y-41077435D01*
X104196459Y-41077435D01*
X104918772Y-41077435D01*
X105345809Y-41077435D01*
X105411955Y-41077435D01*
X105411955Y-42322565D01*
X105345809Y-42322565D01*
X102269234Y-42322565D01*
X102203088Y-42322565D01*
X101788045Y-41700000D01*
X101816091Y-41657931D01*
X102269234Y-41657931D01*
X102274691Y-41779028D01*
X102291062Y-41883555D01*
X102318347Y-41971512D01*
X102356547Y-42042900D01*
X102423574Y-42113015D01*
X102508241Y-42155083D01*
X102610547Y-42169106D01*
X102711265Y-42154995D01*
X102795402Y-42112662D01*
X102862959Y-42042106D01*
X102901853Y-41970470D01*
X102929634Y-41882563D01*
X102946303Y-41778383D01*
X102951859Y-41657931D01*
X102946402Y-41536091D01*
X102930031Y-41430919D01*
X102902746Y-41342416D01*
X102864547Y-41270581D01*
X102797519Y-41200026D01*
X102789405Y-41195969D01*
X103059809Y-41195969D01*
X103085209Y-41353131D01*
X103137597Y-41332494D01*
X103236022Y-41316619D01*
X103312222Y-41343606D01*
X103342384Y-41446794D01*
X103342384Y-42256419D01*
X103744022Y-42256419D01*
X103744022Y-42094494D01*
X103537647Y-42094494D01*
X103537647Y-41538869D01*
X103845622Y-41538869D01*
X103851972Y-41622411D01*
X103871022Y-41698413D01*
X103901779Y-41765484D01*
X103943253Y-41822238D01*
X103994450Y-41867878D01*
X104054378Y-41901613D01*
X104122045Y-41922448D01*
X104196459Y-41929394D01*
X104269881Y-41922448D01*
X104337747Y-41901613D01*
X104398270Y-41867878D01*
X104449665Y-41822238D01*
X104491337Y-41765484D01*
X104522690Y-41698413D01*
X104542336Y-41622411D01*
X104548884Y-41538869D01*
X104542534Y-41454136D01*
X104523484Y-41377738D01*
X104492726Y-41310467D01*
X104451253Y-41253119D01*
X104405745Y-41211844D01*
X104644134Y-41211844D01*
X104693347Y-41365831D01*
X104773515Y-41330906D01*
X104899722Y-41313444D01*
X105013029Y-41335867D01*
X105089428Y-41403138D01*
X105121619Y-41471665D01*
X105140933Y-41557654D01*
X105147372Y-41661106D01*
X105142014Y-41750006D01*
X105125940Y-41823031D01*
X105070378Y-41927013D01*
X104992590Y-41982575D01*
X104902897Y-41999244D01*
X104784628Y-41982575D01*
X104696522Y-41942094D01*
X104645722Y-42097669D01*
X104678265Y-42116719D01*
X104731447Y-42140531D01*
X104805265Y-42160375D01*
X104899722Y-42169106D01*
X104992789Y-42160573D01*
X105078315Y-42134975D01*
X105154515Y-42092906D01*
X105219603Y-42034963D01*
X105272586Y-41961739D01*
X105312472Y-41873831D01*
X105337475Y-41771834D01*
X105345809Y-41656344D01*
X105338963Y-41540357D01*
X105318425Y-41438459D01*
X105284194Y-41350651D01*
X105236272Y-41276931D01*
X105152310Y-41202848D01*
X105046477Y-41158398D01*
X104918772Y-41143581D01*
X104832054Y-41148939D01*
X104756053Y-41165012D01*
X104644134Y-41211844D01*
X104405745Y-41211844D01*
X104400056Y-41206684D01*
X104340128Y-41172156D01*
X104272064Y-41150725D01*
X104196459Y-41143581D01*
X104120854Y-41150725D01*
X104052790Y-41172156D01*
X103993061Y-41206684D01*
X103942459Y-41253119D01*
X103901581Y-41310467D01*
X103871022Y-41377738D01*
X103851972Y-41454136D01*
X103845622Y-41538869D01*
X103537647Y-41538869D01*
X103537647Y-41461081D01*
X103522168Y-41325548D01*
X103475734Y-41226925D01*
X103395565Y-41166798D01*
X103278884Y-41146756D01*
X103190778Y-41153106D01*
X103124897Y-41168187D01*
X103081240Y-41184856D01*
X103059809Y-41195969D01*
X102789405Y-41195969D01*
X102712852Y-41157692D01*
X102610547Y-41143581D01*
X102508241Y-41157692D01*
X102423574Y-41200026D01*
X102356547Y-41270581D01*
X102318347Y-41342416D01*
X102291062Y-41430919D01*
X102274691Y-41536091D01*
X102269234Y-41657931D01*
X101816091Y-41657931D01*
X102203088Y-41077435D01*
X102269234Y-41077435D01*
X102610547Y-41077435D01*
G37*
G36*
X98018095Y-41328922D02*
G01*
X98064728Y-41375356D01*
X98091517Y-41446794D01*
X98100447Y-41537281D01*
X98090723Y-41627570D01*
X98061553Y-41698413D01*
X98013332Y-41744252D01*
X97946459Y-41759531D01*
X97877998Y-41744252D01*
X97831365Y-41698413D01*
X97804576Y-41627570D01*
X97795647Y-41537281D01*
X97805370Y-41446794D01*
X97834540Y-41375356D01*
X97882761Y-41328922D01*
X97949634Y-41313444D01*
X98018095Y-41328922D01*
G37*
G36*
X96430793Y-41333883D02*
G01*
X96482784Y-41399963D01*
X96506597Y-41467784D01*
X96520884Y-41553774D01*
X96525647Y-41657931D01*
X96520884Y-41761207D01*
X96506597Y-41846667D01*
X96482784Y-41914313D01*
X96430793Y-41980392D01*
X96360547Y-42002419D01*
X96289307Y-41980392D01*
X96237515Y-41914313D01*
X96214144Y-41846667D01*
X96200121Y-41761207D01*
X96196165Y-41673806D01*
X96271647Y-41673806D01*
X96296253Y-41748419D01*
X96358959Y-41780169D01*
X96424047Y-41748419D01*
X96447859Y-41673806D01*
X96424047Y-41599988D01*
X96358959Y-41569031D01*
X96296253Y-41599988D01*
X96271647Y-41673806D01*
X96196165Y-41673806D01*
X96195447Y-41657931D01*
X96200121Y-41553774D01*
X96214144Y-41467784D01*
X96237515Y-41399963D01*
X96289307Y-41333883D01*
X96358959Y-41312347D01*
X96360547Y-41311856D01*
X96430793Y-41333883D01*
G37*
G36*
X96360547Y-41077435D02*
G01*
X97028884Y-41077435D01*
X97946459Y-41077435D01*
X98668772Y-41077435D01*
X99095809Y-41077435D01*
X99161955Y-41077435D01*
X99161955Y-42322565D01*
X99095809Y-42322565D01*
X96019234Y-42322565D01*
X95953088Y-42322565D01*
X95538045Y-41700000D01*
X95566091Y-41657931D01*
X96019234Y-41657931D01*
X96024691Y-41779028D01*
X96041062Y-41883555D01*
X96068347Y-41971512D01*
X96106547Y-42042900D01*
X96173574Y-42113015D01*
X96258241Y-42155083D01*
X96360547Y-42169106D01*
X96461265Y-42154995D01*
X96545402Y-42112662D01*
X96612959Y-42042106D01*
X96651853Y-41970470D01*
X96679634Y-41882563D01*
X96696303Y-41778383D01*
X96701859Y-41657931D01*
X96696402Y-41536091D01*
X96680031Y-41430919D01*
X96652746Y-41342416D01*
X96614547Y-41270581D01*
X96547519Y-41200026D01*
X96539405Y-41195969D01*
X96809809Y-41195969D01*
X96835209Y-41353131D01*
X96887597Y-41332494D01*
X96986022Y-41316619D01*
X97062222Y-41343606D01*
X97092384Y-41446794D01*
X97092384Y-42256419D01*
X97494022Y-42256419D01*
X97494022Y-42094494D01*
X97287647Y-42094494D01*
X97287647Y-41538869D01*
X97595622Y-41538869D01*
X97601972Y-41622411D01*
X97621022Y-41698413D01*
X97651779Y-41765484D01*
X97693253Y-41822238D01*
X97744450Y-41867878D01*
X97804378Y-41901613D01*
X97872045Y-41922448D01*
X97946459Y-41929394D01*
X98019881Y-41922448D01*
X98087747Y-41901613D01*
X98148270Y-41867878D01*
X98199665Y-41822238D01*
X98241337Y-41765484D01*
X98272690Y-41698413D01*
X98292336Y-41622411D01*
X98298884Y-41538869D01*
X98292534Y-41454136D01*
X98273484Y-41377738D01*
X98242726Y-41310467D01*
X98201253Y-41253119D01*
X98155745Y-41211844D01*
X98394134Y-41211844D01*
X98443347Y-41365831D01*
X98523515Y-41330906D01*
X98649722Y-41313444D01*
X98763029Y-41335867D01*
X98839428Y-41403138D01*
X98871619Y-41471665D01*
X98890933Y-41557654D01*
X98897372Y-41661106D01*
X98892014Y-41750006D01*
X98875940Y-41823031D01*
X98820378Y-41927013D01*
X98742590Y-41982575D01*
X98652897Y-41999244D01*
X98534628Y-41982575D01*
X98446522Y-41942094D01*
X98395722Y-42097669D01*
X98428265Y-42116719D01*
X98481447Y-42140531D01*
X98555265Y-42160375D01*
X98649722Y-42169106D01*
X98742789Y-42160573D01*
X98828315Y-42134975D01*
X98904515Y-42092906D01*
X98969603Y-42034963D01*
X99022586Y-41961739D01*
X99062472Y-41873831D01*
X99087475Y-41771834D01*
X99095809Y-41656344D01*
X99088963Y-41540357D01*
X99068425Y-41438459D01*
X99034194Y-41350651D01*
X98986272Y-41276931D01*
X98902310Y-41202848D01*
X98796477Y-41158398D01*
X98668772Y-41143581D01*
X98582054Y-41148939D01*
X98506053Y-41165012D01*
X98394134Y-41211844D01*
X98155745Y-41211844D01*
X98150056Y-41206684D01*
X98090128Y-41172156D01*
X98022064Y-41150725D01*
X97946459Y-41143581D01*
X97870854Y-41150725D01*
X97802790Y-41172156D01*
X97743061Y-41206684D01*
X97692459Y-41253119D01*
X97651581Y-41310467D01*
X97621022Y-41377738D01*
X97601972Y-41454136D01*
X97595622Y-41538869D01*
X97287647Y-41538869D01*
X97287647Y-41461081D01*
X97272168Y-41325548D01*
X97225734Y-41226925D01*
X97145565Y-41166798D01*
X97028884Y-41146756D01*
X96940778Y-41153106D01*
X96874897Y-41168187D01*
X96831240Y-41184856D01*
X96809809Y-41195969D01*
X96539405Y-41195969D01*
X96462852Y-41157692D01*
X96360547Y-41143581D01*
X96258241Y-41157692D01*
X96173574Y-41200026D01*
X96106547Y-41270581D01*
X96068347Y-41342416D01*
X96041062Y-41430919D01*
X96024691Y-41536091D01*
X96019234Y-41657931D01*
X95566091Y-41657931D01*
X95953088Y-41077435D01*
X96019234Y-41077435D01*
X96360547Y-41077435D01*
G37*
%TO.C,kibuzzard-6399CC4D*%
G36*
X100015466Y-59096725D02*
G01*
X99969031Y-59278891D01*
X99815441Y-59346756D01*
X99709475Y-59322944D01*
X99645181Y-59262222D01*
X99614225Y-59177688D01*
X99605891Y-59080056D01*
X99608272Y-59007428D01*
X99615416Y-58939562D01*
X100015466Y-58939562D01*
X100015466Y-59096725D01*
G37*
G36*
X100603634Y-59003856D02*
G01*
X100606016Y-59072912D01*
X100600062Y-59151494D01*
X100576250Y-59218169D01*
X100526244Y-59263412D01*
X100441709Y-59280081D01*
X100307169Y-59222931D01*
X100258353Y-59053862D01*
X100258353Y-58939562D01*
X100596491Y-58939562D01*
X100603634Y-59003856D01*
G37*
G36*
X100960028Y-53815112D02*
G01*
X100960028Y-59634888D01*
X100960028Y-59734106D01*
X99239972Y-59734106D01*
X99239972Y-59634888D01*
X99239972Y-59056244D01*
X99351097Y-59056244D01*
X99356752Y-59173818D01*
X99373719Y-59283653D01*
X99404080Y-59382475D01*
X99449919Y-59467009D01*
X99592794Y-59589644D01*
X99693104Y-59623577D01*
X99815441Y-59634888D01*
X99915453Y-59621493D01*
X100010703Y-59581309D01*
X100094047Y-59503621D01*
X100158341Y-59377713D01*
X100286928Y-59514634D01*
X100373844Y-59553032D01*
X100472666Y-59565831D01*
X100610778Y-59544400D01*
X100735794Y-59463437D01*
X100826281Y-59299131D01*
X100852177Y-59178878D01*
X100860809Y-59027669D01*
X100850094Y-58830025D01*
X100825091Y-58646669D01*
X99393959Y-58646669D01*
X99375207Y-58749658D01*
X99361812Y-58853838D01*
X99353776Y-58956827D01*
X99351097Y-59056244D01*
X99239972Y-59056244D01*
X99239972Y-58463313D01*
X99370147Y-58463313D01*
X99558563Y-58457955D01*
X99742812Y-58451406D01*
X99924383Y-58443370D01*
X100104762Y-58433547D01*
X100285440Y-58421641D01*
X100467903Y-58407353D01*
X100653641Y-58391577D01*
X100844141Y-58375206D01*
X100844141Y-58132319D01*
X100717934Y-58089456D01*
X100554819Y-58037069D01*
X100373844Y-57977537D01*
X100191678Y-57918006D01*
X100363128Y-57863237D01*
X100546484Y-57806087D01*
X100715553Y-57752509D01*
X100844141Y-57710837D01*
X100844141Y-57467950D01*
X100682811Y-57452174D01*
X100508384Y-57438184D01*
X100324433Y-57425980D01*
X100134528Y-57415562D01*
X99941052Y-57406335D01*
X99746384Y-57397703D01*
X99554694Y-57389666D01*
X99370147Y-57382225D01*
X99370147Y-57651306D01*
X100515528Y-57639400D01*
X99891641Y-57813231D01*
X99891641Y-58027544D01*
X100515528Y-58208519D01*
X99370147Y-58194231D01*
X99370147Y-58463313D01*
X99239972Y-58463313D01*
X99239972Y-56727381D01*
X99339191Y-56727381D01*
X99349013Y-56860731D01*
X99378481Y-56970269D01*
X99426404Y-57058375D01*
X99491591Y-57127431D01*
X99573148Y-57178033D01*
X99670184Y-57210775D01*
X99780912Y-57228634D01*
X99903547Y-57234587D01*
X100844141Y-57234587D01*
X100844141Y-56941694D01*
X99924978Y-56941694D01*
X99769006Y-56932169D01*
X99666612Y-56898831D01*
X99610653Y-56834537D01*
X99593984Y-56732144D01*
X99610653Y-56629750D01*
X99665422Y-56566647D01*
X99766625Y-56534500D01*
X99922597Y-56524975D01*
X100844141Y-56524975D01*
X100844141Y-56229700D01*
X99903547Y-56229700D01*
X99780912Y-56235653D01*
X99670184Y-56253512D01*
X99573148Y-56285659D01*
X99491591Y-56334475D01*
X99378481Y-56488066D01*
X99349013Y-56596115D01*
X99339191Y-56727381D01*
X99239972Y-56727381D01*
X99239972Y-56029675D01*
X99370147Y-56029675D01*
X100844141Y-56029675D01*
X100844141Y-55736781D01*
X100263116Y-55736781D01*
X100263116Y-55346256D01*
X100844141Y-55346256D01*
X100844141Y-55053362D01*
X99370147Y-55053362D01*
X99370147Y-55346256D01*
X100020228Y-55346256D01*
X100020228Y-55736781D01*
X99370147Y-55736781D01*
X99370147Y-56029675D01*
X99239972Y-56029675D01*
X99239972Y-54498531D01*
X99370147Y-54498531D01*
X100601253Y-54498531D01*
X100601253Y-54886675D01*
X100844141Y-54886675D01*
X100844141Y-53815112D01*
X100601253Y-53815112D01*
X100601253Y-54203256D01*
X99370147Y-54203256D01*
X99370147Y-54498531D01*
X99239972Y-54498531D01*
X99239972Y-53815112D01*
X99239972Y-53715894D01*
X100960028Y-53715894D01*
X100960028Y-53815112D01*
G37*
%TO.C,kibuzzard-6399CBDB*%
G36*
X105171819Y-58387453D02*
G01*
X105263100Y-58443810D01*
X105349619Y-58503341D01*
X105427406Y-58562078D01*
X105081331Y-58562078D01*
X105081331Y-58339828D01*
X105171819Y-58387453D01*
G37*
G36*
X105152570Y-56776339D02*
G01*
X105223413Y-56805510D01*
X105269252Y-56853730D01*
X105284531Y-56920603D01*
X105269252Y-56989064D01*
X105223413Y-57035697D01*
X105152570Y-57062486D01*
X105062281Y-57071416D01*
X104971794Y-57061693D01*
X104900356Y-57032522D01*
X104853922Y-56984302D01*
X104838444Y-56917428D01*
X104853922Y-56848968D01*
X104900356Y-56802335D01*
X104971794Y-56775546D01*
X105062281Y-56766616D01*
X105152570Y-56776339D01*
G37*
G36*
X105847565Y-55771253D02*
G01*
X105847565Y-58863703D01*
X105847565Y-58929849D01*
X105225000Y-59344892D01*
X104602435Y-58929849D01*
X104602435Y-58863703D01*
X104602435Y-58757341D01*
X104689219Y-58757341D01*
X104920994Y-58757341D01*
X104920994Y-58863703D01*
X105081331Y-58863703D01*
X105081331Y-58757341D01*
X105671881Y-58757341D01*
X105671881Y-58582716D01*
X105604214Y-58519216D01*
X105528213Y-58455716D01*
X105447448Y-58393803D01*
X105365494Y-58335066D01*
X105283936Y-58280297D01*
X105204363Y-58230291D01*
X105129948Y-58187032D01*
X105063869Y-58152503D01*
X104920994Y-58152503D01*
X104920994Y-58562078D01*
X104689219Y-58562078D01*
X104689219Y-58757341D01*
X104602435Y-58757341D01*
X104602435Y-57838178D01*
X104671756Y-57838178D01*
X104678106Y-57926285D01*
X104693187Y-57992166D01*
X104709856Y-58035822D01*
X104720969Y-58057253D01*
X104878131Y-58031853D01*
X104857494Y-57979466D01*
X104841619Y-57881041D01*
X104868606Y-57804841D01*
X104971794Y-57774678D01*
X105781419Y-57774678D01*
X105781419Y-57373041D01*
X105619494Y-57373041D01*
X105619494Y-57579416D01*
X104986081Y-57579416D01*
X104850548Y-57594894D01*
X104751925Y-57641328D01*
X104691798Y-57721497D01*
X104671756Y-57838178D01*
X104602435Y-57838178D01*
X104602435Y-56920603D01*
X104668581Y-56920603D01*
X104675725Y-56996208D01*
X104697156Y-57064272D01*
X104731684Y-57124002D01*
X104778119Y-57174603D01*
X104835467Y-57215482D01*
X104902738Y-57246041D01*
X104979136Y-57265091D01*
X105063869Y-57271441D01*
X105147411Y-57265091D01*
X105223413Y-57246041D01*
X105290484Y-57215283D01*
X105347238Y-57173810D01*
X105392878Y-57122613D01*
X105426613Y-57062685D01*
X105447448Y-56995018D01*
X105454394Y-56920603D01*
X105447448Y-56847182D01*
X105426613Y-56779316D01*
X105392878Y-56718793D01*
X105347238Y-56667397D01*
X105290484Y-56625725D01*
X105223413Y-56594372D01*
X105147411Y-56574727D01*
X105063869Y-56568178D01*
X104979136Y-56574528D01*
X104902738Y-56593578D01*
X104835467Y-56624336D01*
X104778119Y-56665810D01*
X104731684Y-56717007D01*
X104697156Y-56776935D01*
X104675725Y-56844999D01*
X104668581Y-56920603D01*
X104602435Y-56920603D01*
X104602435Y-56198291D01*
X104668581Y-56198291D01*
X104673939Y-56285008D01*
X104690012Y-56361010D01*
X104736844Y-56472928D01*
X104890831Y-56423716D01*
X104855906Y-56343547D01*
X104838444Y-56217341D01*
X104860867Y-56104033D01*
X104928138Y-56027635D01*
X104996665Y-55995444D01*
X105082654Y-55976129D01*
X105186106Y-55969691D01*
X105275006Y-55975049D01*
X105348031Y-55991122D01*
X105452013Y-56046685D01*
X105507575Y-56124472D01*
X105524244Y-56214166D01*
X105507575Y-56332435D01*
X105467094Y-56420541D01*
X105622669Y-56471341D01*
X105641719Y-56438797D01*
X105665531Y-56385616D01*
X105685375Y-56311797D01*
X105694106Y-56217341D01*
X105685573Y-56124274D01*
X105659975Y-56038747D01*
X105617906Y-55962547D01*
X105559963Y-55897460D01*
X105486739Y-55844477D01*
X105398831Y-55804591D01*
X105296834Y-55779588D01*
X105181344Y-55771253D01*
X105065357Y-55778100D01*
X104963459Y-55798638D01*
X104875651Y-55832868D01*
X104801931Y-55880791D01*
X104727848Y-55964752D01*
X104683398Y-56070585D01*
X104668581Y-56198291D01*
X104602435Y-56198291D01*
X104602435Y-55771253D01*
X104602435Y-55705108D01*
X105847565Y-55705108D01*
X105847565Y-55771253D01*
G37*
%TO.C,kibuzzard-6399CBBA*%
G36*
X127052570Y-56789039D02*
G01*
X127123413Y-56818210D01*
X127169252Y-56866430D01*
X127184531Y-56933303D01*
X127169252Y-57001764D01*
X127123413Y-57048397D01*
X127052570Y-57075186D01*
X126962281Y-57084116D01*
X126871794Y-57074393D01*
X126800356Y-57045222D01*
X126753922Y-56997002D01*
X126738444Y-56930128D01*
X126753922Y-56861668D01*
X126800356Y-56815035D01*
X126871794Y-56788246D01*
X126962281Y-56779316D01*
X127052570Y-56789039D01*
G37*
G36*
X127747565Y-55783953D02*
G01*
X127747565Y-58851003D01*
X127747565Y-58917149D01*
X127125000Y-59332192D01*
X126502435Y-58917149D01*
X126502435Y-58851003D01*
X126589219Y-58851003D01*
X126751144Y-58851003D01*
X126751144Y-58655741D01*
X127571881Y-58655741D01*
X127571881Y-58522391D01*
X127509969Y-58454128D01*
X127452819Y-58369991D01*
X127403606Y-58281091D01*
X127367094Y-58198541D01*
X127205169Y-58262041D01*
X127244063Y-58358878D01*
X127300419Y-58460478D01*
X126751144Y-58460478D01*
X126751144Y-58254103D01*
X126589219Y-58254103D01*
X126589219Y-58851003D01*
X126502435Y-58851003D01*
X126502435Y-57850878D01*
X126571756Y-57850878D01*
X126578106Y-57938985D01*
X126593187Y-58004866D01*
X126609856Y-58048522D01*
X126620969Y-58069953D01*
X126778131Y-58044553D01*
X126757494Y-57992166D01*
X126741619Y-57893741D01*
X126768606Y-57817541D01*
X126871794Y-57787378D01*
X127681419Y-57787378D01*
X127681419Y-57385741D01*
X127519494Y-57385741D01*
X127519494Y-57592116D01*
X126886081Y-57592116D01*
X126750548Y-57607594D01*
X126651925Y-57654028D01*
X126591798Y-57734197D01*
X126571756Y-57850878D01*
X126502435Y-57850878D01*
X126502435Y-56933303D01*
X126568581Y-56933303D01*
X126575725Y-57008908D01*
X126597156Y-57076972D01*
X126631684Y-57136702D01*
X126678119Y-57187303D01*
X126735467Y-57228182D01*
X126802738Y-57258741D01*
X126879136Y-57277791D01*
X126963869Y-57284141D01*
X127047411Y-57277791D01*
X127123413Y-57258741D01*
X127190484Y-57227983D01*
X127247238Y-57186510D01*
X127292878Y-57135313D01*
X127326613Y-57075385D01*
X127347448Y-57007718D01*
X127354394Y-56933303D01*
X127347448Y-56859882D01*
X127326613Y-56792016D01*
X127292878Y-56731493D01*
X127247238Y-56680097D01*
X127190484Y-56638425D01*
X127123413Y-56607072D01*
X127047411Y-56587427D01*
X126963869Y-56580878D01*
X126879136Y-56587228D01*
X126802738Y-56606278D01*
X126735467Y-56637036D01*
X126678119Y-56678510D01*
X126631684Y-56729707D01*
X126597156Y-56789635D01*
X126575725Y-56857699D01*
X126568581Y-56933303D01*
X126502435Y-56933303D01*
X126502435Y-56210991D01*
X126568581Y-56210991D01*
X126573939Y-56297708D01*
X126590012Y-56373710D01*
X126636844Y-56485628D01*
X126790831Y-56436416D01*
X126755906Y-56356247D01*
X126738444Y-56230041D01*
X126760867Y-56116733D01*
X126828138Y-56040335D01*
X126896665Y-56008144D01*
X126982654Y-55988829D01*
X127086106Y-55982391D01*
X127175006Y-55987749D01*
X127248031Y-56003822D01*
X127352013Y-56059385D01*
X127407575Y-56137172D01*
X127424244Y-56226866D01*
X127407575Y-56345135D01*
X127367094Y-56433241D01*
X127522669Y-56484041D01*
X127541719Y-56451497D01*
X127565531Y-56398316D01*
X127585375Y-56324497D01*
X127594106Y-56230041D01*
X127585573Y-56136974D01*
X127559975Y-56051447D01*
X127517906Y-55975247D01*
X127459963Y-55910160D01*
X127386739Y-55857177D01*
X127298831Y-55817291D01*
X127196834Y-55792288D01*
X127081344Y-55783953D01*
X126965357Y-55790800D01*
X126863459Y-55811338D01*
X126775651Y-55845568D01*
X126701931Y-55893491D01*
X126627848Y-55977452D01*
X126583398Y-56083285D01*
X126568581Y-56210991D01*
X126502435Y-56210991D01*
X126502435Y-55783953D01*
X126502435Y-55717808D01*
X127747565Y-55717808D01*
X127747565Y-55783953D01*
G37*
%TO.C,kibuzzard-6399CBC9*%
G36*
X116627570Y-56261658D02*
G01*
X116698413Y-56290828D01*
X116744252Y-56339049D01*
X116759531Y-56405922D01*
X116744252Y-56474383D01*
X116698413Y-56521016D01*
X116627570Y-56547805D01*
X116537281Y-56556735D01*
X116446794Y-56547011D01*
X116375356Y-56517841D01*
X116328922Y-56469621D01*
X116313444Y-56402747D01*
X116328922Y-56334286D01*
X116375356Y-56287653D01*
X116446794Y-56260864D01*
X116537281Y-56251935D01*
X116627570Y-56261658D01*
G37*
G36*
X117322565Y-55256572D02*
G01*
X117322565Y-58328385D01*
X117322565Y-58394531D01*
X116700000Y-58809574D01*
X116077435Y-58394531D01*
X116077435Y-58328385D01*
X116164219Y-58328385D01*
X116326144Y-58328385D01*
X116326144Y-57906110D01*
X116378531Y-57922778D01*
X116434887Y-57963260D01*
X116488863Y-58014060D01*
X116534106Y-58061685D01*
X116613481Y-58142647D01*
X116699206Y-58214085D01*
X116790488Y-58264885D01*
X116888119Y-58283935D01*
X117011150Y-58258535D01*
X117099256Y-58190272D01*
X117151644Y-58091847D01*
X117169106Y-57975960D01*
X117161169Y-57893211D01*
X117137356Y-57810066D01*
X117096875Y-57731683D01*
X117038931Y-57663222D01*
X116902406Y-57760060D01*
X116977019Y-57860072D01*
X116999244Y-57956910D01*
X116966700Y-58048985D01*
X116873831Y-58085497D01*
X116789694Y-58056128D01*
X116703969Y-57981516D01*
X116658527Y-57934685D01*
X116611100Y-57884678D01*
X116560697Y-57834672D01*
X116506325Y-57787841D01*
X116447389Y-57746566D01*
X116383294Y-57713228D01*
X116313444Y-57691202D01*
X116237244Y-57683860D01*
X116203906Y-57683066D01*
X116164219Y-57687035D01*
X116164219Y-58328385D01*
X116077435Y-58328385D01*
X116077435Y-57323497D01*
X116146756Y-57323497D01*
X116153106Y-57411603D01*
X116168187Y-57477485D01*
X116184856Y-57521141D01*
X116195969Y-57542572D01*
X116353131Y-57517172D01*
X116332494Y-57464785D01*
X116316619Y-57366360D01*
X116343606Y-57290160D01*
X116446794Y-57259997D01*
X117256419Y-57259997D01*
X117256419Y-56858360D01*
X117094494Y-56858360D01*
X117094494Y-57064735D01*
X116461081Y-57064735D01*
X116325548Y-57080213D01*
X116226925Y-57126647D01*
X116166798Y-57206816D01*
X116146756Y-57323497D01*
X116077435Y-57323497D01*
X116077435Y-56405922D01*
X116143581Y-56405922D01*
X116150725Y-56481527D01*
X116172156Y-56549591D01*
X116206684Y-56609321D01*
X116253119Y-56659922D01*
X116310467Y-56700800D01*
X116377738Y-56731360D01*
X116454136Y-56750410D01*
X116538869Y-56756760D01*
X116622411Y-56750410D01*
X116698413Y-56731360D01*
X116765484Y-56700602D01*
X116822238Y-56659128D01*
X116867878Y-56607932D01*
X116901613Y-56548003D01*
X116922448Y-56480336D01*
X116929394Y-56405922D01*
X116922448Y-56332500D01*
X116901613Y-56264635D01*
X116867878Y-56204111D01*
X116822238Y-56152716D01*
X116765484Y-56111044D01*
X116698413Y-56079691D01*
X116622411Y-56060046D01*
X116538869Y-56053497D01*
X116454136Y-56059847D01*
X116377738Y-56078897D01*
X116310467Y-56109655D01*
X116253119Y-56151128D01*
X116206684Y-56202325D01*
X116172156Y-56262253D01*
X116150725Y-56330318D01*
X116143581Y-56405922D01*
X116077435Y-56405922D01*
X116077435Y-55683610D01*
X116143581Y-55683610D01*
X116148939Y-55770327D01*
X116165012Y-55846328D01*
X116211844Y-55958247D01*
X116365831Y-55909035D01*
X116330906Y-55828866D01*
X116313444Y-55702660D01*
X116335867Y-55589352D01*
X116403138Y-55512953D01*
X116471665Y-55480762D01*
X116557654Y-55461448D01*
X116661106Y-55455010D01*
X116750006Y-55460368D01*
X116823031Y-55476441D01*
X116927013Y-55532003D01*
X116982575Y-55609791D01*
X116999244Y-55699485D01*
X116982575Y-55817753D01*
X116942094Y-55905860D01*
X117097669Y-55956660D01*
X117116719Y-55924116D01*
X117140531Y-55870935D01*
X117160375Y-55797116D01*
X117169106Y-55702660D01*
X117160573Y-55609593D01*
X117134975Y-55524066D01*
X117092906Y-55447866D01*
X117034963Y-55382778D01*
X116961739Y-55329796D01*
X116873831Y-55289910D01*
X116771834Y-55264907D01*
X116656344Y-55256572D01*
X116540357Y-55263418D01*
X116438459Y-55283957D01*
X116350651Y-55318187D01*
X116276931Y-55366110D01*
X116202848Y-55450071D01*
X116158398Y-55555904D01*
X116143581Y-55683610D01*
X116077435Y-55683610D01*
X116077435Y-55256572D01*
X116077435Y-55190426D01*
X117322565Y-55190426D01*
X117322565Y-55256572D01*
G37*
%TO.C,kibuzzard-6399CBD2*%
G36*
X109227570Y-56370389D02*
G01*
X109298413Y-56399560D01*
X109344252Y-56447780D01*
X109359531Y-56514653D01*
X109344252Y-56583114D01*
X109298413Y-56629747D01*
X109227570Y-56656536D01*
X109137281Y-56665466D01*
X109046794Y-56655743D01*
X108975356Y-56626572D01*
X108928922Y-56578352D01*
X108913444Y-56511478D01*
X108928922Y-56443018D01*
X108975356Y-56396385D01*
X109046794Y-56369596D01*
X109137281Y-56360666D01*
X109227570Y-56370389D01*
G37*
G36*
X109922565Y-55365303D02*
G01*
X109922565Y-58419653D01*
X109922565Y-58485799D01*
X109300000Y-58900842D01*
X108677435Y-58485799D01*
X108677435Y-58419653D01*
X108677435Y-58041828D01*
X108743581Y-58041828D01*
X108749336Y-58133507D01*
X108766600Y-58211691D01*
X108794381Y-58276778D01*
X108831687Y-58329166D01*
X108930906Y-58397428D01*
X109056319Y-58419653D01*
X109136091Y-58409136D01*
X109203956Y-58377585D01*
X109258328Y-58326983D01*
X109297619Y-58259316D01*
X109380169Y-58348216D01*
X109492881Y-58381553D01*
X109602419Y-58362503D01*
X109690525Y-58303766D01*
X109748469Y-58202960D01*
X109763947Y-58136483D01*
X109769106Y-58059291D01*
X109761764Y-57974955D01*
X109739738Y-57899747D01*
X109681794Y-57786241D01*
X109538919Y-57856091D01*
X109584163Y-57950547D01*
X109602419Y-58060878D01*
X109571463Y-58150572D01*
X109486531Y-58183116D01*
X109426206Y-58168035D01*
X109388106Y-58129141D01*
X109367469Y-58075166D01*
X109361119Y-58014841D01*
X109361119Y-57941816D01*
X109199194Y-57941816D01*
X109199194Y-58002141D01*
X109191455Y-58089057D01*
X109168238Y-58159303D01*
X109125573Y-58205738D01*
X109059494Y-58221216D01*
X108953131Y-58180735D01*
X108920984Y-58125371D01*
X108910269Y-58040241D01*
X108914634Y-57965033D01*
X108927731Y-57901335D01*
X108961069Y-57806878D01*
X108797556Y-57768778D01*
X108780094Y-57817991D01*
X108762631Y-57887047D01*
X108749137Y-57964835D01*
X108743581Y-58041828D01*
X108677435Y-58041828D01*
X108677435Y-57432228D01*
X108746756Y-57432228D01*
X108753106Y-57520335D01*
X108768187Y-57586216D01*
X108784856Y-57629872D01*
X108795969Y-57651303D01*
X108953131Y-57625903D01*
X108932494Y-57573516D01*
X108916619Y-57475091D01*
X108943606Y-57398891D01*
X109046794Y-57368728D01*
X109856419Y-57368728D01*
X109856419Y-56967091D01*
X109694494Y-56967091D01*
X109694494Y-57173466D01*
X109061081Y-57173466D01*
X108925548Y-57188944D01*
X108826925Y-57235378D01*
X108766798Y-57315547D01*
X108746756Y-57432228D01*
X108677435Y-57432228D01*
X108677435Y-56514653D01*
X108743581Y-56514653D01*
X108750725Y-56590258D01*
X108772156Y-56658322D01*
X108806684Y-56718052D01*
X108853119Y-56768653D01*
X108910467Y-56809532D01*
X108977738Y-56840091D01*
X109054136Y-56859141D01*
X109138869Y-56865491D01*
X109222411Y-56859141D01*
X109298413Y-56840091D01*
X109365484Y-56809333D01*
X109422238Y-56767860D01*
X109467878Y-56716663D01*
X109501613Y-56656735D01*
X109522448Y-56589068D01*
X109529394Y-56514653D01*
X109522448Y-56441232D01*
X109501613Y-56373366D01*
X109467878Y-56312843D01*
X109422238Y-56261447D01*
X109365484Y-56219775D01*
X109298413Y-56188422D01*
X109222411Y-56168777D01*
X109138869Y-56162228D01*
X109054136Y-56168578D01*
X108977738Y-56187628D01*
X108910467Y-56218386D01*
X108853119Y-56259860D01*
X108806684Y-56311057D01*
X108772156Y-56370985D01*
X108750725Y-56439049D01*
X108743581Y-56514653D01*
X108677435Y-56514653D01*
X108677435Y-55792341D01*
X108743581Y-55792341D01*
X108748939Y-55879058D01*
X108765012Y-55955060D01*
X108811844Y-56066978D01*
X108965831Y-56017766D01*
X108930906Y-55937597D01*
X108913444Y-55811391D01*
X108935867Y-55698083D01*
X109003138Y-55621685D01*
X109071665Y-55589494D01*
X109157654Y-55570179D01*
X109261106Y-55563741D01*
X109350006Y-55569099D01*
X109423031Y-55585172D01*
X109527013Y-55640735D01*
X109582575Y-55718522D01*
X109599244Y-55808216D01*
X109582575Y-55926485D01*
X109542094Y-56014591D01*
X109697669Y-56065391D01*
X109716719Y-56032847D01*
X109740531Y-55979666D01*
X109760375Y-55905847D01*
X109769106Y-55811391D01*
X109760573Y-55718324D01*
X109734975Y-55632797D01*
X109692906Y-55556597D01*
X109634963Y-55491510D01*
X109561739Y-55438527D01*
X109473831Y-55398641D01*
X109371834Y-55373638D01*
X109256344Y-55365303D01*
X109140357Y-55372150D01*
X109038459Y-55392688D01*
X108950651Y-55426918D01*
X108876931Y-55474841D01*
X108802848Y-55558802D01*
X108758398Y-55664635D01*
X108743581Y-55792341D01*
X108677435Y-55792341D01*
X108677435Y-55365303D01*
X108677435Y-55299158D01*
X109922565Y-55299158D01*
X109922565Y-55365303D01*
G37*
%TO.C,J17*%
X98411000Y-54750000D02*
X98411000Y-57119000D01*
X91916000Y-65750000D02*
X94299000Y-65750000D01*
X96750000Y-54750000D02*
X98411000Y-54750000D01*
X98411000Y-65750000D02*
X98411000Y-63381000D01*
X96750000Y-65750000D02*
X98411000Y-65750000D01*
X91916000Y-65750000D02*
X91916000Y-54750000D01*
X91916000Y-54750000D02*
X94299000Y-54750000D01*
X99046000Y-56821000D02*
G75*
G03*
X99046000Y-56821000I-127000J0D01*
G01*
%TO.C,J16*%
X106855000Y-42625000D02*
X106855000Y-44994000D01*
X100360000Y-53625000D02*
X102743000Y-53625000D01*
X105194000Y-42625000D02*
X106855000Y-42625000D01*
X106855000Y-53625000D02*
X106855000Y-51256000D01*
X105194000Y-53625000D02*
X106855000Y-53625000D01*
X100360000Y-53625000D02*
X100360000Y-42625000D01*
X100360000Y-42625000D02*
X102743000Y-42625000D01*
X107490000Y-44696000D02*
G75*
G03*
X107490000Y-44696000I-127000J0D01*
G01*
%TO.C,J15*%
X98411000Y-42650000D02*
X98411000Y-45019000D01*
X91916000Y-53650000D02*
X94299000Y-53650000D01*
X96750000Y-42650000D02*
X98411000Y-42650000D01*
X98411000Y-53650000D02*
X98411000Y-51281000D01*
X96750000Y-53650000D02*
X98411000Y-53650000D01*
X91916000Y-53650000D02*
X91916000Y-42650000D01*
X91916000Y-42650000D02*
X94299000Y-42650000D01*
X99046000Y-44721000D02*
G75*
G03*
X99046000Y-44721000I-127000J0D01*
G01*
%TO.C,J14*%
X106755000Y-59800000D02*
X106755000Y-62169000D01*
X100260000Y-70800000D02*
X102643000Y-70800000D01*
X105094000Y-59800000D02*
X106755000Y-59800000D01*
X106755000Y-70800000D02*
X106755000Y-68431000D01*
X105094000Y-70800000D02*
X106755000Y-70800000D01*
X100260000Y-70800000D02*
X100260000Y-59800000D01*
X100260000Y-59800000D02*
X102643000Y-59800000D01*
X107390000Y-61871000D02*
G75*
G03*
X107390000Y-61871000I-127000J0D01*
G01*
%TO.C,J13*%
X114362000Y-59800000D02*
X114362000Y-62169000D01*
X107867000Y-70800000D02*
X110250000Y-70800000D01*
X112701000Y-59800000D02*
X114362000Y-59800000D01*
X114362000Y-70800000D02*
X114362000Y-68431000D01*
X112701000Y-70800000D02*
X114362000Y-70800000D01*
X107867000Y-70800000D02*
X107867000Y-59800000D01*
X107867000Y-59800000D02*
X110250000Y-59800000D01*
X114997000Y-61871000D02*
G75*
G03*
X114997000Y-61871000I-127000J0D01*
G01*
%TO.C,J12*%
X122330000Y-59800000D02*
X122330000Y-62169000D01*
X115835000Y-70800000D02*
X118218000Y-70800000D01*
X120669000Y-59800000D02*
X122330000Y-59800000D01*
X122330000Y-70800000D02*
X122330000Y-68431000D01*
X120669000Y-70800000D02*
X122330000Y-70800000D01*
X115835000Y-70800000D02*
X115835000Y-59800000D01*
X115835000Y-59800000D02*
X118218000Y-59800000D01*
X122965000Y-61871000D02*
G75*
G03*
X122965000Y-61871000I-127000J0D01*
G01*
%TO.C,kibuzzard-6399DE15*%
G36*
X139586406Y-59893994D02*
G01*
X139651493Y-59967812D01*
X139684831Y-60074175D01*
X139694356Y-60198000D01*
X139691379Y-60268048D01*
X139682449Y-60332144D01*
X139642762Y-60437712D01*
X139569737Y-60507562D01*
X139457818Y-60532962D01*
X139440356Y-60532962D01*
X139422893Y-60531375D01*
X139422893Y-59870975D01*
X139451468Y-59867006D01*
X139480043Y-59866212D01*
X139586406Y-59893994D01*
G37*
G36*
X140344878Y-60198000D02*
G01*
X139958939Y-60776908D01*
X139892793Y-60776908D01*
X139437181Y-60776908D01*
X138911718Y-60776908D01*
X137998906Y-60776908D01*
X137597268Y-60776908D01*
X137531122Y-60776908D01*
X137531122Y-60198000D01*
X137597268Y-60198000D01*
X137604412Y-60317261D01*
X137625843Y-60421044D01*
X137660371Y-60509150D01*
X137706806Y-60581381D01*
X137764551Y-60637737D01*
X137833012Y-60678219D01*
X137911395Y-60702627D01*
X137998906Y-60710762D01*
X138095941Y-60706794D01*
X138177499Y-60694887D01*
X138286243Y-60666312D01*
X138286243Y-60175775D01*
X138090981Y-60175775D01*
X138090981Y-60534550D01*
X138052881Y-60539312D01*
X138014781Y-60540900D01*
X137919927Y-60520064D01*
X137851268Y-60457556D01*
X137820400Y-60391675D01*
X137801879Y-60305156D01*
X137795706Y-60198000D01*
X137799079Y-60125173D01*
X137809199Y-60059094D01*
X137853649Y-59951144D01*
X137932231Y-59880500D01*
X138049706Y-59855100D01*
X138154481Y-59872562D01*
X138240206Y-59912250D01*
X138291006Y-59756675D01*
X138258462Y-59737625D01*
X138203693Y-59713812D01*
X138178546Y-59707462D01*
X138421181Y-59707462D01*
X138421181Y-60690125D01*
X138597393Y-60690125D01*
X138597393Y-60037662D01*
X138656395Y-60146583D01*
X138712751Y-60255326D01*
X138766462Y-60363894D01*
X138817526Y-60472461D01*
X138865945Y-60581205D01*
X138911718Y-60690125D01*
X139068881Y-60690125D01*
X139068881Y-60679012D01*
X139227631Y-60679012D01*
X139334787Y-60697269D01*
X139437181Y-60702825D01*
X139533026Y-60695880D01*
X139620537Y-60675044D01*
X139698126Y-60639127D01*
X139764206Y-60586937D01*
X139817982Y-60517683D01*
X139858662Y-60430569D01*
X139884260Y-60324405D01*
X139892793Y-60198000D01*
X139885054Y-60074373D01*
X139861837Y-59970194D01*
X139824729Y-59884072D01*
X139775318Y-59814619D01*
X139713604Y-59761636D01*
X139639587Y-59724925D01*
X139555251Y-59703494D01*
X139462581Y-59696350D01*
X139353043Y-59701112D01*
X139227631Y-59720162D01*
X139227631Y-60679012D01*
X139068881Y-60679012D01*
X139068881Y-59707462D01*
X138892668Y-59707462D01*
X138892668Y-60312300D01*
X138864688Y-60250387D01*
X138831549Y-60178950D01*
X138794243Y-60101559D01*
X138753762Y-60021787D01*
X138711098Y-59940627D01*
X138667243Y-59859069D01*
X138622793Y-59780289D01*
X138578343Y-59707462D01*
X138421181Y-59707462D01*
X138178546Y-59707462D01*
X138125112Y-59693969D01*
X138022718Y-59685237D01*
X137936596Y-59693373D01*
X137856031Y-59717781D01*
X137783402Y-59758461D01*
X137721093Y-59815412D01*
X137669896Y-59888239D01*
X137630606Y-59976544D01*
X137605602Y-60079930D01*
X137597268Y-60198000D01*
X137531122Y-60198000D01*
X137531122Y-59619092D01*
X137597268Y-59619092D01*
X139892793Y-59619092D01*
X139958939Y-59619092D01*
X140344878Y-60198000D01*
G37*
D12*
%TO.C,J10*%
X140926000Y-57106000D02*
X141986000Y-57106000D01*
X140926000Y-58166000D02*
X140926000Y-57106000D01*
X140926000Y-59166000D02*
X140926000Y-63226000D01*
X140926000Y-59166000D02*
X143046000Y-59166000D01*
X140926000Y-63226000D02*
X143046000Y-63226000D01*
X143046000Y-59166000D02*
X143046000Y-63226000D01*
D10*
%TO.C,SW17*%
X116854000Y-41670000D02*
X108254000Y-41670000D01*
X116854000Y-37070000D02*
X114654000Y-37070000D01*
X110554000Y-37070000D02*
X108254000Y-37070000D01*
D12*
%TO.C,J6*%
X132068000Y-68370000D02*
X132068000Y-67310000D01*
X133128000Y-68370000D02*
X132068000Y-68370000D01*
X134128000Y-68370000D02*
X138188000Y-68370000D01*
X134128000Y-68370000D02*
X134128000Y-66250000D01*
X138188000Y-68370000D02*
X138188000Y-66250000D01*
X134128000Y-66250000D02*
X138188000Y-66250000D01*
%TO.C,kibuzzard-6399CBDB*%
G36*
X98493669Y-67410172D02*
G01*
X98403181Y-67362547D01*
X98311900Y-67306190D01*
X98225381Y-67246659D01*
X98147594Y-67187922D01*
X98493669Y-67187922D01*
X98493669Y-67410172D01*
G37*
G36*
X98603206Y-68688307D02*
G01*
X98674644Y-68717478D01*
X98721078Y-68765698D01*
X98736556Y-68832572D01*
X98721078Y-68901032D01*
X98674644Y-68947665D01*
X98603206Y-68974454D01*
X98512719Y-68983384D01*
X98422430Y-68973661D01*
X98351587Y-68944490D01*
X98305748Y-68896270D01*
X98290469Y-68829397D01*
X98305748Y-68760936D01*
X98351587Y-68714303D01*
X98422430Y-68687514D01*
X98512719Y-68678584D01*
X98603206Y-68688307D01*
G37*
G36*
X98972565Y-67911822D02*
G01*
X98972565Y-68829397D01*
X98972565Y-69551709D01*
X98972565Y-69978747D01*
X98972565Y-70044892D01*
X97727435Y-70044892D01*
X97727435Y-69978747D01*
X97727435Y-69532659D01*
X97880894Y-69532659D01*
X97889427Y-69625726D01*
X97915025Y-69711253D01*
X97957094Y-69787453D01*
X98015037Y-69852540D01*
X98088261Y-69905523D01*
X98176169Y-69945409D01*
X98278166Y-69970412D01*
X98393656Y-69978747D01*
X98509643Y-69971900D01*
X98611541Y-69951362D01*
X98699349Y-69917132D01*
X98773069Y-69869209D01*
X98847152Y-69785248D01*
X98891602Y-69679415D01*
X98906419Y-69551709D01*
X98901061Y-69464992D01*
X98884988Y-69388990D01*
X98838156Y-69277072D01*
X98684169Y-69326284D01*
X98719094Y-69406453D01*
X98736556Y-69532659D01*
X98714133Y-69645967D01*
X98646862Y-69722365D01*
X98578335Y-69754556D01*
X98492346Y-69773871D01*
X98388894Y-69780309D01*
X98299994Y-69774951D01*
X98226969Y-69758878D01*
X98122987Y-69703315D01*
X98067425Y-69625528D01*
X98050756Y-69535834D01*
X98067425Y-69417565D01*
X98107906Y-69329459D01*
X97952331Y-69278659D01*
X97933281Y-69311203D01*
X97909469Y-69364384D01*
X97889625Y-69438203D01*
X97880894Y-69532659D01*
X97727435Y-69532659D01*
X97727435Y-68829397D01*
X98120606Y-68829397D01*
X98127552Y-68902818D01*
X98148387Y-68970684D01*
X98182122Y-69031207D01*
X98227762Y-69082603D01*
X98284516Y-69124275D01*
X98351587Y-69155628D01*
X98427589Y-69175273D01*
X98511131Y-69181822D01*
X98595864Y-69175472D01*
X98672262Y-69156422D01*
X98739533Y-69125664D01*
X98796881Y-69084190D01*
X98843316Y-69032993D01*
X98877844Y-68973065D01*
X98899275Y-68905001D01*
X98906419Y-68829397D01*
X98899275Y-68753792D01*
X98877844Y-68685728D01*
X98843316Y-68625998D01*
X98796881Y-68575397D01*
X98739533Y-68534518D01*
X98672262Y-68503959D01*
X98595864Y-68484909D01*
X98511131Y-68478559D01*
X98427589Y-68484909D01*
X98351587Y-68503959D01*
X98284516Y-68534717D01*
X98227762Y-68576190D01*
X98182122Y-68627387D01*
X98148387Y-68687315D01*
X98127552Y-68754982D01*
X98120606Y-68829397D01*
X97727435Y-68829397D01*
X97727435Y-68376959D01*
X97793581Y-68376959D01*
X97955506Y-68376959D01*
X97955506Y-68170584D01*
X98588919Y-68170584D01*
X98724452Y-68155106D01*
X98823075Y-68108672D01*
X98883202Y-68028503D01*
X98903244Y-67911822D01*
X98896894Y-67823715D01*
X98881813Y-67757834D01*
X98865144Y-67714178D01*
X98854031Y-67692747D01*
X98696869Y-67718147D01*
X98717506Y-67770534D01*
X98733381Y-67868959D01*
X98706394Y-67945159D01*
X98603206Y-67975322D01*
X97793581Y-67975322D01*
X97793581Y-68376959D01*
X97727435Y-68376959D01*
X97727435Y-67167284D01*
X97903119Y-67167284D01*
X97970786Y-67230784D01*
X98046787Y-67294284D01*
X98127552Y-67356197D01*
X98209506Y-67414934D01*
X98291064Y-67469703D01*
X98370637Y-67519709D01*
X98445052Y-67562968D01*
X98511131Y-67597497D01*
X98654006Y-67597497D01*
X98654006Y-67187922D01*
X98885781Y-67187922D01*
X98885781Y-66992659D01*
X98654006Y-66992659D01*
X98654006Y-66886297D01*
X98493669Y-66886297D01*
X98493669Y-66992659D01*
X97903119Y-66992659D01*
X97903119Y-67167284D01*
X97727435Y-67167284D01*
X97727435Y-66886297D01*
X97727435Y-66820151D01*
X98350000Y-66405108D01*
X98972565Y-66820151D01*
X98972565Y-66886297D01*
X98972565Y-66992659D01*
X98972565Y-67911822D01*
G37*
%TO.C,kibuzzard-6399DE28*%
G36*
X139949855Y-58166000D02*
G01*
X139571324Y-58733796D01*
X139505178Y-58733796D01*
X139025753Y-58733796D01*
X138257403Y-58733796D01*
X137992291Y-58733796D01*
X137926145Y-58733796D01*
X137926145Y-58616850D01*
X137992291Y-58616850D01*
X138037535Y-58634313D01*
X138103416Y-58650981D01*
X138179616Y-58662888D01*
X138257403Y-58667650D01*
X138348288Y-58661697D01*
X138427266Y-58643838D01*
X138494338Y-58615263D01*
X138549503Y-58577163D01*
X138622528Y-58476356D01*
X138646341Y-58350150D01*
X138635581Y-58258075D01*
X138603302Y-58180817D01*
X138549503Y-58118375D01*
X138473833Y-58071103D01*
X138375937Y-58039353D01*
X138255816Y-58023125D01*
X138263753Y-57932638D01*
X138271691Y-57826275D01*
X138609828Y-57826275D01*
X138609828Y-57664350D01*
X138751116Y-57664350D01*
X138769372Y-57753250D01*
X138795566Y-57864375D01*
X138816556Y-57947542D01*
X138839310Y-58034061D01*
X138863828Y-58123931D01*
X138889758Y-58215565D01*
X138916745Y-58307376D01*
X138944791Y-58399363D01*
X138986463Y-58530331D01*
X139025753Y-58647013D01*
X139227366Y-58647013D01*
X139257705Y-58562434D01*
X139287338Y-58475915D01*
X139316266Y-58387456D01*
X139344047Y-58298556D01*
X139370241Y-58210715D01*
X139394847Y-58123931D01*
X139428582Y-57997527D01*
X139458347Y-57877075D01*
X139483946Y-57765156D01*
X139505178Y-57664350D01*
X139300391Y-57664350D01*
X139286103Y-57746900D01*
X139268641Y-57842150D01*
X139248797Y-57945139D01*
X139227366Y-58050906D01*
X139204347Y-58157269D01*
X139179741Y-58262044D01*
X139154341Y-58360270D01*
X139128941Y-58446988D01*
X139103343Y-58359080D01*
X139077347Y-58260456D01*
X139051947Y-58155681D01*
X139028135Y-58049319D01*
X139006108Y-57943750D01*
X138986066Y-57841356D01*
X138969397Y-57746702D01*
X138957491Y-57664350D01*
X138751116Y-57664350D01*
X138609828Y-57664350D01*
X138108178Y-57664350D01*
X138102225Y-57785595D01*
X138093891Y-57911206D01*
X138082778Y-58040389D01*
X138068491Y-58172350D01*
X138177632Y-58175723D01*
X138263753Y-58185844D01*
X138378847Y-58223944D01*
X138432822Y-58282681D01*
X138446316Y-58358088D01*
X138438378Y-58410475D01*
X138409010Y-58455719D01*
X138350272Y-58488263D01*
X138255816Y-58500963D01*
X138181600Y-58497391D01*
X138120878Y-58486675D01*
X138031978Y-58454925D01*
X137992291Y-58616850D01*
X137926145Y-58616850D01*
X137926145Y-57598204D01*
X137992291Y-57598204D01*
X139505178Y-57598204D01*
X139571324Y-57598204D01*
X139949855Y-58166000D01*
G37*
%TO.C,kibuzzard-6399DE00*%
G36*
X140316303Y-62230000D02*
G01*
X139930364Y-62808908D01*
X139864218Y-62808908D01*
X139486393Y-62808908D01*
X138649781Y-62808908D01*
X137898893Y-62808908D01*
X137625843Y-62808908D01*
X137559697Y-62808908D01*
X137559697Y-62688787D01*
X137625843Y-62688787D01*
X137675056Y-62706250D01*
X137744112Y-62723712D01*
X137821899Y-62737206D01*
X137898893Y-62742762D01*
X137990571Y-62737008D01*
X138068756Y-62719744D01*
X138133843Y-62691962D01*
X138186231Y-62654656D01*
X138254493Y-62555437D01*
X138276718Y-62430025D01*
X138266201Y-62350253D01*
X138234649Y-62282387D01*
X138184048Y-62228016D01*
X138116381Y-62188725D01*
X138205281Y-62106175D01*
X138238618Y-61993462D01*
X138219568Y-61883925D01*
X138160831Y-61795819D01*
X138062785Y-61739462D01*
X138375143Y-61739462D01*
X138393399Y-61828362D01*
X138419593Y-61939487D01*
X138440583Y-62022655D01*
X138463338Y-62109174D01*
X138487856Y-62199044D01*
X138513785Y-62290678D01*
X138540772Y-62382488D01*
X138568818Y-62474475D01*
X138610490Y-62605444D01*
X138649781Y-62722125D01*
X138851393Y-62722125D01*
X138863352Y-62688787D01*
X139213343Y-62688787D01*
X139262556Y-62706250D01*
X139331612Y-62723712D01*
X139409399Y-62737206D01*
X139486393Y-62742762D01*
X139578071Y-62737008D01*
X139656256Y-62719744D01*
X139721343Y-62691962D01*
X139773731Y-62654656D01*
X139841993Y-62555437D01*
X139864218Y-62430025D01*
X139853701Y-62350253D01*
X139822149Y-62282387D01*
X139771548Y-62228016D01*
X139703881Y-62188725D01*
X139792781Y-62106175D01*
X139826118Y-61993462D01*
X139807068Y-61883925D01*
X139748331Y-61795819D01*
X139647524Y-61737875D01*
X139581048Y-61722397D01*
X139503856Y-61717237D01*
X139419520Y-61724580D01*
X139344312Y-61746606D01*
X139230806Y-61804550D01*
X139300656Y-61947425D01*
X139395112Y-61902181D01*
X139505443Y-61883925D01*
X139595137Y-61914881D01*
X139627681Y-61999812D01*
X139612599Y-62060137D01*
X139573706Y-62098237D01*
X139519731Y-62118875D01*
X139459406Y-62125225D01*
X139386381Y-62125225D01*
X139386381Y-62287150D01*
X139446706Y-62287150D01*
X139533621Y-62294889D01*
X139603868Y-62318106D01*
X139650302Y-62360770D01*
X139665781Y-62426850D01*
X139625299Y-62533212D01*
X139569935Y-62565359D01*
X139484806Y-62576075D01*
X139409598Y-62571709D01*
X139345899Y-62558612D01*
X139251443Y-62525275D01*
X139213343Y-62688787D01*
X138863352Y-62688787D01*
X138881732Y-62637547D01*
X138911365Y-62551028D01*
X138940293Y-62462569D01*
X138968074Y-62373669D01*
X138994268Y-62285827D01*
X139018874Y-62199044D01*
X139052609Y-62072639D01*
X139082374Y-61952187D01*
X139107973Y-61840269D01*
X139129206Y-61739462D01*
X138924418Y-61739462D01*
X138910131Y-61822012D01*
X138892668Y-61917262D01*
X138872824Y-62020252D01*
X138851393Y-62126019D01*
X138828374Y-62232381D01*
X138803768Y-62337156D01*
X138778368Y-62435383D01*
X138752968Y-62522100D01*
X138727370Y-62434192D01*
X138701374Y-62335569D01*
X138675974Y-62230794D01*
X138652162Y-62124431D01*
X138630135Y-62018862D01*
X138610093Y-61916469D01*
X138593424Y-61821814D01*
X138581518Y-61739462D01*
X138375143Y-61739462D01*
X138062785Y-61739462D01*
X138060024Y-61737875D01*
X137993548Y-61722397D01*
X137916356Y-61717237D01*
X137832020Y-61724580D01*
X137756812Y-61746606D01*
X137643306Y-61804550D01*
X137713156Y-61947425D01*
X137807612Y-61902181D01*
X137917943Y-61883925D01*
X138007637Y-61914881D01*
X138040181Y-61999812D01*
X138025099Y-62060137D01*
X137986206Y-62098237D01*
X137932231Y-62118875D01*
X137871906Y-62125225D01*
X137798881Y-62125225D01*
X137798881Y-62287150D01*
X137859206Y-62287150D01*
X137946121Y-62294889D01*
X138016368Y-62318106D01*
X138062802Y-62360770D01*
X138078281Y-62426850D01*
X138037799Y-62533212D01*
X137982435Y-62565359D01*
X137897306Y-62576075D01*
X137822098Y-62571709D01*
X137758399Y-62558612D01*
X137663943Y-62525275D01*
X137625843Y-62688787D01*
X137559697Y-62688787D01*
X137559697Y-61651092D01*
X137625843Y-61651092D01*
X139864218Y-61651092D01*
X139930364Y-61651092D01*
X140316303Y-62230000D01*
G37*
%TO.C,kibuzzard-6399C9C8*%
G36*
X135460581Y-63831699D02*
G01*
X135461375Y-63860274D01*
X135433594Y-63966637D01*
X135359775Y-64031724D01*
X135253412Y-64065062D01*
X135129588Y-64074587D01*
X135059539Y-64071610D01*
X134995444Y-64062681D01*
X134889875Y-64022993D01*
X134820025Y-63949968D01*
X134794625Y-63838049D01*
X134794625Y-63820587D01*
X134796212Y-63803124D01*
X135456613Y-63803124D01*
X135460581Y-63831699D01*
G37*
G36*
X135697383Y-63607862D02*
G01*
X135697383Y-65044549D01*
X135697383Y-65110695D01*
X135128000Y-65490284D01*
X134558617Y-65110695D01*
X134558617Y-65044549D01*
X134637462Y-65044549D01*
X134799387Y-65044549D01*
X134799387Y-64849287D01*
X135620125Y-64849287D01*
X135620125Y-64715937D01*
X135558213Y-64647674D01*
X135501063Y-64563537D01*
X135451850Y-64474637D01*
X135415337Y-64392087D01*
X135253412Y-64455587D01*
X135292306Y-64552424D01*
X135348663Y-64654024D01*
X134799387Y-64654024D01*
X134799387Y-64447649D01*
X134637462Y-64447649D01*
X134637462Y-65044549D01*
X134558617Y-65044549D01*
X134558617Y-63817412D01*
X134624762Y-63817412D01*
X134631708Y-63913257D01*
X134652544Y-64000768D01*
X134688461Y-64078357D01*
X134740650Y-64144437D01*
X134809905Y-64198213D01*
X134897019Y-64238893D01*
X135003183Y-64264491D01*
X135129588Y-64273024D01*
X135253214Y-64265285D01*
X135357394Y-64242068D01*
X135443516Y-64204960D01*
X135512969Y-64155549D01*
X135565952Y-64093835D01*
X135602663Y-64019818D01*
X135624094Y-63935482D01*
X135631238Y-63842812D01*
X135626475Y-63733274D01*
X135607425Y-63607862D01*
X134648575Y-63607862D01*
X134630319Y-63715018D01*
X134624762Y-63817412D01*
X134558617Y-63817412D01*
X134558617Y-63607862D01*
X134558617Y-63541716D01*
X135697383Y-63541716D01*
X135697383Y-63607862D01*
G37*
D10*
%TO.C,SW16*%
X99160000Y-37366000D02*
X99160000Y-37616000D01*
X99160000Y-37366000D02*
X105160000Y-37366000D01*
X99160000Y-40866000D02*
X99160000Y-40616000D01*
X99160000Y-40866000D02*
X105160000Y-40866000D01*
X105160000Y-37366000D02*
X105160000Y-37616000D01*
X105160000Y-40866000D02*
X105160000Y-40616000D01*
%TO.C,kibuzzard-6399C9D6*%
G36*
X137487025Y-63827466D02*
G01*
X137487819Y-63856041D01*
X137460037Y-63962403D01*
X137386219Y-64027491D01*
X137279856Y-64060828D01*
X137156031Y-64070353D01*
X137085983Y-64067377D01*
X137021887Y-64058447D01*
X136916319Y-64018760D01*
X136846469Y-63945735D01*
X136821069Y-63833816D01*
X136821069Y-63816353D01*
X136822656Y-63798891D01*
X137483056Y-63798891D01*
X137487025Y-63827466D01*
G37*
G36*
X137734940Y-63603628D02*
G01*
X137734940Y-65045078D01*
X137734940Y-65111224D01*
X137160000Y-65494517D01*
X136585060Y-65111224D01*
X136585060Y-65045078D01*
X136663906Y-65045078D01*
X136825831Y-65045078D01*
X136825831Y-64622803D01*
X136878219Y-64639472D01*
X136934575Y-64679953D01*
X136988550Y-64730753D01*
X137033794Y-64778378D01*
X137113169Y-64859341D01*
X137198894Y-64930778D01*
X137290175Y-64981578D01*
X137387806Y-65000628D01*
X137510838Y-64975228D01*
X137598944Y-64906966D01*
X137651331Y-64808541D01*
X137668794Y-64692653D01*
X137660856Y-64609905D01*
X137637044Y-64526760D01*
X137596563Y-64448377D01*
X137538619Y-64379916D01*
X137402094Y-64476753D01*
X137476706Y-64576766D01*
X137498931Y-64673603D01*
X137466388Y-64765678D01*
X137373519Y-64802191D01*
X137289381Y-64772822D01*
X137203656Y-64698210D01*
X137158214Y-64651378D01*
X137110788Y-64601372D01*
X137060384Y-64551366D01*
X137006013Y-64504535D01*
X136947077Y-64463260D01*
X136882981Y-64429922D01*
X136813131Y-64407896D01*
X136736931Y-64400553D01*
X136703594Y-64399760D01*
X136663906Y-64403728D01*
X136663906Y-65045078D01*
X136585060Y-65045078D01*
X136585060Y-63813178D01*
X136651206Y-63813178D01*
X136658152Y-63909024D01*
X136678988Y-63996535D01*
X136714905Y-64074124D01*
X136767094Y-64140203D01*
X136836348Y-64193980D01*
X136923462Y-64234660D01*
X137029627Y-64260258D01*
X137156031Y-64268791D01*
X137279658Y-64261052D01*
X137383838Y-64237835D01*
X137469959Y-64200727D01*
X137539413Y-64151316D01*
X137592395Y-64089602D01*
X137629106Y-64015585D01*
X137650538Y-63931249D01*
X137657681Y-63838578D01*
X137652919Y-63729041D01*
X137633869Y-63603628D01*
X136675019Y-63603628D01*
X136656762Y-63710785D01*
X136651206Y-63813178D01*
X136585060Y-63813178D01*
X136585060Y-63603628D01*
X136585060Y-63537483D01*
X137734940Y-63537483D01*
X137734940Y-63603628D01*
G37*
%TO.C,kibuzzard-6399C9B4*%
G36*
X133426994Y-63823762D02*
G01*
X133427788Y-63852337D01*
X133400006Y-63958699D01*
X133326188Y-64023787D01*
X133219825Y-64057124D01*
X133096000Y-64066649D01*
X133025952Y-64063673D01*
X132961856Y-64054743D01*
X132856288Y-64015056D01*
X132786438Y-63942031D01*
X132761038Y-63830112D01*
X132761038Y-63812649D01*
X132762625Y-63795187D01*
X133423025Y-63795187D01*
X133426994Y-63823762D01*
G37*
G36*
X133200863Y-64544487D02*
G01*
X133286324Y-64558774D01*
X133353969Y-64582587D01*
X133420048Y-64634577D01*
X133442075Y-64704824D01*
X133420048Y-64776063D01*
X133353969Y-64827856D01*
X133286324Y-64851227D01*
X133200863Y-64865250D01*
X133097588Y-64869924D01*
X132993430Y-64865250D01*
X132907440Y-64851227D01*
X132839619Y-64827856D01*
X132773539Y-64776063D01*
X132752003Y-64706412D01*
X133008688Y-64706412D01*
X133039644Y-64769118D01*
X133113463Y-64793724D01*
X133188075Y-64769118D01*
X133219825Y-64706412D01*
X133188075Y-64641324D01*
X133113463Y-64617512D01*
X133039644Y-64641324D01*
X133008688Y-64706412D01*
X132752003Y-64706412D01*
X132751513Y-64704824D01*
X132773539Y-64634577D01*
X132839619Y-64582587D01*
X132907440Y-64558774D01*
X132993430Y-64544487D01*
X133097588Y-64539724D01*
X133200863Y-64544487D01*
G37*
G36*
X133674908Y-63599924D02*
G01*
X133674908Y-65046137D01*
X133674908Y-65112283D01*
X133096000Y-65498222D01*
X132517092Y-65112283D01*
X132517092Y-65046137D01*
X132517092Y-64704824D01*
X132583238Y-64704824D01*
X132597349Y-64807130D01*
X132639682Y-64891797D01*
X132710238Y-64958824D01*
X132782072Y-64997024D01*
X132870575Y-65024309D01*
X132975747Y-65040680D01*
X133097588Y-65046137D01*
X133218684Y-65040680D01*
X133323211Y-65024309D01*
X133411168Y-64997024D01*
X133482556Y-64958824D01*
X133552671Y-64891797D01*
X133594740Y-64807130D01*
X133608763Y-64704824D01*
X133594651Y-64604106D01*
X133552318Y-64519969D01*
X133481763Y-64452412D01*
X133410127Y-64413518D01*
X133322219Y-64385737D01*
X133218039Y-64369068D01*
X133097588Y-64363512D01*
X132975747Y-64368969D01*
X132870575Y-64385340D01*
X132782072Y-64412625D01*
X132710238Y-64450824D01*
X132639682Y-64517852D01*
X132597349Y-64602519D01*
X132583238Y-64704824D01*
X132517092Y-64704824D01*
X132517092Y-63809474D01*
X132591175Y-63809474D01*
X132598120Y-63905320D01*
X132618956Y-63992831D01*
X132654873Y-64070420D01*
X132707063Y-64136499D01*
X132776317Y-64190276D01*
X132863431Y-64230956D01*
X132969595Y-64256554D01*
X133096000Y-64265087D01*
X133219627Y-64257348D01*
X133323806Y-64234131D01*
X133409928Y-64197023D01*
X133479381Y-64147612D01*
X133532364Y-64085898D01*
X133569075Y-64011881D01*
X133590506Y-63927545D01*
X133597650Y-63834874D01*
X133592888Y-63725337D01*
X133573838Y-63599924D01*
X132614988Y-63599924D01*
X132596731Y-63707081D01*
X132591175Y-63809474D01*
X132517092Y-63809474D01*
X132517092Y-63599924D01*
X132517092Y-63533778D01*
X133674908Y-63533778D01*
X133674908Y-63599924D01*
G37*
%TD*%
D13*
%TO.C,SW16*%
X105410000Y-39116000D03*
X98910000Y-39116000D03*
%TD*%
D14*
%TO.C,J7*%
X114522000Y-47752000D03*
X112522000Y-47752000D03*
X110522000Y-47752000D03*
%TD*%
%LPC*%
D15*
%TO.C,J11*%
X130293000Y-62550000D03*
X130293000Y-63050000D03*
X130293000Y-63550000D03*
X130293000Y-64050000D03*
X130293000Y-64550000D03*
X130293000Y-65050000D03*
X130293000Y-65550000D03*
X130293000Y-66050000D03*
X130293000Y-66550000D03*
X130293000Y-67050000D03*
X130293000Y-67550000D03*
X130293000Y-68050000D03*
D16*
X127569000Y-69850000D03*
X127569000Y-60750000D03*
%TD*%
D15*
%TO.C,J17*%
X98249000Y-57500000D03*
X98249000Y-58000000D03*
X98249000Y-58500000D03*
X98249000Y-59000000D03*
X98249000Y-59500000D03*
X98249000Y-60000000D03*
X98249000Y-60500000D03*
X98249000Y-61000000D03*
X98249000Y-61500000D03*
X98249000Y-62000000D03*
X98249000Y-62500000D03*
X98249000Y-63000000D03*
D16*
X95525000Y-64800000D03*
X95525000Y-55700000D03*
%TD*%
D15*
%TO.C,J16*%
X106693000Y-45375000D03*
X106693000Y-45875000D03*
X106693000Y-46375000D03*
X106693000Y-46875000D03*
X106693000Y-47375000D03*
X106693000Y-47875000D03*
X106693000Y-48375000D03*
X106693000Y-48875000D03*
X106693000Y-49375000D03*
X106693000Y-49875000D03*
X106693000Y-50375000D03*
X106693000Y-50875000D03*
D16*
X103969000Y-52675000D03*
X103969000Y-43575000D03*
%TD*%
D15*
%TO.C,J15*%
X98249000Y-45400000D03*
X98249000Y-45900000D03*
X98249000Y-46400000D03*
X98249000Y-46900000D03*
X98249000Y-47400000D03*
X98249000Y-47900000D03*
X98249000Y-48400000D03*
X98249000Y-48900000D03*
X98249000Y-49400000D03*
X98249000Y-49900000D03*
X98249000Y-50400000D03*
X98249000Y-50900000D03*
D16*
X95525000Y-52700000D03*
X95525000Y-43600000D03*
%TD*%
D15*
%TO.C,J14*%
X106593000Y-62550000D03*
X106593000Y-63050000D03*
X106593000Y-63550000D03*
X106593000Y-64050000D03*
X106593000Y-64550000D03*
X106593000Y-65050000D03*
X106593000Y-65550000D03*
X106593000Y-66050000D03*
X106593000Y-66550000D03*
X106593000Y-67050000D03*
X106593000Y-67550000D03*
X106593000Y-68050000D03*
D16*
X103869000Y-69850000D03*
X103869000Y-60750000D03*
%TD*%
D15*
%TO.C,J13*%
X114200000Y-62550000D03*
X114200000Y-63050000D03*
X114200000Y-63550000D03*
X114200000Y-64050000D03*
X114200000Y-64550000D03*
X114200000Y-65050000D03*
X114200000Y-65550000D03*
X114200000Y-66050000D03*
X114200000Y-66550000D03*
X114200000Y-67050000D03*
X114200000Y-67550000D03*
X114200000Y-68050000D03*
D16*
X111476000Y-69850000D03*
X111476000Y-60750000D03*
%TD*%
D15*
%TO.C,J12*%
X122168000Y-62550000D03*
X122168000Y-63050000D03*
X122168000Y-63550000D03*
X122168000Y-64050000D03*
X122168000Y-64550000D03*
X122168000Y-65050000D03*
X122168000Y-65550000D03*
X122168000Y-66050000D03*
X122168000Y-66550000D03*
X122168000Y-67050000D03*
X122168000Y-67550000D03*
X122168000Y-68050000D03*
D16*
X119444000Y-69850000D03*
X119444000Y-60750000D03*
%TD*%
D17*
%TO.C,H4*%
X141732000Y-68580000D03*
%TD*%
%TO.C,H3*%
X94488000Y-38100000D03*
%TD*%
D18*
%TO.C,J10*%
X141986000Y-58166000D03*
D19*
X141986000Y-60166000D03*
X141986000Y-62166000D03*
%TD*%
D20*
%TO.C,SW17*%
X116654000Y-39370000D03*
X108454000Y-39370000D03*
D21*
X114554000Y-39370000D03*
D22*
X112554000Y-39370000D03*
X110554000Y-39370000D03*
%TD*%
D18*
%TO.C,J6*%
X133128000Y-67310000D03*
D19*
X135128000Y-67310000D03*
X137128000Y-67310000D03*
%TD*%
D13*
%TO.C,SW16*%
X105410000Y-39116000D03*
X98910000Y-39116000D03*
%TD*%
D14*
%TO.C,J7*%
X114522000Y-47752000D03*
X112522000Y-47752000D03*
X110522000Y-47752000D03*
%TD*%
D17*
%TO.C,H1*%
X94488000Y-68580000D03*
%TD*%
D13*
%TO.C,U1*%
X122428000Y-38606910D03*
X122428000Y-41142364D03*
X122428000Y-43678377D03*
D23*
X124708000Y-38676910D03*
X124708000Y-41216910D03*
X124708000Y-43756910D03*
D24*
X135383000Y-38676910D03*
X135383000Y-41216910D03*
X135383000Y-43756910D03*
D13*
X137668000Y-38609090D03*
X137668000Y-41149090D03*
X137668000Y-43689090D03*
D25*
X126158000Y-38676910D03*
X126158000Y-41216910D03*
X126158000Y-43756910D03*
D13*
X122428000Y-46226910D03*
X122428000Y-48765032D03*
X122428000Y-51304474D03*
X122428000Y-53839229D03*
X137668000Y-53849090D03*
X137668000Y-51309090D03*
X137668000Y-48769090D03*
X137668000Y-46229090D03*
D26*
X133933000Y-43756910D03*
X133933000Y-41216910D03*
X133933000Y-38676910D03*
D13*
X128856803Y-40462723D03*
X131396803Y-40462723D03*
X125598000Y-45926910D03*
X134498000Y-45926910D03*
%TD*%
D17*
%TO.C,H2*%
X141732000Y-38100000D03*
%TD*%
%LPD*%
M02*
