%TF.GenerationSoftware,KiCad,Pcbnew,7.0.2*%
%TF.CreationDate,2024-09-11T13:33:12+02:00*%
%TF.ProjectId,mcu_holder,6d63755f-686f-46c6-9465-722e6b696361,rev?*%
%TF.SameCoordinates,Original*%
%TF.FileFunction,Soldermask,Top*%
%TF.FilePolarity,Negative*%
%FSLAX46Y46*%
G04 Gerber Fmt 4.6, Leading zero omitted, Abs format (unit mm)*
G04 Created by KiCad (PCBNEW 7.0.2) date 2024-09-11 13:33:12*
%MOMM*%
%LPD*%
G01*
G04 APERTURE LIST*
G04 Aperture macros list*
%AMRoundRect*
0 Rectangle with rounded corners*
0 $1 Rounding radius*
0 $2 $3 $4 $5 $6 $7 $8 $9 X,Y pos of 4 corners*
0 Add a 4 corners polygon primitive as box body*
4,1,4,$2,$3,$4,$5,$6,$7,$8,$9,$2,$3,0*
0 Add four circle primitives for the rounded corners*
1,1,$1+$1,$2,$3*
1,1,$1+$1,$4,$5*
1,1,$1+$1,$6,$7*
1,1,$1+$1,$8,$9*
0 Add four rect primitives between the rounded corners*
20,1,$1+$1,$2,$3,$4,$5,0*
20,1,$1+$1,$4,$5,$6,$7,0*
20,1,$1+$1,$6,$7,$8,$9,0*
20,1,$1+$1,$8,$9,$2,$3,0*%
%AMFreePoly0*
4,1,6,0.500000,-0.750000,-0.650000,-0.750000,-0.150000,0.000000,-0.650000,0.750000,0.500000,0.750000,0.500000,-0.750000,0.500000,-0.750000,$1*%
%AMFreePoly1*
4,1,6,0.150000,0.000000,0.650000,-0.750000,-0.500000,-0.750000,-0.500000,0.750000,0.650000,0.750000,0.150000,0.000000,0.150000,0.000000,$1*%
%AMFreePoly2*
4,1,6,1.000000,0.000000,0.500000,-0.750000,-0.500000,-0.750000,-0.500000,0.750000,0.500000,0.750000,1.000000,0.000000,1.000000,0.000000,$1*%
%AMFreePoly3*
4,1,6,0.500000,-0.750000,-0.500000,-0.750000,-1.000000,0.000000,-0.500000,0.750000,0.500000,0.750000,0.500000,-0.750000,0.500000,-0.750000,$1*%
G04 Aperture macros list end*
%ADD10R,1.250000X0.280000*%
%ADD11R,2.000000X1.800000*%
%ADD12C,4.500000*%
%ADD13R,1.350000X1.350000*%
%ADD14O,1.350000X1.350000*%
%ADD15O,2.200000X3.500000*%
%ADD16R,1.500000X2.500000*%
%ADD17O,1.500000X2.500000*%
%ADD18C,2.000000*%
%ADD19RoundRect,0.375000X-0.375000X-0.750000X0.375000X-0.750000X0.375000X0.750000X-0.375000X0.750000X0*%
%ADD20FreePoly0,180.000000*%
%ADD21FreePoly1,180.000000*%
%ADD22FreePoly2,180.000000*%
%ADD23FreePoly3,180.000000*%
G04 APERTURE END LIST*
D10*
%TO.C,J11*%
X130293000Y-62550000D03*
X130293000Y-63050000D03*
X130293000Y-63550000D03*
X130293000Y-64050000D03*
X130293000Y-64550000D03*
X130293000Y-65050000D03*
X130293000Y-65550000D03*
X130293000Y-66050000D03*
X130293000Y-66550000D03*
X130293000Y-67050000D03*
X130293000Y-67550000D03*
X130293000Y-68050000D03*
D11*
X127569000Y-69850000D03*
X127569000Y-60750000D03*
%TD*%
D10*
%TO.C,J17*%
X98249000Y-57500000D03*
X98249000Y-58000000D03*
X98249000Y-58500000D03*
X98249000Y-59000000D03*
X98249000Y-59500000D03*
X98249000Y-60000000D03*
X98249000Y-60500000D03*
X98249000Y-61000000D03*
X98249000Y-61500000D03*
X98249000Y-62000000D03*
X98249000Y-62500000D03*
X98249000Y-63000000D03*
D11*
X95525000Y-64800000D03*
X95525000Y-55700000D03*
%TD*%
D10*
%TO.C,J16*%
X106693000Y-45375000D03*
X106693000Y-45875000D03*
X106693000Y-46375000D03*
X106693000Y-46875000D03*
X106693000Y-47375000D03*
X106693000Y-47875000D03*
X106693000Y-48375000D03*
X106693000Y-48875000D03*
X106693000Y-49375000D03*
X106693000Y-49875000D03*
X106693000Y-50375000D03*
X106693000Y-50875000D03*
D11*
X103969000Y-52675000D03*
X103969000Y-43575000D03*
%TD*%
D10*
%TO.C,J15*%
X98249000Y-45400000D03*
X98249000Y-45900000D03*
X98249000Y-46400000D03*
X98249000Y-46900000D03*
X98249000Y-47400000D03*
X98249000Y-47900000D03*
X98249000Y-48400000D03*
X98249000Y-48900000D03*
X98249000Y-49400000D03*
X98249000Y-49900000D03*
X98249000Y-50400000D03*
X98249000Y-50900000D03*
D11*
X95525000Y-52700000D03*
X95525000Y-43600000D03*
%TD*%
D10*
%TO.C,J14*%
X106593000Y-62550000D03*
X106593000Y-63050000D03*
X106593000Y-63550000D03*
X106593000Y-64050000D03*
X106593000Y-64550000D03*
X106593000Y-65050000D03*
X106593000Y-65550000D03*
X106593000Y-66050000D03*
X106593000Y-66550000D03*
X106593000Y-67050000D03*
X106593000Y-67550000D03*
X106593000Y-68050000D03*
D11*
X103869000Y-69850000D03*
X103869000Y-60750000D03*
%TD*%
D10*
%TO.C,J13*%
X114200000Y-62550000D03*
X114200000Y-63050000D03*
X114200000Y-63550000D03*
X114200000Y-64050000D03*
X114200000Y-64550000D03*
X114200000Y-65050000D03*
X114200000Y-65550000D03*
X114200000Y-66050000D03*
X114200000Y-66550000D03*
X114200000Y-67050000D03*
X114200000Y-67550000D03*
X114200000Y-68050000D03*
D11*
X111476000Y-69850000D03*
X111476000Y-60750000D03*
%TD*%
D10*
%TO.C,J12*%
X122168000Y-62550000D03*
X122168000Y-63050000D03*
X122168000Y-63550000D03*
X122168000Y-64050000D03*
X122168000Y-64550000D03*
X122168000Y-65050000D03*
X122168000Y-65550000D03*
X122168000Y-66050000D03*
X122168000Y-66550000D03*
X122168000Y-67050000D03*
X122168000Y-67550000D03*
X122168000Y-68050000D03*
D11*
X119444000Y-69850000D03*
X119444000Y-60750000D03*
%TD*%
D12*
%TO.C,H4*%
X141732000Y-68580000D03*
%TD*%
%TO.C,H3*%
X94488000Y-38100000D03*
%TD*%
D13*
%TO.C,J10*%
X141986000Y-58166000D03*
D14*
X141986000Y-60166000D03*
X141986000Y-62166000D03*
%TD*%
D15*
%TO.C,SW17*%
X116654000Y-39370000D03*
X108454000Y-39370000D03*
D16*
X114554000Y-39370000D03*
D17*
X112554000Y-39370000D03*
X110554000Y-39370000D03*
%TD*%
D13*
%TO.C,J6*%
X133128000Y-67310000D03*
D14*
X135128000Y-67310000D03*
X137128000Y-67310000D03*
%TD*%
D18*
%TO.C,SW16*%
X105410000Y-39116000D03*
X98910000Y-39116000D03*
%TD*%
D19*
%TO.C,J7*%
X114522000Y-47752000D03*
X112522000Y-47752000D03*
X110522000Y-47752000D03*
%TD*%
D12*
%TO.C,H1*%
X94488000Y-68580000D03*
%TD*%
D18*
%TO.C,U1*%
X122428000Y-38606910D03*
X122428000Y-41142364D03*
X122428000Y-43678377D03*
D20*
X124708000Y-38676910D03*
X124708000Y-41216910D03*
X124708000Y-43756910D03*
D21*
X135383000Y-38676910D03*
X135383000Y-41216910D03*
X135383000Y-43756910D03*
D18*
X137668000Y-38609090D03*
X137668000Y-41149090D03*
X137668000Y-43689090D03*
D22*
X126158000Y-38676910D03*
X126158000Y-41216910D03*
X126158000Y-43756910D03*
D18*
X122428000Y-46226910D03*
X122428000Y-48765032D03*
X122428000Y-51304474D03*
X122428000Y-53839229D03*
X137668000Y-53849090D03*
X137668000Y-51309090D03*
X137668000Y-48769090D03*
X137668000Y-46229090D03*
D23*
X133933000Y-43756910D03*
X133933000Y-41216910D03*
X133933000Y-38676910D03*
D18*
X128856803Y-40462723D03*
X131396803Y-40462723D03*
X125598000Y-45926910D03*
X134498000Y-45926910D03*
%TD*%
D12*
%TO.C,H2*%
X141732000Y-38100000D03*
%TD*%
M02*
